max v2;#N vpatcher 337 93 1142 685;#P origin -20 0;#P window setfont "Sans Serif" 9.;#P message 73 229 39 196617 calib 0;#P message 59 211 39 196617 calib 1;#P newex 230 358 53 196617 pack 0. 0.;#P user jit.fpsgui 438 204 60 196617 4;#P flonum 406 67 35 9 0.5 0 1 3 0 0 0 221 221 221 222 222 222 0 0 0;#P toggle 372 67 15 0;#P newex 372 87 44 196617 metro 2;#P user jit.cellblock 558 171 676 289 3 9 40 1 45 17 0 1 1 0 1 1 1 1 1 0 0 0 255 255 255 0 0 0 0 0 0 191 191 191 0 0 0 215 215 240 1 1 1 0 4 0 0 0;#P newex 397 146 75 196617 jit.matrix tako;#P user jit.cellblock 529 305 647 423 3 9 40 1 45 17 0 1 1 0 1 1 1 1 1 0 0 0 255 255 255 0 0 0 0 0 0 191 191 191 0 0 0 215 215 240 1 1 1 0 4 0 0 0;#P user jit.cellblock 397 452 515 570 3 9 40 1 45 17 0 1 1 0 1 1 1 1 1 0 0 0 255 255 255 0 0 0 0 0 0 191 191 191 0 0 0 215 215 240 1 1 1 0 4 0 0 0;#P message 269 212 52 196617 setall 1.1;#P newex 370 326 52 196617 jit.pack 2;#P newex 371 299 62 196617 jit.unpack 2;#P button 166 231 15 0;#P newex 154 351 31 196617 print;#P newex 166 305 128 196617 ys.jit.stringstate @calib 0;#P newex 166 271 120 196617 jit.matrix 10 float32 40;#P connect 15 0 2 0;#P connect 9 0 0 0;#P connect 3 0 0 0;#P connect 6 0 0 0;#P connect 5 0 1 0;#P connect 17 0 1 0;#P connect 16 0 1 0;#P connect 1 0 15 0;#P connect 1 1 15 1;#P connect 4 0 5 0;#P connect 0 0 4 0;#P connect 12 0 11 0;#P connect 11 0 9 0;#P fasten 4 0 7 0 396 474;#P connect 13 0 11 1;#P connect 4 1 5 1;#P connect 9 0 14 0;#P connect 4 1 8 0;#P connect 9 0 10 0;#P pop;