max v2;#N vpatcher 398 47 1047 632;#P origin -3 -41;#P window setfont "Sans Serif" 9.;#P hidden message 162 205 14 196617 7;#P hidden message 176 204 20 196617 10;#P hidden message 197 204 20 196617 65;#P hidden newex 168 186 48 196617 loadbang;#P user led 473 363 17 17 2 150;#P toggle 406 501 33 0;#P hidden newex 377 533 85 196617 clip~ -0.99 0.99;#P user meter~ 440 377 461 498 100 0 168 0 103 103 103 255 153 0 255 0 0 217 217 0 153 186 0 12 3 3 3 3;#P user gain~ 405 377 35 103 158 12 1.071519 7.94321 10.;#P hidden newex 376 552 31 196617 dac~;#P window setfont "Arial Black" 12.;#P window linecount 3;#P comment 524 510 102 791478284 Navid Navab MUMT 307 Feb 2008;#B color 7;#P user scope~ 111 380 405 535 256 3 128 -1. 1. 0 0. 0 0. 255 255 255 0 0 0 0;#P user dial 549 252 40 40 128 1 0 0 159 270 1 1. 102 102 204 220 220 220 119 119 119 224 224 224 0 0 0 0 0 0;#P window setfont "Sans Serif" 10.;#P window linecount 1;#P comment 547 237 44 196618 Decay;#B color 5;#P user dial 493 252 40 40 128 1 0 0 159 270 1 1. 102 102 204 220 220 220 119 119 119 224 224 224 0 0 0 0 0 0;#P comment 490 237 49 196618 Sustain;#B color 5;#P user dial 437 252 41 41 128 1 0 0 159 270 1 1. 102 102 204 220 220 220 119 119 119 224 224 224 0 0 0 0 0 0;#P window setfont "Sans Serif" 9.;#N vpatcher 66 211 431 520;#P window setfont "Sans Serif" 9.;#P window linecount 1;#P message 301 141 26 196617 300;#P newex 301 122 48 196617 loadbang;#P message 100 47 26 196617 500;#P newex 92 25 48 196617 loadbang;#P flonum 299 101 35 9 0 0 0 3 0 0 0 221 221 221 222 222 222 0 0 0;#P newex 229 69 32 196617 * 30;#P number 227 89 33 9 0 0 0 3 0 0 0 221 221 221 222 222 222 0 0 0;#P comment 261 92 18 196617 ms;#P outlet 158 259 15 0;#P newex 158 223 101 196617 rampsmooth~ 20 20;#P message 290 163 34 196617 0. \$1;#P newex 290 79 32 196617 * 20;#P inlet 290 54 15 0;#P newex 28 65 94 196617 makenote 60 1000;#P inlet 229 50 15 0;#P newex 158 199 44 196617 line~ 0.;#P message 158 173 90 196617 0. \, 1. 160;#P message 158 120 76 196617 set 0. \\\, 1. \$1;#P newex 158 99 27 196617 * 4;#P inlet 158 52 15 0;#P button 61 136 15 0;#P button 28 136 15 0;#P newex 28 116 43 196617 route 0;#P newex 28 96 27 196617 > 0;#P inlet 29 45 15 0;#P comment 23 29 57 196617 Velocity in;#P comment 148 34 40 196617 Attack;#P comment 215 31 42 196617 sustain;#P comment 283 31 38 196617 decay;#P comment 179 258 68 196617 Envelope Out;#P connect 5 0 16 0;#P connect 16 1 6 0;#P connect 6 0 7 0;#P connect 7 0 8 0;#P connect 7 1 9 0;#P connect 26 0 27 0;#P connect 24 0 16 2;#P connect 27 0 16 2;#P connect 10 0 11 0;#P connect 11 0 12 0;#P connect 12 0 13 0;#P fasten 9 0 13 0 66 167 163 167;#P connect 13 0 14 0;#P fasten 19 0 14 0 295 193 163 193;#P connect 14 0 20 0;#P connect 20 0 21 0;#P connect 24 0 23 0;#P connect 15 0 24 0;#P connect 17 0 18 0;#P connect 18 0 19 0;#P connect 29 0 19 0;#P fasten 8 0 19 0 33 156 295 156;#P connect 18 0 25 0;#P connect 28 0 29 0;#P pop 1;#P newobj 381 299 180 196617 p envelope;#B color 5;#P flonum 273 310 31 9 0 0 0 3 0 0 0 40 204 140 222 222 222 0 0 0;#P user dial 269 270 40 40 101 1 10 0 159 270 1 1. 73 155 96 220 220 220 119 119 119 224 224 224 0 0 0 0 0 0;#P window setfont "Arial Black" 18.;#P user ubumenu 229 160 132 791478290 0 1 1 0;#X setrgb 32 0 132 255 188 9 234 234 234 4 4 4 141 141 141 112 112 112;#X add Sinusoid;#X add Sawtooth;#X add Noise;#X prefix_set 0 0 <none> 0;#P window setfont "Sans Serif" 9.;#P flonum 131 290 35 9 0 0 0 3 0 0 0 255 92 174 222 222 222 0 0 0;#P flonum 44 289 35 9 0 0 0 3 0 0 0 255 92 174 222 222 222 0 0 0;#P window setfont "Arial Black" 12.;#P comment 129 230 69 791478284 Depth;#P user dial 131 248 40 40 36 1 0 0 159 270 1 1. 153 102 153 220 220 220 119 119 119 224 224 224 0 0 0 0 0 0;#P user dial 44 248 40 40 16 1 0 0 159 270 1 1. 153 102 153 220 220 220 119 119 119 224 224 224 0 0 0 0 0 0;#P window setfont "Sans Serif" 9.;#N vpatcher 48 328 534 674;#P window setfont "Sans Serif" 9.;#P user number~ 278 185 317 200 9 3 3 2 0. 0. 0 0. 250 0. 0 0 0 221 221 221 222 222 222 0 0 0;#P newex 232 118 44 196617 line~ 0.;#P outlet 25 309 15 0;#P inlet 438 54 15 0;#P newex 160 262 147 196617 reson~ 1 0 75;#P newex 160 241 39 196617 noise~;#P message 55 102 14 196617 0;#P newex 54 82 48 196617 loadbang;#P newex 25 129 27 196617 + 1;#P newex 232 99 27 196617 + 0.;#P newex 277 78 70 196617 snapshot~ 20;#P newex 277 61 52 196617 cycle~ 1;#P inlet 366 52 15 0;#P inlet 249 50 15 0;#P newex 232 137 39 196617 cycle~;#P newex 231 156 145 196617 *~;#P newex 161 178 82 196617 +~;#P newex 25 282 145 196617 selector~ 3;#P newex 70 216 101 196617 gate~ 3;#P newex 115 256 34 196617 saw~;#P newex 70 256 40 196617 cycle~;#P newex 161 94 31 196617 mtof;#P inlet 161 55 15 0;#P inlet 25 51 15 0;#P comment 20 31 52 196617 OSC mode;#P window linecount 2;#P comment 156 30 37 196617 midi # (pitch);#P window linecount 1;#P comment 234 28 56 196617 vbrt speed;#P comment 357 31 57 196617 vbrt depth;#P comment 288 48 46 196617 deviation;#P comment 437 31 18 196617 Q;#P window linecount 2;#P comment 370 295 72 196617 Navid Navab \, MUMT 307;#P window linecount 1;#P comment 46 311 44 196617 OSC out;#P connect 8 0 23 0;#P connect 25 0 23 0;#P connect 23 0 14 0;#P connect 14 0 29 0;#P connect 24 0 25 0;#P connect 23 0 13 0;#P connect 13 0 11 0;#P connect 11 0 14 1;#P connect 13 1 12 0;#P connect 12 0 14 2;#P connect 26 0 27 0;#P connect 27 0 14 3;#P connect 9 0 10 0;#P connect 10 0 15 0;#P fasten 15 0 13 1 166 211 166 211;#P fasten 17 0 16 0 236 154;#P fasten 21 0 22 0 282 97 237 97;#P connect 22 0 30 0;#P connect 30 0 17 0;#P connect 16 0 15 1;#P connect 18 0 22 1;#P fasten 13 2 27 2 165 238 255 238;#P connect 20 0 21 0;#P connect 16 0 31 0;#P fasten 28 0 27 3 443 244 300 244;#P connect 19 0 16 1;#P pop 1;#P newobj 23 311 183 196617 p synth;#B color 5;#P newex 22 335 369 196617 *~ 0.;#P user kslider 27 65 54 0 36 84 31 12 0 232 0 6 232 0 6 255 255 255 12 0 116 132 83 0;#P window setfont "Arial Black" 12.;#P comment 41 230 69 791478284 Speed;#P window setfont "Arial Black" 14.;#P comment 279 251 21 791478286 Q;#P window setfont "Sans Serif" 10.;#P comment 442 237 43 196618 Attack;#B color 5;#P window setfont "Arial Black" 12.;#P window linecount 2;#P comment 439 497 54 791478284 Audio On / Off;#B color 12;#P window linecount 1;#P comment 395 361 71 791478284 set Gain;#B color 12;#P user panel 106 358 388 188;#X brgb 0 0 0;#X frgb 0 0 0;#X border 1;#X rounded 15;#X shadow 0;#X done;#P window setfont "Arial Black" 18.;#P comment 459 200 100 791478290 Envelope;#B color 5;#P user panel 371 188 253 147;#X brgb 45 0 100;#X frgb 0 0 0;#X border 1;#X rounded 20;#X shadow 0;#X done;#P comment 70 197 88 791478290 Vibrato;#B color 1;#P user panel 7 187 210 146;#X brgb 198 23 0;#X frgb 0 0 0;#X border 1;#X rounded 20;#X shadow 0;#X done;#P window setfont Arial 12.;#P comment 241 227 105 131137548 Noise mode only;#P user panel 236 219 113 113;#X brgb 0 198 31;#X frgb 0 0 0;#X border 1;#X rounded 20;#X shadow 0;#X done;#P window setfont "Arial Black" 14.;#P comment 241 133 104 791478286 OSC mode;#B color 12;#P user panel 219 128 150 79;#X brgb 113 0 150;#X frgb 0 0 0;#X border 1;#X rounded 20;#X shadow 0;#X done;#P window setfont "Arial Black" 24.;#P comment 92 27 473 791478296 Navid's Monophonic Synthesizer;#P user panel 0 21 633 549;#X brgb 232 228 0;#X frgb 0 0 0;#X border 1;#X rounded 20;#X shadow 0;#X done;#P connect 18 0 17 0;#P hidden connect 24 0 18 0;#P hidden connect 44 0 19 0;#P connect 19 0 22 0;#P hidden fasten 16 0 18 1 32 186 71 186;#P hidden connect 22 0 18 2;#P hidden fasten 36 0 33 0 107 506 107 376 116 376;#P hidden connect 43 0 20 0;#P connect 20 0 23 0;#P hidden connect 23 0 18 3;#P hidden connect 41 0 44 0;#P hidden connect 41 0 43 0;#P hidden connect 26 0 18 4;#P hidden connect 41 0 42 0;#P hidden connect 42 0 25 0;#P connect 25 0 26 0;#P hidden connect 39 0 35 0;#P hidden connect 38 0 35 0;#P hidden connect 36 0 38 0;#P hidden fasten 16 1 27 0 611 180 386 180;#P connect 27 0 17 1;#P hidden connect 38 0 35 1;#P hidden fasten 17 0 36 0 27 353 410 353;#P fasten 16 1 28 0 611 181 442 181;#P lcolor 6;#P connect 28 0 27 1;#P hidden fasten 36 0 37 0 464 501 464 373 445 373;#P hidden connect 39 0 40 0;#P connect 30 0 27 2;#P connect 32 0 27 3;#P pop;