max v2;#N vpatcher 89 73 1110 793;#P origin 0 -12;#P comment 308 32 213 196626 blackhole_0113;#P comment 523 32 143 196617 Yoichiro Serita © 2003 Topological Media Lab;#P message 647 101 26 196617 100;#P newex 647 79 45 196617 loadbang;#P newex 596 406 195 196617 jit.clip 2 long 320 240 @min 0 @max 255;#P newex 544 104 82 196617 vexpr $f1 * $i2;#P newex 544 83 63 196617 playerxy p2;#P number 634 167 35 9 0 0 0 3 0 0 0 156 179 255 222 222 222 0 0 0;#P button 520 179 15 0;#P number 674 188 35 9 0 0 0 3 0 0 0 156 179 255 222 222 222 0 0 0;#P message 635 230 35 196617 \$1 \$2;#P newex 544 130 48 196617 unpack;#P newex 502 103 32 196617 r np1;#B color 12;#P newex 635 249 35 196617 s pos2;#B color 12;#P newex 544 237 53 196617 t b b b l;#P number 582 153 35 9 0 0 0 3 0 0 0 255 227 23 222 222 222 0 0 0;#P number 544 153 35 9 0 0 0 3 0 0 0 255 227 23 222 222 222 0 0 0;#P newex 544 201 45 196617 pack 0 0;#P message 616 306 110 196617 plane \$1 \, offset \$2 \$3;#P newex 588 276 55 196617 swirl0113;#P newex 558 376 155 196617 jit.matrix wow3 2 long 320 240;#P newex 582 338 74 196617 jit.fill wow3 0;#P comment 490 154 46 196617 (x2 \, y2);#P newex 531 272 26 196617 s rd;#P user jit.pwindow 595 427 82 62 0 1 0 0 1 0;#P newex 365 611 45 196617 jit.repos;#P newex 909 453 61 196617 s mouseinfo;#P newex 884 358 56 1441802 sel 0 1;#P message 884 379 110 1441802 \; max showmenubar;#P message 884 397 110 1441802 \; max hidemenubar;#P message 797 359 83 1441802 fullscreen \$1;#P toggle 884 335 15 0;#P newex 884 313 62 1441802 select 27;#P newex 884 292 40 1441802 key;#P message 850 172 20 196617 \$8;#P newex 850 192 27 196617 + 1;#P message 840 116 20 196617 \$3;#P newex 813 139 27 196617 gate;#P newex 830 67 61 196617 r mouseinfo;#B color 12;#P newex 780 278 32 196617 s np1;#B color 12;#P newex 813 278 32 196617 s np2;#B color 12;#P newex 780 253 43 196617 gate 2;#P number 780 230 35 9 0 0 0 3 0 0 0 221 221 221 222 222 222 0 0 0;#P message 813 172 35 196617 \$1 \$2;#P newex 830 90 63 196617 route mouse;#P message 421 103 26 196617 100;#P newex 421 81 45 196617 loadbang;#P toggle 207 518 15 0;#P user GSwitch 205 542 41 32 1 0;#P message 220 459 98 1441802 read track2.mov;#P message 206 441 73 1441802 read oh.mov;#P message 192 423 113 1441802 read countdown.mov;#P newex 370 408 195 196617 jit.clip 2 long 320 240 @min 0 @max 255;#P newex 318 106 82 196617 vexpr $f1 * $i2;#P newex 318 85 63 196617 playerxy p2;#P newex 83 55 45 196617 loadbang;#P message 130 55 45 196617 319 239;#P newex 58 102 82 196617 vexpr $f1 * $i2;#P newex 58 81 63 196617 playerxy p1;#P number 408 169 35 9 0 0 0 3 0 0 0 156 179 255 222 222 222 0 0 0;#P button 294 181 15 0;#P user jit.pwindow 363 635 82 62 0 1 0 0 1 0;#P newex 290 560 45 196617 jit.repos;#P number 448 190 35 9 0 0 0 3 0 0 0 156 179 255 222 222 222 0 0 0;#P newex 167 598 110 196617 jit.op @op !- @val 255;#P user jit.pwindow 119 676 82 62 0 1 0 0 1 0;#P newex 114 637 63 196617 jit.op @op *;#P user jit.pwindow 20 654 82 62 0 1 0 0 1 0;#P message 103 491 98 1441802 read chilis.jpg;#P message 112 510 92 1441802 read wheel.mov;#P message 94 472 133 1441802 read colorswatch.pict;#P message 83 571 32 1441802 stop;#P message 118 571 38 1441802 start;#P message 121 529 32 1441802 read;#P toggle 18 529 15 0;#P newex 18 551 53 1441802 metro 50;#P button 18 572 15 0;#P newex 18 597 103 196617 jit.qt.movie 320 240;#P newex 858 707 61 196617 s mouseinfo;#P message 68 180 28 196617 bang;#P message 409 232 35 196617 \$1 \$2;#P newex 318 132 48 196617 unpack;#P newex 276 105 32 196617 r np2;#B color 12;#P newex 409 251 35 196617 s pos2;#B color 12;#P newex 318 239 53 196617 t b b b l;#P number 356 155 35 9 0 0 0 3 0 0 0 255 227 23 222 222 222 0 0 0;#P number 318 155 35 9 0 0 0 3 0 0 0 255 227 23 222 222 222 0 0 0;#P newex 318 203 45 196617 pack 0 0;#P message 390 308 110 196617 plane \$1 \, offset \$2 \$3;#P newex 362 278 55 196617 swirl0113;#P newex 332 378 155 196617 jit.matrix wow2 2 long 320 240;#P newex 356 340 74 196617 jit.fill wow2 0;#P comment 264 156 46 196617 (x2 \, y2);#P message 152 228 35 196617 \$1 \$2;#P newex 58 129 48 196617 unpack;#P newex 21 103 32 196617 r np1;#B color 12;#P newex 152 247 35 196617 s pos1;#B color 12;#P newex 305 274 26 196617 s rd;#P newex 21 343 26 196617 r rd;#P user jit.pwindow 505 495 322 242 0 1 0 0 1 0;#P user jit.pwindow 369 429 82 62 0 1 0 0 1 0;#P newex 58 228 40 196617 t b b l;#P number 96 152 35 9 0 0 0 3 0 0 0 255 227 23 222 222 222 0 0 0;#P number 58 152 35 9 0 0 0 3 0 0 0 255 227 23 222 222 222 0 0 0;#P newex 58 200 86 196617 pack 0 0 0;#P message 136 293 65 196617 offset \$1 \$2;#P number 134 152 35 9 0 0 0 3 0 0 0 156 179 255 222 222 222 0 0 0;#P newex 73 265 73 196617 selfforce1225;#P newex 58 373 155 196617 jit.matrix wow1 1 char 320 240;#P newex 73 324 74 196617 jit.fill wow1 0;#P user jit.pwindow 57 401 82 62 0 1 0 0 1 0;#P comment 8 154 46 196617 (x1 \, y1);#P comment 173 152 53 196617 prameter1;#P connect 38 0 37 0;#P connect 37 0 36 0;#P connect 14 0 35 0;#P connect 42 0 35 0;#P connect 44 0 35 0;#P connect 43 0 35 0;#P connect 39 0 35 0;#P connect 40 0 35 0;#P connect 41 0 35 0;#P connect 36 0 35 0;#P connect 61 0 35 0;#P connect 63 0 35 0;#P connect 62 0 35 0;#P connect 35 0 45 0;#P connect 54 0 55 0;#P connect 55 0 18 0;#P fasten 17 0 18 0 26 124 63 124;#P connect 18 0 9 0;#P connect 9 0 8 0;#P connect 33 0 8 0;#P connect 8 0 11 0;#P connect 11 0 4 0;#P fasten 14 0 4 0 26 368 63 368;#P connect 4 0 2 0;#P fasten 6 0 33 0 139 174 73 174;#P connect 11 1 5 0;#P fasten 11 2 5 0 93 255 78 255;#P connect 5 0 3 0;#P fasten 7 0 3 0 141 316 78 316;#P connect 18 1 10 0;#P connect 10 0 8 1;#P connect 35 0 46 0;#P connect 46 0 47 0;#P connect 57 0 56 0;#P connect 56 0 55 1;#P connect 67 0 6 0;#P connect 6 0 8 2;#P connect 5 1 7 0;#P fasten 8 0 19 0 63 222 157 222;#P connect 19 0 16 0;#P connect 48 0 46 1;#P connect 65 0 64 0;#P connect 35 0 64 1;#P connect 2 0 64 2;#P fasten 64 0 50 0 210 578 259 578 259 548 295 548;#P connect 49 0 52 0;#P connect 53 0 52 0;#P connect 28 0 15 0;#P connect 58 0 59 0;#P connect 59 0 31 0;#P fasten 30 0 31 0 281 127 323 127;#P connect 31 0 26 0;#P connect 26 0 25 0;#P connect 52 0 25 0;#P connect 25 0 28 0;#P connect 22 0 50 1;#P connect 28 1 22 0;#P connect 27 0 25 1;#P connect 31 1 27 0;#P connect 24 0 21 0;#P connect 23 0 21 0;#P fasten 28 3 23 0 365 263 367 263;#P connect 28 2 23 0;#P connect 87 0 51 0;#P connect 22 0 60 0;#P connect 60 0 12 0;#P connect 53 0 23 1;#P fasten 56 0 59 1 135 75 395 75;#P connect 23 1 24 0;#P connect 88 0 87 1;#P connect 49 0 23 2;#P connect 67 0 53 0;#P fasten 25 0 32 0 323 225 414 225;#P connect 32 0 29 0;#P connect 66 0 67 0;#P connect 67 0 49 0;#P connect 50 0 13 0;#P connect 51 0 13 0;#P connect 103 0 104 0;#P connect 105 0 104 0;#P connect 98 0 89 0;#P connect 106 0 107 0;#P connect 107 0 101 0;#P fasten 100 0 101 0 507 125 549 125;#P connect 101 0 96 0;#P connect 104 0 95 0;#P connect 96 0 95 0;#P connect 95 0 98 0;#P connect 98 1 92 0;#P connect 97 0 95 1;#P connect 101 1 97 0;#P connect 94 0 91 0;#P connect 93 0 91 0;#P connect 98 2 93 0;#P fasten 98 3 93 0 591 261 593 261;#P connect 92 0 108 0;#P connect 108 0 88 0;#P connect 105 0 93 1;#P connect 93 1 94 0;#P connect 103 0 93 2;#P connect 110 0 105 0;#P fasten 95 0 102 0 549 223 640 223;#P connect 102 0 99 0;#P connect 109 0 110 0;#P connect 110 0 103 0;#P fasten 77 0 70 0 855 221 785 221;#P connect 70 0 71 0;#P connect 71 0 73 0;#P connect 81 0 82 0;#P connect 76 0 75 0;#P connect 75 0 69 0;#P connect 69 0 71 1;#P connect 71 1 72 0;#P connect 74 0 68 0;#P connect 68 0 75 1;#P connect 68 0 76 0;#P connect 75 0 78 0;#P connect 78 0 77 0;#P connect 13 1 34 0;#P connect 79 0 80 0;#P connect 80 0 81 0;#P connect 81 0 85 0;#P connect 85 0 84 0;#P connect 85 1 83 0;#P pop;