max v2;#N vpatcher 386 376 699 570;#N comlet calibrated x y for player named in argument;#P outlet 30 126 15 0;#P newex 29 37 45 196617 r $1-s9;#P newex 28 79 52 196617 pack 0. 0.;#P newex 28 59 95 196617 unpack 0. 0. 0.;#P newex 28 100 95 196617 pos_calib_interface;#P comment 140 29 100 196617 playerxy - produces calibrated xy for player named in argument eg playerxy p1;#P connect 4 0 2 0;#P connect 2 0 3 0;#P connect 3 0 1 0;#P connect 1 0 5 0;#P connect 2 1 3 1;#P pop;