max v2;#N vpatcher 276 239 1050 893;#P origin 0 9;#P comment 160 27 213 196626 pos_calib;#P comment 375 27 143 196617 Yoichiro Serita © 2003 Topological Media Lab;#P comment 178 574 82 196620 calibrated parameters;#P comment 129 128 90 196620 corners (set);#P comment 224 64 82 196620 incoming parameters;#P comment 524 64 66 196620 Yoichiro 01.09.03;#P message 24 70 72 196617 set 1 0. 0. \, set 2 1. 0. \, set 3 0. 1. \, set 4 1. 1.;#P newex 24 47 45 196617 loadbang;#P newex 120 73 49 196617 route set;#P newex 109 568 52 196617 pack 0. 0.;#P comment 344 134 14 196617 Y;#P comment 288 134 14 196617 x;#P newex 306 153 63 196617 fswap 0.;#P outlet 109 597 15 0;#P inlet 120 45 15 0;#P flonum 53 359 35 9 0 0 0 3 0 0 0 221 221 221 222 222 222 0 0 0;#P flonum 581 288 35 9 0 0 0 3 0 0 0 221 221 221 222 222 222 0 0 0;#P flonum 411 288 35 9 0 0 0 3 0 0 0 221 221 221 222 222 222 0 0 0;#P flonum 244 288 35 9 0 0 0 3 0 0 0 221 221 221 222 222 222 0 0 0;#P flonum 53 288 35 9 0 0 0 3 0 0 0 221 221 221 222 222 222 0 0 0;#P flonum 151 449 35 9 0 0 0 3 0 0 0 221 221 221 222 222 222 0 0 0;#P flonum 151 407 35 9 0 0 0 3 0 0 0 221 221 221 222 222 222 0 0 0;#P flonum 151 540 35 9 0 0 0 3 0 0 0 221 221 221 222 222 222 0 0 0;#P flonum 109 540 35 9 0 0 0 3 0 0 0 221 221 221 222 222 222 0 0 0;#P comment 34 361 16 196617 s0;#P newex 306 109 63 196617 unpack 0. 0.;#P message 378 246 16 196617 \$2;#P message 187 246 20 196617 \$2;#P message 311 246 16 196617 \$2;#P message 120 246 20 196617 \$2;#P message 715 246 20 196617 \$1;#P message 545 246 16 196617 \$1;#P message 648 246 20 196617 \$1;#P message 478 246 16 196617 \$1;#P flonum 359 134 35 9 0 0 0 3 0 0 0 221 221 221 222 222 222 0 0 0;#P flonum 306 134 35 9 0 0 0 3 0 0 0 221 221 221 222 222 222 0 0 0;#P comment 161 524 16 196617 s2;#P comment 118 524 16 196617 t2;#P comment 131 451 16 196617 s1;#P comment 131 408 16 196617 t1;#P comment 224 266 14 196617 sb;#P comment 37 266 14 196617 sa;#P comment 563 266 14 196617 tb;#P newex 120 193 250 196617 route 1 2 3 4;#P newex 151 497 168 196617 expr (1.0 - $f1) * $f2 + $f1 * $f3;#P newex 151 470 211 196617 expr (1.0 - $f1) * $f2 + $f1 * $f3;#P newex 151 427 168 196617 expr (1.0 - $f1) * $f2 + $f1 * $f3;#P newex 151 385 210 196617 expr (1.0 - $f1) * $f2 + $f1 * $f3;#P newex 53 336 36 196617 * 0.5;#P newex 53 315 27 196617 + 0.;#P newex 244 266 145 196617 expr ($f1 - $f2) / ($f3 - $f2);#P newex 53 266 145 196617 expr ($f1 - $f2) / ($f3 - $f2);#P newex 581 266 145 196617 expr ($f1 - $f2) / ($f3 - $f2);#P newex 411 266 145 196617 expr ($f1 - $f2) / ($f3 - $f2);#P comment 393 266 13 196617 ta;#P connect 47 0 48 0;#P fasten 42 0 3 0 311 177 58 177;#P connect 3 0 35 0;#P connect 35 0 5 0;#P connect 5 0 6 0;#P connect 6 0 39 0;#P fasten 36 0 5 1 249 312 75 312;#P fasten 9 0 31 0 156 492 114 492;#P connect 31 0 45 0;#P connect 45 0 41 0;#P connect 40 0 46 0;#P fasten 48 0 46 0 29 129 104 129 104 66 125 66;#P connect 46 0 11 0;#P connect 11 0 25 0;#P connect 25 0 3 1;#P fasten 39 0 7 0 58 377 156 377;#P connect 7 0 33 0;#P connect 33 0 8 0;#P connect 8 0 34 0;#P connect 34 0 9 0;#P connect 9 0 10 0;#P connect 10 0 32 0;#P connect 32 0 45 1;#P fasten 11 2 27 0 245 242 192 242;#P connect 27 0 3 2;#P fasten 35 0 8 1 58 307 235 307;#P fasten 35 0 10 1 58 307 235 307;#P fasten 42 0 4 0 311 177 249 177;#P connect 4 0 36 0;#P fasten 37 0 7 1 416 372 256 372;#P fasten 37 0 9 1 416 459 256 459;#P fasten 46 1 29 0 164 100 311 100;#P connect 29 0 19 0;#P connect 19 0 42 0;#P fasten 36 0 8 2 249 312 314 312;#P fasten 36 0 10 2 249 312 314 312;#P fasten 11 1 26 0 185 238 316 238;#P connect 26 0 4 1;#P fasten 38 0 7 2 586 378 356 378;#P fasten 38 0 9 2 586 465 356 465;#P connect 29 1 20 0;#P connect 20 0 42 1;#P fasten 11 3 28 0 305 235 383 235;#P connect 28 0 4 2;#P fasten 42 1 1 0 364 177 416 177;#P connect 1 0 37 0;#P fasten 11 0 21 0 125 222 483 222;#P connect 21 0 1 1;#P fasten 11 1 23 0 185 220 550 220;#P connect 23 0 1 2;#P fasten 42 1 2 0 364 177 586 177;#P connect 2 0 38 0;#P fasten 11 2 22 0 245 218 653 218;#P connect 22 0 2 1;#P fasten 11 3 24 0 305 216 720 216;#P connect 24 0 2 2;#P pop;