max v2;#N vpatcher 17 46 1154 745;#P message 131 25 75 196617 readitagainsam;#P newex 476 630 527 196617 unpack 0 0 0 0 0 0 0 0 0 0 0 0;#P newex 492 579 526 196617 fadercontrol;#P newex 492 546 506 196617 pack 0 0 0 0 0 0 0 0 0 0 0 0;#P newex 95 225 374 196617 fm;#P newex 28 307 433 196617 route /am/room/libertarian /am/room/fascist /am/room/languid /am/room/chaotic;#P hidden newex 224 273 224 196617 OpenSoundControl;#P flonum 798 51 35 9 0 0 0 3 0 0 0 221 221 221 222 222 222 0 0 0;#P newex 798 30 61 196617 r ampkarp4;#P flonum 732 50 35 9 0 0 0 3 0 0 0 221 221 221 222 222 222 0 0 0;#P newex 732 29 61 196617 r ampkarp3;#P flonum 666 50 35 9 0 0 0 3 0 0 0 221 221 221 222 222 222 0 0 0;#P newex 666 29 61 196617 r ampkarp2;#P flonum 601 49 35 9 0 0 0 3 0 0 0 221 221 221 222 222 222 0 0 0;#N vpreset 1;#X append 1 2 8 81 29 flonum float 0.371094 \; 9 81 357 flonum float 0.352974 \; 10 81 243 flonum float 0.483398 \; 11 81 136 flonum float 0.587114 \; 12 81 100 multiSlider list 0.371094 \; 13 81 209 multiSlider list;#X append 1 2 0.587114 \; 14 81 322 multiSlider list 0.483398 \; 15 81 441 multiSlider list 0.352974 \; 16 359 28 flonum float 0. \; 20 129 539 gain~ list 100 10. \; 21 129 582 gain~ list 100 10. \; 22 129 624;#X append 1 2 gain~ list 100 10. \; 24 130 705 gain~ list 0 10. \; 25 130 747 gain~ list 0 10. \; 26 130 790 gain~ list 0 10. \; 27 130 834 gain~ list 0 10. \; 29 131 915;#X append 1 2 gain~ list 0 10. \; 30 131 957 gain~ list 0 10. \; 31 131 1000 gain~ list 0 10. \; 32 131 1044 gain~ list 0 10. \; 33 241 498 flonum float 100. \; 34 241 541 flonum;#X append 1 2 float 100. \; 35 241 584 flonum float 100. \; 36 241 628 flonum float 100. \; 37 241 708 flonum float 0. \; 38 241 751 flonum float 0. \; 39 241 794 flonum float 0. \; 40 241 838;#X append 1 2 flonum float 0. \; 41 243 918 flonum float 0. \; 42 243 961 flonum float 0. \; 43 243 1004 flonum float 0. \; 44 243 1048 flonum float 0. \; 77 359 141 flonum float 0. \; 79 359 256;#X append 1 2 flonum float 0. \; 81 359 371 flonum float 0. \; 92 129 494 gain~ list 100 10. \;;#P preset 1042 284 47 27;#P user gain~ 494 129 40 76 158 0 1.071519 7.94321 10.;#P newex 601 28 61 196617 r ampkarp1;#P newex 1003 89 70 196617 receive~ fm4;#P newex 1002 68 70 196617 receive~ fm3;#P newex 919 90 70 196617 receive~ fm2;#P newex 806 90 95 196617 receive~ granular4;#P newex 806 68 95 196617 receive~ granular3;#P newex 706 90 95 196617 receive~ granular2;#P newex 593 90 91 196617 receive~ karplus4;#P newex 593 69 91 196617 receive~ karplus3;#P newex 497 90 91 196617 receive~ karplus2;#P flonum 371 359 106 36 0 0 0 3 0 0 0 221 221 221 222 222 222 0 0 0;#P comment 371 341 100 196617 Line 4;#P flonum 256 359 106 36 0 0 0 3 0 0 0 221 221 221 222 222 222 0 0 0;#P comment 256 341 100 196617 Line 3;#P flonum 141 359 106 36 0 0 0 3 0 0 0 221 221 221 222 222 222 0 0 0;#P comment 141 341 100 196617 Line 2;#P newex 95 246 374 196617 granular;#P newex 95 205 373 196617 karplus;#P hidden newex 932 428 85 196617 receive~ fmdac4;#P hidden newex 932 406 85 196617 receive~ fmdac3;#P hidden newex 932 383 85 196617 receive~ fmdac2;#P hidden newex 933 361 85 196617 receive~ fmdac1;#P hidden newex 781 428 111 196617 receive~ granulardac4;#P hidden newex 781 406 111 196617 receive~ granulardac3;#P hidden newex 781 383 111 196617 receive~ granulardac2;#P hidden newex 781 362 111 196617 receive~ granulardac1;#P hidden newex 638 428 105 196617 receive~ karplusdac4;#P hidden newex 638 406 105 196617 receive~ karplusdac3;#P hidden newex 638 383 105 196617 receive~ karplusdac2;#P hidden newex 638 362 105 196617 receive~ karplusdac1;#P message 496 476 166 196617 stop;#P message 496 458 171 196617 start;#P newex 496 498 549 196617 dac~ 1 2 3 4 5 7;#P comment 495 361 239 196632 dac;#P user panel 491 354 599 168;#X brgb 160 135 22;#X frgb 0 0 0;#X border 1;#X rounded 0;#X shadow 0;#X done;#P hidden newex 919 327 71 196617 send~ fmdac4;#P hidden newex 919 302 71 196617 send~ fmdac3;#P hidden newex 919 279 71 196617 send~ fmdac2;#P hidden newex 919 258 71 196617 send~ fmdac1;#P hidden newex 709 326 95 196617 send~ granulardac4;#P hidden newex 709 301 95 196617 send~ granulardac3;#P hidden newex 709 278 95 196617 send~ granulardac2;#P hidden newex 709 257 95 196617 send~ granulardac1;#P hidden newex 496 325 92 196617 send~ karplusdac4;#P hidden newex 496 300 92 196617 send~ karplusdac3;#P hidden newex 496 277 92 196617 send~ karplusdac2;#P hidden newex 497 256 92 196617 send~ karplusdac1;#P flonum 1048 243 13 9 0 0 0 3 0 0 0 221 221 221 222 222 222 0 0 0;#P flonum 1004 243 35 9 0 0 0 3 0 0 0 221 221 221 222 222 222 0 0 0;#P flonum 961 243 35 9 0 0 0 3 0 0 0 221 221 221 222 222 222 0 0 0;#P flonum 918 243 35 9 0 0 0 3 0 0 0 221 221 221 222 222 222 0 0 0;#P flonum 838 241 35 9 0 0 0 3 0 0 0 221 221 221 222 222 222 0 0 0;#P flonum 794 241 35 9 0 0 0 3 0 0 0 221 221 221 222 222 222 0 0 0;#P flonum 751 241 35 9 0 0 0 3 0 0 0 221 221 221 222 222 222 0 0 0;#P flonum 708 241 35 9 0 0 0 3 0 0 0 221 221 221 222 222 222 0 0 0;#P flonum 628 241 35 9 0 0 0 3 0 0 0 221 221 221 222 222 222 0 0 0;#P flonum 584 241 35 9 0 0 0 3 0 0 0 221 221 221 222 222 222 0 0 0;#P flonum 541 241 35 9 0 0 0 3 0 0 0 221 221 221 222 222 222 0 0 0;#P flonum 498 241 35 9 0 0 0 3 0 0 0 221 221 221 222 222 222 0 0 0;#P user gain~ 1044 131 40 76 158 0 1.071519 7.94321 10.;#P user gain~ 1000 131 40 76 158 0 1.071519 7.94321 10.;#P user gain~ 957 131 40 76 158 0 1.071519 7.94321 10.;#P user gain~ 915 131 40 76 158 0 1.071519 7.94321 10.;#P newex 918 68 70 196617 receive~ fm1;#P user gain~ 834 130 40 76 158 0 1.071519 7.94321 10.;#P user gain~ 790 130 40 76 158 0 1.071519 7.94321 10.;#P user gain~ 747 130 40 76 158 0 1.071519 7.94321 10.;#P user gain~ 705 130 40 76 158 0 1.071519 7.94321 10.;#P newex 706 68 95 196617 receive~ granular1;#P user gain~ 624 129 40 76 158 0 1.071519 7.94321 10.;#P user gain~ 582 129 40 76 158 0 1.071519 7.94321 10.;#P user gain~ 539 129 40 76 158 0 1.071519 7.94321 10.;#P newex 497 69 91 196617 receive~ karplus1;#P comment 497 29 100 196632 Mixer;#P user panel 490 23 600 325;#X brgb 24 114 174;#X frgb 0 0 0;#X border 1;#X rounded 0;#X shadow 0;#X done;#P flonum 28 359 106 36 0 0 0 3 0 0 0 221 221 221 222 222 222 0 0 0;#P user multiSlider 441 81 32 103 0. 1. 1 2937 15;#M frgb 0 0 0;#M brgb 255 255 255;#M rgb2 127 127 127;#P user multiSlider 322 81 32 103 0. 1. 1 2937 15;#M frgb 0 0 0;#M brgb 255 255 255;#M rgb2 127 127 127;#P user multiSlider 209 81 32 103 0. 1. 1 2937 15;#M frgb 0 0 0;#M brgb 255 255 255;#M rgb2 127 127 127;#P user multiSlider 100 81 32 103 0. 1. 1 2937 15;#M frgb 0 0 0;#M brgb 255 255 255;#M rgb2 127 127 127;#P flonum 136 81 71 24 0 0 0 3 0 0 0 221 221 221 222 222 222 0 0 0;#P flonum 243 81 76 24 0 0 0 3 0 0 0 221 221 221 222 222 222 0 0 0;#P flonum 357 81 81 24 0 0 0 3 0 0 0 221 221 221 222 222 222 0 0 0;#P flonum 29 81 70 24 0 0 0 3 0 0 0 221 221 221 222 222 222 0 0 0;#P newex 29 42 438 196617 route /am/p1/s1 /am/p2/s1 /am/p3/s1 /am/p4/s1;#P hidden newex 30 20 83 196617 otudp read 5333;#P hidden newex 30 65 224 196617 OpenSoundControl;#P user panel 25 23 457 243;#X brgb 240 140 140;#X frgb 0 0 0;#X border 1;#X rounded 0;#X shadow 0;#X done;#P comment 27 272 100 196632 State;#P comment 28 341 100 196617 Line 1;#P user panel 23 266 460 175;#X brgb 191 191 191;#X frgb 0 0 0;#X border 1;#X rounded 0;#X shadow 0;#X done;#P comment 318 451 100 196617 Test Speaker Config;#P connect 5 1 102 0;#P connect 102 0 16 0;#P hidden connect 5 1 7 0;#P connect 7 0 8 0;#P connect 107 0 6 0;#P hidden connect 6 0 5 0;#P connect 8 0 74 0;#P connect 8 0 103 0;#P connect 8 0 75 0;#P hidden connect 8 0 12 0;#P connect 7 1 11 0;#P connect 102 1 77 0;#P hidden connect 11 0 13 0;#P hidden connect 11 0 74 1;#P hidden connect 11 0 103 1;#P hidden connect 11 0 75 1;#P connect 6 0 101 0;#P connect 7 2 10 0;#P connect 102 2 79 0;#P hidden connect 10 0 14 0;#P hidden connect 10 0 74 2;#P hidden connect 10 0 103 2;#P hidden connect 10 0 75 2;#P connect 7 3 9 0;#P connect 102 3 81 0;#P hidden connect 9 0 15 0;#P hidden connect 9 0 74 3;#P hidden connect 9 0 103 3;#P hidden connect 9 0 75 3;#P connect 92 1 104 0;#P connect 104 0 105 0;#P connect 19 0 92 0;#P hidden connect 94 0 92 0;#P hidden connect 20 0 46 0;#P hidden connect 21 0 47 0;#P hidden connect 22 0 48 0;#P hidden connect 62 0 59 0;#P hidden connect 70 0 59 0;#P connect 60 0 59 0;#P connect 61 0 59 0;#P hidden connect 66 0 59 0;#P connect 92 0 45 0;#P connect 92 1 33 0;#P connect 20 1 104 1;#P hidden connect 82 0 20 0;#P hidden connect 96 0 20 0;#P connect 20 1 34 0;#P hidden connect 83 0 21 0;#P hidden connect 98 0 21 0;#P connect 21 1 104 2;#P connect 21 1 35 0;#P connect 91 0 94 0;#P hidden connect 63 0 59 1;#P hidden connect 71 0 59 1;#P hidden connect 67 0 59 1;#P hidden connect 16 0 105 1;#P hidden connect 84 0 22 0;#P hidden connect 100 0 22 0;#P connect 22 1 104 3;#P connect 22 1 36 0;#P connect 95 0 96 0;#P connect 24 1 104 4;#P hidden connect 75 0 24 0;#P hidden connect 23 0 24 0;#P connect 24 1 37 0;#P hidden connect 24 0 49 0;#P hidden connect 25 0 50 0;#P hidden connect 26 0 51 0;#P hidden connect 27 0 52 0;#P connect 65 0 59 2;#P connect 73 0 59 2;#P connect 64 0 59 2;#P connect 72 0 59 2;#P connect 62 0 59 2;#P connect 63 0 59 2;#P connect 70 0 59 2;#P connect 71 0 59 2;#P connect 25 1 104 5;#P connect 97 0 98 0;#P hidden connect 75 1 25 0;#P hidden connect 85 0 25 0;#P hidden connect 77 0 105 2;#P connect 25 1 38 0;#P connect 26 1 104 6;#P hidden connect 75 2 26 0;#P hidden connect 86 0 26 0;#P connect 26 1 39 0;#P connect 99 0 100 0;#P connect 27 1 104 7;#P connect 65 0 59 3;#P connect 73 0 59 3;#P connect 64 0 59 3;#P connect 72 0 59 3;#P connect 62 0 59 3;#P connect 63 0 59 3;#P connect 70 0 59 3;#P connect 71 0 59 3;#P hidden connect 75 3 27 0;#P hidden connect 87 0 27 0;#P connect 27 1 40 0;#P connect 29 1 104 8;#P hidden connect 79 0 105 3;#P connect 30 1 104 9;#P hidden connect 103 0 29 0;#P connect 29 1 41 0;#P hidden connect 29 0 53 0;#P hidden connect 30 0 54 0;#P hidden connect 31 0 55 0;#P hidden connect 32 0 56 0;#P hidden connect 68 0 59 4;#P hidden connect 64 0 59 4;#P hidden connect 72 0 59 4;#P connect 31 1 104 10;#P connect 103 1 30 0;#P connect 30 1 42 0;#P connect 32 1 104 11;#P connect 103 2 31 0;#P connect 31 1 43 0;#P hidden connect 81 0 105 4;#P hidden connect 69 0 59 5;#P hidden connect 65 0 59 5;#P hidden connect 73 0 59 5;#P connect 103 3 32 0;#P connect 32 1 44 0;#P pop;