max v2;#N vpatcher 1068 36 2182 733;#P origin 0 -92;#P message 640 550 26 196617 360;#P message 244 551 26 196617 280;#P message 651 54 26 196617 146;#P message 294 24 14 196617 2;#P comment 1001 577 100 196617 Player 4;#P comment 1000 454 100 196617 Player 3;#P flonum 945 561 35 9 0 0 0 3 0 0 0 221 221 221 222 222 222 0 0 0;#P newex 870 629 104 196617 zmap 0. 200. 98 130;#P newex 871 650 61 196617 s ampkarp4;#P button 792 604 15 0;#P toggle 792 558 15 0;#P newex 792 581 55 196617 metro 500;#P flonum 870 604 35 9 0 0 0 3 0 0 0 221 221 221 222 222 222 0 0 0;#P number 904 561 38 9 0 0 0 3 0 0 0 221 221 221 222 222 222 0 0 0;#P newex 870 580 85 196617 leakysum;#P flonum 870 538 47 9 0 0 0 3 0 0 0 221 221 221 222 222 222 0 0 0;#P flonum 939 419 35 9 0 0 0 3 0 0 0 221 221 221 222 222 222 0 0 0;#P newex 864 487 104 196617 zmap 0. 200. 98 130;#P newex 865 508 61 196617 s ampkarp3;#P button 786 462 15 0;#P toggle 786 416 15 0;#P newex 786 439 55 196617 metro 500;#P flonum 864 462 35 9 0 0 0 3 0 0 0 221 221 221 222 222 222 0 0 0;#P number 898 419 38 9 0 0 0 3 0 0 0 221 221 221 222 222 222 0 0 0;#P newex 864 438 85 196617 leakysum;#P flonum 864 396 47 9 0 0 0 3 0 0 0 221 221 221 222 222 222 0 0 0;#P flonum 936 275 35 9 0 0 0 3 0 0 0 221 221 221 222 222 222 0 0 0;#P newex 861 343 104 196617 zmap 0. 200. 98 130;#P newex 862 364 61 196617 s ampkarp2;#P button 783 318 15 0;#P toggle 783 272 15 0;#P newex 783 295 55 196617 metro 500;#P flonum 861 318 35 9 0 0 0 3 0 0 0 221 221 221 222 222 222 0 0 0;#P number 895 275 38 9 0 0 0 3 0 0 0 221 221 221 222 222 222 0 0 0;#P newex 861 294 85 196617 leakysum;#P flonum 861 252 47 9 0 0 0 3 0 0 0 221 221 221 222 222 222 0 0 0;#P flonum 1030 124 35 9 0 0 0 3 0 0 0 221 221 221 222 222 222 0 0 0;#P newex 955 192 104 196617 zmap 0. 200. 98 130;#P newex 956 213 61 196617 s ampkarp1;#P newex 767 119 27 196617 * 1.;#P button 877 167 15 0;#P toggle 877 121 15 0;#P newex 877 144 55 196617 metro 500;#P flonum 955 167 35 9 0 0 0 3 0 0 0 221 221 221 222 222 222 0 0 0;#P number 989 124 38 9 0 0 0 3 0 0 0 221 221 221 222 222 222 0 0 0;#P newex 955 143 85 196617 leakysum;#P message 570 551 20 196617 30;#P message 541 551 20 196617 30;#P message 517 551 20 196617 10;#P message 601 551 26 196617 340;#P message 183 552 20 196617 26;#P message 154 552 20 196617 26;#P message 130 552 14 196617 6;#P message 597 54 20 196617 14;#P message 568 54 20 196617 14;#P message 544 54 14 196617 4;#P message 268 57 26 196617 150;#P message 244 57 26 196617 100;#P message 215 57 20 196617 10;#P message 191 57 17 196617 2;#P flonum 955 101 47 9 0 0 0 3 0 0 0 221 221 221 222 222 222 0 0 0;#P flonum 767 98 35 9 0 0 0 3 0 0 0 221 221 221 222 222 222 0 0 0;#P newex 767 27 45 196617 r mavg1;#P newex 543 508 45 196617 s mavg4;#P newex 158 508 45 196617 s mavg3;#P newex 540 20 45 196617 s mavg2;#P newex 157 23 45 196617 s mavg1;#P user multiSlider 850 48 125 45 0. 1. 1 3449 47;#M frgb 0 0 0;#M brgb 255 255 255;#M rgb2 127 127 127;#P number 790 49 35 9 0 0 0 3 0 0 0 221 221 221 222 222 222 0 0 0;#P newex 767 75 33 196617 mavg;#P newex 434 944 75 196617 send~ karplus4;#P newex 69 943 75 196617 send~ karplus3;#P newex 425 457 75 196617 send~ karplus2;#P flonum 433 489 107 24 0 0 0 3 0 0 0 221 221 221 222 222 222 0 0 0;#P inlet 391 489 39 0;#P comment 398 540 100 196617 String 4;#P flonum 524 698 35 9 0 0 0 3 0 0 0 221 221 221 222 222 222 0 0 0;#P flonum 486 698 35 9 0 0 0 3 0 0 0 221 221 221 222 222 222 0 0 0;#P user gain~ 402 839 24 100 158 0 1.071519 7.94321 10.;#P flonum 582 791 55 9 0 0 0 3 0 0 0 221 221 221 222 222 222 0 0 0;#P flonum 493 792 54 9 0 0 0 3 0 0 0 221 221 221 222 222 222 0 0 0;#P newex 403 817 188 196617 lores~;#P newex 513 586 92 196617 zmap 0.4 1. 10 10;#P flonum 449 698 35 9 0 0 0 3 0 0 0 221 221 221 222 222 222 0 0 0;#P flonum 439 744 116 9 0 0 0 3 0 0 0 221 221 221 222 222 222 0 0 0;#P newex 438 764 31 196617 *~ 1;#P user gain~ 398 686 24 100 158 0 1.071519 7.94321 10.;#P newex 438 723 115 196617 biquad~ 0.5 0.5 0. 0. 0.;#P flonum 514 609 77 9 0 0 0 3 0 0 0 221 221 221 222 222 222 0 0 0;#P message 514 632 82 196617 0 \, 1 1 1 \$1 0 2.;#P user scope~ 606 585 736 715 256 3 128 -1. 1. 0 0. 0 0. 102 255 51 135 135 135 0;#P newex 513 654 31 196617 line~;#P newex 399 613 27 196617 +~;#P newex 398 586 109 196617 *~ 0;#P flonum 460 675 100 9 0 0 0 3 0 0 0 221 221 221 222 222 222 0 0 0;#P newex 398 559 33 196617 pink~;#P newex 397 661 52 196617 tapout~ 3;#P newex 397 637 58 196617 tapin~ 100;#P user panel 389 533 376 439;#X brgb 228 86 203;#X frgb 0 0 0;#X border 1;#X rounded 0;#X shadow 0;#X done;#P flonum 48 489 107 24 0 0 0 3 0 0 0 221 221 221 222 222 222 0 0 0;#P inlet 6 489 39 0;#P comment 13 540 100 196617 String 3;#P flonum 139 698 35 9 0 0 0 3 0 0 0 221 221 221 222 222 222 0 0 0;#P flonum 101 698 35 9 0 0 0 3 0 0 0 221 221 221 222 222 222 0 0 0;#P user gain~ 17 839 24 100 158 0 1.071519 7.94321 10.;#P flonum 197 791 55 9 0 0 0 3 0 0 0 221 221 221 222 222 222 0 0 0;#P flonum 108 792 54 9 0 0 0 3 0 0 0 221 221 221 222 222 222 0 0 0;#P newex 18 817 188 196617 lores~;#P newex 128 593 80 196617 zmap 0.4 1. 6 6;#P flonum 64 698 35 9 0 0 0 3 0 0 0 221 221 221 222 222 222 0 0 0;#P flonum 54 744 116 9 0 0 0 3 0 0 0 221 221 221 222 222 222 0 0 0;#P newex 53 764 31 196617 *~ 1;#P user gain~ 13 686 24 100 158 0 1.071519 7.94321 10.;#P newex 53 723 115 196617 biquad~ 0.5 0.5 0. 0. 0.;#P flonum 129 611 77 9 0 0 0 3 0 0 0 221 221 221 222 222 222 0 0 0;#P message 129 632 82 196617 0 \, 1 1 1 \$1 0 2.;#P user scope~ 211 586 341 716 256 3 128 -1. 1. 0 0. 0 0. 102 255 51 135 135 135 0;#P newex 128 654 31 196617 line~;#P newex 14 613 27 196617 +~;#P newex 13 586 109 196617 *~ 0;#P flonum 75 675 100 9 0 0 0 3 0 0 0 221 221 221 222 222 222 0 0 0;#P newex 13 559 33 196617 pink~;#P newex 12 661 52 196617 tapout~ 3;#P newex 12 637 58 196617 tapin~ 100;#P comment 392 53 100 196617 String 2;#P flonum 430 1 107 24 0 0 0 3 0 0 0 221 221 221 222 222 222 0 0 0;#P inlet 388 1 39 0;#P newex 71 465 75 196617 send~ karplus1;#P flonum 47 3 107 24 0 0 0 3 0 0 0 221 221 221 222 222 222 0 0 0;#P inlet 5 3 39 0;#P flonum 153 217 35 9 0 0 0 3 0 0 0 221 221 221 222 222 222 0 0 0;#P flonum 518 211 35 9 0 0 0 3 0 0 0 221 221 221 222 222 222 0 0 0;#P flonum 480 211 35 9 0 0 0 3 0 0 0 221 221 221 222 222 222 0 0 0;#P user gain~ 396 352 24 100 158 0 1.071519 7.94321 10.;#P flonum 576 304 55 9 0 0 0 3 0 0 0 221 221 221 222 222 222 0 0 0;#P flonum 487 305 54 9 0 0 0 3 0 0 0 221 221 221 222 222 222 0 0 0;#P newex 397 330 188 196617 lores~;#P newex 507 87 80 196617 zmap 0.4 1. 4 4;#P flonum 443 211 35 9 0 0 0 3 0 0 0 221 221 221 222 222 222 0 0 0;#P flonum 433 257 116 9 0 0 0 3 0 0 0 221 221 221 222 222 222 0 0 0;#P newex 432 277 31 196617 *~ 1;#P user gain~ 392 199 24 100 158 0 1.071519 7.94321 10.;#P newex 432 236 115 196617 biquad~ 0.5 0.5 0. 0. 0.;#P flonum 508 122 77 9 0 0 0 3 0 0 0 221 221 221 222 222 222 0 0 0;#P message 508 145 82 196617 0 \, 1 1 1 \$1 0 2.;#P user scope~ 590 99 720 229 256 3 128 -1. 1. 0 0. 0 0. 102 255 51 135 135 135 0;#P newex 507 167 31 196617 line~;#P newex 393 126 27 196617 +~;#P newex 392 99 109 196617 *~ 0;#P flonum 454 188 100 9 0 0 0 3 0 0 0 221 221 221 222 222 222 0 0 0;#P newex 392 72 33 196617 pink~;#P newex 391 174 52 196617 tapout~ 3;#P newex 391 150 58 196617 tapin~ 100;#N vpreset 24;#X append 1 2 10 189 86 flonum float 0.42 \; 16 123 145 flonum float 0.42 \; 18 198 18 gain~ list 136 10. \; 20 269 117 flonum float 0.16 \; 21 218 75 flonum float 0.32 \; 37 188 454 flonum;#X append 1 2 float 0. \; 24 298 126 flonum float 0.22 \; 25 297 215 flonum float 0.38 \; 26 346 19 gain~ list 134 10. \; 27 217 114 flonum float 0.36 \; 29 391 100 flonum float 0.18 \; 30 391 208;#X append 1 2 flonum float 0. \; 31 391 154 flonum float 0. \; 32 391 262 flonum float 0. \;;#X append 2 2 10 189 86 flonum float 0. \; 16 123 145 flonum float 0. \; 18 198 18 gain~ list 117 10. \; 20 269 117 flonum float 0.09 \; 21 218 75 flonum float 0.32 \; 24 298 126 flonum;#X append 2 2 float 13000. \; 25 297 215 flonum float 0.59 \; 26 346 19 gain~ list 121 10. \; 27 217 114 flonum float 0.36 \; 29 391 100 flonum float 0.87 \; 30 391 208 flonum float 0.76 \; 31 391 154;#X append 2 2 flonum float 0.8 \; 32 391 262 flonum float 0.82 \;;#X append 3 2 10 189 86 flonum float 4. \; 16 123 145 flonum float 4. \; 18 198 18 gain~ list 117 10. \; 20 269 117 flonum float 0.09 \; 21 218 75 flonum float 0.46 \; 24 298 126 flonum;#X append 3 2 float 13000. \; 25 297 215 flonum float 0.59 \; 26 346 19 gain~ list 121 10. \; 27 217 114 flonum float 0.43 \; 29 391 100 flonum float 0.87 \; 30 391 208 flonum float 0.76 \; 31 391 154;#X append 3 2 flonum float 0.8 \; 32 391 262 flonum float 0.82 \; 37 188 454 flonum float 6. \; 43 122 508 flonum float 6. \; 45 199 392 gain~ list 114 10. \; 47 257 433 flonum float 0.05 \;;#X append 3 2 48 211 443 flonum float 0.48 \; 51 305 487 flonum float 3000. \; 52 304 576 flonum float 0.3 \; 53 352 396 gain~ list 111 10. \; 54 211 480 flonum float 0.41 \; 55 211 518 flonum;#X append 3 2 float 0.1 \;;#X append 5 2 10 189 86 flonum float 3. \; 16 123 145 flonum float 3. \; 18 198 18 gain~ list 117 10. \; 20 269 117 flonum float 0.06 \; 21 218 75 flonum float 0.48 \; 24 298 126 flonum;#X append 5 2 float 13000. \; 25 297 215 flonum float 0.59 \; 26 346 19 gain~ list 121 10. \; 27 217 114 flonum float 0.45 \; 29 391 100 flonum float 0.87 \; 30 391 208 flonum float 0.76 \; 31 391 154;#X append 5 2 flonum float 0.8 \; 32 391 262 flonum float 0.82 \; 37 188 454 flonum float 9. \; 43 122 508 flonum float 9. \; 45 199 392 gain~ list 114 10. \; 47 257 433 flonum float 0.05 \;;#X append 5 2 48 211 443 flonum float 0.48 \; 51 305 487 flonum float 3000. \; 52 304 576 flonum float 0.3 \; 53 352 396 gain~ list 111 10. \; 54 211 480 flonum float 0.42 \; 55 211 518 flonum;#X append 5 2 float 0.1 \; 56 217 153 flonum float 0.06 \;;#X append 6 2 10 189 86 flonum float 0. \; 16 123 145 flonum float 0. \; 18 198 18 gain~ list 0 10. \; 20 269 117 flonum float 0. \; 21 218 75 flonum float 0. \; 24 298 126 flonum;#X append 6 2 float 0. \; 25 297 215 flonum float 0. \; 26 346 19 gain~ list 0 10. \; 27 217 114 flonum float 0. \; 29 391 100 flonum float 0. \; 30 391 208 flonum float 0. \; 31 391 154;#X append 6 2 flonum float 0. \; 32 391 262 flonum float 0. \; 37 188 454 flonum float 0. \; 43 122 508 flonum float 0. \; 45 199 392 gain~ list 0 10. \; 47 257 433 flonum float 0. \;;#X append 6 2 48 211 443 flonum float 0. \; 51 305 487 flonum float 0. \; 52 304 576 flonum float 0. \; 53 352 396 gain~ list 0 10. \; 54 211 480 flonum float 0. \; 55 211 518 flonum;#X append 6 2 float 0. \; 56 217 153 flonum float 0. \; 58 3 47 flonum float 0. \; 61 1 430 flonum float 0. \; 66 675 75 flonum float 0. \; 72 611 129 flonum float 0. \; 74 686 13;#X append 6 2 gain~ list 0 10. \; 76 744 54 flonum float 0. \; 77 698 64 flonum float 0.44 \; 80 792 108 flonum float 8000. \; 81 791 197 flonum float 0.16 \; 82 839 17 gain~ list 0 10.;#X append 6 2 \; 83 698 101 flonum float 0.48 \; 84 698 139 flonum float 0.06 \; 87 489 48 flonum float 0. \; 92 675 460 flonum float 0. \; 98 609 514 flonum float 0. \; 100 686 398 gain~;#X append 6 2 list 0 10. \; 102 744 439 flonum float 0. \; 103 698 449 flonum float 0.37 \; 106 792 493 flonum float 8000. \; 107 791 582 flonum float 0.9 \; 108 839 402 gain~ list 0 10. \;;#X append 6 2 109 698 486 flonum float 0.43 \; 110 698 524 flonum float 0.06 \; 113 489 433 flonum float 0. \;;#X append 8 2 10 189 86 flonum float 2. \; 16 123 145 flonum float 2. \; 18 198 18 gain~ list 123 10. \; 20 269 117 flonum float 0.06 \; 21 218 75 flonum float 0.48 \; 24 298 126 flonum;#X append 8 2 float 13000. \; 25 297 215 flonum float 0.59 \; 26 346 19 gain~ list 134 10. \; 27 217 114 flonum float 0.45 \; 29 391 100 flonum float 0.87 \; 30 391 208 flonum float 0.76 \; 31 391 154;#X append 8 2 flonum float 0.8 \; 32 391 262 flonum float 0.82 \; 37 188 454 flonum float 4. \; 43 122 508 flonum float 4. \; 45 199 392 gain~ list 114 10. \; 47 257 433 flonum float 0.05 \;;#X append 8 2 48 211 443 flonum float 0.48 \; 51 305 487 flonum float 3000. \; 52 304 576 flonum float 0.3 \; 53 352 396 gain~ list 126 10. \; 54 211 480 flonum float 0.42 \; 55 211 518 flonum;#X append 8 2 float 0.1 \; 56 217 153 flonum float 0.06 \; 58 3 47 flonum float 0.390625 \; 61 1 430 flonum float 0. \; 66 675 75 flonum float 6. \; 72 611 129 flonum float 6. \; 74 686 13;#X append 8 2 gain~ list 116 10. \; 76 744 54 flonum float 0.01 \; 77 698 64 flonum float 0.44 \; 80 792 108 flonum float 80. \; 81 791 197 flonum float 0.21 \; 82 839 17 gain~ list 120 10.;#X append 8 2 \; 83 698 101 flonum float 0.48 \; 84 698 139 flonum float 0.06 \; 87 489 48 flonum float 0.572995 \; 92 675 460 flonum float 10. \; 98 609 514 flonum float 10. \; 100 686 398 gain~;#X append 8 2 list 116 10. \; 102 744 439 flonum float 0.01 \; 103 698 449 flonum float 0.37 \; 106 792 493 flonum float 800. \; 107 791 582 flonum float 0.76 \; 108 839 402 gain~ list 125 10. \;;#X append 8 2 109 698 486 flonum float 0.43 \; 110 698 524 flonum float 0.08 \; 113 489 433 flonum float 0.431805 \; 118 49 790 number int 0 \; 119 48 850 multiSlider list 0.40625 \; 125 98 767 flonum float;#X append 8 2 0.40625 \; 126 101 955 flonum float 0.390625 \; 142 124 989 number int 1000 \; 143 167 955 flonum float 0. \; 145 121 877 toggle int 1 \; 150 124 1030 flonum float 2. \; 151 252 861;#X append 8 2 flonum float 0.433517 \; 153 275 895 number int 1000 \; 154 318 861 flonum float 0. \; 156 272 783 toggle int 1 \; 160 275 936 flonum float 2. \; 161 396 864 flonum float 0. \; 163 419 898;#X append 8 2 number int 1000 \; 164 462 864 flonum float 0. \; 166 416 786 toggle int 1 \; 170 419 939 flonum float 2. \; 171 538 870 flonum float 0.431805 \; 173 561 904 number int 1000 \; 174 604 870;#X append 8 2 flonum float 0. \; 176 558 792 toggle int 1 \; 180 561 945 flonum float 2. \;;#X append 10 2 10 189 86 flonum float 2. \; 16 123 145 flonum float 2. \; 18 198 18 gain~ list 123 10. \; 20 269 117 flonum float 0.06 \; 21 218 75 flonum float 0.48 \; 24 298 126 flonum;#X append 10 2 float 13000. \; 25 297 215 flonum float 0.59 \; 26 346 19 gain~ list 134 10. \; 27 217 114 flonum float 0.45 \; 29 391 100 flonum float 0.87 \; 30 391 208 flonum float 0.76 \; 31 391 154;#X append 10 2 flonum float 0.8 \; 32 391 262 flonum float 0.82 \; 37 188 454 flonum float 4. \; 43 122 508 flonum float 4. \; 45 199 392 gain~ list 114 10. \; 47 257 433 flonum float 0.05 \;;#X append 10 2 48 211 443 flonum float 0.48 \; 51 305 487 flonum float 3000. \; 52 304 576 flonum float 0.3 \; 53 352 396 gain~ list 126 10. \; 54 211 480 flonum float 0.42 \; 55 211 518 flonum;#X append 10 2 float 0.1 \; 56 217 153 flonum float 0.06 \; 58 3 47 flonum float 0.703125 \; 61 1 430 flonum float 0.416992 \; 66 675 75 flonum float 6. \; 72 611 129 flonum float 6. \; 74 686 13;#X append 10 2 gain~ list 116 10. \; 76 744 54 flonum float 0.01 \; 77 698 64 flonum float 0.44 \; 80 792 108 flonum float 80. \; 81 791 197 flonum float 0.21 \; 82 839 17 gain~ list 120 10.;#X append 10 2 \; 83 698 101 flonum float 0.48 \; 84 698 139 flonum float 0.07 \; 87 489 48 flonum float 0.569465 \; 92 675 460 flonum float 10. \; 98 609 514 flonum float 10. \; 100 686 398 gain~;#X append 10 2 list 116 10. \; 102 744 439 flonum float 0.01 \; 103 698 449 flonum float 0.37 \; 106 792 493 flonum float 800. \; 107 791 582 flonum float 0.76 \; 108 839 402 gain~ list 125 10. \;;#X append 10 2 109 698 486 flonum float 0.43 \; 110 698 524 flonum float 0.09 \; 113 489 433 flonum float 0.569465 \; 118 49 790 number int 0 \; 119 48 850 multiSlider list 0.703125 \; 125 98 767 flonum float;#X append 10 2 0.703125 \; 126 101 955 flonum float 0.703125 \; 142 124 989 number int 1000 \; 143 167 955 flonum float 373.058014 \; 145 121 877 toggle int 0 \; 150 124 1030 flonum float 2. \; 151 252 861;#X append 10 2 flonum float 0.416992 \; 153 275 895 number int 1000 \; 154 318 861 flonum float 28.334888 \; 156 272 783 toggle int 0 \; 160 275 936 flonum float 2. \; 161 396 864 flonum float 0.569465 \; 163 419 898;#X append 10 2 number int 1000 \; 164 462 864 flonum float 323.971222 \; 166 416 786 toggle int 0 \; 170 419 939 flonum float 2. \; 171 538 870 flonum float 0.569465 \; 173 561 904 number int 1000 \; 174 604 870;#X append 10 2 flonum float 1089.142334 \; 176 558 792 toggle int 0 \; 180 561 945 flonum float 2. \;;#X append 13 2 10 189 86 flonum float 3. \; 16 123 145 flonum float 3. \; 18 198 18 gain~ list 117 10. \; 20 269 117 flonum float 0.06 \; 21 218 75 flonum float 0.48 \; 24 298 126 flonum;#X append 13 2 float 13000. \; 25 297 215 flonum float 0.59 \; 26 346 19 gain~ list 121 10. \; 27 217 114 flonum float 0.45 \; 29 391 100 flonum float 0.87 \; 30 391 208 flonum float 0.76 \; 31 391 154;#X append 13 2 flonum float 0.8 \; 32 391 262 flonum float 0.82 \; 37 188 454 flonum float 9. \; 43 122 508 flonum float 9. \; 45 199 392 gain~ list 114 10. \; 47 257 433 flonum float 0.05 \;;#X append 13 2 48 211 443 flonum float 0.48 \; 51 305 487 flonum float 3000. \; 52 304 576 flonum float 0.3 \; 53 352 396 gain~ list 111 10. \; 54 211 480 flonum float 0.42 \; 55 211 518 flonum;#X append 13 2 float 0.1 \; 56 217 153 flonum float 0.06 \; 58 3 47 flonum float 0. \; 61 1 430 flonum float 0. \; 66 675 75 flonum float 6. \; 72 611 129 flonum float 6. \; 74 686 13;#X append 13 2 gain~ list 0 10. \; 76 744 54 flonum float 0. \; 77 698 64 flonum float 0.44 \; 80 792 108 flonum float 8000. \; 81 791 197 flonum float 0.16 \; 82 839 17 gain~ list 0 10.;#X append 13 2 \; 83 698 101 flonum float 0.48 \; 84 698 139 flonum float 0.06 \; 87 489 48 flonum float 0. \; 92 675 460 flonum float 10. \; 98 609 514 flonum float 10. \; 100 686 398 gain~;#X append 13 2 list 0 10. \; 102 744 439 flonum float 0. \; 103 698 449 flonum float 0.37 \; 106 792 493 flonum float 8000. \; 107 791 582 flonum float 0.9 \; 108 839 402 gain~ list 0 10. \;;#X append 13 2 109 698 486 flonum float 0.43 \; 110 698 524 flonum float 0.06 \; 113 489 433 flonum float 0. \;;#X append 14 2 10 189 86 flonum float 1. \; 16 123 145 flonum float 1. \; 18 198 18 gain~ list 123 10. \; 20 269 117 flonum float 0.06 \; 21 218 75 flonum float 0.48 \; 24 298 126 flonum;#X append 14 2 float 13000. \; 25 297 215 flonum float 0.59 \; 26 346 19 gain~ list 134 10. \; 27 217 114 flonum float 0.45 \; 29 391 100 flonum float 0.87 \; 30 391 208 flonum float 0.76 \; 31 391 154;#X append 14 2 flonum float 0.8 \; 32 391 262 flonum float 0.82 \; 37 188 454 flonum float 4. \; 43 122 508 flonum float 4. \; 45 199 392 gain~ list 114 10. \; 47 257 433 flonum float 0.05 \;;#X append 14 2 48 211 443 flonum float 0.48 \; 51 305 487 flonum float 3000. \; 52 304 576 flonum float 0.3 \; 53 352 396 gain~ list 111 10. \; 54 211 480 flonum float 0.42 \; 55 211 518 flonum;#X append 14 2 float 0.1 \; 56 217 153 flonum float 0.06 \; 58 3 47 flonum float 0.390625 \; 61 1 430 flonum float 0. \; 66 675 75 flonum float 6. \; 72 611 129 flonum float 6. \; 74 686 13;#X append 14 2 gain~ list 98 10. \; 76 744 54 flonum float 0.01 \; 77 698 64 flonum float 0.44 \; 80 792 108 flonum float 8000. \; 81 791 197 flonum float 0.16 \; 82 839 17 gain~ list 120 10.;#X append 14 2 \; 83 698 101 flonum float 0.48 \; 84 698 139 flonum float 0.06 \; 87 489 48 flonum float 0.572995 \; 92 675 460 flonum float 10. \; 98 609 514 flonum float 10. \; 100 686 398 gain~;#X append 14 2 list 114 10. \; 102 744 439 flonum float 0.01 \; 103 698 449 flonum float 0.37 \; 106 792 493 flonum float 8000. \; 107 791 582 flonum float 0.9 \; 108 839 402 gain~ list 125 10. \;;#X append 14 2 109 698 486 flonum float 0.43 \; 110 698 524 flonum float 0.08 \; 113 489 433 flonum float 0.431805 \; 118 49 790 number int 0 \; 161 396 864 flonum int 0 \; 160 275 936 flonum int;#X append 14 2 0 \; 154 318 861 flonum int 0 \; 119 48 850 multiSlider list 0.347656 \; 125 98 767 flonum float 0.347656 \; 151 252 861 flonum float 0.433517 \;;#X append 16 2 10 189 86 flonum float 2. \; 16 123 145 flonum float 2. \; 18 198 18 gain~ list 123 10. \; 20 269 117 flonum float 0.06 \; 21 218 75 flonum float 0.48 \; 24 298 126 flonum;#X append 16 2 float 13000. \; 25 297 215 flonum float 0.59 \; 26 346 19 gain~ list 134 10. \; 27 217 114 flonum float 0.45 \; 29 391 100 flonum float 0.87 \; 30 391 208 flonum float 0.76 \; 31 391 154;#X append 16 2 flonum float 0.8 \; 32 391 262 flonum float 0.82 \; 37 188 454 flonum float 4. \; 43 122 508 flonum float 4. \; 45 199 392 gain~ list 114 10. \; 47 257 433 flonum float 0.05 \;;#X append 16 2 48 211 443 flonum float 0.48 \; 51 305 487 flonum float 3000. \; 52 304 576 flonum float 0.3 \; 53 352 396 gain~ list 126 10. \; 54 211 480 flonum float 0.42 \; 55 211 518 flonum;#X append 16 2 float 0.1 \; 56 217 153 flonum float 0.08 \; 58 3 47 flonum float 0.703125 \; 61 1 430 flonum float 0.416992 \; 66 675 75 flonum float 6. \; 72 611 129 flonum float 6. \; 74 686 13;#X append 16 2 gain~ list 116 10. \; 76 744 54 flonum float 0.01 \; 77 698 64 flonum float 0.44 \; 80 792 108 flonum float 80. \; 81 791 197 flonum float 0.21 \; 82 839 17 gain~ list 120 10.;#X append 16 2 \; 83 698 101 flonum float 0.48 \; 84 698 139 flonum float 0.07 \; 87 489 48 flonum float 0.569465 \; 92 675 460 flonum float 10. \; 98 609 514 flonum float 10. \; 100 686 398 gain~;#X append 16 2 list 116 10. \; 102 744 439 flonum float 0.01 \; 103 698 449 flonum float 0.37 \; 106 792 493 flonum float 800. \; 107 791 582 flonum float 0.76 \; 108 839 402 gain~ list 125 10. \;;#X append 16 2 109 698 486 flonum float 0.43 \; 110 698 524 flonum float 0.09 \; 113 489 433 flonum float 0.569465 \; 118 49 790 number int 0 \; 119 48 850 multiSlider list 0.703125 \; 125 98 767 flonum float;#X append 16 2 0.703125 \; 126 101 955 flonum float 0.703125 \; 142 124 989 number int 1000 \; 143 167 955 flonum float 373.058014 \; 145 121 877 toggle int 0 \; 150 124 1030 flonum float 2. \; 151 252 861;#X append 16 2 flonum float 0.416992 \; 153 275 895 number int 1000 \; 154 318 861 flonum float 28.334888 \; 156 272 783 toggle int 0 \; 160 275 936 flonum float 2. \; 161 396 864 flonum float 0.569465 \; 163 419 898;#X append 16 2 number int 1000 \; 164 462 864 flonum float 323.971222 \; 166 416 786 toggle int 0 \; 170 419 939 flonum float 2. \; 171 538 870 flonum float 0.569465 \; 173 561 904 number int 1000 \; 174 604 870;#X append 16 2 flonum float 1089.142334 \; 176 558 792 toggle int 0 \; 180 561 945 flonum float 2. \;;#X append 18 2 10 189 86 flonum float 0. \; 16 123 145 flonum float 0. \; 18 198 18 gain~ list 0 10. \; 20 269 117 flonum float 0. \; 21 218 75 flonum float 0. \; 24 298 126 flonum;#X append 18 2 float 0. \; 25 297 215 flonum float 0. \; 26 346 19 gain~ list 0 10. \; 27 217 114 flonum float 0. \; 29 391 100 flonum float 0. \; 30 391 208 flonum float 0. \; 31 391 154;#X append 18 2 flonum float 0. \; 32 391 262 flonum float 0. \; 37 188 454 flonum float 0. \; 43 122 508 flonum float 0. \; 45 199 392 gain~ list 0 10. \; 47 257 433 flonum float 0. \;;#X append 18 2 48 211 443 flonum float 0. \; 51 305 487 flonum float 0. \; 52 304 576 flonum float 0. \; 53 352 396 gain~ list 0 10. \; 54 211 480 flonum float 0. \; 55 211 518 flonum;#X append 18 2 float 0. \; 56 217 153 flonum float 0. \; 58 3 47 flonum float 0. \; 61 1 430 flonum float 0. \; 66 675 75 flonum float 0. \; 72 611 129 flonum float 0. \; 74 686 13;#X append 18 2 gain~ list 0 10. \; 76 744 54 flonum float 0. \; 77 698 64 flonum float 0. \; 80 792 108 flonum float 0. \; 81 791 197 flonum float 0. \; 82 839 17 gain~ list 0 10.;#X append 18 2 \; 83 698 101 flonum float 0. \; 84 698 139 flonum float 0. \; 87 489 48 flonum float 0. \; 92 675 460 flonum float 0. \; 98 609 514 flonum float 0. \; 100 686 398 gain~;#X append 18 2 list 0 10. \; 102 744 439 flonum float 0. \; 103 698 449 flonum float 0. \; 106 792 493 flonum float 0. \; 107 791 582 flonum float 0. \; 108 839 402 gain~ list 0 10. \;;#X append 18 2 109 698 486 flonum float 0. \; 110 698 524 flonum float 0. \; 113 489 433 flonum float 0. \; 118 49 790 number int 0 \; 161 396 864 flonum int 0 \; 160 275 936 flonum int;#X append 18 2 0 \; 154 318 861 flonum int 0 \; 119 48 850 multiSlider list 0.419034 \; 125 98 767 flonum float 0.419034 \; 151 252 861 flonum float 0. \; 126 101 955 flonum float 0.419034 \; 142 124 989;#X append 18 2 number int 2000 \; 150 124 1030 flonum int 2 \; 143 167 955 flonum float 0. \; 145 121 877 toggle int 1 \;;#X append 19 2 10 189 86 flonum float 0. \; 16 123 145 flonum float 0. \; 18 198 18 gain~ list 0 10. \; 20 269 117 flonum float 0. \; 21 218 75 flonum float 0. \; 24 298 126 flonum;#X append 19 2 float 0. \; 25 297 215 flonum float 0. \; 26 346 19 gain~ list 0 10. \; 27 217 114 flonum float 0. \; 29 391 100 flonum float 0. \; 30 391 208 flonum float 0. \; 31 391 154;#X append 19 2 flonum float 0. \; 32 391 262 flonum float 0. \; 37 188 454 flonum float 0. \; 43 122 508 flonum float 0. \; 45 199 392 gain~ list 0 10. \; 47 257 433 flonum float 0. \;;#X append 19 2 48 211 443 flonum float 0. \; 51 305 487 flonum float 0. \; 52 304 576 flonum float 0. \; 53 352 396 gain~ list 0 10. \; 54 211 480 flonum float 0. \; 55 211 518 flonum;#X append 19 2 float 0. \; 56 217 153 flonum float 0. \; 58 3 47 flonum float 0. \; 61 1 430 flonum float 0. \; 66 675 75 flonum float 0. \; 72 611 129 flonum float 0. \; 74 686 13;#X append 19 2 gain~ list 0 10. \; 76 744 54 flonum float 0. \; 77 698 64 flonum float 0. \; 80 792 108 flonum float 0. \; 81 791 197 flonum float 0. \; 82 839 17 gain~ list 0 10.;#X append 19 2 \; 83 698 101 flonum float 0. \; 84 698 139 flonum float 0. \; 87 489 48 flonum float 0. \; 92 675 460 flonum float 0. \; 98 609 514 flonum float 0. \; 100 686 398 gain~;#X append 19 2 list 0 10. \; 102 744 439 flonum float 0. \; 103 698 449 flonum float 0. \; 106 792 493 flonum float 0. \; 107 791 582 flonum float 0. \; 108 839 402 gain~ list 0 10. \;;#X append 19 2 109 698 486 flonum float 0. \; 110 698 524 flonum float 0. \; 113 489 433 flonum float 0. \; 118 49 790 number int 0 \; 119 48 850 multiSlider list 0. \; 125 98 767 flonum float;#X append 19 2 0. \; 126 101 955 flonum float 0. \; 142 124 989 number int 1000 \; 143 167 955 flonum float 0. \; 145 121 877 toggle int 1 \; 150 124 1030 flonum float 2. \; 151 252 861;#X append 19 2 flonum float 0. \; 153 275 895 number int 1000 \; 154 318 861 flonum float 0. \; 156 272 783 toggle int 1 \; 160 275 936 flonum float 2. \; 161 396 864 flonum float 0. \; 163 419 898;#X append 19 2 number int 1000 \; 164 462 864 flonum float 0. \; 166 416 786 toggle int 1 \; 170 419 939 flonum float 2. \; 171 538 870 flonum float 0. \; 173 561 904 number int 1000 \; 174 604 870;#X append 19 2 flonum float 0. \; 176 558 792 toggle int 1 \; 180 561 945 flonum float 2. \;;#X append 21 2 10 189 86 flonum float 0. \; 16 123 145 flonum float 0. \; 18 198 18 gain~ list 123 10. \; 20 269 117 flonum float 0.06 \; 21 218 75 flonum float 0.48 \; 24 298 126 flonum;#X append 21 2 float 13000. \; 25 297 215 flonum float 0.59 \; 26 346 19 gain~ list 134 10. \; 27 217 114 flonum float 0.45 \; 29 391 100 flonum float 0.87 \; 30 391 208 flonum float 0.76 \; 31 391 154;#X append 21 2 flonum float 0.8 \; 32 391 262 flonum float 0.82 \; 37 188 454 flonum float 0. \; 43 122 508 flonum float 0. \; 45 199 392 gain~ list 114 10. \; 47 257 433 flonum float 0.05 \;;#X append 21 2 48 211 443 flonum float 0.48 \; 51 305 487 flonum float 3000. \; 52 304 576 flonum float 0.3 \; 53 352 396 gain~ list 111 10. \; 54 211 480 flonum float 0.42 \; 55 211 518 flonum;#X append 21 2 float 0.1 \; 56 217 153 flonum float 0.06 \; 58 3 47 flonum float 0.390625 \; 61 1 430 flonum float 0. \; 66 675 75 flonum float 0. \; 72 611 129 flonum float 0. \; 74 686 13;#X append 21 2 gain~ list 98 10. \; 76 744 54 flonum float 0.01 \; 77 698 64 flonum float 0.44 \; 80 792 108 flonum float 8000. \; 81 791 197 flonum float 0.16 \; 82 839 17 gain~ list 120 10.;#X append 21 2 \; 83 698 101 flonum float 0.48 \; 84 698 139 flonum float 0.06 \; 87 489 48 flonum float 0.572995 \; 92 675 460 flonum float 0. \; 98 609 514 flonum float 0. \; 100 686 398 gain~;#X append 21 2 list 114 10. \; 102 744 439 flonum float 0.01 \; 103 698 449 flonum float 0.37 \; 106 792 493 flonum float 8000. \; 107 791 582 flonum float 0.9 \; 108 839 402 gain~ list 125 10. \;;#X append 21 2 109 698 486 flonum float 0.43 \; 110 698 524 flonum float 0.08 \; 113 489 433 flonum float 0.431805 \; 118 49 790 number int 0 \; 119 48 850 multiSlider list 0.347656 \; 125 98 767 flonum float;#X append 21 2 0.347656 \; 126 101 955 flonum float 0.390625 \; 142 124 989 number int 1000 \; 143 167 955 flonum float 0. \; 145 121 877 toggle int 1 \; 150 124 1030 flonum float 2. \; 151 252 861;#X append 21 2 flonum float 0.433517 \; 153 275 895 number int 1000 \; 154 318 861 flonum float 0. \; 156 272 783 toggle int 1 \; 160 275 936 flonum float 2. \; 161 396 864 flonum float 0. \; 163 419 898;#X append 21 2 number int 1000 \; 164 462 864 flonum float 0. \; 166 416 786 toggle int 1 \; 170 419 939 flonum float 2. \; 171 538 870 flonum float 0.431805 \; 173 561 904 number int 1000 \; 174 604 870;#X append 21 2 flonum float 0. \; 176 558 792 toggle int 1 \; 180 561 945 flonum float 2. \;;#X append 22 2 10 189 86 flonum float 2. \; 16 123 145 flonum float 2. \; 18 198 18 gain~ list 123 10. \; 20 269 117 flonum float 0.06 \; 21 218 75 flonum float 0.48 \; 24 298 126 flonum;#X append 22 2 float 13000. \; 25 297 215 flonum float 0.59 \; 26 346 19 gain~ list 134 10. \; 27 217 114 flonum float 0.45 \; 29 391 100 flonum float 0.87 \; 30 391 208 flonum float 0.76 \; 31 391 154;#X append 22 2 flonum float 0.8 \; 32 391 262 flonum float 0.82 \; 37 188 454 flonum float 4. \; 43 122 508 flonum float 4. \; 45 199 392 gain~ list 114 10. \; 47 257 433 flonum float 0.05 \;;#X append 22 2 48 211 443 flonum float 0.48 \; 51 305 487 flonum float 3000. \; 52 304 576 flonum float 0.3 \; 53 352 396 gain~ list 126 10. \; 54 211 480 flonum float 0.42 \; 55 211 518 flonum;#X append 22 2 float 0.1 \; 56 217 153 flonum float 0.06 \; 58 3 47 flonum float 0.390625 \; 61 1 430 flonum float 0. \; 66 675 75 flonum float 6. \; 72 611 129 flonum float 6. \; 74 686 13;#X append 22 2 gain~ list 116 10. \; 76 744 54 flonum float 0.01 \; 77 698 64 flonum float 0.44 \; 80 792 108 flonum float 8000. \; 81 791 197 flonum float 0.16 \; 82 839 17 gain~ list 120 10.;#X append 22 2 \; 83 698 101 flonum float 0.48 \; 84 698 139 flonum float 0.06 \; 87 489 48 flonum float 0.572995 \; 92 675 460 flonum float 10. \; 98 609 514 flonum float 10. \; 100 686 398 gain~;#X append 22 2 list 116 10. \; 102 744 439 flonum float 0.01 \; 103 698 449 flonum float 0.37 \; 106 792 493 flonum float 8000. \; 107 791 582 flonum float 0.9 \; 108 839 402 gain~ list 125 10. \;;#X append 22 2 109 698 486 flonum float 0.43 \; 110 698 524 flonum float 0.08 \; 113 489 433 flonum float 0.431805 \; 118 49 790 number int 0 \; 119 48 850 multiSlider list 0.40625 \; 125 98 767 flonum float;#X append 22 2 0.40625 \; 126 101 955 flonum float 0.390625 \; 142 124 989 number int 1000 \; 143 167 955 flonum float 0. \; 145 121 877 toggle int 1 \; 150 124 1030 flonum float 2. \; 151 252 861;#X append 22 2 flonum float 0.433517 \; 153 275 895 number int 1000 \; 154 318 861 flonum float 0. \; 156 272 783 toggle int 1 \; 160 275 936 flonum float 2. \; 161 396 864 flonum float 0. \; 163 419 898;#X append 22 2 number int 1000 \; 164 462 864 flonum float 0. \; 166 416 786 toggle int 1 \; 170 419 939 flonum float 2. \; 171 538 870 flonum float 0.431805 \; 173 561 904 number int 1000 \; 174 604 870;#X append 22 2 flonum float 0. \; 176 558 792 toggle int 1 \; 180 561 945 flonum float 2. \;;#X append 24 2 10 189 86 flonum float 0. \; 16 123 145 flonum float 0. \; 18 198 18 gain~ list 123 10. \; 20 269 117 flonum float 0.06 \; 21 218 75 flonum float 0.48 \; 24 298 126 flonum;#X append 24 2 float 13000. \; 25 297 215 flonum float 0.59 \; 26 346 19 gain~ list 134 10. \; 27 217 114 flonum float 0.45 \; 29 391 100 flonum float 0.87 \; 30 391 208 flonum float 0.76 \; 31 391 154;#X append 24 2 flonum float 0.8 \; 32 391 262 flonum float 0.82 \; 37 188 454 flonum float 0. \; 43 122 508 flonum float 0. \; 45 199 392 gain~ list 114 10. \; 47 257 433 flonum float 0.05 \;;#X append 24 2 48 211 443 flonum float 0.48 \; 51 305 487 flonum float 3000. \; 52 304 576 flonum float 0.3 \; 53 352 396 gain~ list 126 10. \; 54 211 480 flonum float 0.42 \; 55 211 518 flonum;#X append 24 2 float 0.1 \; 56 217 153 flonum float 0.06 \; 58 3 47 flonum float 0.390625 \; 61 1 430 flonum float 0. \; 66 675 75 flonum float 0. \; 72 611 129 flonum float 0. \; 74 686 13;#X append 24 2 gain~ list 116 10. \; 76 744 54 flonum float 0.01 \; 77 698 64 flonum float 0.44 \; 80 792 108 flonum float 8000. \; 81 791 197 flonum float 0.16 \; 82 839 17 gain~ list 120 10.;#X append 24 2 \; 83 698 101 flonum float 0.48 \; 84 698 139 flonum float 0.06 \; 87 489 48 flonum float 0.572995 \; 92 675 460 flonum float 0. \; 98 609 514 flonum float 0. \; 100 686 398 gain~;#X append 24 2 list 116 10. \; 102 744 439 flonum float 0.01 \; 103 698 449 flonum float 0.37 \; 106 792 493 flonum float 8000. \; 107 791 582 flonum float 0.9 \; 108 839 402 gain~ list 125 10. \;;#X append 24 2 109 698 486 flonum float 0.43 \; 110 698 524 flonum float 0.08 \; 113 489 433 flonum float 0.431805 \; 118 49 790 number int 0 \; 119 48 850 multiSlider list 0.40625 \; 125 98 767 flonum float;#X append 24 2 0.40625 \; 126 101 955 flonum float 0.390625 \; 142 124 989 number int 1000 \; 143 167 955 flonum float 0. \; 145 121 877 toggle int 1 \; 150 124 1030 flonum float 2. \; 151 252 861;#X append 24 2 flonum float 0.433517 \; 153 275 895 number int 1000 \; 154 318 861 flonum float 0. \; 156 272 783 toggle int 1 \; 160 275 936 flonum float 2. \; 161 396 864 flonum float 0. \; 163 419 898;#X append 24 2 number int 1000 \; 164 462 864 flonum float 0. \; 166 416 786 toggle int 1 \; 170 419 939 flonum float 2. \; 171 538 870 flonum float 0.431805 \; 173 561 904 number int 1000 \; 174 604 870;#X append 24 2 flonum float 0. \; 176 558 792 toggle int 1 \; 180 561 945 flonum float 2. \;;#P preset 622 1 114 40;#P flonum 262 391 35 9 0 0 0 3 0 0 0 221 221 221 222 222 222 0 0 0;#P flonum 154 391 35 9 0 0 0 3 0 0 0 221 221 221 222 222 222 0 0 0;#P flonum 208 391 35 9 0 0 0 3 0 0 0 221 221 221 222 222 222 0 0 0;#P flonum 100 391 35 9 0 0 0 3 0 0 0 221 221 221 222 222 222 0 0 0;#P newex 46 414 228 196617 comb~;#P flonum 114 217 35 9 0 0 0 3 0 0 0 221 221 221 222 222 222 0 0 0;#P user gain~ 19 346 24 100 158 0 1.071519 7.94321 10.;#P flonum 215 297 55 9 0 0 0 3 0 0 0 221 221 221 222 222 222 0 0 0;#P flonum 126 298 54 9 0 0 0 3 0 0 0 221 221 221 222 222 222 0 0 0;#P newex 36 323 188 196617 lores~;#P newex 142 80 80 196617 zmap 0.4 1. 2 2;#P flonum 75 218 35 9 0 0 0 3 0 0 0 221 221 221 222 222 222 0 0 0;#P flonum 117 269 116 9 0 0 0 3 0 0 0 221 221 221 222 222 222 0 0 0;#P newex 53 292 31 196617 *~ 1;#P user gain~ 18 198 24 100 158 0 1.071519 7.94321 10.;#P newex 57 250 115 196617 biquad~ 0.5 0.5 0. 0. 0.;#P flonum 145 123 77 9 0 0 0 3 0 0 0 221 221 221 222 222 222 0 0 0;#P message 152 144 82 196617 0 \, 1 1 1 \$1 0 2.;#P user scope~ 240 96 370 226 256 3 128 -1. 1. 0 0. 0 0. 102 255 51 135 135 135 0;#P newex 152 167 31 196617 line~;#P newex 29 128 27 196617 +~;#P newex 27 102 109 196617 *~ 0;#P flonum 86 189 100 9 0 0 0 3 0 0 0 221 221 221 222 222 222 0 0 0;#P newex 27 78 33 196617 pink~;#P newex 31 175 52 196617 tapout~ 3;#P newex 30 151 58 196617 tapin~ 100;#P comment 4 56 100 196617 String 1;#P user panel 2 46 376 439;#X brgb 221 135 44;#X frgb 0 0 0;#X border 1;#X rounded 0;#X shadow 0;#X done;#P message 621 54 26 196617 140;#P user panel 383 46 376 439;#X brgb 45 26 156;#X frgb 0 0 0;#X border 1;#X rounded 0;#X shadow 0;#X done;#P message 207 552 26 196617 260;#P user panel 4 533 376 439;#X brgb 228 86 203;#X frgb 0 0 0;#X border 1;#X rounded 0;#X shadow 0;#X done;#P comment 999 301 100 196617 Player 2;#P connect 68 0 63 0;#P connect 63 0 64 0;#P connect 66 0 64 0;#P connect 65 0 67 0;#P connect 64 0 74 0;#P hidden fasten 73 0 68 0 58 1138 39 1138 39 806 19 806;#P connect 79 0 82 0;#P hidden connect 8 0 18 0;#P hidden connect 74 0 79 0;#P hidden connect 23 0 26 0;#P connect 9 0 11 0;#P hidden fasten 17 0 12 0 62 540 11 540 11 208 34 208;#P connect 12 0 7 0;#P connect 7 0 8 0;#P connect 10 0 8 0;#P connect 67 0 68 1;#P hidden connect 18 0 23 0;#P connect 11 0 12 1;#P connect 18 0 28 0;#P connect 57 0 58 0;#P connect 86 0 87 0;#P connect 17 0 19 0;#P connect 64 0 73 0;#P hidden connect 73 0 75 0;#P connect 8 0 17 0;#P connect 82 0 115 0;#P connect 26 0 59 0;#P connect 20 0 19 1;#P connect 77 0 73 1;#P connect 76 0 75 1;#P connect 72 0 66 0;#P connect 21 0 17 1;#P connect 16 0 10 0;#P connect 83 0 73 2;#P connect 27 0 17 2;#P connect 29 0 28 1;#P connect 80 0 79 1;#P connect 69 0 67 1;#P connect 84 0 73 3;#P connect 56 0 17 3;#P connect 24 0 23 1;#P connect 13 0 11 1;#P connect 87 0 78 0;#P connect 71 0 69 0;#P connect 78 0 72 0;#P connect 72 0 71 0;#P connect 58 0 22 0;#P connect 22 0 16 0;#P connect 16 0 15 0;#P connect 15 0 13 0;#P connect 31 0 28 2;#P connect 58 0 120 0;#P connect 87 0 122 0;#P connect 185 0 78 3;#P connect 136 0 78 3;#P connect 134 0 78 3;#P connect 183 0 22 3;#P connect 129 0 22 3;#P connect 127 0 22 3;#P connect 2 0 78 4;#P connect 135 0 78 4;#P connect 134 0 78 4;#P connect 185 0 78 4;#P connect 81 0 79 2;#P connect 30 0 28 3;#P connect 130 0 22 4;#P connect 128 0 22 4;#P connect 183 0 22 4;#P hidden connect 67 0 70 0;#P connect 25 0 23 2;#P hidden connect 11 0 14 0;#P connect 32 0 28 4;#P connect 39 0 34 0;#P connect 37 0 35 0;#P connect 34 0 35 0;#P connect 36 0 38 0;#P connect 35 0 45 0;#P hidden fasten 44 0 39 0 437 651 418 651 418 319 398 319;#P connect 50 0 53 0;#P hidden connect 45 0 50 0;#P connect 94 0 89 0;#P connect 92 0 90 0;#P connect 89 0 90 0;#P connect 91 0 93 0;#P connect 90 0 100 0;#P hidden fasten 99 0 94 0 443 1138 424 1138 424 806 404 806;#P connect 105 0 108 0;#P hidden connect 100 0 105 0;#P connect 38 0 39 1;#P connect 93 0 94 1;#P connect 53 0 114 0;#P connect 60 0 61 0;#P connect 35 0 44 0;#P hidden connect 44 0 46 0;#P connect 112 0 113 0;#P connect 108 0 116 0;#P connect 90 0 99 0;#P hidden connect 99 0 101 0;#P connect 48 0 44 1;#P connect 47 0 46 1;#P connect 43 0 37 0;#P connect 103 0 99 1;#P connect 102 0 101 1;#P connect 98 0 92 0;#P connect 54 0 44 2;#P connect 109 0 99 2;#P connect 51 0 50 1;#P connect 40 0 38 1;#P connect 106 0 105 1;#P connect 55 0 44 3;#P connect 95 0 93 1;#P connect 110 0 99 3;#P connect 61 0 49 0;#P connect 42 0 40 0;#P connect 49 0 43 0;#P connect 43 0 42 0;#P connect 113 0 104 0;#P connect 97 0 95 0;#P connect 104 0 98 0;#P connect 98 0 97 0;#P connect 61 0 121 0;#P connect 113 0 123 0;#P connect 184 0 49 3;#P connect 133 0 49 3;#P connect 131 0 49 3;#P connect 186 0 104 3;#P connect 140 0 104 3;#P connect 138 0 104 3;#P connect 4 0 49 4;#P connect 132 0 49 4;#P connect 131 0 49 4;#P connect 184 0 49 4;#P connect 52 0 50 2;#P connect 107 0 105 2;#P hidden connect 38 0 41 0;#P connect 137 0 104 4;#P connect 139 0 104 4;#P connect 138 0 104 4;#P connect 186 0 104 4;#P hidden connect 93 0 96 0;#P connect 124 0 117 0;#P connect 117 0 125 0;#P connect 125 0 147 0;#P connect 156 0 155 0;#P connect 155 0 157 0;#P connect 166 0 165 0;#P connect 165 0 167 0;#P connect 118 0 117 1;#P connect 176 0 175 0;#P connect 175 0 177 0;#P connect 117 0 119 0;#P hidden connect 61 0 151 0;#P connect 151 0 152 0;#P connect 157 0 152 0;#P connect 152 0 154 0;#P connect 154 0 159 0;#P connect 159 0 158 0;#P hidden connect 87 0 161 0;#P connect 167 0 162 0;#P connect 161 0 162 0;#P connect 162 0 164 0;#P connect 164 0 169 0;#P connect 169 0 168 0;#P hidden connect 113 0 171 0;#P connect 171 0 172 0;#P connect 177 0 172 0;#P connect 172 0 174 0;#P connect 174 0 179 0;#P connect 179 0 178 0;#P connect 145 0 144 0;#P connect 144 0 146 0;#P connect 153 0 152 1;#P connect 163 0 162 1;#P connect 173 0 172 1;#P connect 160 0 152 2;#P connect 170 0 162 2;#P connect 180 0 172 2;#P hidden connect 58 0 126 0;#P connect 146 0 141 0;#P connect 126 0 141 0;#P connect 141 0 143 0;#P connect 143 0 149 0;#P connect 149 0 148 0;#P connect 142 0 141 1;#P connect 150 0 141 2;#P pop;