#N canvas 383 292 456 306 10;
#X text 50 71 Milliseconds between 2 beats to bpm conversion;
#X obj 113 104 loadbang;
#X obj 105 130 metro 500;
#X floatatom 105 248 5 0 0 0 - - -;
#X obj 70 111 tgl 15 0 empty empty empty 0 -6 0 8 -262144 -1 -1 0 1
;
#X obj 104 180 timer;
#X obj 107 154 t b b;
#X obj 106 212 ms2bpm;
#X text 53 56 ms2bpm :;
#X connect 1 0 2 0;
#X connect 2 0 6 0;
#X connect 4 0 2 0;
#X connect 5 0 7 0;
#X connect 6 0 5 0;
#X connect 6 1 5 1;
#X connect 7 0 3 0;
