#N canvas 0 0 460 310 10;
#X obj 140 102 timer;
#X obj 165 44 loadbang;
#X floatatom 140 129 10 0 0 0 - - -;
#X obj 165 68 metro 50;
#X floatatom 140 254 5 0 0 0 - - -;
#X floatatom 158 232 5 0 0 0 - - -;
#X floatatom 205 208 5 0 0 0 - - -;
#X text 240 206 seconds;
#X text 195 232 minutes;
#X text 177 254 hours;
#X floatatom 242 182 5 0 0 0 - - -;
#X text 279 179 msec;
#X obj 140 161 convert/timer2time;
#X connect 0 0 2 0;
#X connect 1 0 3 0;
#X connect 2 0 12 0;
#X connect 3 0 0 1;
#X connect 12 0 4 0;
#X connect 12 1 5 0;
#X connect 12 2 6 0;
#X connect 12 3 10 0;
