max v2;#N vpatcher 26 100 820 534;#P origin 31 -107;#P window setfont "Sans Serif" 9.;#P window linecount 1;#N vpatcher 78 214 446 648;#P window setfont "Sans Serif" 9.;#P window linecount 1;#P newex 192 148 61 196617 t connected;#P window linecount 0;#P newex 102 123 58 196617 select 0 1;#P newex 102 148 74 196617 t disconnected;#N comlet bang if reset acknowledged;#P inlet 102 87 15 0;#P outlet 102 315 15 0;#P connect 1 0 3 0;#P connect 3 0 2 0;#P fasten 4 0 0 0 197 240 107 240;#P fasten 2 0 0 0 107 240 107 240;#P connect 3 1 4 0;#P pop;#P hidden newobj 1190 306 95 196617 p status_messages;#N comlet status messages;#P hidden outlet 1190 338 15 0;#P hidden newex 371 26 64 196617 patcherargs;#B color 5;#N thispatcher;#Q end;#P hidden newobj 692 168 61 196617 thispatcher;#N vpatcher 56 72 855 585;#P window setfont "Sans Serif" 9.;#P window linecount 1;#P message 292 136 33 196617 i2c 1;#P newex 292 109 20 196617 t b;#P newex 292 156 205 196617 pattrforward parent::icube_communication;#P window linecount 0;#P newex 292 82 51 196617 route i2c;#N comlet in from patcherargs;#P inlet 292 34 15 0;#P newex 60 60 60 196617 loadmess 0;#P newex 60 106 201 196617 pattrforward parent::interface_number_n;#P connect 1 0 0 0;#P connect 2 0 3 0;#P connect 3 0 5 0;#P connect 5 0 6 0;#P connect 6 0 4 0;#P pop;#P hidden newobj 391 47 33 196617 p init;#B color 5;#N vpatcher 532 420 1424 934;#P window setfont "Sans Serif" 9.;#P newex 122 210 172 196617 pattrforward parent::reset_trigger;#N comlet reset;#P inlet 122 74 15 0;#P connect 0 0 1 0;#P pop;#P hidden newobj 282 179 32 196617 p set;#N vpatcher 615 302 1569 832;#N comlet refresh;#P inlet 524 69 15 0;#P window setfont "Sans Serif" 9.;#P newex 524 158 182 196617 pattrforward parent::refresh_trigger;#P newex 170 158 166 196617 pattrforward parent::midiin_name;#P newex 344 158 172 196617 pattrforward parent::midiout_name;#P newex 15 158 152 196617 pattrforward parent::portname;#N comlet midiout menu;#P inlet 344 69 15 0;#N comlet midiin menu;#P inlet 170 69 15 0;#N comlet serial menu;#P inlet 15 69 15 0;#P connect 0 0 3 0;#P connect 1 0 5 0;#P connect 2 0 4 0;#P connect 7 0 6 0;#P pop;#P hidden newobj 232 172 41 196617 p menu;#P hidden newex 250 477 128 196617 prepend interface_number;#P hidden newex 250 498 164 196617 pattrforward connection_manager;#P hidden newex 50 648 164 196617 pattrforward connection_manager;#P hidden newex 821 622 75 196617 prepend midiin;#P hidden newex 822 643 164 196617 pattrforward connection_manager;#P hidden newex 564 651 164 196617 pattrforward connection_manager;#P hidden newex 566 631 81 196617 prepend midiout;#P hidden newex 51 522 122 196617 pattr interval interval_n;#B color 14;#X prestore 1 0 1;#P objectname interval;#P hidden newex 53 455 210 196617 pattr interface_number interface_number_n;#B color 14;#X prestore 1 0 0;#P objectname interface_number;#N comlet i2c data;#P hidden outlet 1101 273 15 0;#N comlet i2c messages;#P hidden inlet 950 191 15 0;#P hidden newex 176 522 60 196617 pv interval;#B color 11;#P hidden newex 840 569 62 196617 prepend set;#P hidden newex 571 573 62 196617 prepend set;#P hidden newex 631 508 45 196617 midiinfo;#B color 5;#P hidden newex 1180 217 68 196617 pv connected;#B color 11;#P hidden newex 118 476 60 196617 loadmess 0;#P hidden newex 577 168 109 196617 pattrforward interval;#P hidden newex 1150 263 123 196617 pattrforward ser_menu1;#P hidden newex 52 497 143 196617 pattrforward interface_menu;#P hidden newex 266 455 104 196617 pv interface_number;#B color 11;#P hidden newex 94 588 123 196617 pattrforward ser_menu1;#P hidden newex 1008 456 80 196617 pv midiin_name;#B color 11;#P hidden newex 204 548 66 196617 pv portname;#B color 11;#N vpatcher 78 214 1235 808;#P window setfont "Sans Serif" 9.;#P message 69 430 92 196617 frgb 255 255 255;#P message 245 418 92 196617 frgb 255 255 255;#P newex 16 472 173 196617 pattrforward parent::restore_panel;#P newex 232 475 173 196617 pattrforward parent::connect_panel;#P message 29 152 68 196617 frgb 255 0 0;#P message 64 129 68 196617 frgb 255 0 0;#P newex 38 100 30 196617 t b b;#P newex 37 75 86 196617 route ack_loaded;#P inlet 37 45 15 0;#P newex 468 105 30 196617 t b b;#P newex 683 254 30 196617 t b b;#P newex 536 254 30 196617 t b b;#P message 639 308 129 196617 setrgb 0 0 0 226 197 187;#P newex 560 221 64 196617 select 0 1 2;#P newex 560 199 104 196617 pv interface_number;#P message 555 278 129 196617 setrgb 0 0 0 226 197 187;#P newex 432 250 30 196617 t b b;#P newex 285 250 30 196617 t b b;#P message 388 304 129 196617 setrgb 0 0 0 187 206 141;#P newex 309 217 64 196617 select 0 1 2;#P newex 309 195 104 196617 pv interface_number;#P newex 106 157 40 196617 t b b b;#P newex 55 310 20 196617 t b;#P message 304 274 129 196617 setrgb 0 0 0 187 206 141;#P newex 56 353 62 196617 prepend set;#P newex 56 334 66 196617 pv portname;#P newex 225 352 62 196617 prepend set;#P newex 225 333 86 196617 pv midiout_name;#P newex 395 352 62 196617 prepend set;#P newex 395 333 80 196617 pv midiin_name;#P newex 53 375 160 196617 pattrforward parent::ser_menu1;#P newex 225 375 172 196617 pattrforward parent::midiout_menu;#P newex 402 375 166 196617 pattrforward parent::midiin_menu;#P message 104 213 129 196617 setrgb 0 0 0 187 187 187;#P newex 236 77 55 196617 select 0 1;#N comlet bang for timeout;#P inlet 467 76 15 0;#N comlet connection status;#P inlet 236 49 15 0;#P connect 32 0 34 0;#P connect 36 0 34 0;#P connect 28 0 29 0;#P connect 29 0 30 0;#P connect 3 0 6 0;#P connect 12 0 6 0;#P connect 13 0 6 0;#P connect 21 0 6 0;#P connect 19 0 14 0;#P connect 20 0 14 0;#P connect 26 0 14 0;#P connect 25 0 14 0;#P connect 15 0 14 0;#P connect 14 0 11 0;#P connect 11 0 12 0;#P connect 15 1 3 0;#P connect 2 0 15 0;#P connect 14 0 9 0;#P connect 9 0 10 0;#P connect 18 0 5 0;#P connect 3 0 5 0;#P connect 10 0 5 0;#P connect 24 0 5 0;#P connect 31 0 33 0;#P connect 35 0 33 0;#P connect 0 0 2 0;#P connect 17 1 19 0;#P connect 17 2 19 0;#P connect 19 1 13 0;#P connect 2 1 16 0;#P connect 16 0 17 0;#P connect 20 1 18 0;#P connect 14 0 7 0;#P connect 7 0 8 0;#P connect 24 0 4 0;#P connect 18 0 4 0;#P connect 3 0 4 0;#P connect 8 0 4 0;#P connect 17 0 20 0;#P connect 1 0 27 0;#P connect 23 2 25 0;#P connect 23 1 25 0;#P connect 25 1 21 0;#P connect 27 1 22 0;#P connect 27 0 22 0;#P connect 22 0 23 0;#P connect 26 1 24 0;#P connect 23 0 26 0;#P pop;#P hidden newobj 1079 337 104 196617 p connection_colours;#P hidden newex 740 458 86 196617 pv midiout_name;#B color 11;#P hidden newex 840 590 129 196617 pattrforward midiin_menu;#P hidden newex 564 593 135 196617 pattrforward midiout_menu;#P hidden newex 513 462 20 196617 t b;#P hidden newex 20 173 19 196617 t b;#P hidden newex 20 153 40 196617 change;#N vpatcher 145 291 1168 853;#P origin 0 33;#N comlet from device;#P inlet 702 41 15 0;#P inlet 183 19 15 0;#P window setfont "Sans Serif" 9.;#P newex 183 40 485 196617 route interface_number port midiout midiin reset;#P newex 183 265 60 196617 loadmess 0;#P message 308 272 32 196617 print;#N comlet interface number;#P outlet 183 295 15 0;#N comlet bang for timeout error;#P outlet 482 295 15 0;#P message 198 115 79 196617 port disconnect;#P message 357 274 14 196617 0;#P newex 183 87 40 196617 t i b b;#P newex 183 66 40 196617 change;#P message 373 274 14 196617 1;#N comlet 1 for confirmed connection 0 otherwise;#P outlet 373 295 15 0;#P newex 278 91 40 196617 t b l b;#P newex 278 70 74 196617 prepend port;#N vpatcher 288 271 1219 807;#P toggle 14 125 15 0;#P window setfont "Sans Serif" 9.;#P window linecount 1;#P message 89 204 74 196617 \$1 connect \$1;#P newex 88 156 40 196617 uzi 8;#N counter 1 8;#X flags 0 0;#P newobj 89 181 66 196617 counter 1 8;#N vpatcher 521 500 1121 900;#P window setfont "Sans Serif" 9.;#P window linecount 0;#P message 202 180 74 196617 \$1 connect \$1;#P newex 201 132 40 196617 uzi 8;#N counter 1 8;#X flags 0 0;#P newobj 202 157 66 196617 counter 1 8;#P newex 322 260 43 196617 delay 1;#P newex 322 242 20 196617 t b;#N comlet bang when reset sequence done;#P outlet 322 280 15 0;#P window linecount 1;#P message 281 141 55 196617 interval 1;#P message 345 140 61 196617 0 hostmode;#P newex 219 93 53 196617 t b b b b;#P inlet 219 55 15 0;#N comlet to icube object;#P outlet 242 277 15 0;#P connect 2 1 9 0;#P connect 9 0 8 0;#P connect 8 0 10 0;#P connect 1 0 2 0;#P connect 10 0 0 0;#P connect 3 0 0 0;#P connect 4 0 0 0;#P connect 2 2 4 0;#P connect 2 0 6 0;#P connect 6 0 7 0;#P connect 7 0 5 0;#P connect 2 3 3 0;#P pop;#P newobj 172 196 122 196617 p after_reset_confirmed;#P message 426 143 14 196617 2;#P message 407 143 14 196617 4;#P message 388 143 14 196617 2;#P newex 387 120 64 196617 select 0 1 2;#P newex 386 97 104 196617 pv interface_number;#P newex 354 72 40 196617 t b b b;#P newex 29 51 45 196617 loadbang;#N vpatcher 382 360 982 760;#P window setfont "Sans Serif" 9.;#P newex 136 96 20 196617 t b;#P message 140 119 14 196617 1;#P newex 109 152 20 196617 t b;#P message 133 152 14 196617 0;#P newex 174 153 29 196617 gate;#P outlet 171 249 15 0;#N comlet incoming data;#P inlet 213 73 15 0;#N comlet bang to enable single message thru;#P inlet 134 59 15 0;#P connect 3 0 5 0;#P connect 5 0 4 0;#P connect 0 0 7 0;#P connect 7 0 6 0;#P connect 3 0 2 0;#P connect 4 0 3 0;#P connect 6 0 3 0;#P connect 1 0 3 1;#P pop;#P newobj 184 137 53 196617 p onetime;#P newex 184 158 30 196617 t b b;#N comlet bang if timeout error;#P outlet 337 283 15 0;#N vpatcher 284 386 1238 805;#P window setfont "Sans Serif" 9.;#P message 39 248 14 196617 0;#P message 55 248 14 196617 1;#P newex 55 278 58 196617 metro 200;#P newex 143 212 46 196617 select 1;#P newex 143 190 104 196617 pv interface_number;#P newex 123 167 30 196617 t b b;#P message 55 308 43 196617 0 reset;#N comlet bang to reset;#P inlet 309 79 15 0;#P newex 309 109 40 196617 t b b b;#P newex 295 209 37 196617 select;#P message 277 141 14 196617 0;#P message 351 142 14 196617 0;#P message 294 141 14 196617 1;#P newex 294 161 64 196617 metro 1000;#N counter;#X flags 0 0;#P newobj 295 184 66 196617 counter;#N comlet bang for timeout reached;#P outlet 295 328 15 0;#N comlet timeout value (seconds);#P inlet 398 84 15 0;#N comlet to icubex object;#P outlet 55 340 15 0;#N comlet bang if reset confirmed;#P inlet 29 72 15 0;#P connect 9 0 18 0;#P connect 0 0 18 0;#P connect 15 0 17 0;#P connect 17 0 16 0;#P connect 18 0 16 0;#P connect 15 1 12 0;#P connect 16 0 12 0;#P connect 12 0 1 0;#P connect 10 2 13 0;#P connect 13 1 14 0;#P connect 14 0 15 0;#P connect 4 2 8 0;#P connect 0 0 8 0;#P connect 10 0 6 0;#P connect 8 0 5 0;#P connect 6 0 5 0;#P connect 5 0 4 0;#P connect 4 0 9 0;#P connect 9 0 3 0;#P connect 11 0 10 0;#P connect 2 0 9 1;#P connect 7 0 4 3;#P connect 10 1 7 0;#P connect 2 0 4 4;#P pop;#P newobj 312 196 102 196617 p reset_timeout;#N comlet bang if reset confirmed;#P outlet 278 281 15 0;#P newex 228 115 84 196617 match 125 0 35;#N comlet bang to reset;#P inlet 354 54 15 0;#N comlet to icube object;#P outlet 172 278 15 0;#N comlet from serial object;#P inlet 228 39 15 0;#P window linecount 2;#P comment 495 93 163 196617 change timeout depending on interface;#P connect 10 0 21 0;#P connect 10 0 19 0;#P connect 19 0 18 0;#P connect 18 0 20 0;#P connect 8 0 17 0;#P connect 6 0 2 0;#P connect 17 0 2 0;#P connect 11 1 9 0;#P connect 9 0 8 0;#P connect 4 0 9 1;#P connect 1 0 4 0;#P connect 17 1 5 0;#P connect 8 1 6 0;#P connect 6 1 7 0;#P connect 3 0 11 0;#P connect 11 0 6 1;#P connect 11 2 12 0;#P connect 12 0 13 0;#P connect 13 0 14 0;#P connect 14 0 6 2;#P connect 15 0 6 2;#P connect 16 0 6 2;#P connect 13 1 15 0;#P connect 13 2 16 0;#P pop;#P newobj 408 203 85 196617 p reset;#P newex 447 129 49 196617 delay 50;#P newex 427 107 30 196617 t b b;#P newex 427 85 36 196617 buddy;#N comlet to serial;#P outlet 293 295 16 0;#N comlet to midiout;#P outlet 212 295 15 0;#N comlet to midiin;#P outlet 239 295 15 0;#N comlet to icube object;#P outlet 152 295 15 0;#P fasten 7 0 0 0 413 241 157 241;#P connect 21 0 20 0;#P connect 20 0 12 0;#P connect 12 0 13 0;#P connect 19 0 17 0;#P connect 13 0 17 0;#P connect 13 1 15 0;#P fasten 20 2 2 0 378 182 217 182;#P lcolor 8;#P fasten 20 3 1 0 473 178 244 178;#P lcolor 8;#P connect 20 1 8 0;#P connect 8 0 9 0;#P fasten 18 0 3 0 313 292 298 292;#P fasten 15 0 3 0 203 214 298 214;#P fasten 9 1 3 0 298 203 298 203;#P fasten 7 1 18 0 450 253 313 253;#P fasten 13 2 14 0 218 191 362 191;#P lcolor 3;#P fasten 9 2 14 0 313 191 362 191;#P lcolor 3;#P fasten 5 0 14 0 432 191 362 191;#P lcolor 3;#P fasten 7 1 11 0 450 262 378 262;#P lcolor 3;#P connect 11 0 10 0;#P connect 14 0 10 0;#P fasten 22 0 7 0 707 197 413 197;#P fasten 20 2 4 0 378 71 432 71;#P connect 4 0 5 0;#P connect 5 1 6 0;#P fasten 20 3 4 1 473 71 458 71;#P connect 7 2 16 0;#P fasten 6 0 7 1 452 174 488 174;#P lcolor 6;#P fasten 9 0 7 1 283 155 488 155;#P lcolor 6;#P fasten 20 4 7 1 568 174 488 174;#P lcolor 6;#P pop;#P hidden newobj 909 217 268 196617 p connection_manager;#B color 15;#P objectname connection_manager;#P hidden message 140 319 61 196617 interval \$1;#P hidden newex 50 548 151 196617 pattr portname @autorestore 0;#B color 14;#X prestore 1 0 0;#P objectname portname;#P hidden newex 499 127 20 196617 t b;#B color 7;#P objectname reset_trigger;#P message 161 163 34 196617 reset;#P objectname ser_but2[2];#P window setfont "Sans Serif" 14.;#P comment 28 65 89 196622 Connection;#P window setfont "Sans Serif" 9.;#P hidden newex 566 458 171 196617 pattr midiout_name @autorestore 0;#B color 14;#X prestore 1 0 0;#P objectname midiout_name;#P hidden newex 840 456 165 196617 pattr midiin_name @autorestore 0;#B color 14;#X prestore 1 0 0;#P objectname midiin_name;#P hidden newex 53 475 62 196617 prepend set;#P hidden newex 566 528 27 196617 t b l;#P hidden newex 566 508 62 196617 prepend set;#P hidden message 565 552 138 196617 "USB MIDI 1x1 Port 1";#P hidden newex 821 525 27 196617 t b l;#P hidden newex 823 504 62 196617 prepend set;#P hidden message 821 547 138 196617 "USB MIDI 1x1 Port 1";#P hidden number 372 131 35 9 0 2 163 3 0 0 0 221 221 221 222 222 222 0 0 0;#P objectname interface_number_n;#P hidden newex 51 588 40 196617 t b l b;#P hidden newex 50 568 62 196617 prepend set;#P hidden message 1114 198 36 196617 print;#P hidden newex 1114 177 19 196617 t b;#P objectname refresh_trigger;#P hidden message 50 609 138 196617 SLAB_USBtoUART;#P objectname portname_msg;#P hidden newex 50 628 89 196617 prepend port;#P window linecount 0;#P comment 6 47 100 196617;#P window linecount 1;#P hidden newex 438 61 170 196617 pak 0 0 0 0 0 0 0 0;#P hidden message 29 394 127 196617 \$1 \$1 \$1 \$1 \$1 \$1 \$1 \$1;#P hidden message 72 370 127 196617 \$1 \$1 \$1 \$1 \$1 \$1 \$1 \$1;#P window linecount 2;#P hidden newex 780 295 88 196617 pak 0 0 0 0 0 0 0 0 0 0 0 0 0 0 0 0;#P window linecount 1;#P hidden newex 717 401 105 196617 pak 0 0 0 0 0 0 0 0;#P comment 30 140 46 196617 MIDI out;#P objectname midi_lb2;#P window setfont "Sans Serif" 14.;#P user ubumenu 86 89 184 196622 0 1 1 0;#X setrgb 31 31 31 228 220 219 234 234 234 206 206 206 141 141 141 112 112 112;#X add microDig;#X add Wi-microDig;#X add USB-microDig;#X prefix_set 0 0 <none> 0;#P objectname interface_menu;#P window setfont "Sans Serif" 9.;#P hidden newex 514 503 45 196617 midiinfo;#B color 5;#P user umenu 85 121 137 196647 1 64 137 0;#X setrgb 0 0 0 187 187 187 255 255 255 221 221 221 170 170 170 119 119 119 187 187 187;#X add "from MaxMSP 1";#X add "from MaxMSP 2";#X add "to MaxMSP 1";#X add "to MaxMSP 2";#P objectname midiin_menu;#P hidden message 521 127 34 196617 reset;#P objectname ser_but2;#N vpatcher 349 62 1586 914;#P window setfont "Sans Serif" 9.;#P window linecount 1;#P message 160 520 110 196617 script show midi_note;#P message 241 429 105 196617 script hide midi_note;#P message 78 349 110 196617 script show midi_note;#P newex 97 497 66 196617 t b b b b b;#P message 158 602 128 196617 script show midiout_menu;#P message 158 583 122 196617 script show midiin_menu;#P message 158 564 105 196617 script show midi_lb2;#P message 158 544 105 196617 script show midi_lb1;#P window setfont "Sans Serif" 14.;#P comment 364 301 147 196622 serial menu;#P comment 723 307 139 196622 digital outputs;#P window setfont "Sans Serif" 9.;#P newex 953 214 40 196617 change;#P newex 954 235 20 196617 t b;#P newex 535 326 20 196617 t b;#P message 543 372 114 196617 script hide ser_menu1;#P message 543 352 96 196617 script hide ser_lb1;#P newex 366 328 30 196617 t b b;#P message 398 372 116 196617 script show ser_menu1;#P message 398 352 101 196617 script show ser_lb1;#P newex 224 316 20 196617 t b;#P message 241 406 123 196617 script hide midiout_menu;#P message 241 387 117 196617 script hide midiin_menu;#P message 241 368 100 196617 script hide midi_lb2;#P message 241 348 100 196617 script hide midi_lb1;#P newex 17 319 66 196617 t b b b b b;#P message 73 427 128 196617 script show midiout_menu;#P message 73 408 122 196617 script show midiin_menu;#P message 73 389 105 196617 script show midi_lb2;#P message 73 369 105 196617 script show midi_lb1;#N comlet 0 sent upon change of interface;#P outlet 954 260 15 0;#P message 808 582 127 196617 script sendtoback out_pan;#P newex 75 66 64 196617 select 0 1 2;#P newex 924 350 20 196617 t b;#P newex 724 349 144 196617 t b b b b b b b b b b b;#P message 943 563 91 196617 script hide out8_t;#P message 943 544 91 196617 script hide out7_t;#P message 943 525 91 196617 script hide out6_t;#P message 943 506 91 196617 script hide out5_t;#P message 943 488 91 196617 script hide out4_t;#P message 943 469 91 196617 script hide out3_t;#P message 943 450 91 196617 script hide out2_t;#P message 943 431 91 196617 script hide out1_t;#P message 943 412 89 196617 script hide out_lb;#P message 943 392 96 196617 script hide out_pan;#P message 808 562 96 196617 script show out8_t;#P message 808 543 96 196617 script show out7_t;#P message 808 524 96 196617 script show out6_t;#P message 806 505 96 196617 script show out5_t;#P message 808 487 96 196617 script show out4_t;#P message 808 468 96 196617 script show out3_t;#P message 808 449 96 196617 script show out2_t;#P message 808 430 96 196617 script show out1_t;#P message 808 411 94 196617 script show out_lb;#P message 808 391 101 196617 script show out_pan;#N comlet interface number;#P inlet 75 24 15 0;#P outlet 556 722 15 0;#P comment 953 195 110 196617 reset all toggleboxes;#P window setfont "Sans Serif" 14.;#P comment 14 296 100 196622 midi menu;#P window setfont "Sans Serif" 9.;#P window linecount 2;#P comment 96 469 100 196617 must be done twice due to bug with panel;#P connect 27 0 34 0;#P lcolor 6;#P connect 34 3 30 0;#P connect 34 2 31 0;#P connect 34 1 32 0;#P connect 34 0 33 0;#P connect 4 0 27 0;#P connect 34 4 55 0;#P connect 34 0 54 0;#P connect 54 3 50 0;#P connect 54 2 51 0;#P connect 54 1 52 0;#P connect 54 0 53 0;#P fasten 54 4 57 0 158 523;#P connect 27 1 39 0;#P connect 27 2 39 0;#P connect 39 0 35 0;#P connect 39 0 36 0;#P connect 39 0 37 0;#P connect 39 0 38 0;#P connect 39 0 56 0;#P connect 27 1 42 0;#P connect 27 2 42 0;#P connect 42 1 40 0;#P connect 42 0 41 0;#P connect 27 0 45 0;#P connect 45 0 43 0;#P connect 45 0 44 0;#P connect 57 0 3 0;#P connect 55 0 3 0;#P connect 56 0 3 0;#P connect 53 0 3 0;#P connect 52 0 3 0;#P connect 51 0 3 0;#P connect 50 0 3 0;#P connect 44 0 3 0;#P connect 43 0 3 0;#P connect 41 0 3 0;#P connect 40 0 3 0;#P connect 38 0 3 0;#P connect 37 0 3 0;#P connect 36 0 3 0;#P connect 35 0 3 0;#P connect 33 0 3 0;#P connect 32 0 3 0;#P connect 31 0 3 0;#P connect 30 0 3 0;#P connect 5 0 3 0;#P connect 6 0 3 0;#P connect 7 0 3 0;#P connect 8 0 3 0;#P connect 9 0 3 0;#P connect 10 0 3 0;#P connect 11 0 3 0;#P connect 12 0 3 0;#P connect 13 0 3 0;#P connect 14 0 3 0;#P connect 15 0 3 0;#P connect 16 0 3 0;#P connect 17 0 3 0;#P connect 18 0 3 0;#P connect 19 0 3 0;#P connect 20 0 3 0;#P connect 21 0 3 0;#P connect 22 0 3 0;#P connect 23 0 3 0;#P connect 24 0 3 0;#P connect 28 0 3 0;#P connect 27 2 25 0;#P connect 25 4 11 0;#P connect 25 10 5 0;#P connect 25 9 6 0;#P connect 25 8 7 0;#P connect 25 7 8 0;#P connect 25 6 9 0;#P connect 25 5 10 0;#P connect 25 3 12 0;#P connect 25 2 13 0;#P connect 25 1 14 0;#P connect 27 0 26 0;#P connect 27 1 26 0;#P connect 26 0 15 0;#P connect 26 0 16 0;#P connect 26 0 17 0;#P connect 26 0 18 0;#P connect 26 0 19 0;#P connect 26 0 20 0;#P connect 26 0 21 0;#P connect 26 0 22 0;#P connect 26 0 23 0;#P connect 26 0 24 0;#P connect 4 0 47 0;#P connect 47 0 46 0;#P connect 46 0 29 0;#P pop;#P hidden newobj 372 151 71 196617 p UI_manager;#N thispatcher;#Q end;#P hidden newobj 372 171 61 196617 thispatcher;#P comment 94 256 69 196617 Low (7-bit);#P comment 66 275 123 196617 All inputs;#P hidden newex 83 340 112 196617 unpack 0 0 0 0 0 0 0 0;#N comlet digital outputs on/off (list of 8 ints \; 0 = off \, 1 = on);#P hidden inlet 737 34 15 0;#N vpatcher 28 355 1356 744;#P origin 67 0;#P window setfont "Sans Serif" 9.;#P window linecount 1;#P newex 1167 150 40 196617 t front;#P comment 1083 300 123 196617 thispatcher window exec;#P comment 1065 283 228 196617 eg: thispatcher window size 100 100 1000 700;#N comlet to thispatcher (only "window" messages are passed);#P outlet 1064 226 15 0;#P newex 1064 149 82 196617 prepend window;#P newex 1064 125 133 196617 route window front dispose;#P newex 1064 97 88 196617 route thispatcher;#N comlet list of resolutions (0 = high \, 1 = low);#P outlet 95 281 15 0;#P window linecount 0;#P message 579 248 127 196617 \$1 \$1 \$1 \$1 \$1 \$1 \$1 \$1;#P newex 95 249 105 196617 pak 0 0 0 0 0 0 0 0;#N comlet bang if reset;#P outlet 941 227 15 0;#P newex 941 96 64 196617 select reset;#N comlet port name;#P outlet 787 228 15 0;#P window linecount 1;#P message 645 172 14 196617 0;#P message 623 172 14 196617 1;#P newex 623 149 55 196617 select 0 1;#P newex 623 126 52 196617 route res;#P newex 787 158 67 196617 prepend port;#P newex 786 137 56 196617 route port;#P newex 695 134 73 196617 route interval;#P newex 557 192 27 196617 + 0;#P message 579 172 14 196617 0;#P message 557 172 14 196617 1;#P newex 557 149 55 196617 select 0 1;#P newex 557 126 52 196617 route res;#P newex 491 192 27 196617 + 0;#P message 513 172 14 196617 0;#P message 491 172 14 196617 1;#P newex 491 149 55 196617 select 0 1;#P newex 491 126 52 196617 route res;#P newex 425 192 27 196617 + 0;#P message 447 172 14 196617 0;#P message 425 172 14 196617 1;#P newex 425 149 55 196617 select 0 1;#P newex 425 126 52 196617 route res;#P newex 359 192 27 196617 + 0;#P message 381 172 14 196617 0;#P message 359 172 14 196617 1;#P newex 359 149 55 196617 select 0 1;#P newex 359 126 52 196617 route res;#P newex 293 193 27 196617 + 0;#P message 315 173 14 196617 0;#P message 293 173 14 196617 1;#P newex 293 150 55 196617 select 0 1;#P newex 293 127 52 196617 route res;#P newex 227 193 27 196617 + 0;#P message 249 173 14 196617 0;#P message 227 173 14 196617 1;#P newex 227 150 55 196617 select 0 1;#P newex 227 127 52 196617 route res;#P newex 161 193 27 196617 + 0;#P message 183 173 14 196617 0;#P message 161 173 14 196617 1;#P newex 161 150 55 196617 select 0 1;#P newex 161 127 52 196617 route res;#N comlet interval value;#P outlet 695 227 15 0;#P newex 95 193 27 196617 + 0;#P message 117 173 14 196617 0;#P message 95 173 14 196617 1;#P newex 95 150 55 196617 select 0 1;#P newex 95 127 52 196617 route res;#P newex 95 98 608 196617 route 1 2 3 4 5 6 7 8 0;#N comlet incoming message;#P inlet 44 67 15 0;#P window linecount 3;#P comment 1064 241 217 196617 note: must send 2 messages \, "size" and "exec". The comma and everything after gets cut off;#P fasten 1 0 2 0 49 90 100 90;#P connect 2 0 3 0;#P connect 3 0 4 0;#P connect 4 0 5 0;#P connect 5 0 7 0;#P connect 6 0 7 0;#P fasten 7 0 54 0 100 227 100 227;#P fasten 55 0 56 0 584 274 100 274;#P connect 54 0 56 0;#P fasten 13 0 54 1 166 227 113 227;#P connect 4 1 6 0;#P fasten 18 0 54 2 232 233 126 233;#P fasten 23 0 54 3 298 233 139 233;#P fasten 28 0 54 4 364 234 152 234;#P fasten 33 0 54 5 430 233 165 233;#P connect 2 1 9 0;#P connect 9 0 10 0;#P connect 10 0 11 0;#P connect 12 0 13 0;#P connect 11 0 13 0;#P fasten 38 0 54 6 496 232 178 232;#P connect 10 1 12 0;#P fasten 43 0 54 7 562 233 191 233;#P connect 2 2 14 0;#P connect 14 0 15 0;#P connect 15 0 16 0;#P connect 17 0 18 0;#P connect 16 0 18 0;#P connect 15 1 17 0;#P connect 2 3 19 0;#P connect 19 0 20 0;#P connect 20 0 21 0;#P connect 21 0 23 0;#P connect 22 0 23 0;#P connect 20 1 22 0;#P connect 2 4 24 0;#P connect 24 0 25 0;#P connect 25 0 26 0;#P connect 27 0 28 0;#P connect 26 0 28 0;#P connect 25 1 27 0;#P connect 2 5 29 0;#P connect 29 0 30 0;#P connect 30 0 31 0;#P connect 31 0 33 0;#P connect 32 0 33 0;#P connect 30 1 32 0;#P connect 2 6 34 0;#P connect 34 0 35 0;#P connect 35 0 36 0;#P connect 36 0 38 0;#P connect 37 0 38 0;#P connect 35 1 37 0;#P connect 2 7 39 0;#P connect 39 0 40 0;#P connect 40 0 41 0;#P connect 42 0 43 0;#P connect 41 0 43 0;#P connect 40 1 42 0;#P connect 50 0 55 0;#P connect 49 0 55 0;#P connect 2 8 47 0;#P connect 47 0 48 0;#P connect 48 0 49 0;#P connect 48 1 50 0;#P fasten 1 0 44 0 49 89 700 89;#P connect 44 0 8 0;#P fasten 1 0 45 0 49 89 791 89;#P connect 45 0 46 0;#P connect 46 0 51 0;#P fasten 1 0 52 0 49 89 946 89;#P connect 52 0 53 0;#P fasten 1 0 57 0 49 89 1069 89;#P connect 57 0 58 0;#P connect 58 0 59 0;#P fasten 63 0 60 0 1172 196 1069 196;#P connect 59 0 60 0;#P fasten 58 1 63 0 1112 146 1172 146;#P pop;#P hidden newobj 520 146 183 196617 p incoming_messages;#P objectname incoming_msgs;#N comlet messages to icube and serial objects;#P hidden inlet 757 34 15 0;#N comlet sensor input 8 on/off;#P hidden inlet 592 40 15 0;#N comlet sensor input 7 on/off;#P hidden inlet 570 40 15 0;#N comlet sensor input 6 on/off;#P hidden inlet 548 40 15 0;#N comlet sensor input 5 on/off;#P hidden inlet 526 40 15 0;#N comlet sensor input 4 on/off;#P hidden inlet 504 40 15 0;#N comlet sensor input 3 on/off;#P hidden inlet 482 40 15 0;#N comlet sensor input 2 on/off;#P hidden inlet 460 40 15 0;#N comlet sensor input 1 on/off;#P hidden inlet 438 40 15 0;#N comlet sensor 8 data;#P hidden outlet 1077 273 15 0;#N comlet sensor 7 data;#P hidden outlet 1053 273 15 0;#N comlet sensor 6 data;#P hidden outlet 1029 273 15 0;#N comlet sensor 4 data;#P hidden outlet 1005 273 15 0;#N comlet sensor 4 data;#P hidden outlet 981 273 15 0;#N comlet sensor 3 data;#P hidden outlet 957 273 15 0;#N comlet sensor 2 data;#P hidden outlet 933 273 15 0;#N comlet sensor 1 data;#P hidden outlet 909 273 15 0;#P hidden toggle 691 363 20 0;#P objectname out8_t;#P hidden toggle 621 363 20 0;#P objectname out7_t;#P hidden toggle 553 363 20 0;#P objectname out6_t;#P hidden toggle 483 363 20 0;#P objectname out5_t;#P hidden toggle 414 363 20 0;#P objectname out4_t;#P hidden toggle 344 363 20 0;#P objectname out3_t;#P hidden toggle 276 363 20 0;#P objectname out2_t;#P hidden toggle 206 363 20 0;#P objectname out1_t;#P window setfont "Sans Serif" 14.;#P hidden comment 205 332 162 196622 Digital Outputs;#P objectname out_lb;#P window setfont "Sans Serif" 9.;#N vpatcher 257 302 1162 856;#P window setfont "Sans Serif" 9.;#P message 802 161 34 196617 set \$1;#P message 763 161 34 196617 set \$1;#P newex 779 123 74 196617 route in res;#N comlet in from message generator;#P inlet 779 89 15 0;#P inlet 733 89 15 0;#N comlet bang to reset controls;#P inlet 47 89 15 0;#N vpatcher 349 324 1137 806;#P window setfont "Sans Serif" 9.;#P message 52 149 14 196617 0;#N comlet to interface #;#P outlet 51 263 15 0;#P message 157 225 14 196617 0;#P newex 109 99 20 196617 t b;#P inlet 109 59 15 0;#P message 109 225 33 196617 set 1;#N comlet to interval;#P outlet 109 262 15 0;#N comlet to all controls;#P outlet 157 264 15 0;#P newex 52 60 48 196617 loadbang;#P connect 8 0 7 0;#P connect 4 0 5 0;#P connect 0 0 5 0;#P connect 5 0 3 0;#P connect 3 0 2 0;#P connect 5 0 6 0;#P connect 6 0 1 0;#P pop;#P newobj 47 175 48 196617 p init;#P objectname init;#N comlet interface # (0 = md \, 1 = wmd \, 2 = umd);#P outlet 40 223 15 0;#N comlet sampling interval control;#P outlet 71 222 15 0;#N comlet all resolution buttons control;#P outlet 125 224 15 0;#N comlet all on switch control;#P outlet 94 224 15 0;#N comlet sensor 8 on/off;#P outlet 626 223 16 0;#N comlet sensor 8 res (0 = high \, 1 = low);#P outlet 656 223 16 0;#N comlet sensor 7 on/off;#P outlet 562 223 16 0;#N comlet sensor 7 res (0 = high \, 1 = low);#P outlet 591 223 16 0;#N comlet sensor 6 on/off;#P outlet 498 223 16 0;#N comlet sensor 6 res (0 = high \, 1 = low);#P outlet 526 223 16 0;#N comlet sensor 5 on/off;#P outlet 434 223 16 0;#N comlet sensor 5 res (0 = high \, 1 = low);#P outlet 461 223 16 0;#N comlet sensor 4 on/off;#P outlet 370 223 16 0;#N comlet sensor 4 res (0 = high \, 1 = low);#P outlet 396 223 16 0;#N comlet sensor 3 on/off;#P outlet 306 223 16 0;#N comlet sensor 3 res (0 = high \, 1 = low);#P outlet 331 223 16 0;#N comlet sensor 2 on/off;#P outlet 242 223 16 0;#N comlet sensor 2 res (0 = high \, 1 = low);#P outlet 266 223 16 0;#N comlet list of sensor res (0 = high \, 1 = low);#P inlet 200 88 15 0;#P newex 201 158 467 196617 unpack 0 0 0 0 0 0 0 0;#N comlet sensor 1 on/off;#P outlet 178 223 16 0;#N comlet list of sensor inputs (0 = off \, 1 = on);#P inlet 178 88 15 0;#P newex 178 116 463 196617 unpack 0 0 0 0 0 0 0 0;#N comlet sensor 1 res (0 = high \, 1 = low);#P outlet 201 223 16 0;#P connect 24 0 23 0;#P connect 25 0 24 0;#P connect 24 1 22 0;#P connect 24 2 20 0;#P connect 29 0 20 0;#P connect 24 2 21 0;#P connect 30 0 21 0;#P connect 2 0 1 0;#P connect 24 2 3 0;#P connect 1 0 3 0;#P connect 5 0 4 0;#P connect 4 0 0 0;#P connect 24 2 0 0;#P connect 1 1 7 0;#P connect 24 2 7 0;#P connect 4 1 6 0;#P connect 24 2 6 0;#P connect 1 2 9 0;#P connect 24 2 9 0;#P connect 4 2 8 0;#P connect 24 2 8 0;#P connect 1 3 11 0;#P connect 24 2 11 0;#P connect 4 3 10 0;#P connect 24 2 10 0;#P connect 1 4 13 0;#P connect 24 2 13 0;#P connect 4 4 12 0;#P connect 24 2 12 0;#P connect 1 5 15 0;#P connect 24 2 15 0;#P connect 4 5 14 0;#P connect 24 2 14 0;#P connect 1 6 17 0;#P connect 24 2 17 0;#P connect 4 6 16 0;#P connect 24 2 16 0;#P connect 1 7 19 0;#P connect 24 2 19 0;#P connect 4 7 18 0;#P connect 24 2 18 0;#P connect 28 0 29 0;#P connect 27 0 28 0;#P connect 28 1 30 0;#P pop;#P hidden newobj 206 203 383 196617 p interface_control;#P objectname interface_control;#P toggle 31 240 22 0;#P comment 29 223 40 196617 On/Off;#P user radiogroup 72 237 18 32;#X size 2;#X offset 16;#X inactive 0;#X itemtype 0;#X flagmode 0;#X set 0;#X done;#P number 140 291 36 9 1 0 1 3 0 0 0 221 221 221 222 222 222 0 0 0;#P objectname interval_n;#P window setfont "Sans Serif" 12.;#P hidden user ubumenu 85 128 186 196620 0 1 1 0;#X setrgb 0 0 0 187 187 187 234 234 234 4 4 4 141 141 141 112 112 112;#X add "No ports found";#X prefix_set 0 0 <none> 0;#P objectname ser_menu1;#P number 687 289 35 12 0 0 8352 3 0 0 0 221 221 221 222 222 222 0 0 0;#P number 619 289 35 12 0 0 8352 3 0 0 0 221 221 221 222 222 222 0 0 0;#P number 551 289 35 12 0 0 8352 3 0 0 0 221 221 221 222 222 222 0 0 0;#P number 481 289 35 12 0 0 8352 3 0 0 0 221 221 221 222 222 222 0 0 0;#P number 411 289 35 12 0 0 8352 3 0 0 0 221 221 221 222 222 222 0 0 0;#P number 342 289 35 12 0 0 8352 3 0 0 0 221 221 221 222 222 222 0 0 0;#P number 273 289 35 12 0 0 8224 3 0 0 0 221 221 221 222 222 222 0 0 0;#P window setfont "Sans Serif" 9.;#P hidden newex 514 483 48 196617 loadbang;#P window setfont "Sans Serif" 12.;#P number 202 289 41 12 0 0 8224 3 0 0 0 221 221 221 222 222 222 0 0 0;#P window setfont "Sans Serif" 9.;#P comment 744 252 15 196617 L;#P toggle 691 234 35 0;#P objectname in8_t;#P user radiogroup 728 234 18 32;#X size 2;#X offset 16;#X inactive 0;#X itemtype 0;#X flagmode 0;#X set 0;#X done;#P objectname res8_r;#P comment 744 236 15 196617 H;#P comment 674 253 15 196617 L;#P toggle 621 235 35 0;#P objectname in7_t;#P user radiogroup 658 235 18 32;#X size 2;#X offset 16;#X inactive 0;#X itemtype 0;#X flagmode 0;#X set 0;#X done;#P objectname res7_r;#P comment 674 237 15 196617 H;#P comment 606 253 15 196617 L;#P toggle 553 235 35 0;#P objectname in6_t;#P user radiogroup 590 235 18 32;#X size 2;#X offset 16;#X inactive 0;#X itemtype 0;#X flagmode 0;#X set 0;#X done;#P objectname res6_r;#P comment 606 237 15 196617 H;#P comment 536 254 15 196617 L;#P toggle 483 236 35 0;#P objectname in5_t;#P user radiogroup 520 236 18 32;#X size 2;#X offset 16;#X inactive 0;#X itemtype 0;#X flagmode 0;#X set 0;#X done;#P objectname res5_r;#P comment 536 238 15 196617 H;#P comment 467 255 15 196617 L;#P toggle 414 237 35 0;#P objectname in4_t;#P user radiogroup 451 237 18 32;#X size 2;#X offset 16;#X inactive 0;#X itemtype 0;#X flagmode 0;#X set 0;#X done;#P objectname res4_r;#P comment 467 239 15 196617 H;#P comment 397 256 15 196617 L;#P toggle 344 238 35 0;#P objectname in3_t;#P user radiogroup 381 238 18 32;#X size 2;#X offset 16;#X inactive 0;#X itemtype 0;#X flagmode 0;#X set 0;#X done;#P objectname res3_r;#P comment 397 240 15 196617 H;#P comment 329 256 15 196617 L;#P toggle 276 238 35 0;#P objectname in2_t;#P user radiogroup 313 238 18 32;#X size 2;#X offset 16;#X inactive 0;#X itemtype 0;#X flagmode 0;#X set 0;#X done;#P objectname res2_r;#P comment 329 240 15 196617 H;#P comment 259 257 15 196617 L;#P toggle 206 239 35 0;#P objectname in1_t;#P user radiogroup 243 239 18 32;#X size 2;#X offset 16;#X inactive 0;#X itemtype 0;#X flagmode 0;#X set 0;#X done;#P objectname res1_r;#P comment 259 241 15 196617 H;#N vpatcher 388 142 1609 804;#P origin 44 4;#P window setfont "Sans Serif" 9.;#P window linecount 2;#N vpatcher 829 368 1429 768;#P window setfont "Sans Serif" 9.;#P newex 46 177 27 196617 0;#P newex 63 149 19 196617 t 1;#P newex 63 82 73 196617 t b l clear 0;#P newex 63 119 98 196617 match 1 1 1 1 1 1 1 1;#N comlet 1 if equal \, 0 if not equal;#P outlet 63 214 13 0;#N comlet set left term \, trigger the comparison;#P inlet 63 59 13 0;#P comment 171 120 100 196617 thx to jb.utils;#P connect 4 0 6 0;#P connect 1 0 4 0;#P connect 4 1 3 0;#P connect 4 2 3 0;#P fasten 3 0 5 0 68 148;#P connect 5 0 6 1;#P connect 4 3 6 1;#P connect 6 0 2 0;#P pop;#P newobj 129 465 55 196617 p listequals;#N vpatcher 829 368 1429 768;#P window setfont "Sans Serif" 9.;#P newex 46 177 27 196617 0;#P newex 63 149 19 196617 t 1;#P newex 63 82 73 196617 t b l clear 0;#P newex 63 119 98 196617 match 1 1 1 1 1 1 1 1;#N comlet 1 if equal \, 0 if not equal;#P outlet 63 214 13 0;#N comlet set left term \, trigger the comparison;#P inlet 63 59 13 0;#P comment 171 120 100 196617 thx to jb.utils;#P connect 4 0 6 0;#P connect 1 0 4 0;#P connect 4 2 3 0;#P connect 4 1 3 0;#P fasten 3 0 5 0 68 148;#P connect 4 3 6 1;#P connect 5 0 6 1;#P connect 6 0 2 0;#P pop;#P newobj 57 465 55 196617 p listequals;#P window linecount 1;#P message 164 532 29 196617 res 0;#P message 128 532 29 196617 res 1;#P newex 129 500 41 196617 select 1;#P newex 166 396 105 196617 pak 0 0 0 0 0 0 0 0;#P message 98 532 23 196617 in 0;#P message 62 532 23 196617 in 1;#N comlet to interface control;#P outlet 107 596 15 0;#P newex 64 501 41 196617 select 1;#P newex 41 377 105 196617 pak 0 0 0 0 0 0 0 0;#N vpatcher 592 222 1292 775;#P origin -69 53;#P window setfont "Sans Serif" 9.;#P window linecount 3;#P comment 3 35 93 196617 only send a message if the value has changed;#P window linecount 2;#P comment 268 200 145 196617 only send a message if the value has changed;#P window linecount 1;#P newex 224 203 40 196617 change;#P newex 101 48 40 196617 change;#P window linecount 4;#P comment 4 101 90 196617 first bang the resolution through \, then turn on channel;#P window linecount 0;#P newex 101 98 30 196617 t b b;#P window linecount 1;#P newex 288 128 52 196617 value res;#N comlet channel number;#P inlet 459 29 15 0;#P window linecount 0;#P newex 459 82 62 196617 prepend set;#P window linecount 1;#P message 281 303 14 196617 8;#P message 259 303 14 196617 8;#P newex 259 278 55 196617 select 1 0;#P message 122 198 14 196617 8;#P message 101 154 14 196617 8;#P message 281 345 113 196617 \$1 res 1 \$1 max 1023;#P message 259 324 107 196617 \$1 res 0 \$1 max 127;#P outlet 138 387 15 0;#N comlet resolution (0 = high \, 1 = low);#P inlet 224 28 15 0;#P message 123 216 38 196617 \$1 off;#P message 101 171 105 196617 \$1 connect \$1 \$1 on;#P newex 101 73 55 196617 select 1 0;#N comlet 1 = on 0 = off;#P inlet 101 24 15 0;#P window linecount 0;#P comment 469 103 100 196617 set the sensor number;#P connect 1 0 19 0;#P connect 19 0 2 0;#P connect 2 0 17 0;#P connect 14 0 9 0;#P lcolor 5;#P connect 17 0 9 0;#P connect 9 0 3 0;#P connect 14 0 10 0;#P lcolor 5;#P connect 2 1 10 0;#P connect 10 0 4 0;#P connect 7 0 6 0;#P connect 8 0 6 0;#P connect 4 0 6 0;#P connect 3 0 6 0;#P connect 5 0 20 0;#P fasten 20 0 11 0 229 242 264 242;#P fasten 16 0 11 0 293 242 264 242;#P connect 14 0 12 0;#P lcolor 5;#P connect 11 0 12 0;#P connect 12 0 7 0;#P connect 14 0 13 0;#P lcolor 5;#P connect 11 1 13 0;#P connect 13 0 8 0;#P fasten 5 0 16 0 229 104 293 104;#P fasten 17 1 16 0 126 121 293 121;#P connect 15 0 14 0;#P pop;#P newobj 451 182 38 196617 p chan;#N vpatcher 592 222 1292 775;#P origin -69 53;#P window setfont "Sans Serif" 9.;#P window linecount 3;#P comment 3 35 93 196617 only send a message if the value has changed;#P window linecount 2;#P comment 268 200 145 196617 only send a message if the value has changed;#P window linecount 1;#P newex 224 203 40 196617 change;#P newex 101 48 40 196617 change;#P window linecount 4;#P comment 4 101 90 196617 first bang the resolution through \, then turn on channel;#P window linecount 0;#P newex 101 98 30 196617 t b b;#P window linecount 1;#P newex 288 128 52 196617 value res;#N comlet channel number;#P inlet 459 29 15 0;#P window linecount 0;#P newex 459 82 62 196617 prepend set;#P window linecount 1;#P message 281 303 14 196617 7;#P message 259 303 14 196617 7;#P newex 259 278 55 196617 select 1 0;#P message 122 198 14 196617 7;#P message 101 154 14 196617 7;#P message 281 345 113 196617 \$1 res 1 \$1 max 1023;#P message 259 324 107 196617 \$1 res 0 \$1 max 127;#P outlet 138 387 15 0;#N comlet resolution (0 = high \, 1 = low);#P inlet 224 28 15 0;#P message 123 216 38 196617 \$1 off;#P message 101 171 105 196617 \$1 connect \$1 \$1 on;#P newex 101 73 55 196617 select 1 0;#N comlet 1 = on 0 = off;#P inlet 101 24 15 0;#P window linecount 0;#P comment 469 103 100 196617 set the sensor number;#P connect 1 0 19 0;#P connect 19 0 2 0;#P connect 2 0 17 0;#P connect 14 0 9 0;#P lcolor 5;#P connect 17 0 9 0;#P connect 9 0 3 0;#P connect 14 0 10 0;#P lcolor 5;#P connect 2 1 10 0;#P connect 10 0 4 0;#P connect 3 0 6 0;#P connect 4 0 6 0;#P connect 8 0 6 0;#P connect 7 0 6 0;#P connect 5 0 20 0;#P fasten 16 0 11 0 293 242 264 242;#P fasten 20 0 11 0 229 242 264 242;#P connect 14 0 12 0;#P lcolor 5;#P connect 11 0 12 0;#P connect 12 0 7 0;#P connect 11 1 13 0;#P connect 14 0 13 0;#P lcolor 5;#P connect 13 0 8 0;#P fasten 17 1 16 0 126 121 293 121;#P fasten 5 0 16 0 229 104 293 104;#P connect 15 0 14 0;#P pop;#P newobj 408 182 38 196617 p chan;#N vpatcher 592 222 1292 775;#P origin -69 53;#P window setfont "Sans Serif" 9.;#P window linecount 3;#P comment 3 35 93 196617 only send a message if the value has changed;#P window linecount 2;#P comment 268 200 145 196617 only send a message if the value has changed;#P window linecount 1;#P newex 224 203 40 196617 change;#P newex 101 48 40 196617 change;#P window linecount 4;#P comment 4 101 90 196617 first bang the resolution through \, then turn on channel;#P window linecount 0;#P newex 101 98 30 196617 t b b;#P window linecount 1;#P newex 288 128 52 196617 value res;#N comlet channel number;#P inlet 459 29 15 0;#P window linecount 0;#P newex 459 82 62 196617 prepend set;#P window linecount 1;#P message 281 303 14 196617 6;#P message 259 303 14 196617 6;#P newex 259 278 55 196617 select 1 0;#P message 122 198 14 196617 6;#P message 101 154 14 196617 6;#P message 281 345 113 196617 \$1 res 1 \$1 max 1023;#P message 259 324 107 196617 \$1 res 0 \$1 max 127;#P outlet 138 387 15 0;#N comlet resolution (0 = high \, 1 = low);#P inlet 224 28 15 0;#P message 123 216 38 196617 \$1 off;#P message 101 171 105 196617 \$1 connect \$1 \$1 on;#P newex 101 73 55 196617 select 1 0;#N comlet 1 = on 0 = off;#P inlet 101 24 15 0;#P window linecount 0;#P comment 469 103 100 196617 set the sensor number;#P connect 1 0 19 0;#P connect 19 0 2 0;#P connect 2 0 17 0;#P connect 14 0 9 0;#P lcolor 5;#P connect 17 0 9 0;#P connect 9 0 3 0;#P connect 14 0 10 0;#P lcolor 5;#P connect 2 1 10 0;#P connect 10 0 4 0;#P connect 7 0 6 0;#P connect 8 0 6 0;#P connect 4 0 6 0;#P connect 3 0 6 0;#P connect 5 0 20 0;#P fasten 20 0 11 0 229 242 264 242;#P fasten 16 0 11 0 293 242 264 242;#P connect 14 0 12 0;#P lcolor 5;#P connect 11 0 12 0;#P connect 12 0 7 0;#P connect 14 0 13 0;#P lcolor 5;#P connect 11 1 13 0;#P connect 13 0 8 0;#P fasten 5 0 16 0 229 104 293 104;#P fasten 17 1 16 0 126 121 293 121;#P connect 15 0 14 0;#P pop;#P newobj 366 182 38 196617 p chan;#N vpatcher 592 222 1292 775;#P origin -69 53;#P window setfont "Sans Serif" 9.;#P window linecount 3;#P comment 3 35 93 196617 only send a message if the value has changed;#P window linecount 2;#P comment 268 200 145 196617 only send a message if the value has changed;#P window linecount 1;#P newex 224 203 40 196617 change;#P newex 101 48 40 196617 change;#P window linecount 4;#P comment 4 101 90 196617 first bang the resolution through \, then turn on channel;#P window linecount 0;#P newex 101 98 30 196617 t b b;#P window linecount 1;#P newex 288 128 52 196617 value res;#N comlet channel number;#P inlet 459 29 15 0;#P window linecount 0;#P newex 459 82 62 196617 prepend set;#P window linecount 1;#P message 281 303 14 196617 5;#P message 259 303 14 196617 5;#P newex 259 278 55 196617 select 1 0;#P message 122 198 14 196617 5;#P message 101 154 14 196617 5;#P message 281 345 113 196617 \$1 res 1 \$1 max 1023;#P message 259 324 107 196617 \$1 res 0 \$1 max 127;#P outlet 138 387 15 0;#N comlet resolution (0 = high \, 1 = low);#P inlet 224 28 15 0;#P message 123 216 38 196617 \$1 off;#P message 101 171 105 196617 \$1 connect \$1 \$1 on;#P newex 101 73 55 196617 select 1 0;#N comlet 1 = on 0 = off;#P inlet 101 24 15 0;#P window linecount 0;#P comment 469 103 100 196617 set the sensor number;#P connect 1 0 19 0;#P connect 19 0 2 0;#P connect 2 0 17 0;#P connect 14 0 9 0;#P lcolor 5;#P connect 17 0 9 0;#P connect 9 0 3 0;#P connect 14 0 10 0;#P lcolor 5;#P connect 2 1 10 0;#P connect 10 0 4 0;#P connect 3 0 6 0;#P connect 4 0 6 0;#P connect 8 0 6 0;#P connect 7 0 6 0;#P connect 5 0 20 0;#P fasten 16 0 11 0 293 242 264 242;#P fasten 20 0 11 0 229 242 264 242;#P connect 14 0 12 0;#P lcolor 5;#P connect 11 0 12 0;#P connect 12 0 7 0;#P connect 11 1 13 0;#P connect 14 0 13 0;#P lcolor 5;#P connect 13 0 8 0;#P fasten 17 1 16 0 126 121 293 121;#P fasten 5 0 16 0 229 104 293 104;#P connect 15 0 14 0;#P pop;#P newobj 323 182 38 196617 p chan;#N vpatcher 592 222 1292 775;#P origin -69 53;#P window setfont "Sans Serif" 9.;#P window linecount 3;#P comment 3 35 93 196617 only send a message if the value has changed;#P window linecount 2;#P comment 268 200 145 196617 only send a message if the value has changed;#P window linecount 1;#P newex 224 203 40 196617 change;#P newex 101 48 40 196617 change;#P window linecount 4;#P comment 4 101 90 196617 first bang the resolution through \, then turn on channel;#P window linecount 0;#P newex 101 98 30 196617 t b b;#P window linecount 1;#P newex 288 128 52 196617 value res;#N comlet channel number;#P inlet 459 29 15 0;#P window linecount 0;#P newex 459 82 62 196617 prepend set;#P window linecount 1;#P message 281 303 14 196617 4;#P message 259 303 14 196617 4;#P newex 259 278 55 196617 select 1 0;#P message 122 198 14 196617 4;#P message 101 154 14 196617 4;#P message 281 345 113 196617 \$1 res 1 \$1 max 1023;#P message 259 324 107 196617 \$1 res 0 \$1 max 127;#P outlet 138 387 15 0;#N comlet resolution (0 = high \, 1 = low);#P inlet 224 28 15 0;#P message 123 216 38 196617 \$1 off;#P message 101 171 105 196617 \$1 connect \$1 \$1 on;#P newex 101 73 55 196617 select 1 0;#N comlet 1 = on 0 = off;#P inlet 101 24 15 0;#P window linecount 0;#P comment 469 103 100 196617 set the sensor number;#P connect 1 0 19 0;#P connect 19 0 2 0;#P connect 2 0 17 0;#P connect 14 0 9 0;#P lcolor 5;#P connect 17 0 9 0;#P connect 9 0 3 0;#P connect 14 0 10 0;#P lcolor 5;#P connect 2 1 10 0;#P connect 10 0 4 0;#P connect 7 0 6 0;#P connect 8 0 6 0;#P connect 4 0 6 0;#P connect 3 0 6 0;#P connect 5 0 20 0;#P fasten 20 0 11 0 229 242 264 242;#P fasten 16 0 11 0 293 242 264 242;#P connect 14 0 12 0;#P lcolor 5;#P connect 11 0 12 0;#P connect 12 0 7 0;#P connect 14 0 13 0;#P lcolor 5;#P connect 11 1 13 0;#P connect 13 0 8 0;#P fasten 5 0 16 0 229 104 293 104;#P fasten 17 1 16 0 126 121 293 121;#P connect 15 0 14 0;#P pop;#P newobj 281 182 38 196617 p chan;#N vpatcher 592 222 1292 775;#P origin -69 53;#P window setfont "Sans Serif" 9.;#P window linecount 3;#P comment 3 35 93 196617 only send a message if the value has changed;#P window linecount 2;#P comment 268 200 145 196617 only send a message if the value has changed;#P window linecount 1;#P newex 224 203 40 196617 change;#P newex 101 48 40 196617 change;#P window linecount 4;#P comment 4 101 90 196617 first bang the resolution through \, then turn on channel;#P window linecount 0;#P newex 101 98 30 196617 t b b;#P window linecount 1;#P newex 288 128 52 196617 value res;#N comlet channel number;#P inlet 459 29 15 0;#P window linecount 0;#P newex 459 82 62 196617 prepend set;#P window linecount 1;#P message 281 303 14 196617 3;#P message 259 303 14 196617 3;#P newex 259 278 55 196617 select 1 0;#P message 122 198 14 196617 3;#P message 101 154 14 196617 3;#P message 281 345 113 196617 \$1 res 1 \$1 max 1023;#P message 259 324 107 196617 \$1 res 0 \$1 max 127;#P outlet 138 387 15 0;#N comlet resolution (0 = high \, 1 = low);#P inlet 224 28 15 0;#P message 123 216 38 196617 \$1 off;#P message 101 171 105 196617 \$1 connect \$1 \$1 on;#P newex 101 73 55 196617 select 1 0;#N comlet 1 = on 0 = off;#P inlet 101 24 15 0;#P window linecount 0;#P comment 469 103 100 196617 set the sensor number;#P connect 1 0 19 0;#P connect 19 0 2 0;#P connect 2 0 17 0;#P connect 14 0 9 0;#P lcolor 5;#P connect 17 0 9 0;#P connect 9 0 3 0;#P connect 14 0 10 0;#P lcolor 5;#P connect 2 1 10 0;#P connect 10 0 4 0;#P connect 3 0 6 0;#P connect 4 0 6 0;#P connect 8 0 6 0;#P connect 7 0 6 0;#P connect 5 0 20 0;#P fasten 16 0 11 0 293 242 264 242;#P fasten 20 0 11 0 229 242 264 242;#P connect 14 0 12 0;#P lcolor 5;#P connect 11 0 12 0;#P connect 12 0 7 0;#P connect 11 1 13 0;#P connect 14 0 13 0;#P lcolor 5;#P connect 13 0 8 0;#P fasten 17 1 16 0 126 121 293 121;#P fasten 5 0 16 0 229 104 293 104;#P connect 15 0 14 0;#P pop;#P newobj 238 182 38 196617 p chan;#N vpatcher 365 151 1065 704;#P origin -69 53;#P window setfont "Sans Serif" 9.;#P window linecount 3;#P comment 3 35 93 196617 only send a message if the value has changed;#P window linecount 2;#P comment 268 200 145 196617 only send a message if the value has changed;#P window linecount 1;#P newex 224 203 40 196617 change;#P newex 101 48 40 196617 change;#P window linecount 4;#P comment 4 101 90 196617 first bang the resolution through \, then turn on channel;#P window linecount 0;#P newex 101 98 30 196617 t b b;#P window linecount 1;#P newex 288 128 52 196617 value res;#N comlet channel number;#P inlet 459 29 15 0;#P window linecount 0;#P newex 459 82 62 196617 prepend set;#P window linecount 1;#P message 281 303 14 196617 1;#P message 259 303 14 196617 1;#P newex 259 278 55 196617 select 1 0;#P message 122 198 14 196617 1;#P message 101 154 14 196617 1;#P message 281 345 113 196617 \$1 res 1 \$1 max 1023;#P message 259 324 107 196617 \$1 res 0 \$1 max 127;#P outlet 138 387 15 0;#N comlet resolution (0 = high \, 1 = low);#P inlet 224 28 15 0;#P message 123 216 38 196617 \$1 off;#P message 101 171 105 196617 \$1 connect \$1 \$1 on;#P newex 101 73 55 196617 select 1 0;#N comlet 1 = on 0 = off;#P inlet 101 24 15 0;#P window linecount 0;#P comment 469 103 100 196617 set the sensor number;#P connect 1 0 19 0;#P connect 19 0 2 0;#P connect 2 0 17 0;#P connect 14 0 9 0;#P lcolor 5;#P connect 17 0 9 0;#P connect 9 0 3 0;#P connect 14 0 10 0;#P lcolor 5;#P connect 2 1 10 0;#P connect 10 0 4 0;#P connect 3 0 6 0;#P connect 4 0 6 0;#P connect 8 0 6 0;#P connect 7 0 6 0;#P connect 5 0 20 0;#P fasten 16 0 11 0 293 242 264 242;#P fasten 20 0 11 0 229 242 264 242;#P connect 14 0 12 0;#P lcolor 5;#P connect 11 0 12 0;#P connect 12 0 7 0;#P connect 11 1 13 0;#P connect 14 0 13 0;#P lcolor 5;#P connect 13 0 8 0;#P fasten 17 1 16 0 126 121 293 121;#P fasten 5 0 16 0 229 104 293 104;#P connect 15 0 14 0;#P pop;#P newobj 144 182 38 196617 p chan;#P message 172 158 14 196617 1;#P message 479 158 14 196617 8;#P message 436 158 14 196617 7;#P message 394 158 14 196617 6;#P message 351 158 14 196617 5;#P message 309 158 14 196617 4;#P message 224 158 14 196617 2;#N vpatcher 365 151 1065 704;#P origin -69 53;#P window setfont "Sans Serif" 9.;#P window linecount 3;#P comment 3 35 93 196617 only send a message if the value has changed;#P window linecount 2;#P comment 268 200 145 196617 only send a message if the value has changed;#P window linecount 1;#P newex 224 203 40 196617 change;#P newex 101 48 40 196617 change;#P window linecount 4;#P comment 4 101 90 196617 first bang the resolution through \, then turn on channel;#P window linecount 0;#P newex 101 98 30 196617 t b b;#P window linecount 1;#P newex 288 128 52 196617 value res;#N comlet channel number;#P inlet 459 29 15 0;#P window linecount 0;#P newex 459 82 62 196617 prepend set;#P window linecount 1;#P message 281 303 14 196617 2;#P message 259 303 14 196617 2;#P newex 259 278 55 196617 select 1 0;#P message 122 198 14 196617 2;#P message 101 154 14 196617 2;#P message 281 345 113 196617 \$1 res 1 \$1 max 1023;#P message 259 324 107 196617 \$1 res 0 \$1 max 127;#P outlet 138 387 15 0;#N comlet resolution (0 = high \, 1 = low);#P inlet 224 28 15 0;#P message 123 216 38 196617 \$1 off;#P message 101 171 105 196617 \$1 connect \$1 \$1 on;#P newex 101 73 55 196617 select 1 0;#N comlet 1 = on 0 = off;#P inlet 101 24 15 0;#P window linecount 0;#P comment 469 103 100 196617 set the sensor number;#P connect 1 0 19 0;#P connect 19 0 2 0;#P connect 2 0 17 0;#P connect 14 0 9 0;#P lcolor 5;#P connect 17 0 9 0;#P connect 9 0 3 0;#P connect 14 0 10 0;#P lcolor 5;#P connect 2 1 10 0;#P connect 10 0 4 0;#P connect 7 0 6 0;#P connect 8 0 6 0;#P connect 4 0 6 0;#P connect 3 0 6 0;#P connect 5 0 20 0;#P fasten 20 0 11 0 229 242 264 242;#P fasten 16 0 11 0 293 242 264 242;#P connect 14 0 12 0;#P lcolor 5;#P connect 11 0 12 0;#P connect 12 0 7 0;#P connect 14 0 13 0;#P lcolor 5;#P connect 11 1 13 0;#P connect 13 0 8 0;#P fasten 5 0 16 0 229 104 293 104;#P fasten 17 1 16 0 126 121 293 121;#P connect 15 0 14 0;#P pop;#P newobj 196 182 38 196617 p chan;#P newex 500 107 48 196617 loadbang;#N comlet out to icube object;#P outlet 626 519 15 0;#N comlet list of [onnoff \, res] both 0 or 1;#P inlet 161 27 15 0;#P newex 161 57 331 196617 unpack 0 0 0 0 0 0 0 0 0 0 0 0 0 0 0 0;#P message 266 158 14 196617 3;#P connect 1 0 20 0;#P connect 1 2 20 1;#P connect 20 0 29 0;#P connect 21 0 23 0;#P fasten 29 0 21 0 61 484;#P connect 1 4 20 2;#P connect 1 6 20 3;#P connect 1 8 20 4;#P connect 21 1 24 0;#P connect 1 10 20 5;#P connect 28 0 22 0;#P connect 27 0 22 0;#P connect 24 0 22 0;#P connect 23 0 22 0;#P connect 1 12 20 6;#P connect 26 0 27 0;#P connect 25 0 30 0;#P connect 30 0 26 0;#P connect 1 14 20 7;#P connect 1 0 13 0;#P connect 1 1 13 1;#P connect 2 0 1 0;#P connect 26 1 28 0;#P connect 1 1 25 0;#P connect 4 0 12 0;#P connect 12 0 13 2;#P connect 1 3 25 1;#P connect 1 5 25 2;#P connect 1 2 5 0;#P connect 1 7 25 3;#P connect 1 3 5 1;#P connect 1 9 25 4;#P connect 4 0 6 0;#P connect 6 0 5 2;#P connect 1 11 25 5;#P connect 1 4 14 0;#P connect 1 13 25 6;#P connect 1 5 14 1;#P connect 1 15 25 7;#P connect 4 0 0 0;#P connect 0 0 14 2;#P connect 1 6 15 0;#P connect 1 7 15 1;#P connect 4 0 7 0;#P connect 7 0 15 2;#P connect 1 8 16 0;#P connect 1 9 16 1;#P connect 4 0 8 0;#P connect 8 0 16 2;#P connect 1 10 17 0;#P connect 1 11 17 1;#P connect 4 0 9 0;#P connect 9 0 17 2;#P connect 1 12 18 0;#P connect 1 13 18 1;#P connect 4 0 10 0;#P connect 10 0 18 2;#P fasten 1 14 19 0 456 179;#P connect 1 15 19 1;#P connect 4 0 11 0;#P connect 11 0 19 2;#P connect 19 0 3 0;#P connect 18 0 3 0;#P connect 17 0 3 0;#P connect 16 0 3 0;#P connect 15 0 3 0;#P connect 14 0 3 0;#P connect 13 0 3 0;#P connect 5 0 3 0;#P pop;#P hidden newobj 780 330 104 196617 p message generator;#P objectname "message generator";#N vpatcher 231 232 1193 811;#P origin 18 20;#P window setfont "Sans Serif" 9.;#P newex 239 386 29 196617 gate;#P newex 185 110 29 196617 gate;#N vpatcher 565 280 1165 680;#P window setfont "Sans Serif" 9.;#P newex 121 105 61 196617 zl group 13;#P newex 137 80 65 196617 select 240;#P inlet 123 33 15 0;#P outlet 121 230 16 0;#P connect 1 0 3 0;#P connect 2 0 3 0;#P connect 3 0 0 0;#P connect 1 0 2 0;#P pop;#P newobj 269 357 68 196617 p i2c_parser;#N comlet i2c messages;#P inlet 204 48 15 0;#N comlet serial port output;#P outlet 257 423 15 0;#N comlet list of raw data from device (max 13 values);#P outlet 239 423 15 0;#P message 404 223 14 196617 1;#P message 388 223 14 196617 0;#P newex 407 246 29 196617 gate;#N comlet port list;#P outlet 473 423 15 0;#P newex 664 99 112 196617 unpack 0 0 0 0 0 0 0 0;#P message 642 192 14 196617 1;#P message 626 192 14 196617 0;#P message 248 229 14 196617 2;#P message 230 229 14 196617 1;#P newex 227 140 64 196617 select 0 1 2;#P newex 271 258 38 196617 gate 2;#N vpatcher 620 392 1220 792;#P window setfont "Sans Serif" 9.;#P newex 65 244 37 196617 midiin;#P newex 63 119 43 196617 midiout;#N comlet to midiin object;#P inlet 134 86 15 0;#N comlet from midiin;#P outlet 65 278 15 0;#N comlet to midiout object;#P inlet 63 86 15 0;#P connect 0 0 3 0;#P connect 2 0 4 0;#P connect 4 0 1 0;#P pop;#P newobj 271 284 70 196617 p MIDI_comm;#N vpatcher 270 77 1540 909;#P origin 0 29;#P button 145 169 15 0;#P window setfont "Sans Serif" 9.;#P window linecount 1;#P message 134 93 14 196617 1;#N vpatcher 15 55 969 724;#P button 528 224 15 0;#P window setfont "Sans Serif" 9.;#P number 511 341 35 9 0 0 0 3 0 0 0 221 221 221 222 222 222 0 0 0;#P window linecount 0;#P message 312 565 28 196617 clear;#P window linecount 1;#P newex 354 507 27 196617 t l b;#N vpatcher 382 360 982 760;#P window setfont "Sans Serif" 9.;#P newex 136 96 20 196617 t b;#P message 140 119 14 196617 1;#P newex 109 152 20 196617 t b;#P message 133 152 14 196617 0;#P newex 174 153 29 196617 gate;#P outlet 171 249 15 0;#N comlet incoming data;#P inlet 213 73 15 0;#N comlet bang to enable single message thru;#P inlet 134 59 15 0;#P connect 3 0 5 0;#P connect 5 0 4 0;#P connect 0 0 7 0;#P connect 7 0 6 0;#P connect 3 0 2 0;#P connect 6 0 3 0;#P connect 4 0 3 0;#P connect 1 0 3 1;#P pop;#P newobj 319 536 53 196617 p onetime;#P window linecount 0;#P newex 455 506 27 196617 t l b;#P message 269 348 86 196617 "No ports found";#P newex 268 369 74 196617 prepend append;#P window linecount 1;#N vpatcher 382 360 982 760;#P window setfont "Sans Serif" 9.;#P newex 136 96 20 196617 t b;#P message 140 119 14 196617 1;#P newex 109 152 20 196617 t b;#P message 133 152 14 196617 0;#P newex 174 153 29 196617 gate;#P outlet 171 249 15 0;#N comlet incoming data;#P inlet 213 73 15 0;#N comlet bang to enable single message thru;#P inlet 134 59 15 0;#P connect 3 0 5 0;#P connect 5 0 4 0;#P connect 0 0 7 0;#P connect 7 0 6 0;#P connect 3 0 2 0;#P connect 4 0 3 0;#P connect 6 0 3 0;#P connect 1 0 3 1;#P pop;#P newobj 441 535 53 196617 p onetime;#P newex 356 409 27 196617 t s s;#N vpatcher 382 360 982 760;#P window setfont "Sans Serif" 9.;#P newex 136 96 20 196617 t b;#P message 140 119 14 196617 1;#P newex 109 152 20 196617 t b;#P message 133 152 14 196617 0;#P newex 174 153 29 196617 gate;#P outlet 171 249 15 0;#N comlet incoming data;#P inlet 213 73 15 0;#N comlet bang to enable single message thru;#P inlet 134 59 15 0;#P connect 3 0 5 0;#P connect 5 0 4 0;#P connect 0 0 7 0;#P connect 7 0 6 0;#P connect 3 0 2 0;#P connect 4 0 3 0;#P connect 6 0 3 0;#P connect 1 0 3 1;#P pop;#P newobj 355 462 53 196617 p onetime;#P newex 356 434 86 196617 regexp I-CubeX;#P newex 355 484 74 196617 prepend append;#P newex 455 408 27 196617 t s s;#N vpatcher 382 360 982 760;#P window setfont "Sans Serif" 9.;#P newex 136 96 20 196617 t b;#P message 140 119 14 196617 1;#P newex 109 152 20 196617 t b;#P message 133 152 14 196617 0;#P newex 174 153 29 196617 gate;#P outlet 171 249 15 0;#N comlet incoming data;#P inlet 213 73 15 0;#N comlet bang to enable single message thru;#P inlet 134 59 15 0;#P connect 3 0 5 0;#P connect 5 0 4 0;#P connect 0 0 7 0;#P connect 7 0 6 0;#P connect 3 0 2 0;#P connect 6 0 3 0;#P connect 4 0 3 0;#P connect 1 0 3 1;#P pop;#P newobj 454 461 53 196617 p onetime;#P newex 455 433 76 196617 regexp SLAB;#P newex 454 483 74 196617 prepend append;#P newex 419 325 34 196617 gate 2;#P newex 443 300 109 196617 pv interface_number;#P newex 426 276 27 196617 t l b;#P message 186 348 28 196617 clear;#P newex 186 251 53 196617 t l b b b;#P newex 180 227 68 196617 route port;#P newex 177 279 54 196617 zl iter 1;#N comlet to umenu;#P outlet 220 589 15 0;#N comlet from serial object port outlet;#P inlet 164 102 15 0;#P connect 4 0 2 0;#P connect 0 0 3 0;#P connect 3 0 4 0;#P connect 4 2 5 0;#P connect 5 0 1 0;#P connect 18 0 1 0;#P connect 23 0 1 0;#P connect 22 0 1 0;#P connect 20 0 1 0;#P connect 19 0 18 0;#P connect 4 1 19 0;#P connect 21 0 23 0;#P connect 17 0 23 0;#P connect 4 3 21 0;#P connect 13 0 22 0;#P connect 14 2 15 0;#P connect 15 0 13 0;#P connect 8 0 16 0;#P connect 16 1 14 0;#P connect 22 1 21 1;#P connect 16 0 15 1;#P connect 7 0 8 0;#P connect 2 0 6 0;#P connect 4 3 17 0;#P connect 25 0 7 0;#P connect 6 1 7 0;#P connect 6 0 8 1;#P connect 10 2 11 0;#P connect 11 0 9 0;#P connect 8 1 12 0;#P connect 12 1 10 0;#P connect 9 0 20 0;#P connect 20 1 17 1;#P connect 12 0 11 1;#P connect 7 0 24 0;#P pop;#P newobj 182 249 109 196617 p generate_port_list;#P message 202 108 14 196617 1;#P message 222 153 43 196617 print;#N comlet port message;#P outlet 181 446 15 0;#P newex 135 65 48 196617 loadbang;#P toggle 134 110 15 0;#P newex 144 131 52 196617 metro 10;#P newex 108 188 83 196617 serial z 115200;#N comlet serial polling interval (ms);#P inlet 180 60 15 0;#N comlet to serial object;#P inlet 108 58 15 0;#N comlet from serial object;#P outlet 107 451 15 0;#P window linecount 2;#P comment 289 159 100 196617 generate port list for pulldown menu;#P connect 4 0 1 0;#P connect 5 0 4 0;#P connect 2 0 4 0;#P connect 9 0 4 0;#P connect 7 0 12 0;#P connect 12 0 6 0;#P connect 6 0 5 0;#P connect 5 0 13 0;#P connect 11 0 8 0;#P connect 4 1 11 0;#P connect 10 0 5 1;#P connect 3 0 5 1;#P connect 7 0 10 0;#P connect 7 0 9 0;#P pop;#P newobj 407 285 76 196617 p serial_comm;#N vpatcher 459 307 1059 707;#P window setfont "Sans Serif" 9.;#P window linecount 2;#P comment 304 106 212 196617 (due to fact that icube does not allow for values < 4 \, but hardware does);#P comment 97 86 212 196617 for values less than 4 \, generate messages \, otherwise \, send to icube object;#P window linecount 1;#P message 66 137 70 196617 0 interval \$1;#P newex 65 114 154 196617 if $i1 > 3 then $i1 else out2 $i1;#P message 209 137 108 196617 240 125 0 3 0 \$1 247;#N comlet direct MIDI msg to interface (via serial or MIDI obj);#P outlet 181 214 15 0;#N comlet to icube object;#P outlet 73 214 15 0;#N comlet interval (ms);#P inlet 65 61 15 0;#P connect 0 0 4 0;#P connect 4 0 5 0;#P connect 5 0 1 0;#P connect 3 0 2 0;#P connect 4 1 3 0;#P pop;#P newobj 71 152 99 196617 p interval_msg_gen;#P newex 256 324 40 196617 switch;#P newex 645 213 29 196617 gate;#N comlet interface number (0-2);#P inlet 227 48 15 0;#N comlet messages to midiin object;#P inlet 331 48 15 0;#N comlet messages to midiout object;#P inlet 271 48 15 0;#P newex 42 175 54 196617 prepend 0;#P newex 42 72 99 196617 route 0 interval i2c;#N comlet messages to icube object;#P inlet 42 48 15 0;#P outlet 196 422 15 0;#P outlet 176 422 15 0;#P outlet 158 422 15 0;#P outlet 138 422 15 0;#P outlet 120 422 15 0;#P outlet 100 422 15 0;#P outlet 82 422 15 0;#P outlet 62 422 15 0;#N comlet messages to serial object;#P inlet 425 48 15 0;#N comlet list of outputs (on/off);#P inlet 664 48 15 0;#N vpatcher 20 74 721 564;#P origin 16 0;#P window setfont "Sans Serif" 9.;#P window linecount 1;#P newex 382 108 40 196617 change;#P newex 337 108 40 196617 change;#P newex 293 108 40 196617 change;#P newex 249 108 40 196617 change;#P newex 205 108 40 196617 change;#P newex 161 108 40 196617 change;#P newex 117 108 40 196617 change;#P window linecount 0;#P newex 73 108 40 196617 change;#N comlet output messages;#P outlet 193 418 15 0;#P newex 169 272 18 196617 t i;#P newex 218 272 18 196617 t i;#P number 193 361 83 9 0 0 0 3 0 0 0 221 221 221 222 222 222 0 0 0;#P window linecount 1;#P newex 193 340 27 196617 |;#P newex 191 319 29 196617 << 6;#P message 193 381 109 196617 240 125 0 48 \$1 247;#P message 398 156 14 196617 7;#P newex 381 132 27 196617 t i b;#P inlet 382 63 15 0;#P message 354 156 14 196617 6;#P newex 337 132 27 196617 t i b;#P inlet 337 63 15 0;#P message 310 156 14 196617 5;#P newex 293 132 27 196617 t i b;#P inlet 293 63 15 0;#P message 266 156 14 196617 4;#P newex 249 132 27 196617 t i b;#P inlet 249 63 15 0;#P message 222 156 13 196617 3;#P newex 205 132 27 196617 t i b;#P inlet 205 63 15 0;#P message 178 156 14 196617 2;#P newex 161 132 27 196617 t i b;#P inlet 161 63 15 0;#P message 136 156 14 196617 1;#P newex 117 132 27 196617 t i b;#P inlet 117 63 15 0;#P window linecount 0;#P message 90 156 14 196617 0;#P newex 73 132 27 196617 t i b;#P inlet 73 63 15 0;#P connect 0 0 31 0;#P connect 31 0 1 0;#P connect 1 1 2 0;#P connect 3 0 32 0;#P connect 32 0 4 0;#P connect 4 1 5 0;#P connect 6 0 33 0;#P connect 33 0 7 0;#P connect 22 0 29 0;#P connect 19 0 29 0;#P connect 16 0 29 0;#P connect 13 0 29 0;#P connect 10 0 29 0;#P connect 7 0 29 0;#P connect 4 0 29 0;#P connect 1 0 29 0;#P connect 7 1 8 0;#P connect 29 0 25 0;#P connect 25 0 26 0;#P connect 26 0 27 0;#P connect 27 0 24 0;#P connect 24 0 30 0;#P connect 9 0 34 0;#P connect 34 0 10 0;#P connect 28 0 26 1;#P connect 2 0 28 0;#P connect 5 0 28 0;#P connect 8 0 28 0;#P connect 11 0 28 0;#P connect 14 0 28 0;#P connect 17 0 28 0;#P connect 20 0 28 0;#P connect 23 0 28 0;#P connect 10 1 11 0;#P connect 12 0 35 0;#P connect 35 0 13 0;#P connect 13 1 14 0;#P connect 15 0 36 0;#P connect 36 0 16 0;#P connect 16 1 17 0;#P connect 18 0 37 0;#P connect 37 0 19 0;#P connect 19 1 20 0;#P connect 38 0 22 0;#P connect 21 0 38 0;#P connect 22 1 23 0;#P pop;#P newobj 664 128 130 196617 p outputs;#P newex 65 376 131 196617 icube 8;#P connect 12 0 13 0;#P connect 13 0 14 0;#P connect 0 0 4 0;#P fasten 20 0 0 0 76 284 70 284;#P fasten 13 3 0 0 134 284 70 284;#P fasten 14 0 0 0 47 284 70 284;#P connect 13 1 20 0;#P connect 0 1 5 0;#P connect 0 2 6 0;#P connect 0 3 7 0;#P connect 0 4 8 0;#P connect 0 5 9 0;#P connect 0 6 10 0;#P fasten 13 2 38 0 105 94 190 94;#P fasten 19 0 0 1 261 346 191 346;#P connect 0 7 11 0;#P connect 36 0 38 1;#P connect 17 0 24 0;#P fasten 24 0 25 0 232 197 235 197;#P lcolor 3;#P fasten 13 2 39 0 105 365 244 365;#P connect 39 0 34 0;#P fasten 24 2 26 0 268 222 253 222;#P lcolor 3;#P fasten 24 1 26 0 250 193 253 193;#P lcolor 3;#P fasten 26 0 19 0 253 284 261 284;#P fasten 25 0 19 0 235 284 261 284;#P connect 19 0 35 0;#P fasten 37 0 39 1 274 380 263 380;#P fasten 19 0 37 0 261 349 274 349;#P connect 25 0 23 0;#P connect 26 0 23 0;#P connect 23 0 22 0;#P connect 15 0 22 0;#P connect 22 0 19 1;#P fasten 21 0 19 2 412 313 291 313;#P connect 38 0 23 1;#P fasten 0 9 23 1 187 401 228 401 228 211 304 211;#P fasten 20 1 23 1 165 210 304 210;#P connect 16 0 22 1;#P fasten 24 0 32 0 232 198 393 198;#P lcolor 3;#P fasten 24 2 33 0 268 198 409 198;#P lcolor 3;#P fasten 24 1 33 0 250 198 409 198;#P lcolor 3;#P connect 33 0 31 0;#P connect 32 0 31 0;#P fasten 23 1 21 0 304 281 412 281;#P fasten 18 0 21 0 650 271 412 271;#P connect 31 0 21 0;#P connect 3 0 31 1;#P fasten 13 1 21 1 76 100 478 100;#P connect 21 1 30 0;#P fasten 24 0 27 0 232 174 631 174;#P lcolor 3;#P fasten 24 1 27 0 250 172 631 172;#P lcolor 3;#P fasten 24 2 28 0 268 173 647 173;#P lcolor 3;#P connect 28 0 18 0;#P connect 27 0 18 0;#P connect 2 0 29 0;#P connect 29 0 1 0;#P connect 1 0 18 1;#P connect 29 1 1 1;#P connect 29 2 1 2;#P connect 29 3 1 3;#P connect 29 4 1 4;#P connect 29 5 1 5;#P connect 29 6 1 6;#P connect 29 7 1 7;#P pop;#P hidden newobj 909 240 258 196617 p icube_communication;#P objectname icube_communication;#P comment 94 240 69 196617 High (10-bit);#P comment 29 293 123 196617 sampling interval (ms);#P hidden comment 30 130 27 196617 port;#P objectname ser_lb1;#P comment 74 222 51 196617 Resolution;#P window setfont "Sans Serif" 14.;#P comment 28 198 194 196622 Data from Analog Sensors;#P window setfont "Sans Serif" 24.;#P comment 17 22 352 196632 I-CubeX digitizer plugin v1.02;#P window setfont "Sans Serif" 9.;#P message 85 163 71 196617 refresh ports;#P objectname refresh_but;#P window linecount 0;#P comment 17 317 100 196617;#P user umenu 85 139 137 196647 1 64 155 0;#X setrgb 0 0 0 187 187 187 255 255 255 221 221 221 170 170 170 119 119 119 187 187 187;#X add "AU DLS Synth 1";#X add "to MaxMSP 1";#X add "to MaxMSP 2";#X add "from MaxMSP 1";#X add "from MaxMSP 2";#P objectname midiout_menu;#P window linecount 1;#P comment 30 121 46 196617 MIDI in;#P objectname midi_lb1;#P comment 29 90 43 196617 digitizer;#P window linecount 2;#P comment 236 123 100 196617 Both ports must be selected each time;#P objectname midi_note;#P window linecount 0;#P comment 0 171 17 196617;#P comment 383 69 100 196617;#P user panel 17 194 751 123;#X brgb 208 238 239;#X frgb 0 0 0;#X border 0;#X rounded 30;#X shadow 0;#X done;#P background;#P hidden user panel 200 326 569 76;#X brgb 255 250 157;#X frgb 0 0 0;#X border 0;#X rounded 30;#X shadow 0;#X done;#P background;#P objectname out_pan;#P user panel 18 62 325 122;#X brgb 242 222 222;#X frgb 0 0 0;#X border 0;#X rounded 30;#X shadow 0;#X done;#P background;#P hidden fasten 102 0 132 0 91 116 25 116;#P hidden connect 132 0 133 0;#P hidden connect 64 0 107 0;#P hidden connect 65 2 64 0;#P hidden connect 129 0 114 0;#P hidden connect 115 1 111 0;#P hidden connect 115 0 111 0;#P hidden connect 111 0 110 0;#P hidden connect 110 0 160 0;#P hidden connect 114 0 115 0;#P hidden connect 146 0 143 0;#P hidden connect 123 0 143 0;#P hidden connect 154 0 123 0;#P hidden connect 65 3 62 0;#P hidden connect 62 0 106 0;#P hidden fasten 93 0 94 0 742 320 88 320;#P lcolor 7;#P hidden connect 133 0 10 0;#P hidden connect 114 0 141 0;#P hidden connect 65 1 61 0;#P hidden connect 61 0 130 0;#P hidden connect 155 0 151 0;#P hidden fasten 17 0 51 0 914 273 207 273;#P hidden connect 129 0 139 0;#P hidden fasten 98 1 65 0 438 198 211 198;#P hidden fasten 92 3 65 0 654 197 211 197;#P hidden connect 65 4 21 0;#P hidden fasten 94 0 67 0 88 360 211 360;#P lcolor 8;#P hidden fasten 60 1 163 0 178 170 237 170;#P hidden fasten 100 1 163 1 217 169 247 169;#P hidden connect 65 5 20 0;#P hidden connect 154 0 162 0;#P hidden connect 162 0 161 0;#P hidden fasten 8 1 163 2 217 170 257 170;#P hidden fasten 10 0 163 3 179 189 179 169 267 169;#P hidden connect 154 0 142 0;#P hidden fasten 17 1 53 0 938 273 278 273;#P hidden connect 65 6 25 0;#P hidden fasten 94 1 68 0 102 360 281 360;#P lcolor 8;#P hidden fasten 127 0 164 0 166 175 287 175;#P hidden connect 107 0 65 1;#P hidden fasten 108 0 65 1 443 199 304 199;#P hidden connect 65 7 24 0;#P hidden fasten 17 2 54 0 962 273 347 273;#P hidden connect 65 8 29 0;#P hidden fasten 94 2 69 0 116 360 349 360;#P lcolor 8;#P hidden fasten 102 0 116 0 91 115 377 115;#P hidden connect 116 0 98 0;#P hidden connect 98 0 97 0;#P hidden connect 65 9 28 0;#P hidden connect 167 1 165 0;#P hidden connect 106 0 65 2;#P hidden connect 92 0 65 2;#P hidden fasten 17 3 55 0 986 273 416 273;#P hidden connect 65 10 33 0;#P hidden fasten 94 3 70 0 130 360 419 360;#P lcolor 8;#P hidden connect 83 0 108 0;#P hidden connect 65 11 32 0;#P hidden connect 84 0 108 1;#P hidden fasten 17 4 56 0 1010 273 486 273;#P hidden connect 85 0 108 2;#P hidden connect 65 12 37 0;#P hidden fasten 94 4 71 0 144 360 488 360;#P lcolor 8;#P hidden connect 86 0 108 3;#P hidden fasten 112 0 134 0 1119 425 518 425;#P hidden connect 134 0 52 0;#P hidden connect 52 0 101 0;#P hidden connect 99 0 92 0;#P hidden fasten 91 0 92 0 762 141 525 141;#P hidden connect 65 13 36 0;#P hidden connect 128 0 99 0;#P hidden connect 87 0 108 4;#P hidden connect 88 0 108 5;#P hidden fasten 17 5 57 0 1034 273 556 273;#P hidden connect 65 14 41 0;#P hidden fasten 94 5 72 0 158 360 558 360;#P lcolor 8;#P hidden connect 149 0 135 0;#P hidden fasten 101 0 135 0 519 592 569 592;#P hidden connect 156 0 157 0;#P hidden connect 122 0 120 0;#P hidden connect 122 1 120 0;#P hidden connect 125 0 121 0;#P hidden connect 121 0 122 0;#P hidden connect 120 0 156 0;#P hidden connect 89 0 108 6;#P hidden connect 120 0 149 0;#P hidden fasten 92 1 145 0 568 165 582 165;#P hidden connect 18 0 65 4;#P hidden connect 65 15 40 0;#P hidden connect 90 0 108 7;#P hidden fasten 17 6 58 0 1058 273 624 273;#P hidden connect 65 16 45 0;#P hidden fasten 94 6 73 0 172 360 626 360;#P lcolor 8;#P hidden connect 65 17 44 0;#P hidden fasten 52 0 148 1 519 502 671 502;#P hidden fasten 17 7 59 0 1082 273 692 273;#P hidden connect 65 18 49 0;#P hidden fasten 94 7 74 0 186 360 696 360;#P lcolor 8;#P hidden connect 92 4 166 0;#P hidden fasten 67 0 104 0 211 395 722 395;#P hidden connect 65 19 48 0;#P hidden fasten 68 0 104 1 281 395 735 395;#P hidden connect 125 0 137 0;#P hidden fasten 69 0 104 2 349 395 748 395;#P hidden fasten 70 0 104 3 419 395 761 395;#P hidden fasten 71 0 104 4 488 395 774 395;#P hidden fasten 21 0 105 0 211 284 785 284;#P hidden connect 105 0 18 0;#P hidden fasten 72 0 104 5 558 395 787 395;#P hidden fasten 20 0 105 1 248 283 790 283;#P hidden fasten 25 0 105 2 281 284 795 284;#P hidden fasten 24 0 105 3 318 282 800 282;#P hidden fasten 73 0 104 6 626 395 800 395;#P hidden fasten 29 0 105 4 349 284 805 284;#P hidden fasten 28 0 105 5 386 282 810 282;#P hidden fasten 74 0 104 7 696 395 813 395;#P hidden fasten 33 0 105 6 419 283 815 283;#P hidden fasten 32 0 105 7 456 282 820 282;#P hidden fasten 37 0 105 8 488 283 825 283;#P hidden connect 118 0 119 0;#P hidden connect 119 1 117 0;#P hidden connect 119 0 117 0;#P hidden connect 117 0 159 0;#P hidden connect 159 0 158 0;#P hidden connect 124 0 118 0;#P hidden fasten 36 0 105 9 525 281 830 281;#P hidden fasten 41 0 105 10 558 282 835 282;#P hidden fasten 40 0 105 11 595 281 840 281;#P hidden fasten 45 0 105 12 626 282 845 282;#P hidden fasten 117 0 150 0 826 565 845 565;#P hidden connect 150 0 136 0;#P hidden fasten 148 0 136 0 636 528 845 528;#P hidden fasten 44 0 105 13 663 281 850 281;#P hidden fasten 49 0 105 14 696 282 855 282;#P hidden fasten 48 0 105 15 733 280 860 280;#P hidden fasten 99 0 131 0 526 188 914 188;#P hidden connect 131 0 17 0;#P hidden connect 18 1 17 0;#P hidden connect 130 0 17 0;#P hidden connect 17 0 75 0;#P hidden connect 17 1 76 0;#P hidden connect 152 0 17 1;#P hidden connect 17 2 77 0;#P hidden connect 17 3 78 0;#P hidden connect 131 1 17 2;#P hidden connect 17 4 79 0;#P hidden connect 124 0 140 0;#P hidden connect 17 5 80 0;#P hidden connect 131 2 17 3;#P hidden connect 17 6 81 0;#P hidden connect 131 3 17 4;#P hidden connect 17 7 82 0;#P hidden connect 17 8 153 0;#P hidden connect 112 0 113 0;#P hidden connect 113 0 17 5;#P hidden connect 131 4 17 5;#P hidden connect 131 5 138 1;#P hidden connect 17 10 144 0;#P hidden connect 104 0 17 6;#P hidden connect 17 9 131 1;#P hidden connect 131 6 138 2;#P hidden connect 131 5 147 0;#P hidden fasten 131 5 169 0 1129 288 1195 288;#P hidden connect 169 0 168 0;#P pop;