max v2;#N vpatcher 21 96 1010 739;#P origin -20 0;#P comment 586 32 213 196626 pixelweight;#P comment 801 32 143 196617 Yoichiro Serita © 2003 Topological Media Lab;#P button 303 589 15 0;#P newex 488 335 30 196617 s pw;#P newex 208 189 45 196617 r ahoaho;#P comment 297 118 84 196617 with live cam;#P comment 297 94 86 196617 diffusion;#P comment 297 70 83 196617 smoke/ripple2;#N vpreset 1;#X append 1 2 19 94 53 toggle int 1 \; 20 499 578 number int 1 \; 22 94 98 number int 30 \; 23 118 429 flonum float 0.8 \; 24 118 500 flonum float 0.05 \; 25 118 653 flonum float;#X append 1 2 -0.72 \; 26 118 569 flonum float 10. \; 33 543 229 toggle int 1 \; 37 226 489 flonum float 0.445519 \; 38 226 533 flonum float -1.03666 \; 39 226 577 flonum float 0.397785 \; 43 254 577;#X append 1 2 flonum float 0.36 \; 44 254 621 flonum float 0.397785 \; 45 254 665 flonum float 0.36 \; 46 254 709 flonum float 0.397785 \; 56 393 532 number int 0 \; 64 338 316 flonum float 0.85 \; 65 338 244;#X append 1 2 flonum float 0.5 \; 66 338 379 flonum float 0.11 \; 72 481 184 gswitch int 1 \;;#P preset 228 118 56 17;#N vpreset 4;#X append 1 2 19 94 53 toggle int 1 \; 20 499 578 number int 5 \; 22 94 98 number int 30 \; 23 118 429 flonum float 0.26 \; 24 118 500 flonum float -0.02 \; 25 118 653 flonum float;#X append 1 2 -0.5 \; 26 118 569 flonum float 8.89 \; 33 543 229 toggle int 1 \; 37 226 489 flonum float 0. \; 38 226 533 flonum float 0. \; 39 226 577 flonum float 0.25 \; 43 254 577;#X append 1 2 flonum float 0.25 \; 44 254 621 flonum float 0.25 \; 45 254 665 flonum float 0.25 \; 46 254 709 flonum float 0.25 \; 56 393 532 number int 106 \; 64 338 316 flonum float 0.85 \; 65 338 244;#X append 1 2 flonum float 0.5 \; 66 338 379 flonum float 0.11 \; 72 481 184 gswitch int 0 \;;#X append 2 2 19 94 53 toggle int 1 \; 20 499 578 number int 5 \; 22 94 98 number int 30 \; 23 118 429 flonum float 0.26 \; 24 118 500 flonum float -0.02 \; 25 118 653 flonum float;#X append 2 2 -0.5 \; 26 118 569 flonum float 8.89 \; 33 543 229 toggle int 0 \; 37 226 489 flonum float 0. \; 38 226 533 flonum float 0. \; 39 226 577 flonum float 0.24 \; 43 254 577;#X append 2 2 flonum float 0.1 \; 44 254 621 flonum float 0.4 \; 45 254 665 flonum float 0.25 \; 46 254 709 flonum float 0.24 \; 56 393 532 number int 106 \; 64 338 316 flonum float 0.85 \; 65 338 244;#X append 2 2 flonum float 0.5 \; 66 338 379 flonum float 0.11 \; 72 481 184 gswitch int 0 \;;#X append 3 2 19 94 53 toggle int 1 \; 20 499 578 number int 5 \; 22 94 98 number int 30 \; 23 118 429 flonum float 0.26 \; 24 118 500 flonum float -0.02 \; 25 118 653 flonum float;#X append 3 2 -0.5 \; 26 118 569 flonum float 8.89 \; 33 543 229 toggle int 1 \; 37 226 489 flonum float 0. \; 38 226 533 flonum float 0. \; 39 226 577 flonum float 0.24 \; 43 254 577;#X append 3 2 flonum float 0.1 \; 44 254 621 flonum float 0.4 \; 45 254 665 flonum float 0.25 \; 46 254 709 flonum float 0.25 \; 56 393 532 number int 106 \; 64 338 316 flonum float 0.85 \; 65 338 244;#X append 3 2 flonum float 0.5 \; 66 338 379 flonum float 0.11 \; 72 481 184 gswitch int 0 \;;#X append 4 2 19 94 53 toggle int 1 \; 20 499 578 number int 5 \; 22 94 98 number int 30 \; 23 118 429 flonum float 0.26 \; 24 118 500 flonum float -0.02 \; 25 118 653 flonum float;#X append 4 2 -0.5 \; 26 118 569 flonum float 8.89 \; 33 543 229 toggle int 1 \; 37 226 489 flonum float 0. \; 38 226 533 flonum float 0. \; 39 226 577 flonum float 0.24 \; 43 254 577;#X append 4 2 flonum float 0.29 \; 44 254 621 flonum float 0.64 \; 45 254 665 flonum float -0.08 \; 46 254 709 flonum float 0.15 \; 56 393 532 number int 106 \; 64 338 316 flonum float 0.85 \; 65 338 244;#X append 4 2 flonum float 0.5 \; 66 338 379 flonum float 0.11 \; 72 481 184 gswitch int 0 \;;#P preset 228 94 58 17;#N vpreset 3;#X append 1 2 19 94 53 toggle int 1 \; 20 499 578 number int 5 \; 22 94 98 number int 30 \; 23 118 429 flonum float 0.47 \; 24 118 500 flonum float -0.02 \; 25 118 653 flonum float;#X append 1 2 -0.5 \; 26 118 569 flonum float 8.89 \; 33 543 229 toggle int 0 \; 37 226 489 flonum float 1.420461 \; 38 226 533 flonum float -0.99005 \; 39 226 577 flonum float 0.142397 \; 43 254 577;#X append 1 2 flonum float 0.142397 \; 44 254 621 flonum float 0.142397 \; 45 254 665 flonum float 0.142397 \; 46 254 709 flonum float 0.142397 \; 56 393 532 number int 106 \; 64 338 316 flonum float 0.85 \; 65 338 244;#X append 1 2 flonum float 0.5 \; 66 338 379 flonum float 0.11 \; 72 481 184 gswitch int 0 \;;#X append 2 2 19 94 53 toggle int 1 \; 20 499 578 number int 5 \; 22 94 98 number int 30 \; 23 118 429 flonum float 0.47 \; 24 118 500 flonum float -0.02 \; 25 118 653 flonum float;#X append 2 2 -0.5 \; 26 118 569 flonum float 8.89 \; 33 543 229 toggle int 0 \; 37 226 489 flonum float 1.420461 \; 38 226 533 flonum float -0.99005 \; 39 226 577 flonum float 0.142397 \; 43 254 577;#X append 2 2 flonum float 0.15 \; 44 254 621 flonum float 0.13 \; 45 254 665 flonum float 0.14 \; 46 254 709 flonum float 0.14 \; 56 393 532 number int 106 \; 64 338 316 flonum float 0.85 \; 65 338 244;#X append 2 2 flonum float 0.5 \; 66 338 379 flonum float 0.11 \; 72 481 184 gswitch int 0 \;;#X append 3 2 19 94 53 toggle int 1 \; 20 499 578 number int 20 \; 22 94 98 number int 30 \; 23 118 429 flonum float 0.32 \; 24 118 500 flonum float -0.02 \; 25 118 653 flonum float;#X append 3 2 -0.5 \; 26 118 569 flonum float 8.89 \; 33 543 229 toggle int 0 \; 37 226 489 flonum float 0.74 \; 38 226 533 flonum float -0.99005 \; 39 226 577 flonum float 0.307183 \; 43 254 577;#X append 3 2 flonum float 0.307183 \; 44 254 621 flonum float 0.23 \; 45 254 665 flonum float 0.36 \; 46 254 709 flonum float 0.32 \; 56 393 532 number int 106 \; 64 338 316 flonum float 0.85 \; 65 338 244;#X append 3 2 flonum float 0.5 \; 66 338 379 flonum float 0.11 \; 72 481 184 gswitch int 0 \;;#P preset 228 70 56 17;#N vpreset 2;#X append 1 2 19 94 53 toggle int 1 \; 20 499 578 number int 15 \; 22 94 98 number int 30 \; 23 118 429 flonum float 0.8 \; 24 118 500 flonum float 0.05 \; 25 118 653 flonum float;#X append 1 2 -0.5 \; 26 118 569 flonum float 10. \; 33 543 229 toggle int 1 \; 37 226 489 flonum float 0.443038 \; 38 226 533 flonum float -1.025316 \; 39 226 577 flonum float 0.39557 \; 43 254 577;#X append 1 2 flonum float 0.39557 \; 44 254 621 flonum float 0.39557 \; 45 254 665 flonum float 0.39557 \; 46 254 709 flonum float 0.39557 \; 56 393 532 number int 106 \; 64 338 316 flonum float 0.85 \; 65 338 244;#X append 1 2 flonum float 0.5 \; 66 338 379 flonum float 0.11 \; 72 481 184 gswitch int 0 \;;#X append 2 2 19 94 53 toggle int 1 \; 20 499 578 number int 5 \; 22 94 98 number int 30 \; 23 118 429 flonum float 0.8 \; 24 118 500 flonum float 0.05 \; 25 118 653 flonum float;#X append 2 2 -0.5 \; 26 118 569 flonum float 10. \; 33 543 229 toggle int 0 \; 37 226 489 flonum float 0.443038 \; 38 226 533 flonum float -1.025316 \; 39 226 577 flonum float 0.39557 \; 43 254 577;#X append 2 2 flonum float 0.39557 \; 44 254 621 flonum float 0.39557 \; 45 254 665 flonum float 0.39557 \; 46 254 709 flonum float 0.39557 \; 56 393 532 number int 106 \; 64 338 316 flonum float 0.85 \; 65 338 244;#X append 2 2 flonum float 0.5 \; 66 338 379 flonum float 0.11 \; 72 481 184 gswitch int 0 \;;#P preset 228 44 55 18;#P user GSwitch 184 481 41 32 0 0;#P newex 520 596 27 196617 t b l;#P newex 550 526 38 196617 Ladd 2;#P newex 520 497 51 196617 ys.mouse;#P newex 639 564 112 196617 ys.window pixelweight;#P user jit.pwindow 258 429 82 62 0 1 0 0 1 0;#P flonum 379 338 35 9 0 0 0 3 0 0 0 221 221 221 222 222 222 0 0 0;#P flonum 244 338 35 9 0 0 0 3 0 0 0 221 221 221 222 222 222 0 0 0;#P flonum 316 338 35 9 0 0 0 3 0 0 0 221 221 221 222 222 222 0 0 0;#P message 379 357 69 196617 saturation \$1;#P message 244 357 70 196617 brightness \$1;#P message 316 357 61 196617 contrast \$1;#P newex 184 379 53 196617 jit.brcosa;#P newex 184 401 65 196617 jit.rgb2luma;#P newex 184 315 102 196617 ys.video pixelweight;#P message 847 64 90 196617 0. 0. 0.1 0.4 0.25 0.24;#P number 532 393 35 9 0 0 0 3 0 0 0 221 221 221 222 222 222 0 0 0;#P message 532 412 63 196617 font skia \$1;#P message 435 440 192 196617 clear \, moveto 30 100 \, write T M L \, bang;#P newex 472 81 85 196617 unpack 0. 0. 0. 0.;#P message 473 45 75 196617 0.8 0.05 10. -0.5;#P comment 839 168 38 196617 wind?;#P message 811 184 65 196617 0.1 0.4 0.25 0.25;#P comment 776 165 38 196617 cloud?;#P newex 716 222 85 196617 unpack 0. 0. 0. 0.;#P message 716 181 89 196617 0.29 0.64 -0.08 0.15;#P flonum 709 254 35 9 -2. 2. 3 3 0 0 0 221 221 221 222 222 222 0 0 0;#P flonum 665 254 35 9 -2. 2. 3 3 0 0 0 221 221 221 222 222 222 0 0 0;#P flonum 621 254 35 9 -2. 2. 3 3 0 0 0 221 221 221 222 222 222 0 0 0;#P flonum 577 254 35 9 -2. 2. 3 3 0 0 0 221 221 221 222 222 222 0 0 0;#P message 768 138 54 196617 0. 0. 0.25;#P newex 229 521 25 196617 lb 1;#P newex 445 282 277 196617 pak param 0. 0. 0. 0. 0. 0.;#P flonum 577 226 35 9 -2. 2. 3 3 0 0 0 221 221 221 222 222 222 0 0 0;#P flonum 533 226 35 9 -2. 2. 3 3 0 0 0 221 221 221 222 222 222 0 0 0;#P flonum 489 226 35 9 -2. 2. 3 3 0 0 0 221 221 221 222 222 222 0 0 0;#P newex 489 201 98 196617 unpack 0. 0. 0.;#P newex 53 233 89 196617 ys.jit.pixelweight;#N vpatcher 190 153 780 685;#P newex 121 182 53 196617 bondo 4;#P outlet 133 475 15 0;#P newex 126 421 65 196617 pack 0. 0. 0.;#P inlet 45 116 15 0;#P newex 121 155 212 196617 route distance timestep wavespeed viscosity;#P newex 399 359 105 196617 expr 2. * $f1 * $f2;#P newex 259 360 135 196617 expr ($f1 * $f2 - 2.) * $f3;#P newex 114 362 140 196617 expr (4.0 - 8. * $f1) * $f2;#P newex 327 255 134 196617 expr 1. / ($f2 * $f1 + 2.);#P comment 279 86 24 196617 mu;#P comment 212 86 16 196617 c;#P comment 121 92 16 196617 t;#P newex 121 256 201 196617 expr $f3 * $f3 * $f2 * $f2 / ($f1 * $f1);#P flonum 184 42 35 9 0 0 0 3 0 0 0 221 221 221 222 222 222 0 0 0;#P flonum 265 40 35 9 0 0 0 3 0 0 0 221 221 221 222 222 222 0 0 0;#P flonum 112 41 35 9 0 0 0 3 0 0 0 221 221 221 222 222 222 0 0 0;#P flonum 41 40 35 9 0 0 0 3 0 0 0 221 221 221 222 222 222 0 0 0;#P message 265 60 65 196617 viscosity \$1;#P message 184 61 73 196617 wavespeed \$1;#P message 112 61 63 196617 timestep \$1;#P message 41 59 61 196617 distance \$1;#P comment 71 85 16 196617 d;#P connect 5 0 1 0;#P connect 6 0 2 0;#P connect 9 0 14 0;#P connect 1 0 17 0;#P connect 2 0 17 0;#P connect 3 0 17 0;#P connect 18 0 17 0;#P connect 4 0 17 0;#P connect 17 0 21 0;#P connect 21 0 9 0;#P connect 14 0 19 0;#P connect 19 0 20 0;#P connect 17 1 21 1;#P connect 17 2 21 2;#P connect 15 0 19 1;#P connect 17 3 21 3;#P connect 16 0 19 2;#P connect 8 0 3 0;#P connect 21 1 9 1;#P connect 13 0 14 1;#P connect 21 1 15 0;#P connect 7 0 4 0;#P connect 21 2 9 2;#P connect 21 3 15 1;#P connect 21 1 13 0;#P connect 13 0 15 2;#P connect 9 0 16 0;#P connect 21 3 13 1;#P connect 13 0 16 1;#P pop;#P newobj 489 171 69 196617 p waveparam;#P toggle 229 543 15 0;#P newex 229 566 27 196617 gate;#P button 229 588 15 0;#P message 117 453 32 196617 clear;#P newex 53 579 78 196617 jit.matrix wow;#P newex 53 556 52 196617 jit.pack 2;#P newex 53 527 75 196617 jit.op @op max;#P flonum 569 118 35 9 0 0 0 3 0 0 0 221 221 221 222 222 222 0 0 0;#P flonum 653 118 35 9 0 0 0 3 0 0 0 221 221 221 222 222 222 0 0 0;#P flonum 500 118 35 9 0 0 0 3 0 0 0 221 221 221 222 222 222 0 0 0;#P flonum 429 118 35 9 0 0 0 3 0 0 0 221 221 221 222 222 222 0 0 0;#P number 98 94 35 9 0 0 0 3 0 0 0 221 221 221 222 222 222 0 0 0;#P message 403 409 113 196617 clear \, brgb 0 0 0 \, bang;#P number 578 499 35 9 0 0 0 3 0 0 0 221 221 221 222 222 222 0 0 0;#P toggle 53 94 15 0;#P newex 53 121 55 196617 metro 500;#P user jit.pwindow 638 304 322 242 0 1 0 0 1 0;#P newex 53 266 95 196617 jit.unpack 2;#P newex 403 385 45 196617 loadbang;#P newex 403 566 66 196617 jit.unpack;#P newex 520 574 88 196617 prepend paintoval;#P button 387 441 15 0;#P message 229 609 55 196617 clear \, bang;#P newex 520 549 104 196617 pack 0 0 0 0 255 0 0;#P user jit.pwindow 402 497 82 62 0 1 0 0 1 0;#P newex 403 473 110 196617 jit.lcd 4 char 320 240;#P message 653 137 65 196617 viscosity \$1;#P message 569 137 73 196617 wavespeed \$1;#P message 500 137 63 196617 timestep \$1;#P message 429 137 61 196617 distance \$1;#P newex 53 152 152 196617 jit.matrix wow 2 char 320 240;#P comment 776 115 31 196617 heat;#P comment 297 44 84 196617 ripple;#P user panel 208 32 182 115;#X brgb 254 231 193;#X frgb 0 0 0;#X border 0;#X rounded 0;#X shadow 0;#X done;#P connect 19 0 18 0;#P connect 18 0 3 0;#P connect 3 0 35 0;#P connect 40 0 35 0;#P connect 35 0 16 0;#P connect 16 0 27 0;#P connect 27 0 28 0;#P connect 28 0 29 0;#P connect 30 0 29 0;#P connect 16 1 28 1;#P connect 22 0 18 1;#P connect 72 0 27 1;#P connect 16 0 58 0;#P connect 63 0 60 0;#P connect 61 0 60 0;#P connect 62 0 60 0;#P connect 58 0 60 0;#P connect 60 0 59 0;#P connect 14 1 72 1;#P connect 59 0 72 2;#P connect 41 0 33 0;#P connect 33 0 32 0;#P connect 32 0 31 0;#P connect 31 0 11 0;#P connect 65 0 62 0;#P connect 27 0 32 1;#P connect 59 0 67 0;#P connect 64 0 61 0;#P connect 66 0 63 0;#P connect 15 0 21 0;#P connect 71 1 8 0;#P connect 71 0 8 0;#P connect 11 0 8 0;#P connect 12 0 8 0;#P connect 21 0 8 0;#P connect 54 0 8 0;#P connect 55 0 8 0;#P connect 8 0 9 0;#P connect 9 0 14 0;#P connect 80 0 14 0;#P connect 53 0 23 0;#P connect 23 0 4 0;#P connect 52 0 53 0;#P connect 16 0 81 0;#P connect 4 0 34 0;#P connect 5 0 34 0;#P connect 6 0 34 0;#P connect 7 0 34 0;#P connect 34 0 36 0;#P connect 42 0 36 0;#P connect 36 0 37 0;#P connect 37 0 40 1;#P connect 53 1 24 0;#P connect 24 0 5 0;#P connect 17 1 69 0;#P connect 69 0 10 0;#P connect 10 0 13 0;#P connect 13 0 71 0;#P connect 56 0 55 0;#P connect 36 1 38 0;#P connect 38 0 40 2;#P fasten 69 0 70 0 525 521 555 521;#P connect 70 0 10 2;#P connect 53 2 26 0;#P connect 26 0 6 0;#P connect 36 2 39 0;#P connect 39 0 43 0;#P connect 48 0 43 0;#P connect 43 0 40 3;#P connect 20 0 70 1;#P connect 39 0 44 0;#P connect 48 1 44 0;#P connect 44 0 40 4;#P connect 16 0 17 0;#P connect 17 0 68 0;#P connect 53 3 25 0;#P connect 25 0 7 0;#P connect 39 0 45 0;#P connect 48 2 45 0;#P connect 45 0 40 5;#P connect 39 0 46 0;#P connect 48 3 46 0;#P connect 46 0 40 6;#P connect 47 0 48 0;#P connect 50 0 48 0;#P pop;