max v2;#N vpatcher 321 53 989 774;#P origin 1 1;#P newex 292 561 31 196617 print;#P message 463 554 31 196617 clear;#P newex 217 52 61 196617 jit.p.bounds;#P newex 557 659 72 196617 prepend write;#P newex 559 631 33 196617 r line;#P newex 167 32 38 196617 s lnum;#P button 111 428 15 0;#P message 127 459 38 196617 set \$1;#P number 84 515 73 9 0 0 0 3 0 0 0 221 221 221 222 222 222 0 0 0;#P number 121 482 74 9 0 0 0 3 0 0 0 221 221 221 222 222 222 0 0 0;#P newex 84 490 27 196617 - 1;#P message 227 535 193 196617 frgb \$1 \$1 \$1 \, linesegment \$2 \$3 \$4 \$5;#P number 446 593 35 9 0 0 0 3 0 0 0 221 221 221 222 222 222 0 0 0;#P message 446 612 65 196617 font arial \$1;#P newex 172 641 45 196617 s ahoaho;#P user jit.fpsgui 322 313 60 196617 0;#P comment 291 17 112 196617 ¥ view html reference.;#P hidden newex 387 57 100 196617 jit.obref jit.p.vishnu;#P button 387 32 15 0;#P comment 403 34 59 196617 jit.p.vishnu;#P hidden newex 443 711 104 196617 bgcolor 194 188 196;#P comment 489 19 48 196617 see also:;#P hidden newex 489 57 64 196617 prepend help;#P message 489 33 60 196617 jit.p.bounds;#P hidden newex 489 78 45 196617 pcontrol;#P hidden newex 291 57 95 196617 jit.obref jit.p.shiva;#P button 291 32 15 0;#P comment 307 34 54 196617 jit.p.shiva;#P comment 2 38 81 196622 jit.p.vishnu;#P comment 2 60 145 196617 Apply single force to particles;#P comment 2 1 73 196622 jit.p.shiva;#P comment 2 23 138 196617 Generate/eliminate particles;#P comment 191 683 220 196617 jit.p-vishnu \; pos: position in 3-space \; force: a bit like the 'wind' blowing in the space \; pitch: front/back rotation \; yaw: left/right rotation \; speed: initial speed of emission \; _var: variability \;;#P message 187 333 40 196617 mode 1;#P newex 137 376 59 196617 zl group 10;#P toggle 18 230 15 0;#P comment 245 104 118 196617 messages to p-vishnu ->;#P newex 135 141 99 196617 pak init_var 0. 0. 0.;#P flonum 239 122 47 9 0 0 0 3 0 0 0 221 221 221 222 222 222 0 0 0;#P flonum 187 122 47 9 0 0 0 3 0 0 0 221 221 221 222 222 222 0 0 0;#P flonum 135 122 47 9 0 0 0 3 0 0 0 221 221 221 222 222 222 0 0 0;#P newex 124 99 75 196617 pak init 0. 0. 0.;#P flonum 228 80 47 9 0 0 0 3 0 0 0 221 221 221 222 222 222 0 0 0;#P flonum 176 80 47 9 0 0 0 3 0 0 0 221 221 221 222 222 222 0 0 0;#P flonum 124 80 47 9 0 0 0 3 0 0 0 221 221 221 222 222 222 0 0 0;#P number 37 187 35 9 0 0 0 3 0 0 0 221 221 221 222 222 222 0 0 0;#P message 40 230 45 196617 mode \$1;#P newex 323 186 85 196617 pak force 0. 0. 0.;#P newex 321 144 75 196617 pak pos 0. 0. 0.;#P message 37 206 48 196617 dim \$1 2;#P newex 324 249 59 196617 jit.p.vishnu;#B color 5;#P newex 139 291 170 196617 jit.matrix brahma 5 float32 1000 2;#P newex 138 229 170 196617 jit.matrix brahma 5 float32 1000 2;#P newex 124 259 54 196617 jit.p.shiva;#B color 5;#P comment 64 387 55 196617 3D presets;#N vpreset 4;#X append 1 2 15 171 238 number int 0 \; 22 83 477 flonum float 1.57 \; 23 125 321 flonum float 0. \; 24 125 373 flonum float -0.5 \; 35 257 19 number int 2 \; 36 125 425 flonum float;#X append 1 2 -1. \; 38 83 527 flonum float 0.7 \; 40 125 477 flonum float 0. \; 42 125 527 flonum float 6.2 \; 44 167 477 flonum float 0.05 \; 46 167 527 flonum float 0.01 \; 48 81 9;#X append 1 2 number int 60 \; 50 81 59 number int 15 \; 51 167 323 flonum float 0. \; 52 167 374 flonum float -0.001 \; 53 167 425 flonum float 0. \; 55 121 9 number int 100 \; 57 121 59;#X append 1 2 number int 15 \; 77 626 29 ubumenu int 0 \; 88 187 37 number int 750 \; 89 80 124 flonum float 0. \; 90 80 176 flonum float 0. \; 91 80 228 flonum float 0. \; 93 122 135;#X append 1 2 flonum float 0. \; 94 122 187 flonum float 0. \; 95 122 239 flonum float 0. \; 98 230 18 toggle int 0 \;;#X append 2 2 15 171 238 number int 0 \; 22 83 477 flonum float 1.57 \; 23 125 321 flonum float 0. \; 24 125 373 flonum float 0. \; 35 257 19 number int 2 \; 36 125 425 flonum float;#X append 2 2 0. \; 38 83 527 flonum float 6.2 \; 40 125 477 flonum float 1.57 \; 42 125 527 flonum float 1.299999 \; 44 167 477 flonum float 0.01 \; 46 167 527 flonum float 0.01 \; 48 81 9;#X append 2 2 number int 199 \; 50 81 59 number int 114 \; 51 167 323 flonum float 0. \; 52 167 374 flonum float 0. \; 53 167 425 flonum float 0. \; 55 121 9 number int 3 \; 57 121 59;#X append 2 2 number int 4 \; 77 626 29 ubumenu int 0 \; 88 187 37 number int 122 \; 89 80 124 flonum float 0. \; 90 80 176 flonum float 0. \; 91 80 228 flonum float 0. \; 93 122 135;#X append 2 2 flonum float 0. \; 94 122 187 flonum float 0. \; 95 122 239 flonum float 0. \; 98 230 18 toggle int 0 \;;#X append 3 2 15 171 238 number int 0 \; 22 83 477 flonum float 3.730005 \; 23 125 321 flonum float 0. \; 24 125 373 flonum float 0.52 \; 35 257 19 number int 2 \; 36 125 425 flonum float;#X append 3 2 0. \; 38 83 527 flonum float 0.69 \; 40 125 477 flonum float 0.31 \; 42 125 527 flonum float 0.05 \; 44 167 477 flonum float 0.04 \; 46 167 527 flonum float 0.01 \; 48 81 9;#X append 3 2 number int 214 \; 50 81 59 number int 93 \; 51 167 323 flonum float 0. \; 52 167 374 flonum float -0.0002 \; 53 167 425 flonum float 0. \; 55 121 9 number int 100 \; 57 121 59;#X append 3 2 number int 15 \; 77 626 29 ubumenu int 0 \; 88 187 37 number int 655 \; 89 80 124 flonum float 0. \; 90 80 176 flonum float 0. \; 91 80 228 flonum float 0. \; 93 122 135;#X append 3 2 flonum float 0. \; 94 122 187 flonum float 0. \; 95 122 239 flonum float 0. \; 98 230 18 toggle int 0 \;;#X append 4 2 15 171 238 number int 0 \; 22 83 477 flonum float 2.040003 \; 23 125 321 flonum float -3.269998 \; 24 125 373 flonum float 0.98 \; 35 257 19 number int 2 \; 36 125 425 flonum float;#X append 4 2 0. \; 38 83 527 flonum float 1.52 \; 40 125 477 flonum float 1.03 \; 42 125 527 flonum float 0.01 \; 44 167 477 flonum float 0.02 \; 46 167 527 flonum float 0.01 \; 48 81 9;#X append 4 2 number int 323 \; 50 81 59 number int 93 \; 51 167 323 flonum float 0. \; 52 167 374 flonum float -0.0001 \; 53 167 425 flonum float 0. \; 55 121 9 number int 100 \; 57 121 59;#X append 4 2 number int 15 \; 77 626 29 ubumenu int 0 \; 88 187 37 number int 655 \; 89 80 124 flonum float 0. \; 90 80 176 flonum float 0. \; 91 80 228 flonum float 0. \; 93 122 135;#X append 4 2 flonum float 0. \; 94 122 187 flonum float 0. \; 95 122 239 flonum float 0. \; 98 230 18 toggle int 0 \;;#P preset 14 380 47 27;#P user ubumenu 29 626 60 196617 0 1 1 0;#X add points;#X add lines;#X add line_strip;#X add line_loop;#X add triangles;#X add tri_strip;#X add tri_fan;#X add quads;#X add quad_strip;#X add polygon;#X add tri_grid;#X add quad_grid;#X prefix_set 0 0 <none> 0;#P hidden message 18 560 44 196617 font 6 9;#P newex 126 423 27 196617 i;#P hidden newex 260 351 53 196617 cycle 4;#P hidden message 260 329 41 196617 0 1 3 4;#P comment 459 475 14 196617 z';#P comment 459 458 14 196617 y';#P comment 459 441 14 196617 x';#P comment 459 425 14 196617 z;#P comment 459 409 14 196617 y;#P hidden newex 383 496 59 196617 pak 0 0 0 0;#P user radiogroup 438 391 18 96;#X size 6;#X offset 16;#X inactive 0;#X itemtype 0;#X flagmode 1;#X set 4;#X done;#P user radiogroup 417 391 18 96;#X size 6;#X offset 16;#X inactive 0;#X itemtype 0;#X flagmode 1;#X set 3;#X done;#P user radiogroup 396 391 18 96;#X size 6;#X offset 16;#X inactive 0;#X itemtype 0;#X flagmode 1;#X set 1;#X done;#P user radiogroup 375 391 18 96;#X size 6;#X offset 16;#X inactive 0;#X itemtype 0;#X flagmode 1;#X set 0;#X done;#P hidden message 7 423 13 196617 1;#N vpreset 5;#X append 1 2 15 171 238 number int 45 \; 22 83 477 flonum float 1.57 \; 23 125 321 flonum float 0. \; 24 125 373 flonum float -0.5 \; 35 257 19 number int 1 \; 36 125 425 flonum float;#X append 1 2 0. \; 38 83 527 flonum float 0.7 \; 40 125 477 flonum float 0. \; 42 125 527 flonum float 6.2 \; 44 167 477 flonum float 0.05 \; 46 167 527 flonum float 0.01 \; 48 81 9;#X append 1 2 number int 60 \; 50 81 59 number int 15 \; 51 167 323 flonum float 0. \; 52 167 374 flonum float -0.001 \; 53 167 425 flonum float 0. \; 55 121 9 number int 100 \; 57 121 59;#X append 1 2 number int 15 \; 77 626 29 ubumenu int 0 \; 88 187 37 number int 750 \; 89 80 124 flonum float 0. \; 90 80 176 flonum float 0. \; 91 80 228 flonum float 0. \; 93 122 135;#X append 1 2 flonum float 0. \; 94 122 187 flonum float 0. \; 95 122 239 flonum float 0. \; 98 230 18 toggle int 0 \;;#X append 2 2 15 171 238 number int 20 \; 22 83 477 flonum float 1.57 \; 23 125 321 flonum float 0. \; 24 125 373 flonum float 0. \; 35 257 19 number int 1 \; 36 125 425 flonum float;#X append 2 2 0. \; 38 83 527 flonum float 6.2 \; 40 125 477 flonum float 1.57 \; 42 125 527 flonum float 1.299999 \; 44 167 477 flonum float 0.01 \; 46 167 527 flonum float 0.01 \; 48 81 9;#X append 2 2 number int 199 \; 50 81 59 number int 114 \; 51 167 323 flonum float 0. \; 52 167 374 flonum float 0. \; 53 167 425 flonum float 0. \; 55 121 9 number int 3 \; 57 121 59;#X append 2 2 number int 4 \; 77 626 29 ubumenu int 0 \; 88 187 37 number int 122 \; 89 80 124 flonum float 0. \; 90 80 176 flonum float 0. \; 91 80 228 flonum float 0. \; 93 122 135;#X append 2 2 flonum float 0. \; 94 122 187 flonum float 0. \; 95 122 239 flonum float 0. \; 98 230 18 toggle int 0 \;;#X append 3 2 15 171 238 number int 45 \; 22 83 477 flonum float 1.57 \; 23 125 321 flonum float 0. \; 24 125 373 flonum float -0.5 \; 35 257 19 number int 1 \; 36 125 425 flonum float;#X append 3 2 0. \; 38 83 527 flonum float 0.69 \; 40 125 477 flonum float 0. \; 42 125 527 flonum float 0.05 \; 44 167 477 flonum float 0.04 \; 46 167 527 flonum float 0.01 \; 48 81 9;#X append 3 2 number int 60 \; 50 81 59 number int 15 \; 51 167 323 flonum float 0. \; 52 167 374 flonum float 0. \; 53 167 425 flonum float 0. \; 55 121 9 number int 100 \; 57 121 59;#X append 3 2 number int 15 \; 77 626 29 ubumenu int 0 \; 88 187 37 number int 655 \; 89 80 124 flonum float 0. \; 90 80 176 flonum float 0. \; 91 80 228 flonum float 0. \; 93 122 135;#X append 3 2 flonum float 0. \; 94 122 187 flonum float 0. \; 95 122 239 flonum float 0. \; 98 230 18 toggle int 0 \;;#X append 4 2 15 171 238 number int 30 \; 22 83 477 flonum float 2.040003 \; 23 125 321 flonum float -0.689998 \; 24 125 373 flonum float -1.28 \; 35 257 19 number int 1 \; 36 125 425 flonum float;#X append 4 2 0. \; 38 83 527 flonum float 1.52 \; 40 125 477 flonum float 1.03 \; 42 125 527 flonum float 0.01 \; 44 167 477 flonum float 0.02 \; 46 167 527 flonum float 0.01 \; 48 81 9;#X append 4 2 number int 323 \; 50 81 59 number int 93 \; 51 167 323 flonum float 0. \; 52 167 374 flonum float 0.0001 \; 53 167 425 flonum float 0. \; 55 121 9 number int 100 \; 57 121 59;#X append 4 2 number int 15 \; 77 626 29 ubumenu int 0 \; 88 187 37 number int 655 \; 89 80 124 flonum float 0. \; 90 80 176 flonum float 0. \; 91 80 228 flonum float 0. \; 93 122 135;#X append 4 2 flonum float 0. \; 94 122 187 flonum float 0. \; 95 122 239 flonum float 0. \; 98 230 18 toggle int 0 \;;#X append 5 2 15 171 238 number int 30 \; 22 83 477 flonum float 2.040003 \; 23 125 321 flonum float -3.269998 \; 24 125 373 flonum float 0.98 \; 35 257 19 number int 1 \; 36 125 425 flonum float;#X append 5 2 0. \; 38 83 527 flonum float 1.52 \; 40 125 477 flonum float 1.03 \; 42 125 527 flonum float 0.01 \; 44 167 477 flonum float 0.02 \; 46 167 527 flonum float 0.01 \; 48 81 9;#X append 5 2 number int 323 \; 50 81 59 number int 93 \; 51 167 323 flonum float 0. \; 52 167 374 flonum float -0.0001 \; 53 167 425 flonum float 0. \; 55 121 9 number int 100 \; 57 121 59;#X append 5 2 number int 15 \; 77 626 29 ubumenu int 0 \; 88 187 37 number int 655 \; 89 80 124 flonum float 0. \; 90 80 176 flonum float 0. \; 91 80 228 flonum float 0. \; 93 122 135;#X append 5 2 flonum float 0. \; 94 122 187 flonum float 0. \; 95 122 239 flonum float 0. \; 98 230 18 toggle int 0 \;;#P preset 14 347 47 27;#P hidden newex 29 501 45 196617 loadbang;#N vpatcher 40 55 840 384;#P newex 97 65 27 196617 + 1;#P newex 67 65 27 196617 + 1;#P newex 37 65 27 196617 + 1;#P newex 8 65 27 196617 + 1;#P inlet 400 49 15 0;#P inlet 468 49 15 0;#P newex 22 41 74 196617 unpack 0 0 0 0;#P inlet 22 19 15 0;#P outlet 161 231 15 0;#P outlet 230 232 15 0;#P outlet 307 234 15 0;#P outlet 363 234 15 0;#P newex 391 132 92 196617 switch 6 5;#P newex 289 132 92 196617 switch 6 4;#P newex 189 132 92 196617 switch 6 2;#P newex 89 131 92 196617 switch 6 1;#P inlet 148 49 15 0;#P inlet 207 49 15 0;#P inlet 268 49 15 0;#P inlet 336 49 15 0;#P connect 13 0 16 0;#P connect 12 0 13 0;#P connect 13 1 17 0;#P connect 13 2 18 0;#P connect 16 0 4 0;#P connect 13 3 19 0;#P connect 3 0 4 1;#P connect 2 0 4 2;#P connect 1 0 4 3;#P connect 0 0 4 4;#P connect 15 0 4 5;#P connect 4 0 11 0;#P connect 14 0 4 6;#P connect 17 0 5 0;#P connect 3 0 5 1;#P connect 2 0 5 2;#P connect 1 0 5 3;#P fasten 5 0 10 0 195 149;#P connect 0 0 5 4;#P connect 15 0 5 5;#P connect 14 0 5 6;#P connect 18 0 6 0;#P connect 3 0 6 1;#P connect 6 0 9 0;#P connect 2 0 6 2;#P connect 1 0 6 3;#P connect 0 0 6 4;#P connect 15 0 6 5;#P connect 7 0 8 0;#P connect 14 0 6 6;#P connect 19 0 7 0;#P connect 3 0 7 1;#P connect 2 0 7 2;#P connect 1 0 7 3;#P connect 0 0 7 4;#P connect 15 0 7 5;#P connect 14 0 7 6;#P pop;#P newobj 202 419 135 196617 p the_switcheroo;#P comment 318 206 254 196617 Data emitted by p-shiva is n-plane \, float32 or float64 \, 2 dimensional \, x by 2. x represents the total number of particles permitted in any frame. Planes 0 and 1 always represent the particle id and life \, respectively.;#P number 59 121 47 9 0 0 0 3 0 0 0 221 221 221 222 222 222 0 0 0;#P message 59 141 65 196617 emit_var \$1;#P number 9 121 47 9 0 0 0 3 0 0 0 221 221 221 222 222 222 0 0 0;#P message 9 141 43 196617 emit \$1;#P flonum 425 167 47 9 0 0 0 3 0 0 0 221 221 221 222 222 222 0 0 0;#P flonum 374 167 47 9 0 0 0 3 0 0 0 221 221 221 222 222 222 0 0 0;#P flonum 323 167 47 9 0 0 0 3 0 0 0 221 221 221 222 222 222 0 0 0;#P number 59 81 47 9 0 0 0 3 0 0 0 221 221 221 222 222 222 0 0 0;#P message 59 100 60 196617 life_var \$1;#P number 9 81 47 9 0 0 0 3 0 0 0 221 221 221 222 222 222 0 0 0;#P message 9 100 38 196617 life \$1;#P flonum 527 167 47 9 0 0 0 3 0 0 0 221 221 221 222 222 222 0 0 0;#P message 527 186 70 196617 speed_var \$1;#P flonum 477 167 47 9 0 0 0 3 0 0 0 221 221 221 222 222 222 0 0 0;#P message 477 186 48 196617 speed \$1;#P flonum 527 125 47 9 0 0 0 3 0 0 0 221 221 221 222 222 222 0 0 0;#P message 527 144 64 196617 yaw_var \$1;#P flonum 477 125 47 9 0 0 0 3 0 0 0 221 221 221 222 222 222 0 0 0;#P message 477 144 42 196617 yaw \$1;#P flonum 527 83 47 9 0 0 0 3 0 0 0 221 221 221 222 222 222 0 0 0;#P message 527 102 65 196617 pitch_var \$1;#P flonum 425 125 47 9 0 0 0 3 0 0 0 221 221 221 222 222 222 0 0 0;#P number 19 257 35 9 1 3 3 3 0 0 0 221 221 221 222 222 222 0 0 0;#P newex 46 424 20 196617 t b;#P newex 43 276 45 196617 gate 3 1;#P newex 274 657 106 196617 jit.window remus @rect 10 50 330 290;#P newex 137 396 170 196617 unpack 0. 0. 0. 0. 0. 0. 0. 0. 0. 0. 0.;#P newex 325 460 39 196617 * 120.;#P newex 325 440 27 196617 + 1.;#P newex 284 460 39 196617 * 160.;#P newex 284 440 27 196617 + 1.;#P newex 159 440 39 196617 * 255.;#P newex 159 419 32 196617 / 60.;#P flonum 373 125 47 9 0 0 0 3 0 0 0 221 221 221 222 222 222 0 0 0;#P flonum 321 125 47 9 0 0 0 3 0 0 0 221 221 221 222 222 222 0 0 0;#P flonum 477 83 47 9 0 0 0 3 0 0 0 221 221 221 222 222 222 0 0 0;#P message 477 102 45 196617 pitch \$1;#P newex 222 502 74 196617 pack 0 0 0 0 0;#P newex 243 460 39 196617 * 120.;#P newex 243 440 27 196617 + 1.;#P newex 201 460 39 196617 * 160.;#P newex 201 440 27 196617 + 1.;#P number 238 171 35 9 0 0 0 3 0 0 0 221 221 221 222 222 222 0 0 0;#P message 8 457 32 196617 clear;#P toggle 198 169 15 0;#P newex 198 189 50 196617 metro 60;#P message 79 547 99 196617 frgb 255 255 255 \, brgb 0 0 0 \, clear;#P newex 274 635 109 196617 jit.lcd 4 char 320 240;#P newex 137 354 40 196617 jit.iter;#P comment 324 283 244 196617 Data received by p-vishnu is expected to be 5 or 8 plane \, float32 or float64 \, 2 dimensional \, x by 2. If 5-plane \, planes 2 \, 3 \, 4 represent x \, y \, z positions. If 8-plane \, planes 5 \, 6 \, 7 additionally represent x \, y \, z velocities. When in mode 0 \, these extra planes are automatically generated for incoming 'newborn' particles'. In mode 1 \, any existing values in these planes are used to initialize the output.;#P comment 459 392 14 196617 x;#P comment 205 356 69 196617 turn toggle on and then play with these!;#P comment 59 357 55 196617 2D presets;#P comment 36 172 75 196617 no. of particles;#P comment 278 89 113 196617 <- messages to p-shiva;#P comment 9 177 115 196617 mode 1 enables 'init' and 'init_var' messages to affect p-shiva's output \, and causes p-vishnu to use those values when 'launching' a new particle into the world.;#P comment 371 257 176 196617 Row 2 always holds the immediately previous value of row 1.;#P comment 14 683 164 196617 jit.p-shiva \; life: particle life \; emit: particles emitted per frame \; _var: variability \;;#P hidden connect 60 0 62 0;#P connect 34 0 14 0;#P connect 48 0 47 0;#P connect 55 0 54 0;#P hidden connect 62 0 61 0;#P hidden connect 60 0 76 0;#P hidden connect 60 0 77 0;#P connect 88 0 84 0;#P fasten 98 0 87 0 23 248 35 248 35 226 45 226;#P connect 35 0 33 0;#P fasten 33 0 34 0 48 351 51 351;#P connect 50 0 49 0;#P connect 57 0 56 0;#P connect 83 0 33 1;#P hidden connect 60 0 11 0;#P connect 75 0 123 0;#P connect 123 0 125 0;#P connect 124 0 123 1;#P connect 127 0 124 0;#P connect 126 0 124 0;#P fasten 87 0 80 0 45 254 129 254;#P fasten 47 0 80 0 14 118 129 118;#P fasten 49 0 80 0 64 118 129 118;#P fasten 54 0 80 0 14 159 129 159;#P fasten 56 0 80 0 64 159 129 159;#P fasten 81 0 80 0 143 250 129 250;#P lcolor 9;#P fasten 96 0 80 0 140 207 129 207;#P connect 92 0 80 0;#P connect 31 0 75 0;#P connect 75 0 126 0;#P connect 33 0 9 0;#P fasten 100 0 9 0 192 351 142 351;#P connect 9 0 99 0;#P connect 99 0 31 0;#P fasten 84 0 81 0 42 226 143 226;#P fasten 12 0 81 0 203 217 143 217;#P fasten 83 0 82 0 329 283 144 283;#P lcolor 9;#P fasten 84 0 82 0 42 226 129 226 129 254 186 254 186 288 144 288;#P fasten 89 0 92 1 129 97 150 97;#P connect 31 1 25 0;#P connect 25 0 26 0;#P fasten 93 0 96 1 140 139 169 139;#P fasten 90 0 92 2 181 97 171 97;#P connect 125 0 128 0;#P connect 10 0 119 0;#P fasten 91 0 92 3 233 97 192 97;#P hidden connect 60 0 100 0;#P fasten 94 0 96 2 192 139 198 139;#P hidden connect 61 2 13 0;#P hidden connect 78 2 13 0;#P connect 13 0 12 0;#P connect 59 0 16 0;#P connect 16 0 17 0;#P hidden connect 67 0 59 0;#P fasten 95 0 96 3 244 139 227 139;#P fasten 31 2 59 1 174 415 227 415;#P connect 26 0 20 0;#P connect 20 0 122 0;#P connect 15 0 12 1;#P connect 17 0 20 1;#P fasten 31 3 59 2 190 415 247 415;#P connect 59 1 18 0;#P connect 18 0 19 0;#P connect 19 0 20 2;#P hidden connect 60 0 73 0;#P hidden connect 73 0 74 0;#P fasten 31 4 59 3 206 415 267 415;#P connect 28 0 20 3;#P fasten 34 0 10 0 51 586 279 586;#P connect 132 0 10 0;#P connect 122 0 10 0;#P connect 130 0 10 0;#P connect 120 0 10 0;#P fasten 11 0 10 0 84 557 76 588 279 588;#P fasten 14 0 10 0 13 590 279 590;#P hidden connect 76 0 10 0;#P connect 10 0 32 0;#P fasten 31 7 59 4 254 415 287 415;#P connect 59 2 27 0;#P connect 27 0 28 0;#P connect 30 0 20 4;#P hidden connect 107 0 108 0;#P fasten 31 8 59 5 270 415 307 415;#P connect 83 0 118 0;#P fasten 31 9 59 6 286 415 327 415;#P fasten 80 0 83 0 129 279 302 279 302 256 329 256;#P lcolor 9;#P fasten 87 0 83 0 45 254 329 254;#P fasten 45 0 83 0 532 205 329 205;#P fasten 43 0 83 0 482 205 329 205;#P fasten 41 0 83 0 532 163 329 163;#P fasten 39 0 83 0 482 163 329 163;#P fasten 37 0 83 0 532 120 329 120;#P fasten 21 0 83 0 482 120 329 120;#P fasten 85 0 83 0 326 163 329 163;#P fasten 86 0 83 0 328 205 329 205;#P connect 59 3 29 0;#P connect 29 0 30 0;#P fasten 23 0 85 1 326 142 347 142;#P fasten 51 0 86 1 328 184 353 184;#P fasten 24 0 85 2 378 142 368 142;#P fasten 52 0 86 2 379 184 378 184;#P hidden connect 74 0 63 0;#P hidden connect 63 0 67 0;#P fasten 36 0 85 3 430 142 389 142;#P hidden connect 115 0 116 0;#P hidden connect 74 1 64 0;#P fasten 53 0 86 3 430 184 403 184;#P hidden connect 64 0 67 1;#P hidden connect 65 0 67 2;#P hidden connect 74 2 65 0;#P hidden connect 66 0 67 3;#P hidden connect 74 3 66 0;#P connect 121 0 120 0;#P connect 22 0 21 0;#P connect 40 0 39 0;#P connect 44 0 43 0;#P hidden connect 110 0 111 0;#P hidden connect 111 0 109 0;#P connect 38 0 37 0;#P connect 42 0 41 0;#P connect 46 0 45 0;#P connect 129 0 130 0;#P pop;