max v2;#N vpatcher 26 68 1015 711;#P toggle 209 543 15 0;#P newex 209 566 27 196617 gate;#P user GSwitch2 337 497 39 32 1 0;#P newex 298 576 88 196617 prepend paintrect;#P button 209 588 15 0;#P message 47 404 32 196617 clear;#P newex 94 582 78 196617 jit.matrix wow;#P newex 98 550 52 196617 jit.pack 2;#P newex 99 521 75 196617 jit.op @op max;#P message 590 263 69 196617 size 320 240;#P flonum 571 75 35 9 0 0 0 3 0 0 0 221 221 221 222 222 222 0 0 0;#P flonum 490 80 35 9 0 0 0 3 0 0 0 221 221 221 222 222 222 0 0 0;#P flonum 415 74 35 9 0 0 0 3 0 0 0 221 221 221 222 222 222 0 0 0;#P flonum 344 73 35 9 0 0 0 3 0 0 0 221 221 221 222 222 222 0 0 0;#P message 717 123 84 196617 295 15 254 869;#P message 715 92 84 196617 227 12 211 129;#P toggle 383 279 15 0;#P newex 343 303 63 196617 metro 5000;#P message 289 330 149 196617 paintoval 55 33 61 39 255 0 0;#N vpreset 3;#X append 1 2 16 420 353 number int 105 \; 17 420 390 number int 200 \; 31 34 104 toggle int 1 \; 32 423 532 number int 11 \; 34 33 176 number int 35 \; 38 279 383 toggle int;#X append 1 2 0 \; 41 73 344 flonum float 0.8 \; 42 74 415 flonum float 0.05 \; 43 80 490 flonum float -0.5 \; 44 75 571 flonum float 10.02 \;;#X append 2 2 16 420 353 number int 105 \; 17 420 390 number int 200 \; 31 34 104 toggle int 1 \; 32 423 532 number int 11 \; 34 33 176 number int 35 \; 38 279 383 toggle int;#X append 2 2 0 \; 41 73 344 flonum float 0.8 \; 42 74 415 flonum float 0.05 \; 43 80 490 flonum float -0.5 \; 44 75 571 flonum float 10.02 \;;#X append 3 2 16 420 353 number int 105 \; 17 420 390 number int 200 \; 31 34 104 toggle int 1 \; 32 423 532 number int 11 \; 34 33 176 number int 35 \; 38 279 383 toggle int;#X append 3 2 0 \; 41 73 344 flonum float 0.8 \; 42 74 415 flonum float 0.05 \; 43 80 490 flonum float -0.5 \; 44 75 571 flonum float 10.02 \;;#P preset 417 166 47 27;#P number 176 33 35 9 0 0 0 3 0 0 0 221 221 221 222 222 222 0 0 0;#P message 183 317 80 196617 brgb 0 0 0 \, bang;#P number 532 423 35 9 0 0 0 3 0 0 0 221 221 221 222 222 222 0 0 0;#P toggle 104 34 15 0;#P newex 130 68 55 196617 metro 500;#P user jit.pwindow 630 336 322 242 0 1 0 0 1 0;#P newex 147 260 62 196617 jit.unpack 2;#P newex 125 290 45 196617 loadbang;#P newex 188 480 66 196617 jit.unpack;#P newex 424 583 88 196617 prepend paintoval;#P message 542 593 149 196617 paintoval 151 118 158 125 255 0 0;#P newex 542 571 32 196617 show;#P newex 472 441 27 196617 + 2;#P newex 443 440 27 196617 + 2;#P button 164 345 15 0;#P message 118 370 55 196617 clear \, bang;#P newex 366 472 104 196617 pack 0 0 0 0 255 0 0;#P number 390 420 35 9 0 0 0 3 0 0 0 221 221 221 222 222 222 0 0 0;#P number 353 420 35 9 0 0 0 3 0 0 0 221 221 221 222 222 222 0 0 0;#P newex 353 394 166 196617 unpack 0 0 0 0 0 0 0 0;#P newex 353 368 110 196617 route mouse mouseidle;#P user jit.pwindow 185 409 82 62 0 1 0 0 1 0;#P newex 187 385 110 196617 jit.lcd 4 char 320 240;#P message 490 100 65 196617 viscosity \$1;#P message 571 94 73 196617 wavespeed \$1;#P message 415 94 63 196617 timestep \$1;#P message 344 92 61 196617 distance \$1;#P user jit.fpsgui 207 194 60 196617 3;#P button 140 34 15 0;#P newex 197 54 152 196617 jit.matrix wow 2 char 320 240;#P message 46 99 62 196617 gettimestep;#P message 41 61 65 196617 getviscosity;#P message 282 204 50 196617 viscosity 1.86;#P newex 282 182 32 196617 show;#P newex 203 122 59 196617 ys.jit.wave;#P connect 47 0 48 0;#P connect 49 0 48 0;#P connect 46 0 47 0;#P connect 28 0 46 0;#P connect 27 0 19 0;#P connect 50 0 19 0;#P connect 31 0 30 0;#P connect 28 1 47 1;#P connect 0 0 28 0;#P connect 25 0 20 0;#P connect 36 0 20 0;#P connect 51 0 20 0;#P connect 26 1 46 1;#P connect 34 0 30 1;#P connect 27 0 33 0;#P connect 12 0 13 0;#P connect 25 0 12 0;#P connect 19 0 12 0;#P connect 20 0 12 0;#P connect 33 0 12 0;#P connect 36 0 12 0;#P connect 51 0 12 0;#P connect 13 0 26 0;#P connect 30 0 5 0;#P connect 6 0 5 0;#P connect 5 0 0 0;#P connect 10 0 0 0;#P connect 11 0 0 0;#P connect 9 0 0 0;#P connect 8 0 0 0;#P connect 3 0 0 0;#P connect 4 0 0 0;#P connect 0 0 7 0;#P connect 54 0 53 0;#P connect 53 0 50 0;#P connect 46 0 53 1;#P connect 0 1 1 0;#P connect 1 0 2 0;#P connect 37 0 36 0;#P connect 52 0 51 0;#P connect 38 0 37 0;#P connect 41 0 8 0;#P connect 29 1 14 0;#P connect 14 0 15 0;#P fasten 14 1 15 0 408 389 358 389;#P connect 15 0 16 0;#P connect 16 0 18 0;#P connect 18 0 52 1;#P connect 17 0 18 1;#P fasten 15 1 17 0 380 415 395 415;#P connect 21 0 18 2;#P connect 22 0 18 3;#P connect 42 0 9 0;#P connect 52 1 25 0;#P connect 16 0 21 0;#P connect 32 0 21 1;#P connect 17 0 22 0;#P connect 32 0 22 1;#P connect 43 0 11 0;#P connect 25 0 23 0;#P connect 23 0 24 0;#P connect 44 0 10 0;#P connect 45 0 29 0;#P connect 28 0 29 0;#P pop;