max v2;#N vpatcher 504 322 1458 1295;#P origin 40 169;#P toggle 462 839 15 0;#P window setfont "Sans Serif" 9.;#P window linecount 1;#N vpatcher 819 198 1430 713;#P origin 0 31;#P window setfont "Sans Serif" 9.;#P message 230 103 14 196617 4;#P inlet 27 38 15 0;#P hidden newex 145 301 62 196617 prepend set;#P window setfont Skia 12.;#P window linecount 4;#P comment 273 365 90 133693452 Yoichiro Serita 08.10.2005 mildly modified by jhave;#P window setfont "Sans Serif" 9.;#P window linecount 1;#P newex 236 249 114 196617 prepend set dim size ->;#P newex 236 270 78 196617 print ys.record;#P newex 49 69 48 196617 route int;#P inlet 49 38 15 0;#P newex 149 163 62 196617 prepend dim;#P user ubumenu 126 143 56 196617 0 1 1 0;#X add 320 240;#X add 160 120;#X add 80 60;#X add 640 480;#X add 640 240;#X prefix_set 0 0 <none> 0;#X pattrmode 1;#P hidden newex 145 276 44 196617 zl nth 2;#P window setfont Skia 12.;#P window linecount 2;#P message 164 337 148 133693452 mov2005816_18.38.17.mov;#B color 5;#P window setfont "Sans Serif" 9.;#P window linecount 1;#N vpatcher 911 258 1444 795;#P origin 0 7;#P window setfont "Sans Serif" 9.;#P newex 203 166 16 196617;#P newex 251 237 60 196617 prepend set;#P inlet 251 197 15 0;#P button 63 340 15 0;#P newex 63 376 104 196617 pack mov 0 0 0 0 0 0;#P newex 135 310 65 196617 unpack 0 0 0;#P newex 63 310 65 196617 unpack 0 0 0;#P newex 63 404 286 196617 sprintf write %s%s%s%s_%s.%s.%s.mov 30. raw max 600;#P newex 63 283 154 196617 date;#P message 63 260 51 196617 time \, date;#P outlet 63 464 15 0;#P comment 133 443 147 196617 write filename in the format =>;#P comment 153 462 146 196617 <prefix>-<date>_<time>.mov;#P comment 33 41 456 196617 //codec types \; raw \, cinepak \, graphics \, animation \, video \, componentvideo \, jpeg \, mjpega \, mjpegb \, sgi \, planarrgb \, macpaint \, gif \, photocd \, qdgx \, avrjpeg \, opendmljpeg \, bmp \, winraw \, vector \, qd \, h261 \, h263 \, dvntsc \, dvpal \, dvprontsc \, dvpropal \, flc \, targa \, png \, tiff \, componentvideosigned \, componentvideounsigned \, cmyk \, microsoft \, sorenson \, indeo4 \, argb64 \, rgb48 \, alphagrey32 \, grey16 \, mpegyuv420 \, yuv420 \, sorensonyuv9 \; \; //codec qualities \; lossless \, max \, min \, low \, normal \, high \;;#P inlet 63 197 15 0;#P button 63 226 15 0;#P connect 1 0 0 0;#P connect 0 0 6 0;#P connect 6 0 7 0;#P connect 7 0 9 0;#P connect 9 0 12 0;#P connect 12 0 11 0;#P fasten 14 0 11 0 256 368 68 368;#P connect 11 0 8 0;#P connect 8 0 5 0;#P connect 9 2 11 1;#P connect 9 0 11 2;#P connect 9 1 11 3;#P connect 10 0 11 4;#P connect 7 1 10 0;#P connect 10 1 11 5;#P connect 10 2 11 6;#P connect 13 0 14 0;#P pop;#P newobj 49 180 55 196617 p nameTag;#P user jit.fpsgui 49 322 60 196617 3;#P newex 49 142 40 196617 sel 1 0;#P toggle 49 99 34 0;#P user jit.pwindow 48 251 82 62 0 1 0 0 1 0;#P newex 218 143 45 196617 loadbang;#P toggle 218 166 15 0;#P message 218 188 61 196617 realtime \$1;#P window setfont "Fixedwidth Serif" 10.;#P newex 175 248 38 1441802 print;#P message 111 180 32 1441802 stop;#P newex 49 222 136 1441802 jit.qt.record 320 240;#B color 5;#P window setfont "Sans Serif" 9.;#P hidden newex 236 293 105 196617 bgcolor 220 255 240;#P window setfont Skia 14.;#P comment 273 347 68 133693454 ys.record;#B frgb 9 9 9;#P window setfont "Sans Serif" 9.;#P newex 94 91 45 196617 loadbang;#P message 94 115 63 196617 $1;#P connect 19 0 20 0;#P connect 20 0 11 0;#P connect 11 0 12 0;#P connect 12 0 14 0;#P fasten 25 0 4 0 32 212 54 212;#P fasten 7 0 4 0 223 213 54 213;#P fasten 5 0 4 0 116 213 54 213;#P fasten 20 1 4 0 92 213 54 213;#P connect 14 0 4 0;#P fasten 18 0 4 0 154 213 54 213;#P connect 4 0 10 0;#P connect 10 0 13 0;#P connect 1 0 0 0;#P connect 0 0 14 1;#P fasten 12 1 5 0 69 169 116 169;#P connect 26 0 17 0;#P hidden connect 14 0 16 0;#P hidden connect 16 0 24 0;#P connect 17 1 18 0;#P hidden connect 24 0 15 0;#P connect 4 1 6 0;#P connect 9 0 8 0;#P connect 8 0 7 0;#P connect 1 0 26 0;#P connect 18 0 22 0;#P connect 22 0 21 0;#P pop 1;#P newobj 364 884 99 196617 p ys.record.flexible;#P message 49 774 14 196617 0;#P message 50 803 55 196617 border \$1;#P message 162 806 68 196617 fullscreen \$1;#P toggle 145 806 15 0;#P newex 187 781 35 196617 sel 27;#P newex 145 781 40 196617 key;#P newex 143 840 184 196617 jit.window @rect 2124 450 2746 690;#B color 5;#P window linecount 2;#P comment 234 797 253 196617 type esc to toggle fullscreen. the previous window size is still remembered and used for interpolation.;#P window linecount 1;#P newex 26 177 48 196617 loadbang;#P message 53 241 70 196617 size 640 240;#P message 67 221 68 196617 dim 640 240;#N vpatcher 39 133 1719 1135;#P origin 0 7;#N comlet open;#P inlet 591 47 15 0;#P inlet 619 46 15 0;#P outlet 781 851 15 0;#P window setfont "Sans Serif" 9.;#P flonum 384 36 35 9 0 0 0 3 0 0 0 221 221 221 222 222 222 0 0 0;#P message 384 55 41 196617 gain \$1;#P message 430 55 40 196617 getgain;#P message 312 55 54 196617 getvolume;#P flonum 253 35 35 9 0 0 0 3 0 0 0 221 221 221 222 222 222 0 0 0;#P message 253 55 55 196617 volume \$1;#P window linecount 2;#P comment 240 73 175 196617 note: volume control may not have a gradual effect with DV sources.;#P toggle 146 90 15 0;#P window linecount 1;#P message 146 108 72 196617 snd_active \$1;#P comment 149 125 73 196617 master switch;#P message 1007 169 14 196617 5;#P newex 1531 802 48 196617 loadbang;#P window setfont "Fixedwidth Serif" 10.;#P newex 597 230 32 1441802 r m2;#P newex 19 228 32 1441802 r m1;#P window setfont Times 10.;#P window linecount 3;#P comment 1568 868 37 1310730 jit.qball bypass switch.;#P user gswitch2 1529 872 39 32 0 0;#P window linecount 1;#P comment 1538 737 42 1310730 Movie 2;#P comment 1538 525 42 1310730 Movie 1;#P comment 1545 828 27 1310730 Start;#P window setfont "Fixedwidth Serif" 10.;#P newex 1571 575 53 1441802 loadbang;#P message 1542 608 20 1441802 1.;#P message 1542 398 20 1441802 1.;#P message 1498 608 14 1441802 0;#P message 1454 608 26 1441802 160;#P message 1498 398 14 1441802 0;#P message 1455 398 34 1441802 -160;#P newex 1571 364 53 1441802 loadbang;#P window setfont Times 10.;#P comment 1417 844 110 1310730 Which movie goes on top;#P window setfont "Fixedwidth Serif" 10.;#P window linecount 4;#P message 1529 956 73 1441802 \; m1 bang \; m2 bang \; output bang;#P message 1449 956 73 1441802 \; m2 bang \; m1 bang \; output bang;#P window linecount 1;#P newex 854 764 53 1441802 r output;#P newex 1395 455 53 1441802 r movie1;#P newex 42 486 53 1441802 s movie1;#P newex 1395 665 53 1441802 r movie2;#P newex 608 485 53 1441802 s movie2;#P window setfont Times 10.;#P comment 1549 627 27 1310730 scale;#P comment 1505 627 40 1310730 y origin;#P comment 1461 627 40 1310730 x origin;#P window setfont "Fixedwidth Serif" 10.;#P flonum 1542 642 35 10 0 0 0 22 0 0 0 221 221 221 222 222 222 0 0 0;#P number 1498 642 35 10 0 0 0 22 0 0 0 221 221 221 222 222 222 0 0 0;#P number 1454 644 35 10 0 0 0 22 0 0 0 221 221 221 222 222 222 0 0 0;#N vpatcher 40 55 408 338;#P origin 0 10;#P window setfont Times 10.;#P comment 208 69 117 1310730 Scaling factor gets multiplied by 320 x 240 to determine size of the area in the destination matrix;#P outlet 26 221 15 0;#P window setfont "Fixedwidth Serif" 10.;#P newex 114 94 38 1441802 t b f;#P newex 158 96 38 1441802 t b f;#N comlet scale;#P inlet 114 24 15 0;#P newex 158 131 38 1441802 + 0.;#P newex 114 131 38 1441802 + 0.;#P newex 158 68 43 1441802 * 240.;#P newex 114 68 43 1441802 * 320.;#P newex 26 164 144 1441802 pak 0 0 0 0;#N comlet y origin;#P inlet 70 24 15 0;#N comlet x origin;#P inlet 26 24 15 0;#P message 26 195 212 1441802 dstdimstart \$1 \$2 \, dstdimend \$3 \$4;#P user panel 20 18 313 225;#X brgb 128 128 255;#X frgb 0 0 0;#X border 0;#X rounded 0;#X shadow 0;#X done;#P connect 2 0 4 0;#P connect 4 0 1 0;#P connect 1 0 12 0;#P connect 3 0 4 1;#P connect 9 0 5 0;#P connect 5 0 11 0;#P fasten 2 0 7 0 31 124 119 124;#P connect 11 0 7 0;#P connect 7 0 4 2;#P connect 11 1 7 1;#P fasten 9 0 6 0 119 53 163 53;#P connect 6 0 10 0;#P fasten 3 0 8 0 75 118 163 118;#P connect 10 0 8 0;#P connect 8 0 4 3;#P connect 10 1 8 1;#P pop;#P newobj 1454 665 99 1441802 p coords;#P window setfont Times 10.;#P comment 1549 417 27 1310730 scale;#P comment 1505 417 40 1310730 y origin;#P comment 1461 417 40 1310730 x origin;#P window setfont "Fixedwidth Serif" 10.;#P flonum 1542 432 35 10 0 0 0 22 0 0 0 221 221 221 222 222 222 0 0 0;#P number 1498 432 35 10 0 0 0 22 0 0 0 221 221 221 222 222 222 0 0 0;#P number 1455 433 35 10 0 0 0 22 0 0 0 221 221 221 222 222 222 0 0 0;#N vpatcher 40 55 408 338;#P origin 0 10;#P window setfont Times 10.;#P comment 208 69 117 1310730 Scaling factor gets multiplied by 320 x 240 to determine size of the area in the destination matrix;#P outlet 26 221 15 0;#P window setfont "Fixedwidth Serif" 10.;#P newex 114 94 38 1441802 t b f;#P newex 158 96 38 1441802 t b f;#N comlet scale;#P inlet 114 24 15 0;#P newex 158 131 38 1441802 + 0.;#P newex 114 131 38 1441802 + 0.;#P newex 158 68 43 1441802 * 240.;#P newex 114 68 43 1441802 * 320.;#P newex 26 164 144 1441802 pak 0 0 0 0;#N comlet y origin;#P inlet 70 24 15 0;#N comlet x origin;#P inlet 26 24 15 0;#P message 26 195 212 1441802 dstdimstart \$1 \$2 \, dstdimend \$3 \$4;#P user panel 20 18 313 225;#X brgb 128 128 255;#X frgb 0 0 0;#X border 0;#X rounded 0;#X shadow 0;#X done;#P connect 2 0 4 0;#P connect 4 0 1 0;#P connect 1 0 12 0;#P connect 3 0 4 1;#P connect 9 0 5 0;#P connect 5 0 11 0;#P connect 11 0 7 0;#P fasten 2 0 7 0 31 124 119 124;#P connect 7 0 4 2;#P connect 11 1 7 1;#P fasten 9 0 6 0 119 53 163 53;#P connect 6 0 10 0;#P connect 10 0 8 0;#P fasten 3 0 8 0 75 118 163 118;#P connect 8 0 4 3;#P connect 10 1 8 1;#P pop;#P newobj 1454 455 99 1441802 p coords;#P newex 854 788 62 1441802 t clear b;#P newex 1529 907 62 1441802 jit.qball;#B color 5;#P newex 854 814 128 1441802 jit.matrix composite;#B color 5;#P message 1449 861 14 1441802 2;#P message 1423 861 14 1441802 1;#P newex 1449 929 90 1441802 gate 2 1;#P newex 1454 690 203 1441802 jit.matrix composite @usedstdim 1;#B color 5;#P user jit.pwindow 148 565 642 242 0 1 0 0 1 0;#P toggle 1529 827 15 0;#P newex 1529 849 53 1441802 metro 50;#P newex 1454 480 203 1441802 jit.matrix composite @usedstdim 1;#B color 5;#P user jit.pwindow 1453 503 82 62 0 1 0 0 1 0;#P user jit.pwindow 1453 713 82 62 0 1 0 0 1 0;#P user panel 1415 826 197 184;#X brgb 255 255 128;#X frgb 0 0 0;#X border 0;#X rounded 0;#X shadow 0;#X done;#P button 496 22 15 0;#P window setfont "Sans Serif" 9.;#P message 972 170 14 196617 1;#P message 440 167 14 196617 0;#P newex 505 126 61 196617 delay 1000;#P newex 496 53 48 196617 loadbang;#P window setfont "Fixedwidth Serif" 10.;#P newex 897 336 50 1441802 t clear;#P newex 1067 336 50 1441802 t clear;#P message 972 382 53 1441802 input \$1;#P user ubumenu 972 361 145 1441802 0 1 1 0;#X add QuickCam;#X prefix_set 0 0 <none> 0;#X pattrmode 1;#P newex 972 336 92 1441802 prepend append;#P newex 972 313 32 1441802 iter;#P message 835 229 80 1441802 getinputlist;#P newex 1134 305 38 1441802 print;#P user jit.fpsgui 632 445 60 1441802 0;#P message 802 382 68 1441802 vdevice \$1;#P user ubumenu 802 361 145 1441802 0 1 1 0;#X add QuickCam;#X add "DVCPRO HD (1080i50)";#X add "DVCPRO HD (1080i60)";#X add "DVCPRO HD (720p60)";#X add "DV Video";#X add "IIDC FireWire Video";#X add "USB Video Class Video";#X prefix_set 0 0 <none> 0;#X pattrmode 1;#P newex 802 336 92 1441802 prepend append;#P newex 802 313 32 1441802 iter;#P message 760 229 73 1441802 getvdevlist;#P newex 744 282 152 1441802 route vdevlist inputlist;#P user jit.pwindow 631 312 162 122 0 1 0 0 1 0;#P toggle 632 209 15 0;#P newex 632 229 50 1441802 metro 2;#P message 720 229 38 1441802 close;#P message 685 229 32 1441802 open;#P newex 632 256 122 1441802 jit.qt.grab 320 240;#B color 5;#P comment 613 185 51 1441802 cam $2;#P newex 318 336 50 1441802 t clear;#P newex 488 336 50 1441802 t clear;#P message 393 382 53 1441802 input \$1;#P user ubumenu 393 361 145 1441802 0 1 1 0;#X add QuickCam;#X prefix_set 0 0 <none> 0;#X pattrmode 1;#P newex 393 336 92 1441802 prepend append;#P newex 393 313 32 1441802 iter;#P message 256 229 80 1441802 getinputlist;#P newex 555 305 38 1441802 print;#P user jit.fpsgui 53 445 60 1441802 0;#P message 223 382 68 1441802 vdevice \$1;#P user ubumenu 223 361 145 1441802 0 1 1 0;#X add QuickCam;#X add "DVCPRO HD (1080i50)";#X add "DVCPRO HD (1080i60)";#X add "DVCPRO HD (720p60)";#X add "DV Video";#X add "IIDC FireWire Video";#X add "USB Video Class Video";#X prefix_set 0 0 <none> 0;#X pattrmode 1;#P newex 223 336 92 1441802 prepend append;#P newex 223 313 32 1441802 iter;#P message 181 229 73 1441802 getvdevlist;#P newex 165 282 152 1441802 route vdevlist inputlist;#P user jit.pwindow 75 307 162 122 0 1 0 0 1 0;#P toggle 53 209 15 0;#P newex 53 229 50 1441802 metro 2;#P message 141 229 38 1441802 close;#P message 106 229 32 1441802 open;#P newex 53 256 122 1441802 jit.qt.grab 320 240;#B color 5;#P comment 28 187 66 1441802 cam $1;#P user panel 28 205 569 271;#X brgb 192 192 128;#X frgb 0 0 0;#X border 0;#X rounded 0;#X shadow 0;#X done;#P background;#P user panel 604 204 569 271;#X brgb 192 192 128;#X frgb 0 0 0;#X border 0;#X rounded 0;#X shadow 0;#X done;#P background;#P connect 3 0 81 0;#P connect 115 0 7 0;#P fasten 47 0 7 0 510 159 58 159;#P connect 7 0 6 0;#P connect 105 0 3 0;#P fasten 21 0 3 0 398 440 33 440 33 252 58 252;#P fasten 17 0 3 0 261 252 58 252;#P connect 6 0 3 0;#P fasten 5 0 3 0 146 252 58 252;#P fasten 4 0 3 0 111 252 58 252;#P fasten 10 0 3 0 186 252 58 252;#P fasten 14 0 3 0 228 437 37 437 37 252 58 252;#P connect 100 0 3 0;#P connect 108 0 3 0;#P connect 112 0 3 0;#P connect 8 0 15 0;#P connect 116 0 4 0;#P fasten 47 0 4 0 510 186 111 186;#P connect 115 0 5 0;#P connect 47 0 106 0;#P connect 106 0 105 0;#P connect 3 1 9 0;#P fasten 46 0 10 0 501 149 186 149;#P fasten 9 0 11 0 170 306 228 306;#P connect 11 0 12 0;#P connect 103 0 13 0;#P fasten 23 0 13 0 323 357 228 357;#P connect 12 0 13 0;#P connect 13 0 14 0;#P connect 47 0 109 0;#P connect 109 0 108 0;#P fasten 46 0 17 0 501 149 261 149;#P fasten 9 0 23 0 170 306 323 306;#P connect 47 0 113 0;#P connect 113 0 112 0;#P fasten 9 1 18 0 241 302 398 302;#P connect 18 0 19 0;#P fasten 48 0 20 0 445 204 398 204;#P fasten 22 0 20 0 493 357 398 357;#P connect 19 0 20 0;#P connect 20 0 21 0;#P fasten 47 0 48 0 510 155 445 155;#P fasten 9 1 22 0 241 302 493 302;#P connect 50 0 46 0;#P fasten 46 0 47 0 501 98 510 98;#P fasten 9 2 16 0 312 302 560 302;#P connect 25 0 79 0;#P connect 115 0 29 0;#P fasten 47 0 29 0 510 176 637 176;#P connect 29 0 28 0;#P fasten 36 0 25 0 807 437 616 437 616 252 637 252;#P fasten 32 0 25 0 765 252 637 252;#P fasten 26 0 25 0 690 252 637 252;#P fasten 27 0 25 0 725 252 637 252;#P connect 28 0 25 0;#P fasten 39 0 25 0 840 252 637 252;#P fasten 43 0 25 0 977 440 612 440 612 252 637 252;#P connect 101 0 25 0;#P connect 105 0 25 0;#P connect 30 0 37 0;#P connect 116 0 26 0;#P fasten 47 0 26 0 510 164 690 164;#P connect 115 0 27 0;#P connect 25 1 31 0;#P fasten 46 0 32 0 501 149 765 149;#P connect 62 0 114 0;#P fasten 31 0 33 0 749 306 807 306;#P connect 33 0 34 0;#P connect 103 0 35 0;#P connect 34 0 35 0;#P fasten 45 0 35 0 902 357 807 357;#P connect 35 0 36 0;#P fasten 46 0 39 0 501 149 840 149;#P connect 83 0 64 0;#P connect 64 0 62 0;#P fasten 64 1 62 0 911 810 859 810;#P fasten 31 0 45 0 749 306 902 306;#P fasten 47 0 49 0 510 157 977 157;#P fasten 31 1 40 0 820 302 977 302;#P connect 40 0 41 0;#P connect 49 0 42 0;#P connect 41 0 42 0;#P fasten 44 0 42 0 1072 357 977 357;#P connect 42 0 43 0;#P connect 47 0 103 0;#P fasten 31 1 44 0 820 302 1072 302;#P fasten 31 2 38 0 891 302 1139 302;#P connect 61 0 59 0;#P fasten 60 0 59 0 1428 888 1454 888;#P connect 59 0 84 0;#P connect 66 0 65 0;#P connect 65 0 54 0;#P fasten 82 0 54 0 1400 476 1459 476;#P fasten 94 0 90 0 1576 600 1459 600;#P connect 90 0 73 0;#P connect 73 0 72 0;#P connect 72 0 58 0;#P fasten 80 0 58 0 1400 686 1459 686;#P fasten 87 0 88 0 1576 390 1460 390;#P connect 88 0 66 0;#P fasten 87 0 89 0 1576 390 1503 390;#P connect 89 0 67 0;#P connect 67 0 65 1;#P fasten 94 0 91 0 1576 600 1503 600;#P connect 91 0 74 0;#P connect 74 0 72 1;#P connect 115 0 56 0;#P connect 102 0 56 0;#P connect 56 0 55 0;#P connect 98 0 63 0;#P connect 63 0 59 1;#P fasten 98 1 59 1 1563 905 1593 905 1593 927 1534 927;#P connect 59 1 85 0;#P fasten 87 0 92 0 1576 390 1547 390;#P connect 92 0 68 0;#P connect 68 0 65 2;#P fasten 94 0 93 0 1576 600 1547 600;#P connect 93 0 75 0;#P connect 75 0 72 2;#P fasten 55 0 98 1 1534 869 1563 869;#P pop;#P newobj 79 199 81 196617 p multiCamGrab;#P window setfont Skia 12.;#P window linecount 3;#P comment 598 674 120 133693452 utility to cut the top and the bottom for projection;#P window linecount 1;#P comment 164 366 45 133693452 border;#B frgb 0 116 96;#P comment 357 349 62 133693452 threshold;#B frgb 0 116 96;#P comment 148 331 86 133693452 discrete index;#B frgb 248 0 41;#P comment 265 330 86 133693452 gradient index;#B frgb 248 0 41;#P comment 306 258 74 133693452 navierstokes;#B frgb 248 0 41;#P window linecount 2;#P comment 259 217 115 133693452 index for timespace coming from..;#B frgb 248 0 41;#P window linecount 1;#P comment 221 257 74 133693452 pixelweight;#B frgb 248 0 41;#P user gswitch2 228 326 39 32 1 0;#P user gswitch 275 249 41 32 0 0;#P window setfont "Sans Serif" 9.;#P newex 488 693 85 196617 ys.windowcutter;#P message 488 634 69 196617 size 640 480;#P user jit.fpsgui 75 118 60 196617 3;#P newex 257 294 175 196617 jit.matrix 1 char 320 240 @interp 1;#P message 297 51 65 196617 dim 640 480;#P message 297 34 65 196617 dim 320 240;#P user jit.fpsgui 339 698 60 196617 3;#P user jit.fpsgui 168 431 60 196617 3;#P newex 488 668 103 196617 ys.windowcutter640;#P message 185 382 14 196617 1;#P message 168 403 58 196617 x \$1 \, y \$1;#P message 168 382 14 196617 0;#P newex 228 402 95 196617 jit.avg4 @x 1 @y 1;#P message 602 146 32 196617 clear;#P flonum 460 394 35 9 0 0 0 3 0 0 0 221 221 221 222 222 222 0 0 0;#P flonum 460 357 35 9 0 0 0 3 0 0 0 221 221 221 222 222 222 0 0 0;#P flonum 460 374 35 9 0 0 0 3 0 0 0 221 221 221 222 222 222 0 0 0;#P message 500 394 69 196617 saturation \$1;#P message 500 357 70 196617 brightness \$1;#P message 500 374 61 196617 contrast \$1;#P user jit.pwindow 492 422 82 62 0 1 0 0 1 0;#P newex 579 397 123 196617 jit.brcosa @brightness 2.;#P number 320 348 35 9 0 0 0 3 0 0 0 221 221 221 222 222 222 0 0 0;#P user jit.pwindow 259 431 82 62 0 1 0 0 1 0;#P newex 228 370 102 196617 jit.op @op > @val 14;#P user jit.pwindow 142 529 82 62 0 1 0 0 1 0;#P newex 579 514 62 196617 jit.op @op -;#P newex 143 475 95 196617 ys.jit.timespace;#P newex 740 273 64 196617 jit.op @op *;#P newex 579 217 175 196617 jit.matrix 4 char 320 240 @interp 1;#P newex 456 732 55 196617 ys.window;#P user jit.pwindow 346 595 82 62 0 1 0 0 1 0;#P newex 304 558 63 196617 jit.op @op +;#P user jit.pwindow 739 368 82 62 0 1 0 0 1 0;#P newex 740 337 53 196617 jit.pack;#P newex 740 300 115 196617 pixelweight-instrument;#P user jit.pwindow 465 216 82 62 0 1 0 0 1 0;#P newex 579 169 121 196617 navierstokes-instrument;#P user jit.pwindow 464 139 82 62 0 1 0 0 1 0;#P message 194 43 32 196617 close;#P user jit.fpsgui 275 698 60 196617 0;#P message 163 43 29 196617 open;#P newex 579 115 65 196617 jit.rgb2luma;#P toggle 143 43 15 0;#P newex 143 69 45 196617 ys.video;#P connect 58 0 66 0;#P connect 66 0 65 0;#P connect 58 0 57 0;#P connect 58 0 56 0;#P connect 0 0 42 0;#P connect 40 0 0 0;#P connect 1 0 0 0;#P connect 3 0 0 0;#P connect 5 0 0 0;#P connect 39 0 0 0;#P connect 0 0 17 0;#P connect 55 0 17 0;#P connect 12 0 60 0;#P fasten 64 0 60 0 167 830 148 830;#P connect 65 0 60 0;#P fasten 62 0 63 0 192 803 150 803;#P fasten 63 0 64 0 161 821 161 806;#P connect 35 0 34 0;#P connect 33 0 34 0;#P connect 32 0 37 0;#P fasten 61 0 62 0 186 798 186 783;#P connect 46 0 20 0;#P connect 20 0 32 0;#P connect 34 0 32 0;#P connect 32 0 17 1;#P connect 46 1 17 1;#P connect 56 0 41 0;#P connect 45 0 41 0;#P connect 39 0 41 0;#P connect 40 0 41 0;#P connect 41 0 46 1;#P connect 12 0 4 0;#P connect 9 0 45 1;#P connect 17 0 12 0;#P connect 7 0 45 2;#P connect 22 0 20 1;#P connect 12 0 38 0;#P connect 18 0 12 1;#P connect 12 0 67 0;#P connect 68 0 67 1;#P connect 36 0 14 0;#P connect 43 0 14 0;#P connect 44 0 14 0;#P connect 29 0 26 0;#P connect 28 0 25 0;#P connect 30 0 27 0;#P connect 0 0 2 0;#P connect 55 0 2 0;#P connect 31 0 7 0;#P connect 2 0 7 0;#P connect 7 0 15 0;#P connect 15 0 23 0;#P connect 27 0 23 0;#P connect 25 0 23 0;#P connect 26 0 23 0;#P connect 23 0 18 0;#P connect 10 0 18 1;#P connect 15 0 16 0;#P connect 16 1 9 0;#P connect 16 0 9 0;#P connect 9 0 10 0;#P connect 9 0 10 3;#P connect 15 0 16 1;#P pop;