max v2;#N vpatcher 99 56 550 718;#P window setfont "Sans Serif" 9.;#P newex 277 183 30 196617 + 40;#P newex 349 182 30 196617 + 80;#P inlet 89 48 15 0;#P inlet 331 48 15 0;#P inlet 258 48 15 0;#P inlet 183 48 15 0;#P inlet 64 48 15 0;#P outlet 164 606 15 0;#P newex 164 250 34 196617 t b l;#P newex 164 393 34 196617 zl reg;#P newex 164 331 92 196617 uzi 3;#P newex 246 433 27 196617 + 1;#P newex 40 417 71 196617 prepend write;#P message 164 555 71 196617 moveto \$1 \$2;#P newex 164 526 49 196617 pack 0 0;#P newex 40 386 33 196617 zl nth;#P newex 164 495 33 196617 zl nth;#P number 286 457 35 9 0 0 0 3 0 0 0 221 221 221 222 222 222 0 0 0;#P number 246 457 35 9 0 0 0 3 0 0 0 221 221 221 222 222 222 0 0 0;#P newex 286 433 27 196617 + 2;#P newex 246 405 27 196617 * 2;#P newex 203 495 33 196617 zl nth;#P newex 246 383 27 196617 - 1;#P newex 40 357 34 196617 zl reg;#P number 246 357 35 9 0 0 0 3 0 0 0 221 221 221 222 222 222 0 0 0;#P number 246 306 35 9 0 0 0 3 0 0 0 221 221 221 222 222 222 0 0 0;#P newex 246 280 32 196617 zl len;#P message 164 231 95 196617 \$1 \$2 \$3 \$4 \$5 \$6;#P number 331 111 35 9 0 0 0 3 0 0 0 221 221 221 222 222 222 0 0 0;#P number 258 111 35 9 0 0 0 3 0 0 0 221 221 221 222 222 222 0 0 0;#P number 183 111 35 9 0 0 0 3 0 0 0 221 221 221 222 222 222 0 0 0;#P newex 275 139 32 196617 mavg;#P newex 239 139 32 196617 mavg;#P number 275 164 35 9 0 0 0 3 0 0 0 221 221 221 222 222 222 0 0 0;#P number 239 164 35 9 0 0 0 3 0 0 0 221 221 221 222 222 222 0 0 0;#P newex 350 139 32 196617 mavg;#P newex 314 139 32 196617 mavg;#P newex 200 139 32 196617 mavg;#P newex 164 139 32 196617 mavg;#P newex 89 94 46 196617 unpack;#P number 350 164 35 9 0 0 0 3 0 0 0 221 221 221 222 222 222 0 0 0;#P number 314 164 35 9 0 0 0 3 0 0 0 221 221 221 222 222 222 0 0 0;#P number 200 164 35 9 0 0 0 3 0 0 0 221 221 221 222 222 222 0 0 0;#P number 164 164 35 9 0 0 0 3 0 0 0 221 221 221 222 222 222 0 0 0;#P number 125 164 35 9 0 0 0 3 0 0 0 221 221 221 222 222 222 0 0 0;#P number 89 164 35 9 0 0 0 3 0 0 0 221 221 221 222 222 222 0 0 0;#P newex 164 211 82 196617 pack 0 0 0 0 0 0;#P fasten 36 0 23 0 169 352 45 352;#P connect 23 0 31 0;#P connect 31 0 34 0;#P fasten 22 0 31 1 251 378 68 378;#P connect 40 0 23 1;#P connect 44 0 7 0;#P connect 7 0 1 0;#P connect 7 1 2 0;#P connect 1 0 8 0;#P connect 8 0 3 0;#P connect 3 0 0 0;#P connect 0 0 19 0;#P connect 19 0 38 0;#P connect 38 0 36 0;#P connect 36 0 37 0;#P connect 37 0 30 0;#P connect 30 0 32 0;#P connect 32 0 33 0;#P connect 33 0 39 0;#P fasten 34 0 39 0 45 581 169 581;#P connect 4 0 0 1;#P connect 41 0 16 0;#P connect 16 0 8 1;#P fasten 28 0 30 1 251 482 192 482;#P connect 38 1 37 1;#P connect 12 0 0 2;#P connect 2 0 9 0;#P connect 9 0 4 0;#P fasten 37 0 25 0 169 434 208 434;#P connect 25 0 32 1;#P connect 46 0 0 3;#P connect 5 0 0 4;#P connect 16 0 9 1;#P fasten 29 0 25 1 291 487 231 487;#P connect 45 0 0 5;#P connect 3 0 14 0;#P connect 14 0 12 0;#P fasten 40 0 20 0 69 273 251 273;#P connect 20 0 21 0;#P connect 21 0 36 1;#P connect 36 2 22 0;#P connect 22 0 24 0;#P connect 24 0 26 0;#P connect 26 0 35 0;#P connect 35 0 28 0;#P connect 42 0 17 0;#P connect 17 0 14 1;#P connect 4 0 15 0;#P connect 15 0 13 0;#P connect 13 0 46 0;#P fasten 26 0 27 0 251 427 291 427;#P connect 27 0 29 0;#P connect 17 0 15 1;#P connect 12 0 10 0;#P connect 10 0 5 0;#P connect 43 0 18 0;#P connect 18 0 10 1;#P connect 6 0 45 0;#P connect 13 0 11 0;#P connect 11 0 6 0;#P connect 18 0 11 1;#P pop;