max v2;#N vpatcher 35 52 1002 770;#P origin 51 16;#P number 78 198 35 9 0 0 0 3 0 0 0 156 179 255 222 222 222 0 0 0;#P newex 114 226 63 196617 drunk 100 2;#P user jit.fpsgui 590 636 60 196617 0;#P newex 315 165 45 196617 loadbang;#P flonum 419 532 35 9 0 0 0 3 0 0 0 156 179 255 222 222 222 0 0 0;#P newex 287 553 63 196617 jit.op @op *;#P newex 24 319 45 196617 loadbang;#P user jit.pwindow 13 432 82 62 0 1 0 0 1 0;#P newex 182 181 28 196617 pack;#P newex 263 283 66 196617 spring;#P message 263 193 51 196617 Yo ichi ro;#P message 263 230 35 196617 a lo ha;#P message 24 341 90 196617 frgb 255 255 255;#P message 263 211 45 196617 ma ha lo;#P newex 249 137 63 196617 drunk 240 5;#P newex 182 137 63 196617 drunk 320 5;#P number 249 160 35 9 0 0 0 3 0 0 0 221 221 221 222 222 222 0 0 0;#P number 222 86 35 9 0 0 0 3 0 0 0 221 221 221 222 222 222 0 0 0;#P number 182 159 35 9 0 0 0 3 0 0 0 221 221 221 222 222 222 0 0 0;#P toggle 182 77 15 0;#P newex 182 107 50 196617 metro 10;#P number 365 256 35 9 0 0 0 3 0 0 0 156 179 255 222 222 222 0 0 0;#P number 328 256 35 9 0 0 0 3 0 0 0 156 179 255 222 222 222 0 0 0;#P number 291 256 35 9 0 0 0 3 0 0 0 156 179 255 222 222 222 0 0 0;#P newex 287 503 85 196617 jit.matrix heated;#P newex 287 529 95 196617 jit.avg4 @x 1 @y 1;#P number 114 248 35 9 0 0 0 3 0 0 0 156 179 255 222 222 222 0 0 0;#P newex 50 268 75 196617 pak font Skia 1;#P flonum 853 268 35 9 0 0 0 3 0 0 0 156 179 255 222 222 222 0 0 0;#P newex 853 246 39 196617 * 0.01;#P slider 853 132 15 101 0 1;#P newex 590 354 40 196617 intrude;#P newex 47 561 43 1441802 sel 99;#P newex 47 537 40 1441802 key;#N vpreset 2;#X append 1 2 11 398 287 toggle int 1 \; 20 74 590 toggle int 1 \; 41 124 479 flonum float 1. \; 44 608 47 toggle int 0 \; 52 132 853 slider int 0 \; 54 268 853 flonum float;#X append 1 2 0. \; 56 248 114 number int 22 \; 59 256 291 number int 60 \; 60 256 328 number int 80 \; 61 256 365 number int 100 \; 63 77 182 toggle int 1 \; 64 159 182;#X append 1 2 number int 88 \; 65 86 222 number int 10 \; 66 160 249 number int 77 \; 78 532 419 flonum float 0.5 \;;#X append 2 2 11 398 287 toggle int 1 \; 20 74 590 toggle int 1 \; 64 159 182 number int 199 \; 61 256 365 number int 116 \; 60 256 328 number int 78 \; 59 256 291 number int;#X append 2 2 12 \; 41 124 479 flonum float 2.4 \; 44 608 47 toggle int 1 \;;#P preset 824 57 49 20;#P newex 641 29 45 196617 loadbang;#N vpatcher 70 173 805 672;#P message 389 87 14 196617 0;#P newex 389 66 45 196617 loadbang;#P user GSwitch2 389 209 39 32 0 0;#P comment 406 37 62 196617 key "esc" to fullscreen;#P inlet 373 33 15 0;#P message 166 149 20 196617 \$8;#P newex 166 169 27 196617 + 1;#P message 156 93 20 196617 \$3;#P newex 129 116 27 196617 gate;#P newex 146 44 61 196617 r mouseinfo;#B color 12;#P newex 96 255 32 196617 s np1;#B color 12;#P newex 129 255 32 196617 s np2;#B color 12;#P newex 96 230 43 196617 gate 2;#P number 96 207 35 9 0 0 0 3 0 0 0 221 221 221 222 222 222 0 0 0;#P message 129 149 35 196617 \$1 \$2;#P newex 146 67 63 196617 route mouse;#P button 404 332 15 0;#P newex 404 355 128 196617 pack mouse 0 0 0 0 0 0 0 0;#P newex 432 327 45 196617 * 0.313;#P newex 418 305 45 196617 * 0.313;#P newex 418 252 63 196617 route mouse;#P newex 418 276 110 196617 unpack 0 0 0 0 0 0 0 0;#P newex 389 390 61 196617 s mouseinfo;#P newex 373 169 55 196617 jit.window;#P newex 505 103 56 1441802 sel 0 1;#P message 507 124 97 1441802 \; max showmenubar;#P message 606 123 110 1441802 \; max hidemenubar;#P message 389 115 87 1441802 visible \$1 \, fullscreen \$1;#P toggle 476 82 15 0;#P newex 476 60 62 1441802 select 27;#P newex 476 33 40 1441802 key;#P fasten 24 0 17 0 171 198 101 198;#P connect 17 0 18 0;#P connect 18 0 20 0;#P connect 23 0 22 0;#P connect 22 0 16 0;#P connect 16 0 18 1;#P connect 18 1 19 0;#P connect 21 0 15 0;#P connect 15 0 22 1;#P connect 15 0 23 0;#P connect 22 0 25 0;#P connect 25 0 24 0;#P fasten 3 0 7 0 394 153 378 153;#P connect 26 0 7 0;#P connect 29 0 30 0;#P fasten 2 0 3 0 481 108 394 108;#P connect 30 0 3 0;#P fasten 2 0 28 0 481 196 394 196;#P fasten 13 0 8 0 409 381 394 381;#P connect 28 0 8 0;#P fasten 11 0 14 0 423 326 409 326;#P connect 14 0 13 0;#P connect 7 1 28 1;#P connect 28 1 10 0;#P connect 10 0 9 0;#P connect 9 0 11 0;#P connect 11 0 13 1;#P connect 9 1 12 0;#P connect 12 0 13 2;#P connect 9 2 13 3;#P connect 9 3 13 4;#P connect 9 4 13 5;#P connect 0 0 1 0;#P connect 1 0 2 0;#P connect 9 5 13 6;#P connect 9 6 13 7;#P connect 2 0 6 0;#P connect 6 0 5 0;#P connect 9 7 13 8;#P connect 6 1 4 0;#P pop;#P newobj 789 325 93 196617 p mouseandwindow;#P message 47 584 42 196617 setall 0;#P toggle 47 608 15 0;#P message 47 629 50 196617 interp \$1;#P newex 182 390 95 196617 jit.avg4 @x 1 @y 1;#P flonum 479 124 35 9 0 0 0 3 0 0 0 156 179 255 222 222 222 0 0 0;#P message 479 144 69 196617 saturation \$1;#P newex 590 172 52 196617 jit.brcosa;#P newex 182 410 64 196617 jit.rgb2luma;#P newex 112 103 46 196617 unpack;#P newex 369 290 45 196617 loadbang;#P message 369 314 88 196617 frgb 255 255 255 \, brgb 0 0 0 \, clear \, bang;#P newex 182 370 109 196617 jit.lcd 4 char 320 240;#P newex 112 81 32 196617 r np1;#B color 12;#P newex 182 204 52 196617 t b l clear;#P newex 590 260 26 1441802 t b;#P newex 590 288 79 1441802 jit.pack 4;#P newex 590 232 102 1441802 jit.unpack 4;#P newex 590 310 112 1441802 jit.alphablend;#B color 5;#P user jit.pwindow 494 214 82 62 0 1 0 0 1 0;#P user jit.pwindow 709 198 82 62 0 1 0 0 1 0;#P message 650 73 110 1441802 read excavate.jpg;#P message 641 54 133 1441802 read colorswatch.pict;#P message 655 116 32 1441802 stop;#P message 690 116 38 1441802 start;#P message 653 95 32 1441802 read;#P toggle 590 74 15 0;#P newex 590 96 53 1441802 metro 50;#P button 590 117 15 0;#P newex 590 142 103 196617 jit.qt.movie 320 240;#P newex 848 629 61 196617 s mouseinfo;#P newex 182 605 88 196617 jit.matrix heated;#P user jit.pwindow 589 381 322 242 0 1 0 0 1 0;#P comment 317 409 59 196617 heat on/off;#P newex 287 467 54 1441802 metro 20;#P toggle 287 398 28 0;#P newex 182 578 115 196617 jit.op @op max;#P newex 397 462 27 196617 b;#P newex 182 537 53 196617 jit.matrix;#P newex 380 491 27 196617 gate;#P newex 103 499 71 196617 sel 0 1;#P message 103 522 28 196617 pass;#P newex 103 546 55 196617 prepend op;#P message 133 522 27 196617 max;#P message 94 584 31 196617 clear;#P user jit.pwindow 307 574 82 62 0 1 0 0 1 0;#P comment 12 519 80 196617 key "c" to clear;#P fasten 38 0 75 0 187 430 19 430;#P connect 76 0 70 0;#P connect 49 0 50 0;#P connect 50 0 45 0;#P connect 44 0 43 0;#P connect 50 0 2 0;#P fasten 11 0 6 0 292 450 108 450;#P connect 6 0 5 0;#P connect 5 0 4 0;#P fasten 3 0 4 0 138 540 108 540;#P connect 33 0 37 0;#P fasten 62 0 81 0 187 131 119 131;#P connect 82 0 81 0;#P connect 81 0 56 0;#P connect 56 0 55 2;#P connect 6 1 3 0;#P connect 63 0 62 0;#P connect 62 0 67 0;#P connect 37 0 67 0;#P connect 67 0 64 0;#P connect 64 0 74 0;#P connect 74 0 32 0;#P connect 73 0 34 0;#P fasten 35 0 34 0 374 365 187 365;#P connect 55 0 34 0;#P connect 70 0 34 0;#P connect 32 0 34 0;#P fasten 32 2 34 0 229 231 187 231;#P connect 34 0 42 0;#P connect 42 0 38 0;#P connect 38 0 8 0;#P fasten 12 0 8 0 292 493 187 493;#P connect 8 0 10 0;#P fasten 4 0 10 0 108 572 187 572;#P connect 45 0 15 0;#P connect 43 0 15 0;#P connect 2 0 15 0;#P connect 10 0 15 0;#P fasten 66 0 74 1 254 178 205 178;#P connect 65 0 62 1;#P connect 62 0 68 0;#P connect 37 1 68 0;#P connect 68 0 66 0;#P connect 79 0 71 0;#P connect 71 0 73 0;#P connect 69 0 73 0;#P connect 72 0 73 0;#P connect 32 1 73 1;#P connect 11 0 12 0;#P connect 12 0 58 0;#P connect 7 0 58 0;#P connect 58 0 57 0;#P connect 57 0 77 0;#P connect 77 0 10 1;#P connect 59 0 73 2;#P connect 60 0 73 3;#P connect 77 0 1 0;#P connect 61 0 73 4;#P fasten 78 0 77 1 424 551 345 551;#P connect 36 0 35 0;#P fasten 11 0 7 0 292 452 385 452;#P fasten 38 0 9 0 187 434 402 434;#P connect 9 0 7 1;#P connect 41 0 40 0;#P fasten 15 0 27 0 187 644 486 644 486 210 500 210;#P connect 20 0 19 0;#P connect 19 0 18 0;#P connect 18 0 17 0;#P connect 23 0 17 0;#P connect 22 0 17 0;#P connect 21 0 17 0;#P connect 25 0 17 0;#P connect 24 0 17 0;#P connect 17 0 39 0;#P connect 40 0 39 0;#P connect 39 0 29 0;#P connect 29 0 31 0;#P fasten 27 0 30 0 500 282 595 282;#P connect 31 0 30 0;#P connect 30 0 28 0;#P connect 28 0 51 0;#P connect 51 0 14 0;#P connect 14 0 80 0;#P connect 29 1 30 1;#P connect 54 0 51 1;#P connect 29 2 30 2;#P connect 47 0 24 0;#P connect 29 3 30 3;#P fasten 29 0 28 1 595 257 697 257;#P connect 39 0 26 0;#P fasten 28 0 46 0 595 336 780 336 780 321 794 321;#P connect 14 1 16 0;#P connect 52 0 53 0;#P connect 53 0 54 0;#P pop;