max v2;#N vpatcher 356 143 902 757;#P origin 1 0;#P comment 187 168 166 196626 ys.jit.simple_test;#P comment 357 168 143 196617 Yoichiro Serita © 2003 Topological Media Lab;#P message 200 383 72 196617 99 61 31;#P newex 200 362 31 196617 show;#P message 122 383 72 196617 map 38 49 48;#P newex 122 362 31 196617 show;#P message 19 315 40 196617 getmap;#P message 19 296 45 196617 getmode;#P button 102 219 15 0;#P user GSwitch 73 239 41 32 0 0;#P message 213 294 72 196617 map 99 61 31;#P newex 213 273 31 196617 show;#P number 249 230 35 9 0 0 0 3 0 0 0 221 221 221 222 222 222 0 0 0;#P number 213 230 35 9 0 0 0 3 0 0 0 221 221 221 222 222 222 0 0 0;#P number 285 230 35 9 0 0 0 3 0 0 0 221 221 221 222 222 222 0 0 0;#P newex 213 251 71 196617 pak map 0 0 0;#P number 140 237 35 9 0 2 3 3 0 0 0 221 221 221 222 222 222 0 0 0;#P message 140 261 45 196617 mode \$1;#P newex 73 340 108 196617 ys.jit.simple @mode 1;#P user jit.pwindow 72 402 82 62 0 1 0 0 1 0;#P user jit.fpsgui 73 472 60 196617 2;#P user jit.pwindow 87 150 82 62 0 1 0 0 1 0;#P number 132 43 35 9 0 0 0 3 0 0 0 221 221 221 222 222 222 0 0 0;#P comment 103 74 36 1310730 On/Off;#P newex 230 42 53 1441802 loadbang;#P newex 144 74 80 1441802 sel 0 1;#P message 230 64 103 1441802 read redball.mov;#P message 144 96 32 1441802 stop;#P message 179 96 38 1441802 start;#P newex 88 95 53 1441802 metro 50;#P toggle 88 73 15 0;#P newex 88 120 128 1441802 jit.qt.movie 320 240;#P connect 16 0 13 0;#P connect 25 0 13 0;#P connect 24 0 13 0;#P connect 22 0 13 0;#P connect 14 0 13 0;#P connect 13 0 12 0;#P connect 12 0 11 0;#P connect 1 0 2 0;#P connect 2 0 0 0;#P fasten 5 0 0 0 235 116 93 116;#P fasten 4 0 0 0 149 116 93 116;#P fasten 3 0 0 0 184 116 93 116;#P connect 0 0 10 0;#P connect 10 0 22 1;#P connect 23 0 22 2;#P connect 13 1 26 0;#P connect 26 0 27 0;#P connect 9 0 2 1;#P connect 15 0 14 0;#P fasten 1 0 6 0 93 91 140 91 140 70 149 70;#P connect 6 0 4 0;#P connect 6 1 3 0;#P connect 28 0 29 0;#P connect 16 0 20 0;#P connect 20 0 21 0;#P connect 7 0 5 0;#P connect 18 0 16 1;#P connect 19 0 16 2;#P connect 17 0 16 3;#P pop;