max v2;#N vpatcher 68 80 1089 800;#P origin 0 -30;#P comment 66 29 213 196626 forcetest_0106;#P comment 281 29 143 196617 Yoichiro Serita © 2003 Topological Media Lab;#P message 254 590 27 196617 max;#P newex 224 614 55 196617 prepend op;#P message 224 590 28 196617 pass;#P newex 224 567 71 196617 sel 0 1;#P newex 501 559 27 196617 gate;#P newex 303 589 53 196617 jit.matrix;#N vpatcher 40 55 345 394;#P newex 66 40 61 196617 r mouseinfo;#B color 12;#P comment 135 290 100 196617 position by mouse;#P newex 33 282 32 196617 s np1;#B color 12;#P newex 66 282 32 196617 s np2;#B color 12;#P newex 33 257 43 196617 gate 2;#P number 33 234 35 9 0 0 0 3 0 0 0 221 221 221 222 222 222 0 0 0;#P newex 95 199 120 196617 if $i1 < $i2 then 1 else 2;#P newex 113 124 35 196617 r pos1;#B color 12;#P newex 95 149 28 196617 Lsub;#P newex 95 174 42 196617 L2norm;#P newex 223 124 35 196617 r pos2;#B color 12;#P newex 205 149 28 196617 Lsub;#P message 66 89 35 196617 \$1 \$2;#P newex 205 174 42 196617 L2norm;#P newex 66 63 63 196617 route mouse;#P fasten 8 0 9 0 100 228 38 228;#P connect 9 0 10 0;#P connect 10 0 12 0;#P connect 14 0 0 0;#P connect 0 0 2 0;#P connect 2 0 10 1;#P connect 10 1 11 0;#P fasten 2 0 6 0 71 113 100 113;#P connect 6 0 5 0;#P connect 5 0 8 0;#P connect 7 0 6 1;#P fasten 2 0 3 0 71 113 210 113;#P connect 3 0 1 0;#P connect 1 0 8 1;#P connect 4 0 3 1;#P pop;#P newobj 730 239 85 196617 p mouse_position;#P newex 303 738 48 196617 s display;#P newex 601 478 48 196617 r display;#P newex 518 534 27 196617 b;#P newex 911 747 61 196617 s mouseinfo;#P newex 303 710 88 196617 jit.matrix heated;#P newex 408 592 162 196617 jit.matrix heated 1 char 320 240;#P flonum 510 622 35 9 0 0 0 3 0 0 0 156 179 255 222 222 222 0 0 0;#P newex 408 645 112 196617 jit.op @op * @val 0.98;#P newex 303 684 115 196617 jit.op @op max;#P number 460 534 35 9 0 0 0 3 0 0 0 156 179 255 222 222 222 0 0 0;#P toggle 408 484 28 0;#P newex 408 558 62 1441802 metro 100;#P newex 408 620 55 196617 heat_0106;#P number 808 109 43 9 0 0 0 3 0 0 0 156 179 255 222 222 222 0 0 0;#P number 763 109 43 9 0 0 0 3 0 0 0 156 179 255 222 222 222 0 0 0;#P number 718 109 43 9 0 0 0 3 0 0 0 156 179 255 222 222 222 0 0 0;#P message 76 139 28 196617 bang;#P message 338 139 28 196617 bang;#P message 763 341 14 196617 1;#P newex 763 319 45 196617 loadbang;#P newex 673 157 27 196617 t b l;#P newex 673 135 146 196617 pak 0 0 0 0;#P newex 587 145 35 196617 r pos1;#B color 12;#P newex 625 145 35 196617 r pos2;#B color 12;#P message 420 188 35 196617 \$1 \$2;#P newex 329 88 48 196617 unpack;#P newex 329 66 32 196617 r np2;#B color 12;#P newex 420 207 35 196617 s pos2;#B color 12;#P newex 329 195 53 196617 t b b b l;#P number 367 111 35 9 0 0 0 3 0 0 0 255 227 23 222 222 222 0 0 0;#P number 329 111 35 9 0 0 0 3 0 0 0 255 227 23 222 222 222 0 0 0;#P newex 329 159 86 196617 pack 0 0 0;#P message 420 258 65 196617 offset \$1 \$2;#P number 405 111 35 9 0 0 0 3 0 0 0 156 179 255 222 222 222 0 0 0;#P newex 357 230 73 196617 selfforce1225;#P newex 343 334 155 196617 jit.matrix wow2 1 char 320 240;#P newex 357 289 74 196617 jit.fill wow2 0;#P comment 279 113 46 196617 (x2 \, y2);#P comment 444 111 53 196617 prameter2;#P message 160 187 35 196617 \$1 \$2;#P comment 721 91 58 196617 prameters;#P comment 561 97 61 196617 line (on/off);#N vpreset 10;#X append 1 2 9 111 142 number int 185 \; 12 111 66 number int 115 \; 13 111 104 number int 93 \; 20 109 673 number int 0 \; 65 109 808 number int 0 \; 34 113 570 toggle int;#X append 1 2 0 \; 45 111 405 number int 66 \; 48 111 329 number int 251 \; 49 111 367 number int 168 \;;#X append 2 2 9 111 142 number int 185 \; 12 111 66 number int 88 \; 13 111 104 number int 77 \; 20 109 673 number int 1000 \; 34 113 570 toggle int 1 \; 45 111 405 number int;#X append 2 2 66 \; 48 111 329 number int 251 \; 49 111 367 number int 168 \; 63 109 718 number int 800 \; 64 109 763 number int 1 \; 65 109 808 number int 1 \;;#X append 3 2 9 111 142 number int 185 \; 12 111 66 number int 88 \; 13 111 104 number int 67 \; 20 109 673 number int -1000 \; 34 113 570 toggle int 1 \; 45 111 405 number int;#X append 3 2 66 \; 48 111 329 number int 251 \; 49 111 367 number int 168 \; 63 109 718 number int 3000 \; 64 109 763 number int 2 \; 65 109 808 number int 1 \;;#X append 4 2 9 111 142 number int 185 \; 12 111 66 number int 103 \; 13 111 104 number int 109 \; 20 109 673 number int -426 \; 34 113 570 toggle int 1 \; 45 111 405 number int;#X append 4 2 66 \; 48 111 329 number int 257 \; 49 111 367 number int 174 \; 63 109 718 number int 6 \; 64 109 763 number int 1 \; 65 109 808 number int 5 \;;#X append 5 2 9 111 142 number int 185 \; 12 111 66 number int 98 \; 13 111 104 number int 85 \; 20 109 673 number int 43 \; 34 113 570 toggle int 1 \; 45 111 405 number int;#X append 5 2 66 \; 48 111 329 number int 241 \; 49 111 367 number int 182 \; 63 109 718 number int 6 \; 64 109 763 number int 2 \; 65 109 808 number int 7 \;;#X append 6 2 9 111 142 number int 185 \; 12 111 66 number int 147 \; 13 111 104 number int 89 \; 20 109 673 number int 78 \; 34 113 570 toggle int 1 \; 45 111 405 number int;#X append 6 2 66 \; 48 111 329 number int 228 \; 49 111 367 number int 168 \; 63 109 718 number int -73 \; 64 109 763 number int 1 \; 65 109 808 number int 7 \;;#X append 7 2 9 111 142 number int 185 \; 12 111 66 number int 152 \; 13 111 104 number int 105 \; 20 109 673 number int 109 \; 34 113 570 toggle int 1 \; 45 111 405 number int;#X append 7 2 66 \; 48 111 329 number int 228 \; 49 111 367 number int 168 \; 63 109 718 number int -33 \; 64 109 763 number int 4 \; 65 109 808 number int 4 \;;#X append 8 2 9 111 142 number int 185 \; 12 111 66 number int 221 \; 13 111 104 number int 169 \; 20 109 673 number int -36 \; 34 113 570 toggle int 1 \; 45 111 405 number int;#X append 8 2 66 \; 48 111 329 number int 92 \; 49 111 367 number int 74 \; 63 109 718 number int -33 \; 64 109 763 number int 4 \; 65 109 808 number int 3 \;;#X append 9 2 9 111 142 number int 185 \; 12 111 66 number int 100 \; 13 111 104 number int 85 \; 20 109 673 number int 48 \; 34 113 570 toggle int 1 \; 45 111 405 number int;#X append 9 2 66 \; 48 111 329 number int 254 \; 49 111 367 number int 182 \; 63 109 718 number int 5 \; 64 109 763 number int 12 \; 65 109 808 number int 2 \;;#X append 10 2 9 111 142 number int 185 \; 12 111 66 number int 213 \; 13 111 104 number int 169 \; 20 109 673 number int -97 \; 34 113 570 toggle int 1 \; 45 111 405 number int;#X append 10 2 66 \; 48 111 329 number int 93 \; 49 111 367 number int 79 \; 63 109 718 number int -47 \; 64 109 763 number int 3 \; 65 109 808 number int 5 \;;#P preset 763 362 66 29;#P message 512 334 55 196617 clear \, bang;#B color 9;#P toggle 570 113 29 0;#P newex 570 216 27 196617 gate;#P newex 66 88 48 196617 unpack;#P newex 66 66 32 196617 r np1;#B color 12;#P newex 160 206 35 196617 s pos1;#B color 12;#P newex 736 190 26 196617 s rd;#P newex 316 230 26 196617 s rd;#P newex 29 302 26 196617 r rd;#P user jit.pwindow 600 501 322 242 0 1 0 0 1 0;#P newex 518 448 62 196617 jit.op @op +;#P newex 587 190 144 196617 pak 0 0 0 0 0 0 0 0;#P user jit.pwindow 602 397 82 62 0 1 0 0 1 0;#P newex 570 240 40 196617 t b b l;#P message 648 299 65 196617 offset \$1 \$2;#P number 673 109 43 9 0 0 0 3 0 0 0 156 179 255 222 222 222 0 0 0;#P newex 585 275 73 196617 twoforce1225;#P newex 570 367 155 196617 jit.matrix wow3 1 char 320 240;#P newex 585 334 74 196617 jit.fill wow3 0;#P newex 291 413 62 196617 jit.op @op +;#P user jit.pwindow 377 362 82 62 0 1 0 0 1 0;#P newex 66 187 40 196617 t b b l;#P number 104 111 35 9 0 0 0 3 0 0 0 255 227 23 222 222 222 0 0 0;#P number 66 111 35 9 0 0 0 3 0 0 0 255 227 23 222 222 222 0 0 0;#P newex 66 159 86 196617 pack 0 0 0;#P message 144 252 65 196617 offset \$1 \$2;#P number 142 111 35 9 0 0 0 3 0 0 0 156 179 255 222 222 222 0 0 0;#P newex 81 224 73 196617 selfforce1225;#P newex 66 332 155 196617 jit.matrix wow1 1 char 320 240;#P newex 81 283 74 196617 jit.fill wow1 0;#P user jit.pwindow 65 360 82 62 0 1 0 0 1 0;#P comment 16 113 46 196617 (x1 \, y1);#P comment 181 111 53 196617 prameter1;#P comment 754 395 93 196620 1. double click preset;#P user panel 743 310 112 124;#X brgb 200 147 80;#X frgb 0 0 0;#X border 0;#X rounded 0;#X shadow 0;#X done;#P comment 346 491 59 196617 heat on/off;#P connect 31 0 32 0;#P connect 32 0 12 0;#P connect 12 0 11 0;#P connect 62 0 11 0;#P connect 11 0 14 0;#P fasten 27 0 7 0 34 327 71 327;#P connect 14 0 7 0;#P connect 7 0 5 0;#P fasten 9 0 62 0 147 133 81 133;#P connect 14 1 8 0;#P fasten 14 2 8 0 101 214 86 214;#P connect 8 0 6 0;#P fasten 10 0 6 0 149 275 86 275;#P connect 32 1 13 0;#P connect 13 0 11 1;#P connect 9 0 11 2;#P connect 8 1 10 0;#P fasten 11 0 39 0 71 181 165 181;#P connect 39 0 30 0;#P fasten 68 0 82 0 413 517 229 517;#P connect 82 0 83 0;#P connect 83 0 84 0;#P fasten 85 0 84 0 259 608 229 608;#P connect 82 1 85 0;#P fasten 7 0 16 0 71 355 296 355;#P fasten 25 0 80 0 523 479 308 479;#P fasten 67 0 80 0 413 580 308 580;#P connect 80 0 70 0;#P fasten 84 0 70 0 229 704 308 704;#P connect 70 0 74 0;#P connect 74 0 78 0;#P fasten 50 0 28 0 334 218 321 218;#P connect 52 0 53 0;#P connect 53 0 48 0;#P connect 48 0 47 0;#P connect 61 0 47 0;#P connect 47 0 50 0;#P fasten 45 0 61 0 410 134 343 134;#P connect 50 1 43 0;#P connect 43 0 16 1;#P connect 50 2 44 0;#P fasten 50 3 44 0 376 219 362 219;#P connect 44 0 42 0;#P fasten 46 0 42 0 425 281 362 281;#P connect 53 1 49 0;#P connect 49 0 47 1;#P fasten 43 0 15 0 348 358 383 358;#P connect 45 0 47 2;#P connect 68 0 67 0;#P fasten 81 0 73 0 506 586 413 586;#P connect 67 0 73 0;#P connect 73 0 66 0;#P connect 66 0 71 0;#P connect 71 0 70 1;#P fasten 47 0 54 0 334 181 425 181;#P connect 54 0 51 0;#P connect 44 1 46 0;#P connect 69 0 67 1;#P fasten 68 0 81 0 413 520 506 520;#P connect 72 0 71 1;#P fasten 16 0 25 0 296 437 523 437;#P connect 25 0 76 0;#P connect 76 0 81 1;#P connect 34 0 33 0;#P connect 33 0 22 0;#P fasten 35 0 18 0 517 357 575 357;#P connect 22 0 18 0;#P connect 18 0 25 1;#P connect 22 1 19 0;#P fasten 22 2 19 0 605 264 590 264;#P fasten 21 0 17 0 653 323 590 323;#P connect 19 0 17 0;#P connect 56 0 24 0;#P connect 24 0 33 1;#P connect 77 0 26 0;#P fasten 18 0 23 0 575 391 608 391;#P connect 55 0 24 2;#P connect 19 1 21 0;#P fasten 58 1 24 4 695 179 668 179;#P connect 20 0 57 0;#P connect 57 0 58 0;#P connect 63 0 57 1;#P fasten 58 0 29 0 678 183 741 183;#P connect 64 0 57 2;#P connect 59 0 60 0;#P connect 60 0 36 0;#P connect 65 0 57 3;#P connect 26 1 75 0;#P pop;