max v2;#N vpatcher 157 67 1153 758;#P origin -20 0;#P comment 579 34 213 196626 pixelweightmat;#P comment 794 34 143 196617 Yoichiro Serita © 2003 Topological Media Lab;#P user GSwitch 506 333 41 32 0 0;#P newex 812 307 27 196617 + 1;#P user radiogroup 789 283 18 64;#X size 4;#X offset 16;#X inactive 0;#X itemtype 0;#X flagmode 0;#X set 3;#X done;#N vpatcher 575 350 976 728;#P newex 216 255 27 196617 t b l;#P newex 173 255 27 196617 t b l;#P newex 130 255 27 196617 t b l;#P newex 216 130 27 196617 t b l;#P newex 173 130 27 196617 t b l;#P newex 130 130 27 196617 t b l;#P newex 87 130 27 196617 t b l;#P outlet 87 328 15 0;#P newex 87 286 141 196617 jit.glue @rows 2 @columns 2;#P newex 216 231 141 196617 jit.matrix 6 float32 160 120;#P newex 173 205 141 196617 jit.matrix 6 float32 160 120;#P newex 130 181 141 196617 jit.matrix 6 float32 160 120;#P newex 87 156 141 196617 jit.matrix 6 float32 160 120;#P inlet 218 52 15 0;#P newex 87 109 141 196617 gate 4;#P number 87 79 35 9 0 0 0 3 0 0 0 221 221 221 222 222 222 0 0 0;#P inlet 87 52 15 0;#P connect 0 0 1 0;#P connect 1 0 2 0;#P connect 2 0 10 0;#P connect 10 0 4 0;#P connect 10 1 4 0;#P connect 4 0 8 0;#P connect 14 0 8 0;#P connect 15 0 8 0;#P connect 16 0 8 0;#P connect 8 0 9 0;#P connect 2 1 11 0;#P connect 11 0 5 0;#P connect 11 1 5 0;#P connect 5 0 14 0;#P connect 14 1 8 1;#P connect 2 2 12 0;#P connect 12 0 6 0;#P connect 12 1 6 0;#P connect 6 0 15 0;#P connect 15 1 8 2;#P connect 2 3 13 0;#P connect 13 0 7 0;#P connect 13 1 7 0;#P connect 7 0 16 0;#P connect 16 1 8 3;#P connect 3 0 2 1;#P pop;#P newobj 812 330 45 196617 p quatro;#P button 271 293 15 0;#P button 364 263 15 0;#N vpatcher 1075 212 1890 809;#P user jit.pwindow 607 249 162 122 0 1 0 0 1 0;#P newex 586 228 289 196617 jit.brcosa @brightness 1.74 @contrast 5.14 @saturation 1.03;#P outlet 509 493 15 0;#P outlet 529 493 15 0;#P outlet 361 493 15 0;#P outlet 382 493 15 0;#P inlet 594 59 15 0;#P inlet 77 57 15 0;#P newex 366 93 32 196617 lb 20;#P newex 458 159 88 196617 expr 0.14 * 255.;#P newex 509 439 115 196617 jit.op @op <p @val 0.28;#P newex 509 411 114 196617 jit.op @op !- @val 0.28;#P newex 361 439 115 196617 jit.op @op <p @val 0.28;#P newex 361 411 114 196617 jit.op @op !- @val 0.28;#P newex 77 95 27 196617 t l l;#P newex 265 155 38 196617 Lsub 2;#P newex 529 378 144 196617 jit.matrix 1 float32 320 240;#P newex 382 378 144 196617 jit.matrix 1 float32 320 240;#P message 225 452 85 196617 35.700001 35.700001;#P newex 225 424 32 196617 show;#P newex 225 397 58 196617 Lmult 255.;#P message 225 373 35 196617 \$1 \$2;#P message 594 208 55 196617 clear \, bang;#P newex 308 220 27 196617 t b l;#P newex 338 150 38 196617 Ladd 2;#P number 366 123 35 9 0 0 0 3 0 0 0 221 221 221 222 222 222 0 0 0;#P newex 308 198 88 196617 prepend paintoval;#P newex 308 173 104 196617 pack 0 0 0 0 255 0 0;#P message 458 184 125 196617 clear \, brgb \$1 \$1 0 \, bang;#P newex 458 134 45 196617 loadbang;#P newex 458 281 66 196617 jit.unpack;#P newex 458 248 110 196617 jit.lcd 4 char 320 240;#P message 94 401 85 196617 0.14 0.14;#P newex 94 373 32 196617 show;#P newex 94 339 53 196617 Ladd 0.14;#P newex 94 308 40 196617 Ldiv 2.;#P newex 118 249 42 196617 !/ 0.02;#P newex 94 278 34 196617 Lmult;#P flonum 118 228 77 9 0 0 0 3 0 0 0 221 221 221 222 222 222 0 0 0;#P newex 118 202 145 196617 expr sqrt($i1*$i1 + $i2*$i2);#P newex 94 144 27 196617 t l l;#P newex 94 174 29 196617 Lsub;#P connect 34 0 27 0;#P connect 27 1 1 0;#P connect 1 1 0 0;#P connect 0 0 4 0;#P connect 4 0 6 0;#P connect 6 0 7 0;#P connect 7 0 8 0;#P connect 8 0 9 0;#P connect 1 0 0 1;#P connect 0 0 2 0;#P connect 2 0 3 0;#P connect 3 0 5 0;#P connect 5 0 4 1;#P connect 7 0 20 0;#P connect 20 0 21 0;#P connect 21 0 22 0;#P connect 22 0 23 0;#P connect 27 0 26 0;#P connect 16 0 26 1;#P connect 26 0 14 0;#P connect 14 0 15 0;#P connect 15 0 18 0;#P connect 27 0 17 0;#P connect 17 0 14 2;#P connect 24 0 28 0;#P connect 28 0 29 0;#P connect 29 0 37 0;#P connect 33 0 16 0;#P connect 16 0 17 1;#P connect 21 0 14 4;#P connect 11 1 24 0;#P connect 24 0 36 0;#P connect 12 0 32 0;#P connect 32 0 13 0;#P connect 19 0 10 0;#P connect 18 1 10 0;#P connect 18 0 10 0;#P connect 13 0 10 0;#P connect 10 0 11 0;#P connect 25 0 30 0;#P connect 30 0 31 0;#P connect 31 0 39 0;#P connect 11 2 25 0;#P connect 25 0 38 0;#P connect 10 0 40 0;#P connect 35 0 19 0;#P connect 40 0 41 0;#P pop;#P newobj 319 288 55 196617 p pathfield;#P newex 172 332 180 196617 jit.pack 6;#P button 463 258 15 0;#P user jit.cellblock 417 212 465 232 3 9 320 240 45 17 0 1 1 0 1 1 0 0 1 0 0 0 255 255 255 0 0 0 0 0 0 191 191 191 0 0 0 215 215 240 1 1 1 0 4 0 0 0;#P user jit.cellblock 368 212 416 232 3 9 320 240 45 17 0 1 1 0 1 1 0 0 1 0 0 0 255 255 255 0 0 0 0 0 0 191 191 191 0 0 0 215 215 240 1 1 1 0 4 0 0 0;#P user jit.cellblock 319 212 367 232 3 9 320 240 45 17 0 1 1 0 1 1 0 0 1 0 0 0 255 255 255 0 0 0 0 0 0 191 191 191 0 0 0 215 215 240 1 1 1 0 4 0 0 0;#P user jit.cellblock 270 212 318 232 3 9 320 240 45 17 0 1 1 0 1 1 0 0 1 0 0 0 255 255 255 0 0 0 0 0 0 191 191 191 0 0 0 215 215 240 1 1 1 0 4 0 0 0;#P user jit.cellblock 221 212 269 232 3 9 320 240 45 17 0 1 1 0 1 1 0 0 1 0 0 0 255 255 255 0 0 0 0 0 0 191 191 191 0 0 0 215 215 240 1 1 1 0 4 0 0 0;#P newex 163 179 92 196617 jit.unpack 6;#P user jit.cellblock 172 212 220 232 3 9 320 240 45 17 0 1 1 0 1 1 0 0 1 0 0 0 255 255 255 0 0 0 0 0 0 191 191 191 0 0 0 215 215 240 1 1 1 0 4 0 0 0;#P newex 163 131 27 196617 t b l;#P newex 163 153 141 196617 jit.matrix 6 float32 320 240;#P comment 297 118 84 196617 with live cam;#P comment 297 94 86 196617 diffusion;#P comment 297 70 83 196617 smoke/ripple2;#N vpreset 1;#X append 1 2 20 35 53 toggle int 1 \; 21 538 578 number int 1 \; 23 35 98 number int 30 \; 24 118 429 flonum float 0.8 \; 25 118 500 flonum float 0.05 \; 26 118 653 flonum float;#X append 1 2 -0.72 \; 27 118 569 flonum float 10. \; 34 582 229 toggle int 1 \; 38 226 489 flonum float 0.445519 \; 39 226 533 flonum float -1.03666 \; 40 226 577 flonum float 0.397785 \; 44 254 577;#X append 1 2 flonum float 0.36 \; 45 254 621 flonum float 0.397785 \; 46 254 665 flonum float 0.36 \; 47 254 709 flonum float 0.397785 \; 57 432 532 number int 0 \; 64 377 316 flonum float 0.85 \; 65 377 244;#X append 1 2 flonum float 0.5 \; 66 377 379 flonum float 0.11 \; 72 520 184 gswitch int 1 \;;#P preset 228 118 56 17;#N vpreset 4;#X append 1 2 20 35 53 toggle int 1 \; 21 538 578 number int 5 \; 23 35 98 number int 30 \; 24 118 429 flonum float 0.26 \; 25 118 500 flonum float -0.02 \; 26 118 653 flonum float;#X append 1 2 -0.5 \; 27 118 569 flonum float 8.89 \; 34 582 229 toggle int 1 \; 38 226 489 flonum float 0. \; 39 226 533 flonum float 0. \; 40 226 577 flonum float 0.25 \; 44 254 577;#X append 1 2 flonum float 0.25 \; 45 254 621 flonum float 0.25 \; 46 254 665 flonum float 0.25 \; 47 254 709 flonum float 0.25 \; 57 432 532 number int 106 \; 64 377 316 flonum float 0.85 \; 65 377 244;#X append 1 2 flonum float 0.5 \; 66 377 379 flonum float 0.11 \; 72 520 184 gswitch int 0 \;;#X append 2 2 20 35 53 toggle int 1 \; 21 538 578 number int 5 \; 23 35 98 number int 30 \; 24 118 429 flonum float 0.26 \; 25 118 500 flonum float -0.02 \; 26 118 653 flonum float;#X append 2 2 -0.5 \; 27 118 569 flonum float 8.89 \; 34 582 229 toggle int 0 \; 38 226 489 flonum float 0. \; 39 226 533 flonum float 0. \; 40 226 577 flonum float 0.24 \; 44 254 577;#X append 2 2 flonum float 0.1 \; 45 254 621 flonum float 0.4 \; 46 254 665 flonum float 0.25 \; 47 254 709 flonum float 0.24 \; 57 432 532 number int 106 \; 64 377 316 flonum float 0.85 \; 65 377 244;#X append 2 2 flonum float 0.5 \; 66 377 379 flonum float 0.11 \; 72 520 184 gswitch int 0 \;;#X append 3 2 20 35 53 toggle int 1 \; 21 538 578 number int 5 \; 23 35 98 number int 30 \; 24 118 429 flonum float 0.26 \; 25 118 500 flonum float -0.02 \; 26 118 653 flonum float;#X append 3 2 -0.5 \; 27 118 569 flonum float 8.89 \; 34 582 229 toggle int 1 \; 38 226 489 flonum float 0. \; 39 226 533 flonum float 0. \; 40 226 577 flonum float 0.24 \; 44 254 577;#X append 3 2 flonum float 0.1 \; 45 254 621 flonum float 0.4 \; 46 254 665 flonum float 0.25 \; 47 254 709 flonum float 0.25 \; 57 432 532 number int 106 \; 64 377 316 flonum float 0.85 \; 65 377 244;#X append 3 2 flonum float 0.5 \; 66 377 379 flonum float 0.11 \; 72 520 184 gswitch int 0 \;;#X append 4 2 20 35 53 toggle int 1 \; 21 538 578 number int 5 \; 23 35 98 number int 30 \; 24 118 429 flonum float 0.26 \; 25 118 500 flonum float -0.02 \; 26 118 653 flonum float;#X append 4 2 -0.5 \; 27 118 569 flonum float 8.89 \; 34 582 229 toggle int 1 \; 38 226 489 flonum float 0. \; 39 226 533 flonum float 0. \; 40 226 577 flonum float 0.24 \; 44 254 577;#X append 4 2 flonum float 0.29 \; 45 254 621 flonum float 0.64 \; 46 254 665 flonum float -0.08 \; 47 254 709 flonum float 0.15 \; 57 432 532 number int 106 \; 64 377 316 flonum float 0.85 \; 65 377 244;#X append 4 2 flonum float 0.5 \; 66 377 379 flonum float 0.11 \; 72 520 184 gswitch int 0 \;;#P preset 228 94 58 17;#N vpreset 5;#X append 1 2 20 35 53 toggle int 1 \; 21 538 578 number int 5 \; 23 35 98 number int 30 \; 24 118 429 flonum float 0.47 \; 25 118 500 flonum float -0.02 \; 26 118 653 flonum float;#X append 1 2 -0.5 \; 27 118 569 flonum float 8.89 \; 34 582 229 toggle int 0 \; 38 226 489 flonum float 1.420461 \; 39 226 533 flonum float -0.99005 \; 40 226 577 flonum float 0.142397 \; 44 254 577;#X append 1 2 flonum float 0.142397 \; 45 254 621 flonum float 0.142397 \; 46 254 665 flonum float 0.142397 \; 47 254 709 flonum float 0.142397 \; 57 432 532 number int 106 \; 64 377 316 flonum float 0.85 \; 65 377 244;#X append 1 2 flonum float 0.5 \; 66 377 379 flonum float 0.11 \; 72 520 184 gswitch int 0 \;;#X append 2 2 20 35 53 toggle int 1 \; 21 538 578 number int 5 \; 23 35 98 number int 30 \; 24 118 429 flonum float 0.47 \; 25 118 500 flonum float -0.02 \; 26 118 653 flonum float;#X append 2 2 -0.5 \; 27 118 569 flonum float 8.89 \; 34 582 229 toggle int 0 \; 38 226 489 flonum float 1.420461 \; 39 226 533 flonum float -0.99005 \; 40 226 577 flonum float 0.142397 \; 44 254 577;#X append 2 2 flonum float 0.15 \; 45 254 621 flonum float 0.13 \; 46 254 665 flonum float 0.14 \; 47 254 709 flonum float 0.14 \; 57 432 532 number int 106 \; 64 377 316 flonum float 0.85 \; 65 377 244;#X append 2 2 flonum float 0.5 \; 66 377 379 flonum float 0.11 \; 72 520 184 gswitch int 0 \;;#X append 3 2 20 35 53 toggle int 1 \; 21 538 578 number int 20 \; 23 35 98 number int 30 \; 24 118 429 flonum float 0.32 \; 25 118 500 flonum float -0.02 \; 26 118 653 flonum float;#X append 3 2 -0.5 \; 27 118 569 flonum float 8.89 \; 34 582 229 toggle int 0 \; 38 226 489 flonum float 0.74 \; 39 226 533 flonum float -0.99005 \; 40 226 577 flonum float 0.307183 \; 44 254 577;#X append 3 2 flonum float 0.307183 \; 45 254 621 flonum float 0.23 \; 46 254 665 flonum float 0.36 \; 47 254 709 flonum float 0.32 \; 57 432 532 number int 106 \; 64 377 316 flonum float 0.85 \; 65 377 244;#X append 3 2 flonum float 0.5 \; 66 377 379 flonum float 0.11 \; 72 520 184 gswitch int 0 \;;#X append 5 2 20 35 53 toggle int 1 \; 21 538 578 number int 25 \; 23 35 98 number int 30 \; 24 118 429 flonum float 0.47 \; 25 118 500 flonum float -0.02 \; 26 118 653 flonum float;#X append 5 2 -0.5 \; 27 118 569 flonum float 8.89 \; 34 582 229 toggle int 0 \; 38 226 489 flonum float 1.41 \; 39 226 533 flonum float -0.97 \; 40 226 577 flonum float 0.142397 \; 44 254 577;#X append 5 2 flonum float 0.15 \; 45 254 621 flonum float 0.13 \; 46 254 665 flonum float 0.14 \; 47 254 709 flonum float 0.14 \; 57 432 532 number int 106 \; 64 377 316 flonum float 0.85 \; 65 377 244;#X append 5 2 flonum float 0.5 \; 66 377 379 flonum float 0.11 \; 72 520 184 gswitch int 0 \; 97 333 506 gswitch int 0 \;;#P preset 228 70 56 17;#N vpreset 2;#X append 1 2 20 35 53 toggle int 1 \; 21 538 578 number int 15 \; 23 35 98 number int 30 \; 24 118 429 flonum float 0.8 \; 25 118 500 flonum float 0.05 \; 26 118 653 flonum float;#X append 1 2 -0.5 \; 27 118 569 flonum float 10. \; 34 582 229 toggle int 1 \; 38 226 489 flonum float 0.443038 \; 39 226 533 flonum float -1.025316 \; 40 226 577 flonum float 0.39557 \; 44 254 577;#X append 1 2 flonum float 0.39557 \; 45 254 621 flonum float 0.39557 \; 46 254 665 flonum float 0.39557 \; 47 254 709 flonum float 0.39557 \; 57 432 532 number int 106 \; 64 377 316 flonum float 0.85 \; 65 377 244;#X append 1 2 flonum float 0.5 \; 66 377 379 flonum float 0.11 \; 72 520 184 gswitch int 0 \;;#X append 2 2 20 35 53 toggle int 1 \; 21 538 578 number int 5 \; 23 35 98 number int 30 \; 24 118 429 flonum float 0.8 \; 25 118 500 flonum float 0.05 \; 26 118 653 flonum float;#X append 2 2 -0.5 \; 27 118 569 flonum float 10. \; 34 582 229 toggle int 0 \; 38 226 489 flonum float 0.443038 \; 39 226 533 flonum float -1.025316 \; 40 226 577 flonum float 0.39557 \; 44 254 577;#X append 2 2 flonum float 0.39557 \; 45 254 621 flonum float 0.39557 \; 46 254 665 flonum float 0.39557 \; 47 254 709 flonum float 0.39557 \; 57 432 532 number int 106 \; 64 377 316 flonum float 0.85 \; 65 377 244;#X append 2 2 flonum float 0.5 \; 66 377 379 flonum float 0.11 \; 72 520 184 gswitch int 0 \;;#P preset 228 44 55 18;#P user GSwitch 184 520 41 32 0 0;#P newex 520 635 27 196617 t b l;#P newex 550 565 38 196617 Ladd 2;#P newex 520 536 51 196617 ys.mouse;#P newex 640 630 112 196617 ys.window pixelweight;#P user jit.pwindow 258 468 82 62 0 1 0 0 1 0;#P flonum 379 377 35 9 0 0 0 3 0 0 0 221 221 221 222 222 222 0 0 0;#P flonum 244 377 35 9 0 0 0 3 0 0 0 221 221 221 222 222 222 0 0 0;#P flonum 316 377 35 9 0 0 0 3 0 0 0 221 221 221 222 222 222 0 0 0;#P message 379 396 69 196617 saturation \$1;#P message 244 396 70 196617 brightness \$1;#P message 316 396 61 196617 contrast \$1;#P newex 184 418 53 196617 jit.brcosa;#P newex 184 440 65 196617 jit.rgb2luma;#P newex 184 354 102 196617 ys.video pixelweight;#P number 532 432 35 9 0 0 0 3 0 0 0 221 221 221 222 222 222 0 0 0;#P message 532 451 63 196617 font skia \$1;#P message 435 479 192 196617 clear \, moveto 30 100 \, write T M L \, bang;#P newex 472 81 85 196617 unpack 0. 0. 0. 0.;#P message 473 45 75 196617 0.8 0.05 10. -0.5;#P comment 839 168 38 196617 wind?;#P message 811 184 65 196617 0.1 0.4 0.25 0.25;#P comment 776 165 38 196617 cloud?;#P newex 716 222 85 196617 unpack 0. 0. 0. 0.;#P message 716 181 89 196617 0.29 0.64 -0.08 0.15;#P flonum 709 254 35 9 -2. 2. 3 3 0 0 0 221 221 221 222 222 222 0 0 0;#P flonum 665 254 35 9 -2. 2. 3 3 0 0 0 221 221 221 222 222 222 0 0 0;#P flonum 621 254 35 9 -2. 2. 3 3 0 0 0 221 221 221 222 222 222 0 0 0;#P flonum 577 254 35 9 -2. 2. 3 3 0 0 0 221 221 221 222 222 222 0 0 0;#P message 768 138 54 196617 0. 0. 0.25;#P newex 229 560 25 196617 lb 1;#P newex 470 286 124 196617 pak setall 0. 0. 0. 0. 0. 0.;#P flonum 577 226 35 9 -2. 2. 3 3 0 0 0 221 221 221 222 222 222 0 0 0;#P flonum 533 226 35 9 -2. 2. 3 3 0 0 0 221 221 221 222 222 222 0 0 0;#P flonum 489 226 35 9 -2. 2. 3 3 0 0 0 221 221 221 222 222 222 0 0 0;#P newex 489 201 98 196617 unpack 0. 0. 0.;#P newex 53 233 105 196617 ys.jit.pixelweightmat;#N vpatcher 190 153 780 685;#P newex 121 182 53 196617 bondo 4;#P outlet 133 475 15 0;#P newex 126 421 65 196617 pack 0. 0. 0.;#P inlet 45 116 15 0;#P newex 121 155 212 196617 route distance timestep wavespeed viscosity;#P newex 399 359 105 196617 expr 2. * $f1 * $f2;#P newex 259 360 135 196617 expr ($f1 * $f2 - 2.) * $f3;#P newex 114 362 140 196617 expr (4.0 - 8. * $f1) * $f2;#P newex 327 255 134 196617 expr 1. / ($f2 * $f1 + 2.);#P comment 279 86 24 196617 mu;#P comment 212 86 16 196617 c;#P comment 121 92 16 196617 t;#P newex 121 256 201 196617 expr $f3 * $f3 * $f2 * $f2 / ($f1 * $f1);#P flonum 184 42 35 9 0 0 0 3 0 0 0 221 221 221 222 222 222 0 0 0;#P flonum 265 40 35 9 0 0 0 3 0 0 0 221 221 221 222 222 222 0 0 0;#P flonum 112 41 35 9 0 0 0 3 0 0 0 221 221 221 222 222 222 0 0 0;#P flonum 41 40 35 9 0 0 0 3 0 0 0 221 221 221 222 222 222 0 0 0;#P message 265 60 65 196617 viscosity \$1;#P message 184 61 73 196617 wavespeed \$1;#P message 112 61 63 196617 timestep \$1;#P message 41 59 61 196617 distance \$1;#P comment 71 85 16 196617 d;#P connect 5 0 1 0;#P connect 6 0 2 0;#P connect 9 0 14 0;#P connect 1 0 17 0;#P connect 2 0 17 0;#P connect 3 0 17 0;#P connect 18 0 17 0;#P connect 4 0 17 0;#P connect 17 0 21 0;#P connect 21 0 9 0;#P connect 14 0 19 0;#P connect 19 0 20 0;#P connect 17 1 21 1;#P connect 17 2 21 2;#P connect 15 0 19 1;#P connect 17 3 21 3;#P connect 16 0 19 2;#P connect 8 0 3 0;#P connect 21 1 9 1;#P connect 13 0 14 1;#P connect 21 1 15 0;#P connect 7 0 4 0;#P connect 21 2 9 2;#P connect 21 3 15 1;#P connect 21 1 13 0;#P connect 13 0 15 2;#P connect 9 0 16 0;#P connect 21 3 13 1;#P connect 13 0 16 1;#P pop;#P newobj 489 171 69 196617 p waveparam;#P toggle 229 582 15 0;#P newex 229 605 27 196617 gate;#P button 229 627 15 0;#P message 117 492 32 196617 clear;#P newex 53 618 78 196617 jit.matrix wow;#P newex 53 595 52 196617 jit.pack 2;#P newex 53 566 75 196617 jit.op @op max;#P flonum 569 118 35 9 0 0 0 3 0 0 0 221 221 221 222 222 222 0 0 0;#P flonum 653 118 35 9 0 0 0 3 0 0 0 221 221 221 222 222 222 0 0 0;#P flonum 500 118 35 9 0 0 0 3 0 0 0 221 221 221 222 222 222 0 0 0;#P flonum 429 118 35 9 0 0 0 3 0 0 0 221 221 221 222 222 222 0 0 0;#P number 98 35 35 9 0 0 0 3 0 0 0 221 221 221 222 222 222 0 0 0;#P message 403 448 113 196617 clear \, brgb 0 0 0 \, bang;#P number 578 538 35 9 0 0 0 3 0 0 0 221 221 221 222 222 222 0 0 0;#P toggle 53 35 15 0;#P newex 53 62 55 196617 metro 500;#P user jit.pwindow 639 376 322 242 0 1 0 0 1 0;#P newex 53 266 95 196617 jit.unpack 2;#P newex 403 424 45 196617 loadbang;#P newex 403 605 66 196617 jit.unpack;#P newex 520 613 88 196617 prepend paintoval;#P button 387 480 15 0;#P message 229 648 55 196617 clear \, bang;#P newex 520 588 104 196617 pack 0 0 0 0 255 0 0;#P user jit.pwindow 402 536 82 62 0 1 0 0 1 0;#P newex 403 512 110 196617 jit.lcd 4 char 320 240;#P message 653 137 65 196617 viscosity \$1;#P message 569 137 73 196617 wavespeed \$1;#P message 500 137 63 196617 timestep \$1;#P message 429 137 61 196617 distance \$1;#P newex 53 93 152 196617 jit.matrix wow 2 char 320 240;#P comment 776 115 31 196617 heat;#P comment 297 44 84 196617 ripple;#P user panel 208 32 182 115;#X brgb 254 231 193;#X frgb 0 0 0;#X border 0;#X rounded 0;#X shadow 0;#X done;#P comment 290 264 74 196617 clear path field;#P connect 20 0 19 0;#P connect 19 0 4 0;#P connect 4 0 36 0;#P connect 36 0 17 0;#P connect 17 0 28 0;#P connect 28 0 29 0;#P connect 29 0 30 0;#P connect 31 0 30 0;#P connect 17 1 29 1;#P connect 23 0 19 1;#P connect 72 0 28 1;#P connect 97 0 36 1;#P connect 41 0 81 0;#P connect 81 1 80 0;#P connect 81 0 80 0;#P connect 80 0 83 0;#P connect 83 0 82 0;#P connect 93 0 90 0;#P connect 83 0 90 0;#P connect 63 0 60 0;#P connect 61 0 60 0;#P connect 62 0 60 0;#P connect 58 0 60 0;#P connect 60 0 59 0;#P connect 15 1 72 1;#P connect 83 1 90 1;#P connect 59 0 72 2;#P connect 83 1 84 0;#P connect 42 0 34 0;#P connect 34 0 33 0;#P connect 33 0 32 0;#P connect 92 0 12 0;#P connect 32 0 12 0;#P connect 91 0 90 2;#P connect 65 0 62 0;#P connect 28 0 33 1;#P connect 59 0 67 0;#P connect 83 2 85 0;#P connect 91 1 93 0;#P connect 91 1 90 3;#P connect 91 2 90 4;#P connect 64 0 61 0;#P connect 83 3 86 0;#P connect 69 0 91 0;#P connect 91 3 90 5;#P connect 92 0 91 1;#P connect 83 4 87 0;#P connect 66 0 63 0;#P connect 16 0 22 0;#P connect 71 1 9 0;#P connect 71 0 9 0;#P connect 12 0 9 0;#P connect 13 0 9 0;#P connect 22 0 9 0;#P connect 55 0 9 0;#P connect 56 0 9 0;#P connect 9 0 10 0;#P connect 10 0 15 0;#P connect 83 5 88 0;#P connect 54 0 24 0;#P connect 24 0 5 0;#P connect 89 0 41 0;#P connect 53 0 54 0;#P connect 5 0 35 0;#P connect 6 0 35 0;#P connect 7 0 35 0;#P connect 8 0 35 0;#P connect 35 0 37 0;#P connect 43 0 37 0;#P connect 37 0 38 0;#P connect 38 0 41 1;#P connect 54 1 25 0;#P connect 25 0 6 0;#P connect 39 0 41 2;#P connect 18 1 69 0;#P connect 69 0 11 0;#P connect 11 0 14 0;#P connect 14 0 71 0;#P connect 90 0 97 1;#P connect 44 0 41 3;#P connect 57 0 56 0;#P connect 37 1 39 0;#P connect 94 0 97 2;#P connect 45 0 41 4;#P fasten 69 0 70 0 525 560 555 560;#P connect 70 0 11 2;#P connect 46 0 41 5;#P connect 54 2 27 0;#P connect 27 0 7 0;#P connect 37 2 40 0;#P connect 40 0 44 0;#P connect 49 0 44 0;#P connect 21 0 70 1;#P connect 47 0 41 6;#P connect 40 0 45 0;#P connect 49 1 45 0;#P connect 17 0 18 0;#P connect 18 0 68 0;#P connect 54 3 26 0;#P connect 26 0 8 0;#P connect 40 0 46 0;#P connect 49 2 46 0;#P connect 40 0 47 0;#P connect 49 3 47 0;#P connect 48 0 49 0;#P connect 51 0 49 0;#P connect 95 0 96 0;#P connect 96 0 94 0;#P connect 41 0 94 1;#P pop;