max v2;#N vpatcher 386 165 884 715;#P origin 0 -26;#P button 266 265 15 0;#P user jit.pwindow 201 471 82 62 0 1 0 0 1 0;#P newex 202 440 62 196617 jit.op @op +;#P newex 377 122 27 196617 t b i;#P newex 297 122 27 196617 t b l;#P number 335 65 35 9 0 0 0 3 0 0 0 156 179 255 222 222 222 0 0 0;#P number 297 65 35 9 0 0 0 3 0 0 0 156 179 255 222 222 222 0 0 0;#P newex 297 97 48 196617 pak;#P message 360 193 65 196617 offset \$1 \$2;#P number 377 65 35 9 0 0 0 3 0 0 0 156 179 255 222 222 222 0 0 0;#P newex 297 166 73 196617 selfforce1225;#P newex 297 300 155 196617 jit.matrix wow2 1 char 320 240;#P newex 297 237 74 196617 jit.fill wow2 0;#P user jit.pwindow 318 331 82 62 0 1 0 0 1 0;#P newex 114 123 27 196617 t b i;#P newex 34 123 27 196617 t b l;#P number 72 66 35 9 0 0 0 3 0 0 0 156 179 255 222 222 222 0 0 0;#P number 34 66 35 9 0 0 0 3 0 0 0 156 179 255 222 222 222 0 0 0;#P newex 34 98 48 196617 pak;#P message 97 194 65 196617 offset \$1 \$2;#P number 114 66 35 9 0 0 0 3 0 0 0 156 179 255 222 222 222 0 0 0;#P newex 34 167 73 196617 selfforce1225;#P newex 34 301 155 196617 jit.matrix wow1 1 char 320 240;#P newex 34 238 74 196617 jit.fill wow1 0;#P user jit.pwindow 69 334 82 62 0 1 0 0 1 0;#P comment 30 28 213 196626 selfforce1225_double;#P comment 245 28 143 196617 Yoichiro Serita © 2003 Topological Media Lab;#P connect 9 0 8 0;#P connect 8 0 11 0;#P connect 11 0 5 0;#P fasten 11 1 5 0 56 147 39 147;#P fasten 12 0 5 0 119 155 39 155;#P fasten 7 0 3 0 102 227 39 227;#P connect 5 0 3 0;#P connect 3 0 4 0;#P fasten 26 0 4 0 271 288 39 288;#P connect 4 0 2 0;#P connect 10 0 8 1;#P fasten 12 1 5 1 136 160 102 160;#P connect 5 1 7 0;#P connect 6 0 12 0;#P fasten 4 0 24 0 39 432 207 432;#P connect 24 0 25 0;#P fasten 15 0 24 1 302 433 259 433;#P fasten 15 0 26 0 302 325 284 325 284 259 271 259;#P connect 20 0 19 0;#P connect 19 0 22 0;#P fasten 23 0 16 0 382 154 302 154;#P fasten 22 1 16 0 319 146 302 146;#P connect 22 0 16 0;#P connect 16 0 14 0;#P fasten 18 0 14 0 365 226 302 226;#P connect 14 0 15 0;#P connect 15 0 13 0;#P connect 21 0 19 1;#P fasten 23 1 16 1 399 159 365 159;#P connect 16 1 18 0;#P connect 17 0 23 0;#P pop;