max v2;#N vpatcher 283 333 618 742;#P origin 0 -7;#P comment 24 20 213 196626 selfforce1225_test;#P comment 239 20 143 196617 Yoichiro Serita © 2003 Topological Media Lab;#P newex 203 117 27 196617 t b i;#P newex 123 117 27 196617 t b l;#P number 161 60 35 9 0 0 0 3 0 0 0 156 179 255 222 222 222 0 0 0;#P number 123 60 35 9 0 0 0 3 0 0 0 156 179 255 222 222 222 0 0 0;#P newex 123 92 48 196617 pak;#P number 52 218 35 9 0 0 0 3 0 0 0 221 221 221 222 222 222 0 0 0;#P message 52 239 48 196617 setall \$1;#P message 186 188 65 196617 offset \$1 \$2;#P number 203 60 35 9 0 0 0 3 0 0 0 156 179 255 222 222 222 0 0 0;#P newex 123 161 98 196617 selfforce1225_OSX;#P message 19 240 31 196617 clear;#P newex 123 266 151 196617 jit.matrix wow 1 char 320 240;#P newex 123 232 68 196617 jit.fill wow 0;#P user jit.pwindow 122 300 82 62 0 1 0 0 1 0;#P connect 8 0 7 0;#P connect 10 0 9 0;#P connect 9 0 12 0;#P connect 12 0 4 0;#P fasten 12 1 4 0 145 141 128 141;#P fasten 13 0 4 0 208 149 128 149;#P connect 4 0 1 0;#P fasten 6 0 1 0 191 221 128 221;#P connect 1 0 2 0;#P fasten 3 0 2 0 24 260 128 260;#P fasten 7 0 2 0 57 260 128 260;#P connect 2 0 0 0;#P connect 11 0 9 1;#P connect 4 1 6 0;#P connect 5 0 13 0;#P fasten 13 1 4 1 225 154 216 154;#P pop;