max v2;#N vpatcher 12 606 412 906;#P outlet 91 243 15 0;#P inlet 41 48 15 0;#P inlet 91 49 15 0;#P newex 91 133 26 1441802 t b;#P newex 91 161 79 1441802 jit.pack 4;#P newex 91 105 102 1441802 jit.unpack 4;#P newex 91 183 112 1441802 jit.alphablend;#B color 5;#P connect 4 0 1 0;#P connect 1 0 3 0;#P fasten 5 0 2 0 46 155 96 155;#P connect 3 0 2 0;#P connect 2 0 0 0;#P connect 0 0 6 0;#P connect 1 1 2 1;#P connect 1 2 2 2;#P connect 1 3 2 3;#P fasten 1 0 0 1 96 130 198 130;#P pop;