max v2;#N vpatcher 321 94 849 504;#P origin 15 0;#P newex 14 63 92 196617 OSC-route /alphas;#P newex 172 197 59 196617 s $1-group;#P newex 173 177 52 196617 s $1-solo;#P newex 285 227 219 196617 prepend player-state-route: unknown state $1;#P newex 282 246 30 196617 print;#P newex 1 204 75 196617 s $1-excavate;#P newex 1 186 62 196617 s $1-spawn;#P newex 1 168 63 196617 s $1-reveal;#P newex 1 150 53 196617 s $1-feed;#P inlet 1 22 15 0;#P newex 1 132 65 196617 s $1-intrude;#P newex 1 100 98 196617 unpack 0. 0. 0. 0. 0.;#P comment 32 22 167 196617 routing for player state messages;#P comment 25 35 284 196617 13.1.03 xinwei@sponge.org - set back to oold topology;#P connect 13 0 2 0;#P connect 2 0 3 0;#P connect 2 1 5 0;#P connect 2 2 6 0;#P connect 2 3 7 0;#P connect 2 4 8 0;#P connect 4 0 13 0;#P connect 10 0 9 0;#P pop;