max v2;#N vpatcher -60 54 689 761;#P origin 0 6;#P comment 50 612 66 196620 Yoichiro 01.09.03;#P comment 560 635 82 196620 calibrated parameters;#P comment 449 82 97 196620 click 1/2/3/4 to set corners;#P newex 261 275 33 196617 * 60.;#P newex 226 275 33 196617 * 80.;#P newex 191 275 33 196617 * 60.;#P newex 156 275 33 196617 * 80.;#P outlet 524 641 15 0;#P message 173 371 95 196617 clear \, paintoval \$1 \$2 \$3 \$4 255 0 0;#P newex 156 344 27 196617 t b l;#P newex 156 242 115 196617 unpack 0. 0.;#P newex 156 319 116 196617 pack 0 0 0 0;#P newex 261 297 27 196617 + 3;#P newex 226 297 27 196617 + 3;#P newex 191 297 27 196617 - 3;#P newex 156 297 27 196617 - 3;#P newex 630 62 62 196617 unpack 0. 0.;#P inlet 630 39 15 0;#P message 268 119 33 196617 0 0 80 0 0 60 80 60;#P newex 44 111 81 196617 pack 0 0 0;#P newex 114 88 33 196617 * 60.;#P newex 79 88 33 196617 * 80.;#P newex 44 66 81 196617 unpack 0 0. 0.;#P message 44 415 225 196617 frgb 255 255 255 \, moveto \$1 \$2 \, lineto \$3 \$4 \, lineto \$7 \$8 \, lineto \$5 \$6 \, lineto \$1 \$2 \, bang;#P newex 44 139 117 196617 route 1 2 3 4;#P newex 44 381 105 196617 pak 0 0 0 0 0 0 0 0;#P newex 307 89 45 196617 loadbang;#P newex 410 515 60 196617 prepend set;#P flonum 606 614 35 9 0 0 0 3 0 0 0 74 156 97 222 222 222 0 0 0;#P flonum 554 614 35 9 0 0 0 3 0 0 0 74 156 97 222 222 222 0 0 0;#P newex 554 587 62 196617 unpack 0. 0.;#P newex 524 557 50 196617 pos_calib;#B color 14;#P message 307 408 59 196617 pensize 2 \, brgb 0 0 0 \, clear;#P newex 44 457 95 196617 jit.lcd 4 char 80 60;#P newex 410 475 38 196617 append;#P message 537 185 14 196617 4;#P message 438 185 14 196617 3;#P message 537 122 14 196617 2;#P message 438 122 14 196617 1;#P newex 410 445 60 196617 prepend set;#P newex 524 307 62 196617 pack 0. 0.;#P flonum 576 285 35 9 0 0 0 3 0 0 0 156 179 255 222 222 222 0 0 0;#P flonum 524 285 35 9 0 0 0 3 0 0 0 156 179 255 222 222 222 0 0 0;#P newex 524 234 62 196617 unpack 0. 0.;#P newex 576 256 32 196617 / 60.;#P newex 524 256 32 196617 / 80.;#P newex 524 208 63 196617 route mouse;#P user jit.pwindow 453 128 82 62 0 1 0 0 1 0;#P comment 49 589 152 196622 pos_calib_interface;#P comment 555 34 82 196620 incoming parameters;#P user panel 423 79 144 125;#X brgb 225 236 254;#X frgb 0 0 0;#X border 0;#X rounded 0;#X shadow 0;#X done;#P user panel 516 276 133 401;#X brgb 225 236 254;#X frgb 0 0 0;#X border 0;#X rounded 0;#X shadow 0;#X done;#P fasten 17 0 29 0 415 503 31 503 31 57 49 57;#P connect 29 0 32 0;#P connect 32 0 27 0;#P fasten 42 0 26 0 161 370 49 370;#P fasten 33 0 26 0 273 187 49 187;#P connect 27 0 26 0;#P connect 26 0 28 0;#P fasten 43 0 18 0 178 451 49 451;#P connect 28 0 18 0;#P fasten 19 0 18 0 312 451 49 451;#P connect 27 1 26 2;#P connect 29 1 30 0;#P connect 30 0 32 1;#P connect 27 2 26 4;#P connect 29 2 31 0;#P connect 31 0 32 2;#P connect 27 3 26 6;#P fasten 11 0 41 0 529 338 297 338 297 226 161 226;#P connect 41 0 45 0;#P connect 45 0 36 0;#P connect 36 0 40 0;#P connect 40 0 42 0;#P connect 42 1 43 0;#P fasten 41 1 46 0 266 268 196 268;#P connect 46 0 37 0;#P connect 37 0 40 1;#P fasten 41 0 47 0 161 263 231 263;#P connect 47 0 38 0;#P connect 38 0 40 2;#P connect 41 1 48 0;#P connect 48 0 39 0;#P connect 39 0 40 3;#P fasten 25 0 33 0 312 111 273 111;#P connect 25 0 19 0;#P fasten 11 0 12 0 529 435 415 435;#P connect 12 0 17 0;#P hidden connect 14 0 17 0;#P hidden connect 16 0 17 0;#P hidden connect 15 0 17 0;#P hidden connect 13 0 17 0;#P connect 17 0 24 0;#P fasten 18 0 4 0 49 487 377 487 377 116 459 116;#P connect 4 1 5 0;#P connect 5 0 8 0;#P connect 8 0 6 0;#P fasten 35 0 9 0 635 280 529 280;#P connect 6 0 9 0;#P connect 9 0 11 0;#P connect 11 0 20 0;#P fasten 24 0 20 0 415 543 529 543;#P connect 20 0 44 0;#P fasten 20 0 21 0 529 581 559 581;#P connect 21 0 22 0;#P connect 8 1 7 0;#P fasten 35 1 10 0 687 282 581 282;#P connect 7 0 10 0;#P connect 10 0 11 1;#P connect 21 1 23 0;#P connect 34 0 35 0;#P pop;