max v2;#N vpatcher 19 430 718 726;#P newex 30 240 30 196617 print;#P newex 375 171 115 196617 player_sensor_route p5;#P newex 375 190 110 196617 player_state_route p5;#P newex 312 213 115 196617 player_sensor_route p4;#P newex 312 232 110 196617 player_state_route p4;#P newex 236 171 115 196617 player_sensor_route p3;#P newex 239 191 110 196617 player_state_route p3;#P newex 174 215 115 196617 player_sensor_route p2;#P newex 173 237 110 196617 player_state_route p2;#P newex 103 171 115 196617 player_sensor_route p1;#P newex 238 60 138 196617 prepend player-route: not tx;#P newex 238 81 30 196617 print;#P newex 23 52 74 196617 OSC-route /tx;#P newex 106 191 110 196617 player_state_route p1;#P newex 33 148 90 196617 room_state_route;#P newex 516 144 181 196617 prepend player-route: unknown player;#P newex 516 165 30 196617 print;#P inlet 23 29 15 0;#P newex 33 119 175 196617 OSC-route /p0 /p1 /p2 /p3 /p4 /p5;#P comment 51 26 234 196617 routing for player state messages from Oz \, room = p0;#P comment 467 26 100 196617 xinwei@sponge.org;#P comment 298 25 161 196617 of form /tx/p[p]/state/[float] or /tx/p[p]/s[s]/[float|list];#P connect 4 0 9 0;#P connect 9 0 3 0;#P connect 3 0 7 0;#P lcolor 1;#P connect 3 1 12 0;#P lcolor 11;#P connect 3 1 8 0;#P connect 3 2 13 0;#P connect 3 2 14 0;#P lcolor 11;#P connect 3 3 16 0;#P lcolor 11;#P connect 11 0 10 0;#P connect 3 4 18 0;#P lcolor 11;#P connect 3 5 20 0;#P lcolor 11;#P connect 6 0 5 0;#P pop;