max v2;#N vpatcher 49 70 1022 662;#P user ezdac~ 662 509 706 542 0;#P inlet 730 34 26 0;#P flonum 730 133 35 9 0. 10. 3 3 0 0 0 255 92 174 222 222 222 0 0 0;#P comment 737 118 38 196617 volume;#P newex 647 483 79 196617 stereoamp~;#N comlet R audio output;#P outlet 584 517 24 0;#P newex 680 464 34 196617 gate~;#P newex 704 192 30 196617 *~ 0.;#P newex 704 231 30 196617 *~ 0.;#P newex 703 273 30 196617 *~ 0.;#P newex 704 316 30 196617 *~ 0.;#P newex 704 358 30 196617 *~ 0.;#P newex 705 394 30 196617 *~ 0.;#P newex 704 430 29 196617 +~ 0.;#P hidden newex 32 34 40 196617 * 512.;#N comlet L audio output;#P outlet 541 517 24 0;#P toggle 844 423 33 0;#N comlet internal dac~ enable;#P inlet 844 34 26 0;#P newex 646 464 34 196617 gate~;#N comlet f (0..1);#P inlet 85 27 31 0;#P hidden button 875 120 15 0;#P hidden newex 875 98 45 196617 loadbang;#P newex 738 376 55 196617 route text;#P user textedit 795 376 896 394 62 3 9 rain.aif;#P newex 741 339 55 196617 route text;#P user textedit 798 339 899 357 62 3 9 water-flowing2.aif;#P newex 741 297 55 196617 route text;#P user textedit 798 297 899 315 62 3 9 bells.aif;#P newex 741 255 55 196617 route text;#P user textedit 798 255 899 273 62 3 9 bells.aif;#P newex 741 215 55 196617 route text;#P user textedit 798 215 899 233 62 3 9 kids.aif;#P hidden message 899 376 59 196617 set rain.aif;#P hidden message 901 340 112 196617 set water-flowing2.aif;#P hidden message 901 298 62 196617 set bells.aif;#P hidden message 901 256 62 196617 set bells.aif;#P hidden message 901 215 59 196617 set kids.aif;#P hidden message 901 173 78 196617 set kidsplay.aif;#P newex 741 172 55 196617 route text;#P user textedit 798 172 899 190 62 3 9 kidsplay.aif;#N vpreset 5;#X name curv;#X append 1 1 152 339 798 textedit set water-flowing2.aif \; 150 297 798 textedit set bells.aif \; 148 255 798 textedit set bells.aif \; 146 215 798 textedit set kids.aif \; 138 172 798 textedit set kidsplay.aif \; 154 376 795 textedit set;#X append 1 1 rain.aif \;;#P preset 798 139 47 27;#N vpreset 5;#X name curv;#X append 1 1 13 337 246 flonum float 0.75 \; 21 303 246 flonum float 0.75 \; 28 269 246 flonum float 0.75 \; 35 235 246 flonum float 0.75 \; 42 201 246 flonum float 0.75 \; 12 337 212 flonum float;#X append 1 1 0.75 \; 20 303 212 flonum float 0.75 \; 27 269 212 flonum float 0.75 \; 34 235 212 flonum float 0.75 \; 41 201 212 flonum float 0.75 \; 14 337 178 flonum float 0.2 \; 22 303 178;#X append 1 1 flonum float 0.2 \; 29 269 178 flonum float 0.2 \; 36 235 178 flonum float 0.2 \; 43 201 178 flonum float 0.2 \; 11 337 144 flonum float 0. \; 19 303 144 flonum float 0.2 \; 26 269 144;#X append 1 1 flonum float 0.4 \; 33 235 144 flonum float 0.6 \; 40 201 144 flonum float 0.8 \;;#X append 2 1 13 337 246 flonum float 0. \; 21 303 246 flonum float 0. \; 28 269 246 flonum float 0. \; 35 235 246 flonum float 0. \; 42 201 246 flonum float 0. \; 12 337 212 flonum float;#X append 2 1 0. \; 20 303 212 flonum float 0. \; 27 269 212 flonum float 0. \; 34 235 212 flonum float 0. \; 41 201 212 flonum float 0. \; 14 337 178 flonum float 0.2 \; 22 303 178;#X append 2 1 flonum float 0.2 \; 29 269 178 flonum float 0.2 \; 36 235 178 flonum float 0.2 \; 43 201 178 flonum float 0.2 \; 11 337 144 flonum float 0. \; 19 303 144 flonum float 0.2 \; 26 269 144;#X append 2 1 flonum float 0.4 \; 33 235 144 flonum float 0.6 \; 40 201 144 flonum float 0.8 \;;#X append 3 1 13 337 246 flonum float 0. \; 21 303 246 flonum float 0. \; 28 269 246 flonum float 0. \; 35 235 246 flonum float 0. \; 42 201 246 flonum float 0. \; 12 337 212 flonum float;#X append 3 1 1. \; 20 303 212 flonum float 1. \; 27 269 212 flonum float 1. \; 34 235 212 flonum float 1. \; 41 201 212 flonum float 1. \; 14 337 178 flonum float 0.2 \; 22 303 178;#X append 3 1 flonum float 0.2 \; 29 269 178 flonum float 0.2 \; 36 235 178 flonum float 0.2 \; 43 201 178 flonum float 0.2 \; 11 337 144 flonum float 0. \; 19 303 144 flonum float 0.2 \; 26 269 144;#X append 3 1 flonum float 0.4 \; 33 235 144 flonum float 0.6 \; 40 201 144 flonum float 0.8 \;;#X append 4 1 13 337 246 flonum float 1. \; 21 303 246 flonum float 1. \; 28 269 246 flonum float 1. \; 35 235 246 flonum float 1. \; 42 201 246 flonum float 1. \; 12 337 212 flonum float;#X append 4 1 0. \; 20 303 212 flonum float 0. \; 27 269 212 flonum float 0. \; 34 235 212 flonum float 0. \; 41 201 212 flonum float 0. \; 14 337 178 flonum float 0.2 \; 22 303 178;#X append 4 1 flonum float 0.2 \; 29 269 178 flonum float 0.2 \; 36 235 178 flonum float 0.2 \; 43 201 178 flonum float 0.2 \; 11 337 144 flonum float 0. \; 19 303 144 flonum float 0.2 \; 26 269 144;#X append 4 1 flonum float 0.4 \; 33 235 144 flonum float 0.6 \; 40 201 144 flonum float 0.8 \;;#P preset 76 243 47 27;#P message 98 92 14 196617 0;#P number 86 74 35 9 0 0 0 3 0 0 0 221 221 221 222 222 222 0 0 0;#P toggle 46 74 15 0;#N counter 2 0 512;#X flags 0 0;#P newobj 46 110 82 196617 counter 2 0 512;#P newex 46 91 51 196617 metro 50;#P hidden message 608 194 17 196617 0.;#P hidden message 608 235 17 196617 0.;#P hidden message 608 276 17 196617 0.;#P hidden message 609 318 17 196617 0.;#P hidden message 608 359 17 196617 0.;#P hidden message 609 397 17 196617 0.;#P hidden newex 565 396 42 196617 route 0;#P hidden newex 564 359 42 196617 route 0;#P hidden newex 564 317 42 196617 route 0;#P hidden newex 564 275 42 196617 route 0;#P hidden newex 563 233 42 196617 route 0;#P hidden newex 563 193 42 196617 route 0;#P user multiSlider 740 398 101 11 0. 1. 1 2936 15;#M frgb 0 200 0;#M brgb 255 255 255;#M rgb2 127 127 127;#P user multiSlider 741 359 101 11 0. 1. 1 2936 15;#M frgb 0 200 145;#M brgb 255 255 255;#M rgb2 127 127 127;#P user multiSlider 739 319 101 11 0. 1. 1 2936 15;#M frgb 0 200 128;#M brgb 255 255 255;#M rgb2 127 127 127;#P user multiSlider 741 277 101 11 0. 1. 1 2936 15;#M frgb 0 200 75;#M brgb 255 255 255;#M rgb2 127 127 127;#P user multiSlider 740 236 101 11 0. 1. 1 2936 15;#M frgb 0 200 0;#M brgb 255 255 255;#M rgb2 127 127 127;#P user multiSlider 740 193 101 11 0. 1. 1 2936 15;#M frgb 0 200 0;#M brgb 255 255 255;#M rgb2 127 127 127;#P newex 584 377 43 196617 bondo 2;#P newex 584 340 43 196617 bondo 2;#P newex 584 297 43 196617 bondo 2;#P newex 583 255 43 196617 bondo 2;#P newex 583 213 43 196617 bondo 2;#P newex 585 172 43 196617 bondo 2;#P inlet 689 34 26 0;#P flonum 689 133 35 9 0 0 0 3 0 0 0 102 102 204 222 222 222 0 0 0;#P newex 670 192 30 196617 *~ 0.;#P newex 670 231 30 196617 *~ 0.;#P newex 669 273 30 196617 *~ 0.;#P newex 670 316 30 196617 *~ 0.;#P newex 670 358 30 196617 *~ 0.;#P newex 671 394 30 196617 *~ 0.;#P comment 430 133 106 196617 pink = inverse affect;#B frgb 255 141 214;#P comment 430 121 100 196617 black = direct affect;#P comment 430 109 100 196617 blue = boolean;#B frgb 143 155 254;#P hidden button 901 143 15 0;#P toggle 654 377 15 0;#P toggle 654 340 15 0;#P toggle 654 297 15 0;#P toggle 654 255 15 0;#P toggle 654 213 15 0;#P toggle 654 173 15 0;#P newex 535 342 27 196617 - 0.;#P user GSwitch2 481 339 39 32 1 0;#P newex 535 309 27 196617 - 0.;#P user GSwitch2 481 306 39 32 0 0;#P newex 535 276 27 196617 - 0.;#P user GSwitch2 481 273 39 32 0 0;#P newex 535 242 27 196617 - 0.;#P user GSwitch2 481 239 39 32 0 0;#P flonum 629 395 35 9 0. 1. 3 3 0 0 0 221 221 221 222 222 222 0 0 0;#P newex 629 377 24 196617 ||;#P newex 670 376 45 196617 playaif f;#P flonum 630 360 35 9 0. 1. 3 3 0 0 0 221 221 221 222 222 222 0 0 0;#P newex 629 340 24 196617 ||;#P newex 670 339 48 196617 playaif e;#P flonum 629 316 35 9 0. 1. 3 3 0 0 0 221 221 221 222 222 222 0 0 0;#P newex 629 297 24 196617 ||;#P newex 670 297 48 196617 playaif d;#P flonum 630 275 35 9 0. 1. 3 3 0 0 0 221 221 221 222 222 222 0 0 0;#P newex 629 255 24 196617 ||;#P newex 670 255 48 196617 playaif c;#P message 535 183 14 196617 1;#P newex 535 205 27 196617 - 0.;#P user GSwitch2 481 202 39 32 0 0;#P hidden newex 901 121 45 196617 loadbang;#P flonum 628 193 35 9 0. 1. 3 3 0 0 0 221 221 221 222 222 222 0 0 0;#P newex 629 173 24 196617 ||;#P newex 670 173 48 196617 playaif a;#P flonum 630 232 35 9 0. 1. 3 3 0 0 0 221 221 221 222 222 222 0 0 0;#P newex 629 213 24 196617 ||;#P newex 670 430 29 196617 +~ 0.;#P newex 670 215 48 196617 playaif b;#P flonum 441 354 35 9 0. 1. 3 3 0 0 0 221 221 221 222 222 222 0 0 0;#P toggle 442 201 15 0;#P toggle 441 235 15 0;#P toggle 441 269 15 0;#P toggle 441 303 15 0;#P toggle 441 337 15 0;#P flonum 441 320 35 9 0. 1. 3 3 0 0 0 221 221 221 222 222 222 0 0 0;#P flonum 441 286 35 9 0. 1. 3 3 0 0 0 221 221 221 222 222 222 0 0 0;#P flonum 441 252 35 9 0. 1. 3 3 0 0 0 221 221 221 222 222 222 0 0 0;#P flonum 442 218 35 9 0. 1. 3 3 0 0 0 221 221 221 222 222 222 0 0 0;#P hidden newex 260 161 27 196617 * 1;#P hidden newex 217 161 40 196617 * 256.;#P button 280 201 15 0;#P user multiSlider 294 201 146 32 0. 1. 256 2937 15;#M frgb 0 110 0;#M brgb 255 255 255;#M rgb2 127 127 127;#P flonum 178 201 35 9 0. 1. 3 3 0 0 0 221 221 221 222 222 222 0 0 0;#P flonum 246 201 35 9 0. 1. 3 3 0 0 0 221 221 221 222 222 222 0 0 0;#P flonum 212 201 35 9 0. 1. 3 3 0 0 0 221 221 221 222 222 222 0 0 0;#P flonum 144 201 35 9 0. 1. 3 3 0 0 0 221 221 221 222 222 222 0 0 0;#P newex 136 216 159 196617 SituatedBezier 0.8 0.2 0.75 0.75;#P button 280 235 15 0;#P user multiSlider 294 235 146 32 0. 1. 256 2937 15;#M frgb 0 110 0;#M brgb 255 255 255;#M rgb2 127 127 127;#P flonum 178 235 35 9 0. 1. 3 3 0 0 0 221 221 221 222 222 222 0 0 0;#P flonum 246 235 35 9 0. 1. 3 3 0 0 0 221 221 221 222 222 222 0 0 0;#P flonum 212 235 35 9 0. 1. 3 3 0 0 0 221 221 221 222 222 222 0 0 0;#P flonum 144 235 35 9 0. 1. 3 3 0 0 0 221 221 221 222 222 222 0 0 0;#P newex 136 250 159 196617 SituatedBezier 0.6 0.2 0.75 0.75;#P button 280 269 15 0;#P user multiSlider 294 269 146 32 0. 1. 256 2937 15;#M frgb 0 110 0;#M brgb 255 255 255;#M rgb2 127 127 127;#P flonum 178 269 35 9 0. 1. 3 3 0 0 0 221 221 221 222 222 222 0 0 0;#P flonum 246 269 35 9 0. 1. 3 3 0 0 0 221 221 221 222 222 222 0 0 0;#P flonum 212 269 35 9 0. 1. 3 3 0 0 0 221 221 221 222 222 222 0 0 0;#P flonum 144 269 35 9 0. 1. 3 3 0 0 0 221 221 221 222 222 222 0 0 0;#P newex 136 284 159 196617 SituatedBezier 0.4 0.2 0.75 0.75;#P button 280 303 15 0;#P user multiSlider 294 303 146 32 0. 1. 256 2937 15;#M frgb 0 110 0;#M brgb 255 255 255;#M rgb2 127 127 127;#P flonum 178 303 35 9 0. 1. 3 3 0 0 0 221 221 221 222 222 222 0 0 0;#P flonum 246 303 35 9 0. 1. 3 3 0 0 0 221 221 221 222 222 222 0 0 0;#P flonum 212 303 35 9 0. 1. 3 3 0 0 0 221 221 221 222 222 222 0 0 0;#P flonum 144 303 35 9 0. 1. 3 3 0 0 0 221 221 221 222 222 222 0 0 0;#P newex 136 318 159 196617 SituatedBezier 0.2 0.2 0.75 0.75;#P flonum 125 162 51 9 0 0 0 3 0 0 0 221 221 221 222 222 222 0 0 0;#P button 280 337 15 0;#P user multiSlider 294 337 146 32 0. 1. 256 2937 15;#M frgb 0 110 0;#M brgb 255 255 255;#M rgb2 127 127 127;#P flonum 178 337 35 9 0. 1. 3 3 0 0 0 221 221 221 222 222 222 0 0 0;#P flonum 246 337 35 9 0. 1. 3 3 0 0 0 221 221 221 222 222 222 0 0 0;#P flonum 212 337 35 9 0. 1. 3 3 0 0 0 221 221 221 222 222 222 0 0 0;#P flonum 144 337 35 9 0. 1. 3 3 0 0 0 221 221 221 222 222 222 0 0 0;#P newex 136 352 159 196617 SituatedBezier 0. 0.2 0.75 0.75;#P hidden newex 27 535 39 196617 / 512.;#P slider 10 32 13 513 0 1;#P comment 430 92 100 196617 Lines;#P user panel 425 89 115 61;#X brgb 231 231 231;#X frgb 0 0 0;#X border 1;#X rounded 0;#X shadow 0;#X done;#P comment 695 119 33 196617 rate;#P comment 285 27 198 196618 plays through sequence of sound files as parameter ranges from 0 to 1.;#P comment 152 27 132 196626 Sound Grading;#P comment 150 55 100 196617 Vinny Fiano 10.2003 sxw 21.10.2003 TML;#P comment 804 443 36 196617 enable;#P user multiSlider 294 157 146 226 0. 256. 1 2664 15;#M frgb 255 0 0;#M brgb 255 255 255;#M rgb2 127 127 127;#P background;#P fasten 163 0 8 0 37 55 26 55 26 29 15 29;#P connect 132 0 8 0;#P hidden connect 8 0 9 0;#P fasten 158 0 163 0 90 64 78 64 78 30 37 30;#P connect 133 0 131 0;#P connect 131 0 132 0;#P connect 135 0 132 2;#P connect 134 0 131 1;#P fasten 9 0 17 0 32 555 67 555 67 149 130 149;#P hidden fasten 17 0 39 0 130 209 141 209;#P hidden fasten 17 0 32 0 130 245 141 245;#P hidden fasten 17 0 25 0 130 280 141 280;#P hidden fasten 17 0 18 0 130 313 141 313;#P hidden fasten 17 0 10 0 130 347 141 347;#P hidden connect 136 0 40 0;#P hidden connect 39 1 40 0;#P hidden connect 136 0 33 0;#P hidden connect 32 1 33 0;#P hidden connect 136 0 26 0;#P hidden connect 25 1 26 0;#P hidden connect 136 0 19 0;#P hidden connect 18 1 19 0;#P hidden connect 136 0 11 0;#P hidden connect 10 1 11 0;#P hidden connect 40 0 39 1;#P hidden connect 33 0 32 1;#P hidden connect 26 0 25 1;#P hidden connect 19 0 18 1;#P hidden connect 11 0 10 1;#P hidden connect 136 0 43 0;#P hidden connect 39 2 43 0;#P hidden connect 136 0 36 0;#P hidden connect 32 2 36 0;#P hidden connect 136 0 29 0;#P hidden connect 25 2 29 0;#P hidden connect 136 0 22 0;#P hidden connect 18 2 22 0;#P hidden connect 136 0 14 0;#P hidden connect 10 2 14 0;#P hidden connect 43 0 39 2;#P hidden connect 36 0 32 2;#P hidden connect 29 0 25 2;#P hidden connect 22 0 18 2;#P hidden connect 14 0 10 2;#P hidden connect 136 0 41 0;#P hidden connect 39 3 41 0;#P hidden connect 136 0 34 0;#P hidden connect 32 3 34 0;#P hidden connect 136 0 27 0;#P hidden connect 25 3 27 0;#P hidden connect 136 0 20 0;#P hidden connect 18 3 20 0;#P hidden connect 136 0 12 0;#P hidden connect 10 3 12 0;#P hidden fasten 17 0 46 0 130 181 222 181;#P hidden connect 41 0 39 3;#P connect 43 1 39 3;#P hidden connect 34 0 32 3;#P connect 36 1 32 3;#P hidden connect 27 0 25 3;#P connect 29 1 25 3;#P hidden connect 20 0 18 3;#P connect 22 1 18 3;#P hidden connect 12 0 10 3;#P connect 14 1 10 3;#P hidden connect 136 0 42 0;#P hidden connect 39 4 42 0;#P hidden connect 136 0 35 0;#P hidden connect 32 4 35 0;#P hidden connect 136 0 28 0;#P hidden connect 25 4 28 0;#P hidden connect 136 0 21 0;#P hidden connect 18 4 21 0;#P hidden connect 136 0 13 0;#P hidden connect 10 4 13 0;#P hidden connect 42 0 39 4;#P hidden connect 35 0 32 4;#P hidden connect 28 0 25 4;#P hidden connect 21 0 18 4;#P hidden connect 13 0 10 4;#P hidden fasten 46 0 47 0 222 181 265 181;#P hidden connect 43 0 45 0;#P hidden connect 42 0 45 0;#P hidden connect 41 0 45 0;#P hidden connect 40 0 45 0;#P hidden connect 36 0 38 0;#P hidden connect 35 0 38 0;#P hidden connect 34 0 38 0;#P hidden connect 33 0 38 0;#P hidden connect 29 0 31 0;#P hidden connect 28 0 31 0;#P hidden connect 27 0 31 0;#P hidden connect 26 0 31 0;#P hidden connect 22 0 24 0;#P hidden connect 21 0 24 0;#P hidden connect 20 0 24 0;#P hidden connect 19 0 24 0;#P hidden connect 14 0 16 0;#P hidden connect 13 0 16 0;#P hidden connect 12 0 16 0;#P hidden connect 11 0 16 0;#P hidden connect 45 0 39 5;#P hidden connect 38 0 32 5;#P hidden connect 31 0 25 5;#P hidden connect 24 0 18 5;#P hidden connect 16 0 10 5;#P hidden connect 47 0 0 0;#P hidden connect 39 5 44 0;#P hidden connect 32 5 37 0;#P hidden connect 25 5 30 0;#P hidden connect 18 5 23 0;#P hidden connect 10 5 15 0;#P hidden connect 32 6 55 0;#P hidden connect 32 0 49 0;#P hidden connect 25 6 54 0;#P hidden connect 25 0 50 0;#P hidden connect 18 6 53 0;#P hidden connect 18 0 51 0;#P hidden connect 10 6 52 0;#P hidden connect 10 0 57 0;#P hidden connect 39 6 56 0;#P hidden connect 39 0 48 0;#P connect 56 0 66 0;#P connect 55 0 81 0;#P connect 54 0 83 0;#P connect 53 0 85 0;#P connect 52 0 87 0;#P connect 48 0 66 1;#P connect 49 0 81 1;#P connect 50 0 83 1;#P connect 51 0 85 1;#P connect 57 0 87 1;#P hidden fasten 47 0 68 0 265 181 540 181;#P connect 68 0 67 0;#P connect 68 0 82 0;#P connect 68 0 84 0;#P connect 68 0 86 0;#P connect 68 0 88 0;#P fasten 59 0 162 0 675 456 546 456;#P connect 66 1 67 1;#P connect 81 1 82 1;#P connect 83 1 84 1;#P connect 85 1 86 1;#P connect 87 1 88 1;#P hidden connect 63 0 119 0;#P hidden connect 60 0 120 0;#P hidden connect 70 0 121 0;#P hidden connect 73 0 122 0;#P hidden connect 76 0 123 0;#P hidden connect 79 0 124 0;#P connect 55 0 108 0;#P lcolor 13;#P connect 54 0 109 0;#P lcolor 13;#P connect 53 0 110 0;#P lcolor 13;#P connect 52 0 111 0;#P lcolor 13;#P connect 52 0 112 0;#P lcolor 13;#P fasten 164 0 172 0 709 458 589 458;#P connect 56 0 107 0;#P lcolor 13;#P hidden connect 119 0 130 0;#P hidden connect 120 0 129 0;#P hidden connect 121 0 128 0;#P hidden connect 123 0 126 0;#P hidden connect 122 0 127 0;#P hidden connect 124 0 125 0;#P connect 56 0 108 1;#P lcolor 13;#P connect 55 0 109 1;#P lcolor 13;#P connect 54 0 110 1;#P lcolor 13;#P connect 53 0 111 1;#P lcolor 13;#P connect 66 1 64 0;#P hidden connect 107 0 63 0;#P lcolor 13;#P hidden connect 108 0 60 0;#P lcolor 13;#P hidden connect 109 0 70 0;#P lcolor 13;#P hidden connect 110 0 73 0;#P lcolor 13;#P connect 85 1 74 0;#P connect 84 0 74 0;#P lcolor 15;#P hidden connect 111 0 76 0;#P lcolor 13;#P hidden connect 112 0 79 0;#P lcolor 13;#P connect 88 0 80 0;#P lcolor 15;#P connect 81 1 61 0;#P connect 67 0 61 0;#P lcolor 15;#P connect 83 1 71 0;#P connect 82 0 71 0;#P lcolor 15;#P connect 87 1 77 0;#P connect 86 0 77 0;#P lcolor 15;#P hidden connect 108 1 60 1;#P lcolor 13;#P hidden connect 109 1 70 1;#P lcolor 13;#P hidden connect 110 1 73 1;#P lcolor 13;#P hidden connect 111 1 76 1;#P lcolor 13;#P hidden fasten 161 0 159 0 849 461 651 461;#P connect 159 0 173 0;#P hidden connect 63 0 89 0;#P hidden connect 60 0 90 0;#P hidden connect 70 0 91 0;#P hidden connect 73 0 92 0;#P hidden connect 76 0 93 0;#P hidden connect 79 0 94 0;#P connect 173 0 177 0;#P connect 69 0 102 0;#P hidden connect 89 0 62 0;#P connect 62 0 104 0;#P hidden connect 90 0 58 0;#P connect 58 0 103 0;#P hidden connect 91 0 69 0;#P hidden connect 92 0 72 0;#P connect 72 0 101 0;#P hidden connect 93 0 75 0;#P connect 75 0 100 0;#P hidden connect 94 0 78 0;#P connect 99 0 59 0;#P connect 100 0 59 0;#P connect 101 0 59 0;#P connect 102 0 59 0;#P connect 103 0 59 0;#P connect 104 0 59 0;#P connect 59 0 159 1;#P connect 78 0 99 0;#P fasten 161 0 171 0 849 461 685 461;#P connect 171 0 173 1;#P hidden connect 105 0 78 1;#P lcolor 13;#P connect 106 0 105 0;#P lcolor 13;#P hidden connect 105 0 62 1;#P lcolor 13;#P hidden connect 105 0 58 1;#P lcolor 13;#P hidden connect 105 0 69 1;#P lcolor 13;#P hidden connect 71 0 102 1;#P hidden connect 105 0 72 1;#P lcolor 13;#P hidden connect 105 0 75 1;#P lcolor 13;#P hidden connect 64 0 104 1;#P hidden connect 61 0 103 1;#P hidden connect 74 0 101 1;#P hidden connect 77 0 100 1;#P hidden connect 80 0 99 1;#P connect 173 1 177 1;#P connect 69 1 168 0;#P connect 62 1 170 0;#P connect 58 1 169 0;#P connect 72 1 167 0;#P connect 75 1 166 0;#P hidden connect 155 0 78 2;#P connect 170 0 164 0;#P connect 169 0 164 0;#P connect 168 0 164 0;#P connect 167 0 164 0;#P connect 166 0 164 0;#P connect 165 0 164 0;#P connect 164 0 171 1;#P connect 78 1 165 0;#P hidden connect 139 0 62 2;#P hidden connect 147 0 58 2;#P hidden connect 149 0 69 2;#P hidden connect 151 0 72 2;#P hidden connect 153 0 75 2;#P fasten 175 0 173 2 735 477 720 477;#P lcolor 15;#P connect 71 0 168 1;#P connect 64 0 170 1;#P connect 61 0 169 1;#P connect 74 0 167 1;#P connect 77 0 166 1;#P connect 80 0 165 1;#P connect 176 0 175 0;#P lcolor 15;#P hidden connect 154 0 155 0;#P hidden connect 74 0 116 0;#P hidden connect 127 0 116 0;#P hidden connect 64 0 113 0;#P hidden connect 130 0 113 0;#P hidden connect 61 0 114 0;#P hidden connect 129 0 114 0;#P hidden connect 80 0 118 0;#P hidden connect 125 0 118 0;#P hidden connect 138 0 139 0;#P hidden connect 146 0 147 0;#P hidden connect 148 0 149 0;#P hidden connect 71 0 115 0;#P hidden connect 128 0 115 0;#P hidden connect 150 0 151 0;#P hidden connect 152 0 153 0;#P hidden connect 77 0 117 0;#P hidden connect 126 0 117 0;#P hidden connect 157 0 154 0;#P hidden connect 137 0 154 0;#P hidden connect 145 0 154 0;#P hidden connect 157 0 138 0;#P hidden connect 137 0 138 0;#P hidden connect 140 0 138 0;#P hidden connect 157 0 146 0;#P hidden connect 137 0 146 0;#P hidden connect 141 0 146 0;#P hidden connect 157 0 148 0;#P hidden connect 137 0 148 0;#P hidden connect 142 0 148 0;#P hidden connect 157 0 150 0;#P hidden connect 137 0 150 0;#P hidden connect 143 0 150 0;#P hidden connect 157 0 152 0;#P hidden connect 137 0 152 0;#P hidden connect 144 0 152 0;#P hidden connect 160 0 161 0;#P hidden connect 156 0 157 0;#P hidden connect 95 0 145 0;#P hidden connect 65 0 95 0;#P hidden connect 95 0 140 0;#P hidden connect 95 0 141 0;#P hidden connect 95 0 142 0;#P hidden connect 95 0 143 0;#P hidden connect 95 0 144 0;#P pop;