max v2;#N vpatcher 37 91 941 712;#P origin 24 0;#P user kslider 603 487 35 1 36 60 19 7 0 128 128 128;#P number 621 360 32 9 0 0 0 3 0 0 0 74 156 97 222 222 222 0 0 0;#P newex 603 382 28 196617 - 70;#P newex 52 391 35 196617 s val2;#B color 12;#P number 685 432 32 9 0 0 0 3 0 0 0 74 156 97 222 222 222 0 0 0;#P comment 784 185 54 196617 calibration button;#P comment 726 140 79 196617 0 - 255 (8 bits);#P number 685 140 32 9 0 0 0 3 0 0 0 74 156 97 222 222 222 0 0 0;#P button 749 183 30 9;#P number 709 221 35 9 0 0 0 3 0 0 0 221 221 221 222 222 222 0 0 0;#P message 709 198 35 196617 set \$1;#P newex 685 242 34 196617 - 127;#P user multiSlider 685 349 106 70 -127. 127. 1 3433 32;#M frgb 232 49 0;#M brgb 239 239 239;#M rgb2 127 127 127;#P newex 685 115 35 196617 r val2;#B color 12;#P comment 696 317 25 196628 X;#P newex 52 316 53 196617 unpack;#P number 95 356 41 9 0 0 0 3 0 0 0 74 156 97 222 222 222 0 0 0;#P user kslider 324 489 35 1 36 60 19 7 0 128 128 128;#P number 342 366 32 9 0 0 0 3 0 0 0 74 156 97 222 222 222 0 0 0;#P newex 324 388 28 196617 - 70;#P toggle 69 57 15 0;#N vpatcher 502 289 746 684;#P outlet 70 342 15 0;#P inlet 87 40 15 0;#P inlet 70 40 15 0;#P newex 70 69 27 196617 gate;#P newex 70 94 30 196617 sel 1;#P newex 70 314 29 196617 / 10;#P number 70 286 54 9 0 0 0 3 0 0 0 221 221 221 222 222 222 0 0 0;#P button 70 235 15 0;#P newex 70 211 30 196617 sel 1;#P newex 70 189 29 196617 == 0;#P newex 70 167 32 196617 % 10;#P newex 70 261 33 196617 timer;#P number 70 142 54 9 0 0 0 3 0 0 0 221 221 221 222 222 222 0 0 0;#N counter;#X flags 0 0;#P newobj 70 118 66 196617 counter;#P connect 11 0 10 0;#P connect 10 0 9 0;#P connect 9 0 0 0;#P connect 0 0 1 0;#P connect 1 0 3 0;#P connect 3 0 4 0;#P connect 4 0 5 0;#P connect 5 0 6 0;#P connect 6 0 2 0;#P connect 2 0 7 0;#P connect 7 0 8 0;#P connect 8 0 13 0;#P connect 12 0 10 1;#P connect 6 0 2 1;#P pop;#P newobj 190 298 54 196617 p datarate;#P comment 198 346 54 196617 (ms/data);#P newex 139 212 29 196617 == 0;#P number 603 451 34 9 0 0 0 3 0 0 0 255 227 23 222 222 222 0 0 0;#P number 324 451 35 9 0 0 0 3 0 0 0 221 221 221 222 222 222 0 0 0;#P newex 324 560 49 196617 noteout a;#P newex 324 534 85 196617 makenote 80 500;#P number 379 426 32 9 0 0 0 3 0 0 0 74 156 97 222 222 222 0 0 0;#P toggle 190 272 15 0;#P comment 477 179 54 196617 calibration button;#P comment 420 134 79 196617 0 - 255 (8 bits);#P number 379 134 32 9 0 0 0 3 0 0 0 74 156 97 222 222 222 0 0 0;#P button 443 177 30 9;#P number 403 215 35 9 0 0 0 3 0 0 0 221 221 221 222 222 222 0 0 0;#P message 403 192 35 196617 set \$1;#P newex 379 236 34 196617 - 127;#P user multiSlider 379 343 106 70 -127. 127. 1 3433 32;#M frgb 232 49 0;#M brgb 239 239 239;#M rgb2 127 127 127;#P number 52 356 41 9 0 0 0 3 0 0 0 74 156 97 222 222 222 0 0 0;#P newex 69 212 45 196617 pack 0 0;#P newex 379 109 35 196617 r val1;#B color 12;#P newex 95 391 35 196617 s val1;#B color 12;#P newex 69 135 39 196617 & 255;#P comment 390 311 25 196628 X;#P newex 52 265 27 196617 gate;#P newex 69 183 80 196617 bucket 3;#P number 103 66 35 9 0 0 0 3 0 0 0 156 179 255 222 222 222 0 0 0;#P number 190 323 34 9 0 0 0 3 0 0 0 255 227 23 222 222 222 0 0 0;#P number 69 160 54 9 0 0 0 3 0 0 0 221 221 221 222 222 222 0 0 0;#P newex 69 87 44 196617 metro 5;#P newex 69 111 81 196617 serialX c 19200;#P comment 226 324 54 196617 (ms/data);#P comment 175 359 100 196617 data sampling rate;#P comment 219 44 218 131137550 BX-24 example (flex/photocell);#P comment 220 69 76 196617 Yoichiro Serita 03.25.2003;#P fasten 31 0 10 0 144 257 57 257;#P connect 10 0 39 0;#P connect 39 0 16 0;#P connect 16 0 51 0;#P connect 34 0 5 0;#P connect 5 0 4 0;#P connect 4 0 12 0;#P connect 12 0 6 0;#P connect 6 0 9 0;#P connect 9 0 15 0;#P connect 15 0 10 1;#P connect 39 1 38 0;#P connect 38 0 13 0;#P connect 8 0 5 1;#P connect 9 1 15 1;#P connect 9 2 31 0;#P connect 25 0 33 0;#P connect 33 0 7 0;#P fasten 31 0 33 1 144 257 239 257;#P fasten 22 0 35 0 384 160 329 160;#P connect 35 0 29 0;#P connect 29 0 37 0;#P fasten 54 0 27 0 608 529 329 529;#P connect 37 0 27 0;#P connect 27 0 28 0;#P connect 36 0 35 1;#P connect 27 1 28 1;#P connect 14 0 22 0;#P connect 22 0 18 0;#P connect 18 0 17 0;#P connect 17 0 26 0;#P fasten 22 0 19 0 384 181 408 181;#P connect 19 0 20 0;#P fasten 21 0 20 0 448 211 408 211;#P connect 20 0 18 1;#P fasten 47 0 52 0 690 162 608 162;#P connect 52 0 30 0;#P connect 30 0 54 0;#P connect 53 0 52 1;#P connect 41 0 47 0;#P connect 47 0 43 0;#P connect 43 0 42 0;#P connect 42 0 50 0;#P fasten 47 0 44 0 690 187 714 187;#P fasten 46 0 45 0 754 217 714 217;#P connect 44 0 45 0;#P connect 45 0 43 1;#P pop;