max v2;#N vpatcher 31 54 969 749;#P origin 24 0;#P toggle 173 439 15 0;#P newex 173 463 27 196617 gate;#P number 190 439 41 9 0 0 0 3 0 0 0 74 156 97 222 222 222 0 0 0;#P newex 177 488 30 196617 print;#P newex 252 268 30 196617 sel 1;#P number 246 407 54 9 0 0 0 3 0 0 0 221 221 221 222 222 222 0 0 0;#P button 267 302 15 0;#P newex 262 353 33 196617 timer;#P newex 188 143 85 196617 serialX c 115200;#P toggle 39 513 15 0;#P newex 39 537 27 196617 gate;#P newex 616 530 29 196617 + 30;#P newex 396 534 28 196617 - 30;#P user GSwitch 472 569 41 32 0 0;#P number 56 513 41 9 0 0 0 3 0 0 0 74 156 97 222 222 222 0 0 0;#P newex 472 615 89 196617 expr $i1 / 2 + 50;#P user multiSlider 668 434 106 70 -127. 127. 1 3433 32;#M frgb 232 49 0;#M brgb 239 239 239;#M rgb2 127 127 127;#P newex 668 404 27 196617 -;#P user multiSlider 379 442 106 70 -127. 127. 1 3433 32;#M frgb 232 49 0;#M brgb 239 239 239;#M rgb2 127 127 127;#P newex 379 404 27 196617 +;#P newex 685 261 29 196617 * -1;#P newex 379 261 29 196617 * -1;#P user kslider 39 565 35 1 36 60 19 7 0 128 128 128;#P number 620 181 32 9 0 0 0 3 0 0 0 74 156 97 222 222 222 0 0 0;#P newex 602 203 28 196617 - 70;#P newex 52 385 35 196617 s val2;#B color 12;#P number 685 368 32 9 0 0 0 3 0 0 0 74 156 97 222 222 222 0 0 0;#P comment 784 179 54 196617 calibration button;#P comment 726 140 79 196617 0 - 255 (8 bits);#P number 685 134 32 9 0 0 0 3 0 0 0 74 156 97 222 222 222 0 0 0;#P button 749 177 30 9;#P number 709 215 35 9 0 0 0 3 0 0 0 221 221 221 222 222 222 0 0 0;#P message 709 192 35 196617 set \$1;#P newex 685 236 34 196617 - 127;#P user multiSlider 685 287 106 70 -127. 127. 1 3433 32;#M frgb 232 49 0;#M brgb 239 239 239;#M rgb2 127 127 127;#P newex 685 109 35 196617 r val2;#B color 12;#P newex 52 316 53 196617 unpack;#P number 95 356 41 9 0 0 0 3 0 0 0 74 156 97 222 222 222 0 0 0;#P number 333 184 32 9 0 0 0 3 0 0 0 74 156 97 222 222 222 0 0 0;#P newex 315 206 28 196617 - 70;#P toggle 69 57 15 0;#N vpatcher 502 289 746 684;#P outlet 70 342 15 0;#P inlet 87 40 15 0;#P inlet 70 40 15 0;#P newex 70 69 27 196617 gate;#P newex 70 94 30 196617 sel 1;#P newex 70 314 29 196617 / 10;#P number 70 286 54 9 0 0 0 3 0 0 0 221 221 221 222 222 222 0 0 0;#P button 70 235 15 0;#P newex 70 211 30 196617 sel 1;#P newex 70 189 29 196617 == 0;#P newex 70 167 32 196617 % 10;#P newex 70 261 33 196617 timer;#P number 70 142 54 9 0 0 0 3 0 0 0 221 221 221 222 222 222 0 0 0;#N counter;#X flags 0 0;#P newobj 70 118 66 196617 counter;#P connect 11 0 10 0;#P connect 10 0 9 0;#P connect 9 0 0 0;#P connect 0 0 1 0;#P connect 1 0 3 0;#P connect 3 0 4 0;#P connect 4 0 5 0;#P connect 5 0 6 0;#P connect 6 0 2 0;#P connect 2 0 7 0;#P connect 7 0 8 0;#P connect 8 0 13 0;#P connect 12 0 10 1;#P connect 6 0 2 1;#P pop;#P newobj 166 298 54 196617 p datarate;#P newex 139 212 29 196617 == 0;#P number 602 230 34 9 0 0 0 3 0 0 0 255 227 23 222 222 222 0 0 0;#P number 315 230 35 9 0 0 0 3 0 0 0 221 221 221 222 222 222 0 0 0;#P newex 39 637 49 196617 noteout a;#P newex 39 611 85 196617 makenote 80 500;#P number 379 368 32 9 0 0 0 3 0 0 0 74 156 97 222 222 222 0 0 0;#P toggle 166 272 15 0;#P comment 477 179 54 196617 calibration button;#P comment 420 134 79 196617 0 - 255 (8 bits);#P number 379 134 32 9 0 0 0 3 0 0 0 74 156 97 222 222 222 0 0 0;#P button 443 177 30 9;#P number 403 215 35 9 0 0 0 3 0 0 0 221 221 221 222 222 222 0 0 0;#P message 403 192 35 196617 set \$1;#P newex 379 236 34 196617 - 127;#P user multiSlider 379 287 106 70 -127. 127. 1 3433 32;#M frgb 232 49 0;#M brgb 239 239 239;#M rgb2 127 127 127;#P number 52 356 41 9 0 0 0 3 0 0 0 74 156 97 222 222 222 0 0 0;#P newex 69 212 45 196617 pack 0 0;#P newex 379 109 35 196617 r val1;#B color 12;#P newex 95 385 35 196617 s val1;#B color 12;#P newex 69 135 39 196617 & 255;#P newex 52 265 27 196617 gate;#P newex 69 183 80 196617 bucket 3;#P number 103 66 35 9 0 0 0 3 0 0 0 156 179 255 222 222 222 0 0 0;#P number 166 323 34 9 0 0 0 3 0 0 0 255 227 23 222 222 222 0 0 0;#P number 69 160 54 9 0 0 0 3 0 0 0 221 221 221 222 222 222 0 0 0;#P newex 69 87 44 196617 metro 5;#P newex 208 208 30 196617 print;#P comment 202 324 54 196617 (ms/data);#P comment 219 44 218 131137550 BX-24 example (flex/photocell);#P comment 220 69 76 196617 Yoichiro Serita 03.25.2003;#P connect 62 0 61 0;#P connect 61 0 49 0;#P connect 49 0 25 0;#P connect 25 0 26 0;#P fasten 29 0 9 0 144 257 57 257;#P connect 9 0 35 0;#P connect 35 0 14 0;#P connect 14 0 46 0;#P connect 56 0 57 0;#P connect 57 0 61 1;#P connect 25 1 26 1;#P connect 31 0 4 0;#P connect 63 0 10 0;#P connect 10 0 5 0;#P connect 5 0 8 0;#P connect 8 0 13 0;#P connect 13 0 9 1;#P connect 35 1 34 0;#P connect 34 0 11 0;#P connect 7 0 4 1;#P connect 8 1 13 1;#P connect 8 2 29 0;#P connect 23 0 30 0;#P connect 30 0 6 0;#P connect 71 0 70 0;#P connect 70 0 68 0;#P connect 4 0 63 0;#P connect 66 0 69 0;#P connect 69 0 70 1;#P fasten 29 0 30 1 144 257 215 257;#P connect 64 0 66 0;#P connect 29 0 67 0;#P connect 65 0 64 0;#P connect 67 0 65 0;#P connect 65 0 64 1;#P fasten 20 0 32 0 384 160 320 160;#P connect 32 0 27 0;#P connect 33 0 32 1;#P connect 12 0 20 0;#P connect 20 0 16 0;#P connect 16 0 50 0;#P connect 50 0 15 0;#P connect 15 0 24 0;#P connect 24 0 52 0;#P connect 52 0 53 0;#P connect 45 0 52 1;#P connect 53 0 59 0;#P fasten 20 0 17 0 384 181 408 181;#P connect 17 0 18 0;#P fasten 19 0 18 0 448 211 408 211;#P connect 18 0 16 1;#P connect 58 0 56 0;#P connect 59 0 58 1;#P connect 60 0 58 2;#P fasten 42 0 47 0 690 162 607 162;#P connect 47 0 28 0;#P connect 55 0 60 0;#P connect 48 0 47 1;#P connect 24 0 54 0;#P connect 54 0 55 0;#P connect 36 0 42 0;#P connect 42 0 38 0;#P connect 38 0 51 0;#P connect 51 0 37 0;#P connect 37 0 45 0;#P connect 45 0 54 1;#P fasten 42 0 39 0 690 187 714 187;#P fasten 41 0 40 0 754 217 714 217;#P connect 39 0 40 0;#P connect 40 0 38 1;#P pop;