max v2;#N vpatcher 4 44 657 854;#P origin -192 51;#P button 122 852 15 0;#P window setfont "Sans Serif" 9.;#P comment 1204 195 100 196617 then same instructions than left;#P comment 1394 144 186 196617 click open on "use live camera input" in "density";#P comment 1001 123 186 196617 click open on "use live camera input" in "density";#N vpreset 1;#X append 1 2 41 64 19 toggle int 1 \; 49 69 182 toggle int 0 \; 53 72 332 flonum float 0. \; 65 178 576 number int 10 \; 68 146 510 GSwitch int 1 \; 69 374 158 GSwitch int;#X append 1 2 0 \; 70 280 173 GSwitch int 0 \; 71 252 137 toggle int 0 \; 74 338 123 toggle int 0 \; 77 80 529 toggle int 1 \; 87 418 733 flonum float 11. \; 88 418 772;#X append 1 2 flonum float 19. \; 89 418 808 flonum float 0. \; 90 418 828 flonum float 0. \; 91 418 848 flonum float 0. \; 92 418 868 flonum float 0. \; 93 418 888 flonum float 0. \; 94 418 908;#X append 1 2 flonum float 0. \; 100 437 1082 flonum float 24. \; 101 436 1135 flonum float 64. \; 102 438 1045 flonum float 1. \; 103 389 1082 GSwitch int 0 \; 104 306 1128 toggle int 0 \; 105 389 1135;#X append 1 2 GSwitch int 0 \; 106 305 977 toggle int 1 \; 112 821 885 toggle int 0 \; 115 771 1026 toggle int 1 \; 118 785 1342 number int 0 \; 119 816 1391 toggle int 0 \; 120 816 1407;#X append 1 2 toggle int 0 \; 121 816 1436 number int 0 \; 136 654 577 flonum float 0. \; 139 654 635 flonum float 0. \; 142 654 684 flonum float 1. \; 145 655 743 flonum float 0.5 \; 147 654 796;#X append 1 2 flonum float 4. \; 150 648 301 toggle int 1 \; 162 752 498 number int 1 \; 180 501 815 GSwitch int 1 \; 182 501 866 GSwitch int 1 \; 184 501 953 GSwitch int 1 \; 185 501 1000;#X append 1 2 GSwitch int 1 \; 186 503 1048 GSwitch int 1 \; 191 670 227 flonum float 64. \; 192 670 155 flonum float 24. \; 193 670 110 flonum float 1. \; 194 670 62 flonum float 1. \; 195 670 8;#X append 1 2 flonum float 1. \; 198 178 615 toggle int 1 \; 199 537 1049 flonum float 1. \; 200 535 1001 flonum float 1. \; 203 647 1135 GSwitch int 0 \; 204 631 1070 toggle int 0 \;;#P preset 1394 30 18 17;#P window setfont "Sans Serif" 14.;#P comment 1394 51 163 196622 density from video \, motion from tracking \, ripple effect;#P window setfont "Sans Serif" 9.;#P comment 1204 118 186 196617 click close on "use live camera input" in "density";#P comment 1201 147 100 196617 open tracking+fluids;#P comment 1001 167 186 196617 click on cross if want auto reset;#N vpreset 1;#X append 1 2 41 64 19 toggle int 0 \; 49 69 182 toggle int 1 \; 53 72 332 flonum float 0. \; 65 178 576 number int 10 \; 68 146 510 GSwitch int 1 \; 69 374 158 GSwitch int;#X append 1 2 0 \; 70 280 173 GSwitch int 0 \; 71 252 137 toggle int 0 \; 74 338 123 toggle int 0 \; 77 80 529 toggle int 1 \; 87 418 733 flonum float 79. \; 88 418 772;#X append 1 2 flonum float 42. \; 89 418 808 flonum float 0. \; 90 418 828 flonum float 0. \; 91 418 848 flonum float 0. \; 92 418 868 flonum float 0. \; 93 418 888 flonum float 0. \; 94 418 908;#X append 1 2 flonum float 0. \; 100 437 1082 flonum float 55. \; 101 436 1135 flonum float 50. \; 102 438 1045 flonum float 1. \; 103 389 1082 GSwitch int 0 \; 104 306 1128 toggle int 0 \; 105 389 1135;#X append 1 2 GSwitch int 0 \; 106 305 977 toggle int 1 \; 112 821 885 toggle int 0 \; 115 771 1026 toggle int 1 \; 118 785 1342 number int 0 \; 119 816 1391 toggle int 0 \; 120 816 1407;#X append 1 2 toggle int 0 \; 121 816 1436 number int 0 \; 136 654 577 flonum float 0. \; 139 654 635 flonum float 0. \; 142 654 684 flonum float 1. \; 145 655 743 flonum float 0.5 \; 147 654 796;#X append 1 2 flonum float 4. \; 150 648 301 toggle int 1 \; 162 752 498 number int 1 \; 180 501 815 GSwitch int 1 \; 182 501 866 GSwitch int 1 \; 184 501 953 GSwitch int 1 \; 185 501 1000;#X append 1 2 GSwitch int 1 \; 186 503 1048 GSwitch int 1 \; 191 670 227 flonum float 50. \; 192 670 155 flonum float 55. \; 193 670 110 flonum float 1. \; 194 670 62 flonum float 1. \; 195 670 8;#X append 1 2 flonum float 1. \; 198 178 615 toggle int 1 \; 199 537 1049 flonum float 1. \; 200 535 1001 flonum float 1. \; 203 647 1135 GSwitch int 1 \; 204 631 1070 toggle int 1 \;;#P preset 1205 28 18 17;#P window setfont "Sans Serif" 14.;#P comment 1204 47 163 196622 density from image \, motion from tracking \, ripple effect;#N vpreset 1;#X append 1 2 41 64 19 toggle int 1 \; 49 69 182 toggle int 0 \; 53 72 332 flonum float 0. \; 65 178 576 number int 10 \; 68 146 510 GSwitch int 1 \; 69 374 158 GSwitch int;#X append 1 2 1 \; 70 280 173 GSwitch int 0 \; 71 252 137 toggle int 0 \; 74 338 123 toggle int 1 \; 77 80 529 toggle int 1 \; 87 418 733 flonum float 33. \; 88 418 772;#X append 1 2 flonum float 10. \; 89 418 808 flonum float 0. \; 90 418 828 flonum float 0. \; 91 418 848 flonum float 0. \; 92 418 868 flonum float 0. \; 93 418 888 flonum float 0. \; 94 418 908;#X append 1 2 flonum float 0. \; 100 437 1082 flonum float 63. \; 101 436 1135 flonum float 42. \; 102 438 1045 flonum float 1. \; 103 389 1082 GSwitch int 0 \; 104 306 1128 toggle int 0 \; 105 389 1135;#X append 1 2 GSwitch int 0 \; 106 305 977 toggle int 1 \; 112 821 885 toggle int 1 \; 115 771 1026 toggle int 1 \; 118 785 1342 number int 0 \; 119 816 1391 toggle int 0 \; 120 816 1407;#X append 1 2 toggle int 0 \; 121 816 1436 number int 0 \; 136 654 577 flonum float 0.01 \; 139 654 635 flonum float 0. \; 142 654 684 flonum float 1. \; 145 655 743 flonum float 0.1 \; 147 654 796;#X append 1 2 flonum float 500. \; 150 648 301 toggle int 1 \; 162 752 498 number int 1 \; 180 501 815 GSwitch int 1 \; 182 501 866 GSwitch int 1 \; 184 501 953 GSwitch int 1 \; 185 501 1000;#X append 1 2 GSwitch int 1 \; 186 503 1048 GSwitch int 1 \; 191 670 227 flonum float 42. \; 192 670 155 flonum float 63. \; 193 670 110 flonum float 1. \; 194 670 62 flonum float 1. \; 195 670 8;#X append 1 2 flonum float 1. \; 198 178 615 toggle int 0 \; 199 537 1049 flonum float 1. \; 200 535 1001 flonum float 1. \; 203 647 1135 GSwitch int 0 \; 204 631 1070 toggle int 0 \;;#P preset 986 78 18 17;#P comment 1006 79 167 196622 density/motion from tracking \, ripple effect;#N vpreset 1;#X append 1 2 41 64 19 toggle int 1 \; 49 69 182 toggle int 0 \; 53 72 332 flonum float 0. \; 65 178 576 number int 10 \; 68 146 510 GSwitch int 1 \; 69 374 158 GSwitch int;#X append 1 2 1 \; 70 280 173 GSwitch int 0 \; 71 252 137 toggle int 0 \; 74 338 123 toggle int 1 \; 77 80 529 toggle int 1 \; 87 418 733 flonum float 52. \; 88 418 772;#X append 1 2 flonum float 105. \; 89 418 808 flonum float 0. \; 90 418 828 flonum float 0. \; 91 418 848 flonum float 0. \; 92 418 868 flonum float 0. \; 93 418 888 flonum float 0. \; 94 418 908;#X append 1 2 flonum float 0. \; 100 437 1082 flonum float 56. \; 101 436 1135 flonum float 76. \; 102 438 1045 flonum float 1. \; 103 389 1082 GSwitch int 0 \; 104 306 1128 toggle int 0 \; 105 389 1135;#X append 1 2 GSwitch int 0 \; 106 305 977 toggle int 1 \; 112 821 885 toggle int 0 \; 115 771 1026 toggle int 1 \; 118 785 1342 number int 0 \; 119 816 1391 toggle int 0 \; 120 816 1407;#X append 1 2 toggle int 0 \; 121 816 1436 number int 0 \; 136 654 577 flonum float 0. \; 139 654 635 flonum float 0. \; 142 654 684 flonum float 1. \; 145 655 743 flonum float 0.5 \; 147 654 796;#X append 1 2 flonum float 4. \; 150 648 301 toggle int 1 \; 162 752 498 number int 0 \; 180 501 815 GSwitch int 1 \; 182 501 866 GSwitch int 1 \; 184 501 953 GSwitch int 1 \; 185 501 1000;#X append 1 2 GSwitch int 1 \; 186 503 1048 GSwitch int 1 \; 191 670 227 flonum float 76. \; 192 670 155 flonum float 56. \; 193 670 110 flonum float 1. \; 194 670 62 flonum float 1. \; 195 670 8;#X append 1 2 flonum float 1. \; 198 178 615 toggle int 1 \; 199 537 1049 flonum float 1. \; 200 535 1001 flonum float 1. \; 203 647 1135 GSwitch int 1 \; 204 631 1070 toggle int 1 \;;#P preset 986 50 18 17;#N vpreset 1;#X append 1 2 41 64 19 toggle int 0 \; 49 69 182 toggle int 1 \; 53 72 332 flonum float 0. \; 65 178 576 number int 10 \; 68 146 510 GSwitch int 0 \; 69 374 158 GSwitch int;#X append 1 2 1 \; 70 280 173 GSwitch int 0 \; 71 252 137 toggle int 0 \; 74 338 123 toggle int 1 \; 77 80 529 toggle int 0 \; 87 418 733 flonum float 16. \; 88 418 772;#X append 1 2 flonum float 44. \; 89 418 808 flonum float 0. \; 90 418 828 flonum float 0. \; 91 418 848 flonum float 0. \; 92 418 868 flonum float 0. \; 93 418 888 flonum float 0. \; 94 418 908;#X append 1 2 flonum float 0. \; 100 437 1082 flonum float 45. \; 101 436 1135 flonum float 60. \; 102 438 1045 flonum float 1. \; 103 389 1082 GSwitch int 0 \; 104 306 1128 toggle int 0 \; 105 389 1135;#X append 1 2 GSwitch int 0 \; 106 305 977 toggle int 0 \; 112 821 885 toggle int 0 \; 115 771 1026 toggle int 1 \; 118 785 1342 number int 0 \; 119 816 1391 toggle int 0 \; 120 816 1407;#X append 1 2 toggle int 0 \; 121 816 1436 number int 0 \; 136 654 577 flonum float 0. \; 139 654 635 flonum float 0. \; 142 654 684 flonum float 1. \; 145 655 743 flonum float 0.5 \; 147 654 796;#X append 1 2 flonum float 4. \; 150 648 301 toggle int 1 \; 162 752 498 number int 1 \; 180 501 815 GSwitch int 0 \; 182 501 866 GSwitch int 0 \; 184 501 953 GSwitch int 0 \; 185 501 1000;#X append 1 2 GSwitch int 0 \; 186 503 1048 GSwitch int 0 \; 191 670 227 flonum float 44. \; 192 670 155 flonum float 16. \; 193 670 110 flonum float 0. \; 194 670 62 flonum float 0. \; 195 670 8;#X append 1 2 flonum float 0. \; 198 178 615 toggle int 0 \; 199 537 1049 flonum float 0. \; 200 535 1001 flonum float 0. \; 203 647 1135 GSwitch int 1 \; 204 631 1070 toggle int 1 \;;#P preset 704 76 18 17;#P comment 725 76 231 196622 Create Ripple effect;#P window setfont "Sans Serif" 12.;#P comment 723 161 231 196620 Move density and create the "smoke" effect by holding the shift key while dragging the mouse within the Density Window.;#P window setfont "Sans Serif" 14.;#P comment 1262 683 63 196622 Density Window;#N vpreset 1;#X append 1 2 41 64 19 toggle int 0 \; 49 69 182 toggle int 1 \; 53 72 332 flonum float 0. \; 65 178 576 number int 10 \; 68 146 510 GSwitch int 0 \; 69 374 158 GSwitch int;#X append 1 2 1 \; 70 280 173 GSwitch int 0 \; 71 252 137 toggle int 0 \; 74 338 123 toggle int 1 \; 77 80 529 toggle int 0 \; 87 418 733 flonum float 45. \; 88 418 772;#X append 1 2 flonum float 12. \; 89 418 808 flonum float 0. \; 90 418 828 flonum float 0. \; 91 418 848 flonum float 0. \; 92 418 868 flonum float 0. \; 93 418 888 flonum float 0. \; 94 418 908;#X append 1 2 flonum float 0. \; 100 437 1082 flonum float 45. \; 101 436 1135 flonum float 60. \; 102 438 1045 flonum float 1. \; 103 389 1082 GSwitch int 0 \; 104 306 1128 toggle int 0 \; 105 389 1135;#X append 1 2 GSwitch int 0 \; 106 305 977 toggle int 0 \; 112 821 885 toggle int 0 \; 115 771 1026 toggle int 1 \; 118 785 1342 number int 0 \; 119 816 1391 toggle int 0 \; 120 816 1407;#X append 1 2 toggle int 0 \; 121 816 1436 number int 0 \; 136 654 577 flonum float 0. \; 139 654 635 flonum float 0. \; 142 654 684 flonum float 1. \; 145 655 743 flonum float 0.5 \; 147 654 796;#X append 1 2 flonum float 4. \; 150 648 301 toggle int 1 \; 162 752 498 number int 0 \; 180 501 815 GSwitch int 0 \; 182 501 866 GSwitch int 0 \; 184 501 953 GSwitch int 0 \; 185 501 1000;#X append 1 2 GSwitch int 0 \; 186 503 1048 GSwitch int 0 \; 191 670 227 flonum float 12. \; 192 670 155 flonum float 45. \; 193 670 110 flonum float 0. \; 194 670 62 flonum float 0. \; 195 670 8;#X append 1 2 flonum float 0. \; 198 178 615 toggle int 1 \; 199 537 1049 flonum float 0. \; 200 535 1001 flonum float 0. \; 203 647 1135 GSwitch int 1 \; 204 631 1070 toggle int 1 \;;#P preset 704 57 18 17;#P toggle 1070 631 15 0;#P user gswitch 1135 647 41 32 1 0;#P window setfont "Sans Serif" 9.;#P newex 1135 890 45 196617 ys.video;#P newex 977 385 30 196617 t 1 b;#P flonum 1001 535 35 9 0 0 0 3 0 0 0 221 221 221 222 222 222 0 0 0;#P flonum 1049 537 35 9 0 0 0 3 0 0 0 221 221 221 222 222 222 0 0 0;#P toggle 615 178 15 0;#P newex 615 201 63 196617 metro 1000;#P button 615 225 15 0;#P flonum 8 670 35 9 0 0 0 3 0 0 0 221 221 221 222 222 222 0 0 0;#P flonum 62 670 35 9 0 0 0 3 0 0 0 221 221 221 222 222 222 0 0 0;#P flonum 110 670 35 9 0 0 0 3 0 0 0 221 221 221 222 222 222 0 0 0;#P flonum 155 670 35 9 0 0 0 3 0 0 0 221 221 221 222 222 222 0 0 0;#P flonum 227 670 35 9 0 0 0 3 0 0 0 221 221 221 222 222 222 0 0 0;#P newex 1089 609 63 196617 jit.op @op +;#P newex 953 540 31 196617 s ctr;#P newex 1051 554 38 196617 s shift;#P newex 996 553 45 196617 s button;#P user gswitch 1048 503 41 32 1 0;#P user gswitch 1000 501 41 32 1 0;#P user gswitch 953 501 41 32 1 0;#P newex 871 540 55 196617 s mouse_y;#P user gswitch 866 501 41 32 1 0;#P newex 813 540 55 196617 s mouse_x;#P user gswitch 815 501 41 32 1 0;#N vpatcher 1027 789 1561 1264;#P user jit.pwindow 223 237 124 124 1 1 1 1 1 0;#P window setfont "Sans Serif" 9.;#P newex 189 36 55 196617 r mouse_y;#P newex 130 37 55 196617 r mouse_x;#P outlet 149 229 15 0;#P newex 149 180 53 196617 t b l clear;#P newex 123 136 20 196617 t b;#P newex 247 114 27 196617 + 5.;#P newex 172 115 27 196617 - 5.;#P newex 212 114 27 196617 + 5.;#P newex 141 115 27 196617 - 5.;#P newex 145 156 172 196617 pack paintoval 0 0 0 0 255 255 255;#P message 205 181 55 196617 brgb 0 0 0;#P newex 149 205 110 196617 jit.lcd 4 char 122 122;#P connect 3 0 7 0;#P connect 10 0 3 0;#P connect 7 0 2 0;#P connect 2 0 8 0;#P connect 1 0 0 0;#P connect 8 2 0 0;#P connect 8 1 0 0;#P connect 8 0 0 0;#P connect 0 0 9 0;#P connect 3 0 2 1;#P connect 11 0 5 0;#P connect 5 0 2 2;#P connect 10 0 4 0;#P connect 4 0 2 3;#P connect 0 0 12 0;#P connect 6 0 2 4;#P connect 11 0 6 0;#P pop;#P newobj 1089 580 33 196617 p ball;#P window setfont "Sans Serif" 20.;#P comment 4 589 134 196628 Computation;#P window setfont "Sans Serif" 9.;#P newex 429 218 31 196617 r ctr;#P newex 429 242 27 196617 gate;#P newex 1165 587 35 196617 r dens;#P newex 185 815 72 196617 r densityinput;#P newex 180 419 72 196617 s densityinput;#P comment 384 827 122 196617 send matrix contents to matrixview patch;#P newex 301 767 75 196617 jit.stablefluids;#P newex 517 807 22 196617 s v;#P newex 489 807 21 196617 s u;#P newex 422 807 64 196617 s dens_prev;#P newex 384 807 35 196617 s dens;#P message 238 855 32 196617 clear;#P newex 301 881 108 196617 jit.matrix fluidmatrix;#P newex 301 852 53 196617 jit.pack 4;#P newex 301 791 66 196617 jit.unpack 4;#P number 498 752 35 9 0 2 3 3 0 0 0 221 221 221 222 222 222 0 0 0;#P message 498 774 45 196617 mode \$1;#P message 110 690 38 196617 ctr \$1;#P message 62 690 45 196617 shift \$1;#P message 8 690 52 196617 button \$1;#P message 227 690 64 196617 mouse_x \$1;#P message 155 690 64 196617 mouse_y \$1;#P newex 8 648 45 196617 r button;#P newex 110 648 31 196617 r ctr;#P newex 62 648 38 196617 r shift;#P newex 227 648 55 196617 r mouse_y;#P newex 155 648 55 196617 r mouse_x;#P toggle 301 648 15 0;#P newex 301 679 51 196617 metro 50;#P newex 301 709 182 196617 jit.matrix fluidmatrix 4 char 122 122;#P flonum 796 654 35 9 0. 1000. 3 3 0 0 0 221 221 221 222 222 222 0 0 0;#P message 796 675 48 196617 force \$1;#P flonum 743 655 35 9 0. 200. 3 3 0 0 0 221 221 221 222 222 222 0 0 0;#P message 743 676 33 196617 dt \$1;#P message 743 628 35 196617 0.1;#P flonum 684 654 35 9 0. 200. 3 3 0 0 0 221 221 221 222 222 222 0 0 0;#P message 684 676 54 196617 source \$1;#P message 684 627 35 196617 200;#P flonum 635 654 35 9 0. 200. 3 3 0 0 0 221 221 221 222 222 222 0 0 0;#P message 635 675 43 196617 visc \$1;#P message 635 627 36 196617 0.;#P flonum 577 654 35 9 0. 200. 3 3 0 0 0 221 221 221 222 222 222 0 0 0;#P message 577 675 40 196617 diff \$1;#P message 577 627 17 196617 0.;#P message 796 627 36 196617 5.;#P window setfont "Sans Serif" 10.;#P comment 440 603 123 196618 INPUT PARAMETERS;#P window setfont "Sans Serif" 9.;#P comment 440 620 123 196617 diff = diffusion;#P comment 440 657 100 196617 dt = time step;#P comment 440 634 100 196617 visc = viscosity;#P comment 440 681 127 196617 N = grid size (hard coded);#P comment 440 669 126 196617 force = user input;#P comment 440 645 100 196617 source =;#P user panel 436 596 415 103;#X brgb 191 191 191;#X frgb 0 0 0;#X border 1;#X rounded 0;#X shadow 0;#X done;#P window setfont "Sans Serif" 20.;#P comment 706 247 190 196628 2.velocity input;#P window setfont "Sans Serif" 9.;#P comment 260 184 127 196617 from cv.jit.centroids.track;#P user jit.pwindow 1323 863 122 122 1 1 0 0 1 0;#P number 1436 816 35 9 0 0 0 3 0 0 0 221 221 221 222 222 222 0 0 0;#P toggle 1407 816 15 0;#P toggle 1391 816 15 0;#P number 1342 785 35 9 0 0 0 3 0 0 0 221 221 221 222 222 222 0 0 0;#P newex 1342 814 45 196617 pack 0 0;#P newex 1324 841 118 196617 whisper;#P toggle 1026 771 15 0;#P message 1026 805 51 196617 interp \$1;#P message 900 804 72 196617 fullscreen \$1;#P toggle 885 821 15 0;#P newex 925 780 35 196617 sel 27;#P newex 883 780 40 196617 key;#P comment 872 838 129 196617 'Esc' toggles fullscreen. Previous window size is still remembered and used for interpolation.;#P newex 1026 836 204 196617 jit.window liquifier @rect 10 100 498 466;#P user panel 869 771 141 121;#X brgb 191 191 191;#X frgb 0 0 0;#X border 1;#X rounded 0;#X shadow 0;#X done;#P toggle 977 305 15 0;#P user gswitch 1135 389 41 32 0 0;#P toggle 1128 306 15 0;#P user gswitch 1082 389 41 32 0 0;#P flonum 1045 438 35 9 0 0 0 3 0 0 0 221 221 221 222 222 222 0 0 0;#P flonum 1135 436 35 9 0. 2000. 3 3 0 0 0 221 221 221 222 222 222 0 0 0;#P flonum 1082 437 35 9 0. 2000. 3 3 0 0 0 221 221 221 222 222 222 0 0 0;#P newex 1219 330 60 196617 r centroidY;#P newex 1157 330 60 196617 r centroidX;#P newex 1062 328 38 196617 r ypos;#P newex 1014 328 38 196617 r xpos;#P newex 735 324 59 196617 r userinput;#P flonum 908 418 18 9 0. 200. 3 3 0 0 0 221 221 221 222 222 222 0 0 0;#P flonum 888 418 18 9 0. 200. 3 3 0 0 0 221 221 221 222 222 222 0 0 0;#P flonum 868 418 18 9 0. 200. 3 3 0 0 0 221 221 221 222 222 222 0 0 0;#P flonum 848 418 18 9 0. 200. 3 3 0 0 0 221 221 221 222 222 222 0 0 0;#P flonum 828 418 18 9 0. 200. 3 3 0 0 0 221 221 221 222 222 222 0 0 0;#P flonum 808 418 18 9 0. 200. 3 3 0 0 0 221 221 221 222 222 222 0 0 0;#P flonum 772 418 35 9 0. 2000. 3 3 0 0 0 221 221 221 222 222 222 0 0 0;#P flonum 733 418 35 9 0. 2000. 3 3 0 0 0 221 221 221 222 222 222 0 0 0;#P comment 752 438 28 196617 x \, y;#P newex 733 376 110 196617 unpack 0 0 0 0 0 0 0 0;#P newex 735 350 110 196617 route mouse mouseidle;#P comment 801 438 159 196617 button \, cmd \, shift \, caps \, opt \, ctrl;#P newex 445 97 59 196617 r userinput;#P newex 1247 836 59 196617 s userinput;#P user jit.pwindow 1134 682 124 124 1 1 1 1 1 0;#X name Density;#P newex 445 117 51 196617 ys.mouse;#P comment 443 82 61 196617 from mouse;#P toggle 529 80 15 0;#P user jit.pwindow 157 442 122 122 1 1 0 0 1 0;#P newex 188 337 30 196617 r lcd;#P toggle 123 338 15 0;#P comment 9 347 100 196617 toggle to use video or user input;#P newex 273 202 60 196617 r framediff;#P toggle 137 252 15 0;#P user gswitch 173 280 41 32 0 0;#P user gswitch 158 374 41 32 0 0;#P user gswitch 510 146 41 32 1 0;#P newex 484 455 30 196617 s lcd;#P newex 510 194 38 196617 Ladd 2;#P number 576 178 35 9 0 0 0 3 0 0 0 221 221 221 222 222 222 0 0 0;#P newex 470 435 66 196617 jit.unpack;#P user jit.pwindow 469 309 122 122 1 1 0 0 1 0;#P newex 470 287 110 196617 jit.lcd 4 char 122 122;#P newex 470 260 27 196617 t b l;#P newex 471 235 88 196617 prepend paintoval;#P newex 471 215 128 196617 pack 0 0 0 0 255 255 255;#P message 503 256 160 196617 clear \, frgb 0 0 0 \, brgb 0 0 0 \, bang;#P newex 19 166 41 196617 s video;#P newex 78 170 128 196617 jit.matrix 4 char 122 122;#P newex 188 201 65 196617 jit.rgb2luma;#P message 90 125 44 196617 settings;#P flonum 332 72 35 9 0 0 0 3 0 0 0 221 221 221 222 222 222 0 0 0;#P message 332 93 42 196617 rate \$1;#P comment 206 70 131 196617 ...or use a movie file;#P comment 41 71 105 196617 Use live camera input;#P toggle 182 69 15 0;#P newex 182 93 49 196617 qmetro 2;#P message 235 93 28 196617 read;#P message 300 93 27 196617 stop;#P message 266 93 31 196617 start;#P newex 182 123 61 196617 jit.qt.movie;#P message 103 94 31 196617 close;#P message 72 94 28 196617 open;#P toggle 19 64 15 0;#P newex 19 94 49 196617 qmetro 2;#P newex 19 124 54 196617 jit.qt.grab;#P user panel 177 60 201 94;#X brgb 191 191 191;#X frgb 0 0 0;#X border 0;#X rounded 0;#X shadow 0;#X done;#P user panel 11 59 162 94;#X brgb 191 191 191;#X frgb 0 0 0;#X border 0;#X rounded 0;#X shadow 0;#X done;#P window setfont "Sans Serif" 20.;#P comment 12 27 190 196628 Density Input;#P window setfont "Sans Serif" 9.;#P comment 400 64 245 196617 ... or use user input for drawing spheres;#P comment 565 151 49 196617 radius of spheres;#P comment 399 82 39 196617 center:;#P comment 10 261 100 196617 toggle to use raw video or framedifference;#P newex 541 119 29 196617 pack;#P newex 582 98 38 196617 r ypos;#P newex 540 98 38 196617 r xpos;#P comment 552 81 68 196617 from tracking;#P user panel 391 59 298 424;#X brgb 191 191 191;#X frgb 0 0 0;#X border 1;#X rounded 0;#X shadow 0;#X done;#P comment 736 284 100 196617 velocity input;#P comment 736 307 100 196617 from user input;#P comment 1012 306 72 196617 from tracking;#P comment 1146 306 138 196617 from framediff centroid;#P window setfont "Sans Serif" 20.;#P comment 871 584 99 196628 Display;#P window setfont "Sans Serif" 9.;#P comment 8 631 100 196617 velocity input;#P comment 183 789 72 196617 density input;#P user panel 5 625 289 89;#X brgb 191 191 191;#X frgb 0 0 0;#X border 1;#X rounded 0;#X shadow 0;#X done;#P user panel 171 780 122 60;#X brgb 191 191 191;#X frgb 0 0 0;#X border 1;#X rounded 0;#X shadow 0;#X done;#P user panel 0 576 861 368;#X brgb 151 195 171;#X frgb 0 0 0;#X border 1;#X rounded 0;#X shadow 0;#X done;#P comment 1015 628 49 196617 toggle to draw ball;#P user panel 864 577 613 416;#X brgb 125 175 205;#X frgb 0 0 0;#X border 1;#X rounded 0;#X shadow 0;#X done;#P window setfont "Sans Serif" 14.;#P comment 725 57 231 196622 Create and move smoke;#P window setfont "Sans Serif" 12.;#P comment 724 97 231 196620 Draw density by holding the control key while dragging the mouse within the Density Window object in "Display.";#P window setfont "Sans Serif" 14.;#P comment 1005 41 163 196622 density/motion from tracking \, smoke effect;#P window setfont "Sans Serif" 9.;#P comment 1001 151 100 196617 open tracking+fluids;#P comment 1202 164 186 196617 click open on "use live camera input" in tracking+fluids;#P comment 1001 187 191 196617 if window goes white click "clear" in computation and double click on p ball and click brgb;#P comment 1400 180 100 196617 then same instructions than left/left;#P comment 1394 113 167 196617 close any existing connections to the camera;#P comment 976 271 258 196617 TOGGLE ON: motion vector from tracking+fluids patch TOGGLE OFF: motion vector from console;#P user panel 700 238 592 333;#X brgb 207 174 174;#X frgb 0 0 0;#X border 1;#X rounded 0;#X shadow 0;#X done;#P comment 391 43 100 196617 LCD Density Input;#P comment 548 774 120 196617 experimental parameter;#P user panel 698 21 266 207;#X brgb 255 255 255;#X frgb 0 0 0;#X border 1;#X rounded 0;#X shadow 0;#X done;#P user panel 6 21 689 550;#X brgb 229 223 200;#X frgb 0 0 0;#X border 1;#X rounded 0;#X shadow 0;#X done;#P user panel 985 21 217 205;#X brgb 255 255 255;#X frgb 0 0 0;#X border 1;#X rounded 0;#X shadow 0;#X done;#P connect 155 0 195 0;#P connect 195 0 158 0;#P connect 41 0 40 0;#P hidden connect 54 0 39 0;#P fasten 42 0 39 0 77 116 24 116;#P fasten 43 0 39 0 108 116 24 116;#P connect 40 0 39 0;#P connect 39 0 57 0;#P connect 153 0 194 0;#P connect 194 0 159 0;#P fasten 44 0 56 0 187 158 83 158;#P fasten 39 0 56 0 24 160 83 160;#P connect 154 0 193 0;#P connect 193 0 160 0;#P connect 74 0 223 0;#P connect 151 0 192 0;#P connect 192 0 156 0;#P fasten 74 0 69 0 128 367 163 367;#P connect 69 0 76 0;#P fasten 71 0 70 0 142 276 178 276;#P connect 70 0 69 1;#P connect 69 0 173 0;#P connect 49 0 48 0;#P fasten 52 0 44 0 337 115 187 115;#P connect 48 0 44 0;#P fasten 46 0 44 0 305 115 187 115;#P fasten 45 0 44 0 271 115 187 115;#P fasten 47 0 44 0 240 115 187 115;#P fasten 56 0 55 0 83 192 193 192;#P fasten 55 0 70 1 193 264 193 264;#P connect 75 0 69 2;#P fasten 72 0 70 2 278 272 208 272;#P connect 152 0 191 0;#P connect 191 0 157 0;#P connect 223 0 166 0;#P connect 150 0 149 0;#P connect 149 0 148 0;#P fasten 146 0 171 0 801 744 306 744;#P fasten 144 0 171 0 748 744 306 744;#P fasten 141 0 171 0 689 744 306 744;#P fasten 138 0 171 0 640 744 306 744;#P fasten 135 0 171 0 582 744 306 744;#P connect 148 0 171 0;#P fasten 157 0 171 0 232 757 306 757;#P fasten 156 0 171 0 160 757 306 757;#P fasten 160 0 171 0 115 757 306 757;#P fasten 159 0 171 0 67 757 306 757;#P fasten 158 0 171 0 13 757 306 757;#P fasten 161 0 171 0 503 791 487 791 487 757 306 757;#P connect 171 0 163 0;#P connect 163 0 164 0;#P connect 164 0 165 0;#P fasten 166 0 165 0 243 875 306 875;#P fasten 174 0 164 1 190 845 320 845;#P connect 163 2 164 2;#P connect 53 0 52 0;#P connect 163 3 164 3;#P connect 163 0 167 0;#P connect 163 1 168 0;#P connect 177 0 176 0;#P connect 82 0 79 0;#P connect 60 0 176 1;#P connect 176 0 61 0;#P connect 61 0 62 0;#P connect 61 1 62 0;#P connect 58 0 62 0;#P connect 62 0 63 0;#P connect 63 0 64 0;#P fasten 68 0 59 0 515 191 476 191;#P connect 59 0 60 0;#P connect 64 1 67 0;#P connect 163 2 169 0;#P connect 162 0 161 0;#P fasten 196 0 58 0 620 253 508 253;#P connect 66 0 59 2;#P fasten 77 0 68 0 534 134 515 134;#P connect 68 0 66 0;#P connect 163 3 170 0;#P fasten 79 0 68 1 450 142 530 142;#P connect 65 0 66 1;#P fasten 31 0 68 2 546 141 545 141;#P connect 29 0 31 0;#P connect 30 0 31 1;#P connect 134 0 136 0;#P connect 136 0 135 0;#P connect 198 0 197 0;#P connect 197 0 196 0;#P connect 137 0 139 0;#P connect 139 0 138 0;#P connect 140 0 142 0;#P connect 142 0 141 0;#P connect 84 0 85 0;#P fasten 84 1 85 0 790 377 738 377;#P connect 85 0 87 0;#P connect 95 0 84 0;#P connect 143 0 145 0;#P connect 145 0 144 0;#P fasten 85 1 88 0 752 392 777 392;#P connect 133 0 147 0;#P connect 147 0 146 0;#P fasten 85 2 89 0 766 392 813 392;#P connect 180 0 181 0;#P connect 201 1 180 0;#P fasten 85 3 90 0 780 392 833 392;#P fasten 87 0 180 1 738 496 835 496;#P fasten 100 0 180 2 1087 491 850 491;#P fasten 85 4 91 0 794 392 853 392;#P connect 201 1 182 0;#P fasten 85 5 92 0 808 392 873 392;#P connect 182 0 183 0;#P fasten 88 0 182 1 777 497 886 497;#P fasten 111 0 112 0 930 818 890 818;#P fasten 85 6 93 0 822 391 824 392 893 392;#P fasten 101 0 182 2 1140 496 901 496;#P fasten 112 0 113 0 901 836 901 821;#P fasten 85 7 94 0 836 392 913 392;#P fasten 110 0 111 0 924 797 924 782;#P connect 201 1 184 0;#P connect 184 0 189 0;#P fasten 94 0 184 1 913 483 973 483;#P connect 106 0 201 0;#P connect 102 0 184 2;#P connect 200 0 187 0;#P connect 201 1 185 0;#P connect 185 0 200 0;#P fasten 89 0 185 1 813 473 1020 473;#P connect 115 0 114 0;#P fasten 80 0 108 0 1140 829 1031 829;#P fasten 113 0 108 0 905 833 1031 833;#P connect 114 0 108 0;#P connect 102 0 185 2;#P connect 201 0 102 0;#P connect 201 1 186 0;#P connect 186 0 199 0;#P connect 199 0 188 0;#P fasten 91 0 186 1 853 473 1068 473;#P connect 102 0 186 2;#P fasten 104 0 103 0 1133 367 1087 367;#P connect 103 0 100 0;#P connect 179 0 190 0;#P fasten 96 0 103 1 1019 362 1102 362;#P fasten 98 0 103 2 1162 365 1117 365;#P fasten 104 0 105 0 1133 367 1140 367;#P connect 105 0 101 0;#P connect 204 0 203 0;#P connect 203 0 80 0;#P connect 80 0 202 0;#P connect 175 0 190 1;#P fasten 97 0 105 1 1067 356 1155 356;#P connect 190 0 203 1;#P fasten 99 0 105 2 1224 379 1170 379;#P connect 175 0 203 2;#P connect 80 1 81 0;#P fasten 80 0 116 0 1140 816 1329 816;#P connect 116 0 122 0;#P connect 118 0 117 0;#P connect 117 0 116 1;#P connect 118 0 117 1;#P connect 119 0 116 2;#P connect 120 0 116 3;#P connect 121 0 116 4;#P pop;