max v2;#N vpatcher 94 57 1045 736;#P origin -48 -42;#P comment 23 27 213 196626 ghost_live;#P comment 238 27 143 196617 Sha Xin Wei © 2003 Topological Media Lab;#P message 135 84 32 196617 close;#B color 9;#P user jit.pwindow 170 529 121 96 0 1 0 0 1 0;#P flonum 233 483 94 9 1. 1. 3 3 0 0 0 221 221 221 222 222 222 0 0 0;#P user jit.pwindow 23 550 121 96 0 1 0 0 1 0;#P newex 24 529 110 1441802 jit.matrix blurry;#P newex 24 484 199 1441802 jit.op @op max;#P newex 1 447 110 1441802 jit.matrix blurry;#P newex 24 506 212 1441802 jit.op @op *;#N vpatcher 411 243 1111 583;#P hidden newex 541 163 104 196617 bgcolor 192 192 255;#P number 403 188 35 9 0 0 0 3 0 0 0 221 221 221 222 222 222 0 0 0;#P message 480 207 70 196617 getcolorspace;#P message 403 207 71 196617 colorspace \$1;#P number 458 95 35 9 0 0 0 3 0 0 0 221 221 221 222 222 222 0 0 0;#P message 506 114 42 196617 getfield;#P message 458 114 43 196617 field \$1;#P number 458 140 35 9 0 0 0 3 0 0 0 221 221 221 222 222 222 0 0 0;#P message 496 159 33 196617 getpll;#P message 458 159 34 196617 pll \$1;#P message 375 159 69 196617 getwhitelevel;#P flonum 300 140 35 9 0. 1. 3 3 0 0 0 221 221 221 222 222 222 0 0 0;#P message 300 159 70 196617 whitelevel \$1;#P message 219 159 65 196617 getblacklevel;#P flonum 144 140 35 9 0. 1. 3 3 0 0 0 221 221 221 222 222 222 0 0 0;#P message 144 159 68 196617 blacklevel \$1;#P message 22 93 53 196617 getgamma;#P flonum 19 51 35 9 0 0 0 3 0 0 0 221 221 221 222 222 222 0 0 0;#P flonum 61 51 35 9 0 0 0 3 0 0 0 221 221 221 222 222 222 0 0 0;#P flonum 102 51 35 9 0 0 0 3 0 0 0 221 221 221 222 222 222 0 0 0;#P newex 22 69 93 196617 pak gamma 0. 0. 0.;#P message 548 25 44 196617 defaults;#P message 370 114 65 196617 getsharpness;#P flonum 300 95 35 9 0. 1. 3 3 0 0 0 221 221 221 222 222 222 0 0 0;#P message 300 114 68 196617 sharpness \$1;#P message 220 114 68 196617 getsaturation;#P flonum 145 95 35 9 0. 1. 3 3 0 0 0 221 221 221 222 222 222 0 0 0;#P message 145 114 69 196617 saturation \$1;#P message 364 70 60 196617 getcontrast;#P flonum 301 51 35 9 0. 1. 3 3 0 0 0 221 221 221 222 222 222 0 0 0;#P message 301 70 61 196617 contrast \$1;#P message 220 70 69 196617 getbrightness;#P flonum 145 51 35 9 0. 1. 3 3 0 0 0 221 221 221 222 222 222 0 0 0;#P message 145 70 70 196617 brightness \$1;#P message 477 70 35 196617 gethue;#P flonum 435 51 35 9 0. 1. 3 3 0 0 0 221 221 221 222 222 222 0 0 0;#P message 435 70 38 196617 hue \$1;#P outlet 57 296 15 0;#P comment 507 43 100 196617 reset image controls to default values.;#P comment 73 26 232 196617 NOTE: not all digitizers support all image controls;#P fasten 22 0 19 1 24 67 54 67;#P hidden fasten 31 0 2 0 501 237 62 237;#P hidden fasten 30 0 2 0 463 237 62 237;#P hidden fasten 24 0 2 0 149 198 62 198;#P hidden fasten 26 0 2 0 224 198 62 198;#P hidden fasten 27 0 2 0 305 198 62 198;#P hidden fasten 29 0 2 0 380 198 62 198;#P hidden connect 23 0 2 0;#P hidden fasten 17 0 2 0 375 222 62 222;#P hidden fasten 15 0 2 0 305 222 62 222;#P hidden fasten 5 0 2 0 482 188 62 188;#P hidden fasten 3 0 2 0 440 188 62 188;#P hidden fasten 11 0 2 0 369 222 62 222;#P hidden fasten 9 0 2 0 306 222 62 222;#P hidden fasten 8 0 2 0 225 187 62 187;#P hidden fasten 6 0 2 0 150 154 62 154;#P hidden fasten 14 0 2 0 225 198 62 198;#P hidden fasten 12 0 2 0 150 176 62 176;#P hidden fasten 18 0 2 0 553 222 62 222;#P hidden connect 19 0 2 0;#P hidden fasten 34 0 2 0 511 214 62 214;#P hidden fasten 33 0 2 0 463 214 62 214;#P hidden fasten 36 0 2 0 408 265 62 265;#P hidden fasten 37 0 2 0 485 265 62 265;#P fasten 21 0 19 2 66 67 81 67;#P connect 20 0 19 3;#P connect 25 0 24 0;#P connect 7 0 6 0;#P connect 13 0 12 0;#P connect 16 0 15 0;#P connect 28 0 27 0;#P connect 10 0 9 0;#P connect 38 0 36 0;#P connect 4 0 3 0;#P connect 35 0 33 0;#P connect 32 0 30 0;#P pop 1;#P newobj 47 81 85 196617 p image_controls;#P comment 835 84 107 196617 create a depth buffer ("z-buffer") for hidden-surface removal by renderers. default: 0.;#P comment 835 21 107 196617 use an offscreen buffer for building the image. otherwise \, draw directly to screen. default: 1.;#P message 745 99 75 196617 depthbuffer \$1;#P toggle 745 80 15 0;#P message 746 52 79 196617 doublebuffer \$1;#P toggle 746 33 15 0;#P message 765 296 68 196617 fullscreen \$1;#P message 746 246 55 196617 noaccel \$1;#P message 746 197 55 196617 floating \$1;#P message 746 148 50 196617 border \$1;#P comment 810 176 278 196617 select floating window style. floating windows are always drawn in front of other windows. unfortunately \, floating has no effect with border off.;#P toggle 746 179 15 0;#P toggle 746 228 15 0;#P toggle 746 129 15 0;#P toggle 746 296 15 0;#P newex 790 272 35 196617 sel 27;#P newex 746 272 40 196617 key;#P comment 837 287 253 196617 type esc to toggle fullscreen. the previous window size is still remembered and used for interpolation.;#P comment 807 235 283 196617 normally \, OpenGL is used to copy images to the window if available. Turn noaccel on to force software copying instead.;#P newex 314 378 150 196617 jit.window proj 20 40 660 520;#P number 219 104 35 9 0 0 1 3 0 0 0 221 221 221 222 222 222 0 0 0;#P message 219 123 58 196617 vdevice \$1;#P hidden newex 142 166 30 196617 print;#P message 152 126 55 196617 getvdevice;#P message 144 110 59 196617 getvdevlist;#P message 118 127 28 196617 open;#B color 9;#P flonum 91 107 35 9 0.5 0 1 3 0 0 0 221 221 221 222 222 222 0 0 0;#P toggle 57 107 15 0;#P newex 57 126 44 196617 metro 2;#P newex 57 149 95 196617 jit.qt.grab 320 240;#B color 5;#P newex 533 323 27 196617 gate;#P toggle 461 323 15 0;#P newex 477 323 27 196617 gate;#N vpatcher 80 112 632 418;#N comlet blended movie;#P outlet 137 261 15 0;#P newex 197 55 53 1441802 loadbang;#P message 197 77 103 1441802 read traffic.mov;#N comlet full matrix;#P inlet 119 56 15 0;#N comlet alpha matrix;#P inlet 51 56 15 0;#P newex 139 227 68 196617 jit.alphablend;#P message 362 115 28 196617 stop;#P flonum 393 97 35 9 0 0 0 3 0 0 0 221 221 221 222 222 222 0 0 0;#P message 393 115 42 196617 rate \$1;#P message 330 115 28 196617 read;#P flonum 287 97 35 9 0.5 0 1 3 0 0 0 221 221 221 222 222 222 0 0 0;#P toggle 252 97 15 0;#P newex 252 115 44 196617 metro 2;#P newex 253 141 103 196617 jit.qt.movie 320 240;#P newex 119 76 66 196617 jit.unpack 4;#P newex 51 172 53 196617 jit.pack 4;#P comment 110 164 62 196617 luminance of diff -> alpha;#P connect 12 0 1 0;#P connect 2 1 1 1;#P connect 2 2 1 2;#P connect 2 3 1 3;#P connect 13 0 2 0;#P connect 11 0 16 0;#P connect 1 0 11 0;#P connect 15 0 14 0;#P connect 3 0 11 1;#P connect 5 0 4 0;#P connect 14 0 3 0;#P fasten 4 0 3 0 257 141 258 141;#P fasten 10 0 3 0 367 136 258 136;#P fasten 7 0 3 0 335 136 258 136;#P fasten 8 0 3 0 398 136 258 136;#P connect 6 0 4 1;#P connect 9 0 8 0;#P pop;#P newobj 478 345 62 196617 p alphablend;#P comment 579 560 235 196617 moving part of video 1 is alpha-blended with video 2;#P flonum 385 274 35 9 0 0 0 3 0 0 0 221 221 221 222 222 222 0 0 0;#P newex 310 305 85 196617 jit.op @op * 10.;#P newex 240 330 65 196617 jit.op @op *;#P newex 427 238 64 196617 jit.rgb2luma;#P user GSwitch 41 242 41 32 0 0;#P message 25 56 538 196622 Takes live video and shows moving parts of scene \, using frame differences.;#N vpreset 1;#X append 1 2 27 107 91 flonum float 1. \; 8 185 106 toggle int 1 \; 9 183 155 flonum float 0.08 \; 14 242 41 gswitch int 0 \; 18 274 385 flonum float 1. \;;#P preset 575 72 47 27;#P user jit.fpsgui 509 560 60 196617 0;#P user jit.pwindow 508 391 210 160 0 1 0 0 1 0;#P flonum 155 183 67 9 0 0 0 3 0 0 0 221 221 221 222 222 222 0 0 0;#P toggle 106 185 15 0;#P newex 71 207 81 196617 framedifference;#B color 5;#P user jit.pwindow 40 281 213 134 0 1 0 0 1 0;#P comment 576 50 100 196617 preset;#P comment 155 200 138 196617 change threshhold (try 0.05);#P comment 315 116 229 196617 Uses framedifference to show only what moves by mapping frame difference to alpha. Should use moving average for some history.;#P comment 317 96 120 196617 sxw ¥ 24.11.02 \, 3.03;#P comment 229 611 167 196617 show moving part of video;#P comment 444 92 100 196617 Live video;#P fasten 14 0 56 0 46 278 6 278;#P connect 56 0 57 0;#P connect 57 0 55 0;#P connect 55 0 58 0;#P connect 58 0 59 0;#P connect 14 0 6 0;#P fasten 24 0 14 1 62 176 61 176;#P connect 26 0 25 0;#P fasten 32 0 24 0 224 145 62 145;#P hidden fasten 29 0 24 0 149 147 62 147;#P hidden fasten 30 0 24 0 157 147 62 147;#P hidden connect 28 0 24 0;#P connect 25 0 24 0;#P fasten 54 0 24 0 52 145 62 145;#P fasten 62 0 24 0 140 144 62 144;#P fasten 24 0 7 0 62 176 76 176;#P connect 7 0 14 2;#P connect 27 0 25 1;#P connect 8 0 7 1;#P connect 9 0 7 2;#P connect 24 1 31 0;#P connect 57 0 61 0;#P connect 33 0 32 0;#P connect 60 0 55 1;#P fasten 7 0 16 0 76 232 245 232;#P fasten 15 0 16 1 432 265 300 271;#P hidden fasten 47 0 34 0 770 356 319 356;#P hidden fasten 46 0 34 0 751 356 319 356;#P hidden fasten 45 0 34 0 751 355 319 355;#P hidden fasten 44 0 34 0 751 355 319 355;#P hidden fasten 51 0 34 0 750 355 319 355;#P hidden fasten 49 0 34 0 751 355 319 355;#P connect 16 0 34 0;#P connect 18 0 17 1;#P fasten 7 0 15 0 76 230 432 230;#P hidden connect 22 0 21 0;#P connect 21 0 20 0;#P fasten 15 0 21 1 432 262 499 262;#P connect 20 0 10 0;#P connect 10 0 11 0;#P connect 23 0 20 1;#P hidden fasten 22 0 23 0 466 344 530 344 530 320 538 320;#P fasten 24 0 23 1 62 176 555 176;#P connect 50 0 51 0;#P connect 48 0 49 0;#P connect 40 0 44 0;#P connect 42 0 45 0;#P connect 41 0 46 0;#P fasten 38 0 39 0 795 293 751 293;#P fasten 39 0 47 0 764 311 764 296;#P fasten 37 0 38 0 789 289 789 274;#P pop;