max v2;#N vpatcher 57 254 778 739;#P window setfont "Sans Serif" 9.;#P comment 147 323 131 196617 Modified from MSP example Forbidden Planet's pfft patch "fp_fftsubpatch". Thanks again to Z \, C and X.;#P number 225 237 49 9 0 0 0 3 0 0 0 221 221 221 222 222 222 0 0 0;#P newex 225 214 42 196617 zl nth 2;#P newex 297 201 27 196617 0;#P newex 297 181 45 196617 loadbang;#P newex 348 247 27 196617 + 1;#P toggle 348 228 15 0;#P number 348 267 35 9 0 0 0 3 0 0 0 221 221 221 222 222 222 0 0 0;#P newex 348 203 80 196617 r fftfilt1-tabsel;#B color 11;#P newex 169 184 55 196617 pack 0. 20;#P newex 169 158 94 196617 route int float list;#P newex 169 137 80 196617 r fftfilt1-interp;#B color 11;#P newex 169 214 30 196617 line~;#P newex 111 239 34 196617 !-~ 1.;#P newex 152 259 27 196617 *~;#P newex 94 259 27 196617 *~;#P newex 94 280 68 196617 +~;#P newex 208 104 115 196617 index~ fftfilt1-EqFun2~;#B color 8;#P newex 665 203 119 196617 buffer~ fftfilt1-EqFun2~;#B color 12;#P newex 419 298 35 196617 gate 2;#P newex 335 332 105 196617 peek~ fftfilt1-EqFun~;#B color 8;#P newex 412 78 81 196617 t b l;#P newex 548 141 75 196617 r fftfilt1-clear;#B color 11;#P flonum 702 154 58 9 0 0 0 3 0 0 0 221 221 221 222 222 222 0 0 0;#P newex 702 134 45 196617 * 1000.;#P newex 702 114 29 196617 !/ 1.;#P flonum 702 97 47 9 0 0 0 3 0 0 0 221 221 221 222 222 222 0 0 0;#P message 702 172 41 196617 size \$1;#P toggle 688 79 15 0;#P number 721 79 35 9 0 0 0 3 0 0 0 221 221 221 222 222 222 0 0 0;#P newex 688 58 53 196617 dspstate~;#P newex 55 321 27 196617 *~;#P newex 16 321 27 196617 *~;#P newex 94 104 109 196617 index~ fftfilt1-EqFun~;#B color 8;#N vtable 512 346 48 956 385 4 256;#P newobj 483 214 30 196617 table;#P newex 444 332 111 196617 peek~ fftfilt1-EqFun2~;#B color 8;#P newex 483 240 63 196617 * 0.003921;#P newex 548 203 113 196617 buffer~ fftfilt1-EqFun~;#B color 12;#P newex 412 113 43 196617 Uzi 512;#P newex 444 145 27 196617 - 1;#P message 548 160 31 196617 clear;#P newex 444 268 49 196617 pack 0 0.;#P newex 483 113 69 196617 prepend set 0;#P newex 412 51 93 196617 r fftfilt4-spectFun;#B color 11;#P newex 16 378 49 196617 fftout~ 1;#P newex 16 33 89 196617 fftin~ 1;#P comment 201 27 123 196617 for a 1024 point fft \, the fft frames in fftpatcher will be made up of 512 freq bands;#P comment 103 51 62 196617 frame index;#P comment 249 138 41 196617 0. to 1.;#P comment 546 242 35 196617 / 255;#P connect 4 0 17 0;#P connect 17 0 5 0;#P connect 33 0 17 1;#P connect 4 1 18 0;#P connect 18 0 5 1;#P connect 33 0 18 1;#P connect 4 2 16 0;#P connect 16 0 34 0;#P connect 34 0 33 0;#P fasten 37 0 36 0 174 235 116 235;#P connect 36 0 34 1;#P fasten 32 0 35 0 213 129 157 129;#P lcolor 7;#P connect 35 0 33 1;#P connect 38 0 39 0;#P connect 39 0 40 0;#P connect 39 1 40 0;#P fasten 39 2 37 0 230 207 174 207;#P connect 40 0 37 0;#P connect 37 0 35 1;#P fasten 4 2 32 0 99 88 213 88;#P connect 39 2 47 0;#P connect 47 0 48 0;#P connect 45 0 46 0;#P connect 30 0 29 0;#P fasten 46 0 43 0 302 224 353 224;#P connect 41 0 43 0;#P connect 43 0 44 0;#P connect 44 0 42 0;#P connect 6 0 28 0;#P connect 28 0 11 0;#P connect 42 0 30 0;#P connect 11 2 10 0;#P connect 10 0 8 0;#P connect 8 0 30 1;#P connect 30 1 14 0;#P connect 28 1 7 0;#P lcolor 13;#P connect 9 0 15 0;#P connect 7 0 15 0;#P connect 10 0 15 0;#P connect 15 0 13 0;#P connect 13 0 8 1;#P connect 27 0 9 0;#P connect 22 0 12 0;#P connect 9 0 12 0;#P connect 9 0 31 0;#P connect 22 0 31 0;#P connect 19 0 21 0;#P connect 19 1 23 0;#P connect 23 0 24 0;#P connect 24 0 25 0;#P connect 25 0 26 0;#P connect 26 0 22 0;#P connect 19 2 20 0;#P connect 20 0 24 1;#P pop;