max v2;#N vpatcher 261 54 1206 832;#P origin 14 18;#P window setfont "Sans Serif" 9.;#P flonum 618 -22 35 9 0 0 0 3 0 0 0 221 221 221 222 222 222 0 0 0;#P user meter~ 831 686 889 700 100 0 168 0 104 104 104 255 153 0 255 0 0 217 217 0 153 186 0 12 3 3 3 3;#P user gain~ 831 622 27 40 158 0 1.071519 7.94321 10.;#P newex 833 601 148 196617 pfft~ whispers_filter3 1024 2;#P user meter~ 762 669 820 683 100 0 168 0 104 104 104 255 153 0 255 0 0 217 217 0 153 186 0 12 3 3 3 3;#P user gain~ 762 605 27 40 158 0 1.071519 7.94321 10.;#P newex 764 584 148 196617 pfft~ whispers_filter3 1024 2;#P user meter~ 674 651 732 665 100 0 168 0 104 104 104 255 153 0 255 0 0 217 217 0 153 186 0 12 3 3 3 3;#P user gain~ 674 587 27 40 158 0 1.071519 7.94321 10.;#P newex 676 566 148 196617 pfft~ whispers_filter2 1024 2;#P newex 121 449 75 196617 unpack 0 0 0 0;#P user multiSlider 411 580 91 37 0. 255. 253 2665 47;#M frgb 255 0 0;#M brgb 255 255 255;#M rgb2 127 127 127;#P newex 411 617 93 196617 s fftfilt4-spectFun;#B color 11;#P user jit.pwindow 393 514 15 122 0 1 0 0 1 0;#P user multiSlider 435 528 66 48 0. 256. 240 2921 15;#M frgb 255 0 0;#M brgb 0 0 0;#M rgb2 127 127 127;#P noclick;#N vpatcher 39 121 627 679;#P origin 0 -47;#P window setfont "Sans Serif" 9.;#P comment 196 469 218 196617 pad list with zeros because scan line is 240 values and filter requires 253.;#P newex 42 454 35 196617 t l b;#P newex 42 493 35 196617 zl join;#P message 67 474 122 196617 0 0 0 0 0 0 0 0 0 0 0 0 0;#P comment 175 44 101 196617 vertical line position;#P outlet 42 517 15 0;#N comlet vert line number;#P inlet 129 23 15 0;#P newex 327 164 27 196617 + 1;#N comlet color (1-2-3);#P inlet 327 125 15 0;#N comlet vertical line list;#P outlet 327 296 15 0;#N comlet vertical line matrix;#P outlet 9 127 15 0;#P newex 174 344 33 196617 t b b;#P number 174 384 55 9 0 0 0 3 0 0 0 221 221 221 222 222 222 0 0 0;#P newex 174 364 33 196617 timer;#P newex 59 403 125 196617 pack 0. 100;#P newex 59 426 80 196617 s fftfilt1-interp;#B color 11;#P newex 42 316 27 196617 t l b;#P toggle 59 347 15 0;#P newex 73 370 80 196617 s fftfilt1-tabsel;#B color 11;#P message 87 205 45 196617 plane \$1;#P newex 42 228 158 196617 jit.spill @plane 1 @listlength 240;#P message 218 71 90 196617 srcdimend \$1 239;#P number 129 43 45 9 0 319 3 3 0 0 0 221 221 221 222 222 222 0 0 0;#P message 129 71 85 196617 srcdimstart \$1 0;#P newex 42 97 390 196617 jit.matrix 4 char 1 240 @thru 1 @srcdimstart 0 0 @srcdimend 0 239 @usesrcdim 1;#P comment 83 258 218 196617 reverse list (so that the bottom is on the left).;#P newex 42 257 35 196617 zl rev;#P newex 327 205 61 196617 t b i;#P newex 327 266 65 196617 prepend frgb;#P number 327 144 35 9 0 0 0 3 0 0 0 221 221 221 222 222 222 0 0 0;#P message 327 227 44 196617 0 0 255;#P newex 327 245 61 196617 zl rot;#P comment 441 139 117 196617 choose which color data goes to audio fft filter;#N comlet matrix input;#P inlet 42 43 15 0;#P comment 363 133 55 196617 1 = red \; 2 = green \; 3 = blue \;;#P connect 10 0 24 0;#P fasten 13 0 10 0 223 91 47 91;#P fasten 11 0 10 0 134 91 47 91;#P connect 1 0 10 0;#P connect 15 0 14 0;#P connect 10 0 14 0;#P connect 14 0 8 0;#P connect 8 0 18 0;#P connect 18 0 33 0;#P connect 33 0 32 0;#P connect 32 0 29 0;#P connect 18 1 17 0;#P connect 17 0 20 0;#P connect 20 0 19 0;#P connect 33 1 31 0;#P connect 31 0 32 1;#P connect 17 0 16 0;#P fasten 27 0 15 0 332 193 92 193;#P connect 28 0 12 0;#P connect 12 0 11 0;#P fasten 18 1 23 0 64 339 179 339;#P connect 23 0 21 0;#P connect 21 0 22 0;#P connect 22 0 20 1;#P connect 23 1 21 1;#P fasten 12 0 13 0 134 64 223 64;#P connect 26 0 5 0;#P connect 5 0 27 0;#P connect 27 0 7 0;#P connect 7 0 4 0;#P connect 4 0 3 0;#P connect 3 0 6 0;#P connect 6 0 25 0;#P fasten 8 0 25 0 47 290 332 290;#P connect 7 1 3 1;#P pop;#P newobj 394 494 75 196617 p vertical_data;#B color 6;#P user multiSlider 285 579 91 37 0. 255. 253 2665 47;#M frgb 255 0 0;#M brgb 255 255 255;#M rgb2 127 127 127;#P newex 285 616 93 196617 s fftfilt3-spectFun;#B color 11;#P user jit.pwindow 267 513 15 122 0 1 0 0 1 0;#P user multiSlider 309 527 66 48 0. 256. 240 2921 15;#M frgb 255 0 0;#M brgb 0 0 0;#M rgb2 127 127 127;#P noclick;#N vpatcher 39 121 627 679;#P origin 0 -47;#P window setfont "Sans Serif" 9.;#P comment 196 469 218 196617 pad list with zeros because scan line is 240 values and filter requires 253.;#P newex 42 454 35 196617 t l b;#P newex 42 493 35 196617 zl join;#P message 67 474 122 196617 0 0 0 0 0 0 0 0 0 0 0 0 0;#P comment 175 44 101 196617 vertical line position;#P outlet 42 517 15 0;#N comlet vert line number;#P inlet 129 23 15 0;#P newex 327 164 27 196617 + 1;#N comlet color (1-2-3);#P inlet 327 125 15 0;#N comlet vertical line list;#P outlet 327 296 15 0;#N comlet vertical line matrix;#P outlet 9 127 15 0;#P newex 174 344 33 196617 t b b;#P number 174 384 55 9 0 0 0 3 0 0 0 221 221 221 222 222 222 0 0 0;#P newex 174 364 33 196617 timer;#P newex 59 403 125 196617 pack 0. 100;#P newex 59 426 80 196617 s fftfilt1-interp;#B color 11;#P newex 42 316 27 196617 t l b;#P toggle 59 347 15 0;#P newex 73 370 80 196617 s fftfilt1-tabsel;#B color 11;#P message 87 205 45 196617 plane \$1;#P newex 42 228 158 196617 jit.spill @plane 1 @listlength 240;#P message 218 71 90 196617 srcdimend \$1 239;#P number 129 43 45 9 0 319 3 3 0 0 0 221 221 221 222 222 222 0 0 0;#P message 129 71 85 196617 srcdimstart \$1 0;#P newex 42 97 390 196617 jit.matrix 4 char 1 240 @thru 1 @srcdimstart 0 0 @srcdimend 0 239 @usesrcdim 1;#P comment 83 258 218 196617 reverse list (so that the bottom is on the left).;#P newex 42 257 35 196617 zl rev;#P newex 327 205 61 196617 t b i;#P newex 327 266 65 196617 prepend frgb;#P number 327 144 35 9 0 0 0 3 0 0 0 221 221 221 222 222 222 0 0 0;#P message 327 227 44 196617 0 0 255;#P newex 327 245 61 196617 zl rot;#P comment 441 139 117 196617 choose which color data goes to audio fft filter;#N comlet matrix input;#P inlet 42 43 15 0;#P comment 363 133 55 196617 1 = red \; 2 = green \; 3 = blue \;;#P connect 10 0 24 0;#P connect 1 0 10 0;#P fasten 11 0 10 0 134 91 47 91;#P fasten 13 0 10 0 223 91 47 91;#P connect 10 0 14 0;#P connect 15 0 14 0;#P connect 14 0 8 0;#P connect 8 0 18 0;#P connect 18 0 33 0;#P connect 33 0 32 0;#P connect 32 0 29 0;#P connect 18 1 17 0;#P connect 17 0 20 0;#P connect 20 0 19 0;#P connect 33 1 31 0;#P connect 31 0 32 1;#P connect 17 0 16 0;#P fasten 27 0 15 0 332 193 92 193;#P connect 28 0 12 0;#P connect 12 0 11 0;#P fasten 18 1 23 0 64 339 179 339;#P connect 23 0 21 0;#P connect 21 0 22 0;#P connect 22 0 20 1;#P connect 23 1 21 1;#P fasten 12 0 13 0 134 64 223 64;#P connect 26 0 5 0;#P connect 5 0 27 0;#P connect 27 0 7 0;#P connect 7 0 4 0;#P connect 4 0 3 0;#P connect 3 0 6 0;#P fasten 8 0 25 0 47 290 332 290;#P connect 6 0 25 0;#P connect 7 1 3 1;#P pop;#P newobj 268 493 75 196617 p vertical_data;#B color 6;#P user multiSlider 159 578 91 37 0. 255. 253 2665 47;#M frgb 255 0 0;#M brgb 255 255 255;#M rgb2 127 127 127;#P newex 159 615 93 196617 s fftfilt2-spectFun;#B color 11;#P user jit.pwindow 141 512 15 122 0 1 0 0 1 0;#P user multiSlider 183 526 66 48 0. 256. 240 2921 15;#M frgb 255 0 0;#M brgb 0 0 0;#M rgb2 127 127 127;#P noclick;#N vpatcher 39 121 627 679;#P origin 0 -47;#P window setfont "Sans Serif" 9.;#P comment 196 469 218 196617 pad list with zeros because scan line is 240 values and filter requires 253.;#P newex 42 454 35 196617 t l b;#P newex 42 493 35 196617 zl join;#P message 67 474 122 196617 0 0 0 0 0 0 0 0 0 0 0 0 0;#P comment 175 44 101 196617 vertical line position;#P outlet 42 517 15 0;#N comlet vert line number;#P inlet 129 23 15 0;#P newex 327 164 27 196617 + 1;#N comlet color (1-2-3);#P inlet 327 125 15 0;#N comlet vertical line list;#P outlet 327 296 15 0;#N comlet vertical line matrix;#P outlet 9 127 15 0;#P newex 174 344 33 196617 t b b;#P number 174 384 55 9 0 0 0 3 0 0 0 221 221 221 222 222 222 0 0 0;#P newex 174 364 33 196617 timer;#P newex 59 403 125 196617 pack 0. 100;#P newex 59 426 80 196617 s fftfilt1-interp;#B color 11;#P newex 42 316 27 196617 t l b;#P toggle 59 347 15 0;#P newex 73 370 80 196617 s fftfilt1-tabsel;#B color 11;#P message 87 205 45 196617 plane \$1;#P newex 42 228 158 196617 jit.spill @plane 1 @listlength 240;#P message 218 71 90 196617 srcdimend \$1 239;#P number 129 43 45 9 0 319 3 3 0 0 0 221 221 221 222 222 222 0 0 0;#P message 129 71 85 196617 srcdimstart \$1 0;#P newex 42 97 390 196617 jit.matrix 4 char 1 240 @thru 1 @srcdimstart 0 0 @srcdimend 0 239 @usesrcdim 1;#P comment 83 258 218 196617 reverse list (so that the bottom is on the left).;#P newex 42 257 35 196617 zl rev;#P newex 327 205 61 196617 t b i;#P newex 327 266 65 196617 prepend frgb;#P number 327 144 35 9 0 0 0 3 0 0 0 221 221 221 222 222 222 0 0 0;#P message 327 227 44 196617 0 0 255;#P newex 327 245 61 196617 zl rot;#P comment 441 139 117 196617 choose which color data goes to audio fft filter;#N comlet matrix input;#P inlet 42 43 15 0;#P comment 363 133 55 196617 1 = red \; 2 = green \; 3 = blue \;;#P connect 10 0 24 0;#P fasten 13 0 10 0 223 91 47 91;#P fasten 11 0 10 0 134 91 47 91;#P connect 1 0 10 0;#P connect 15 0 14 0;#P connect 10 0 14 0;#P connect 14 0 8 0;#P connect 8 0 18 0;#P connect 18 0 33 0;#P connect 33 0 32 0;#P connect 32 0 29 0;#P connect 18 1 17 0;#P connect 17 0 20 0;#P connect 20 0 19 0;#P connect 33 1 31 0;#P connect 31 0 32 1;#P connect 17 0 16 0;#P fasten 27 0 15 0 332 193 92 193;#P connect 28 0 12 0;#P connect 12 0 11 0;#P fasten 18 1 23 0 64 339 179 339;#P connect 23 0 21 0;#P connect 21 0 22 0;#P connect 22 0 20 1;#P connect 23 1 21 1;#P fasten 12 0 13 0 134 64 223 64;#P connect 26 0 5 0;#P connect 5 0 27 0;#P connect 27 0 7 0;#P connect 7 0 4 0;#P connect 4 0 3 0;#P connect 3 0 6 0;#P connect 6 0 25 0;#P fasten 8 0 25 0 47 290 332 290;#P connect 7 1 3 1;#P pop;#P newobj 142 492 75 196617 p vertical_data;#B color 6;#N vpatcher 314 112 708 449;#N comlet matrix;#P outlet 141 246 26 0;#P window setfont "Sans Serif" 9.;#N vpatcher 651 346 1079 758;#P window setfont "Sans Serif" 9.;#P newex 124 69 27 196617 / 2;#N comlet i vertline;#P inlet 61 36 25 0;#N comlet matrix;#P inlet 18 36 25 0;#P newex 119 302 62 196617 jit.op @op +;#N comlet smaller matrix out with line;#P outlet 119 336 15 0;#P newex 119 164 55 196617 swap;#P newex 119 142 27 196617 - 1;#P newex 119 186 100 196617 pack 0 0 val;#P newex 61 99 192 196617 t b i clear;#P newex 61 120 56 196617 Uzi 120;#P button 96 236 15 0;#P newex 119 236 75 196617 prepend setcell;#P newex 119 212 110 196617 append 0 255 255 255;#P newex 119 265 161 196617 jit.matrix addline 4 char 160 120;#P number 53 71 35 9 0 0 0 3 0 0 0 221 221 221 222 222 222 0 0 0;#P connect 13 0 0 0;#P connect 14 0 6 0;#P connect 6 0 5 0;#P connect 5 1 4 0;#P connect 5 2 8 0;#P connect 8 0 9 0;#P connect 9 0 7 0;#P connect 7 0 2 0;#P connect 2 0 3 0;#P fasten 6 2 1 0 248 258 124 258;#P connect 3 0 1 0;#P connect 4 0 1 0;#P fasten 12 0 11 0 23 298 124 298;#P connect 11 0 10 0;#P connect 13 0 14 0;#P connect 6 1 9 1;#P connect 9 1 7 1;#P fasten 1 0 11 1 124 288 176 288;#P pop;#P newobj 172 222 59 196617 p vertline1;#N vpatcher 651 346 1079 758;#P window setfont "Sans Serif" 9.;#P newex 124 69 27 196617 / 2;#N comlet i vertline;#P inlet 61 36 25 0;#N comlet matrix;#P inlet 18 36 25 0;#P newex 119 302 62 196617 jit.op @op +;#N comlet smaller matrix out with line;#P outlet 119 336 15 0;#P newex 119 164 55 196617 swap;#P newex 119 142 27 196617 - 1;#P newex 119 186 100 196617 pack 0 0 val;#P newex 61 99 192 196617 t b i clear;#P newex 61 120 56 196617 Uzi 120;#P button 96 236 15 0;#P newex 119 236 75 196617 prepend setcell;#P newex 119 212 110 196617 append 0 255 255 255;#P newex 119 265 161 196617 jit.matrix addline 4 char 160 120;#P number 53 71 35 9 0 0 0 3 0 0 0 221 221 221 222 222 222 0 0 0;#P connect 13 0 0 0;#P connect 14 0 6 0;#P connect 6 0 5 0;#P connect 5 1 4 0;#P connect 5 2 8 0;#P connect 8 0 9 0;#P connect 9 0 7 0;#P connect 7 0 2 0;#P connect 2 0 3 0;#P fasten 6 2 1 0 248 258 124 258;#P connect 3 0 1 0;#P connect 4 0 1 0;#P fasten 12 0 11 0 23 298 124 298;#P connect 11 0 10 0;#P connect 13 0 14 0;#P connect 6 1 9 1;#P connect 9 1 7 1;#P fasten 1 0 11 1 124 288 176 288;#P pop;#P newobj 156 200 59 196617 p vertline1;#P newex 83 131 75 196617 unpack 0 0 0 0;#N comlet matrix;#P inlet 143 28 23 0;#N vpatcher 651 346 1079 758;#P window setfont "Sans Serif" 9.;#P newex 117 62 27 196617 / 2;#N comlet i vertline;#P inlet 54 29 25 0;#N comlet matrix;#P inlet 11 29 25 0;#P newex 112 295 62 196617 jit.op @op +;#N comlet smaller matrix out with line;#P outlet 112 329 15 0;#P newex 112 157 55 196617 swap;#P newex 112 135 27 196617 - 1;#P newex 112 179 100 196617 pack 0 0 val;#P newex 54 92 192 196617 t b i clear;#P newex 54 113 56 196617 Uzi 120;#P button 89 229 15 0;#P newex 112 229 75 196617 prepend setcell;#P newex 112 205 110 196617 append 0 255 255 255;#P newex 112 258 161 196617 jit.matrix addline 4 char 160 120;#P number 46 64 35 9 0 0 0 3 0 0 0 221 221 221 222 222 222 0 0 0;#P connect 13 0 0 0;#P connect 14 0 6 0;#P connect 6 0 5 0;#P connect 5 1 4 0;#P connect 5 2 8 0;#P connect 8 0 9 0;#P connect 9 0 7 0;#P connect 7 0 2 0;#P connect 2 0 3 0;#P connect 4 0 1 0;#P connect 3 0 1 0;#P fasten 6 2 1 0 241 251 117 251;#P fasten 12 0 11 0 16 291 117 291;#P connect 11 0 10 0;#P connect 13 0 14 0;#P connect 6 1 9 1;#P connect 9 1 7 1;#P fasten 1 0 11 1 117 281 169 281;#P pop;#P newobj 143 179 59 196617 p vertline1;#N comlet l 7 offset i;#P outlet 59 246 26 0;#P newex 59 104 29 196617 Ladd;#P newex 60 56 27 196617 t b i;#P message 11 76 65 196617 -40 0 40 80;#N comlet i midline;#P inlet 61 26 23 0;#P connect 2 0 1 0;#P fasten 1 0 3 0 16 100 64 100;#P connect 3 0 4 0;#P connect 0 0 2 0;#P connect 2 1 3 1;#P connect 3 0 7 0;#P connect 9 0 10 0;#P connect 6 0 5 0;#P connect 5 0 8 0;#P connect 8 0 9 0;#P fasten 7 0 5 1 88 167 197 167;#P fasten 7 2 8 1 130 162 210 162;#P fasten 7 3 9 1 151 159 226 159;#P pop;#P newobj 121 431 31 196617 p fan;#P number 699 508 35 9 0 2 3 3 0 0 0 221 221 221 222 222 222 0 0 0;#P newex 708 525 48 196617 switch 2;#P user ezdac~ 492 719 536 752 0;#P message 828 474 51 196617 chiko.aiff;#P flonum 783 475 35 9 -1. 2. 3 3 0 0 0 221 221 221 222 222 222 0 0 0;#P toggle 762 478 15 0;#P newex 758 495 108 196617 playaif whisp;#N comlet i volume;#P inlet 618 -90 24 0;#N comlet jit.matrix video;#P outlet 144 729 34 0;#P newex 151 -51 55 196617 unpack 0 0;#N comlet l mouse x y;#P inlet 151 -75 24 0;#P newex 151 -32 55 196617 pack 0 0 1;#P newex 151 -14 74 196617 prepend mouse;#P newex 59 323 45 196617 loadbang;#B color 3;#N comlet toggle audio;#P inlet 416 -77 24 0;#N comlet toggle frame difference;#P inlet 218 -75 24 0;#N comlet jit.matrix video in;#P inlet 81 -75 24 0;#P message 195 134 26 196617 180;#P message 175 134 20 196617 90;#P message 160 134 14 196617 0;#P hidden newex 160 171 135 196617 expr ($f1/360.)*6.283185;#P flonum 160 153 35 9 0 0 0 3 0 0 0 221 221 221 222 222 222 0 0 0;#P hidden flonum 112 180 35 9 0 0 0 3 0 0 0 221 221 221 222 222 222 0 0 0;#P hidden message 112 174 45 196617 theta \$1;#P newex 100 194 109 196617 jit.rota @boundmode 4;#P comment 683 733 200 196617 Constructed by Tom Mays \, tmays@free.fr;#P message 314 79 42 196617 rate \$1;#P hidden newex 7 125 30 196617 del 1;#P hidden newex 7 145 52 196617 onebang 1;#P hidden newex 7 105 30 196617 sel 1;#P hidden message 7 165 69 196617 mouse 80 0 1;#P hidden newex 6 30 54 196617 t 12.5 1 0;#P hidden newex 7 12 45 196617 loadbang;#P comment 157 412 77 196617 vertical scan position (pixel);#P number 121 414 35 9 0 0 0 3 0 0 0 221 221 221 222 222 222 0 0 0;#P window setfont "Sans Serif" 12.;#P comment 0 354 59 196620 vertical scan extract on/off;#P toggle 59 371 30 0;#P window setfont "Sans Serif" 9.;#P newex 83 412 27 196617 gate;#P window setfont "Sans Serif" 18.;#P comment 413 320 130 196626 set/visualize vertical scan position;#P window setfont "Sans Serif" 9.;#P comment 524 692 35 196617 on/off;#P toggle 493 684 30 0;#P comment 6 265 91 196617 draw vertical white line at clicked position in pwindow;#P window setfont "Sans Serif" 18.;#P comment 415 20 122 196626 frame motor;#P window setfont "Sans Serif" 9.;#P flonum 314 62 35 9 0 0 0 3 0 0 0 221 221 221 222 222 222 0 0 0;#P comment 349 63 48 196617 qt rate;#P flonum 305 195 35 9 0. 1. 3 3 0 0 0 221 221 221 222 222 222 0 0 0;#P comment 340 195 50 196617 threshold;#N vpatcher 516 111 1085 550;#P window setfont "Sans Serif" 9.;#P newex 41 149 27 196617 * 2;#N comlet vertical line number;#P outlet 41 195 15 0;#N comlet matrix out;#P outlet 25 408 15 0;#N comlet matrix in;#P inlet 25 342 15 0;#P newex 114 375 62 196617 jit.op @op +;#N comlet smaller matrix out with line;#P outlet 114 409 15 0;#N comlet window right out;#P inlet 178 4 15 0;#P toggle 232 76 15 0;#P newex 68 102 27 196617 gate;#P newex 114 237 55 196617 swap;#P newex 114 215 27 196617 - 1;#P newex 114 259 100 196617 pack 0 0 val;#P newex 68 172 192 196617 t b i clear;#P newex 68 193 56 196617 Uzi 120;#P number 68 127 35 9 0 0 0 3 0 0 0 221 221 221 222 222 222 0 0 0;#P button 91 309 15 0;#P newex 114 309 75 196617 prepend setcell;#P newex 114 285 110 196617 append 0 255 255 255;#P newex 114 338 161 196617 jit.matrix addline 4 char 160 120;#P newex 178 54 65 196617 unpack 0 0 0;#P newex 178 30 63 196617 route mouse;#P connect 17 0 18 0;#P connect 6 0 20 0;#P connect 20 0 19 0;#P fasten 13 0 12 0 237 96 73 96;#P connect 12 0 6 0;#P connect 6 0 8 0;#P connect 8 0 7 0;#P connect 1 0 12 1;#P connect 7 1 5 0;#P connect 7 2 10 0;#P connect 10 0 11 0;#P connect 11 0 9 0;#P connect 9 0 3 0;#P connect 3 0 4 0;#P fasten 8 2 2 0 255 331 119 331;#P connect 4 0 2 0;#P connect 5 0 2 0;#P connect 17 0 16 0;#P connect 16 0 15 0;#P connect 8 1 11 1;#P connect 11 1 9 1;#P fasten 2 0 16 1 119 361 171 361;#P connect 14 0 0 0;#P connect 0 0 1 0;#P connect 1 2 13 0;#P pop;#P newobj 100 266 52 196617 p vertline;#B color 6;#P user ubumenu 38 449 48 196617 0 1 1 0;#X add red;#X add green;#X add blue;#X prefix_set 0 0 <none> 0;#P user multiSlider 33 577 91 37 0. 255. 253 2665 47;#M frgb 255 0 0;#M brgb 255 255 255;#M rgb2 127 127 127;#P newex 33 614 92 196617 s fftfilt1-spectFun;#B color 11;#P user meter~ 825 523 905 536 100 0 168 0 104 104 104 255 153 0 255 0 0 217 217 0 153 186 0 12 3 3 3 3;#P newex 722 456 35 196617 noise~;#P newex 588 553 148 196617 pfft~ whispers_filter1 1024 2;#B color 5;#P user jit.pwindow 15 511 15 122 0 1 0 0 1 0;#P user multiSlider 57 525 66 48 0. 256. 240 2921 15;#M frgb 255 0 0;#M brgb 0 0 0;#M rgb2 127 127 127;#P noclick;#P user meter~ 589 639 647 653 100 0 168 0 104 104 104 255 153 0 255 0 0 217 217 0 153 186 0 12 3 3 3 3;#P newex 674 702 29 196617 dac~;#P user gain~ 589 575 26 39 158 0 1.071519 7.94321 10.;#P user jit.pwindow 164 287 162 122 0 1 0 0 1 0;#P toggle 222 108 15 0;#P newex 222 128 27 196617 gate;#P comment 15 23 84 196617 adjust metro time as a function of frames/sec;#P comment 6 197 91 196617 prepare image for vertical analysis by letting through only what "moves";#P window setfont "Sans Serif" 18.;#P comment 415 93 60 196626 movie;#P window setfont "Sans Serif" 9.;#N vpatcher 39 121 627 679;#P origin 0 -47;#P window setfont "Sans Serif" 9.;#P comment 196 469 218 196617 pad list with zeros because scan line is 240 values and filter requires 253.;#P newex 42 454 35 196617 t l b;#P newex 42 493 35 196617 zl join;#P message 67 474 122 196617 0 0 0 0 0 0 0 0 0 0 0 0 0;#P comment 175 44 101 196617 vertical line position;#P outlet 42 517 15 0;#N comlet vert line number;#P inlet 129 23 15 0;#P newex 327 164 27 196617 + 1;#N comlet color (1-2-3);#P inlet 327 125 15 0;#N comlet vertical line list;#P outlet 327 296 15 0;#N comlet vertical line matrix;#P outlet 9 127 15 0;#P newex 174 344 33 196617 t b b;#P number 174 384 55 9 0 0 0 3 0 0 0 221 221 221 222 222 222 0 0 0;#P newex 174 364 33 196617 timer;#P newex 59 403 125 196617 pack 0. 100;#P newex 59 426 80 196617 s fftfilt1-interp;#B color 11;#P newex 42 316 27 196617 t l b;#P toggle 59 347 15 0;#P newex 73 370 80 196617 s fftfilt1-tabsel;#B color 11;#P message 87 205 45 196617 plane \$1;#P newex 42 228 158 196617 jit.spill @plane 1 @listlength 240;#P message 218 71 90 196617 srcdimend \$1 239;#P number 129 43 45 9 0 319 3 3 0 0 0 221 221 221 222 222 222 0 0 0;#P message 129 71 85 196617 srcdimstart \$1 0;#P newex 42 97 390 196617 jit.matrix 4 char 1 240 @thru 1 @srcdimstart 0 0 @srcdimend 0 239 @usesrcdim 1;#P comment 83 258 218 196617 reverse list (so that the bottom is on the left).;#P newex 42 257 35 196617 zl rev;#P newex 327 205 61 196617 t b i;#P newex 327 266 65 196617 prepend frgb;#P number 327 144 35 9 0 0 0 3 0 0 0 221 221 221 222 222 222 0 0 0;#P message 327 227 44 196617 0 0 255;#P newex 327 245 61 196617 zl rot;#P comment 441 139 117 196617 choose which color data goes to audio fft filter;#N comlet matrix input;#P inlet 42 43 15 0;#P comment 363 133 55 196617 1 = red \; 2 = green \; 3 = blue \;;#P connect 10 0 24 0;#P connect 1 0 10 0;#P fasten 11 0 10 0 134 91 47 91;#P fasten 13 0 10 0 223 91 47 91;#P connect 10 0 14 0;#P connect 15 0 14 0;#P connect 14 0 8 0;#P connect 8 0 18 0;#P connect 18 0 33 0;#P connect 33 0 32 0;#P connect 32 0 29 0;#P connect 18 1 17 0;#P connect 17 0 20 0;#P connect 20 0 19 0;#P connect 33 1 31 0;#P connect 31 0 32 1;#P connect 17 0 16 0;#P fasten 27 0 15 0 332 193 92 193;#P connect 28 0 12 0;#P connect 12 0 11 0;#P fasten 18 1 23 0 64 339 179 339;#P connect 23 0 21 0;#P connect 21 0 22 0;#P connect 22 0 20 1;#P connect 23 1 21 1;#P fasten 12 0 13 0 134 64 223 64;#P connect 26 0 5 0;#P connect 5 0 27 0;#P connect 27 0 7 0;#P connect 7 0 4 0;#P connect 4 0 3 0;#P connect 3 0 6 0;#P fasten 8 0 25 0 47 290 332 290;#P connect 6 0 25 0;#P connect 7 1 3 1;#P pop;#P newobj 16 491 75 196617 p vertical_data;#B color 6;#P window setfont "Sans Serif" 18.;#P message 256 63 48 196626 read;#P window setfont "Sans Serif" 9.;#P newex 100 99 103 196617 jit.qt.movie 320 240;#B color 6;#P user jit.pwindow 261 105 82 62 0 1 0 0 1 0;#P toggle 219 191 30 0;#N vpatcher 40 248 494 565;#P window setfont "Sans Serif" 9.;#P comment 335 159 50 196617 threshold;#N comlet threshold;#P inlet 318 158 15 0;#N comlet switch;#P inlet 111 27 15 0;#P comment 141 230 131 196617 multiply absdiff by what gets through threshold.;#P toggle 111 51 15 0;#P newex 75 136 27 196617 t l l;#P number 111 90 35 9 0 0 0 3 0 0 0 221 221 221 222 222 222 0 0 0;#P newex 111 70 27 196617 + 1;#N comlet matrix input;#P inlet 75 89 15 0;#P outlet 40 266 15 0;#P flonum 318 180 35 9 0 0 0 3 0 0 0 221 221 221 222 222 222 0 0 0;#P newex 75 230 63 196617 jit.op @op *;#P newex 128 203 61 196617 jit.op @op >;#P newex 75 175 85 196617 jit.op @op absdiff;#P comment 163 172 131 196617 absolute differece between this frame and the last;#P comment 193 206 50 196617 threshold;#P newex 40 115 45 196617 gate 2 1;#P comment 31 29 76 196617 "on" routes bang through processing \, "off" bypasses.;#P connect 11 0 1 0;#P connect 6 0 8 0;#P connect 1 0 8 0;#P connect 9 0 1 1;#P connect 1 1 12 0;#P connect 12 1 4 0;#P connect 4 0 6 0;#P connect 15 0 13 0;#P connect 13 0 10 0;#P connect 10 0 11 0;#P fasten 4 0 5 0 80 197 133 197;#P connect 5 0 6 1;#P fasten 12 0 4 1 80 164 155 164;#P fasten 7 0 5 1 323 199 184 199;#P connect 16 0 7 0;#P pop;#P newobj 100 232 89 196617 p framedifference;#B color 6;#P window setfont "Sans Serif" 18.;#P comment 415 182 100 196626 frame difference;#P window setfont "Sans Serif" 9.;#P comment 181 56 54 196617 ms/frame;#P flonum 132 54 48 9 0 0 0 3 0 0 0 221 221 221 222 222 222 0 0 0;#P comment 305 26 35 196617 on/off;#P flonum 100 14 48 9 0.1 0 1 3 0 0 0 221 221 221 222 222 222 0 0 0;#P toggle 273 14 30 0;#N vpatcher 40 55 312 320;#N comlet motor switch;#P inlet 137 42 15 0;#P outlet 117 183 15 0;#N comlet frames/sec;#P inlet 102 103 15 0;#N comlet metro bangs out;#P outlet 34 209 15 0;#P window setfont "Sans Serif" 9.;#P flonum 102 123 48 9 0 0 0 3 0 0 0 221 221 221 222 222 222 0 0 0;#P newex 102 141 45 196617 !/ 1000.;#P flonum 102 161 50 9 0.5 0 1 3 0 0 0 221 221 221 222 222 222 0 0 0;#P toggle 34 82 15 0;#P newex 34 182 78 196617 metro 2;#P comment 155 42 68 196617 motor switch;#P connect 9 0 2 0;#P connect 2 0 1 0;#P connect 1 0 6 0;#P connect 7 0 5 0;#P connect 5 0 4 0;#P connect 4 0 3 0;#P connect 3 0 1 1;#P connect 3 0 8 0;#P pop;#P newobj 100 33 75 196617 p frame_motor;#B color 6;#P comment 149 14 61 196617 frames/sec;#P comment 22 81 58 196617 basic movie player;#P comment 254 195 35 196617 on/off;#P comment 343 127 85 196617 <- unprocessed movie monitor;#P comment 326 312 46 196617 click on image to set vertical scan position;#P comment 114 136 42 196617 rotate;#P window setfont "Sans Serif" 18.;#P comment 5 -102 287 196626 whispering Heights (Tom Mays);#P window setfont "Sans Serif" 9.;#P comment 302 -101 252 196617 modified by sxw as video operator \, live 4.2003;#P window setfont "Sans Serif" 18.;#P comment 462 657 120 196626 audio switch;#P hidden connect 54 0 55 0;#P hidden connect 10 0 57 0;#P lcolor 1;#P hidden connect 57 0 59 0;#P hidden connect 59 0 58 0;#P hidden connect 58 0 56 0;#P fasten 49 0 21 0 88 484 21 484;#P connect 21 0 32 0;#P connect 21 1 37 0;#P connect 37 0 36 0;#P hidden connect 55 2 38 0;#P lcolor 1;#P fasten 103 0 21 1 126 487 53 487;#P lcolor 15;#P connect 21 2 31 0;#P fasten 73 0 50 0 64 348 64 348;#P connect 38 0 21 2;#P lcolor 12;#P fasten 50 0 49 0 64 405 88 405;#P hidden connect 55 0 11 0;#P lcolor 1;#P connect 11 0 9 0;#P fasten 60 0 19 0 319 96 105 96;#P fasten 20 0 19 0 261 96 105 96;#P connect 9 0 19 0;#P connect 19 0 62 0;#P hidden connect 63 0 62 0;#P fasten 70 0 62 0 86 142 105 142;#P lcolor 7;#P connect 62 0 16 0;#P connect 16 0 39 0;#P connect 39 0 49 1;#P hidden connect 64 0 63 0;#P hidden fasten 66 0 64 0 165 191 156 191 156 154 117 154;#P connect 39 1 52 0;#P connect 52 0 87 0;#P connect 87 0 103 0;#P fasten 9 1 13 0 170 52 137 52;#P fasten 17 0 16 1 224 224 144 224;#P fasten 27 1 39 1 320 418 352 418 352 262 147 262;#P hidden connect 56 0 39 1;#P lcolor 1;#P fasten 74 0 39 1 156 8 90 8 90 260 147 260;#P lcolor 15;#P connect 39 2 87 1;#P fasten 49 0 88 0 88 484 147 484;#P connect 88 0 90 0;#P connect 87 1 78 0;#P connect 76 0 77 0;#P connect 77 0 75 0;#P connect 75 0 74 0;#P connect 88 1 92 0;#P connect 92 0 91 0;#P hidden connect 69 0 65 0;#P hidden connect 68 0 65 0;#P connect 67 0 65 0;#P hidden connect 65 0 66 0;#P fasten 10 0 9 1 278 51 178 51 178 30 170 30;#P connect 39 2 27 0;#P fasten 103 1 88 1 147 484 179 484;#P lcolor 15;#P fasten 41 0 16 2 310 228 183 228;#P connect 88 2 89 0;#P connect 38 0 88 2;#P lcolor 12;#P connect 71 0 17 0;#P lcolor 3;#P hidden connect 55 1 26 0;#P lcolor 1;#P connect 26 0 25 0;#P fasten 19 0 25 1 105 124 210 124 210 102 244 102;#P fasten 25 0 18 0 227 148 255 148 255 102 267 102;#P fasten 49 0 93 0 88 485 273 485;#P connect 93 0 95 0;#P connect 93 1 97 0;#P connect 97 0 96 0;#P fasten 103 2 93 1 168 484 305 484;#P lcolor 15;#P connect 93 2 94 0;#P hidden connect 55 1 43 0;#P lcolor 1;#P connect 43 0 60 0;#P connect 38 0 93 2;#P lcolor 12;#P fasten 49 0 98 0 88 484 399 484;#P connect 98 0 100 0;#P connect 98 1 102 0;#P connect 102 0 101 0;#P fasten 103 3 98 1 189 484 431 484;#P lcolor 15;#P connect 98 2 99 0;#P connect 38 0 98 2;#P lcolor 12;#P fasten 72 0 46 0 421 -6 498 -6;#P lcolor 3;#P connect 85 0 33 0;#P fasten 79 0 28 0 623 8 594 8;#P lcolor 7;#P connect 33 0 28 0;#P connect 28 0 30 0;#P connect 79 0 113 0;#P fasten 113 0 105 0 623 8 679 8;#P lcolor 7;#P connect 104 0 105 0;#P connect 105 0 106 0;#P connect 46 0 29 0;#P connect 28 0 29 0;#P connect 105 0 29 0;#P connect 85 0 104 0;#P connect 111 0 29 1;#P connect 108 0 29 1;#P hidden fasten 55 1 86 0 33 71 704 71;#P lcolor 1;#P connect 86 0 85 0;#P connect 34 0 85 1;#P connect 80 0 85 2;#P connect 81 0 80 0;#P fasten 113 0 108 0 623 8 767 8;#P lcolor 7;#P connect 107 0 108 0;#P connect 108 0 109 0;#P connect 85 0 107 0;#P connect 82 0 80 1;#P connect 80 0 35 0;#P connect 110 0 111 0;#P fasten 113 0 111 0 623 8 836 8;#P lcolor 7;#P connect 111 0 112 0;#P connect 85 0 110 0;#P connect 83 0 80 2;#P pop;