max v2;#N vpatcher 58 59 973 730;#P comment 408 49 141 196626 memoryplace;#P comment 547 49 143 196617 Yoichiro Serita © 2003 Topological Media Lab;#P user GSwitch 99 582 41 32 0 0;#P newex 99 623 122 196617 ys.window memoryspace;#P newex 114 55 45 196617 ys.video;#P message 204 78 33 196617 1000;#P message 204 60 26 196617 300;#P message 204 41 20 196617 10;#P flonum 342 120 46 9 0 0 0 3 0 0 0 221 221 221 222 222 222 0 0 0;#P newex 342 50 31 196617 sel 1;#P number 373 215 58 9 0 0 0 3 0 0 0 221 221 221 222 222 222 0 0 0;#P newex 342 95 45 196617 / 1000.;#P newex 342 74 34 196617 timer;#P user ubumenu 23 205 60 196617 0 1 1 0;#X add pass;#X add *;#X add /;#X add +;#X add -;#X add +m;#X add -m;#X add %;#X add min;#X add max;#X add abs;#X add avg;#X add absdiff;#X add !pass;#X add !/;#X add !-;#X add !%;#X add &;#X add |;#X add ^;#X add ~;#X add >>;#X add <<;#X add &&;#X add ||;#X add !;#X add >;#X add <;#X add >=;#X add <=;#X add ==;#X add !=;#X add >p;#X add <p;#X add >=p;#X add <=p;#X add ==p;#X add !=p;#X add sin;#X add cos;#X add tan;#X add asin;#X add acos;#X add atan;#X add atan2;#X add sinh;#X add cosh;#X add tanh;#X add asinh;#X add acosh;#X add atanh;#X add exp;#X add exp2;#X add ln;#X add log2;#X add log10;#X add hypot;#X add pow;#X add sqrt;#X add ceil;#X add floor;#X add round;#X add trunc;#X add ignore;#X prefix_set 0 0 <none> 0;#P newex 23 225 72 196617 prepend op;#P button 142 143 15 0;#P newex 251 64 32 196617 lb 10;#P user jit.pwindow 541 195 82 62 0 1 0 0 1 0;#P newex 542 166 114 196617 jit.op @op !- @val 255;#P newex 542 102 27 196617 t l l;#P newex 542 139 90 196617 jit.op @op absdiff;#P message 385 177 75 196617 matrixcount \$1;#P number 251 96 51 9 1 5000 3 3 0 0 0 221 221 221 222 222 222 0 0 0;#P user ubumenu 463 218 60 196617 0 1 1 0;#X add pass;#X add *;#X add /;#X add +;#X add -;#X add +m;#X add -m;#X add %;#X add min;#X add max;#X add abs;#X add avg;#X add absdiff;#X add !pass;#X add !/;#X add !-;#X add !%;#X add &;#X add |;#X add ^;#X add ~;#X add >>;#X add <<;#X add &&;#X add ||;#X add !;#X add >;#X add <;#X add >=;#X add <=;#X add ==;#X add !=;#X add >p;#X add <p;#X add >=p;#X add <=p;#X add ==p;#X add !=p;#X add sin;#X add cos;#X add tan;#X add asin;#X add acos;#X add atan;#X add atan2;#X add sinh;#X add cosh;#X add tanh;#X add asinh;#X add acosh;#X add atanh;#X add exp;#X add exp2;#X add ln;#X add log2;#X add log10;#X add hypot;#X add pow;#X add sqrt;#X add ceil;#X add floor;#X add round;#X add trunc;#X add ignore;#X prefix_set 0 0 <none> 0;#P newex 463 238 72 196617 prepend op;#P user jit.pwindow 462 322 322 242 0 1 0 0 1 0;#P newex 463 294 89 196617 jit.op @op *;#P user jit.pwindow 194 255 82 62 0 1 0 0 1 0;#P newex 114 82 54 196617 jit.matrix;#P user jit.pwindow 113 323 322 242 0 1 0 0 1 0;#P newex 195 207 151 196617 jit.matrixset 2 4 char 320 240;#P newex 272 175 105 196617 prepend outputmatrix;#P newex 195 175 71 196617 prepend index;#P button 195 122 15 0;#N counter 0 1;#X flags 0 0;#P newobj 195 149 66 196617 counter 0 1;#P newex 114 255 62 196617 jit.op @op -;#P user jit.pwindow 23 121 82 62 0 1 0 0 1 0;#P user GSwitch2 142 163 39 32 1 0;#P connect 24 1 23 0;#P connect 9 0 1 0;#P connect 35 0 34 0;#P connect 33 0 9 0;#P connect 9 0 2 0;#P connect 23 0 2 0;#P connect 2 0 8 0;#P connect 8 0 35 1;#P fasten 12 0 35 2 468 572 134 572;#P connect 22 0 0 0;#P connect 7 0 2 1;#P connect 9 0 0 1;#P connect 9 0 4 0;#P connect 4 0 3 0;#P connect 3 0 5 0;#P connect 16 0 7 0;#P connect 6 0 7 0;#P connect 5 0 7 0;#P connect 0 1 7 0;#P connect 7 0 10 0;#P connect 30 0 15 0;#P connect 31 0 15 0;#P connect 32 0 15 0;#P connect 21 0 15 0;#P connect 15 0 3 4;#P connect 3 0 6 0;#P connect 3 2 28 0;#P connect 28 0 25 0;#P connect 25 0 26 0;#P connect 26 0 29 0;#P connect 28 0 25 1;#P connect 3 0 27 0;#P connect 15 0 16 0;#P connect 14 1 13 0;#P connect 9 0 11 0;#P connect 13 0 11 0;#P connect 11 0 12 0;#P connect 7 0 18 0;#P fasten 18 1 17 0 564 134 547 134;#P connect 17 0 19 0;#P connect 19 0 20 0;#P connect 20 0 11 1;#P fasten 18 0 17 1 547 125 627 125;#P pop;