max v2;#N vpatcher 135 102 799 724;#P origin 16 0;#P comment 21 31 92 196626 weirdcam;#P comment 112 31 143 196617 Yoichiro Serita © 2003 Topological Media Lab;#N vpatcher 33 152 985 777;#P origin 61 65;#P newex 578 75 45 196617 loadbang;#P outlet 130 505 15 0;#P user jit.pwindow 114 400 82 62 0 1 0 0 1 0;#P user jit.pwindow 690 549 82 62 0 1 0 0 1 0;#P newex 141 310 91 196617 jit.op @op *;#P newex 472 556 114 196617 jit.op @op !- @val 255;#P newex 662 331 25 196617 lb 9;#P number 662 355 35 9 0 0 0 3 0 0 0 156 179 255 222 222 222 0 0 0;#P newex 577 379 95 196617 jit.op @op - @val 1;#P number 526 304 35 9 0 0 0 3 0 0 0 221 221 221 222 222 222 0 0 0;#P number 486 304 35 9 0 0 0 3 0 0 0 221 221 221 222 222 222 0 0 0;#P message 526 327 29 196617 y \$1;#P message 486 327 29 196617 x \$1;#P newex 577 283 95 196617 jit.avg4 @x 1 @y 1;#P user jit.pwindow 659 41 82 62 0 1 0 0 1 0;#P flonum 764 254 47 9 0 0 0 3 0 0 0 156 179 255 222 222 222 0 0 0;#P newex 764 228 45 196617 * 0.001;#P user uslider 764 160 26 46 41 1 0 0;#P newex 577 434 129 196617 jit.op @op +;#P newex 472 92 54 196617 jit.matrix;#P message 423 243 27 196617 max;#P newex 393 267 55 196617 prepend op;#P message 393 243 28 196617 pass;#P newex 393 220 71 196617 sel 0 1;#P newex 670 212 27 196617 gate;#P newex 472 258 53 196617 jit.matrix;#P newex 687 183 27 196617 b;#P newex 472 523 88 196617 jit.matrix heated;#P newex 577 245 85 196617 jit.matrix heated;#P newex 696 284 115 196617 jit.op @op * @val 0.04;#P newex 472 491 115 196617 jit.op @op max;#P number 621 188 35 9 0 0 0 3 0 0 0 156 179 255 222 222 222 0 0 0;#P toggle 577 137 28 0;#P newex 577 211 54 1441802 metro 20;#P comment 515 144 59 196617 heat on/off;#P newex 472 4 27 196617 t l l;#P newex 472 41 90 196617 jit.op @op absdiff;#P message 241 12 33 196617 1000;#P message 241 -6 26 196617 300;#P message 241 -25 20 196617 10;#P flonum 288 62 46 9 0 0 0 3 0 0 0 221 221 221 222 222 222 0 0 0;#P newex 288 -7 31 196617 sel 1;#P number 141 92 58 9 0 0 0 3 0 0 0 221 221 221 222 222 222 0 0 0;#P newex 288 37 45 196617 / 1000.;#P newex 288 16 34 196617 timer;#P newex 197 6 32 196617 lb 10;#P user jit.pwindow 264 273 82 62 0 1 0 0 1 0;#P newex 141 247 114 196617 jit.op @op !- @val 255;#P newex 141 183 27 196617 t l l;#P newex 141 220 90 196617 jit.op @op absdiff;#P message 331 119 75 196617 matrixcount \$1;#P number 197 38 51 9 1 5000 3 3 0 0 0 221 221 221 222 222 222 0 0 0;#P user jit.pwindow 263 187 82 62 0 1 0 0 1 0;#P newex 60 24 54 196617 jit.matrix;#P newex 141 149 151 196617 jit.matrixset 2 4 char 320 240;#P newex 218 117 105 196617 prepend outputmatrix;#P newex 141 117 71 196617 prepend index;#P button 141 51 15 0;#N counter 0 1;#X flags 0 0;#P newobj 141 70 66 196617 counter 0 1;#P user jit.pwindow 10 125 82 62 0 1 0 0 1 0;#P inlet -1 -31 15 0;#P connect 7 0 1 0;#P connect 0 0 7 0;#P connect 56 0 58 0;#P connect 58 0 59 0;#P connect 7 0 3 0;#P connect 3 0 2 0;#P connect 2 0 18 0;#P connect 18 0 4 0;#P connect 7 0 6 0;#P connect 4 0 6 0;#P connect 5 0 6 0;#P connect 10 0 6 0;#P connect 6 0 12 0;#P fasten 12 1 11 0 163 215 146 215;#P connect 11 0 13 0;#P connect 13 0 56 0;#P connect 15 0 9 0;#P connect 23 0 9 0;#P connect 22 0 9 0;#P connect 21 0 9 0;#P connect 9 0 2 4;#P connect 18 0 5 0;#P fasten 12 0 11 1 146 206 226 206;#P connect 55 0 56 1;#P connect 6 0 8 0;#P connect 13 0 14 0;#P connect 2 2 19 0;#P connect 19 0 16 0;#P connect 16 0 17 0;#P connect 17 0 20 0;#P connect 19 0 16 1;#P connect 9 0 10 0;#P fasten 28 0 37 0 582 171 398 171;#P connect 37 0 38 0;#P fasten 40 0 39 0 428 261 398 261;#P connect 38 0 39 0;#P connect 37 1 40 0;#P connect 7 0 25 0;#P fasten 25 1 24 0 494 36 477 36;#P connect 24 0 41 0;#P connect 41 0 35 0;#P fasten 27 0 35 0 582 234 477 234;#P connect 35 0 30 0;#P fasten 39 0 30 0 398 357 477 357;#P connect 30 0 33 0;#P connect 33 0 55 0;#P connect 50 0 48 0;#P connect 51 0 49 0;#P fasten 25 0 24 1 477 27 557 27;#P connect 60 0 28 0;#P connect 28 0 27 0;#P fasten 36 0 32 0 675 239 582 239;#P connect 27 0 32 0;#P connect 32 0 47 0;#P connect 48 0 47 0;#P connect 49 0 47 0;#P connect 47 0 52 0;#P connect 52 0 42 0;#P connect 42 0 30 1;#P connect 29 0 27 1;#P connect 24 0 46 0;#P connect 54 0 53 0;#P connect 53 0 52 1;#P fasten 28 0 36 0 582 173 675 173;#P fasten 41 0 34 0 477 117 692 117;#P connect 34 0 36 1;#P connect 55 0 57 0;#P fasten 32 0 31 0 582 270 701 270;#P connect 31 0 42 1;#P connect 43 0 44 0;#P connect 44 0 45 0;#P connect 45 0 31 1;#P pop;#P newobj 273 161 55 196617 p watercol;#B color 4;#N vpatcher 50 119 291 333;#P outlet 60 158 15 0;#P inlet 60 34 15 0;#P newex 60 124 114 196617 jit.op @op !- @val 255;#P newex 60 60 27 196617 t l l;#P newex 60 97 90 196617 jit.op @op absdiff;#P connect 3 0 1 0;#P fasten 1 1 0 0 82 92 65 92;#P connect 0 0 2 0;#P connect 2 0 4 0;#P fasten 1 0 0 1 65 83 145 83;#P pop;#P newobj 213 161 55 196617 p fdiffcam;#B color 4;#P user jit.pwindow 148 190 82 62 0 1 0 0 1 0;#P newex 149 115 27 196617 + 1;#P user ubumenu 149 84 80 133693452 0 1 1 0;#X add ghostcam;#X add fdiffcam;#X add watercol;#X prefix_set 0 0 <none> 0;#P newex 149 136 53 196617 gate 4 1;#P user jit.pwindow 297 53 82 62 0 1 0 0 1 0;#N vpatcher 378 109 820 478;#P outlet 120 311 15 0;#P inlet 120 43 15 0;#P number 304 120 35 9 0 0 0 3 0 0 0 221 221 221 222 222 222 0 0 0;#P user jit.pwindow 215 234 82 62 0 1 0 0 1 0;#P message 248 179 129 196617 outputmatrix \$1 \, index \$1;#P number 248 161 35 9 0 0 0 3 0 0 0 221 221 221 222 222 222 0 0 0;#P button 248 122 15 0;#N counter 0 9;#X flags 0 0;#P newobj 248 140 66 196617 counter 0 9;#P newex 174 209 163 196617 jit.matrixset 100 4 char 320 240;#P user ubumenu 22 190 60 196617 0 1 1 0;#X add pass;#X add *;#X add /;#X add +;#X add -;#X add +m;#X add -m;#X add %;#X add min;#X add max;#X add abs;#X add avg;#X add absdiff;#X add !pass;#X add !/;#X add !-;#X add !%;#X add &;#X add |;#X add ^;#X add ~;#X add >>;#X add <<;#X add &&;#X add ||;#X add !;#X add >;#X add <;#X add >=;#X add <=;#X add ==;#X add !=;#X add >p;#X add <p;#X add >=p;#X add <=p;#X add ==p;#X add !=p;#X add sin;#X add cos;#X add tan;#X add asin;#X add acos;#X add atan;#X add atan2;#X add sinh;#X add cosh;#X add tanh;#X add asinh;#X add acosh;#X add atanh;#X add exp;#X add exp2;#X add ln;#X add log2;#X add log10;#X add hypot;#X add pow;#X add sqrt;#X add ceil;#X add floor;#X add round;#X add trunc;#X add ignore;#X prefix_set 0 0 <none> 0;#P newex 47 211 72 196617 prepend op;#P newex 120 235 64 196617 jit.op @op *;#P newex 120 80 54 196617 jit.matrix;#P user jit.pwindow 29 119 82 62 0 1 0 0 1 0;#P connect 1 0 0 0;#P connect 4 1 3 0;#P connect 12 0 1 0;#P connect 1 0 2 0;#P connect 3 0 2 0;#P connect 2 0 13 0;#P connect 1 0 5 0;#P connect 9 0 5 0;#P connect 5 0 2 1;#P connect 5 0 10 0;#P connect 1 0 7 0;#P connect 7 0 6 0;#P connect 6 0 8 0;#P connect 8 0 9 0;#P connect 11 0 6 4;#P pop;#P newobj 149 161 59 196617 p ghostcam;#B color 4;#P message 149 310 50 196617 shot8.jpg;#P newex 149 289 32 196617 show;#P message 45 269 61 196617 prefix wow;#P message 45 251 42 196617 reset 1;#P button 80 174 48 0;#P newex 117 264 42 196617 ys.shot;#P newex 298 27 45 196617 ys.video;#P user jit.pwindow 116 343 322 242 0 1 0 0 1 0;#P comment 84 157 40 196617 shutter;#P connect 6 0 3 0;#P connect 5 0 3 0;#P fasten 4 0 3 0 85 238 122 238;#P connect 3 0 1 0;#P connect 12 0 13 0;#P connect 13 0 11 0;#P connect 11 0 9 0;#P connect 16 0 14 0;#P connect 15 0 14 0;#P connect 9 0 14 0;#P connect 14 0 3 1;#P connect 3 1 7 0;#P connect 7 0 8 0;#P connect 10 0 11 1;#P connect 11 1 15 0;#P connect 11 2 16 0;#P connect 2 0 10 0;#P pop;