max v2;#N vpatcher 45 72 534 702;#P origin 118 0;#P comment 252 94 74 196626 ys.shot;#P comment 324 94 143 196617 Yoichiro Serita © 2003 Topological Media Lab;#P hidden newex 358 31 105 196617 bgcolor 202 186 255;#P comment 317 194 110 133693452 08.11.2003;#P comment 317 179 110 133693452 by yoichiro;#P comment 317 142 110 133693452 capture still image and save into file;#P newex 171 274 45 196617 loadbang;#P comment 314 580 32 196617 image;#P comment 369 455 78 196617 image file name;#P comment 213 53 78 196617 image (matrix);#P comment 41 35 120 196617 bang ... shot;#P comment 41 65 120 196617 reset ... counter reset;#P user jit.pwindow 292 504 82 62 0 1 0 0 1 0;#P newex 22 349 61 196617 prepend set;#P newex 102 404 88 196617 sprintf %s%d.jpg;#P outlet 393 436 15 0;#P outlet 293 578 15 0;#P newex 22 84 91 196617 route prefix reset;#P newex 102 376 65 196617 prepend shot;#P button 102 118 15 0;#P inlet 193 52 15 0;#P inlet 22 52 15 0;#P newex 102 180 29 196617 t b b;#P newex 102 435 138 196617 sprintf exportimage %s jpeg;#P message 102 493 136 196617 exportimage wow15.jpg jpeg;#P newex 102 467 32 196617 show;#P number 130 295 35 9 0 0 0 3 0 0 0 221 221 221 222 222 222 0 0 0;#P message 171 295 14 196617 1;#P button 102 295 15 0;#P number 102 350 35 9 0 0 0 3 0 0 0 221 221 221 222 222 222 0 0 0;#N counter;#X flags 0 0;#P newobj 102 324 66 196617 counter;#P message 146 209 14 196617 1;#P message 121 208 14 196617 0;#P newex 102 153 42 196617 delay 5;#P newex 121 245 82 196617 gate;#P newex 293 480 54 196617 jit.matrix;#P comment 41 50 120 196617 prefix ... image file name;#P connect 15 0 19 0;#P connect 19 0 23 0;#P connect 19 2 17 0;#P connect 17 0 3 0;#P connect 3 0 14 0;#P connect 14 0 8 0;#P connect 8 0 6 0;#P connect 6 0 7 0;#P connect 7 0 18 0;#P fasten 23 0 18 0 27 370 107 370;#P connect 18 0 22 0;#P connect 22 0 13 0;#P connect 13 0 11 0;#P connect 11 0 12 0;#P connect 14 1 4 0;#P connect 4 0 2 0;#P fasten 5 0 2 0 151 234 126 234;#P fasten 19 1 10 0 67 278 135 278;#P connect 10 0 6 2;#P fasten 9 0 6 2 176 315 135 315;#P fasten 17 0 5 0 107 139 151 139;#P connect 30 0 9 0;#P connect 16 0 2 1;#P fasten 2 0 1 0 126 267 298 267;#P fasten 13 0 1 0 107 459 298 459;#P connect 1 0 24 0;#P connect 24 0 20 0;#P fasten 22 0 21 0 107 425 398 425;#P pop;