max v2;#N vpatcher 10 59 610 459;#P window setfont "Sans Serif" 9.;#P flonum 110 107 35 9 0 0 0 3 0 0 0 221 221 221 222 222 222 0 0 0;#P flonum 71 107 35 9 0 0 0 3 0 0 0 221 221 221 222 222 222 0 0 0;#P window linecount 1;#P newex 115 43 103 196617 r calibratezmapsFlag;#P flonum 74 148 56 9 0 0 0 3 0 0 0 221 221 221 222 222 222 0 0 0;#P toggle 115 65 15 0;#P newex 47 126 80 196617 zmap 0. 1. 0. 1.;#P newex 70 83 58 196617 getminmax;#P comment 132 68 100 196617 calibrate;#P newex 115 212 42 196617 mavg 3;#P newex 115 242 113 196617 s mmotionmeterABsum;#P connect 8 0 4 1;#P connect 3 0 8 0;#P connect 4 0 6 0;#P connect 9 0 4 2;#P connect 3 1 9 0;#P connect 7 0 5 0;#P fasten 4 0 1 0 52 178 120 178;#P connect 1 0 0 0;#P connect 5 0 3 1;#P pop;