max v2;#N vpatcher 536 301 936 601;#P toggle 102 88 15 0;#P window setfont "Sans Serif" 9.;#P newex 246 96 31 196617 print;#P flonum 50 151 35 9 0 0 0 3 0 0 0 221 221 221 222 222 222 0 0 0;#N comlet max;#P outlet 135 208 15 0;#N comlet min;#P outlet 101 208 15 0;#P newex 102 111 27 196617 gate;#P message 122 134 52 196617 clearbang;#P newex 181 56 51 196617 route 1 0;#N comlet start/stop;#P inlet 181 35 15 0;#N comlet data;#P inlet 119 23 15 0;#P newex 102 153 92 196617 lp.stacey;#P connect 5 0 8 0;#P connect 0 1 6 0;#P connect 3 0 10 0;#P connect 3 1 10 0;#P connect 10 0 5 0;#P connect 5 0 0 0;#P connect 4 0 0 0;#P connect 1 0 5 1;#P connect 3 0 4 0;#P connect 0 2 7 0;#P connect 2 0 3 0;#P connect 3 2 9 0;#P pop;