{
	"patcher" : 	{
		"fileversion" : 1,
		"rect" : [ 167.0, 67.0, 765.0, 581.0 ],
		"bgcolor" : [ 0.27451, 0.368627, 0.45098, 1.0 ],
		"bglocked" : 0,
		"defrect" : [ 167.0, 67.0, 765.0, 581.0 ],
		"openrect" : [ 0.0, 0.0, 0.0, 0.0 ],
		"openinpresentation" : 0,
		"default_fontsize" : 12.0,
		"default_fontface" : 0,
		"default_fontname" : "Arial",
		"gridonopen" : 0,
		"gridsize" : [ 15.0, 15.0 ],
		"gridsnaponopen" : 0,
		"toolbarvisible" : 1,
		"boxanimatetime" : 200,
		"imprint" : 0,
		"enablehscroll" : 1,
		"enablevscroll" : 1,
		"devicewidth" : 0.0,
		"boxes" : [ 			{
				"box" : 				{
					"maxclass" : "bpatcher",
					"varname" : "zsa_open",
					"name" : "zsa.open.maxpat",
					"numinlets" : 0,
					"id" : "obj-55",
					"args" : [  ],
					"numoutlets" : 0,
					"patching_rect" : [ 511.0, 18.0, 196.0, 51.0 ]
				}

			}
, 			{
				"box" : 				{
					"maxclass" : "newobj",
					"text" : "loadmess 0.95",
					"fontsize" : 12.0,
					"numinlets" : 1,
					"id" : "obj-10",
					"fontname" : "Arial",
					"numoutlets" : 1,
					"hidden" : 1,
					"patching_rect" : [ 188.0, 256.769226, 89.0, 20.0 ],
					"outlettype" : [ "" ]
				}

			}
, 			{
				"box" : 				{
					"maxclass" : "comment",
					"varname" : "zsa_text[1]",
					"text" : "x%  of the signal (roll-off point). 0.95 by default.",
					"linecount" : 2,
					"textcolor" : [ 0.93, 0.93, 0.97, 1.0 ],
					"fontsize" : 11.0,
					"numinlets" : 1,
					"id" : "obj-15",
					"fontname" : "Arial",
					"numoutlets" : 0,
					"patching_rect" : [ 274.0, 277.0, 164.0, 32.0 ],
					"frgb" : [ 0.93, 0.93, 0.97, 1.0 ]
				}

			}
, 			{
				"box" : 				{
					"maxclass" : "flonum",
					"fontsize" : 12.0,
					"minimum" : 0.0,
					"maximum" : 1.0,
					"numinlets" : 1,
					"id" : "obj-13",
					"fontname" : "Arial",
					"numoutlets" : 2,
					"patching_rect" : [ 188.0, 282.0, 83.0, 20.0 ],
					"outlettype" : [ "float", "bang" ]
				}

			}
, 			{
				"box" : 				{
					"maxclass" : "newobj",
					"text" : "p smoothing",
					"fontsize" : 11.59518,
					"numinlets" : 1,
					"id" : "obj-39",
					"fontname" : "Arial",
					"numoutlets" : 1,
					"patching_rect" : [ 66.0, 375.0, 74.0, 20.0 ],
					"outlettype" : [ "" ],
					"patcher" : 					{
						"fileversion" : 1,
						"rect" : [ 25.0, 69.0, 156.0, 292.0 ],
						"bglocked" : 0,
						"defrect" : [ 25.0, 69.0, 156.0, 292.0 ],
						"openrect" : [ 0.0, 0.0, 0.0, 0.0 ],
						"openinpresentation" : 0,
						"default_fontsize" : 12.0,
						"default_fontface" : 0,
						"default_fontname" : "Arial",
						"gridonopen" : 0,
						"gridsize" : [ 15.0, 15.0 ],
						"gridsnaponopen" : 0,
						"toolbarvisible" : 1,
						"boxanimatetime" : 200,
						"imprint" : 0,
						"enablehscroll" : 1,
						"enablevscroll" : 1,
						"devicewidth" : 0.0,
						"boxes" : [ 							{
								"box" : 								{
									"maxclass" : "newobj",
									"text" : "zl stream 5",
									"fontsize" : 11.595187,
									"numinlets" : 2,
									"id" : "obj-30",
									"fontname" : "Arial",
									"numoutlets" : 2,
									"patching_rect" : [ 55.0, 100.0, 67.0, 20.0 ],
									"outlettype" : [ "", "" ]
								}

							}
, 							{
								"box" : 								{
									"maxclass" : "newobj",
									"text" : "zl median",
									"fontsize" : 11.595187,
									"numinlets" : 2,
									"id" : "obj-32",
									"fontname" : "Arial",
									"numoutlets" : 2,
									"patching_rect" : [ 55.0, 133.0, 60.0, 20.0 ],
									"outlettype" : [ "", "" ]
								}

							}
, 							{
								"box" : 								{
									"maxclass" : "inlet",
									"numinlets" : 0,
									"id" : "obj-37",
									"numoutlets" : 1,
									"patching_rect" : [ 55.0, 40.0, 25.0, 25.0 ],
									"outlettype" : [ "float" ],
									"comment" : ""
								}

							}
, 							{
								"box" : 								{
									"maxclass" : "outlet",
									"numinlets" : 1,
									"id" : "obj-38",
									"numoutlets" : 0,
									"patching_rect" : [ 55.0, 213.0, 25.0, 25.0 ],
									"comment" : ""
								}

							}
 ],
						"lines" : [ 							{
								"patchline" : 								{
									"source" : [ "obj-32", 0 ],
									"destination" : [ "obj-38", 0 ],
									"hidden" : 0,
									"midpoints" : [  ]
								}

							}
, 							{
								"patchline" : 								{
									"source" : [ "obj-37", 0 ],
									"destination" : [ "obj-30", 0 ],
									"hidden" : 0,
									"midpoints" : [  ]
								}

							}
, 							{
								"patchline" : 								{
									"source" : [ "obj-30", 0 ],
									"destination" : [ "obj-32", 0 ],
									"hidden" : 0,
									"midpoints" : [  ]
								}

							}
 ]
					}
,
					"saved_object_attributes" : 					{
						"fontface" : 0,
						"fontsize" : 12.0,
						"default_fontsize" : 12.0,
						"fontname" : "Arial",
						"default_fontface" : 0,
						"globalpatchername" : "",
						"default_fontname" : "Arial"
					}

				}

			}
, 			{
				"box" : 				{
					"maxclass" : "multislider",
					"border_left" : 0,
					"orientation" : 0,
					"border_bottom" : 0,
					"border_right" : 0,
					"numinlets" : 1,
					"ignoreclick" : 1,
					"id" : "obj-35",
					"numoutlets" : 2,
					"slidercolor" : [ 0.85098, 0.533333, 0.254902, 1.0 ],
					"patching_rect" : [ 66.0, 416.0, 300.0, 100.0 ],
					"setminmax" : [ 0.0, 22050.0 ],
					"border_top" : 0,
					"outlettype" : [ "", "" ],
					"bgcolor" : [ 1.0, 1.0, 1.0, 0.0 ]
				}

			}
, 			{
				"box" : 				{
					"maxclass" : "spectroscope~",
					"numinlets" : 2,
					"id" : "obj-6",
					"bordercolor" : [ 0.85098, 0.533333, 0.254902, 1.0 ],
					"numoutlets" : 1,
					"fgcolor" : [ 0.27451, 0.368627, 0.45098, 1.0 ],
					"curvecolor" : [ 0.533333, 0.65098, 0.286275, 1.0 ],
					"patching_rect" : [ 66.0, 416.0, 300.0, 100.0 ],
					"outlettype" : [ "" ],
					"bgcolor" : [ 0.184314, 0.254902, 0.34902, 1.0 ]
				}

			}
, 			{
				"box" : 				{
					"maxclass" : "comment",
					"text" : "Hz",
					"textcolor" : [ 0.93, 0.93, 0.97, 1.0 ],
					"fontsize" : 11.0,
					"numinlets" : 1,
					"id" : "obj-1",
					"fontname" : "Arial",
					"numoutlets" : 0,
					"patching_rect" : [ 144.0, 339.0, 24.0, 19.0 ],
					"frgb" : [ 0.93, 0.93, 0.97, 1.0 ]
				}

			}
, 			{
				"box" : 				{
					"maxclass" : "comment",
					"varname" : "zsa_text[3]",
					"text" : "rolloff frequency",
					"textcolor" : [ 0.93, 0.93, 0.97, 1.0 ],
					"fontsize" : 11.0,
					"numinlets" : 1,
					"id" : "obj-9",
					"fontname" : "Arial",
					"numoutlets" : 0,
					"patching_rect" : [ 174.0, 339.0, 107.0, 19.0 ],
					"frgb" : [ 0.93, 0.93, 0.97, 1.0 ]
				}

			}
, 			{
				"box" : 				{
					"maxclass" : "comment",
					"varname" : "zsa_text[2]",
					"text" : "G. Peeters, A large set of audio features for sound description (similarity and classification) in the CUIDADO project. Cuidado projet report, Institut de Recherche et de Coordination Acoustique Musique (IRCAM), 2004, p.15. ",
					"linecount" : 2,
					"textcolor" : [ 0.93, 0.93, 0.97, 1.0 ],
					"fontsize" : 11.0,
					"numinlets" : 1,
					"id" : "obj-2",
					"fontname" : "Arial",
					"numoutlets" : 0,
					"patching_rect" : [ 14.0, 537.0, 593.0, 32.0 ],
					"frgb" : [ 0.93, 0.93, 0.97, 1.0 ]
				}

			}
, 			{
				"box" : 				{
					"maxclass" : "number~",
					"fontsize" : 12.0,
					"sig" : 0.0,
					"numinlets" : 2,
					"id" : "obj-5",
					"fontname" : "Arial",
					"numoutlets" : 2,
					"interval" : 20.0,
					"patching_rect" : [ 66.0, 339.0, 78.0, 20.0 ],
					"outlettype" : [ "signal", "float" ],
					"mode" : 2
				}

			}
, 			{
				"box" : 				{
					"maxclass" : "bpatcher",
					"varname" : "zsa_seealso",
					"name" : "zsa.seealso.maxpat",
					"numinlets" : 0,
					"id" : "obj-14",
					"args" : [  ],
					"numoutlets" : 0,
					"patching_rect" : [ 612.0, 523.0, 141.0, 51.0 ]
				}

			}
, 			{
				"box" : 				{
					"maxclass" : "newobj",
					"text" : "*~",
					"fontsize" : 12.0,
					"numinlets" : 2,
					"id" : "obj-47",
					"fontname" : "Arial",
					"numoutlets" : 1,
					"patching_rect" : [ 435.0, 430.0, 32.5, 20.0 ],
					"outlettype" : [ "signal" ]
				}

			}
, 			{
				"box" : 				{
					"maxclass" : "toggle",
					"numinlets" : 1,
					"id" : "obj-44",
					"numoutlets" : 1,
					"patching_rect" : [ 541.0, 119.0, 20.0, 20.0 ],
					"outlettype" : [ "int" ]
				}

			}
, 			{
				"box" : 				{
					"maxclass" : "toggle",
					"numinlets" : 1,
					"id" : "obj-45",
					"numoutlets" : 1,
					"patching_rect" : [ 518.0, 119.0, 20.0, 20.0 ],
					"outlettype" : [ "int" ]
				}

			}
, 			{
				"box" : 				{
					"maxclass" : "message",
					"text" : "loop $1",
					"fontsize" : 12.0,
					"numinlets" : 2,
					"id" : "obj-48",
					"fontname" : "Arial",
					"numoutlets" : 1,
					"patching_rect" : [ 541.0, 144.0, 50.0, 18.0 ],
					"outlettype" : [ "" ]
				}

			}
, 			{
				"box" : 				{
					"maxclass" : "newobj",
					"text" : "sfplay~",
					"fontsize" : 12.0,
					"numinlets" : 2,
					"id" : "obj-49",
					"fontname" : "Arial",
					"numoutlets" : 2,
					"patching_rect" : [ 478.0, 170.0, 49.0, 20.0 ],
					"outlettype" : [ "signal", "bang" ],
					"save" : [ "#N", "sfplay~", "", 1, 120960, 0, "", ";" ]
				}

			}
, 			{
				"box" : 				{
					"maxclass" : "message",
					"text" : "open",
					"fontsize" : 12.0,
					"numinlets" : 2,
					"id" : "obj-50",
					"fontname" : "Arial",
					"numoutlets" : 1,
					"patching_rect" : [ 478.0, 119.0, 37.0, 18.0 ],
					"outlettype" : [ "" ]
				}

			}
, 			{
				"box" : 				{
					"maxclass" : "umenu",
					"fontsize" : 12.0,
					"items" : [ "(Source)", ",", "noise", ",", "sound", "file" ],
					"numinlets" : 1,
					"id" : "obj-43",
					"fontname" : "Arial",
					"numoutlets" : 3,
					"types" : [  ],
					"patching_rect" : [ 66.0, 137.0, 79.0, 20.0 ],
					"outlettype" : [ "int", "", "" ]
				}

			}
, 			{
				"box" : 				{
					"maxclass" : "newobj",
					"text" : "biquad~",
					"fontsize" : 12.0,
					"numinlets" : 6,
					"id" : "obj-36",
					"fontname" : "Arial",
					"numoutlets" : 1,
					"patching_rect" : [ 97.0, 212.0, 86.5, 20.0 ],
					"outlettype" : [ "signal" ]
				}

			}
, 			{
				"box" : 				{
					"maxclass" : "newobj",
					"text" : "noise~",
					"fontsize" : 12.0,
					"numinlets" : 1,
					"id" : "obj-68",
					"fontname" : "Arial",
					"numoutlets" : 1,
					"patching_rect" : [ 97.0, 176.0, 46.0, 20.0 ],
					"outlettype" : [ "signal" ]
				}

			}
, 			{
				"box" : 				{
					"maxclass" : "newobj",
					"text" : "selector~ 2 1",
					"fontsize" : 12.0,
					"numinlets" : 3,
					"id" : "obj-69",
					"fontname" : "Arial",
					"numoutlets" : 1,
					"patching_rect" : [ 66.0, 241.769226, 80.0, 20.0 ],
					"outlettype" : [ "signal" ]
				}

			}
, 			{
				"box" : 				{
					"maxclass" : "filtergraph~",
					"hbwidthcolor" : [ 0.85098, 0.533333, 0.254902, 1.0 ],
					"textcolor" : [ 0.93, 0.93, 0.97, 1.0 ],
					"fontsize" : 10.0,
					"hcurvecolor" : [ 0.85098, 0.533333, 0.254902, 1.0 ],
					"bwidthcolor" : [ 0.462745, 0.47451, 0.65098, 1.0 ],
					"numinlets" : 8,
					"domain" : [ 0.0, 22050.0 ],
					"id" : "obj-81",
					"fontname" : "Arial",
					"logfreq" : 0,
					"numoutlets" : 7,
					"fgcolor" : [ 0.533333, 0.65098, 0.286275, 1.0 ],
					"patching_rect" : [ 152.0, 100.0, 301.0, 103.0 ],
					"autoout" : 1,
					"outlettype" : [ "list", "float", "float", "float", "float", "list", "int" ],
					"bgcolor" : [ 0.184314, 0.254902, 0.34902, 1.0 ],
					"markercolor" : [ 0.509804, 0.509804, 0.509804, 1.0 ],
					"nfilters" : 1,
					"setfilter" : [ 0, 1, 0, 0, 0, 11574.418945, 1.0, 0.5, 0.0001, 22050.0, 0.0001, 16.0, 0.5, 25.0 ]
				}

			}
, 			{
				"box" : 				{
					"maxclass" : "comment",
					"varname" : "autohelp_dac_text",
					"text" : "start audio",
					"linecount" : 2,
					"textcolor" : [ 0.93, 0.93, 0.97, 1.0 ],
					"fontsize" : 11.595187,
					"numinlets" : 1,
					"id" : "obj-12",
					"fontname" : "Arial",
					"numoutlets" : 0,
					"patching_rect" : [ 394.0, 473.0, 38.0, 33.0 ],
					"frgb" : [ 0.93, 0.93, 0.97, 1.0 ]
				}

			}
, 			{
				"box" : 				{
					"maxclass" : "ezdac~",
					"varname" : "autohelp_dac",
					"local" : 1,
					"numinlets" : 2,
					"id" : "obj-38",
					"numoutlets" : 0,
					"patching_rect" : [ 435.0, 467.0, 45.0, 45.0 ]
				}

			}
, 			{
				"box" : 				{
					"maxclass" : "panel",
					"varname" : "startwinwdow_panel",
					"border" : 2,
					"numinlets" : 1,
					"id" : "obj-19",
					"bordercolor" : [ 0.85098, 0.533333, 0.254902, 1.0 ],
					"numoutlets" : 0,
					"patching_rect" : [ 387.0, 462.0, 100.0, 55.0 ],
					"bgcolor" : [ 0.184314, 0.254902, 0.34902, 1.0 ]
				}

			}
, 			{
				"box" : 				{
					"maxclass" : "newobj",
					"text" : "zsa.easy_rolloff~ 1024 4",
					"fontsize" : 12.0,
					"numinlets" : 2,
					"id" : "obj-4",
					"fontname" : "Arial",
					"numoutlets" : 1,
					"patching_rect" : [ 66.0, 307.0, 141.0, 20.0 ],
					"outlettype" : [ "signal" ]
				}

			}
, 			{
				"box" : 				{
					"maxclass" : "comment",
					"varname" : "zsa_text",
					"textcolor" : [ 0.93, 0.93, 0.97, 1.0 ],
					"fontsize" : 11.0,
					"numinlets" : 1,
					"id" : "obj-8",
					"fontname" : "Arial",
					"numoutlets" : 0,
					"patching_rect" : [ 9.0, 78.0, 287.0, 19.0 ],
					"frgb" : [ 0.93, 0.93, 0.97, 1.0 ]
				}

			}
, 			{
				"box" : 				{
					"maxclass" : "comment",
					"varname" : "zsa_description",
					"text" : "The spectral roll-off point is the frequency  so that  x%  of the signal falls below this frequency.",
					"linecount" : 2,
					"textcolor" : [ 0.93, 0.93, 0.97, 1.0 ],
					"fontsize" : 12.754705,
					"numinlets" : 1,
					"id" : "obj-3",
					"fontname" : "Arial",
					"numoutlets" : 0,
					"patching_rect" : [ 7.0, 40.0, 344.0, 36.0 ],
					"frgb" : [ 0.93, 0.93, 0.97, 1.0 ]
				}

			}
, 			{
				"box" : 				{
					"maxclass" : "comment",
					"varname" : "zsa_title",
					"text" : "zsa.rolloff~",
					"fontface" : 3,
					"textcolor" : [ 0.533333, 0.65098, 0.286275, 1.0 ],
					"fontsize" : 20.871338,
					"numinlets" : 1,
					"id" : "obj-7",
					"fontname" : "Arial",
					"numoutlets" : 0,
					"patching_rect" : [ 7.0, 9.0, 455.0, 30.0 ],
					"frgb" : [ 0.533333, 0.65098, 0.286275, 1.0 ]
				}

			}
, 			{
				"box" : 				{
					"maxclass" : "panel",
					"varname" : "autohelp_top_panel",
					"angle" : -88.349983,
					"grad1" : [ 0.184314, 0.254902, 0.34902, 1.0 ],
					"background" : 1,
					"numinlets" : 1,
					"grad2" : [ 0.27451, 0.368627, 0.45098, 1.0 ],
					"id" : "obj-37",
					"numoutlets" : 0,
					"patching_rect" : [ 7.0, 8.0, 474.0, 69.0 ],
					"mode" : 1,
					"bgcolor" : [ 0.184314, 0.254902, 0.34902, 1.0 ]
				}

			}
, 			{
				"box" : 				{
					"maxclass" : "flonum",
					"fontsize" : 12.0,
					"numinlets" : 1,
					"id" : "obj-51",
					"fontname" : "Arial",
					"numoutlets" : 2,
					"patching_rect" : [ 448.5, 400.0, 50.0, 20.0 ],
					"outlettype" : [ "float", "bang" ]
				}

			}
 ],
		"lines" : [ 			{
				"patchline" : 				{
					"source" : [ "obj-10", 0 ],
					"destination" : [ "obj-13", 0 ],
					"hidden" : 1,
					"midpoints" : [  ]
				}

			}
, 			{
				"patchline" : 				{
					"source" : [ "obj-69", 0 ],
					"destination" : [ "obj-47", 0 ],
					"hidden" : 0,
					"midpoints" : [ 75.5, 260.0, 75.5, 275.0, 444.5, 275.0 ]
				}

			}
, 			{
				"patchline" : 				{
					"source" : [ "obj-51", 0 ],
					"destination" : [ "obj-47", 1 ],
					"hidden" : 0,
					"midpoints" : [  ]
				}

			}
, 			{
				"patchline" : 				{
					"source" : [ "obj-47", 0 ],
					"destination" : [ "obj-38", 0 ],
					"hidden" : 0,
					"midpoints" : [ 444.5, 451.0, 444.5, 451.0 ]
				}

			}
, 			{
				"patchline" : 				{
					"source" : [ "obj-47", 0 ],
					"destination" : [ "obj-38", 1 ],
					"hidden" : 0,
					"midpoints" : [ 444.5, 454.0, 470.5, 454.0 ]
				}

			}
, 			{
				"patchline" : 				{
					"source" : [ "obj-49", 0 ],
					"destination" : [ "obj-69", 2 ],
					"hidden" : 0,
					"midpoints" : [ 487.5, 237.0, 138.0, 237.0, 138.0, 237.0, 136.5, 237.0 ]
				}

			}
, 			{
				"patchline" : 				{
					"source" : [ "obj-43", 0 ],
					"destination" : [ "obj-69", 0 ],
					"hidden" : 0,
					"midpoints" : [  ]
				}

			}
, 			{
				"patchline" : 				{
					"source" : [ "obj-36", 0 ],
					"destination" : [ "obj-69", 1 ],
					"hidden" : 0,
					"midpoints" : [  ]
				}

			}
, 			{
				"patchline" : 				{
					"source" : [ "obj-68", 0 ],
					"destination" : [ "obj-36", 0 ],
					"hidden" : 0,
					"midpoints" : [  ]
				}

			}
, 			{
				"patchline" : 				{
					"source" : [ "obj-81", 0 ],
					"destination" : [ "obj-36", 1 ],
					"hidden" : 0,
					"midpoints" : [  ]
				}

			}
, 			{
				"patchline" : 				{
					"source" : [ "obj-50", 0 ],
					"destination" : [ "obj-49", 0 ],
					"hidden" : 0,
					"midpoints" : [  ]
				}

			}
, 			{
				"patchline" : 				{
					"source" : [ "obj-45", 0 ],
					"destination" : [ "obj-49", 0 ],
					"hidden" : 0,
					"midpoints" : [ 527.5, 150.0, 487.5, 150.0 ]
				}

			}
, 			{
				"patchline" : 				{
					"source" : [ "obj-44", 0 ],
					"destination" : [ "obj-48", 0 ],
					"hidden" : 0,
					"midpoints" : [  ]
				}

			}
, 			{
				"patchline" : 				{
					"source" : [ "obj-48", 0 ],
					"destination" : [ "obj-49", 0 ],
					"hidden" : 0,
					"midpoints" : [ 550.5, 166.0, 487.5, 166.0 ]
				}

			}
, 			{
				"patchline" : 				{
					"source" : [ "obj-39", 0 ],
					"destination" : [ "obj-35", 0 ],
					"hidden" : 0,
					"midpoints" : [  ]
				}

			}
, 			{
				"patchline" : 				{
					"source" : [ "obj-5", 1 ],
					"destination" : [ "obj-39", 0 ],
					"hidden" : 0,
					"midpoints" : [ 134.5, 367.0, 75.5, 367.0 ]
				}

			}
, 			{
				"patchline" : 				{
					"source" : [ "obj-69", 0 ],
					"destination" : [ "obj-6", 0 ],
					"hidden" : 0,
					"midpoints" : [ 75.5, 275.0, 34.0, 275.0, 34.0, 401.0, 75.5, 401.0 ]
				}

			}
, 			{
				"patchline" : 				{
					"source" : [ "obj-13", 0 ],
					"destination" : [ "obj-4", 1 ],
					"hidden" : 0,
					"midpoints" : [  ]
				}

			}
, 			{
				"patchline" : 				{
					"source" : [ "obj-69", 0 ],
					"destination" : [ "obj-4", 0 ],
					"hidden" : 0,
					"midpoints" : [  ]
				}

			}
, 			{
				"patchline" : 				{
					"source" : [ "obj-4", 0 ],
					"destination" : [ "obj-5", 0 ],
					"hidden" : 0,
					"midpoints" : [  ]
				}

			}
 ]
	}

}
