{
	"patcher" : 	{
		"fileversion" : 1,
		"rect" : [ 190.0, 46.0, 755.0, 668.0 ],
		"bgcolor" : [ 0.27451, 0.368627, 0.45098, 1.0 ],
		"bglocked" : 0,
		"defrect" : [ 190.0, 46.0, 755.0, 668.0 ],
		"openrect" : [ 0.0, 0.0, 0.0, 0.0 ],
		"openinpresentation" : 0,
		"default_fontsize" : 12.0,
		"default_fontface" : 0,
		"default_fontname" : "Arial",
		"gridonopen" : 0,
		"gridsize" : [ 15.0, 15.0 ],
		"gridsnaponopen" : 0,
		"toolbarvisible" : 1,
		"boxanimatetime" : 200,
		"imprint" : 0,
		"enablehscroll" : 1,
		"enablevscroll" : 1,
		"devicewidth" : 0.0,
		"boxes" : [ 			{
				"box" : 				{
					"maxclass" : "bpatcher",
					"varname" : "zsa_open",
					"name" : "zsa.open.maxpat",
					"numinlets" : 0,
					"id" : "obj-55",
					"args" : [  ],
					"numoutlets" : 0,
					"patching_rect" : [ 504.0, 8.0, 196.0, 51.0 ]
				}

			}
, 			{
				"box" : 				{
					"maxclass" : "flonum",
					"fontsize" : 12.0,
					"minimum" : 0.0,
					"numinlets" : 1,
					"id" : "obj-17",
					"fontname" : "Arial",
					"numoutlets" : 2,
					"patching_rect" : [ 214.0, 455.0, 92.0, 20.0 ],
					"outlettype" : [ "float", "bang" ]
				}

			}
, 			{
				"box" : 				{
					"maxclass" : "newobj",
					"text" : "p smoothing",
					"fontsize" : 11.59518,
					"numinlets" : 1,
					"id" : "obj-39",
					"fontname" : "Arial",
					"numoutlets" : 1,
					"patching_rect" : [ 66.0, 465.0, 74.0, 20.0 ],
					"outlettype" : [ "" ],
					"patcher" : 					{
						"fileversion" : 1,
						"rect" : [ 25.0, 69.0, 640.0, 480.0 ],
						"bglocked" : 0,
						"defrect" : [ 25.0, 69.0, 640.0, 480.0 ],
						"openrect" : [ 0.0, 0.0, 0.0, 0.0 ],
						"openinpresentation" : 0,
						"default_fontsize" : 12.0,
						"default_fontface" : 0,
						"default_fontname" : "Arial",
						"gridonopen" : 0,
						"gridsize" : [ 15.0, 15.0 ],
						"gridsnaponopen" : 0,
						"toolbarvisible" : 1,
						"boxanimatetime" : 200,
						"imprint" : 0,
						"enablehscroll" : 1,
						"enablevscroll" : 1,
						"devicewidth" : 0.0,
						"boxes" : [ 							{
								"box" : 								{
									"maxclass" : "newobj",
									"text" : "zl stream 5",
									"fontsize" : 11.595187,
									"numinlets" : 2,
									"id" : "obj-30",
									"fontname" : "Arial",
									"numoutlets" : 2,
									"patching_rect" : [ 55.0, 100.0, 67.0, 20.0 ],
									"outlettype" : [ "", "" ]
								}

							}
, 							{
								"box" : 								{
									"maxclass" : "newobj",
									"text" : "zl median",
									"fontsize" : 11.595187,
									"numinlets" : 2,
									"id" : "obj-32",
									"fontname" : "Arial",
									"numoutlets" : 2,
									"patching_rect" : [ 55.0, 133.0, 60.0, 20.0 ],
									"outlettype" : [ "", "" ]
								}

							}
, 							{
								"box" : 								{
									"maxclass" : "inlet",
									"numinlets" : 0,
									"id" : "obj-37",
									"numoutlets" : 1,
									"patching_rect" : [ 55.0, 40.0, 25.0, 25.0 ],
									"outlettype" : [ "float" ],
									"comment" : ""
								}

							}
, 							{
								"box" : 								{
									"maxclass" : "outlet",
									"numinlets" : 1,
									"id" : "obj-38",
									"numoutlets" : 0,
									"patching_rect" : [ 55.0, 213.0, 25.0, 25.0 ],
									"comment" : ""
								}

							}
 ],
						"lines" : [ 							{
								"patchline" : 								{
									"source" : [ "obj-32", 0 ],
									"destination" : [ "obj-38", 0 ],
									"hidden" : 0,
									"midpoints" : [  ]
								}

							}
, 							{
								"patchline" : 								{
									"source" : [ "obj-37", 0 ],
									"destination" : [ "obj-30", 0 ],
									"hidden" : 0,
									"midpoints" : [  ]
								}

							}
, 							{
								"patchline" : 								{
									"source" : [ "obj-30", 0 ],
									"destination" : [ "obj-32", 0 ],
									"hidden" : 0,
									"midpoints" : [  ]
								}

							}
 ]
					}
,
					"saved_object_attributes" : 					{
						"fontface" : 0,
						"fontsize" : 12.0,
						"default_fontsize" : 12.0,
						"fontname" : "Arial",
						"default_fontface" : 0,
						"globalpatchername" : "",
						"default_fontname" : "Arial"
					}

				}

			}
, 			{
				"box" : 				{
					"maxclass" : "umenu",
					"fontsize" : 11.595187,
					"items" : [ "display", ",", "lowpass", ",", "highpass", ",", "bandpass", ",", "bandstop", ",", "peaknotch", ",", "lowshelf", ",", "highshelf", ",", "resonant", ",", "allpass" ],
					"numinlets" : 1,
					"id" : "obj-1",
					"fontname" : "Arial",
					"numoutlets" : 3,
					"types" : [  ],
					"patching_rect" : [ 166.0, 182.0, 105.0, 20.0 ],
					"outlettype" : [ "int", "", "" ]
				}

			}
, 			{
				"box" : 				{
					"maxclass" : "comment",
					"text" : "recall a preset",
					"textcolor" : [ 0.93, 0.93, 0.97, 1.0 ],
					"fontsize" : 11.0,
					"numinlets" : 1,
					"id" : "obj-30",
					"fontname" : "Arial",
					"numoutlets" : 0,
					"patching_rect" : [ 242.0, 154.0, 207.0, 19.0 ],
					"frgb" : [ 0.93, 0.93, 0.97, 1.0 ]
				}

			}
, 			{
				"box" : 				{
					"maxclass" : "preset",
					"textcolor" : [ 0.501961, 0.501961, 0.501961, 0.0 ],
					"spacing" : 4,
					"emptycolor" : [ 0.27451, 0.368627, 0.45098, 1.0 ],
					"numinlets" : 1,
					"id" : "obj-31",
					"bordercolor" : [ 0.85098, 0.533333, 0.254902, 1.0 ],
					"numoutlets" : 4,
					"stored1" : [ 0.27451, 0.368627, 0.45098, 1.0 ],
					"patching_rect" : [ 152.0, 156.0, 85.0, 17.0 ],
					"margin" : 4,
					"outlettype" : [ "preset", "int", "preset", "int" ],
					"active1" : [ 0.533333, 0.65098, 0.286275, 1.0 ],
					"bgcolor" : [ 0.184314, 0.254902, 0.34902, 1.0 ],
					"preset_data" : [ 						{
							"number" : 1,
							"data" : [ 5, "obj-17", "flonum", "float", 350.0, 5, "obj-1", "umenu", "int", 9, 5, "obj-81", "filtergraph~", "nfilters", 1, 9, "obj-81", "filtergraph~", "setoptions", 0, 9, 0, 0, 0, 8, "obj-81", "filtergraph~", "params", 0, 16848.837891, 1.0, 2.043011, 5, "obj-43", "umenu", "int", 1 ]
						}
, 						{
							"number" : 2,
							"data" : [ 5, "obj-17", "flonum", "float", 350.0, 5, "obj-1", "umenu", "int", 3, 5, "obj-81", "filtergraph~", "nfilters", 1, 9, "obj-81", "filtergraph~", "setoptions", 0, 3, 0, 0, 0, 8, "obj-81", "filtergraph~", "params", 0, 10329.069336, 1.0, 0.5, 5, "obj-43", "umenu", "int", 1 ]
						}
, 						{
							"number" : 3,
							"data" : [ 5, "obj-17", "flonum", "float", 350.0, 5, "obj-1", "umenu", "int", 3, 5, "obj-81", "filtergraph~", "nfilters", 1, 9, "obj-81", "filtergraph~", "setoptions", 0, 3, 0, 0, 0, 8, "obj-81", "filtergraph~", "params", 0, 10255.813477, 1.0, 25.0, 5, "obj-43", "umenu", "int", 1 ]
						}
, 						{
							"number" : 4,
							"data" : [ 5, "obj-17", "flonum", "float", 350.0, 5, "obj-1", "umenu", "int", 3, 5, "obj-81", "filtergraph~", "nfilters", 1, 9, "obj-81", "filtergraph~", "setoptions", 0, 3, 0, 0, 0, 8, "obj-81", "filtergraph~", "params", 0, 1758.139526, 1.0, 25.0, 5, "obj-43", "umenu", "int", 1 ]
						}
, 						{
							"number" : 5,
							"data" : [ 5, "obj-17", "flonum", "float", 350.0, 5, "obj-1", "umenu", "int", 3, 5, "obj-81", "filtergraph~", "nfilters", 1, 9, "obj-81", "filtergraph~", "setoptions", 0, 3, 0, 0, 0, 8, "obj-81", "filtergraph~", "params", 0, 18387.208984, 1.0, 25.0, 5, "obj-43", "umenu", "int", 1 ]
						}
, 						{
							"number" : 6,
							"data" : [ 5, "obj-17", "flonum", "float", 500.0, 5, "obj-1", "umenu", "int", 3, 5, "obj-81", "filtergraph~", "nfilters", 1, 9, "obj-81", "filtergraph~", "setoptions", 0, 3, 0, 0, 0, 8, "obj-81", "filtergraph~", "params", 0, 18387.208984, 1.0, 25.0, 5, "obj-43", "umenu", "int", 2 ]
						}
 ]
				}

			}
, 			{
				"box" : 				{
					"maxclass" : "comment",
					"varname" : "zsa_text[3]",
					"text" : "K",
					"textcolor" : [ 0.93, 0.93, 0.97, 1.0 ],
					"fontsize" : 11.0,
					"numinlets" : 1,
					"id" : "obj-9",
					"fontname" : "Arial",
					"numoutlets" : 0,
					"patching_rect" : [ 45.0, 431.0, 18.0, 19.0 ],
					"frgb" : [ 0.93, 0.93, 0.97, 1.0 ]
				}

			}
, 			{
				"box" : 				{
					"maxclass" : "comment",
					"varname" : "zsa_text[1]",
					"text" : "K = 3 for a normal distribution,\nK < 3 for a flatter distribution\nK > 3 for a peaker distribution,",
					"linecount" : 3,
					"textcolor" : [ 0.93, 0.93, 0.97, 1.0 ],
					"fontsize" : 11.0,
					"numinlets" : 1,
					"id" : "obj-6",
					"fontname" : "Arial",
					"numoutlets" : 0,
					"patching_rect" : [ 28.0, 96.0, 164.0, 44.0 ],
					"frgb" : [ 0.93, 0.93, 0.97, 1.0 ]
				}

			}
, 			{
				"box" : 				{
					"maxclass" : "comment",
					"varname" : "zsa_text[2]",
					"text" : "[1]\tG. Peeters, A large set of audio features for sound description (similarity and classification) in the CUIDADO project. Cuidado projet report, Institut de Recherche et de Coordination Acoustique Musique (IRCAM), 2004, p.14. ",
					"linecount" : 2,
					"textcolor" : [ 0.93, 0.93, 0.97, 1.0 ],
					"fontsize" : 11.0,
					"numinlets" : 1,
					"id" : "obj-2",
					"fontname" : "Arial",
					"numoutlets" : 0,
					"patching_rect" : [ 8.0, 617.0, 593.0, 32.0 ],
					"frgb" : [ 0.93, 0.93, 0.97, 1.0 ]
				}

			}
, 			{
				"box" : 				{
					"maxclass" : "number~",
					"fontsize" : 12.0,
					"sig" : 0.0,
					"numinlets" : 2,
					"id" : "obj-5",
					"fontname" : "Arial",
					"numoutlets" : 2,
					"interval" : 20.0,
					"patching_rect" : [ 66.0, 430.0, 76.0, 20.0 ],
					"outlettype" : [ "signal", "float" ],
					"mode" : 2
				}

			}
, 			{
				"box" : 				{
					"maxclass" : "bpatcher",
					"varname" : "zsa_seealso",
					"name" : "zsa.seealso.maxpat",
					"numinlets" : 0,
					"id" : "obj-14",
					"args" : [  ],
					"numoutlets" : 0,
					"patching_rect" : [ 602.0, 608.0, 141.0, 51.0 ]
				}

			}
, 			{
				"box" : 				{
					"maxclass" : "newobj",
					"text" : "*~",
					"fontsize" : 12.0,
					"numinlets" : 2,
					"id" : "obj-47",
					"fontname" : "Arial",
					"numoutlets" : 1,
					"patching_rect" : [ 506.0, 403.0, 32.5, 20.0 ],
					"outlettype" : [ "signal" ]
				}

			}
, 			{
				"box" : 				{
					"maxclass" : "toggle",
					"numinlets" : 1,
					"id" : "obj-44",
					"numoutlets" : 1,
					"patching_rect" : [ 540.0, 226.0, 20.0, 20.0 ],
					"outlettype" : [ "int" ]
				}

			}
, 			{
				"box" : 				{
					"maxclass" : "toggle",
					"numinlets" : 1,
					"id" : "obj-45",
					"numoutlets" : 1,
					"patching_rect" : [ 517.0, 226.0, 20.0, 20.0 ],
					"outlettype" : [ "int" ]
				}

			}
, 			{
				"box" : 				{
					"maxclass" : "message",
					"text" : "loop $1",
					"fontsize" : 12.0,
					"numinlets" : 2,
					"id" : "obj-48",
					"fontname" : "Arial",
					"numoutlets" : 1,
					"patching_rect" : [ 540.0, 251.0, 50.0, 18.0 ],
					"outlettype" : [ "" ]
				}

			}
, 			{
				"box" : 				{
					"maxclass" : "newobj",
					"text" : "sfplay~",
					"fontsize" : 12.0,
					"numinlets" : 2,
					"id" : "obj-49",
					"fontname" : "Arial",
					"numoutlets" : 2,
					"patching_rect" : [ 477.0, 277.0, 49.0, 20.0 ],
					"outlettype" : [ "signal", "bang" ],
					"save" : [ "#N", "sfplay~", "", 1, 120960, 0, "", ";" ]
				}

			}
, 			{
				"box" : 				{
					"maxclass" : "message",
					"text" : "open",
					"fontsize" : 12.0,
					"numinlets" : 2,
					"id" : "obj-50",
					"fontname" : "Arial",
					"numoutlets" : 1,
					"patching_rect" : [ 477.0, 226.0, 37.0, 18.0 ],
					"outlettype" : [ "" ]
				}

			}
, 			{
				"box" : 				{
					"maxclass" : "umenu",
					"fontsize" : 12.0,
					"items" : [ "(Source)", ",", "noise", ",", "sound", "file" ],
					"numinlets" : 1,
					"id" : "obj-43",
					"fontname" : "Arial",
					"numoutlets" : 3,
					"types" : [  ],
					"patching_rect" : [ 65.0, 244.0, 79.0, 20.0 ],
					"outlettype" : [ "int", "", "" ]
				}

			}
, 			{
				"box" : 				{
					"maxclass" : "newobj",
					"text" : "biquad~",
					"fontsize" : 12.0,
					"numinlets" : 6,
					"id" : "obj-36",
					"fontname" : "Arial",
					"numoutlets" : 1,
					"patching_rect" : [ 96.0, 319.0, 86.5, 20.0 ],
					"outlettype" : [ "signal" ]
				}

			}
, 			{
				"box" : 				{
					"maxclass" : "newobj",
					"text" : "noise~",
					"fontsize" : 12.0,
					"numinlets" : 1,
					"id" : "obj-68",
					"fontname" : "Arial",
					"numoutlets" : 1,
					"patching_rect" : [ 96.0, 283.0, 46.0, 20.0 ],
					"outlettype" : [ "signal" ]
				}

			}
, 			{
				"box" : 				{
					"maxclass" : "newobj",
					"text" : "selector~ 2 1",
					"fontsize" : 12.0,
					"numinlets" : 3,
					"id" : "obj-69",
					"fontname" : "Arial",
					"numoutlets" : 1,
					"patching_rect" : [ 65.0, 348.769226, 80.0, 20.0 ],
					"outlettype" : [ "signal" ]
				}

			}
, 			{
				"box" : 				{
					"maxclass" : "filtergraph~",
					"hbwidthcolor" : [ 0.85098, 0.533333, 0.254902, 1.0 ],
					"textcolor" : [ 0.93, 0.93, 0.97, 1.0 ],
					"fontsize" : 10.0,
					"hcurvecolor" : [ 0.85098, 0.533333, 0.254902, 1.0 ],
					"bwidthcolor" : [ 0.462745, 0.47451, 0.65098, 1.0 ],
					"numinlets" : 8,
					"domain" : [ 0.0, 22050.0 ],
					"id" : "obj-81",
					"fontname" : "Arial",
					"logfreq" : 0,
					"numoutlets" : 7,
					"fgcolor" : [ 0.533333, 0.65098, 0.286275, 1.0 ],
					"patching_rect" : [ 151.0, 208.0, 301.0, 103.0 ],
					"autoout" : 1,
					"outlettype" : [ "list", "float", "float", "float", "float", "list", "int" ],
					"bgcolor" : [ 0.184314, 0.254902, 0.34902, 1.0 ],
					"markercolor" : [ 0.509804, 0.509804, 0.509804, 1.0 ],
					"nfilters" : 1,
					"setfilter" : [ 0, 3, 0, 0, 0, 18387.208984, 1.0, 25.0, 0.0001, 22050.0, 0.0001, 16.0, 0.5, 25.0 ]
				}

			}
, 			{
				"box" : 				{
					"maxclass" : "comment",
					"varname" : "autohelp_dac_text",
					"text" : "start audio",
					"linecount" : 2,
					"textcolor" : [ 0.93, 0.93, 0.97, 1.0 ],
					"fontsize" : 11.595187,
					"numinlets" : 1,
					"id" : "obj-12",
					"fontname" : "Arial",
					"numoutlets" : 0,
					"patching_rect" : [ 465.0, 446.0, 38.0, 33.0 ],
					"frgb" : [ 0.93, 0.93, 0.97, 1.0 ]
				}

			}
, 			{
				"box" : 				{
					"maxclass" : "ezdac~",
					"varname" : "autohelp_dac",
					"local" : 1,
					"numinlets" : 2,
					"id" : "obj-38",
					"numoutlets" : 0,
					"patching_rect" : [ 506.0, 440.0, 45.0, 45.0 ]
				}

			}
, 			{
				"box" : 				{
					"maxclass" : "panel",
					"varname" : "startwinwdow_panel",
					"border" : 2,
					"numinlets" : 1,
					"id" : "obj-19",
					"bordercolor" : [ 0.85098, 0.533333, 0.254902, 1.0 ],
					"numoutlets" : 0,
					"patching_rect" : [ 458.0, 435.0, 100.0, 55.0 ],
					"bgcolor" : [ 0.184314, 0.254902, 0.34902, 1.0 ]
				}

			}
, 			{
				"box" : 				{
					"maxclass" : "newobj",
					"text" : "zsa.easy_kurtosis~ 1024 8",
					"fontsize" : 12.0,
					"numinlets" : 1,
					"id" : "obj-4",
					"fontname" : "Arial",
					"numoutlets" : 1,
					"patching_rect" : [ 65.0, 391.0, 155.0, 20.0 ],
					"outlettype" : [ "signal" ]
				}

			}
, 			{
				"box" : 				{
					"maxclass" : "comment",
					"varname" : "zsa_text",
					"text" : "The spectral kurtosis value \"k\" indicates  the peakedness/flatness shape of a spectral distribution [1]",
					"linecount" : 2,
					"textcolor" : [ 0.93, 0.93, 0.97, 1.0 ],
					"fontsize" : 11.0,
					"numinlets" : 1,
					"id" : "obj-8",
					"fontname" : "Arial",
					"numoutlets" : 0,
					"patching_rect" : [ 7.0, 63.0, 287.0, 32.0 ],
					"frgb" : [ 0.93, 0.93, 0.97, 1.0 ]
				}

			}
, 			{
				"box" : 				{
					"maxclass" : "comment",
					"varname" : "zsa_description",
					"text" : "Spectral kurtosis gives a measure of the flatness of a spectrum around its baricenter.",
					"textcolor" : [ 0.93, 0.93, 0.97, 1.0 ],
					"fontsize" : 12.754705,
					"numinlets" : 1,
					"id" : "obj-3",
					"fontname" : "Arial",
					"numoutlets" : 0,
					"patching_rect" : [ 7.0, 40.0, 486.0, 21.0 ],
					"frgb" : [ 0.93, 0.93, 0.97, 1.0 ]
				}

			}
, 			{
				"box" : 				{
					"maxclass" : "comment",
					"varname" : "zsa_title",
					"text" : "zsa.kurtosis~",
					"fontface" : 3,
					"textcolor" : [ 0.533333, 0.65098, 0.286275, 1.0 ],
					"fontsize" : 20.871338,
					"numinlets" : 1,
					"id" : "obj-7",
					"fontname" : "Arial",
					"numoutlets" : 0,
					"patching_rect" : [ 7.0, 9.0, 455.0, 30.0 ],
					"frgb" : [ 0.533333, 0.65098, 0.286275, 1.0 ]
				}

			}
, 			{
				"box" : 				{
					"maxclass" : "panel",
					"varname" : "autohelp_top_panel",
					"angle" : -88.349983,
					"grad1" : [ 0.184314, 0.254902, 0.34902, 1.0 ],
					"background" : 1,
					"numinlets" : 1,
					"grad2" : [ 0.27451, 0.368627, 0.45098, 1.0 ],
					"id" : "obj-37",
					"numoutlets" : 0,
					"patching_rect" : [ 7.0, 8.0, 473.0, 52.0 ],
					"mode" : 1,
					"bgcolor" : [ 0.184314, 0.254902, 0.34902, 1.0 ]
				}

			}
, 			{
				"box" : 				{
					"maxclass" : "flonum",
					"fontsize" : 12.0,
					"numinlets" : 1,
					"id" : "obj-51",
					"fontname" : "Arial",
					"numoutlets" : 2,
					"patching_rect" : [ 519.5, 373.0, 50.0, 20.0 ],
					"outlettype" : [ "float", "bang" ]
				}

			}
, 			{
				"box" : 				{
					"maxclass" : "multislider",
					"border_left" : 0,
					"border_bottom" : 0,
					"setstyle" : 3,
					"border_right" : 0,
					"numinlets" : 1,
					"id" : "obj-53",
					"bordercolor" : [ 0.85098, 0.533333, 0.254902, 1.0 ],
					"numoutlets" : 2,
					"slidercolor" : [ 0.85098, 0.533333, 0.254902, 1.0 ],
					"patching_rect" : [ 66.0, 511.0, 300.0, 100.0 ],
					"setminmax" : [ 0.0, 500.0 ],
					"border_top" : 0,
					"outlettype" : [ "", "" ],
					"bgcolor" : [ 0.184314, 0.254902, 0.34902, 1.0 ]
				}

			}
, 			{
				"box" : 				{
					"maxclass" : "message",
					"text" : "setmax $1",
					"fontsize" : 12.0,
					"numinlets" : 2,
					"id" : "obj-15",
					"fontname" : "Arial",
					"numoutlets" : 1,
					"patching_rect" : [ 214.0, 483.0, 64.0, 18.0 ],
					"outlettype" : [ "" ]
				}

			}
 ],
		"lines" : [ 			{
				"patchline" : 				{
					"source" : [ "obj-31", 0 ],
					"destination" : [ "obj-17", 0 ],
					"hidden" : 1,
					"midpoints" : [ 161.5, 193.0, 137.0, 193.0, 137.0, 241.0, 146.0, 241.0, 146.0, 316.0, 194.0, 316.0, 194.0, 376.0, 223.5, 376.0 ]
				}

			}
, 			{
				"patchline" : 				{
					"source" : [ "obj-17", 0 ],
					"destination" : [ "obj-15", 0 ],
					"hidden" : 0,
					"midpoints" : [  ]
				}

			}
, 			{
				"patchline" : 				{
					"source" : [ "obj-15", 0 ],
					"destination" : [ "obj-53", 0 ],
					"hidden" : 0,
					"midpoints" : [  ]
				}

			}
, 			{
				"patchline" : 				{
					"source" : [ "obj-39", 0 ],
					"destination" : [ "obj-53", 0 ],
					"hidden" : 0,
					"midpoints" : [ 75.5, 497.5, 75.5, 497.5 ]
				}

			}
, 			{
				"patchline" : 				{
					"source" : [ "obj-5", 1 ],
					"destination" : [ "obj-39", 0 ],
					"hidden" : 0,
					"midpoints" : [  ]
				}

			}
, 			{
				"patchline" : 				{
					"source" : [ "obj-31", 0 ],
					"destination" : [ "obj-1", 0 ],
					"hidden" : 1,
					"midpoints" : [  ]
				}

			}
, 			{
				"patchline" : 				{
					"source" : [ "obj-1", 1 ],
					"destination" : [ "obj-81", 0 ],
					"hidden" : 1,
					"midpoints" : [  ]
				}

			}
, 			{
				"patchline" : 				{
					"source" : [ "obj-31", 0 ],
					"destination" : [ "obj-43", 0 ],
					"hidden" : 1,
					"midpoints" : [  ]
				}

			}
, 			{
				"patchline" : 				{
					"source" : [ "obj-31", 0 ],
					"destination" : [ "obj-81", 0 ],
					"hidden" : 1,
					"midpoints" : [  ]
				}

			}
, 			{
				"patchline" : 				{
					"source" : [ "obj-69", 0 ],
					"destination" : [ "obj-4", 0 ],
					"hidden" : 0,
					"midpoints" : [  ]
				}

			}
, 			{
				"patchline" : 				{
					"source" : [ "obj-4", 0 ],
					"destination" : [ "obj-5", 0 ],
					"hidden" : 0,
					"midpoints" : [  ]
				}

			}
, 			{
				"patchline" : 				{
					"source" : [ "obj-48", 0 ],
					"destination" : [ "obj-49", 0 ],
					"hidden" : 0,
					"midpoints" : [ 549.5, 273.0, 486.5, 273.0 ]
				}

			}
, 			{
				"patchline" : 				{
					"source" : [ "obj-44", 0 ],
					"destination" : [ "obj-48", 0 ],
					"hidden" : 0,
					"midpoints" : [  ]
				}

			}
, 			{
				"patchline" : 				{
					"source" : [ "obj-45", 0 ],
					"destination" : [ "obj-49", 0 ],
					"hidden" : 0,
					"midpoints" : [ 526.5, 257.0, 486.5, 257.0 ]
				}

			}
, 			{
				"patchline" : 				{
					"source" : [ "obj-50", 0 ],
					"destination" : [ "obj-49", 0 ],
					"hidden" : 0,
					"midpoints" : [  ]
				}

			}
, 			{
				"patchline" : 				{
					"source" : [ "obj-81", 0 ],
					"destination" : [ "obj-36", 1 ],
					"hidden" : 0,
					"midpoints" : [  ]
				}

			}
, 			{
				"patchline" : 				{
					"source" : [ "obj-68", 0 ],
					"destination" : [ "obj-36", 0 ],
					"hidden" : 0,
					"midpoints" : [  ]
				}

			}
, 			{
				"patchline" : 				{
					"source" : [ "obj-36", 0 ],
					"destination" : [ "obj-69", 1 ],
					"hidden" : 0,
					"midpoints" : [  ]
				}

			}
, 			{
				"patchline" : 				{
					"source" : [ "obj-43", 0 ],
					"destination" : [ "obj-69", 0 ],
					"hidden" : 0,
					"midpoints" : [  ]
				}

			}
, 			{
				"patchline" : 				{
					"source" : [ "obj-49", 0 ],
					"destination" : [ "obj-69", 2 ],
					"hidden" : 0,
					"midpoints" : [ 486.5, 344.0, 137.0, 344.0, 137.0, 344.0, 135.5, 344.0 ]
				}

			}
, 			{
				"patchline" : 				{
					"source" : [ "obj-47", 0 ],
					"destination" : [ "obj-38", 1 ],
					"hidden" : 0,
					"midpoints" : [ 515.5, 427.0, 541.5, 427.0 ]
				}

			}
, 			{
				"patchline" : 				{
					"source" : [ "obj-47", 0 ],
					"destination" : [ "obj-38", 0 ],
					"hidden" : 0,
					"midpoints" : [ 515.5, 424.0, 515.5, 424.0 ]
				}

			}
, 			{
				"patchline" : 				{
					"source" : [ "obj-51", 0 ],
					"destination" : [ "obj-47", 1 ],
					"hidden" : 0,
					"midpoints" : [  ]
				}

			}
, 			{
				"patchline" : 				{
					"source" : [ "obj-69", 0 ],
					"destination" : [ "obj-47", 0 ],
					"hidden" : 0,
					"midpoints" : [ 74.5, 367.0, 74.5, 379.0, 515.5, 379.0 ]
				}

			}
 ]
	}

}
