{
	"patcher" : 	{
		"fileversion" : 1,
		"appversion" : 		{
			"major" : 5,
			"minor" : 1,
			"revision" : 9
		}
,
		"rect" : [ 1008.0, 515.0, 392.0, 456.0 ],
		"bglocked" : 0,
		"defrect" : [ 1008.0, 515.0, 392.0, 456.0 ],
		"openrect" : [ 0.0, 0.0, 0.0, 0.0 ],
		"openinpresentation" : 1,
		"default_fontsize" : 12.0,
		"default_fontface" : 0,
		"default_fontname" : "Arial",
		"gridonopen" : 0,
		"gridsize" : [ 15.0, 15.0 ],
		"gridsnaponopen" : 0,
		"toolbarvisible" : 0,
		"boxanimatetime" : 200,
		"imprint" : 0,
		"enablehscroll" : 0,
		"enablevscroll" : 0,
		"devicewidth" : 0.0,
		"boxes" : [ 			{
				"box" : 				{
					"comment" : "",
					"id" : "obj-3",
					"maxclass" : "outlet",
					"numinlets" : 1,
					"numoutlets" : 0,
					"patching_rect" : [ 67.0, 256.0, 25.0, 25.0 ]
				}

			}
, 			{
				"box" : 				{
					"comment" : "",
					"id" : "obj-2",
					"maxclass" : "outlet",
					"numinlets" : 1,
					"numoutlets" : 0,
					"patching_rect" : [ 253.0, 256.0, 25.0, 25.0 ]
				}

			}
, 			{
				"box" : 				{
					"comment" : "",
					"id" : "obj-1",
					"maxclass" : "inlet",
					"numinlets" : 0,
					"numoutlets" : 1,
					"outlettype" : [ "" ],
					"patching_rect" : [ 61.0, 56.0, 25.0, 25.0 ]
				}

			}
, 			{
				"box" : 				{
					"bgcolor" : [ 0.290196, 0.611765, 0.380392, 0.0 ],
					"bordercolor" : [ 0.145098, 0.07451, 0.376471, 0.301961 ],
					"id" : "obj-53",
					"knobcolor" : [ 0.623529, 0.313726, 0.0, 1.0 ],
					"maxclass" : "gain~",
					"numinlets" : 2,
					"numoutlets" : 2,
					"orientation" : 2,
					"outlettype" : [ "signal", "int" ],
					"patching_rect" : [ 244.0, 69.0, 17.0, 155.0 ],
					"presentation" : 1,
					"presentation_rect" : [ 0.575, -0.425, 11.599999, 166.449997 ],
					"stripecolor" : [ 0.666667, 0.666667, 0.666667, 0.113725 ]
				}

			}
, 			{
				"box" : 				{
					"bgcolor" : [ 0.0, 0.0, 0.0, 0.094118 ],
					"bordercolor" : [ 0.2, 0.2, 0.2, 0.0 ],
					"coldcolor" : [ 0.384314, 0.0, 0.705882, 1.0 ],
					"dbperled" : 2,
					"hotcolor" : [ 0.996078, 0.690196, 0.164706, 1.0 ],
					"id" : "obj-19",
					"maxclass" : "meter~",
					"ntepidleds" : 5,
					"numinlets" : 1,
					"numleds" : 20,
					"numoutlets" : 1,
					"nwarmleds" : 4,
					"outlettype" : [ "float" ],
					"overloadcolor" : [ 0.996078, 0.0, 0.0, 1.0 ],
					"patching_rect" : [ 1.0, 6.0, 16.0, 140.0 ],
					"presentation" : 1,
					"presentation_rect" : [ 0.0, -1.0, 12.0, 167.350006 ],
					"tepidcolor" : [ 0.0, 0.584314, 0.470588, 1.0 ],
					"warmcolor" : [ 0.768627, 0.835294, 0.0, 1.0 ]
				}

			}
 ],
		"lines" : [ 			{
				"patchline" : 				{
					"destination" : [ "obj-53", 0 ],
					"hidden" : 0,
					"midpoints" : [  ],
					"source" : [ "obj-1", 0 ]
				}

			}
, 			{
				"patchline" : 				{
					"destination" : [ "obj-19", 0 ],
					"hidden" : 1,
					"midpoints" : [  ],
					"source" : [ "obj-53", 0 ]
				}

			}
, 			{
				"patchline" : 				{
					"destination" : [ "obj-2", 0 ],
					"hidden" : 0,
					"midpoints" : [  ],
					"source" : [ "obj-53", 0 ]
				}

			}
, 			{
				"patchline" : 				{
					"destination" : [ "obj-3", 0 ],
					"hidden" : 0,
					"midpoints" : [  ],
					"source" : [ "obj-53", 1 ]
				}

			}
 ]
	}

}
