max v2;#N vpatcher 279 147 1128 867;#P origin 0 15;#P comment 30 25 213 196626 cracktest_0108;#P comment 245 25 143 196617 Yoichiro Serita © 2003 Topological Media Lab;#P comment 409 281 28 196617 up;#P message 404 298 41 196617 41 500;#B color 9;#P message 366 298 35 196617 0 500;#B color 9;#P newex 366 325 48 196617 line 1 20;#P flonum 366 467 47 9 0 0 0 3 0 0 0 156 179 255 222 222 222 0 0 0;#P newex 366 441 45 196617 * 0.001;#P user uslider 366 373 26 46 41 1 0 0;#P message 234 150 14 196617 5;#P newex 408 118 115 196617 if $i3 == 1 then $i1 $i2;#P message 253 150 26 196617 100;#P newex 206 615 65 196617 jit.op @op +;#P newex 408 164 32 196617 s np1;#B color 12;#P newex 408 70 61 196617 r mouseinfo;#B color 12;#P message 408 141 35 196617 \$1 \$2;#P newex 408 93 63 196617 route mouse;#P newex 234 127 45 196617 loadbang;#P newex 22 254 40 196617 t b b l;#P message 115 313 65 196617 offset \$1 \$2;#P newex 52 338 78 196617 jit.fill crack1 0;#P newex 39 122 64 196617 pack 0 0 0 0;#P newex 22 230 27 196617 gate;#P newex 52 292 73 196617 linecrack0108;#P newex 22 368 161 196617 jit.matrix crack1 1 char 320 240;#P message 217 150 14 196617 0;#P number 217 171 35 9 0 0 0 3 0 0 0 221 221 221 222 222 222 0 0 0;#P newex 107 194 120 196617 if $i1 > $i2 then 1 else 0;#P number 107 169 65 9 0 0 0 3 0 0 0 221 221 221 222 222 222 0 0 0;#P newex 75 82 42 196617 t l l;#P newex 75 59 32 196617 r np1;#B color 12;#P newex 107 121 28 196617 Lsub;#P newex 107 144 42 196617 L2norm;#P message 52 519 27 196617 max;#P newex 22 543 55 196617 prepend op;#P message 22 519 28 196617 pass;#P newex 22 496 71 196617 sel 0 1;#P newex 299 488 27 196617 gate;#P newex 101 534 53 196617 jit.matrix;#P newex 101 712 48 196617 s display;#P newex 427 352 48 196617 r display;#P newex 316 459 27 196617 b;#P newex 737 625 61 196617 s mouseinfo;#P newex 101 684 88 196617 jit.matrix heated;#P newex 206 521 162 196617 jit.matrix heated 1 char 320 240;#P newex 261 586 115 196617 jit.op @op * @val 0.04;#P newex 101 649 115 196617 jit.op @op max;#P number 250 464 35 9 0 0 0 3 0 0 0 156 179 255 222 222 222 0 0 0;#P toggle 206 413 28 0;#P newex 206 487 54 1441802 metro 20;#P newex 206 559 55 196617 heat_0106;#P user jit.pwindow 426 377 322 242 0 1 0 0 1 0;#P comment 144 420 59 196617 heat on/off;#P comment 367 281 28 196617 down;#P fasten 26 0 31 0 112 219 27 219;#P connect 31 0 35 0;#P connect 35 0 29 0;#P fasten 5 0 17 0 211 447 27 447;#P connect 17 0 18 0;#P connect 18 0 19 0;#P fasten 20 0 19 0 57 537 27 537;#P connect 24 1 32 0;#P connect 32 0 31 1;#P fasten 35 1 30 0 42 282 57 282;#P connect 35 2 30 0;#P fasten 34 0 33 0 120 332 57 332;#P connect 30 0 33 0;#P connect 17 1 20 0;#P connect 23 0 24 0;#P connect 24 0 32 2;#P fasten 29 0 15 0 27 393 106 393;#P fasten 4 0 15 0 211 510 106 510;#P connect 15 0 7 0;#P fasten 19 0 7 0 27 633 106 633;#P connect 7 0 10 0;#P connect 10 0 14 0;#P connect 24 1 22 0;#P connect 22 0 21 0;#P connect 21 0 25 0;#P connect 25 0 26 0;#P connect 30 1 34 0;#P connect 24 0 22 1;#P connect 5 0 4 0;#P fasten 16 0 9 0 304 515 211 515;#P connect 4 0 9 0;#P connect 9 0 3 0;#P connect 3 0 41 0;#P connect 41 0 7 1;#P connect 42 0 27 0;#P connect 28 0 27 0;#P connect 44 0 27 0;#P connect 27 0 26 1;#P connect 36 0 44 0;#P connect 6 0 4 1;#P fasten 9 0 8 0 211 543 266 543;#P connect 8 0 41 1;#P fasten 5 0 16 0 211 449 304 449;#P fasten 29 0 12 0 27 393 321 393;#P connect 12 0 16 1;#P connect 49 0 48 0;#P fasten 50 0 48 0 409 317 371 317;#P connect 48 0 45 0;#P connect 45 0 46 0;#P connect 46 0 47 0;#P connect 47 0 8 1;#P connect 39 0 37 0;#P connect 37 0 43 0;#P connect 43 0 38 0;#P connect 38 0 40 0;#P connect 13 0 2 0;#P connect 2 1 11 0;#P pop;