max v2;#N vpatcher 80 56 1222 776;#P origin 0 12;#P comment 23 18 213 196626 crack_0116;#P comment 238 18 143 196617 Yoichiro Serita © 2003 Topological Media Lab;#P newex 567 133 30 196617 print;#P user jit.pwindow 934 423 82 62 0 1 0 0 1 0;#P newex 935 394 75 196617 jit.op @op max;#P user jit.pwindow 999 297 82 62 0 1 0 0 1 0;#P newex 1000 221 26 1441802 t b;#P newex 1000 249 79 1441802 jit.pack 4;#P newex 1000 193 102 1441802 jit.unpack 4;#P newex 1000 271 112 1441802 jit.alphablend;#B color 5;#P user jit.pwindow 1029 119 82 62 0 1 0 0 1 0;#P message 1060 26 113 1441802 read excavate3.mov;#P message 1065 69 32 1441802 stop;#P message 1063 48 32 1441802 read;#P toggle 1000 27 15 0;#P newex 1000 49 53 1441802 metro 50;#P button 1000 70 15 0;#P newex 1000 95 103 196617 jit.qt.movie 320 240;#P user jit.pwindow 644 512 82 62 0 1 0 0 1 0;#P newex 645 435 26 1441802 t b;#P newex 645 463 79 1441802 jit.pack 4;#P newex 645 407 102 1441802 jit.unpack 4;#P newex 645 485 112 1441802 jit.alphablend;#B color 5;#P user jit.pwindow 644 318 82 62 0 1 0 0 1 0;#P user jit.pwindow 907 172 82 62 0 1 0 0 1 0;#P newex 837 470 63 196617 jit.op @op *;#P user jit.pwindow 836 497 82 62 0 1 0 0 1 0;#P flonum 1157 611 47 9 0 0 0 3 0 0 0 156 179 255 222 222 222 0 0 0;#P newex 1157 585 45 196617 * 0.001;#P user uslider 1157 517 26 46 41 1 0 0;#P newex 997 759 65 196617 jit.op @op +;#P message 843 663 27 196617 max;#P newex 813 687 55 196617 prepend op;#P message 813 663 28 196617 pass;#P newex 813 640 71 196617 sel 0 1;#P newex 1090 632 27 196617 gate;#P newex 892 678 53 196617 jit.matrix;#P newex 1107 603 27 196617 b;#P newex 892 833 91 196617 jit.matrix heated2;#P newex 997 665 165 196617 jit.matrix heated2 1 char 320 240;#P newex 1052 730 115 196617 jit.op @op * @val 0.04;#P newex 892 793 115 196617 jit.op @op max;#P number 1041 608 35 9 0 0 0 3 0 0 0 156 179 255 222 222 222 0 0 0;#P toggle 997 557 28 0;#P newex 997 631 54 1441802 metro 20;#P newex 997 703 55 196617 heat_0106;#P user jit.pwindow 794 317 82 62 0 1 0 0 1 0;#P newex 795 289 110 196617 jit.op @op !- @val 255;#P newex 614 874 61 196617 s mouseinfo;#B color 12;#P message 501 127 20 196617 \$8;#P newex 501 147 27 196617 + 1;#P message 491 71 20 196617 \$3;#P newex 464 94 27 196617 gate;#P newex 481 22 61 196617 r mouseinfo;#B color 12;#P newex 431 233 32 196617 s np1;#B color 12;#P newex 464 233 32 196617 s np2;#B color 12;#P newex 431 208 43 196617 gate 2;#P number 431 185 35 9 0 0 0 3 0 0 0 221 221 221 222 222 222 0 0 0;#P message 464 127 35 196617 \$1 \$2;#P newex 481 45 63 196617 route mouse;#P newex 645 245 26 1441802 t b;#P newex 645 273 79 1441802 jit.pack 4;#P newex 645 217 102 1441802 jit.unpack 4;#P newex 645 295 112 1441802 jit.alphablend;#B color 5;#P user jit.pwindow 549 199 82 62 0 1 0 0 1 0;#P user jit.pwindow 674 150 82 62 0 1 0 0 1 0;#P message 705 60 110 1441802 read excavate.mov;#P message 710 103 32 1441802 stop;#P message 745 103 38 1441802 start;#P message 708 82 32 1441802 read;#P toggle 645 61 15 0;#P newex 645 83 53 1441802 metro 50;#P button 645 104 15 0;#P newex 645 129 103 196617 jit.qt.movie 320 240;#P comment 416 276 28 196617 up;#P message 411 293 41 196617 41 500;#B color 9;#P message 373 293 35 196617 0 500;#B color 9;#P newex 373 320 48 196617 line 1 20;#P flonum 373 462 47 9 0 0 0 3 0 0 0 156 179 255 222 222 222 0 0 0;#P newex 373 436 45 196617 * 0.001;#P user uslider 373 368 26 46 41 1 0 0;#P message 241 145 14 196617 5;#P message 260 145 26 196617 100;#P newex 213 610 65 196617 jit.op @op +;#P newex 241 122 45 196617 loadbang;#P newex 29 249 40 196617 t b b l;#P message 122 308 65 196617 offset \$1 \$2;#P newex 59 333 78 196617 jit.fill crack1 0;#P newex 46 117 64 196617 pack 0 0 0 0;#P newex 29 225 27 196617 gate;#P newex 59 287 73 196617 linecrack0108;#P newex 29 363 161 196617 jit.matrix crack1 1 char 320 240;#P message 224 145 14 196617 0;#P number 224 166 35 9 0 0 0 3 0 0 0 221 221 221 222 222 222 0 0 0;#P newex 114 189 120 196617 if $i1 > $i2 then 1 else 0;#P number 114 164 65 9 0 0 0 3 0 0 0 221 221 221 222 222 222 0 0 0;#P newex 82 77 42 196617 t l l;#P newex 82 54 32 196617 r np1;#B color 12;#P newex 114 116 28 196617 Lsub;#P newex 114 139 42 196617 L2norm;#P message 59 514 27 196617 max;#P newex 29 538 55 196617 prepend op;#P message 29 514 28 196617 pass;#P newex 29 491 71 196617 sel 0 1;#P newex 306 483 27 196617 gate;#P newex 108 529 53 196617 jit.matrix;#P newex 323 454 27 196617 b;#P newex 108 679 88 196617 jit.matrix heated;#P newex 213 516 162 196617 jit.matrix heated 1 char 320 240;#P newex 268 581 115 196617 jit.op @op * @val 0.04;#P newex 108 644 115 196617 jit.op @op max;#P number 257 459 35 9 0 0 0 3 0 0 0 156 179 255 222 222 222 0 0 0;#P toggle 213 408 28 0;#P newex 213 482 54 1441802 metro 20;#P newex 213 554 55 196617 heat_0106;#P user jit.pwindow 411 611 322 242 0 1 0 0 1 0;#P comment 151 415 59 196617 heat on/off;#P comment 374 276 28 196617 down;#P fasten 23 0 28 0 119 214 34 214;#P connect 28 0 32 0;#P connect 32 0 26 0;#P fasten 5 0 14 0 218 442 34 442;#P connect 14 0 15 0;#P connect 15 0 16 0;#P fasten 17 0 16 0 64 532 34 532;#P connect 21 1 29 0;#P connect 29 0 28 1;#P fasten 32 1 27 0 49 277 64 277;#P connect 32 2 27 0;#P fasten 31 0 30 0 127 327 64 327;#P connect 27 0 30 0;#P connect 14 1 17 0;#P connect 20 0 21 0;#P connect 21 0 29 2;#P fasten 26 0 12 0 34 388 113 388;#P fasten 4 0 12 0 218 505 113 505;#P connect 12 0 7 0;#P fasten 16 0 7 0 34 628 113 628;#P connect 7 0 10 0;#P connect 21 1 19 0;#P connect 19 0 18 0;#P connect 18 0 22 0;#P connect 22 0 23 0;#P connect 27 1 31 0;#P connect 21 0 19 1;#P connect 5 0 4 0;#P fasten 13 0 9 0 311 510 218 510;#P connect 4 0 9 0;#P connect 9 0 3 0;#P connect 3 0 34 0;#P connect 34 0 7 1;#P connect 35 0 24 0;#P connect 25 0 24 0;#P connect 36 0 24 0;#P connect 24 0 23 1;#P connect 33 0 36 0;#P connect 6 0 4 1;#P fasten 9 0 8 0 218 538 273 538;#P connect 8 0 34 1;#P fasten 5 0 13 0 218 444 311 444;#P fasten 26 0 11 0 34 388 328 388;#P connect 11 0 13 1;#P connect 41 0 40 0;#P fasten 42 0 40 0 416 312 378 312;#P connect 40 0 37 0;#P connect 37 0 38 0;#P connect 38 0 39 0;#P connect 39 0 8 1;#P connect 114 0 2 0;#P fasten 67 0 60 0 506 176 436 176;#P connect 60 0 61 0;#P connect 61 0 63 0;#P connect 66 0 65 0;#P connect 65 0 59 0;#P connect 59 0 61 1;#P connect 61 1 62 0;#P connect 64 0 58 0;#P connect 58 0 65 1;#P connect 58 0 66 0;#P connect 65 0 68 0;#P connect 68 0 67 0;#P connect 10 0 53 0;#P connect 2 1 69 0;#P connect 47 0 46 0;#P connect 46 0 45 0;#P connect 51 0 44 0;#P connect 48 0 44 0;#P connect 49 0 44 0;#P connect 50 0 44 0;#P connect 45 0 44 0;#P connect 44 0 55 0;#P connect 55 0 57 0;#P connect 57 0 56 0;#P fasten 53 0 56 0 555 267 650 267;#P connect 56 0 54 0;#P connect 54 0 94 0;#P connect 94 0 96 0;#P connect 96 0 98 0;#P connect 98 0 97 0;#P connect 71 0 97 0;#P connect 97 0 95 0;#P connect 95 0 99 0;#P connect 55 1 56 1;#P connect 96 1 97 1;#P connect 44 0 52 0;#P connect 55 2 56 2;#P connect 96 2 97 2;#P connect 55 3 56 3;#P connect 96 3 97 3;#P fasten 55 0 54 1 650 242 752 242;#P fasten 96 0 95 1 650 432 752 432;#P connect 93 0 70 0;#P connect 70 0 71 0;#P fasten 74 0 83 0 1002 591 818 591;#P connect 83 0 84 0;#P fasten 86 0 85 0 848 681 818 681;#P connect 84 0 85 0;#P connect 26 0 92 0;#P connect 92 0 91 0;#P connect 83 1 86 0;#P connect 10 0 92 1;#P fasten 91 0 81 0 842 574 897 574;#P fasten 73 0 81 0 1002 654 897 654;#P fasten 85 0 76 0 818 777 897 777;#P connect 81 0 76 0;#P connect 76 0 79 0;#P connect 79 0 93 0;#P connect 99 0 113 0;#P connect 113 0 114 0;#P connect 74 0 73 0;#P connect 73 0 78 0;#P fasten 82 0 78 0 1095 659 1002 659;#P connect 78 0 72 0;#P connect 72 0 87 0;#P connect 87 0 76 1;#P connect 103 0 102 0;#P connect 102 0 101 0;#P connect 101 0 100 0;#P connect 105 0 100 0;#P connect 104 0 100 0;#P connect 106 0 100 0;#P connect 100 0 109 0;#P connect 109 0 111 0;#P connect 93 0 110 0;#P connect 111 0 110 0;#P connect 110 0 108 0;#P connect 108 0 112 0;#P connect 112 0 113 1;#P connect 109 1 110 1;#P connect 100 0 107 0;#P connect 75 0 73 1;#P connect 109 2 110 2;#P fasten 78 0 77 0 1002 687 1057 687;#P connect 77 0 87 1;#P connect 109 3 110 3;#P fasten 74 0 82 0 1002 593 1095 593;#P fasten 109 0 108 1 1005 218 1107 218;#P fasten 91 0 80 0 842 573 1112 573;#P connect 80 0 82 1;#P connect 88 0 89 0;#P connect 89 0 90 0;#P connect 90 0 77 1;#P pop;