max v2;#N vpatcher 40 55 534 437;#P comment 304 196 63 196617 bottom-right;#P outlet 322 176 15 0;#P outlet 304 176 15 0;#P outlet 66 171 15 0;#P outlet 49 171 15 0;#P inlet 207 31 15 0;#P comment 228 33 56 196617 y-position;#P inlet 90 32 15 0;#P inlet 329 31 15 0;#P newex 246 120 85 196617 expr $i1 + $i2/2;#P newex 98 122 85 196617 expr $i1 + $i2/2;#P newex 212 98 85 196617 expr $i1 - $i2/2;#P newex 49 101 85 196617 expr $i1 - $i2/2;#P comment 349 33 79 196617 receive pensize;#P comment 109 32 56 196617 x-position;#P comment 49 192 48 196617 top-left;#P fasten 8 0 3 0 95 58 54 58;#P connect 3 0 11 0;#P fasten 4 0 12 0 217 157 71 157;#P fasten 8 0 5 0 95 83 103 83;#P fasten 7 0 3 1 334 71 129 71;#P fasten 7 0 5 1 334 71 178 71;#P fasten 10 0 4 0 212 56 217 56;#P fasten 10 0 6 0 212 56 251 56;#P fasten 7 0 4 1 334 71 292 71;#P fasten 5 0 13 0 103 148 309 148;#P fasten 7 0 6 1 334 71 326 71;#P fasten 6 0 14 0 251 143 327 143;#P pop;