max v2;#N vpatcher 19 78 728 701;#P message 186 58 83 196617 dim.set 640 480;#P message 100 59 83 196617 dim.set 320 240;#P user 242.ekran04 31 89 640 480 1;#P newex 31 58 60 196617 r testImage;#P connect 0 0 1 0;#P fasten 2 0 1 0 105 78 36 78;#P fasten 3 0 1 0 191 83 36 83;#P pop;