max v2;#N vpatcher 85 218 551 592;#P message 54 302 14 196617 3;#P message 35 297 14 196617 1;#P message 18 293 14 196617 0;#P user hslider 3 239 18 128 128 1 0 0;#P user hslider 5 199 18 128 128 1 0 0;#P message 2 261 80 196617 ywavelength \$1;#P message 5 220 80 196617 xwavelength \$1;#P user hslider 156 245 18 128 128 1 0 0;#P user hslider 157 205 18 128 128 1 0 0;#P message 156 267 72 196617 yamplitude \$1;#P message 157 226 72 196617 xamplitude \$1;#P newex 108 290 44 196617 242.dna;#P newex 109 324 60 196617 s testImage;#P message 549 298 31 196617 close;#P message 552 279 31 196617 open;#P toggle 461 224 15 0;#P newex 412 188 27 196617 t b i;#P number 431 163 35 9 0 0 0 3 0 0 0 221 221 221 222 222 222 0 0 0;#P number 388 144 35 9 0 0 0 3 0 0 0 221 221 221 222 222 222 0 0 0;#P newex 384 229 45 196617 pack 0 0;#P message 384 250 85 196617 coords.set \$1 \$2;#P newex 226 182 30 196617 print;#P newex 226 159 41 196617 route 1;#P message 239 94 45 196617 time.get;#P newex 462 282 65 196617 242.ekran07;#P user 242.ekran04 128 136 65 50 1;#P message 215 67 27 196617 stop;#P message 182 67 31 196617 start;#P message 139 67 41 196617 dispose;#P message 109 67 28 196617 read;#P newex 117 103 92 196617 242.film;#P connect 27 0 25 0;#P connect 26 0 24 0;#P connect 0 0 19 0;#P connect 25 0 19 0;#P connect 24 0 19 0;#P connect 21 0 19 0;#P connect 20 0 19 0;#P connect 30 0 19 0;#P connect 29 0 19 0;#P connect 28 0 19 0;#P connect 19 0 18 0;#P connect 1 0 0 0;#P connect 2 0 0 0;#P connect 3 0 0 0;#P connect 4 0 0 0;#P connect 7 0 0 0;#P connect 0 0 5 0;#P connect 23 0 21 0;#P connect 22 0 20 0;#P connect 0 1 8 0;#P connect 8 0 9 0;#P connect 12 0 11 0;#P fasten 14 0 11 0 417 216 389 216;#P connect 11 0 10 0;#P fasten 13 0 14 0 436 182 417 182;#P fasten 14 1 11 1 434 221 424 221;#P connect 10 0 6 0;#P connect 15 0 6 0;#P connect 17 0 6 0;#P connect 16 0 6 0;#P pop;