max v2;#N vpatcher 29 41 944 767;#P origin 0 547;#P newex 370 489 49 196617 r pentest;#P newex 216 482 49 196617 r pentest;#P newex 44 413 49 196617 s pentest;#P newex 295 511 82 196617 expr $i1- $i2/2;#P newex 141 503 85 196617 expr $i1 - $i2/2;#P message 409 74 65 196617 copymode 32;#P user hslider 567 45 18 128 256 256 0 0;#P message 567 71 95 196617 opcolor \$1 \$1 \$1 1;#P user hslider 568 138 18 128 256 256 0 0;#P user hslider 567 92 18 128 256 256 0 0;#P message 568 161 95 196617 opcolor \$1 \$1 \$1 3;#P message 567 118 95 196617 opcolor \$1 \$1 \$1 2;#P user 242.ekran04 705 -48 65 50 1;#P message 678 -161 27 196617 stop;#P newex 809 -151 45 196617 pack 0 0;#P newex 845 -174 27 196617 t b i;#P number 845 -192 35 9 0 0 0 3 0 0 0 221 221 221 222 222 222 0 0 0;#P number 809 -192 35 9 0 0 0 3 0 0 0 221 221 221 222 222 222 0 0 0;#P message 764 -119 41 196617 dispose;#P message 809 -119 55 196617 rate \$1 \$2;#P message 693 -119 33 196617 pause;#P message 731 -119 31 196617 start;#P message 653 -119 35 196617 read 1;#P newex 653 -86 92 196617 242.film;#B color 6;#P button 467 -298 15 0;#P message 555 -235 27 196617 stop;#P message 330 -235 27 196617 stop;#P newex 459 -216 45 196617 pack 0 0;#P newex 495 -239 27 196617 t b i;#P number 495 -257 35 9 0 0 0 3 0 0 0 221 221 221 222 222 222 0 0 0;#P number 459 -257 35 9 0 0 0 3 0 0 0 221 221 221 222 222 222 0 0 0;#P newex 686 -225 45 196617 pack 0 0;#P newex 722 -248 27 196617 t b i;#P number 722 -266 35 9 0 0 0 3 0 0 0 221 221 221 222 222 222 0 0 0;#P number 686 -266 35 9 0 0 0 3 0 0 0 221 221 221 222 222 222 0 0 0;#P message 641 -193 41 196617 dispose;#P message 686 -193 55 196617 rate \$1 \$2;#P message 459 -193 55 196617 rate \$1 \$2;#P message 646 -39 41 196617 dispose;#P message 415 -193 41 196617 dispose;#P comment 59 909 272 196617 ©Trond Lossius/Bergen senter for elektronisk kunst 2001;#P comment 44 953 272 196617 ©Trond Lossius/Bergen senter for elektronisk kunst 2001;#P newex 66 92 45 196617 loadbang;#P user umenu 65 -129 100 196645 1 32 -113 0;#X add red;#X add green;#X add blue;#X add brightness;#X add value;#X add lightness;#X add luminance;#P message 65 -109 61 196617 varianta \$1;#P newex 174 -36 139 196617 242.channel3;#P user 242.ekran04 314 -135 65 50 1;#P message 343 -193 33 196617 pause;#P message 381 -193 31 196617 start;#P message 303 -193 35 196617 read 1;#P newex 303 -160 92 196617 242.film;#B color 6;#P newex 174 -76 88 196617 242.tl.alpha.make;#P message 66 112 82 196617 copymode 256 1;#P user 242.ekran04 305 30 65 50 1;#P user 242.ekran04 175 161 302 231 1;#P newex 174 137 75 196617 242.collage3 3;#P user 242.ekran04 541 -135 65 50 1;#P message 570 -193 33 196617 pause;#P message 608 -193 31 196617 start;#P message 530 -193 35 196617 read 1;#P newex 530 -160 92 196617 242.film;#B color 6;#P newex 209 9 85 196617 242.tl.alpha.view;#P user 242.ekran04 209 30 65 50 1;#P comment 319 -45 200 196617 NOTE: I recently made a new object named "242.tl.alpha.combine" to do this specific task in a slightly more efficient way.;#P newex 435 -328 52 196617 heatguage;#P button 15 -474 15 0;#P newex 174 585 45 196617 pack 0 0;#P newex 174 613 44 196617 s mouse;#P number 52 -391 35 9 0 0 0 3 0 0 0 221 221 221 222 222 222 0 0 0;#P number 11 -390 35 9 0 0 0 3 0 0 0 221 221 221 222 222 222 0 0 0;#P newex 9 -419 38 196617 unpack;#P newex 9 -438 44 196617 r mouse;#P number 219 451 35 9 0 0 0 3 0 0 0 221 221 221 222 222 222 0 0 0;#P number 174 451 35 9 0 0 0 3 0 0 0 221 221 221 222 222 222 0 0 0;#P newex 174 421 55 196617 unpack 0 0;#P newex 174 398 41 196617 route 0;#P number 114 -332 35 9 0 0 0 3 0 0 0 221 221 221 222 222 222 0 0 0;#P number 160 -331 35 9 0 0 0 3 0 0 0 221 221 221 222 222 222 0 0 0;#P message 232 -365 100 196617 filloval 0 0 100 100;#P message 261 -287 75 196617 bgcolor 0 0 0 1;#P message 10 -232 124 196617 offscreen.resize 640 480;#P message 9 -252 124 196617 offscreen.resize 320 240;#P message 13 -176 83 196617 dim.set 320 240;#P newex 40 -316 64 196617 pack 0 0 0 0;#P newex 137 -360 27 196617 +;#P number 60 383 35 9 0 0 0 3 0 0 0 221 221 221 222 222 222 0 0 0;#P newex 98 -360 27 196617 +;#P message 161 -245 100 196617 filloval \$1 \$2 \$3 \$4;#P message 145 -310 31 196617 clear;#P comment 404 -519 100 791478284 clearmode;#P button 109 -441 15 0;#P user uslider 148 -494 31 47 1028 1 0 0;#P comment 128 -465 18 791478286 Y;#P number 109 -421 35 9 0 0 0 3 0 0 0 221 221 221 222 222 222 0 0 0;#P user hslider 61 -494 28 68 640 1 0 0;#P number 148 -421 35 9 0 0 0 3 0 0 0 221 221 221 222 222 222 0 0 0;#P comment 69 -465 18 791478286 X;#P comment 61 -515 100 791478284 location;#P comment 355 -495 81 196617 clearmode 1 - clear 0 - do not clear;#P message 440 -495 63 196617 clearmode 1;#P message 440 -476 63 196617 clearmode 0;#P comment 24 309 100 791478284 color;#P newex 238 -471 35 196617 * 256;#P number 201 -470 35 9 0 0 0 3 0 0 0 221 221 221 222 222 222 0 0 0;#P user hslider 25 330 18 128 256 1 0 0;#P message 201 -448 85 196617 fgcolor \$1 \$1 \$1;#P newex 179 -185 39 196617 242.qd;#P comment 99 386 31 196617 scale;#P connect 42 0 37 0;#P connect 36 0 37 0;#P connect 37 0 38 0;#P connect 22 0 42 0;#P connect 37 0 24 0;#P connect 22 0 105 0;#P connect 37 1 39 0;#P connect 37 1 24 1;#P connect 64 0 63 0;#P connect 65 0 55 0;#P connect 21 0 24 2;#P connect 23 0 24 3;#P connect 37 0 21 0;#P fasten 12 0 17 0 153 -402 146 -402 146 -444 114 -444;#P fasten 13 0 14 0 66 -422 114 -422;#P connect 17 0 14 0;#P connect 21 0 31 0;#P connect 22 0 21 1;#P connect 37 1 23 0;#P fasten 34 0 103 0 179 483 146 483;#P connect 16 0 12 0;#P connect 22 0 23 1;#P connect 23 0 30 0;#P connect 24 0 20 0;#P connect 1 0 56 0;#P fasten 63 0 56 0 70 -89 179 -89;#P connect 56 0 62 0;#P connect 62 0 52 0;#P connect 102 0 52 0;#P fasten 55 0 52 0 71 131 179 131;#P connect 100 0 52 0;#P connect 96 0 52 0;#P connect 97 0 52 0;#P connect 53 0 32 0;#P connect 32 0 33 0;#P connect 33 0 34 0;#P fasten 103 0 41 0 146 543 179 543;#P connect 41 0 40 0;#P connect 52 0 53 0;#P connect 8 0 1 0;#P connect 7 0 1 0;#P connect 19 0 1 0;#P connect 2 0 1 0;#P connect 29 0 1 0;#P connect 28 0 1 0;#P connect 27 0 1 0;#P connect 26 0 1 0;#P connect 20 0 1 0;#P connect 3 0 4 0;#P fasten 5 0 2 0 243 -451 206 -451;#P connect 47 0 52 1;#P fasten 62 0 46 0 179 -1 214 -1;#P connect 46 0 45 0;#P fasten 104 0 41 1 300 576 214 576;#P connect 106 0 103 1;#P fasten 57 0 62 1 308 -53 222 -53;#P connect 33 1 35 0;#P hidden connect 4 0 5 0;#P connect 84 0 52 2;#P fasten 57 0 62 2 308 -48 265 -48;#P fasten 35 0 104 0 224 485 300 485;#P connect 81 0 57 0;#P connect 70 0 57 0;#P connect 68 0 57 0;#P connect 58 0 57 0;#P connect 60 0 57 0;#P connect 59 0 57 0;#P connect 57 0 62 3;#P fasten 62 0 54 0 179 -12 310 -12;#P connect 57 0 61 0;#P connect 107 0 104 1;#P connect 83 0 59 0;#P connect 77 0 80 0;#P fasten 79 0 80 0 464 -222;#P connect 80 0 70 0;#P fasten 79 1 80 1 517 -218 499 -218;#P connect 78 0 79 0;#P connect 82 0 47 0;#P connect 72 0 47 0;#P connect 71 0 47 0;#P connect 69 0 47 0;#P connect 48 0 47 0;#P connect 50 0 47 0;#P connect 49 0 47 0;#P connect 47 0 51 0;#P connect 101 0 100 0;#P connect 98 0 96 0;#P connect 99 0 97 0;#P connect 83 0 49 0;#P connect 86 0 84 0;#P connect 87 0 84 0;#P connect 85 0 84 0;#P connect 88 0 84 0;#P connect 89 0 84 0;#P connect 94 0 84 0;#P fasten 75 0 76 0 691 -231;#P connect 73 0 76 0;#P connect 76 0 71 0;#P connect 84 0 95 0;#P fasten 75 1 76 1 744 -227 726 -227;#P connect 74 0 75 0;#P connect 90 0 93 0;#P fasten 92 0 93 0 814 -157;#P connect 93 0 88 0;#P fasten 92 1 93 1 867 -153 849 -153;#P connect 91 0 92 0;#P pop;