max v2;#N vpatcher 301 53 976 755;#P origin 15 -32;#P message 144 455 31 196617 close;#P message 130 437 28 196617 open;#P newex 105 491 54 196617 242.ekran;#P number 182 295 35 9 0 0 0 3 0 0 0 221 221 221 222 222 222 0 0 0;#P newex 182 340 49 196617 s pensize;#P message 385 431 14 196617 1;#P message 367 431 14 196617 0;#P toggle 331 432 15 0;#P newex 331 450 30 196617 gate;#P button 284 364 15 0;#P user GSwitch 330 396 41 32 1 0;#P newex 547 449 88 196617 242.tl.alpha.make;#P button 290 29 15 0;#P message 82 381 83 196617 dim.set 160 120;#P newex 533 481 55 196617 s qdmask2;#P newex 338 358 27 196617 / 4;#P comment 497 23 81 196617 simulates player position <P2>;#P comment 382 339 100 196617 inverse (distance to size) max 100 pixels;#P newex 395 480 100 196617 expr ( 50 - $f1 / 8);#P newex 331 472 49 196617 s pensize;#P flonum 425 387 55 9 0 0 0 3 0 0 0 221 221 221 222 222 222 0 0 0;#P newex 375 367 105 196617 expr ( 100 - $f1 / 4);#P flonum 375 320 70 9 0 0 0 3 0 0 0 221 221 221 222 222 222 0 0 0;#P newex 423 263 45 196617 pack 0 0;#P newex 375 263 45 196617 pack 0 0;#P newex 375 300 45 196617 distance;#P toggle 262 99 15 0;#P number 287 99 48 9 0 0 1 3 0 0 0 221 221 221 222 222 222 0 0 0;#P newex 262 121 35 196617 metro;#P number 298 164 49 9 0 0 0 3 0 0 0 221 221 221 222 222 222 0 0 0;#P newex 262 163 35 196617 * 256;#P newex 262 142 81 196617 counter 2 0 255;#P number 50 344 35 9 0 0 0 3 0 0 0 221 221 221 222 222 222 0 0 0;#P message -6 344 55 196617 objrate \$1;#P message -4 305 54 196617 objmode 2;#P number 513 51 35 9 0 0 0 3 0 0 0 221 221 221 222 222 222 0 0 0;#P number 378 51 35 9 0 0 0 3 0 0 0 221 221 221 222 222 222 0 0 0;#P message 592 382 14 196617 3;#P message 592 365 14 196617 1;#P message 592 348 14 196617 0;#P user hslider 684 276 18 128 128 1 0 0;#P message 684 297 64 196617 elevation \$1;#P user hslider 685 317 18 128 128 1 0 0;#P message 685 338 45 196617 angle \$1;#P user hslider 685 358 18 128 128 1 0 0;#P message 685 379 50 196617 height \$1;#P message 642 380 40 196617 mode 1;#P newex 585 408 62 196617 242.emboss;#P message 20 271 14 196617 1;#P message -7 250 14 196617 0;#P newex 562 172 49 196617 r pensize;#P newex 535 172 27 196617 +;#P newex 562 151 49 196617 r pensize;#P newex 535 151 27 196617 +;#P newex 510 216 64 196617 pack 0 0 0 0;#P newex 510 194 64 196617 bondo 4;#P slider 613 64 15 50 0 1;#P button 497 90 15 0;#P slider 554 65 15 50 0 1;#P newex 510 128 54 196617 drunk 320;#P toggle 497 51 15 0;#P newex 497 71 50 196617 metro 50;#P newex 570 128 54 196617 drunk 240;#P message 511 235 100 196617 filloval \$1 \$2 \$3 \$4;#P newex 426 172 49 196617 r pensize;#P newex 399 172 27 196617 +;#P newex 426 151 49 196617 r pensize;#P newex 399 151 27 196617 +;#P newex 374 216 64 196617 pack 0 0 0 0;#P newex 374 194 64 196617 bondo 4;#P slider 477 64 15 50 0 1;#P button 361 90 15 0;#P slider 418 65 15 50 0 1;#P newex 374 128 54 196617 drunk 320;#P toggle 361 51 15 0;#P newex 361 71 50 196617 metro 50;#P newex 434 128 54 196617 drunk 240;#P newex 215 72 27 196617 t b i;#P number 234 54 35 9 0 0 0 3 0 0 0 221 221 221 222 222 222 0 0 0;#P newex 199 91 45 196617 pack 0 0;#P button 24 178 15 0;#P message 22 243 31 196617 clear;#P number 303 210 35 9 0 0 0 3 0 0 0 221 221 221 222 222 222 0 0 0;#P message 247 231 54 196617 objmode 2;#P message 303 231 55 196617 objrate \$1;#P newex 552 278 39 196617 print 2;#P newex 590 310 30 196617 print;#P newex 131 104 28 196617 s y2;#P newex 49 106 28 196617 s y1;#P newex 95 104 28 196617 s x2;#P newex 13 105 28 196617 s x1;#P newex 201 138 49 196617 r pensize;#P message 375 235 100 196617 filloval \$1 \$2 \$3 \$4;#P message -8 61 124 196617 offscreen.resize 320 240;#P message -3 381 83 196617 dim.set 320 240;#P user 242.ekran04 -3 409 320 240 1;#P user umenu -9 215 100 196647 1 64 231 1;#X add clearmode 0;#X add clearmode 1;#P message 199 211 75 196617 bgcolor 0 0 0 1;#P user hslider 511 631 18 128 255 256 0 0;#P message 183 195 85 196617 fgcolor \$1 \$1 \$1;#P newex 61 154 64 196617 pack 0 0 0 0;#P number 131 87 35 9 0 0 0 3 0 0 0 221 221 221 222 222 222 0 0 0;#P number 95 87 35 9 0 0 0 3 0 0 0 221 221 221 222 222 222 0 0 0;#P number 49 88 35 9 0 0 0 3 0 0 0 221 221 221 222 222 222 0 0 0;#P number 13 88 35 9 0 0 0 3 0 0 0 221 221 221 222 222 222 0 0 0;#P newex 61 132 64 196617 bondo 4;#P message 61 174 84 196617 line \$1 \$2 \$3 \$4;#P number 198 54 35 9 0 0 0 3 0 0 0 221 221 221 222 222 222 0 0 0;#P message 184 116 55 196617 pensize \$1;#P newex 98 266 39 196617 242.qd;#P comment 396 462 100 196617 max 50 pixels;#P comment 261 78 74 196617 color shift rate;#P comment 356 21 81 196617 simulates player position <P1>;#P connect 80 0 79 0;#P fasten 65 0 17 0 590 455 303 455 303 399 2 399;#P connect 18 0 17 0;#P fasten 99 0 17 0 87 401 2 401;#P connect 8 0 22 0;#P connect 4 0 32 0;#P connect 13 0 32 0;#P connect 9 0 24 0;#P fasten 8 0 7 0 18 116 66 116;#P connect 43 0 12 0;#P connect 7 0 12 0;#P connect 32 0 6 0;#P connect 12 0 6 0;#P fasten 9 0 7 1 54 114 84 114;#P connect 43 1 12 1;#P connect 7 1 12 1;#P connect 10 0 23 0;#P fasten 10 0 7 2 100 125 102 125;#P connect 57 0 12 2;#P connect 7 2 12 2;#P fasten 49 0 3 0 516 255 103 255;#P fasten 20 0 3 0 380 257 103 257;#P connect 79 0 3 0;#P connect 78 0 3 0;#P connect 63 0 3 0;#P connect 64 0 3 0;#P fasten 13 0 3 0 188 226 103 226;#P fasten 4 0 3 0 189 160 159 160 159 223 103 223;#P connect 31 0 3 0;#P fasten 29 0 3 0 252 252 103 252;#P fasten 28 0 3 0 308 249 103 249;#P fasten 19 0 3 0 -3 201 103 201;#P fasten 16 1 3 0 86 238 103 238;#P fasten 15 0 3 0 204 231 103 231;#P connect 3 0 110 0;#P connect 112 0 110 0;#P connect 111 0 110 0;#P fasten 11 0 7 3 136 127 120 127;#P connect 57 1 12 3;#P connect 7 3 12 3;#P connect 11 0 25 0;#P connect 109 0 108 0;#P fasten 82 0 13 0 267 187 188 187;#P connect 5 0 4 0;#P fasten 21 0 4 0 181 155 181 109 189 109;#P connect 5 0 33 0;#P connect 35 0 33 0;#P connect 34 0 35 0;#P connect 35 1 33 1;#P connect 100 0 86 0;#P connect 86 0 84 0;#P connect 84 0 81 0;#P connect 81 0 82 0;#P connect 85 0 84 1;#P connect 82 0 83 0;#P connect 30 0 28 0;#P connect 103 0 102 0;#P connect 105 0 104 0;#P connect 107 0 104 0;#P connect 106 0 104 0;#P connect 104 0 93 0;#P fasten 90 0 97 0 380 340 343 340;#P fasten 97 0 102 1 343 384 350 384;#P fasten 102 0 104 1 335 432 356 432;#P fasten 91 0 102 2 380 391 365 391;#P connect 100 0 38 0;#P connect 38 0 37 0;#P connect 37 0 41 0;#P fasten 41 0 39 0 366 111 379 111;#P connect 39 0 43 0;#P connect 43 0 44 0;#P connect 44 0 20 0;#P connect 43 0 88 0;#P connect 88 0 87 0;#P connect 87 0 90 0;#P connect 90 0 91 0;#P fasten 36 0 43 1 439 129 397 129;#P connect 43 1 44 1;#P fasten 39 0 45 0 379 132 404 132;#P fasten 36 0 47 0 439 132 404 132;#P connect 76 0 37 1;#P fasten 45 0 43 2 404 165 415 165;#P connect 43 2 44 2;#P connect 43 1 88 1;#P fasten 89 0 87 1 428 288 415 288;#P connect 46 0 45 1;#P connect 48 0 47 1;#P connect 40 0 39 2;#P connect 57 0 89 0;#P fasten 91 0 92 0 430 384;#P fasten 47 0 43 3 404 185 433 185;#P connect 43 3 44 3;#P fasten 41 0 36 0 366 124 439 124;#P connect 57 1 89 1;#P connect 42 0 36 2;#P connect 100 0 52 0;#P connect 52 0 51 0;#P connect 51 0 55 0;#P fasten 55 0 53 0 502 113 515 113;#P connect 53 0 57 0;#P connect 57 0 58 0;#P connect 58 0 49 0;#P fasten 50 0 57 1 575 129 533 129;#P connect 57 1 58 1;#P fasten 101 0 98 0 552 476 538 476;#P fasten 53 0 59 0 515 132 540 132;#P fasten 50 0 61 0 575 132 540 132;#P connect 77 0 51 1;#P fasten 59 0 57 2 540 165 551 165;#P connect 57 2 58 2;#P fasten 65 0 101 0 590 443 552 443;#P connect 60 0 59 1;#P connect 62 0 61 1;#P connect 54 0 53 2;#P fasten 61 0 57 3 540 185 569 185;#P connect 57 3 58 3;#P fasten 55 0 50 0 502 123 575 123;#P fasten 3 0 65 0 103 291 590 291;#P fasten 71 0 65 0 689 405 590 405;#P fasten 67 0 65 0 690 406 590 406;#P fasten 69 0 65 0 690 405 590 405;#P fasten 66 0 65 0 647 401 590 401;#P connect 73 0 65 0;#P connect 74 0 65 0;#P connect 75 0 65 0;#P connect 56 0 50 2;#P connect 72 0 71 0;#P connect 70 0 69 0;#P connect 68 0 67 0;#P pop;