max v2;#N vpatcher 436 69 916 489;#P origin 94 -45;#P comment 12 23 219 196626 tgarden_emboss_ekran;#P comment 231 23 143 196617 Erik Conrad © 2002 Topological Media Lab;#P message 352 299 40 196617 mbar 1;#P message 270 299 80 196617 fullscreen 0 0 0;#P message 195 299 73 196617 coords.set 0 0;#P message 162 299 31 196617 close;#P message 133 299 28 196617 open;#P message 123 277 83 196617 dim.set 640 480;#P newex 109 328 54 196617 242.ekran;#P message 25 74 45 196617 fps2.get;#P flonum 293 152 58 9 0 0 0 3 0 0 0 221 221 221 222 222 222 0 0 0;#P newex 293 130 45 196617 route 28;#P flonum 186 158 58 9 0 0 0 3 0 0 0 221 221 221 222 222 222 0 0 0;#P newex 186 136 45 196617 route 28;#P message 3 155 65 196617 copymode 32;#P message 1 182 61 196617 copymode 0;#P message 2 302 73 196617 copymode 260;#P message 2 273 73 196617 copymode 258;#P message 1 242 73 196617 copymode 257;#P user 242.ekran04 301 153 65 50 1;#P message 0 212 82 196617 copymode 256 1;#P message 226 269 83 196617 dim.set 320 240;#P message 349 60 27 196617 stop;#P message 317 60 31 196617 start;#P message 275 60 41 196617 dispose;#P message 245 60 28 196617 read;#P newex 275 100 92 196617 242.film;#P message 212 60 27 196617 stop;#P message 180 60 31 196617 start;#P message 138 60 41 196617 dispose;#P message 108 60 28 196617 read;#P newex 138 100 92 196617 242.film;#P newex 178 190 49 196617 r qdmask;#P newex 109 190 68 196617 242.channel3;#P newex 109 246 75 196617 242.collage3 2;#P connect 2 0 1 0;#P fasten 20 0 0 0 8 176 85 176 85 231 114 231;#P fasten 19 0 0 0 6 204 97 204 97 232 114 232;#P fasten 18 0 0 0 7 326 89 326 89 235 114 235;#P fasten 17 0 0 0 7 297 91 297 91 234 114 234;#P fasten 16 0 0 0 6 268 87 268 87 233 114 233;#P fasten 14 0 0 0 5 235 114 235;#P connect 1 0 0 0;#P fasten 32 0 26 0 357 320 114 320;#P connect 0 0 26 0;#P fasten 27 0 26 0 128 299 114 299;#P fasten 28 0 26 0 138 320 114 320;#P fasten 29 0 26 0 167 320 114 320;#P fasten 30 0 26 0 200 320 114 320;#P fasten 31 0 26 0 275 320 114 320;#P connect 3 0 1 1;#P fasten 25 0 3 0 30 95 143 95;#P fasten 7 0 3 0 217 92 143 92;#P fasten 6 0 3 0 185 85 143 85;#P connect 5 0 3 0;#P fasten 4 0 3 0 113 84 143 84;#P connect 3 0 1 2;#P connect 3 0 1 3;#P fasten 8 0 0 1 280 240 179 240;#P fasten 3 1 21 0 156 126 191 126;#P connect 21 0 22 0;#P fasten 9 0 8 0 250 84 280 84;#P connect 10 0 8 0;#P fasten 11 0 8 0 322 85 280 85;#P fasten 12 0 8 0 354 92 280 92;#P fasten 25 0 8 0 30 95 280 95;#P fasten 8 1 23 0 293 121 298 121;#P connect 23 0 24 0;#P connect 2 0 15 0;#P pop;