{
	"patcher" : 	{
		"fileversion" : 1,
		"appversion" : 		{
			"major" : 6,
			"minor" : 0,
			"revision" : 8
		}
,
		"rect" : [ 26.0, 821.0, 149.0, 68.0 ],
		"bglocked" : 0,
		"openinpresentation" : 0,
		"default_fontsize" : 12.0,
		"default_fontface" : 0,
		"default_fontname" : "Arial",
		"gridonopen" : 0,
		"gridsize" : [ 15.0, 15.0 ],
		"gridsnaponopen" : 0,
		"statusbarvisible" : 2,
		"toolbarvisible" : 1,
		"boxanimatetime" : 200,
		"imprint" : 0,
		"enablehscroll" : 1,
		"enablevscroll" : 1,
		"devicewidth" : 0.0,
		"description" : "",
		"digest" : "",
		"tags" : "",
		"boxes" : [ 			{
				"box" : 				{
					"fontname" : "Arial",
					"fontsize" : 12.0,
					"id" : "obj-9",
					"maxclass" : "newobj",
					"numinlets" : 0,
					"numoutlets" : 0,
					"patcher" : 					{
						"fileversion" : 1,
						"appversion" : 						{
							"major" : 6,
							"minor" : 0,
							"revision" : 8
						}
,
						"rect" : [ 584.0, 46.0, 904.0, 707.0 ],
						"bglocked" : 0,
						"openinpresentation" : 0,
						"default_fontsize" : 12.0,
						"default_fontface" : 0,
						"default_fontname" : "Arial",
						"gridonopen" : 0,
						"gridsize" : [ 15.0, 15.0 ],
						"gridsnaponopen" : 0,
						"statusbarvisible" : 2,
						"toolbarvisible" : 1,
						"boxanimatetime" : 200,
						"imprint" : 0,
						"enablehscroll" : 1,
						"enablevscroll" : 1,
						"devicewidth" : 0.0,
						"description" : "",
						"digest" : "",
						"tags" : "",
						"visible" : 1,
						"boxes" : [ 							{
								"box" : 								{
									"fontname" : "Arial",
									"fontsize" : 12.0,
									"id" : "obj-72",
									"maxclass" : "newobj",
									"numinlets" : 1,
									"numoutlets" : 3,
									"outlettype" : [ "float", "float", "int" ],
									"patching_rect" : [ 1367.0, 253.5, 77.0, 20.0 ],
									"text" : "t 0.5 0.3 150"
								}

							}
, 							{
								"box" : 								{
									"fontname" : "Arial",
									"fontsize" : 12.0,
									"id" : "obj-71",
									"maxclass" : "newobj",
									"numinlets" : 1,
									"numoutlets" : 1,
									"outlettype" : [ "" ],
									"patching_rect" : [ 1367.0, 226.5, 56.0, 20.0 ],
									"text" : "deferlow"
								}

							}
, 							{
								"box" : 								{
									"fontname" : "Arial",
									"fontsize" : 12.0,
									"id" : "obj-70",
									"maxclass" : "newobj",
									"numinlets" : 1,
									"numoutlets" : 1,
									"outlettype" : [ "bang" ],
									"patching_rect" : [ 1367.0, 200.5, 60.0, 20.0 ],
									"text" : "loadbang"
								}

							}
, 							{
								"box" : 								{
									"fontname" : "Arial",
									"fontsize" : 12.0,
									"id" : "obj-69",
									"maxclass" : "newobj",
									"numinlets" : 4,
									"numoutlets" : 1,
									"outlettype" : [ "bang" ],
									"patcher" : 									{
										"fileversion" : 1,
										"appversion" : 										{
											"major" : 6,
											"minor" : 0,
											"revision" : 8
										}
,
										"rect" : [ 25.0, 69.0, 257.0, 197.0 ],
										"bglocked" : 0,
										"openinpresentation" : 0,
										"default_fontsize" : 12.0,
										"default_fontface" : 0,
										"default_fontname" : "Arial",
										"gridonopen" : 0,
										"gridsize" : [ 15.0, 15.0 ],
										"gridsnaponopen" : 0,
										"statusbarvisible" : 2,
										"toolbarvisible" : 1,
										"boxanimatetime" : 200,
										"imprint" : 0,
										"enablehscroll" : 1,
										"enablevscroll" : 1,
										"devicewidth" : 0.0,
										"description" : "",
										"digest" : "",
										"tags" : "",
										"boxes" : [ 											{
												"box" : 												{
													"comment" : "",
													"id" : "obj-3",
													"maxclass" : "outlet",
													"numinlets" : 1,
													"numoutlets" : 0,
													"patching_rect" : [ 17.0, 154.0, 25.0, 25.0 ]
												}

											}
, 											{
												"box" : 												{
													"comment" : "",
													"id" : "obj-1",
													"maxclass" : "inlet",
													"numinlets" : 0,
													"numoutlets" : 1,
													"outlettype" : [ "" ],
													"patching_rect" : [ 17.0, 14.0, 25.0, 25.0 ],
													"presentation_rect" : [ 42.0, 43.0, 0.0, 0.0 ]
												}

											}
, 											{
												"box" : 												{
													"fontname" : "Arial",
													"fontsize" : 13.0,
													"id" : "obj-64",
													"maxclass" : "newobj",
													"numinlets" : 2,
													"numoutlets" : 2,
													"outlettype" : [ "bang", "" ],
													"patching_rect" : [ 17.0, 126.0, 55.0, 21.0 ],
													"text" : "select 1"
												}

											}
, 											{
												"box" : 												{
													"color" : [ 0.615686, 0.552941, 0.827451, 1.0 ],
													"fontname" : "Arial",
													"fontsize" : 13.0,
													"id" : "obj-42",
													"maxclass" : "newobj",
													"numinlets" : 2,
													"numoutlets" : 1,
													"outlettype" : [ "" ],
													"patcher" : 													{
														"fileversion" : 1,
														"appversion" : 														{
															"major" : 6,
															"minor" : 0,
															"revision" : 8
														}
,
														"rect" : [ 1102.0, 1085.0, 327.0, 257.0 ],
														"bglocked" : 0,
														"openinpresentation" : 0,
														"default_fontsize" : 13.0,
														"default_fontface" : 0,
														"default_fontname" : "Arial",
														"gridonopen" : 0,
														"gridsize" : [ 15.0, 15.0 ],
														"gridsnaponopen" : 0,
														"statusbarvisible" : 2,
														"toolbarvisible" : 1,
														"boxanimatetime" : 200,
														"imprint" : 0,
														"enablehscroll" : 1,
														"enablevscroll" : 1,
														"devicewidth" : 0.0,
														"description" : "",
														"digest" : "",
														"tags" : "",
														"boxes" : [ 															{
																"box" : 																{
																	"comment" : "",
																	"id" : "obj-1",
																	"maxclass" : "inlet",
																	"numinlets" : 0,
																	"numoutlets" : 1,
																	"outlettype" : [ "int" ],
																	"patching_rect" : [ 255.0, 30.0, 25.0, 25.0 ]
																}

															}
, 															{
																"box" : 																{
																	"fontname" : "Arial",
																	"fontsize" : 12.0,
																	"id" : "obj-2",
																	"maxclass" : "newobj",
																	"numinlets" : 2,
																	"numoutlets" : 1,
																	"outlettype" : [ "" ],
																	"patching_rect" : [ 105.0, 210.0, 79.0, 20.0 ],
																	"text" : "gate 1 100"
																}

															}
, 															{
																"box" : 																{
																	"comment" : "",
																	"id" : "obj-3",
																	"maxclass" : "inlet",
																	"numinlets" : 0,
																	"numoutlets" : 1,
																	"outlettype" : [ "" ],
																	"patching_rect" : [ 225.0, 30.0, 25.0, 25.0 ]
																}

															}
, 															{
																"box" : 																{
																	"fontname" : "Arial",
																	"fontsize" : 12.0,
																	"id" : "obj-4",
																	"maxclass" : "newobj",
																	"numinlets" : 1,
																	"numoutlets" : 1,
																	"outlettype" : [ "int" ],
																	"patching_rect" : [ 45.0, 120.0, 25.0, 20.0 ],
																	"text" : "t 1"
																}

															}
, 															{
																"box" : 																{
																	"comment" : "",
																	"id" : "obj-5",
																	"maxclass" : "outlet",
																	"numinlets" : 1,
																	"numoutlets" : 0,
																	"patching_rect" : [ 195.0, 210.0, 25.0, 25.0 ]
																}

															}
, 															{
																"box" : 																{
																	"fontname" : "Arial",
																	"fontsize" : 12.0,
																	"id" : "obj-6",
																	"maxclass" : "newobj",
																	"numinlets" : 2,
																	"numoutlets" : 1,
																	"outlettype" : [ "bang" ],
																	"patching_rect" : [ 45.0, 90.0, 50.0, 20.0 ],
																	"text" : "del 100"
																}

															}
, 															{
																"box" : 																{
																	"fontname" : "Arial",
																	"fontsize" : 12.0,
																	"id" : "obj-7",
																	"maxclass" : "newobj",
																	"numinlets" : 1,
																	"numoutlets" : 2,
																	"outlettype" : [ "bang", "int" ],
																	"patching_rect" : [ 45.0, 45.0, 139.0, 20.0 ],
																	"text" : "t b 2"
																}

															}
, 															{
																"box" : 																{
																	"fontname" : "Arial",
																	"fontsize" : 12.0,
																	"id" : "obj-8",
																	"maxclass" : "newobj",
																	"numinlets" : 2,
																	"numoutlets" : 2,
																	"outlettype" : [ "", "" ],
																	"patching_rect" : [ 165.0, 165.0, 79.0, 20.0 ],
																	"text" : "gate 2 1"
																}

															}
 ],
														"lines" : [ 															{
																"patchline" : 																{
																	"destination" : [ "obj-2", 0 ],
																	"disabled" : 0,
																	"hidden" : 0,
																	"midpoints" : [ 264.5, 134.0, 114.5, 134.0 ],
																	"source" : [ "obj-1", 0 ]
																}

															}
, 															{
																"patchline" : 																{
																	"destination" : [ "obj-6", 1 ],
																	"disabled" : 0,
																	"hidden" : 0,
																	"midpoints" : [ 264.5, 75.0, 85.5, 75.0 ],
																	"source" : [ "obj-1", 0 ]
																}

															}
, 															{
																"patchline" : 																{
																	"destination" : [ "obj-7", 0 ],
																	"disabled" : 0,
																	"hidden" : 0,
																	"midpoints" : [ 114.5, 231.0, 30.0, 231.0, 30.0, 42.0, 54.5, 42.0 ],
																	"source" : [ "obj-2", 0 ]
																}

															}
, 															{
																"patchline" : 																{
																	"destination" : [ "obj-8", 1 ],
																	"disabled" : 0,
																	"hidden" : 0,
																	"source" : [ "obj-3", 0 ]
																}

															}
, 															{
																"patchline" : 																{
																	"destination" : [ "obj-8", 0 ],
																	"disabled" : 0,
																	"hidden" : 0,
																	"midpoints" : [ 54.5, 150.0, 174.5, 150.0 ],
																	"source" : [ "obj-4", 0 ]
																}

															}
, 															{
																"patchline" : 																{
																	"destination" : [ "obj-4", 0 ],
																	"disabled" : 0,
																	"hidden" : 0,
																	"source" : [ "obj-6", 0 ]
																}

															}
, 															{
																"patchline" : 																{
																	"destination" : [ "obj-6", 0 ],
																	"disabled" : 0,
																	"hidden" : 0,
																	"source" : [ "obj-7", 0 ]
																}

															}
, 															{
																"patchline" : 																{
																	"destination" : [ "obj-8", 0 ],
																	"disabled" : 0,
																	"hidden" : 0,
																	"source" : [ "obj-7", 1 ]
																}

															}
, 															{
																"patchline" : 																{
																	"destination" : [ "obj-2", 1 ],
																	"disabled" : 0,
																	"hidden" : 0,
																	"source" : [ "obj-8", 0 ]
																}

															}
, 															{
																"patchline" : 																{
																	"destination" : [ "obj-5", 0 ],
																	"disabled" : 0,
																	"hidden" : 0,
																	"midpoints" : [ 174.5, 195.0, 204.5, 195.0 ],
																	"source" : [ "obj-8", 0 ]
																}

															}
 ]
													}
,
													"patching_rect" : [ 17.0, 99.0, 211.0, 21.0 ],
													"saved_object_attributes" : 													{
														"default_fontface" : 0,
														"default_fontname" : "Arial",
														"default_fontsize" : 13.0,
														"description" : "",
														"digest" : "",
														"fontface" : 0,
														"fontname" : "Arial",
														"fontsize" : 13.0,
														"globalpatchername" : "",
														"tags" : ""
													}
,
													"text" : "p debounce"
												}

											}
, 											{
												"box" : 												{
													"color" : [ 0.615686, 0.552941, 0.827451, 1.0 ],
													"fontname" : "Arial",
													"fontsize" : 13.0,
													"id" : "obj-39",
													"maxclass" : "newobj",
													"numinlets" : 3,
													"numoutlets" : 1,
													"outlettype" : [ "" ],
													"patcher" : 													{
														"fileversion" : 1,
														"appversion" : 														{
															"major" : 6,
															"minor" : 0,
															"revision" : 8
														}
,
														"rect" : [ 1461.0, 857.0, 218.0, 337.0 ],
														"bglocked" : 0,
														"openinpresentation" : 0,
														"default_fontsize" : 13.0,
														"default_fontface" : 0,
														"default_fontname" : "Arial",
														"gridonopen" : 0,
														"gridsize" : [ 15.0, 15.0 ],
														"gridsnaponopen" : 0,
														"statusbarvisible" : 2,
														"toolbarvisible" : 1,
														"boxanimatetime" : 200,
														"imprint" : 0,
														"enablehscroll" : 1,
														"enablevscroll" : 1,
														"devicewidth" : 0.0,
														"description" : "",
														"digest" : "",
														"tags" : "",
														"boxes" : [ 															{
																"box" : 																{
																	"fontname" : "Arial",
																	"fontsize" : 12.0,
																	"id" : "obj-22",
																	"maxclass" : "newobj",
																	"numinlets" : 1,
																	"numoutlets" : 2,
																	"outlettype" : [ "float", "float" ],
																	"patching_rect" : [ 114.0, 137.0, 63.0, 20.0 ],
																	"text" : "unpack f f"
																}

															}
, 															{
																"box" : 																{
																	"fontname" : "Arial",
																	"fontsize" : 12.0,
																	"id" : "obj-21",
																	"maxclass" : "newobj",
																	"numinlets" : 2,
																	"numoutlets" : 1,
																	"outlettype" : [ "" ],
																	"patching_rect" : [ 114.0, 77.0, 49.0, 20.0 ],
																	"text" : "pak f f"
																}

															}
, 															{
																"box" : 																{
																	"fontname" : "Arial",
																	"fontsize" : 12.0,
																	"id" : "obj-19",
																	"maxclass" : "newobj",
																	"numinlets" : 2,
																	"numoutlets" : 2,
																	"outlettype" : [ "", "" ],
																	"patching_rect" : [ 114.0, 108.0, 53.0, 20.0 ],
																	"text" : "zl sort 1"
																}

															}
, 															{
																"box" : 																{
																	"fontname" : "Arial",
																	"fontsize" : 12.0,
																	"id" : "obj-15",
																	"maxclass" : "newobj",
																	"numinlets" : 1,
																	"numoutlets" : 3,
																	"outlettype" : [ "", "int", "int" ],
																	"patching_rect" : [ 54.0, 257.0, 64.0, 20.0 ],
																	"text" : "change -1"
																}

															}
, 															{
																"box" : 																{
																	"fontname" : "Arial",
																	"fontsize" : 12.0,
																	"id" : "obj-14",
																	"maxclass" : "newobj",
																	"numinlets" : 2,
																	"numoutlets" : 2,
																	"outlettype" : [ "", "" ],
																	"patching_rect" : [ 24.0, 212.0, 49.0, 20.0 ],
																	"text" : "route 1"
																}

															}
, 															{
																"box" : 																{
																	"fontname" : "Arial",
																	"fontsize" : 12.0,
																	"id" : "obj-13",
																	"maxclass" : "newobj",
																	"numinlets" : 2,
																	"numoutlets" : 2,
																	"outlettype" : [ "", "" ],
																	"patching_rect" : [ 84.0, 212.0, 49.0, 20.0 ],
																	"text" : "route 0"
																}

															}
, 															{
																"box" : 																{
																	"fontname" : "Arial",
																	"fontsize" : 12.0,
																	"id" : "obj-12",
																	"maxclass" : "newobj",
																	"numinlets" : 2,
																	"numoutlets" : 1,
																	"outlettype" : [ "int" ],
																	"patching_rect" : [ 24.0, 182.0, 57.5, 20.0 ],
																	"text" : "> 0."
																}

															}
, 															{
																"box" : 																{
																	"comment" : "",
																	"id" : "obj-5",
																	"maxclass" : "outlet",
																	"numinlets" : 1,
																	"numoutlets" : 0,
																	"patching_rect" : [ 54.0, 287.0, 25.0, 25.0 ]
																}

															}
, 															{
																"box" : 																{
																	"fontname" : "Arial",
																	"fontsize" : 12.0,
																	"id" : "obj-4",
																	"maxclass" : "newobj",
																	"numinlets" : 2,
																	"numoutlets" : 1,
																	"outlettype" : [ "int" ],
																	"patching_rect" : [ 84.0, 182.0, 63.0, 20.0 ],
																	"text" : ">= 0."
																}

															}
, 															{
																"box" : 																{
																	"comment" : "",
																	"id" : "obj-3",
																	"maxclass" : "inlet",
																	"numinlets" : 0,
																	"numoutlets" : 1,
																	"outlettype" : [ "float" ],
																	"patching_rect" : [ 144.0, 32.0, 25.0, 25.0 ]
																}

															}
, 															{
																"box" : 																{
																	"comment" : "",
																	"id" : "obj-2",
																	"maxclass" : "inlet",
																	"numinlets" : 0,
																	"numoutlets" : 1,
																	"outlettype" : [ "float" ],
																	"patching_rect" : [ 114.0, 32.0, 25.0, 25.0 ]
																}

															}
, 															{
																"box" : 																{
																	"comment" : "",
																	"id" : "obj-1",
																	"maxclass" : "inlet",
																	"numinlets" : 0,
																	"numoutlets" : 1,
																	"outlettype" : [ "" ],
																	"patching_rect" : [ 84.0, 32.0, 25.0, 25.0 ]
																}

															}
 ],
														"lines" : [ 															{
																"patchline" : 																{
																	"destination" : [ "obj-12", 0 ],
																	"disabled" : 0,
																	"hidden" : 0,
																	"midpoints" : [ 93.5, 74.0, 33.5, 74.0 ],
																	"source" : [ "obj-1", 0 ]
																}

															}
, 															{
																"patchline" : 																{
																	"destination" : [ "obj-4", 0 ],
																	"disabled" : 0,
																	"hidden" : 0,
																	"source" : [ "obj-1", 0 ]
																}

															}
, 															{
																"patchline" : 																{
																	"destination" : [ "obj-14", 0 ],
																	"disabled" : 0,
																	"hidden" : 0,
																	"source" : [ "obj-12", 0 ]
																}

															}
, 															{
																"patchline" : 																{
																	"destination" : [ "obj-15", 0 ],
																	"disabled" : 0,
																	"hidden" : 0,
																	"midpoints" : [ 123.5, 244.0, 63.5, 244.0 ],
																	"source" : [ "obj-13", 1 ]
																}

															}
, 															{
																"patchline" : 																{
																	"destination" : [ "obj-15", 0 ],
																	"disabled" : 0,
																	"hidden" : 0,
																	"source" : [ "obj-14", 1 ]
																}

															}
, 															{
																"patchline" : 																{
																	"destination" : [ "obj-5", 0 ],
																	"disabled" : 0,
																	"hidden" : 0,
																	"source" : [ "obj-15", 0 ]
																}

															}
, 															{
																"patchline" : 																{
																	"destination" : [ "obj-22", 0 ],
																	"disabled" : 0,
																	"hidden" : 0,
																	"source" : [ "obj-19", 0 ]
																}

															}
, 															{
																"patchline" : 																{
																	"destination" : [ "obj-21", 0 ],
																	"disabled" : 0,
																	"hidden" : 0,
																	"source" : [ "obj-2", 0 ]
																}

															}
, 															{
																"patchline" : 																{
																	"destination" : [ "obj-19", 0 ],
																	"disabled" : 0,
																	"hidden" : 0,
																	"source" : [ "obj-21", 0 ]
																}

															}
, 															{
																"patchline" : 																{
																	"destination" : [ "obj-12", 1 ],
																	"disabled" : 0,
																	"hidden" : 0,
																	"midpoints" : [ 123.5, 169.0, 72.0, 169.0 ],
																	"source" : [ "obj-22", 0 ]
																}

															}
, 															{
																"patchline" : 																{
																	"destination" : [ "obj-4", 1 ],
																	"disabled" : 0,
																	"hidden" : 0,
																	"midpoints" : [ 167.5, 169.0, 137.5, 169.0 ],
																	"source" : [ "obj-22", 1 ]
																}

															}
, 															{
																"patchline" : 																{
																	"destination" : [ "obj-21", 1 ],
																	"disabled" : 0,
																	"hidden" : 0,
																	"source" : [ "obj-3", 0 ]
																}

															}
, 															{
																"patchline" : 																{
																	"destination" : [ "obj-13", 0 ],
																	"disabled" : 0,
																	"hidden" : 0,
																	"source" : [ "obj-4", 0 ]
																}

															}
 ]
													}
,
													"patching_rect" : [ 17.0, 74.0, 179.718719, 21.0 ],
													"saved_object_attributes" : 													{
														"default_fontface" : 0,
														"default_fontname" : "Arial",
														"default_fontsize" : 13.0,
														"description" : "",
														"digest" : "",
														"fontface" : 0,
														"fontname" : "Arial",
														"fontsize" : 13.0,
														"globalpatchername" : "",
														"tags" : ""
													}
,
													"text" : "p Schmitt"
												}

											}
, 											{
												"box" : 												{
													"comment" : "",
													"id" : "obj-65",
													"maxclass" : "inlet",
													"numinlets" : 0,
													"numoutlets" : 1,
													"outlettype" : [ "float" ],
													"patching_rect" : [ 97.0, 14.0, 25.0, 25.0 ]
												}

											}
, 											{
												"box" : 												{
													"comment" : "",
													"id" : "obj-66",
													"maxclass" : "inlet",
													"numinlets" : 0,
													"numoutlets" : 1,
													"outlettype" : [ "float" ],
													"patching_rect" : [ 177.0, 14.0, 25.0, 25.0 ]
												}

											}
, 											{
												"box" : 												{
													"comment" : "",
													"id" : "obj-68",
													"maxclass" : "inlet",
													"numinlets" : 0,
													"numoutlets" : 1,
													"outlettype" : [ "int" ],
													"patching_rect" : [ 209.0, 14.0, 25.0, 25.0 ]
												}

											}
 ],
										"lines" : [ 											{
												"patchline" : 												{
													"destination" : [ "obj-39", 0 ],
													"disabled" : 0,
													"hidden" : 0,
													"source" : [ "obj-1", 0 ]
												}

											}
, 											{
												"patchline" : 												{
													"destination" : [ "obj-42", 0 ],
													"disabled" : 0,
													"hidden" : 0,
													"source" : [ "obj-39", 0 ]
												}

											}
, 											{
												"patchline" : 												{
													"destination" : [ "obj-64", 0 ],
													"disabled" : 0,
													"hidden" : 0,
													"source" : [ "obj-42", 0 ]
												}

											}
, 											{
												"patchline" : 												{
													"destination" : [ "obj-3", 0 ],
													"disabled" : 0,
													"hidden" : 0,
													"source" : [ "obj-64", 0 ]
												}

											}
, 											{
												"patchline" : 												{
													"destination" : [ "obj-39", 1 ],
													"disabled" : 0,
													"hidden" : 0,
													"source" : [ "obj-65", 0 ]
												}

											}
, 											{
												"patchline" : 												{
													"destination" : [ "obj-39", 2 ],
													"disabled" : 0,
													"hidden" : 0,
													"source" : [ "obj-66", 0 ]
												}

											}
, 											{
												"patchline" : 												{
													"destination" : [ "obj-42", 1 ],
													"disabled" : 0,
													"hidden" : 0,
													"source" : [ "obj-68", 0 ]
												}

											}
 ]
									}
,
									"patching_rect" : [ 1255.0, 396.0, 64.0, 20.0 ],
									"saved_object_attributes" : 									{
										"default_fontface" : 0,
										"default_fontname" : "Arial",
										"default_fontsize" : 12.0,
										"description" : "",
										"digest" : "",
										"fontface" : 0,
										"fontname" : "Arial",
										"fontsize" : 12.0,
										"globalpatchername" : "",
										"tags" : ""
									}
,
									"text" : "p schmit"
								}

							}
, 							{
								"box" : 								{
									"fontname" : "Arial Bold",
									"fontsize" : 10.0,
									"frgb" : 0.0,
									"id" : "obj-87",
									"maxclass" : "comment",
									"numinlets" : 1,
									"numoutlets" : 0,
									"patching_rect" : [ 1274.0, 294.0, 124.0, 18.0 ],
									"presentation" : 1,
									"presentation_rect" : [ 753.0, 5.0, 121.0, 18.0 ],
									"text" : "Trigger with Hysteresis"
								}

							}
, 							{
								"box" : 								{
									"fontname" : "Arial",
									"fontsize" : 10.0,
									"frgb" : 0.0,
									"id" : "obj-86",
									"maxclass" : "comment",
									"numinlets" : 1,
									"numoutlets" : 0,
									"patching_rect" : [ 1274.0, 277.5, 54.0, 18.0 ],
									"presentation" : 1,
									"presentation_rect" : [ 741.0, 33.0, 41.0, 18.0 ],
									"text" : "schmitt"
								}

							}
, 							{
								"box" : 								{
									"fontname" : "Arial",
									"fontsize" : 10.0,
									"frgb" : 0.0,
									"id" : "obj-83",
									"maxclass" : "comment",
									"numinlets" : 1,
									"numoutlets" : 0,
									"patching_rect" : [ 1321.0, 342.0, 54.0, 18.0 ],
									"presentation" : 1,
									"presentation_rect" : [ 837.0, 18.0, 34.0, 18.0 ],
									"text" : "lower"
								}

							}
, 							{
								"box" : 								{
									"fontname" : "Arial",
									"fontsize" : 10.0,
									"frgb" : 0.0,
									"id" : "obj-82",
									"maxclass" : "comment",
									"numinlets" : 1,
									"numoutlets" : 0,
									"patching_rect" : [ 1306.0, 316.5, 54.0, 18.0 ],
									"presentation" : 1,
									"presentation_rect" : [ 792.0, 18.0, 34.0, 18.0 ],
									"text" : "upper"
								}

							}
, 							{
								"box" : 								{
									"fontname" : "Arial",
									"fontsize" : 10.0,
									"frgb" : 0.0,
									"id" : "obj-67",
									"maxclass" : "comment",
									"numinlets" : 1,
									"numoutlets" : 0,
									"patching_rect" : [ 1344.0, 365.5, 54.0, 18.0 ],
									"presentation" : 1,
									"presentation_rect" : [ 741.0, 53.0, 52.0, 18.0 ],
									"text" : "debounce"
								}

							}
, 							{
								"box" : 								{
									"annotation" : "debounce time in ms to filter out exccessive re-triggering",
									"bgcolor" : [ 0.0, 0.0, 0.0, 0.164706 ],
									"bordercolor" : [ 1.0, 1.0, 1.0, 1.0 ],
									"fontface" : 1,
									"fontname" : "Arial",
									"fontsize" : 10.0,
									"hint" : "ms",
									"id" : "obj-78",
									"maxclass" : "number",
									"numinlets" : 1,
									"numoutlets" : 2,
									"outlettype" : [ "int", "bang" ],
									"parameter_enable" : 0,
									"patching_rect" : [ 1300.0, 365.5, 44.0, 18.0 ],
									"presentation" : 1,
									"presentation_rect" : [ 792.0, 53.0, 36.0, 18.0 ],
									"triangle" : 0
								}

							}
, 							{
								"box" : 								{
									"annotation" : "upper shmitt trigger bound.",
									"bgcolor" : [ 0.705882, 0.690196, 0.756863, 0.156863 ],
									"bordercolor" : [ 1.0, 1.0, 1.0, 1.0 ],
									"fontname" : "Verdana",
									"fontsize" : 10.0,
									"hint" : "Input minimum value",
									"id" : "obj-62",
									"maxclass" : "flonum",
									"numinlets" : 1,
									"numoutlets" : 2,
									"outlettype" : [ "float", "bang" ],
									"parameter_enable" : 0,
									"patching_rect" : [ 1270.0, 316.5, 36.0, 19.0 ],
									"presentation" : 1,
									"presentation_rect" : [ 792.0, 33.0, 43.0, 19.0 ],
									"triangle" : 0,
									"triscale" : 0.9,
									"varname" : "scale-input-min[1]"
								}

							}
, 							{
								"box" : 								{
									"annotation" : "lowerr shmitt trigger bound.",
									"bgcolor" : [ 0.705882, 0.690196, 0.756863, 0.156863 ],
									"bordercolor" : [ 1.0, 1.0, 1.0, 1.0 ],
									"fontname" : "Verdana",
									"fontsize" : 10.0,
									"hint" : "Input maximum value",
									"htricolor" : [ 0.870588, 0.819608, 0.239216, 0.458824 ],
									"id" : "obj-63",
									"maxclass" : "flonum",
									"numinlets" : 1,
									"numoutlets" : 2,
									"outlettype" : [ "float", "bang" ],
									"parameter_enable" : 0,
									"patching_rect" : [ 1285.0, 342.0, 36.0, 19.0 ],
									"presentation" : 1,
									"presentation_rect" : [ 837.0, 33.0, 43.0, 19.0 ],
									"triangle" : 0,
									"triscale" : 0.9
								}

							}
, 							{
								"box" : 								{
									"fontname" : "Arial",
									"fontsize" : 12.0,
									"id" : "obj-61",
									"maxclass" : "newobj",
									"numinlets" : 1,
									"numoutlets" : 0,
									"patching_rect" : [ 1255.0, 429.0, 44.0, 20.0 ],
									"text" : "s drop"
								}

							}
, 							{
								"box" : 								{
									"fontname" : "Arial Bold",
									"fontsize" : 18.0,
									"id" : "obj-52",
									"maxclass" : "newobj",
									"numinlets" : 0,
									"numoutlets" : 0,
									"patcher" : 									{
										"fileversion" : 1,
										"appversion" : 										{
											"major" : 6,
											"minor" : 0,
											"revision" : 8
										}
,
										"rect" : [ 110.0, 55.0, 430.0, 311.0 ],
										"bglocked" : 0,
										"openinpresentation" : 1,
										"default_fontsize" : 12.0,
										"default_fontface" : 0,
										"default_fontname" : "Arial",
										"gridonopen" : 0,
										"gridsize" : [ 15.0, 15.0 ],
										"gridsnaponopen" : 0,
										"statusbarvisible" : 2,
										"toolbarvisible" : 0,
										"boxanimatetime" : 200,
										"imprint" : 0,
										"enablehscroll" : 0,
										"enablevscroll" : 0,
										"devicewidth" : 0.0,
										"description" : "",
										"digest" : "",
										"tags" : "",
										"boxes" : [ 											{
												"box" : 												{
													"fontname" : "Arial",
													"fontsize" : 13.0,
													"frgb" : 0.0,
													"id" : "obj-59",
													"maxclass" : "comment",
													"numinlets" : 1,
													"numoutlets" : 0,
													"patching_rect" : [ 127.0, 83.0, 88.0, 21.0 ],
													"presentation" : 1,
													"presentation_linecount" : 2,
													"presentation_rect" : [ 68.799965, 23.300014, 57.400002, 36.0 ],
													"text" : "Duration(ms)",
													"textcolor" : [ 0.501961, 0.501961, 0.501961, 1.0 ]
												}

											}
, 											{
												"box" : 												{
													"fontname" : "Arial",
													"fontsize" : 12.0,
													"id" : "obj-26",
													"maxclass" : "newobj",
													"numinlets" : 1,
													"numoutlets" : 1,
													"outlettype" : [ "" ],
													"patching_rect" : [ 362.0, 416.0, 72.0, 20.0 ],
													"text" : "loadmess 1"
												}

											}
, 											{
												"box" : 												{
													"args" : [ "f3" ],
													"id" : "obj-25",
													"maxclass" : "bpatcher",
													"name" : "jmod.nav.rand.maxpat",
													"numinlets" : 1,
													"numoutlets" : 2,
													"outlettype" : [ "", "" ],
													"patching_rect" : [ 629.0, 15.0, 150.0, 70.0 ],
													"presentation" : 1,
													"presentation_rect" : [ 313.400024, 68.300018, 150.0, 70.0 ]
												}

											}
, 											{
												"box" : 												{
													"args" : [ "f2" ],
													"id" : "obj-24",
													"maxclass" : "bpatcher",
													"name" : "jmod.nav.rand.maxpat",
													"numinlets" : 1,
													"numoutlets" : 2,
													"outlettype" : [ "", "" ],
													"patching_rect" : [ 463.0, 17.0, 150.0, 70.0 ],
													"presentation" : 1,
													"presentation_rect" : [ 161.199982, 68.300018, 150.0, 70.0 ]
												}

											}
, 											{
												"box" : 												{
													"args" : [ "f1" ],
													"id" : "obj-23",
													"maxclass" : "bpatcher",
													"name" : "jmod.nav.rand.maxpat",
													"numinlets" : 1,
													"numoutlets" : 2,
													"outlettype" : [ "", "" ],
													"patching_rect" : [ 295.0, 17.0, 150.0, 70.0 ],
													"presentation" : 1,
													"presentation_rect" : [ 9.399965, 68.300018, 150.0, 70.0 ]
												}

											}
, 											{
												"box" : 												{
													"fontname" : "Arial",
													"fontsize" : 12.0,
													"id" : "obj-22",
													"maxclass" : "newobj",
													"numinlets" : 0,
													"numoutlets" : 1,
													"outlettype" : [ "" ],
													"patching_rect" : [ 19.0, 0.0, 42.0, 20.0 ],
													"text" : "r drop"
												}

											}
, 											{
												"box" : 												{
													"args" : [ "myModule" ],
													"id" : "obj-21",
													"maxclass" : "bpatcher",
													"name" : "jmod.output~.maxpat",
													"numinlets" : 3,
													"numoutlets" : 1,
													"outlettype" : [ "" ],
													"patching_rect" : [ 48.499992, 333.0, 300.0, 140.0 ],
													"presentation" : 1,
													"presentation_rect" : [ 9.399965, 197.900024, 300.0, 140.0 ]
												}

											}
, 											{
												"box" : 												{
													"fontname" : "Arial",
													"fontsize" : 12.0,
													"id" : "obj-12",
													"maxclass" : "newobj",
													"numinlets" : 2,
													"numoutlets" : 1,
													"outlettype" : [ "signal" ],
													"patching_rect" : [ 362.0, 257.5, 417.0, 20.0 ],
													"text" : "*~ 0."
												}

											}
, 											{
												"box" : 												{
													"fontname" : "Arial",
													"fontsize" : 13.0,
													"id" : "obj-13",
													"maxclass" : "message",
													"numinlets" : 2,
													"numoutlets" : 1,
													"outlettype" : [ "" ],
													"patching_rect" : [ 760.0, 126.0, 45.0, 19.0 ],
													"presentation_rect" : [ 731.0, 131.0, 0.0, 0.0 ],
													"text" : "$1 20"
												}

											}
, 											{
												"box" : 												{
													"fontname" : "Arial",
													"fontsize" : 13.0,
													"id" : "obj-14",
													"maxclass" : "newobj",
													"numinlets" : 2,
													"numoutlets" : 2,
													"outlettype" : [ "signal", "bang" ],
													"patching_rect" : [ 760.0, 151.0, 40.0, 21.0 ],
													"presentation_rect" : [ 731.0, 156.0, 0.0, 0.0 ],
													"text" : "line~"
												}

											}
, 											{
												"box" : 												{
													"channels" : 1,
													"fontsize" : 13.0,
													"id" : "obj-15",
													"maxclass" : "live.gain~",
													"numinlets" : 1,
													"numoutlets" : 4,
													"orientation" : 1,
													"outlettype" : [ "signal", "", "float", "list" ],
													"parameter_enable" : 1,
													"patching_rect" : [ 362.0, 284.0, 119.0, 35.0 ],
													"presentation" : 1,
													"presentation_rect" : [ 327.400024, 162.900024, 136.0, 35.0 ],
													"saved_attribute_attributes" : 													{
														"valueof" : 														{
															"parameter_mmin" : -70.0,
															"parameter_initial" : [ -70 ],
															"parameter_type" : 0,
															"parameter_initial_enable" : 1,
															"parameter_shortname" : "live.gain~",
															"parameter_longname" : "live.gain~[2]",
															"parameter_unitstyle" : 4,
															"parameter_mmax" : 6.0
														}

													}
,
													"showname" : 0,
													"varname" : "live.gain~[2]"
												}

											}
, 											{
												"box" : 												{
													"fontname" : "Arial",
													"fontsize" : 13.0,
													"id" : "obj-16",
													"maxclass" : "flonum",
													"maximum" : 10000.0,
													"minimum" : 10.0,
													"numinlets" : 1,
													"numoutlets" : 2,
													"outlettype" : [ "float", "bang" ],
													"parameter_enable" : 1,
													"patching_rect" : [ 760.0, 101.0, 54.0, 21.0 ],
													"presentation" : 1,
													"presentation_rect" : [ 409.400024, 140.299988, 54.0, 21.0 ],
													"saved_attribute_attributes" : 													{
														"valueof" : 														{
															"parameter_initial" : [ 440.0 ],
															"parameter_type" : 3,
															"parameter_initial_enable" : 1,
															"parameter_invisible" : 1,
															"parameter_shortname" : "flonum",
															"parameter_longname" : "flonum[3]"
														}

													}
,
													"triscale" : 0.9,
													"varname" : "flonum[3]"
												}

											}
, 											{
												"box" : 												{
													"fontname" : "Arial",
													"fontsize" : 13.0,
													"id" : "obj-17",
													"maxclass" : "newobj",
													"numinlets" : 2,
													"numoutlets" : 1,
													"outlettype" : [ "signal" ],
													"patching_rect" : [ 760.0, 176.0, 69.0, 21.0 ],
													"presentation_rect" : [ 731.0, 181.0, 0.0, 0.0 ],
													"text" : "cycle~ 80."
												}

											}
, 											{
												"box" : 												{
													"fontname" : "Arial",
													"fontsize" : 12.0,
													"id" : "obj-5",
													"maxclass" : "newobj",
													"numinlets" : 2,
													"numoutlets" : 1,
													"outlettype" : [ "signal" ],
													"patching_rect" : [ 189.0, 257.5, 119.0, 20.0 ],
													"text" : "*~ 0."
												}

											}
, 											{
												"box" : 												{
													"fontname" : "Arial",
													"fontsize" : 13.0,
													"id" : "obj-6",
													"maxclass" : "message",
													"numinlets" : 2,
													"numoutlets" : 1,
													"outlettype" : [ "" ],
													"patching_rect" : [ 594.0, 126.0, 45.0, 19.0 ],
													"presentation_rect" : [ 663.0, 208.0, 0.0, 0.0 ],
													"text" : "$1 20"
												}

											}
, 											{
												"box" : 												{
													"fontname" : "Arial",
													"fontsize" : 13.0,
													"id" : "obj-7",
													"maxclass" : "newobj",
													"numinlets" : 2,
													"numoutlets" : 2,
													"outlettype" : [ "signal", "bang" ],
													"patching_rect" : [ 594.0, 151.0, 40.0, 21.0 ],
													"presentation_rect" : [ 663.0, 233.0, 0.0, 0.0 ],
													"text" : "line~"
												}

											}
, 											{
												"box" : 												{
													"channels" : 1,
													"fontsize" : 13.0,
													"id" : "obj-8",
													"maxclass" : "live.gain~",
													"numinlets" : 1,
													"numoutlets" : 4,
													"orientation" : 1,
													"outlettype" : [ "signal", "", "float", "list" ],
													"parameter_enable" : 1,
													"patching_rect" : [ 189.0, 284.0, 119.0, 35.0 ],
													"presentation" : 1,
													"presentation_rect" : [ 175.199982, 162.900024, 136.0, 35.0 ],
													"saved_attribute_attributes" : 													{
														"valueof" : 														{
															"parameter_mmin" : -70.0,
															"parameter_initial" : [ -70 ],
															"parameter_type" : 0,
															"parameter_initial_enable" : 1,
															"parameter_shortname" : "live.gain~",
															"parameter_longname" : "live.gain~[1]",
															"parameter_unitstyle" : 4,
															"parameter_mmax" : 6.0
														}

													}
,
													"showname" : 0,
													"varname" : "live.gain~[1]"
												}

											}
, 											{
												"box" : 												{
													"fontname" : "Arial",
													"fontsize" : 13.0,
													"id" : "obj-10",
													"maxclass" : "flonum",
													"maximum" : 10000.0,
													"minimum" : 10.0,
													"numinlets" : 1,
													"numoutlets" : 2,
													"outlettype" : [ "float", "bang" ],
													"parameter_enable" : 1,
													"patching_rect" : [ 594.0, 101.0, 54.0, 21.0 ],
													"presentation" : 1,
													"presentation_rect" : [ 257.200012, 138.299988, 54.0, 21.0 ],
													"saved_attribute_attributes" : 													{
														"valueof" : 														{
															"parameter_initial" : [ 440.0 ],
															"parameter_type" : 3,
															"parameter_initial_enable" : 1,
															"parameter_invisible" : 1,
															"parameter_shortname" : "flonum",
															"parameter_longname" : "flonum[2]"
														}

													}
,
													"triscale" : 0.9,
													"varname" : "flonum[2]"
												}

											}
, 											{
												"box" : 												{
													"fontname" : "Arial",
													"fontsize" : 13.0,
													"id" : "obj-11",
													"maxclass" : "newobj",
													"numinlets" : 2,
													"numoutlets" : 1,
													"outlettype" : [ "signal" ],
													"patching_rect" : [ 594.0, 176.0, 69.0, 21.0 ],
													"text" : "cycle~ 80."
												}

											}
, 											{
												"box" : 												{
													"id" : "obj-31",
													"maxclass" : "preset",
													"numinlets" : 1,
													"numoutlets" : 4,
													"outlettype" : [ "preset", "int", "preset", "int" ],
													"patching_rect" : [ 362.0, 443.0, 56.0, 30.0 ],
													"presentation" : 1,
													"presentation_rect" : [ 327.400024, 269.399963, 56.0, 30.0 ],
													"preset_data" : [ 														{
															"number" : 1,
															"data" : [ 5, "obj-44", "number", "int", 1, 5, "obj-43", "number", "int", 180, 5, "obj-42", "number", "int", 718, 5, "obj-41", "flonum", "float", 0.7, 5, "obj-38", "flonum", "float", 82.718239, 5, "obj-36", "live.gain~", "float", -12.278714, 5, "obj-32", "number", "int", 471, 5, "obj-10", "flonum", "float", 83.459999, 5, "obj-8", "live.gain~", "float", -15.250927, 5, "obj-16", "flonum", "float", 73.691704, 5, "obj-15", "live.gain~", "float", -11.939156 ]
														}
 ]
												}

											}
, 											{
												"box" : 												{
													"fontname" : "Arial",
													"fontsize" : 12.0,
													"id" : "obj-32",
													"maxclass" : "number",
													"numinlets" : 1,
													"numoutlets" : 2,
													"outlettype" : [ "int", "bang" ],
													"parameter_enable" : 0,
													"patching_rect" : [ 76.999992, 83.0, 65.0, 20.0 ],
													"presentation" : 1,
													"presentation_rect" : [ 68.799965, 2.300012, 50.0, 20.0 ]
												}

											}
, 											{
												"box" : 												{
													"fontname" : "Arial",
													"fontsize" : 12.0,
													"id" : "obj-33",
													"maxclass" : "newobj",
													"numinlets" : 2,
													"numoutlets" : 1,
													"outlettype" : [ "signal" ],
													"patching_rect" : [ 19.0, 257.5, 119.0, 20.0 ],
													"text" : "*~ 0."
												}

											}
, 											{
												"box" : 												{
													"fontname" : "Arial",
													"fontsize" : 13.0,
													"id" : "obj-34",
													"maxclass" : "message",
													"numinlets" : 2,
													"numoutlets" : 1,
													"outlettype" : [ "" ],
													"patching_rect" : [ 426.0, 126.0, 45.0, 19.0 ],
													"text" : "$1 20"
												}

											}
, 											{
												"box" : 												{
													"fontname" : "Arial",
													"fontsize" : 13.0,
													"id" : "obj-35",
													"maxclass" : "newobj",
													"numinlets" : 2,
													"numoutlets" : 2,
													"outlettype" : [ "signal", "bang" ],
													"patching_rect" : [ 426.0, 151.0, 40.0, 21.0 ],
													"text" : "line~"
												}

											}
, 											{
												"box" : 												{
													"channels" : 1,
													"fontsize" : 13.0,
													"id" : "obj-36",
													"maxclass" : "live.gain~",
													"numinlets" : 1,
													"numoutlets" : 4,
													"orientation" : 1,
													"outlettype" : [ "signal", "", "float", "list" ],
													"parameter_enable" : 1,
													"patching_rect" : [ 18.999994, 284.0, 119.0, 35.0 ],
													"presentation" : 1,
													"presentation_rect" : [ 23.399973, 162.900024, 136.0, 35.0 ],
													"saved_attribute_attributes" : 													{
														"valueof" : 														{
															"parameter_mmin" : -70.0,
															"parameter_initial" : [ -70 ],
															"parameter_type" : 0,
															"parameter_initial_enable" : 1,
															"parameter_shortname" : "live.gain~",
															"parameter_longname" : "live.gain~",
															"parameter_unitstyle" : 4,
															"parameter_mmax" : 6.0
														}

													}
,
													"showname" : 0,
													"varname" : "live.gain~"
												}

											}
, 											{
												"box" : 												{
													"fontname" : "Arial",
													"fontsize" : 13.0,
													"id" : "obj-38",
													"maxclass" : "flonum",
													"maximum" : 10000.0,
													"minimum" : 10.0,
													"numinlets" : 1,
													"numoutlets" : 2,
													"outlettype" : [ "float", "bang" ],
													"parameter_enable" : 1,
													"patching_rect" : [ 426.0, 101.0, 54.0, 21.0 ],
													"presentation" : 1,
													"presentation_rect" : [ 105.399971, 138.299988, 54.0, 21.0 ],
													"saved_attribute_attributes" : 													{
														"valueof" : 														{
															"parameter_initial" : [ 440.0 ],
															"parameter_type" : 3,
															"parameter_initial_enable" : 1,
															"parameter_invisible" : 1,
															"parameter_shortname" : "flonum",
															"parameter_longname" : "flonum[1]"
														}

													}
,
													"triscale" : 0.9,
													"varname" : "flonum[1]"
												}

											}
, 											{
												"box" : 												{
													"fontname" : "Arial",
													"fontsize" : 13.0,
													"id" : "obj-39",
													"maxclass" : "newobj",
													"numinlets" : 2,
													"numoutlets" : 1,
													"outlettype" : [ "signal" ],
													"patching_rect" : [ 426.0, 176.0, 77.0, 21.0 ],
													"text" : "cycle~ 140."
												}

											}
, 											{
												"box" : 												{
													"bgcolor" : [ 1.0, 1.0, 1.0, 1.0 ],
													"border" : 1.75,
													"bordercolor" : [ 0.501961, 0.501961, 0.501961, 1.0 ],
													"id" : "obj-40",
													"local" : 1,
													"maxclass" : "ezdac~",
													"numinlets" : 2,
													"numoutlets" : 0,
													"patching_rect" : [ 110.999992, 17.0, 44.0, 44.0 ],
													"presentation" : 1,
													"presentation_rect" : [ 400.399963, 269.399963, 37.400002, 37.400002 ],
													"prototypename" : "helpfile"
												}

											}
, 											{
												"box" : 												{
													"fontname" : "Arial",
													"fontsize" : 13.0,
													"id" : "obj-41",
													"maxclass" : "flonum",
													"maximum" : 1.0,
													"minimum" : 0.0,
													"numinlets" : 1,
													"numoutlets" : 2,
													"outlettype" : [ "float", "bang" ],
													"parameter_enable" : 1,
													"patching_rect" : [ 258.25, 125.0, 69.0, 21.0 ],
													"presentation" : 1,
													"presentation_rect" : [ 300.599976, 2.300012, 50.0, 21.0 ],
													"saved_attribute_attributes" : 													{
														"valueof" : 														{
															"parameter_initial" : [ 0.8 ],
															"parameter_type" : 0,
															"parameter_initial_enable" : 1,
															"parameter_invisible" : 1,
															"parameter_shortname" : "flonum",
															"parameter_longname" : "flonum"
														}

													}
,
													"varname" : "flonum"
												}

											}
, 											{
												"box" : 												{
													"fontname" : "Arial",
													"fontsize" : 13.0,
													"id" : "obj-42",
													"maxclass" : "number",
													"numinlets" : 1,
													"numoutlets" : 2,
													"outlettype" : [ "int", "bang" ],
													"parameter_enable" : 1,
													"patching_rect" : [ 336.0, 125.0, 63.0, 21.0 ],
													"presentation" : 1,
													"presentation_rect" : [ 391.899963, 2.300012, 50.0, 21.0 ],
													"saved_attribute_attributes" : 													{
														"valueof" : 														{
															"parameter_initial" : [ 1000 ],
															"parameter_type" : 3,
															"parameter_initial_enable" : 1,
															"parameter_invisible" : 1,
															"parameter_shortname" : "number[2]",
															"parameter_longname" : "number[4]"
														}

													}
,
													"varname" : "number[3]"
												}

											}
, 											{
												"box" : 												{
													"fontname" : "Arial",
													"fontsize" : 13.0,
													"id" : "obj-43",
													"maxclass" : "number",
													"numinlets" : 1,
													"numoutlets" : 2,
													"outlettype" : [ "int", "bang" ],
													"parameter_enable" : 1,
													"patching_rect" : [ 181.5, 125.0, 63.0, 21.0 ],
													"presentation" : 1,
													"presentation_rect" : [ 221.799988, 2.300012, 50.0, 21.0 ],
													"saved_attribute_attributes" : 													{
														"valueof" : 														{
															"parameter_initial" : [ 100 ],
															"parameter_type" : 3,
															"parameter_initial_enable" : 1,
															"parameter_invisible" : 1,
															"parameter_shortname" : "number[2]",
															"parameter_longname" : "number[2]"
														}

													}
,
													"varname" : "number[2]"
												}

											}
, 											{
												"box" : 												{
													"fontname" : "Arial",
													"fontsize" : 13.0,
													"id" : "obj-44",
													"maxclass" : "number",
													"numinlets" : 1,
													"numoutlets" : 2,
													"outlettype" : [ "int", "bang" ],
													"parameter_enable" : 1,
													"patching_rect" : [ 99.749992, 125.0, 56.0, 21.0 ],
													"presentation" : 1,
													"presentation_rect" : [ 145.799973, 2.300012, 50.0, 21.0 ],
													"saved_attribute_attributes" : 													{
														"valueof" : 														{
															"parameter_initial" : [ 10 ],
															"parameter_type" : 3,
															"parameter_initial_enable" : 1,
															"parameter_invisible" : 1,
															"parameter_shortname" : "number[2]",
															"parameter_longname" : "number[3]"
														}

													}
,
													"varname" : "number[1]"
												}

											}
, 											{
												"box" : 												{
													"fontname" : "Arial",
													"fontsize" : 13.0,
													"frgb" : 0.0,
													"id" : "obj-45",
													"linecount" : 2,
													"maxclass" : "comment",
													"numinlets" : 1,
													"numoutlets" : 0,
													"patching_rect" : [ 107.999992, 150.0, 47.0, 36.0 ],
													"presentation" : 1,
													"presentation_linecount" : 2,
													"presentation_rect" : [ 145.799973, 23.300014, 49.999985, 36.0 ],
													"text" : "attack (ms)",
													"textcolor" : [ 0.501961, 0.501961, 0.501961, 1.0 ]
												}

											}
, 											{
												"box" : 												{
													"fontname" : "Arial",
													"fontsize" : 13.0,
													"frgb" : 0.0,
													"id" : "obj-19",
													"linecount" : 2,
													"maxclass" : "comment",
													"numinlets" : 1,
													"numoutlets" : 0,
													"patching_rect" : [ 190.5, 150.0, 54.0, 36.0 ],
													"presentation" : 1,
													"presentation_linecount" : 2,
													"presentation_rect" : [ 221.799988, 23.300014, 49.999985, 36.0 ],
													"text" : "decay (ms)",
													"textcolor" : [ 0.501961, 0.501961, 0.501961, 1.0 ]
												}

											}
, 											{
												"box" : 												{
													"fontname" : "Arial",
													"fontsize" : 13.0,
													"frgb" : 0.0,
													"id" : "obj-46",
													"maxclass" : "comment",
													"numinlets" : 1,
													"numoutlets" : 0,
													"patching_rect" : [ 267.0, 150.0, 120.0, 21.0 ],
													"presentation" : 1,
													"presentation_linecount" : 2,
													"presentation_rect" : [ 300.599976, 23.300014, 72.900009, 36.0 ],
													"text" : "sustain gain (0 -1.)",
													"textcolor" : [ 0.501961, 0.501961, 0.501961, 1.0 ]
												}

											}
, 											{
												"box" : 												{
													"fontname" : "Arial",
													"fontsize" : 13.0,
													"frgb" : 0.0,
													"id" : "obj-47",
													"linecount" : 2,
													"maxclass" : "comment",
													"numinlets" : 1,
													"numoutlets" : 0,
													"patching_rect" : [ 346.0, 150.0, 45.0, 36.0 ],
													"presentation" : 1,
													"presentation_linecount" : 2,
													"presentation_rect" : [ 391.899963, 23.300014, 50.0, 36.0 ],
													"text" : "release (ms)",
													"textcolor" : [ 0.501961, 0.501961, 0.501961, 1.0 ]
												}

											}
, 											{
												"box" : 												{
													"id" : "obj-48",
													"maxclass" : "button",
													"numinlets" : 1,
													"numoutlets" : 1,
													"outlettype" : [ "bang" ],
													"patching_rect" : [ 18.999994, 27.0, 38.0, 38.0 ],
													"presentation" : 1,
													"presentation_rect" : [ 15.999971, 10.700025, 38.0, 38.0 ]
												}

											}
, 											{
												"box" : 												{
													"fontname" : "Arial",
													"fontsize" : 13.0,
													"id" : "obj-49",
													"maxclass" : "newobj",
													"numinlets" : 2,
													"numoutlets" : 1,
													"outlettype" : [ "" ],
													"patching_rect" : [ 19.0, 110.0, 77.0, 21.0 ],
													"text" : "pipe 300"
												}

											}
, 											{
												"box" : 												{
													"fontname" : "Arial",
													"fontsize" : 13.0,
													"id" : "obj-50",
													"maxclass" : "newobj",
													"numinlets" : 1,
													"numoutlets" : 2,
													"outlettype" : [ "int", "int" ],
													"patching_rect" : [ 19.0, 79.0, 36.0, 21.0 ],
													"text" : "t 0 1"
												}

											}
, 											{
												"box" : 												{
													"fontname" : "Arial",
													"fontsize" : 13.0,
													"id" : "obj-51",
													"maxclass" : "newobj",
													"numinlets" : 5,
													"numoutlets" : 4,
													"outlettype" : [ "signal", "signal", "", "" ],
													"patching_rect" : [ 19.0, 192.0, 336.0, 21.0 ],
													"text" : "adsr~ 10 100 0.3 1000 @retrigger 100"
												}

											}
 ],
										"lines" : [ 											{
												"patchline" : 												{
													"destination" : [ "obj-6", 0 ],
													"disabled" : 0,
													"hidden" : 0,
													"source" : [ "obj-10", 0 ]
												}

											}
, 											{
												"patchline" : 												{
													"destination" : [ "obj-5", 1 ],
													"disabled" : 0,
													"hidden" : 0,
													"source" : [ "obj-11", 0 ]
												}

											}
, 											{
												"patchline" : 												{
													"destination" : [ "obj-15", 0 ],
													"disabled" : 0,
													"hidden" : 0,
													"source" : [ "obj-12", 0 ]
												}

											}
, 											{
												"patchline" : 												{
													"destination" : [ "obj-14", 0 ],
													"disabled" : 0,
													"hidden" : 0,
													"source" : [ "obj-13", 0 ]
												}

											}
, 											{
												"patchline" : 												{
													"destination" : [ "obj-17", 0 ],
													"disabled" : 0,
													"hidden" : 0,
													"source" : [ "obj-14", 0 ]
												}

											}
, 											{
												"patchline" : 												{
													"destination" : [ "obj-21", 2 ],
													"disabled" : 0,
													"hidden" : 0,
													"source" : [ "obj-15", 0 ]
												}

											}
, 											{
												"patchline" : 												{
													"destination" : [ "obj-21", 1 ],
													"disabled" : 0,
													"hidden" : 0,
													"source" : [ "obj-15", 0 ]
												}

											}
, 											{
												"patchline" : 												{
													"destination" : [ "obj-13", 0 ],
													"disabled" : 0,
													"hidden" : 0,
													"source" : [ "obj-16", 0 ]
												}

											}
, 											{
												"patchline" : 												{
													"destination" : [ "obj-12", 1 ],
													"disabled" : 0,
													"hidden" : 0,
													"source" : [ "obj-17", 0 ]
												}

											}
, 											{
												"patchline" : 												{
													"destination" : [ "obj-48", 0 ],
													"disabled" : 0,
													"hidden" : 0,
													"source" : [ "obj-22", 0 ]
												}

											}
, 											{
												"patchline" : 												{
													"destination" : [ "obj-38", 0 ],
													"disabled" : 0,
													"hidden" : 0,
													"source" : [ "obj-23", 1 ]
												}

											}
, 											{
												"patchline" : 												{
													"destination" : [ "obj-10", 0 ],
													"disabled" : 0,
													"hidden" : 0,
													"source" : [ "obj-24", 1 ]
												}

											}
, 											{
												"patchline" : 												{
													"destination" : [ "obj-16", 0 ],
													"disabled" : 0,
													"hidden" : 0,
													"source" : [ "obj-25", 1 ]
												}

											}
, 											{
												"patchline" : 												{
													"destination" : [ "obj-31", 0 ],
													"disabled" : 0,
													"hidden" : 0,
													"source" : [ "obj-26", 0 ]
												}

											}
, 											{
												"patchline" : 												{
													"destination" : [ "obj-49", 1 ],
													"disabled" : 0,
													"hidden" : 0,
													"source" : [ "obj-32", 0 ]
												}

											}
, 											{
												"patchline" : 												{
													"destination" : [ "obj-36", 0 ],
													"disabled" : 0,
													"hidden" : 0,
													"source" : [ "obj-33", 0 ]
												}

											}
, 											{
												"patchline" : 												{
													"destination" : [ "obj-35", 0 ],
													"disabled" : 0,
													"hidden" : 0,
													"source" : [ "obj-34", 0 ]
												}

											}
, 											{
												"patchline" : 												{
													"destination" : [ "obj-39", 0 ],
													"disabled" : 0,
													"hidden" : 0,
													"source" : [ "obj-35", 0 ]
												}

											}
, 											{
												"patchline" : 												{
													"destination" : [ "obj-21", 2 ],
													"disabled" : 0,
													"hidden" : 0,
													"source" : [ "obj-36", 0 ]
												}

											}
, 											{
												"patchline" : 												{
													"destination" : [ "obj-21", 1 ],
													"disabled" : 0,
													"hidden" : 0,
													"source" : [ "obj-36", 0 ]
												}

											}
, 											{
												"patchline" : 												{
													"destination" : [ "obj-34", 0 ],
													"disabled" : 0,
													"hidden" : 0,
													"source" : [ "obj-38", 0 ]
												}

											}
, 											{
												"patchline" : 												{
													"destination" : [ "obj-33", 1 ],
													"disabled" : 0,
													"hidden" : 0,
													"source" : [ "obj-39", 0 ]
												}

											}
, 											{
												"patchline" : 												{
													"destination" : [ "obj-51", 3 ],
													"disabled" : 0,
													"hidden" : 0,
													"source" : [ "obj-41", 0 ]
												}

											}
, 											{
												"patchline" : 												{
													"destination" : [ "obj-51", 4 ],
													"disabled" : 0,
													"hidden" : 0,
													"source" : [ "obj-42", 0 ]
												}

											}
, 											{
												"patchline" : 												{
													"destination" : [ "obj-51", 2 ],
													"disabled" : 0,
													"hidden" : 0,
													"source" : [ "obj-43", 0 ]
												}

											}
, 											{
												"patchline" : 												{
													"destination" : [ "obj-51", 1 ],
													"disabled" : 0,
													"hidden" : 0,
													"source" : [ "obj-44", 0 ]
												}

											}
, 											{
												"patchline" : 												{
													"destination" : [ "obj-50", 0 ],
													"disabled" : 0,
													"hidden" : 0,
													"source" : [ "obj-48", 0 ]
												}

											}
, 											{
												"patchline" : 												{
													"destination" : [ "obj-51", 0 ],
													"disabled" : 0,
													"hidden" : 0,
													"source" : [ "obj-49", 0 ]
												}

											}
, 											{
												"patchline" : 												{
													"destination" : [ "obj-8", 0 ],
													"disabled" : 0,
													"hidden" : 0,
													"source" : [ "obj-5", 0 ]
												}

											}
, 											{
												"patchline" : 												{
													"destination" : [ "obj-49", 0 ],
													"disabled" : 0,
													"hidden" : 0,
													"source" : [ "obj-50", 0 ]
												}

											}
, 											{
												"patchline" : 												{
													"destination" : [ "obj-51", 0 ],
													"disabled" : 0,
													"hidden" : 0,
													"source" : [ "obj-50", 1 ]
												}

											}
, 											{
												"patchline" : 												{
													"destination" : [ "obj-12", 0 ],
													"disabled" : 0,
													"hidden" : 0,
													"source" : [ "obj-51", 0 ]
												}

											}
, 											{
												"patchline" : 												{
													"destination" : [ "obj-33", 0 ],
													"disabled" : 0,
													"hidden" : 0,
													"source" : [ "obj-51", 0 ]
												}

											}
, 											{
												"patchline" : 												{
													"destination" : [ "obj-5", 0 ],
													"disabled" : 0,
													"hidden" : 0,
													"source" : [ "obj-51", 0 ]
												}

											}
, 											{
												"patchline" : 												{
													"destination" : [ "obj-7", 0 ],
													"disabled" : 0,
													"hidden" : 0,
													"source" : [ "obj-6", 0 ]
												}

											}
, 											{
												"patchline" : 												{
													"destination" : [ "obj-11", 0 ],
													"disabled" : 0,
													"hidden" : 0,
													"source" : [ "obj-7", 0 ]
												}

											}
, 											{
												"patchline" : 												{
													"destination" : [ "obj-21", 2 ],
													"disabled" : 0,
													"hidden" : 0,
													"source" : [ "obj-8", 0 ]
												}

											}
, 											{
												"patchline" : 												{
													"destination" : [ "obj-21", 1 ],
													"disabled" : 0,
													"hidden" : 0,
													"source" : [ "obj-8", 0 ]
												}

											}
 ]
									}
,
									"patching_rect" : [ 1148.0, 476.5, 119.0, 27.0 ],
									"presentation" : 1,
									"presentation_rect" : [ 743.0, 79.0, 126.0, 27.0 ],
									"saved_object_attributes" : 									{
										"default_fontface" : 0,
										"default_fontname" : "Arial",
										"default_fontsize" : 12.0,
										"description" : "",
										"digest" : "",
										"fontface" : 0,
										"fontname" : "Arial",
										"fontsize" : 12.0,
										"globalpatchername" : "",
										"tags" : ""
									}
,
									"text" : "p adsrSynth"
								}

							}
, 							{
								"box" : 								{
									"fontname" : "Arial",
									"fontsize" : 12.0,
									"id" : "obj-17",
									"maxclass" : "newobj",
									"numinlets" : 1,
									"numoutlets" : 2,
									"outlettype" : [ "signal", "" ],
									"patching_rect" : [ 814.5, 576.0, 94.0, 20.0 ],
									"text" : "jcom.unpack 1"
								}

							}
, 							{
								"box" : 								{
									"args" : [ "myModule" ],
									"id" : "obj-16",
									"maxclass" : "bpatcher",
									"name" : "jmod.output~.maxpat",
									"numinlets" : 3,
									"numoutlets" : 1,
									"outlettype" : [ "" ],
									"patching_rect" : [ 674.0, 601.0, 300.0, 140.0 ],
									"presentation" : 1,
									"presentation_rect" : [ 591.0, 394.5, 300.0, 140.0 ]
								}

							}
, 							{
								"box" : 								{
									"args" : [ "myModule" ],
									"id" : "obj-14",
									"maxclass" : "bpatcher",
									"name" : "jmod.nav.sur.rogs~.maxpat",
									"numinlets" : 1,
									"numoutlets" : 2,
									"outlettype" : [ "", "audio.connect" ],
									"patching_rect" : [ 674.0, 426.5, 300.0, 140.0 ],
									"presentation" : 1,
									"presentation_rect" : [ 591.0, 254.5, 300.0, 140.0 ]
								}

							}
, 							{
								"box" : 								{
									"args" : [ 2 ],
									"id" : "obj-13",
									"maxclass" : "bpatcher",
									"name" : "nav.input~.maxpat",
									"numinlets" : 1,
									"numoutlets" : 2,
									"outlettype" : [ "signal", "signal" ],
									"patching_rect" : [ 1255.0, 6.0, 27.0, 22.0 ],
									"presentation" : 1,
									"presentation_rect" : [ 591.0, 6.0, 27.0, 22.0 ]
								}

							}
, 							{
								"box" : 								{
									"args" : [ "micENV" ],
									"id" : "obj-12",
									"maxclass" : "bpatcher",
									"name" : "jmod.nav.env~.maxpat",
									"numinlets" : 2,
									"numoutlets" : 2,
									"outlettype" : [ "", "" ],
									"patching_rect" : [ 1124.0, 28.0, 150.0, 245.0 ],
									"presentation" : 1,
									"presentation_rect" : [ 591.0, 6.0, 150.0, 245.0 ]
								}

							}
, 							{
								"box" : 								{
									"args" : [ "myModule" ],
									"id" : "obj-6",
									"maxclass" : "bpatcher",
									"name" : "jmod.cueManager.maxpat",
									"numinlets" : 1,
									"numoutlets" : 1,
									"outlettype" : [ "" ],
									"patching_rect" : [ 475.0, 765.0, 300.0, 70.0 ],
									"presentation" : 1,
									"presentation_rect" : [ 7.0, 634.0, 300.0, 70.0 ]
								}

							}
, 							{
								"box" : 								{
									"fontname" : "Arial",
									"fontsize" : 10.0,
									"id" : "obj-5",
									"linecount" : 2,
									"maxclass" : "message",
									"numinlets" : 2,
									"numoutlets" : 1,
									"outlettype" : [ "" ],
									"patching_rect" : [ 139.0, 253.0, 89.0, 27.0 ],
									"text" : ";\r2liveRogs Rec $1"
								}

							}
, 							{
								"box" : 								{
									"border" : 1,
									"id" : "obj-4",
									"maxclass" : "bpatcher",
									"name" : "nav.smartGate~.maxpat",
									"numinlets" : 3,
									"numoutlets" : 1,
									"outlettype" : [ "int" ],
									"patching_rect" : [ 139.0, 168.0, 150.0, 85.0 ],
									"presentation" : 1,
									"presentation_rect" : [ 307.0, 6.0, 150.0, 85.0 ]
								}

							}
, 							{
								"box" : 								{
									"args" : [ "Stretch" ],
									"id" : "obj-27",
									"maxclass" : "bpatcher",
									"name" : "jmod.nav.rand.maxpat",
									"numinlets" : 1,
									"numoutlets" : 2,
									"outlettype" : [ "", "" ],
									"patching_rect" : [ 325.0, 590.0, 150.0, 70.0 ],
									"presentation" : 1,
									"presentation_rect" : [ 314.5, 410.0, 150.0, 70.0 ]
								}

							}
, 							{
								"box" : 								{
									"fontname" : "Arial",
									"fontsize" : 10.0,
									"id" : "obj-28",
									"linecount" : 2,
									"maxclass" : "message",
									"numinlets" : 2,
									"numoutlets" : 1,
									"outlettype" : [ "" ],
									"patching_rect" : [ 371.0, 660.0, 103.0, 27.0 ],
									"text" : ";\r2liveRogs Stretch $1"
								}

							}
, 							{
								"box" : 								{
									"args" : [ "onsetVar" ],
									"id" : "obj-25",
									"maxclass" : "bpatcher",
									"name" : "jmod.nav.rand.maxpat",
									"numinlets" : 1,
									"numoutlets" : 2,
									"outlettype" : [ "", "" ],
									"patching_rect" : [ 325.0, 475.0, 150.0, 70.0 ],
									"presentation" : 1,
									"presentation_rect" : [ 314.5, 336.0, 150.0, 70.0 ]
								}

							}
, 							{
								"box" : 								{
									"fontname" : "Arial",
									"fontsize" : 10.0,
									"id" : "obj-26",
									"linecount" : 2,
									"maxclass" : "message",
									"numinlets" : 2,
									"numoutlets" : 1,
									"outlettype" : [ "" ],
									"patching_rect" : [ 362.0, 545.0, 113.0, 27.0 ],
									"text" : ";\r2liveRogs OnsetVar $1"
								}

							}
, 							{
								"box" : 								{
									"args" : [ "gSize" ],
									"id" : "obj-23",
									"maxclass" : "bpatcher",
									"name" : "jmod.nav.rand.maxpat",
									"numinlets" : 1,
									"numoutlets" : 2,
									"outlettype" : [ "", "" ],
									"patching_rect" : [ 479.5, 590.0, 150.0, 70.0 ],
									"presentation" : 1,
									"presentation_rect" : [ 314.5, 557.5, 150.0, 70.0 ]
								}

							}
, 							{
								"box" : 								{
									"fontname" : "Arial",
									"fontsize" : 10.0,
									"id" : "obj-24",
									"linecount" : 2,
									"maxclass" : "message",
									"numinlets" : 2,
									"numoutlets" : 1,
									"outlettype" : [ "" ],
									"patching_rect" : [ 514.5, 660.0, 115.0, 27.0 ],
									"text" : ";\r2liveRogs GrainSize $1"
								}

							}
, 							{
								"box" : 								{
									"fontname" : "Arial",
									"fontsize" : 12.0,
									"id" : "obj-20",
									"maxclass" : "newobj",
									"numinlets" : 0,
									"numoutlets" : 1,
									"outlettype" : [ "" ],
									"patching_rect" : [ 566.5, 253.0, 71.0, 20.0 ],
									"text" : "r 2liveRogs"
								}

							}
, 							{
								"box" : 								{
									"args" : [ "pVar" ],
									"id" : "obj-18",
									"maxclass" : "bpatcher",
									"name" : "jmod.nav.rand.maxpat",
									"numinlets" : 1,
									"numoutlets" : 2,
									"outlettype" : [ "", "" ],
									"patching_rect" : [ 479.5, 476.5, 150.0, 70.0 ],
									"presentation" : 1,
									"presentation_rect" : [ 314.5, 484.0, 150.0, 70.0 ]
								}

							}
, 							{
								"box" : 								{
									"fontname" : "Arial",
									"fontsize" : 10.0,
									"id" : "obj-15",
									"linecount" : 2,
									"maxclass" : "message",
									"numinlets" : 2,
									"numoutlets" : 1,
									"outlettype" : [ "" ],
									"patching_rect" : [ 521.5, 545.0, 108.0, 27.0 ],
									"text" : ";\r2liveRogs PitchVar $1"
								}

							}
, 							{
								"box" : 								{
									"args" : [ "myModule" ],
									"id" : "obj-11",
									"maxclass" : "bpatcher",
									"name" : "jmod.tap.reverb~.maxpat",
									"numinlets" : 3,
									"numoutlets" : 3,
									"outlettype" : [ "", "signal", "signal" ],
									"patching_rect" : [ 9.5, 551.0, 300.0, 70.0 ],
									"presentation" : 1,
									"presentation_rect" : [ 7.0, 412.0, 300.0, 70.0 ]
								}

							}
, 							{
								"box" : 								{
									"bgmode" : 1,
									"id" : "obj-10",
									"maxclass" : "bpatcher",
									"name" : "jmod.filter~.maxpat",
									"numinlets" : 3,
									"numoutlets" : 3,
									"outlettype" : [ "", "signal", "signal" ],
									"patching_rect" : [ 9.5, 475.0, 300.0, 70.0 ],
									"presentation" : 1,
									"presentation_rect" : [ 7.0, 336.0, 300.0, 70.0 ]
								}

							}
, 							{
								"box" : 								{
									"args" : [ "myModule" ],
									"id" : "obj-8",
									"maxclass" : "bpatcher",
									"name" : "jmod.output~.maxpat",
									"numinlets" : 3,
									"numoutlets" : 1,
									"outlettype" : [ "" ],
									"patching_rect" : [ 9.5, 635.0, 300.0, 140.0 ],
									"presentation" : 1,
									"presentation_rect" : [ 7.0, 487.5, 300.0, 140.0 ]
								}

							}
, 							{
								"box" : 								{
									"args" : [ "myModule" ],
									"id" : "obj-2",
									"maxclass" : "bpatcher",
									"name" : "jmod.input~.maxpat",
									"numinlets" : 1,
									"numoutlets" : 3,
									"outlettype" : [ "", "signal", "signal" ],
									"patching_rect" : [ 7.0, 6.0, 300.0, 140.0 ],
									"presentation" : 1,
									"presentation_rect" : [ 7.0, 6.0, 300.0, 140.0 ]
								}

							}
, 							{
								"box" : 								{
									"autorestore" : "SoundBox.RogsLivePresets.json",
									"color" : [ 0.239216, 0.643137, 0.709804, 1.0 ],
									"fontname" : "Arial Bold",
									"fontsize" : 10.0,
									"hidden" : 1,
									"id" : "obj-7",
									"linecount" : 3,
									"maxclass" : "newobj",
									"numinlets" : 1,
									"numoutlets" : 1,
									"outlettype" : [ "" ],
									"patching_rect" : [ 342.0, 102.0, 160.0, 40.0 ],
									"saved_object_attributes" : 									{
										"client_rect" : [ 10, 59, 650, 299 ],
										"parameter_enable" : 0,
										"storage_rect" : [ 10, 59, 737, 424 ]
									}
,
									"text" : "pattrstorage SoundBox.RogsLivePresets @savemode 2",
									"varname" : "SoundBox.RogsLivePresets"
								}

							}
, 							{
								"box" : 								{
									"id" : "obj-3",
									"maxclass" : "bpatcher",
									"name" : "FMA.Preset.maxpat",
									"numinlets" : 2,
									"numoutlets" : 3,
									"outlettype" : [ "", "int", "int" ],
									"patching_rect" : [ 342.0, 14.0, 160.0, 88.0 ],
									"presentation" : 1,
									"presentation_rect" : [ 307.0, 87.0, 160.0, 59.0 ]
								}

							}
, 							{
								"box" : 								{
									"id" : "obj-1",
									"maxclass" : "bpatcher",
									"name" : "SoundBox.RogsLiveDevice.maxpat",
									"numinlets" : 3,
									"numoutlets" : 3,
									"outlettype" : [ "signal", "signal", "" ],
									"patching_rect" : [ 9.5, 294.0, 576.0, 168.0 ],
									"presentation" : 1,
									"presentation_rect" : [ 7.0, 155.0, 576.0, 168.0 ],
									"varname" : "SoundBox.RogsLiveDevice"
								}

							}
 ],
						"lines" : [ 							{
								"patchline" : 								{
									"destination" : [ "obj-10", 2 ],
									"disabled" : 0,
									"hidden" : 0,
									"source" : [ "obj-1", 1 ]
								}

							}
, 							{
								"patchline" : 								{
									"destination" : [ "obj-10", 1 ],
									"disabled" : 0,
									"hidden" : 0,
									"source" : [ "obj-1", 0 ]
								}

							}
, 							{
								"patchline" : 								{
									"destination" : [ "obj-11", 2 ],
									"disabled" : 0,
									"hidden" : 0,
									"source" : [ "obj-10", 2 ]
								}

							}
, 							{
								"patchline" : 								{
									"destination" : [ "obj-11", 1 ],
									"disabled" : 0,
									"hidden" : 0,
									"source" : [ "obj-10", 1 ]
								}

							}
, 							{
								"patchline" : 								{
									"destination" : [ "obj-8", 2 ],
									"disabled" : 0,
									"hidden" : 0,
									"source" : [ "obj-11", 2 ]
								}

							}
, 							{
								"patchline" : 								{
									"destination" : [ "obj-8", 1 ],
									"disabled" : 0,
									"hidden" : 0,
									"source" : [ "obj-11", 1 ]
								}

							}
, 							{
								"patchline" : 								{
									"destination" : [ "obj-69", 0 ],
									"disabled" : 0,
									"hidden" : 0,
									"source" : [ "obj-12", 1 ]
								}

							}
, 							{
								"patchline" : 								{
									"destination" : [ "obj-12", 1 ],
									"disabled" : 0,
									"hidden" : 0,
									"source" : [ "obj-13", 0 ]
								}

							}
, 							{
								"patchline" : 								{
									"destination" : [ "obj-17", 0 ],
									"disabled" : 0,
									"hidden" : 0,
									"source" : [ "obj-14", 1 ]
								}

							}
, 							{
								"patchline" : 								{
									"destination" : [ "obj-16", 1 ],
									"disabled" : 0,
									"hidden" : 0,
									"source" : [ "obj-17", 0 ]
								}

							}
, 							{
								"patchline" : 								{
									"destination" : [ "obj-15", 0 ],
									"disabled" : 0,
									"hidden" : 0,
									"source" : [ "obj-18", 1 ]
								}

							}
, 							{
								"patchline" : 								{
									"destination" : [ "obj-1", 1 ],
									"disabled" : 0,
									"hidden" : 0,
									"source" : [ "obj-2", 2 ]
								}

							}
, 							{
								"patchline" : 								{
									"destination" : [ "obj-1", 0 ],
									"disabled" : 0,
									"hidden" : 0,
									"source" : [ "obj-2", 1 ]
								}

							}
, 							{
								"patchline" : 								{
									"destination" : [ "obj-4", 2 ],
									"disabled" : 0,
									"hidden" : 0,
									"source" : [ "obj-2", 2 ]
								}

							}
, 							{
								"patchline" : 								{
									"destination" : [ "obj-4", 2 ],
									"disabled" : 0,
									"hidden" : 0,
									"source" : [ "obj-2", 1 ]
								}

							}
, 							{
								"patchline" : 								{
									"destination" : [ "obj-1", 2 ],
									"disabled" : 0,
									"hidden" : 0,
									"source" : [ "obj-20", 0 ]
								}

							}
, 							{
								"patchline" : 								{
									"destination" : [ "obj-24", 0 ],
									"disabled" : 0,
									"hidden" : 0,
									"source" : [ "obj-23", 1 ]
								}

							}
, 							{
								"patchline" : 								{
									"destination" : [ "obj-26", 0 ],
									"disabled" : 0,
									"hidden" : 0,
									"source" : [ "obj-25", 1 ]
								}

							}
, 							{
								"patchline" : 								{
									"destination" : [ "obj-28", 0 ],
									"disabled" : 0,
									"hidden" : 0,
									"source" : [ "obj-27", 1 ]
								}

							}
, 							{
								"patchline" : 								{
									"destination" : [ "obj-7", 0 ],
									"disabled" : 0,
									"hidden" : 1,
									"source" : [ "obj-3", 0 ]
								}

							}
, 							{
								"patchline" : 								{
									"destination" : [ "obj-5", 0 ],
									"disabled" : 0,
									"hidden" : 0,
									"source" : [ "obj-4", 0 ]
								}

							}
, 							{
								"patchline" : 								{
									"destination" : [ "obj-69", 1 ],
									"disabled" : 0,
									"hidden" : 0,
									"source" : [ "obj-62", 0 ]
								}

							}
, 							{
								"patchline" : 								{
									"destination" : [ "obj-69", 2 ],
									"disabled" : 0,
									"hidden" : 0,
									"source" : [ "obj-63", 0 ]
								}

							}
, 							{
								"patchline" : 								{
									"destination" : [ "obj-61", 0 ],
									"disabled" : 0,
									"hidden" : 0,
									"source" : [ "obj-69", 0 ]
								}

							}
, 							{
								"patchline" : 								{
									"destination" : [ "obj-3", 0 ],
									"disabled" : 0,
									"hidden" : 1,
									"midpoints" : [ 351.5, 146.0, 331.5, 146.0, 331.5, 4.0, 351.5, 4.0 ],
									"source" : [ "obj-7", 0 ]
								}

							}
, 							{
								"patchline" : 								{
									"destination" : [ "obj-71", 0 ],
									"disabled" : 0,
									"hidden" : 0,
									"source" : [ "obj-70", 0 ]
								}

							}
, 							{
								"patchline" : 								{
									"destination" : [ "obj-72", 0 ],
									"disabled" : 0,
									"hidden" : 0,
									"source" : [ "obj-71", 0 ]
								}

							}
, 							{
								"patchline" : 								{
									"destination" : [ "obj-62", 0 ],
									"disabled" : 0,
									"hidden" : 0,
									"source" : [ "obj-72", 0 ]
								}

							}
, 							{
								"patchline" : 								{
									"destination" : [ "obj-63", 0 ],
									"disabled" : 0,
									"hidden" : 0,
									"source" : [ "obj-72", 1 ]
								}

							}
, 							{
								"patchline" : 								{
									"destination" : [ "obj-78", 0 ],
									"disabled" : 0,
									"hidden" : 0,
									"source" : [ "obj-72", 2 ]
								}

							}
, 							{
								"patchline" : 								{
									"destination" : [ "obj-69", 3 ],
									"disabled" : 0,
									"hidden" : 0,
									"source" : [ "obj-78", 0 ]
								}

							}
 ]
					}
,
					"patching_rect" : [ 22.5, 25.0, 91.0, 20.0 ],
					"saved_object_attributes" : 					{
						"default_fontface" : 0,
						"default_fontname" : "Arial",
						"default_fontsize" : 12.0,
						"description" : "",
						"digest" : "",
						"fontface" : 0,
						"fontname" : "Arial",
						"fontsize" : 12.0,
						"globalpatchername" : "",
						"tags" : ""
					}
,
					"text" : "p candleCONE",
					"varname" : "patcher"
				}

			}
 ],
		"lines" : [  ],
		"parameters" : 		{
			"obj-9::obj-52::obj-8" : [ "live.gain~[1]", "live.gain~", 0 ],
			"obj-9::obj-52::obj-43" : [ "number[2]", "number[2]", 0 ],
			"obj-9::obj-52::obj-44" : [ "number[3]", "number[2]", 0 ],
			"obj-9::obj-1::obj-90" : [ "Trans[1]", "Trans", 0 ],
			"obj-9::obj-1::obj-34" : [ "TriggerLock[1]", "Lock", 0 ],
			"obj-9::obj-1::obj-52" : [ "Play[1]", "Play", 0 ],
			"obj-9::obj-1::obj-55" : [ "Size[1]", "Size", 0 ],
			"obj-9::obj-52::obj-38" : [ "flonum[1]", "flonum", 0 ],
			"obj-9::obj-52::obj-36" : [ "live.gain~", "live.gain~", 0 ],
			"obj-9::obj-1::obj-30" : [ "Scrub[1]", "Scrub", 0 ],
			"obj-9::obj-1::obj-24" : [ "Rec[1]", "Rec", 0 ],
			"obj-9::obj-1::obj-14" : [ "TriggersFreq[1]", "Freq", 0 ],
			"obj-9::obj-1::obj-32" : [ "Freeze[1]", "Freeze", 0 ],
			"obj-9::obj-1::obj-10" : [ "Append[1]", "Append", 0 ],
			"obj-9::obj-52::obj-42" : [ "number[4]", "number[2]", 0 ],
			"obj-9::obj-1::obj-64::obj-24" : [ "Selection[1]", "Selection", 0 ],
			"obj-9::obj-1::obj-67" : [ "SelectAll[1]", "SelectAll", 0 ],
			"obj-9::obj-1::obj-76" : [ "GrainSize[1]", "GrainSize", 0 ],
			"obj-9::obj-1::obj-91" : [ "PitchVar[1]", "PitchVar", 0 ],
			"obj-9::obj-1::obj-95" : [ "Gain[1]", "Gain", 0 ],
			"obj-9::obj-1::obj-48" : [ "Fade[1]", "Fade", 0 ],
			"obj-9::obj-1::obj-38" : [ "Stretch[1]", "Stretch", 0 ],
			"obj-9::obj-1::obj-53" : [ "Clear[1]", "Clear", 0 ],
			"obj-9::obj-1::obj-23" : [ "Dry/Wet[1]", "Dry/Wet", 0 ],
			"obj-9::obj-52::obj-10" : [ "flonum[2]", "flonum", 0 ],
			"obj-9::obj-52::obj-41" : [ "flonum", "flonum", 0 ],
			"obj-9::obj-1::obj-39" : [ "TriggersMode[1]", "Mode", 0 ],
			"obj-9::obj-52::obj-16" : [ "flonum[3]", "flonum", 0 ],
			"obj-9::obj-1::obj-40" : [ "TriggerNote[1]", "Note", 0 ],
			"obj-9::obj-1::obj-77" : [ "OnsetVar[1]", "OnsetVar", 0 ],
			"obj-9::obj-1::obj-33" : [ "Direction[1]", "Direction", 0 ],
			"obj-9::obj-52::obj-15" : [ "live.gain~[2]", "live.gain~", 0 ]
		}
,
		"dependency_cache" : [ 			{
				"name" : "SoundBox.RogsLiveDevice.maxpat",
				"bootpath" : "/Code/MaxSearchPath/IRCAM/ForumMaxApps-All/Soundbox",
				"patcherrelativepath" : "../../../Code/MaxSearchPath/IRCAM/ForumMaxApps-All/Soundbox",
				"type" : "JSON",
				"implicit" : 1
			}
, 			{
				"name" : "M4L.pan2~.maxpat",
				"bootpath" : "/Applications/Max6/patches/m4l-patches/Tools resources",
				"patcherrelativepath" : "../../../Applications/Max6/patches/m4l-patches/Tools resources",
				"type" : "JSON",
				"implicit" : 1
			}
, 			{
				"name" : "M4L.bal2~.maxpat",
				"bootpath" : "/Applications/Max6/patches/m4l-patches/Tools resources",
				"patcherrelativepath" : "../../../Applications/Max6/patches/m4l-patches/Tools resources",
				"type" : "JSON",
				"implicit" : 1
			}
, 			{
				"name" : "FMA.Preset.maxpat",
				"bootpath" : "/Code/MaxSearchPath/IRCAM/ForumMaxApps-All/Utilities",
				"patcherrelativepath" : "../../../Code/MaxSearchPath/IRCAM/ForumMaxApps-All/Utilities",
				"type" : "JSON",
				"implicit" : 1
			}
, 			{
				"name" : "SoundBox.RogsLivePresets.json",
				"bootpath" : "/Code/MaxSearchPath/IRCAM/ForumMaxApps-All/Soundbox",
				"patcherrelativepath" : "../../../Code/MaxSearchPath/IRCAM/ForumMaxApps-All/Soundbox",
				"type" : "JSON",
				"implicit" : 1
			}
, 			{
				"name" : "jmod.input~.maxpat",
				"bootpath" : "/Applications/Max6/Cycling '74/Jamoma/modules/audio/input~",
				"patcherrelativepath" : "../../../Applications/Max6/Cycling '74/Jamoma/modules/audio/input~",
				"type" : "JSON",
				"implicit" : 1
			}
, 			{
				"name" : "jcom.audioOnOff.maxpat",
				"bootpath" : "/Applications/Max6/Cycling '74/Jamoma/library/components/audioOnOff",
				"patcherrelativepath" : "../../../Applications/Max6/Cycling '74/Jamoma/library/components/audioOnOff",
				"type" : "JSON",
				"implicit" : 1
			}
, 			{
				"name" : "jcom.meter_receive.maxpat",
				"bootpath" : "/Applications/Max6/Cycling '74/Jamoma/library/components/meter_receive",
				"patcherrelativepath" : "../../../Applications/Max6/Cycling '74/Jamoma/library/components/meter_receive",
				"type" : "JSON",
				"implicit" : 1
			}
, 			{
				"name" : "jmod.output~.maxpat",
				"bootpath" : "/Applications/Max6/Cycling '74/Jamoma/modules/audio/output~",
				"patcherrelativepath" : "../../../Applications/Max6/Cycling '74/Jamoma/modules/audio/output~",
				"type" : "JSON",
				"implicit" : 1
			}
, 			{
				"name" : "jcom.js_systeminfo.js",
				"bootpath" : "/Applications/Max6/Cycling '74/Jamoma/library/javascript",
				"patcherrelativepath" : "../../../Applications/Max6/Cycling '74/Jamoma/library/javascript",
				"type" : "TEXT",
				"implicit" : 1
			}
, 			{
				"name" : "jmod.filter~.maxpat",
				"bootpath" : "/Applications/Max6/Cycling '74/Jamoma/modules/audio/filter~",
				"patcherrelativepath" : "../../../Applications/Max6/Cycling '74/Jamoma/modules/audio/filter~",
				"type" : "JSON",
				"implicit" : 1
			}
, 			{
				"name" : "jalg.filter~.maxpat",
				"bootpath" : "/Applications/Max6/Cycling '74/Jamoma/modules/audio/filter~",
				"patcherrelativepath" : "../../../Applications/Max6/Cycling '74/Jamoma/modules/audio/filter~",
				"type" : "JSON",
				"implicit" : 1
			}
, 			{
				"name" : "jmod.tap.reverb~.maxpat",
				"bootpath" : "/Code/MaxSearchPath/JamomaUserLib/Tap.Tools/audio/reverb~",
				"patcherrelativepath" : "../../../Code/MaxSearchPath/JamomaUserLib/Tap.Tools/audio/reverb~",
				"type" : "JSON",
				"implicit" : 1
			}
, 			{
				"name" : "jmod.nav.rand.maxpat",
				"bootpath" : "/Code/Git/MaxLibraries/Nav/Jamoma/jmod.nav.rand",
				"patcherrelativepath" : "../../../Code/Git/MaxLibraries/Nav/Jamoma/jmod.nav.rand",
				"type" : "JSON",
				"implicit" : 1
			}
, 			{
				"name" : "jalg.nav.rand.maxpat",
				"bootpath" : "/Code/Git/MaxLibraries/Nav/Jamoma/jmod.nav.rand",
				"patcherrelativepath" : "../../../Code/Git/MaxLibraries/Nav/Jamoma/jmod.nav.rand",
				"type" : "JSON",
				"implicit" : 1
			}
, 			{
				"name" : "jcom.absdiff.maxpat",
				"bootpath" : "/Applications/Max6/Cycling '74/Jamoma/library/components/absdiff",
				"patcherrelativepath" : "../../../Applications/Max6/Cycling '74/Jamoma/library/components/absdiff",
				"type" : "JSON",
				"implicit" : 1
			}
, 			{
				"name" : "nav.smartGate~.maxpat",
				"bootpath" : "/Code/Git/MaxLibraries/Nav/snd/gates",
				"patcherrelativepath" : "../../../Code/Git/MaxLibraries/Nav/snd/gates",
				"type" : "JSON",
				"implicit" : 1
			}
, 			{
				"name" : "MFCCs.zsa.maxpat",
				"bootpath" : "/Code/MaxSearchPath/IRCAM/OMax_y 4.5.2 /OMax Patches&Objects",
				"patcherrelativepath" : "../../../Code/MaxSearchPath/IRCAM/OMax_y 4.5.2 /OMax Patches&Objects",
				"type" : "JSON",
				"implicit" : 1
			}
, 			{
				"name" : "MFCCs.zsa-core.maxpat",
				"bootpath" : "/Code/MaxSearchPath/IRCAM/OMax_y 4.5.2 /OMax Patches&Objects",
				"patcherrelativepath" : "../../../Code/MaxSearchPath/IRCAM/OMax_y 4.5.2 /OMax Patches&Objects",
				"type" : "JSON",
				"implicit" : 1
			}
, 			{
				"name" : "MFCCs.alphabet.maxpat",
				"bootpath" : "/Code/MaxSearchPath/IRCAM/OMax_y 4.5.2 /OMax Patches&Objects",
				"patcherrelativepath" : "../../../Code/MaxSearchPath/IRCAM/OMax_y 4.5.2 /OMax Patches&Objects",
				"type" : "JSON",
				"implicit" : 1
			}
, 			{
				"name" : "bc.vufader.maxpat",
				"bootpath" : "/Code/MaxSearchPath/IRCAM/OMax_y 4.5.2 /OMax Patches&Objects",
				"patcherrelativepath" : "../../../Code/MaxSearchPath/IRCAM/OMax_y 4.5.2 /OMax Patches&Objects",
				"type" : "JSON",
				"implicit" : 1
			}
, 			{
				"name" : "jmod.cueManager.maxpat",
				"bootpath" : "/Applications/Max6/Cycling '74/Jamoma/modules/control/cueManager",
				"patcherrelativepath" : "../../../Applications/Max6/Cycling '74/Jamoma/modules/control/cueManager",
				"type" : "JSON",
				"implicit" : 1
			}
, 			{
				"name" : "jcom.initialized.maxpat",
				"bootpath" : "/Applications/Max6/Cycling '74/Jamoma/library/components/initialized",
				"patcherrelativepath" : "../../../Applications/Max6/Cycling '74/Jamoma/library/components/initialized",
				"type" : "JSON",
				"implicit" : 1
			}
, 			{
				"name" : "jmod.nav.env~.maxpat",
				"bootpath" : "/Code/Git/MaxLibraries/Nav/Jamoma/jmod.nav.env~",
				"patcherrelativepath" : "../../../Code/Git/MaxLibraries/Nav/Jamoma/jmod.nav.env~",
				"type" : "JSON",
				"implicit" : 1
			}
, 			{
				"name" : "jalg.nav.env~.maxpat",
				"bootpath" : "/Code/Git/MaxLibraries/Nav/Jamoma/jmod.nav.env~",
				"patcherrelativepath" : "../../../Code/Git/MaxLibraries/Nav/Jamoma/jmod.nav.env~",
				"type" : "JSON",
				"implicit" : 1
			}
, 			{
				"name" : "jcom.autoscale.maxpat",
				"bootpath" : "/Applications/Max6/Cycling '74/Jamoma/library/components/autoscale",
				"patcherrelativepath" : "../../../Applications/Max6/Cycling '74/Jamoma/library/components/autoscale",
				"type" : "JSON",
				"implicit" : 1
			}
, 			{
				"name" : "nav.input~.maxpat",
				"bootpath" : "/Code/Git/MaxLibraries/Nav/snd/ADC-DAC~",
				"patcherrelativepath" : "../../../Code/Git/MaxLibraries/Nav/snd/ADC-DAC~",
				"type" : "JSON",
				"implicit" : 1
			}
, 			{
				"name" : "thru.maxpat",
				"bootpath" : "/Applications/Max6/patches/m4l-patches/Pluggo for Live resources/patches",
				"patcherrelativepath" : "../../../Applications/Max6/patches/m4l-patches/Pluggo for Live resources/patches",
				"type" : "JSON",
				"implicit" : 1
			}
, 			{
				"name" : "jmod.nav.sur.rogs~.maxpat",
				"bootpath" : "/Code/Git/MaxLibraries/julian/tml_candle/Candle/rogsBuff",
				"patcherrelativepath" : "../../../Code/Git/MaxLibraries/julian/tml_candle/Candle/rogsBuff",
				"type" : "JSON",
				"implicit" : 1
			}
, 			{
				"name" : "jalg.nav.sur.rogs~.maxpat",
				"bootpath" : "/Code/Git/MaxLibraries/julian/tml_candle/Candle/rogsBuff",
				"patcherrelativepath" : "../../../Code/Git/MaxLibraries/julian/tml_candle/Candle/rogsBuff",
				"type" : "JSON",
				"implicit" : 1
			}
, 			{
				"name" : "jcom.nav.oscroute.maxpat",
				"bootpath" : "/Code/Git/MaxLibraries/julian/tml_candle/Candle/rogsBuff",
				"patcherrelativepath" : "../../../Code/Git/MaxLibraries/julian/tml_candle/Candle/rogsBuff",
				"type" : "JSON",
				"implicit" : 1
			}
, 			{
				"name" : "jcom.modulesDumper.maxpat",
				"bootpath" : "/Applications/Max6/Cycling '74/Jamoma/library/components/modulesDumper",
				"patcherrelativepath" : "../../../Applications/Max6/Cycling '74/Jamoma/library/components/modulesDumper",
				"type" : "JSON",
				"implicit" : 1
			}
, 			{
				"name" : "jcom.thru.maxpat",
				"bootpath" : "/Applications/Max6/Cycling '74/Jamoma/library/components/thru",
				"patcherrelativepath" : "../../../Applications/Max6/Cycling '74/Jamoma/library/components/thru",
				"type" : "JSON",
				"implicit" : 1
			}
, 			{
				"name" : "jcom.getAllAttributes.maxpat",
				"bootpath" : "/Applications/Max6/Cycling '74/Jamoma/library/components/getAllAttributes",
				"patcherrelativepath" : "../../../Applications/Max6/Cycling '74/Jamoma/library/components/getAllAttributes",
				"type" : "JSON",
				"implicit" : 1
			}
, 			{
				"name" : "jcom.getReturnNames.maxpat",
				"bootpath" : "/Applications/Max6/Cycling '74/Jamoma/library/components/getReturnNames",
				"patcherrelativepath" : "../../../Applications/Max6/Cycling '74/Jamoma/library/components/getReturnNames",
				"type" : "JSON",
				"implicit" : 1
			}
, 			{
				"name" : "jcom.getParameterNames.maxpat",
				"bootpath" : "/Applications/Max6/Cycling '74/Jamoma/library/components/getParameterNames",
				"patcherrelativepath" : "../../../Applications/Max6/Cycling '74/Jamoma/library/components/getParameterNames",
				"type" : "JSON",
				"implicit" : 1
			}
, 			{
				"name" : "jcom.getMessageNames.maxpat",
				"bootpath" : "/Applications/Max6/Cycling '74/Jamoma/library/components/getMessageNames",
				"patcherrelativepath" : "../../../Applications/Max6/Cycling '74/Jamoma/library/components/getMessageNames",
				"type" : "JSON",
				"implicit" : 1
			}
, 			{
				"name" : "jcom.getOneAttribute.maxpat",
				"bootpath" : "/Applications/Max6/Cycling '74/Jamoma/library/components/getOneAttribute",
				"patcherrelativepath" : "../../../Applications/Max6/Cycling '74/Jamoma/library/components/getOneAttribute",
				"type" : "JSON",
				"implicit" : 1
			}
, 			{
				"name" : "jcom.parameterCreate.maxpat",
				"bootpath" : "/Applications/Max6/Cycling '74/Jamoma/library/components/parameterCreate",
				"patcherrelativepath" : "../../../Applications/Max6/Cycling '74/Jamoma/library/components/parameterCreate",
				"type" : "JSON",
				"implicit" : 1
			}
, 			{
				"name" : "rogs~.mxo",
				"type" : "iLaX"
			}
, 			{
				"name" : "jcom.ui.mxo",
				"type" : "iLaX"
			}
, 			{
				"name" : "jcom.meter~.mxo",
				"type" : "iLaX"
			}
, 			{
				"name" : "jcom.parameter.mxo",
				"type" : "iLaX"
			}
, 			{
				"name" : "jcom.message.mxo",
				"type" : "iLaX"
			}
, 			{
				"name" : "jcom.oscroute.mxo",
				"type" : "iLaX"
			}
, 			{
				"name" : "jcom.init.mxo",
				"type" : "iLaX"
			}
, 			{
				"name" : "jcom.return.mxo",
				"type" : "iLaX"
			}
, 			{
				"name" : "jcom.dataspace.mxo",
				"type" : "iLaX"
			}
, 			{
				"name" : "jcom.in~.mxo",
				"type" : "iLaX"
			}
, 			{
				"name" : "jcom.out~.mxo",
				"type" : "iLaX"
			}
, 			{
				"name" : "jcom.remote.mxo",
				"type" : "iLaX"
			}
, 			{
				"name" : "jcom.hub.mxo",
				"type" : "iLaX"
			}
, 			{
				"name" : "jcom.textslider.mxo",
				"type" : "iLaX"
			}
, 			{
				"name" : "jcom.savebang.mxo",
				"type" : "iLaX"
			}
, 			{
				"name" : "jcom.pass.mxo",
				"type" : "iLaX"
			}
, 			{
				"name" : "jcom.overdrive~.mxo",
				"type" : "iLaX"
			}
, 			{
				"name" : "jcom.limiter~.mxo",
				"type" : "iLaX"
			}
, 			{
				"name" : "jcom.stats.mxo",
				"type" : "iLaX"
			}
, 			{
				"name" : "tap.verb~.mxo",
				"type" : "iLaX"
			}
, 			{
				"name" : "jcom.in.mxo",
				"type" : "iLaX"
			}
, 			{
				"name" : "zsa.mfcc~.mxo",
				"type" : "iLaX"
			}
, 			{
				"name" : "zsa.dist.mxo",
				"type" : "iLaX"
			}
, 			{
				"name" : "jcom.loader.mxo",
				"type" : "iLaX"
			}
, 			{
				"name" : "jcom.loader.mxo",
				"type" : "iLaX"
			}
, 			{
				"name" : "jcom.cuemanager.mxo",
				"type" : "iLaX"
			}
, 			{
				"name" : "jcom.route.mxo",
				"type" : "iLaX"
			}
, 			{
				"name" : "mattrms~.mxo",
				"type" : "iLaX"
			}
, 			{
				"name" : "jcom.pack.mxo",
				"type" : "iLaX"
			}
, 			{
				"name" : "jcom.gain.mxo",
				"type" : "iLaX"
			}
, 			{
				"name" : "jcom.unpack.mxo",
				"type" : "iLaX"
			}
, 			{
				"name" : "jcom.oscinstance.mxo",
				"type" : "iLaX"
			}
, 			{
				"name" : "jcom.map.mxo",
				"type" : "iLaX"
			}
 ]
	}

}
