max v2;#N vpatcher 80 158 1069 835;#P origin -20 0;#P window setfont "Sans Serif" 18.;#P comment 145 19 122 196626 spring;#P window setfont "Sans Serif" 9.;#P comment 269 20 143 196617 Yoichiro Serita © 2003 Topological Media Lab;#P comment 27 314 33 196617 select;#P newex 371 487 27 196617 + 1;#P user ubumenu 371 467 66 196617 0 1 1 0;#X add interpolate;#X add original;#X prefix_set 0 0 <none> 0;#P newex 371 509 77 196617 switch 2 1;#P comment 434 536 58 196617 showpoints;#P toggle 416 535 15 0;#N vpatcher 445 103 884 715;#P outlet 51 545 15 0;#P window setfont "Sans Serif" 9.;#P newex 218 411 27 196617 gate;#P newex 104 276 31 196617 sel 1;#P newex 104 253 90 196617 L== -9999 -9999;#P newex 218 479 35 196617 zl join;#P newex 243 457 38 196617 Ladd 2;#P message 218 434 35 196617 \$3 \$4;#P message 218 505 161 196617 paintrect \$1 \$2 \$3 \$4 255 255 0;#P newex 174 303 21 196617 t 0;#P toggle 51 335 15 0;#P newex 51 357 60 196617 gate;#P newex 51 304 61 196617 t 1 l l;#P newex 51 383 35 196617 zl join;#P message 51 460 161 196617 linesegment \$1 \$2 \$3 \$4 255 0 0;#P newex 51 227 54 196617 zl group 2;#P newex 51 204 83 196617 jit.iter @mode 1;#P newex 51 174 129 196617 jit.matrix 1 float32 190 2;#P newex 51 148 140 196617 jit.glue @rows 2 @columns 1;#P newex 181 114 129 196617 jit.matrix 1 float32 190 1;#P newex 51 114 129 196617 jit.matrix 1 float32 190 1;#P newex 51 87 62 196617 jit.unpack 2;#P inlet 218 362 15 0;#P inlet 51 52 15 0;#P connect 0 0 2 0;#P connect 2 0 3 0;#P connect 3 0 5 0;#P connect 5 0 6 0;#P connect 6 0 7 0;#P connect 7 0 8 0;#P connect 8 0 11 0;#P connect 11 0 13 0;#P connect 14 0 13 0;#P connect 13 0 12 0;#P connect 12 0 10 0;#P connect 10 0 9 0;#P fasten 15 0 22 0 223 531 56 531;#P connect 9 0 22 0;#P connect 11 1 10 1;#P connect 11 2 12 1;#P fasten 8 0 19 0 56 249 109 249;#P connect 19 0 20 0;#P fasten 6 0 14 0 56 197 179 197;#P fasten 20 0 14 0 109 297 179 297;#P fasten 2 1 4 0 82 108 186 108;#P connect 4 0 5 1;#P connect 1 0 21 0;#P connect 21 0 16 0;#P connect 16 0 18 0;#P connect 18 0 15 0;#P fasten 10 0 21 1 56 407 240 407;#P fasten 16 0 17 0 223 453 248 453;#P connect 17 0 18 1;#P pop;#P newobj 371 557 55 196617 p drawline;#P newex 697 355 35 196617 r bkgd;#P newex 628 355 45 196617 r strimg;#P user jit.cellblock 805 160 927 247 3 9 320 240 45 17 0 1 1 0 1 1 1 1 1 0 0 0 255 255 255 0 0 0 0 0 0 191 191 191 0 0 0 215 215 240 1 1 1 0 4 0 0 0;#P comment 291 330 195 196617 px/py/vx/vy/ax/ay/fx/fy/mass/lock;#P newex 475 79 63 196617 jit.op @op +;#P newex 615 158 63 196617 jit.op @op +;#P newex 668 34 45 196617 ys.video;#P newex 668 88 27 196617 t l l;#P newex 668 125 90 196617 jit.op @op absdiff;#P newex 475 105 35 196617 s bkgd;#P newex 352 615 45 196617 s strimg;#P newex 461 445 52 196617 jit.pack 2;#P newex 461 417 62 196617 jit.unpack 2;#P newex 461 469 138 196617 ys.jit.hermite 2 float32 190;#P newex 47 29 45 196617 loadbang;#P newex 628 379 79 196617 jit.op @op max;#P user jit.pwindow 614 207 82 62 0 1 0 0 1 0;#P newex 615 183 65 196617 jit.rgb2luma;#P user jit.cellblock 805 70 927 157 3 9 320 240 45 17 0 1 1 0 1 1 1 1 1 0 0 0 255 255 255 0 0 0 0 0 0 191 191 191 0 0 0 215 215 240 1 1 1 0 4 0 0 0;#P number 563 160 35 9 0 0 0 3 0 0 0 221 221 221 222 222 222 0 0 0;#P newex 560 33 78 196617 ys.video spring;#P user jit.pwindow 467 207 82 62 0 1 0 0 1 0;#P newex 468 183 105 196617 jit.op @op >p @val 30;#P newex 560 87 27 196617 t l l;#P newex 560 124 90 196617 jit.op @op absdiff;#P comment 78 314 43 196617 wall;#P newex 138 572 63 196617 pack 0 0 0;#P message 138 595 122 196617 setcell \$3 plane 0 val \$1 \, setcell \$3 plane 1 val \$2;#P number 190 550 35 9 0 0 0 3 0 0 0 221 221 221 222 222 222 0 0 0;#P user radiogroup 24 334 18 320;#X size 20;#X offset 16;#X inactive 0;#X itemtype 0;#X flagmode 0;#X set 19;#X done;#P newex 51 613 29 196617 pack;#P newex 51 568 30 196617 t b i;#N counter 0 0 19;#X flags 0 0;#P newobj 51 591 75 196617 counter 0 0 19;#P newex 51 547 25 196617 iter;#P message 51 637 130 196617 setcell \$1 1 plane 9 val \$2;#P user radiogroup 5 334 18 320;#X size 20;#X offset 16;#X inactive 0;#X itemtype 1;#X flagmode 0;#X set 1 0 0 0 0 0 0 0 0 0 0 0 0 0 0 0 0 0 0 1;#X done;#P newex 352 362 68 196617 t bang l clear;#P flonum 101 57 35 9 0 0 0 3 0 0 0 221 221 221 222 222 222 0 0 0;#P newex 77 79 34 196617 * 30.;#P comment 78 297 43 196617 spring;#P comment 78 281 43 196617 drag;#P message 62 391 71 196617 forceMask \$1;#P number 62 370 35 9 0 0 0 3 0 0 0 221 221 221 222 222 222 0 0 0;#P newex 62 335 92 196617 expr $i1 + $i2*2 + $i3*4 + $i4 * 8;#P user radiogroup 62 264 18 64;#X size 4;#X offset 16;#X inactive 0;#X itemtype 1;#X flagmode 0;#X set 1 1 1 1;#X done;#P flonum 206 83 35 9 0 0 0 3 0 0 0 221 221 221 222 222 222 0 0 0;#P newex 29 79 27 196617 - 1;#P message 156 137 43 196617 setall 0;#P newex 158 105 59 196617 pack 0 8 1.;#P newex 92 105 62 196617 pack 0 1 10;#P newex 29 105 59 196617 pack 0 0 0.;#P button 29 29 15 0;#P message 29 137 125 196617 setcell \$1 plane \$2 val \$3;#P newex 29 53 40 196617 uzi 20;#N vpreset 5;#X append 1 2 7 195 31 toggle int 1 \; 9 196 72 number int 20 \; 15 68 275 flonum float 28. \; 17 86 275 flonum float 1. \; 19 111 275 flonum float 1. \; 21 129 275 flonum float;#X append 1 2 0. \; 23 151 274 flonum float 1. \; 25 169 274 flonum float 0.05 \; 27 191 274 flonum float 0.1 \; 37 83 206 flonum float 1. \; 40 370 62 number int 7 \; 45 57 101;#X append 1 2 flonum float 30. \; 54 550 190 number int 0 \; 63 160 563 number int 12 \;;#X append 4 2 7 195 31 toggle int 1 \; 9 196 72 number int 16 \; 15 68 275 flonum float 28. \; 17 86 275 flonum float 1. \; 19 111 275 flonum float 1. \; 21 129 275 flonum float;#X append 4 2 0. \; 23 151 274 flonum float 1. \; 25 169 274 flonum float 0.03 \; 27 191 274 flonum float 0.1 \; 37 83 206 flonum float 1. \; 40 370 62 number int 15 \; 45 57 101;#X append 4 2 flonum float 30. \; 54 550 190 number int 19 \; 63 160 563 number int 120 \; 84 535 416 toggle int 1 \; 87 467 371 ubumenu int 0 \;;#X append 5 2 7 195 31 toggle int 1 \; 9 196 72 number int 20 \; 15 68 275 flonum float 15. \; 17 86 275 flonum float 2.49 \; 19 111 275 flonum float 1. \; 21 129 275 flonum float;#X append 5 2 0. \; 23 151 274 flonum float 1. \; 25 169 274 flonum float 0.05 \; 27 191 274 flonum float 0.1 \; 37 83 206 flonum float 1. \; 40 370 62 number int 15 \; 45 57 101;#X append 5 2 flonum float 15. \; 54 550 190 number int 19 \; 63 160 563 number int 30 \; 87 467 371 ubumenu int 0 \;;#P preset 379 53 47 27;#P flonum 274 191 35 9 0 0 0 3 0 0 0 221 221 221 222 222 222 0 0 0;#P message 312 191 33 196617 dt \$1;#P flonum 274 169 35 9 0 0 0 3 0 0 0 221 221 221 222 222 222 0 0 0;#P message 312 169 68 196617 dragCoeff \$1;#P flonum 274 151 35 9 0 0 0 3 0 0 0 221 221 221 222 222 222 0 0 0;#P message 312 151 70 196617 gravity_y \$1;#P flonum 275 129 35 9 0 0 0 3 0 0 0 221 221 221 222 222 222 0 0 0;#P message 313 129 70 196617 gravity_x \$1;#P flonum 275 111 35 9 0 0 0 3 0 0 0 221 221 221 222 222 222 0 0 0;#P message 313 111 29 196617 d \$1;#P flonum 275 86 35 9 0 0 0 3 0 0 0 221 221 221 222 222 222 0 0 0;#P message 313 86 29 196617 k \$1;#P flonum 275 68 35 9 0 0 0 3 0 0 0 221 221 221 222 222 222 0 0 0;#P message 313 68 35 196617 len \$1;#P newex 211 329 75 196617 jit.matrix tako;#P newex 211 224 142 196617 jit.matrix tako 10 float32 20;#P newex 211 296 65 196617 ys.jit.spring;#P newex 138 550 51 196617 ys.mouse;#P number 72 196 35 9 0 0 0 3 0 0 0 221 221 221 222 222 222 0 0 0;#P message 288 545 60 196617 clear \, brgb 0 0 0 \, bang;#P toggle 31 195 15 0;#P newex 31 218 51 196617 metro 20;#P user jit.pwindow 627 403 322 242 0 1 0 0 1 0;#P newex 288 521 45 196617 loadbang;#P newex 352 589 110 196617 jit.lcd 4 char 320 240;#P comment 78 264 43 196617 gravity;#P comment 1 314 26 196617 lock;#P comment 476 396 65 196617 interpolation;#P connect 68 0 31 0;#P connect 31 0 29 0;#P connect 29 2 36 0;#P connect 36 0 32 0;#P connect 34 0 30 0;#P connect 32 0 30 0;#P connect 33 0 30 0;#P connect 7 0 6 0;#P connect 47 0 49 0;#P connect 49 0 51 0;#P connect 51 0 50 0;#P connect 50 0 52 0;#P connect 52 0 48 0;#P connect 38 0 39 0;#P connect 39 0 40 0;#P connect 40 0 41 0;#P connect 51 1 52 1;#P connect 9 0 6 1;#P connect 29 2 44 0;#P connect 44 0 32 2;#P connect 36 0 33 0;#P connect 45 0 44 1;#P fasten 5 1 10 0 943 651 271 651 271 542 143 542;#P connect 10 0 56 0;#P connect 56 0 55 0;#P connect 31 0 35 0;#P connect 36 0 34 0;#P connect 53 0 54 0;#P connect 54 0 56 2;#P connect 37 0 34 2;#P connect 55 0 12 0;#P connect 30 0 12 0;#P connect 35 0 12 0;#P connect 48 0 12 0;#P connect 6 0 12 0;#P connect 12 0 11 0;#P connect 41 0 11 0;#P connect 14 0 11 0;#P connect 16 0 11 0;#P connect 18 0 11 0;#P connect 20 0 11 0;#P connect 22 0 11 0;#P connect 24 0 11 0;#P connect 26 0 11 0;#P connect 11 0 13 0;#P fasten 61 0 11 1 473 280 271 280;#P connect 4 0 8 0;#P connect 23 0 22 0;#P connect 25 0 24 0;#P connect 27 0 26 0;#P connect 15 0 14 0;#P connect 17 0 16 0;#P connect 19 0 18 0;#P connect 21 0 20 0;#P fasten 13 0 46 0 216 351 357 351;#P fasten 83 0 3 0 376 582 357 582;#P fasten 46 2 3 0 415 385 357 385;#P connect 8 0 3 0;#P connect 46 0 3 0;#P connect 3 0 72 0;#P connect 87 0 88 0;#P connect 88 0 86 0;#P connect 86 0 83 0;#P fasten 69 0 86 1 466 502 409 502;#P connect 84 0 83 1;#P fasten 46 1 86 2 386 392 442 392;#P fasten 46 1 70 0 386 392 466 392;#P connect 70 0 71 0;#P connect 71 0 69 0;#P fasten 66 0 60 0 620 275 602 275 602 178 473 178;#P connect 60 0 61 0;#P fasten 62 0 78 0 565 60 480 60;#P connect 78 0 73 0;#P fasten 70 1 71 1 492 439 508 439;#P fasten 76 0 78 1 673 68 533 68;#P connect 62 0 59 0;#P fasten 59 1 58 0 582 119 565 119;#P connect 63 0 60 1;#P fasten 58 0 77 0 565 147 620 147;#P connect 77 0 65 0;#P connect 65 0 66 0;#P connect 81 0 67 0;#P connect 67 0 5 0;#P fasten 59 0 58 1 565 110 645 110;#P connect 76 0 75 0;#P fasten 75 1 74 0 690 120 673 120;#P connect 74 0 77 1;#P connect 82 0 67 1;#P fasten 75 0 74 1 673 111 753 111;#P connect 65 0 64 0;#P connect 60 0 80 0;#P pop;