max v2;#N vpatcher 201 109 711 522;#P comment 217 363 162 196617 nik@f0.am - 'port' to max;#P comment 217 288 257 196617 You may use \, modify and/or distribute under the terms of the GNU General Public License. Please see the LICENSE file for the specific terms of the license.;#P comment 217 330 135 196617 copyright 2001 FoAM vzw.;#P newex 82 138 25 9 f;#P newex 38 139 25 9 +;#P newex 73 96 50 9 t f b;#P newex 164 139 25 9 + 1;#P newex 120 139 25 9 f 0;#P newex 144 325 50 9 /;#P newex 149 180 25 9 f;#P newex 15 58 68 9 route bang;#P newex 147 228 25 9 > 0;#P newex 136 263 44 9 if-type;#P newex 149 203 25 9 t f f;#P newex 136 290 50 9 t b f;#P message 258 170 50 9 0;#P outlet 150 357 15 0;#P inlet 15 29 15 0;#P comment 205 32 245 196618 average accumulator (for want of a better name). when a bang is received \, it outputs the average of the floats received since the last bang. if there are no values to average \, no output is generated.;#P comment 217 349 162 196617 pix@test.at - pd version;#P connect 2 0 9 0;#P connect 14 0 15 0;#P fasten 4 0 15 1 263 194 327 194 327 132 58 132;#P connect 16 0 15 1;#P connect 9 1 14 0;#P connect 15 0 16 0;#P connect 14 1 12 0;#P fasten 4 0 12 1 263 194 327 194 327 118 140 118;#P connect 13 0 12 1;#P fasten 8 0 7 0 152 255 141 255;#P connect 7 0 5 0;#P fasten 5 1 11 0 181 316 149 316;#P connect 6 0 8 0;#P fasten 9 0 10 0 20 171 154 171;#P connect 10 0 6 0;#P connect 11 0 3 0;#P connect 12 0 13 0;#P connect 4 0 10 1;#P connect 13 0 10 1;#P fasten 4 0 7 1 263 249 175 249;#P fasten 15 0 7 1 43 249 175 249;#P fasten 6 1 11 1 169 225 195 225 195 313 189 313;#P fasten 5 0 4 0 141 319 206 319 206 159 263 159;#P pop;