max v2;#N vpatcher 272 305 1129 793;#P origin 49 -15;#P hidden newex 95 102 45 196617 loadbang;#P hidden message 96 121 14 196617 1;#P toggle 96 140 15 0;#N vpatcher 209 107 830 421;#P newex 379 205 75 196617 route_layer p6;#P newex 436 154 164 196617 print inputTinyOS unknown player:;#P newex 319 225 75 196617 route_layer p5;#P newex 266 242 75 196617 route_layer p4;#P newex 211 224 75 196617 route_layer p3;#P newex 158 206 75 196617 route_layer p2;#P newex 103 189 75 196617 route_layer p1;#P toggle 32 117 15 0;#P hidden newex 3 117 27 196617 gate;#N comlet t read tinyos sensor data from local patch;#P inlet 13 27 15 0;#P newex 103 138 321 196617 route 1 2 3 4 5 6;#P toggle 13 46 15 0;#P newex 13 74 27 196617 gate;#P newex 4 137 65 196617 print inputTO;#P newex 31 46 35 196617 r psdt;#P comment 132 67 147 196617 i i f = mote_id sensor_id value;#P comment 133 29 185 196617 read tinyos data from local patch \, assuming name of variable is psdt and format is;#P comment 37 28 92 196622 inputTinyOs;#P comment 324 29 85 196617 18.05.2003 sxw;#P hidden connect 11 0 10 0;#P connect 10 0 5 0;#P connect 9 0 7 0;#P connect 7 0 6 0;#P hidden connect 6 0 10 1;#P connect 4 0 6 1;#P fasten 6 0 8 0 18 96 108 96;#P connect 8 0 12 0;#P lcolor 15;#P connect 8 1 13 0;#P lcolor 15;#P connect 8 2 14 0;#P lcolor 15;#P connect 8 3 15 0;#P lcolor 15;#P connect 8 4 16 0;#P lcolor 15;#P connect 8 5 18 0;#P lcolor 15;#P connect 8 6 17 0;#P pop;#P newobj 96 160 69 196617 p inputTinyOs;#P hidden newex 184 471 81 196617 s frontOSC-rate;#P hidden message 499 433 20 196617 23;#P hidden message 412 434 20 196617 10;#P hidden newex 184 415 45 196617 loadbang;#P hidden message 184 431 26 196617 500;#P comment 64 443 83 196626 fronTEnd;#P comment 154 376 83 196626 graPHICS;#P comment 219 451 21 196617 ms;#P comment 148 451 34 196617 update;#P number 184 450 35 9 0 0 0 3 0 0 0 221 221 221 222 222 222 0 0 0;#P toggle 245 449 15 0;#P comment 490 445 13 196622 .;#P comment 465 445 13 196622 .;#P hidden button 660 450 15 0;#P hidden newex 462 474 27 196617 gate;#P hidden newex 462 495 50 196617 sendOSC;#P hidden newex 516 475 55 196617 r frontOSC;#P number 490 449 35 9 0 255 8263 3 0 0 0 221 221 221 222 222 222 0 0 0;#P number 440 449 35 9 0 255 8263 3 0 0 0 221 221 221 222 222 222 0 0 0;#P number 413 449 35 9 0 255 8263 3 0 0 0 221 221 221 222 222 222 0 0 0;#P message 262 449 149 196617 connect 10.0.0.23 5333;#P hidden newex 816 449 95 196617 prepend set connect;#P hidden newex 677 449 137 196617 sprintf %i.%i.%i.%i 5333;#P comment 439 445 13 196622 .;#P number 465 449 35 9 0 255 8263 3 0 0 0 221 221 221 222 222 222 0 0 0;#P toggle 245 289 15 0;#P hidden newex 386 288 27 196617 gate;#P message 262 289 116 196617 connect 10.0.0.9 5333;#P hidden newex 465 287 50 196617 sendOSC;#P hidden newex 414 288 50 196617 r gfxOSC;#P comment 409 357 117 196617 set destination address;#P comment 292 358 49 196617 connect;#P toggle 244 414 15 0;#P comment 491 410 13 196622 .;#P comment 465 410 13 196622 .;#P hidden button 659 415 15 0;#P hidden newex 529 414 27 196617 gate;#P hidden newex 560 414 50 196617 sendOSC;#P hidden newex 608 414 50 196617 r gfxOSC;#P number 491 414 35 9 0 255 8263 3 0 0 0 221 221 221 222 222 222 0 0 0;#P number 439 414 35 9 0 255 8263 3 0 0 0 221 221 221 222 222 222 0 0 0;#P number 412 414 35 9 0 255 8263 3 0 0 0 221 221 221 222 222 222 0 0 0;#P message 261 414 149 196617 connect 244.255.44.255 5333;#P hidden newex 813 414 95 196617 prepend set connect;#P hidden newex 674 413 137 196617 sprintf %i.%i.%i.%i 5333;#P comment 438 410 13 196622 .;#P number 465 414 35 9 0 255 8263 3 0 0 0 221 221 221 222 222 222 0 0 0;#P toggle 244 395 15 0;#P comment 491 391 13 196622 .;#P comment 465 391 13 196622 .;#P hidden button 659 396 15 0;#P hidden newex 529 395 27 196617 gate;#P hidden newex 560 395 50 196617 sendOSC;#P hidden newex 608 395 50 196617 r gfxOSC;#P number 491 395 35 9 0 255 8263 3 0 0 0 221 221 221 222 222 222 0 0 0;#P number 439 395 35 9 0 255 8263 3 0 0 0 221 221 221 222 222 222 0 0 0;#P number 412 395 35 9 0 255 8263 3 0 0 0 221 221 221 222 222 222 0 0 0;#P message 261 395 149 196617 connect 244.255.44.255 5333;#P hidden newex 813 395 95 196617 prepend set connect;#P hidden newex 674 394 137 196617 sprintf %i.%i.%i.%i 5333;#P comment 438 391 13 196622 .;#P number 465 395 35 9 0 255 8263 3 0 0 0 221 221 221 222 222 222 0 0 0;#P toggle 244 376 15 0;#P comment 491 372 13 196622 .;#P comment 465 372 13 196622 .;#P hidden button 659 377 15 0;#P hidden newex 529 376 27 196617 gate;#P hidden newex 560 376 50 196617 sendOSC;#P hidden newex 608 376 50 196617 r gfxOSC;#P number 491 376 35 9 0 255 8263 3 0 0 0 221 221 221 222 222 222 0 0 0;#P number 439 376 35 9 0 255 8263 3 0 0 0 221 221 221 222 222 222 0 0 0;#P number 412 376 35 9 0 255 8263 3 0 0 0 221 221 221 222 222 222 0 0 0;#P message 261 376 149 196617 connect 244.255.44.255 5333;#P hidden newex 813 376 95 196617 prepend set connect;#P hidden newex 674 375 137 196617 sprintf %i.%i.%i.%i 5333;#P hidden button 29 288 15 0;#P hidden message 15 288 14 196617 0;#N counter 100;#X flags 0 0;#P hidden newobj 45 287 66 196617 counter 100;#P toggle 245 266 15 0;#P hidden newex 386 265 27 196617 gate;#P message 262 266 116 196617 connect 10.0.0.8 5333;#P hidden newex 465 264 50 196617 sendOSC;#P hidden newex 414 265 50 196617 r gfxOSC;#P toggle 245 245 15 0;#P hidden newex 385 244 27 196617 gate;#P message 262 245 115 196617 connect 10.0.0.41 5333;#P hidden newex 464 243 50 196617 sendOSC;#P hidden newex 413 243 50 196617 r gfxOSC;#P toggle 245 224 15 0;#P hidden newex 385 223 27 196617 gate;#P message 262 223 115 196617 connect 10.0.0.38 5333;#P hidden newex 464 222 50 196617 sendOSC;#P hidden newex 413 222 50 196617 r gfxOSC;#P toggle 245 203 15 0;#P hidden newex 385 202 27 196617 gate;#P message 262 202 115 196617 connect 10.0.0.33 5333;#P hidden newex 464 201 50 196617 sendOSC;#P hidden newex 413 201 50 196617 r gfxOSC;#P toggle 245 182 15 0;#P hidden newex 385 181 27 196617 gate;#P message 262 182 115 196617 connect 10.0.0.6 5333;#P hidden newex 464 180 50 196617 sendOSC;#P hidden newex 413 180 50 196617 r gfxOSC;#P comment 3 121 83 196626 inPUT;#P toggle 245 161 15 0;#P hidden newex 384 160 27 196617 gate;#P comment 103 259 101 196617 print 100 OSC packts;#P toggle 3 234 15 0;#P newex 18 233 27 196617 gate;#P number 90 234 35 9 0 0 0 3 0 0 0 221 221 221 222 222 222 0 0 0;#P button 44 234 15 0;#P newex 58 233 33 196617 timer;#P button 243 112 15 0;#P toggle 3 257 15 0;#P newex 17 256 27 196617 gate;#P newex 43 256 55 196617 print osc::;#N vpatcher 19 40 343 224;#P comment 23 103 224 196617 nik@f0.am - 'port' to max + various extensions;#P comment 23 28 257 196617 You may use \, modify and/or distribute under the terms of the GNU General Public License. Please see the LICENSE file for the specific terms of the license.;#P comment 23 70 135 196617 copyright 2001 FoAM vzw.;#P comment 23 89 162 196617 pix@test.at - pd version;#P pop;#P newobj 326 56 59 196617 p copyright;#P message 262 161 153 196617 connect 130.207.103.102 5333;#P hidden newex 463 159 50 196617 sendOSC;#P hidden newex 412 159 50 196617 r gfxOSC;#N vpatcher 587 96 948 293;#P comment 177 146 91 196617 10.0.0.*;#P comment 14 147 36 196617 iPAQs;#P comment 83 56 89 196617 wired ethernet;#P comment 179 98 91 196617 10.0.0.17;#P comment 84 80 89 196617 130.207.103.62;#P comment 180 80 70 196617 10.0.0.100;#P comment 83 128 91 196617 130.207.103.67;#P comment 83 113 91 196617 130.207.103.102;#P comment 83 97 91 196617 130.207.103.103;#P comment 15 113 56 196617 graphics 1;#P comment 15 97 40 196617 vision;#P comment 15 81 21 196617 oz;#P comment 15 129 36 196617 sound;#P comment 15 27 125 95223822 network config;#P comment 178 28 100 196617 tml 13.1.03;#P comment 180 56 67 196617 airport;#P pop;#P newobj 329 80 35 196617 p netz;#P newex 1 157 78 196617 dumpOSC 5333;#P newex 1 200 162 196617 print distributor:unrouted sensor:;#P comment 9 55 314 196618 this patch recevices OSC from the external world and sends data to each player_shell patch. it also receives data from the players \, and sends it out as OSC packets on port 5333;#P newex 1 179 60 196617 route_input;#P comment 129 236 75 196617 packet thruput;#P comment 268 108 83 196626 ouztPUT;#P comment 2 22 100 196626 distributor;#P comment 438 372 13 196622 .;#P number 465 376 35 9 0 255 8263 3 0 0 0 221 221 221 222 222 222 0 0 0;#P comment 271 138 196 196617 connect first \, then open udp floodgates;#P comment 244 358 34 196617 open;#P comment 211 161 27 196617 gfx;#P comment 462 54 369 196617 nik@f0.am xinwei@sponge.org - jan 3 vinny fiano - jan 3 - added frontEnd connection to Flash OSC monitor for eerm;#P comment 462 86 198 196617 18.05.2003 sxw added inputTinyOs;#P connect 13 0 10 0;#P connect 10 0 12 0;#P hidden connect 57 2 58 0;#P hidden connect 58 0 20 0;#P hidden connect 21 0 20 0;#P hidden connect 27 0 26 0;#P hidden connect 20 0 59 0;#P hidden connect 13 0 20 1;#P hidden connect 13 0 26 1;#P hidden connect 20 0 19 0;#P hidden connect 26 0 24 0;#P hidden connect 59 0 57 0;#P hidden connect 24 0 23 0;#P hidden connect 24 0 23 1;#P hidden connect 23 0 25 0;#P connect 138 0 137 0;#P connect 137 0 136 0;#P connect 136 0 135 0;#P hidden connect 131 0 130 0;#P hidden connect 130 0 125 0;#P hidden connect 125 0 134 0;#P hidden connect 61 0 62 0;#P hidden connect 76 0 77 0;#P hidden connect 91 0 92 0;#P fasten 22 0 17 0 248 144 267 144;#P fasten 22 0 34 0 248 143 267 143;#P fasten 22 0 39 0 248 143 267 143;#P fasten 22 0 44 0 248 144 267 144;#P fasten 22 0 49 0 248 143 267 143;#P fasten 22 0 54 0 248 144 267 144;#P fasten 22 0 107 0 248 144 267 144;#P hidden connect 113 0 114 0;#P hidden connect 30 0 29 0;#P hidden connect 36 0 35 0;#P hidden connect 41 0 40 0;#P hidden connect 46 0 45 0;#P hidden connect 51 0 50 0;#P hidden connect 56 0 55 0;#P hidden connect 109 0 108 0;#P hidden connect 15 0 29 1;#P hidden connect 32 0 35 1;#P hidden connect 37 0 40 1;#P hidden connect 42 0 45 1;#P hidden connect 47 0 50 1;#P hidden connect 52 0 55 1;#P hidden connect 105 0 108 1;#P hidden connect 131 0 132 0;#P hidden connect 132 0 115 0;#P hidden connect 124 0 120 0;#P hidden connect 120 0 119 0;#P hidden connect 114 0 119 0;#P hidden connect 17 0 16 0;#P hidden connect 29 0 16 0;#P hidden connect 35 0 33 0;#P hidden connect 34 0 33 0;#P hidden connect 39 0 38 0;#P hidden connect 40 0 38 0;#P hidden connect 45 0 43 0;#P hidden connect 44 0 43 0;#P hidden connect 49 0 48 0;#P hidden connect 50 0 48 0;#P hidden connect 55 0 53 0;#P hidden connect 54 0 53 0;#P hidden connect 107 0 106 0;#P hidden connect 108 0 106 0;#P hidden connect 118 0 120 1;#P hidden connect 133 0 117 0;#P hidden connect 131 0 133 0;#P hidden connect 72 0 68 0;#P hidden connect 87 0 83 0;#P hidden connect 102 0 98 0;#P hidden connect 66 0 68 1;#P hidden connect 81 0 83 1;#P hidden connect 96 0 98 1;#P hidden connect 68 0 67 0;#P hidden connect 62 0 67 0;#P hidden connect 77 0 82 0;#P hidden connect 83 0 82 0;#P hidden connect 98 0 97 0;#P hidden connect 92 0 97 0;#P hidden connect 65 0 69 0;#P hidden connect 5 0 69 0;#P hidden connect 64 0 69 0;#P hidden connect 63 0 69 0;#P hidden connect 80 0 84 0;#P hidden connect 73 0 84 0;#P hidden connect 79 0 84 0;#P hidden connect 78 0 84 0;#P hidden connect 95 0 99 0;#P hidden connect 88 0 99 0;#P hidden connect 94 0 99 0;#P hidden connect 93 0 99 0;#P hidden connect 117 0 121 0;#P hidden connect 110 0 121 0;#P hidden connect 116 0 121 0;#P hidden connect 115 0 121 0;#P hidden connect 69 0 60 0;#P hidden connect 63 0 60 0;#P hidden connect 84 0 75 0;#P hidden connect 78 0 75 0;#P hidden connect 99 0 90 0;#P hidden connect 93 0 90 0;#P hidden connect 121 0 112 0;#P hidden connect 115 0 112 0;#P hidden connect 64 0 60 1;#P hidden connect 79 0 75 1;#P hidden connect 94 0 90 1;#P hidden connect 116 0 112 1;#P hidden connect 5 0 60 2;#P hidden connect 73 0 75 2;#P hidden connect 88 0 90 2;#P hidden connect 110 0 112 2;#P hidden connect 65 0 60 3;#P hidden connect 80 0 75 3;#P hidden connect 95 0 90 3;#P hidden connect 117 0 112 3;#P hidden connect 60 0 61 0;#P hidden connect 75 0 76 0;#P hidden connect 90 0 91 0;#P hidden connect 112 0 113 0;#P pop;