max v2;#N vpatcher 11 159 1063 634;#P origin 0 1;#P hidden newex 428 254 27 196617 gate;#P newex 428 272 89 196617 print drive-eerm:;#P toggle 412 272 15 0;#P comment 867 232 16 196617 3;#B color 14;#P comment 982 256 16 196617 2;#B color 14;#P message 888 255 90 196617 0. 0.1 0.9 IFR p1;#P comment 872 212 97 196620 discrete jumps;#P comment 430 66 97 196620 continuous;#P message 764 307 102 196617 0.05 0.15 0.8 IFR p2;#P message 764 231 102 196617 0.05 0.9 0.05 IFR p1;#P message 764 248 102 196617 0.05 0.05 0.9 IFR p1;#P message 764 385 149 196617 0.396834 0.603166 0. RME p2;#P message 764 367 89 196617 0.4 0.6 0. RME p1;#P message 763 347 180 196617 0.543061 0.349885 0.107055 IFR p2;#P message 762 329 180 196617 0.429986 0.504042 0.06598 IFR p1;#P message 764 289 102 196617 0.15 0.8 0.05 IFR p2;#P message 764 271 102 196617 0.8 0.05 0.15 IFR p2;#P message 764 214 102 196617 0.8 0.01 0.19 IFR p1;#P newex 877 106 34 196617 !- 1.;#P flonum 855 89 35 9 0. 1. 3 3 0 0 0 221 221 221 222 222 222 0 0 0;#P newex 835 140 90 196617 pak 0. 0. 0. IFR p2;#P newex 973 103 34 196617 !- 1.;#P flonum 954 87 35 9 0. 1. 3 3 0 0 0 221 221 221 222 222 222 0 0 0;#P newex 933 139 90 196617 pak 0. 0. 0. IFR p2;#P newex 754 105 34 196617 !- 1.;#P flonum 733 88 35 9 0. 1. 3 3 0 0 0 221 221 221 222 222 222 0 0 0;#P newex 733 141 90 196617 pak 0. 0. 0. IFR p2;#P newex 572 109 34 196617 !- 1.;#P flonum 550 92 35 9 0. 1. 3 3 0 0 0 221 221 221 222 222 222 0 0 0;#P newex 530 143 90 196617 pak 0. 0. 0. IFR p1;#P newex 668 106 34 196617 !- 1.;#P flonum 649 90 35 9 0. 1. 3 3 0 0 0 221 221 221 222 222 222 0 0 0;#P newex 628 142 90 196617 pak 0. 0. 0. IFR p1;#P newex 449 108 34 196617 !- 1.;#P flonum 428 91 35 9 0. 1. 3 3 0 0 0 221 221 221 222 222 222 0 0 0;#P newex 428 144 90 196617 pak 0. 0. 0. IFR p1;#P newex 559 272 61 196617 s eermInput;#P message 498 214 249 196617 TokenSetSimplex \$5 \$4 \, TokenSetCoord \$5 \$1 \$2 \$3;#P comment 622 273 100 196617 to dynamics-eerm;#P newex 166 635 61 196617 r eermInput;#P toggle 132 661 15 0;#P hidden newex 148 660 27 196617 gate;#P newex 147 661 89 196617 print drive-eerm:;#N vpreset 1;#P preset 114 57 47 27;#P newex 443 479 131 196617 print drive-eerm potential:;#P toggle 424 478 15 0;#P hidden newex 444 478 27 196617 gate;#P toggle 238 593 15 0;#P hidden newex 258 593 27 196617 gate;#P newex 256 593 144 196617 print drive-eerm set simplex:;#P user ubumenu 214 518 49 196617 0 1 1;#X add p1;#X add p2;#X prefix_set 0 0 <none>;#P user ubumenu 126 520 49 196617 0 1 1;#X add p1;#X add p2;#X prefix_set 0 0 <none>;#P user ubumenu 44 520 49 196617 0 1 1;#X add p1;#X add p2;#X prefix_set 0 0 <none>;#P user ubumenu 464 396 49 196617 0 1 1;#X add intrude;#X add feed;#X add reveal;#X add spawn;#X add excavate;#X add extrude;#X prefix_set 0 0 <none>;#P newex 420 426 78 196617 pack 0. intrude;#P user multiSlider 420 344 30 78 -1. 1. 1 2937 47;#M frgb 141 255 207;#M brgb 255 255 255;#M rgb2 127 127 127;#P button 110 256 15 0;#P user GSwitch2 41 409 39 32 1 0;#P newex 52 255 51 196617 Ldiv 100.;#P user ubumenu 223 369 49 196617 0 1 1;#X add intrude;#X add feed;#X add reveal;#X add spawn;#X add excavate;#X add extrude;#X prefix_set 0 0 <none>;#P newex 86 369 134 196617 unpack 0. 0. 0. 0. 0. 0. 0. 0.;#P newex 86 390 165 196617 pack 0. 0. 0. 0. 0. 0. 0. 0. intrude;#P newex 23 633 61 196617 s eermInput;#N vpatcher 20 85 436 438;#P origin 0 -34;#P outlet 63 305 15 0;#N vpreset 1;#X append 1 2 0 114 53 multiSlider list 0.907692 0.092308 0.076923 \; 7 125 204 ubumenu int 0 \;;#P preset 204 76 47 27;#P newex 56 184 109 196617 normalize_pos_vector;#P user ubumenu 204 125 49 196617 0 1 1;#X add p1;#X add p2;#X prefix_set 0 0 <none>;#P inlet 161 23 29 0;#P message 60 274 255 196617 TokenSetSimplex \$4 RME \, TokenSetCoord \$4 \$1 \$2 \$3;#P button 66 94 15 0;#P newex 111 251 153 196617 print drive-eerm: set RE coords;#P newex 100 203 74 196617 unpack 0. 0. 0.;#P newex 100 225 81 196617 pack 0. 0. 0. p1;#P user multiSlider 53 114 93 67 0. 1. 3 2937 47;#M frgb 42 106 255;#M brgb 255 255 255;#M rgb2 127 127 127;#P connect 4 0 0 0;#P connect 0 0 8 0;#P connect 1 0 5 0;#P connect 5 0 10 0;#P connect 6 0 4 0;#P connect 8 0 2 0;#P connect 2 0 1 0;#P connect 1 0 3 0;#P connect 2 1 1 1;#P connect 2 2 1 2;#P connect 7 1 1 3;#P connect 6 0 1 3;#P pop;#P newobj 234 539 101 196617 p setRevealExcavate;#N vpatcher 20 85 490 440;#P outlet 67 312 22 0;#N vpreset 1;#X append 1 2 0 122 73 multiSlider list 0.907692 0.076923 0.076923 \; 7 132 211 ubumenu int 1 \;;#P preset 210 82 47 27;#P newex 76 192 109 196617 normalize_pos_vector;#P user ubumenu 211 132 49 196617 0 1 1;#X add p1;#X add p2;#X prefix_set 0 0 <none>;#P inlet 168 30 29 0;#P message 67 281 253 196617 TokenSetSimplex \$4 FSE \, TokenSetCoord \$4 \$1 \$2 \$3;#P button 73 101 15 0;#P newex 115 258 150 196617 print drive-eerm: setFS coords;#P newex 103 212 74 196617 unpack 0. 0. 0.;#P newex 107 232 81 196617 pack 0. 0. 0. p1;#P user multiSlider 73 122 93 67 0. 1. 3 2937 47;#M frgb 66 181 1;#M brgb 255 255 255;#M rgb2 127 127 127;#P connect 1 0 5 0;#P connect 5 0 10 0;#P connect 6 0 4 0;#P connect 4 0 0 0;#P connect 0 0 8 0;#P connect 8 0 2 0;#P connect 2 0 1 0;#P connect 1 0 3 0;#P connect 2 1 1 1;#P connect 2 2 1 2;#P connect 6 0 1 3;#P connect 7 1 1 3;#P pop;#P newobj 145 539 79 196617 p setFeedSpawn;#N vpatcher 20 85 520 496;#P outlet 56 341 15 0;#N vpreset 1;#X append 1 2 0 122 73 multiSlider list 0.846154 0.107692 0.076923 \; 7 132 211 ubumenu int 1 \;;#P preset 212 82 47 27;#P newex 78 203 109 196617 normalize_pos_vector;#P user ubumenu 211 132 49 196617 0 1 1;#X add p1;#X add p2;#X prefix_set 0 0 <none>;#P inlet 168 30 29 0;#P message 55 314 251 196617 TokenSetSimplex \$4 IFR \, TokenSetCoord \$4 \$1 \$2 \$3;#P button 73 101 15 0;#P newex 103 291 122 196617 print drive-eerm: coords;#P newex 91 236 74 196617 unpack 0. 0. 0.;#P newex 95 265 81 196617 pack 0. 0. 0. p1;#P user multiSlider 73 122 93 67 0. 1. 3 2937 47;#M frgb 197 1 15;#M brgb 255 255 255;#M rgb2 127 127 127;#P connect 1 0 5 0;#P connect 5 0 10 0;#P connect 6 0 4 0;#P connect 4 0 0 0;#P connect 0 0 8 0;#P connect 8 0 2 0;#P connect 2 0 1 0;#P connect 1 0 3 0;#P connect 2 1 1 1;#P connect 2 2 1 2;#P connect 7 1 1 3;#P connect 6 0 1 3;#P pop;#P newobj 64 540 62 196617 p setIntrude;#P message 433 530 71 196617 PostSimplices;#P message 433 514 71 196617 PostTokens;#P message 419 448 115 196617 NodeSetPotential \$2 \$1;#P message 202 449 205 196617 NodeSetMean \$9 \$1 \$2 \$3 \$4 \$5 \$6 \$7 \$8;#P message -6 450 205 196617 NodeSetMean \$9 \$1 \$2 \$3 \$4 \$5 \$6 \$7 \$8;#P message 109 103 26 196617 100;#P button 29 104 15 0;#P flonum 93 198 73 9 -1. 1. 3 3 0 0 0 221 221 221 222 222 222 0 0 0;#P newex 52 231 51 196617 Lmult 1.;#P user multiSlider 52 281 266 68 -1. 1. 8 2681 47;#M frgb 255 0 0;#M brgb 255 255 255;#M rgb2 127 127 127;#P number 52 78 35 9 0 0 0 3 0 0 0 221 221 221 222 222 222 0 0 0;#P user uslider 51 22 33 37 100 1 0 0;#P message 87 103 20 196617 50;#P message 71 103 14 196617 0;#P user multiSlider 52 124 266 68 0. 100. 8 2665 47;#M frgb 255 0 0;#M brgb 255 255 255;#M rgb2 127 127 127;#P comment 429 41 291 196620 set STATE in corners of IFR simplex;#P comment 114 28 135 196626 drive-eerm;#P comment 253 40 100 196617 sends via eermInput;#P comment 764 198 16 196617 1;#B color 14;#P connect 27 0 14 0;#P fasten 16 0 22 0 424 474 28 474;#P lcolor 16;#P fasten 21 0 22 0 239 568 28 568;#P lcolor 15;#P fasten 19 0 22 0 69 568 28 568;#P lcolor 15;#P fasten 20 0 22 0 150 568 28 568;#P lcolor 15;#P fasten 15 0 22 0 207 474 28 474;#P lcolor 16;#P fasten 14 0 22 0 2 465 2 474 28 474;#P lcolor 16;#P fasten 11 0 12 0 98 220 19 220 19 103 34 103;#P connect 7 0 8 0;#P hidden connect 13 0 4 0;#P connect 12 0 4 0;#P connect 8 0 4 0;#P hidden connect 6 0 4 0;#P hidden connect 5 0 4 0;#P connect 4 0 10 0;#P connect 10 0 26 0;#P connect 26 0 9 0;#P connect 28 0 9 0;#P connect 32 1 19 0;#P connect 23 0 27 1;#P connect 9 0 24 0;#P connect 24 0 23 0;#P connect 11 0 10 1;#P connect 24 1 23 1;#P fasten 25 1 28 0 247 387 332 387 332 245 115 245;#P lcolor 6;#P connect 24 2 23 2;#P connect 24 3 23 3;#P connect 33 1 20 0;#P connect 43 0 42 0;#P hidden connect 44 0 43 0;#P connect 24 4 23 4;#P connect 45 0 43 1;#P connect 24 5 23 5;#P connect 24 6 23 6;#P connect 27 1 15 0;#P connect 24 7 23 7;#P connect 34 1 21 0;#P connect 25 1 23 8;#P connect 36 0 35 0;#P hidden connect 37 0 36 0;#P fasten 21 0 36 1 239 561 280 561;#P hidden fasten 20 0 36 1 150 561 280 561;#P hidden fasten 19 0 36 1 69 561 280 561;#P connect 30 0 16 0;#P connect 29 0 30 0;#P connect 50 0 49 0;#P hidden connect 82 0 84 0;#P hidden connect 84 0 83 0;#P connect 38 0 40 0;#P hidden connect 39 0 38 0;#P hidden connect 47 0 84 1;#P connect 51 0 49 1;#P connect 50 0 51 0;#P fasten 16 0 38 1 424 468 466 468;#P connect 31 1 30 1;#P fasten 79 0 47 0 893 282 754 282 754 200 503 200;#P fasten 67 0 47 0 769 229 755 229 755 207 503 207;#P fasten 75 0 47 0 769 245 755 245 755 207 503 207;#P fasten 74 0 47 0 769 264 755 264 755 207 503 207;#P fasten 68 0 47 0 769 281 755 281 755 207 503 207;#P fasten 69 0 47 0 769 304 755 304 755 207 503 207;#P fasten 76 0 47 0 769 323 755 323 755 208 503 208;#P fasten 70 0 47 0 767 345 755 345 755 208 503 208;#P fasten 71 0 47 0 768 363 755 363 755 208 503 208;#P fasten 72 0 47 0 769 384 755 384 755 208 503 208;#P fasten 73 0 47 0 769 403 755 403 755 207 503 207;#P fasten 49 0 47 0 433 176 503 176 503 208 503 208;#P fasten 55 0 47 0 535 177 503 177;#P fasten 52 0 47 0 633 177 503 177;#P fasten 58 0 47 0 738 187 503 187;#P fasten 64 0 47 0 840 187 503 187;#P fasten 61 0 47 0 938 187 503 187;#P connect 56 0 55 0;#P fasten 47 0 48 0 503 234 564 234;#P connect 57 0 55 2;#P connect 56 0 57 0;#P connect 53 0 52 1;#P connect 53 0 54 0;#P connect 54 0 52 2;#P connect 59 0 58 0;#P connect 60 0 58 1;#P connect 59 0 60 0;#P connect 65 0 64 0;#P connect 66 0 64 2;#P connect 65 0 66 0;#P connect 62 0 61 1;#P connect 62 0 63 0;#P connect 63 0 61 2;#P pop;