max v2;#N vpatcher 170 75 967 626;#P origin 10 -30;#P newex 238 283 108 196617 print eermMaxOutput:;#P message 526 223 278 196617 TokenSetSimplex p5 FSE \, TokenSetCoord p5 0.95 0.02 0.03;#P message 512 205 272 196617 TokenSetSimplex p2 FSE \, TokenSetCoord p2 0.8 0.05 0.15;#P message 498 187 270 196617 TokenSetSimplex p1 IFR \, TokenSetCoord p1 0.9 0.05 0.05;#P hidden newex 506 306 61 196617 s eermInput;#P message 543 279 71 196617 PostSimplices;#P message 543 263 71 196617 PostTokens;#P message 400 475 28 196617 open;#P newex 400 492 209 196617 Text ::dynamics:eerm:eermMaxMessages.h;#P comment 147 156 99 196617 3. Open sensor gate.;#B color 5;#P comment 5 156 43 196617 2.Tick!;#B color 5;#P comment 370 32 233 196617 yon visell 12.2002 eermMaxTest eermMax wrapper;#P comment 370 58 234 196617 xinwei@sponge.org 1.13.2003 modified from eermMaxTest \, replaced nik's placeholder;#P hidden newex 1 492 61 196617 s eermInput;#P hidden newex 79 171 61 196617 r eermInput;#P newex 126 329 125 196617 reroute-state.template p5;#P newex 110 310 125 196617 reroute-state.template p4;#P newex 96 292 125 196617 reroute-state.template p3;#P newex 82 274 125 196617 reroute-state.template p2;#P newex 72 253 125 196617 reroute-state.template p1;#P comment 194 34 165 196617 Instructions: First bang the script \; then start the metro and open the sensor gate.;#B color 13;#P toggle 147 172 15 0;#P newex 170 172 27 196617 gate;#P comment 107 465 41 72679442 all;#P flonum 331 495 32 12 0 0 32 4950 0 0 0 221 221 221 222 222 222 0 0 0;#P noclick;#P flonum 292 495 32 12 0 0 32 4950 0 0 0 221 221 221 222 222 222 0 0 0;#P noclick;#P flonum 257 495 32 12 0 0 32 4950 0 0 0 221 221 221 222 222 222 0 0 0;#P noclick;#P flonum 222 495 32 12 0 0 32 4950 0 0 0 221 221 221 222 222 222 0 0 0;#P noclick;#P flonum 187 495 32 12 0 0 32 4950 0 0 0 221 221 221 222 222 222 0 0 0;#P noclick;#P flonum 152 495 32 12 0 0 32 4950 0 0 0 221 221 221 222 222 222 0 0 0;#P noclick;#P flonum 99 496 35 12 0 0 32 4950 0 0 0 221 221 221 222 222 222 0 0 0;#P noclick;#P comment 338 437 34 72679442 gS;#B color 10;#N vpatcher 40 55 440 355;#P newex 77 64 42 196617 uzi 150;#N counter 0 150;#X flags 0 0;#P newobj 77 85 72 196617 counter 0 150;#P message 77 106 45 196617 line \$1;#P inlet 77 27 15 0;#P outlet 72 244 15 0;#P connect 2 0 0 0;#P connect 1 0 4 0;#P connect 4 0 3 0;#P connect 3 0 2 0;#P pop;#P newobj 249 91 68 196617 p DumpScript;#P newex 249 114 236 956301324 Text :dynamics:txoomRoomConfig.txt;#B color 12;#N vpatcher 330 45 730 345;#P newex 78 113 49 196617 route set;#P hidden newex 108 132 68 196617 print [script];#P newex 78 132 28 196617 t b s;#P inlet 77 27 15 0;#P outlet 72 244 15 0;#P connect 2 1 0 0;#P connect 1 0 4 0;#P connect 4 0 2 0;#P hidden connect 2 1 3 0;#P pop 1;#P newobj 70 140 68 196617 p StripBlanks;#N vpatcher 40 55 440 355;#P outlet 199 244 15 0;#P newex 77 64 42 196617 uzi 150;#N counter 0 150;#X flags 0 0;#P newobj 77 85 72 196617 counter 0 150;#P message 77 106 45 196617 line \$1;#P inlet 77 27 15 0;#P outlet 72 244 15 0;#P connect 2 0 0 0;#P connect 1 0 4 0;#P connect 4 0 3 0;#P connect 3 0 2 0;#P fasten 4 1 5 0 98 162 204 162;#P pop;#P newobj 7 91 68 196617 p DumpScript;#N vpatcher 464 286 997 469;#P flonum 344 83 35 9 0 0 0 3 0 0 0 221 221 221 222 222 222 0 0 0;#P flonum 259 83 35 9 0 0 0 3 0 0 0 221 221 221 222 222 222 0 0 0;#P flonum 160 83 35 9 0 0 0 3 0 0 0 221 221 221 222 222 222 0 0 0;#P flonum 115 83 35 9 0 0 0 3 0 0 0 221 221 221 222 222 222 0 0 0;#P newex 344 64 74 196617 r room-motion;#P newex 259 64 80 196617 r room-angmom;#P newex 160 64 91 196617 r room-synchrony;#P newex 60 64 85 196617 r room-deviation;#P comment 40 33 127 72679442 rmDataIn;#B color 14;#P comment 196 29 244 196617 xinwei@sponge.org 1.13.2003 only 1D simplex: passive - alert \, 1 sensor channel;#P outlet 21 123 15 0;#P newex 21 99 49 196617 pak p0 0.;#P comment 424 65 123 196617 computed in room-munge;#P connect 1 0 2 0;#P connect 5 0 1 1;#P connect 5 0 9 0;#P connect 6 0 10 0;#P connect 7 0 11 0;#P connect 8 0 12 0;#P pop 1;#P newobj 620 29 78 324403212 p rmDataIn;#B color 6;#N vpatcher 40 55 617 338;#P newex 207 79 49 196617 r p5-s17;#P newex 155 79 49 196617 r p5-s16;#P newex 434 79 49 196617 r p5-s28;#P newex 382 79 49 196617 r p5-s27;#P newex 321 79 49 196617 r p5-s25;#P newex 269 79 49 196617 r p5-s24;#P newex 98 79 49 196617 r p5-s11;#P newex 46 79 49 196617 r p5-s10;#P comment 395 64 78 196617 AutoCorr 1 & 2;#B color 14;#P comment 294 64 57 196617 Tilt 1 & 2;#B color 12;#P comment 183 64 48 196617 <E> 1 & 2;#B color 6;#P comment 74 64 49 196617 Acc mag.;#B color 1;#P outlet 46 187 15 0;#P newex 46 116 133 196617 pak p5 0. 0. 0. 0. 0. 0. 0. 0.;#P connect 0 0 1 0;#P fasten 6 0 0 1 51 106 66 106;#P lcolor 2;#P fasten 7 0 0 2 103 106 81 106;#P lcolor 2;#P fasten 12 0 0 3 160 106 96 106;#P lcolor 7;#P fasten 13 0 0 4 212 106 111 106;#P lcolor 7;#P fasten 8 0 0 5 274 106 126 106;#P lcolor 13;#P fasten 9 0 0 6 326 106 141 106;#P lcolor 13;#P fasten 10 0 0 7 387 106 156 106;#P lcolor 15;#P fasten 11 0 0 8 439 106 171 106;#P lcolor 15;#P pop;#P newobj 662 141 78 324403212 p p5DataIn;#B color 5;#N vpatcher 40 55 619 341;#P newex 207 79 49 196617 r p4-s17;#P newex 155 79 49 196617 r p4-s16;#P newex 434 79 49 196617 r p4-s28;#P newex 382 79 49 196617 r p4-s27;#P newex 321 79 49 196617 r p4-s25;#P newex 269 79 49 196617 r p4-s24;#P newex 98 79 49 196617 r p4-s11;#P newex 46 79 49 196617 r p4-s10;#P comment 395 64 78 196617 AutoCorr 1 & 2;#B color 14;#P comment 294 64 57 196617 Tilt 1 & 2;#B color 12;#P comment 183 64 48 196617 <E> 1 & 2;#B color 6;#P comment 74 64 49 196617 Acc mag.;#B color 1;#P outlet 46 187 15 0;#P newex 46 116 133 196617 pak p4 0. 0. 0. 0. 0. 0. 0. 0.;#P connect 0 0 1 0;#P fasten 6 0 0 1 51 106 66 106;#P lcolor 2;#P fasten 7 0 0 2 103 106 81 106;#P lcolor 2;#P fasten 12 0 0 3 160 106 96 106;#P lcolor 7;#P fasten 13 0 0 4 212 106 111 106;#P lcolor 7;#P fasten 8 0 0 5 274 106 126 106;#P lcolor 13;#P fasten 9 0 0 6 326 106 141 106;#P lcolor 13;#P fasten 10 0 0 7 387 106 156 106;#P lcolor 15;#P fasten 11 0 0 8 439 106 171 106;#P lcolor 15;#P pop;#P newobj 650 119 78 324403212 p p4DataIn;#B color 5;#N vpatcher 40 55 630 358;#P newex 207 79 49 196617 r p3-s17;#P newex 155 79 49 196617 r p3-s16;#P newex 434 79 49 196617 r p3-s28;#P newex 382 79 49 196617 r p3-s27;#P newex 321 79 49 196617 r p3-s25;#P newex 269 79 49 196617 r p3-s24;#P newex 98 79 49 196617 r p3-s11;#P newex 46 79 49 196617 r p3-s10;#P comment 395 64 78 196617 AutoCorr 1 & 2;#B color 14;#P comment 294 64 57 196617 Tilt 1 & 2;#B color 12;#P comment 183 64 48 196617 <E> 1 & 2;#B color 6;#P comment 74 64 49 196617 Acc mag.;#B color 1;#P outlet 46 187 15 0;#P newex 46 116 133 196617 pak p3 0. 0. 0. 0. 0. 0. 0. 0.;#P connect 0 0 1 0;#P fasten 6 0 0 1 51 106 66 106;#P lcolor 2;#P fasten 7 0 0 2 103 106 81 106;#P lcolor 2;#P fasten 12 0 0 3 160 106 96 106;#P lcolor 7;#P fasten 13 0 0 4 212 106 111 106;#P lcolor 7;#P fasten 8 0 0 5 274 106 126 106;#P lcolor 13;#P fasten 9 0 0 6 326 106 141 106;#P lcolor 13;#P fasten 10 0 0 7 387 106 156 106;#P lcolor 15;#P fasten 11 0 0 8 439 106 171 106;#P lcolor 15;#P pop;#P newobj 641 96 78 324403212 p p3DataIn;#B color 5;#N vpatcher 40 55 631 350;#P newex 207 79 49 196617 r p2-s17;#P newex 155 79 49 196617 r p2-s16;#P newex 434 79 49 196617 r p2-s28;#P newex 382 79 49 196617 r p2-s27;#P newex 321 79 49 196617 r p2-s25;#P newex 269 79 49 196617 r p2-s24;#P newex 98 79 49 196617 r p2-s11;#P newex 46 79 49 196617 r p2-s10;#P comment 395 64 78 196617 AutoCorr 1 & 2;#B color 14;#P comment 294 64 57 196617 Tilt 1 & 2;#B color 12;#P comment 183 64 48 196617 <E> 1 & 2;#B color 6;#P comment 74 64 49 196617 Acc mag.;#B color 1;#P outlet 46 187 15 0;#P newex 46 116 133 196617 pak p2 0. 0. 0. 0. 0. 0. 0. 0.;#P connect 0 0 1 0;#P fasten 6 0 0 1 51 106 66 106;#P lcolor 2;#P fasten 7 0 0 2 103 106 81 106;#P lcolor 2;#P fasten 12 0 0 3 160 106 96 106;#P lcolor 7;#P fasten 13 0 0 4 212 106 111 106;#P lcolor 7;#P fasten 8 0 0 5 274 106 126 106;#P lcolor 13;#P fasten 9 0 0 6 326 106 141 106;#P lcolor 13;#P fasten 10 0 0 7 387 106 156 106;#P lcolor 15;#P fasten 11 0 0 8 439 106 171 106;#P lcolor 15;#P pop;#P newobj 634 74 78 324403212 p p2DataIn;#B color 5;#P flonum 97 441 35 12 0. 1. 35 4950 0 0 0 221 221 221 222 222 222 0 0 0;#P noclick;#P flonum 97 418 35 12 3. 100. 35 4950 0 0 0 221 221 221 222 222 222 0 0 0;#P comment 329 466 33 72679442 rm;#P comment 290 466 33 72679442 p5;#P comment 256 466 33 72679442 p4;#P comment 222 466 33 72679442 p3;#P comment 188 466 33 72679442 p2;#P comment 154 466 33 72679442 p1;#P comment 138 439 56 72679442 Slew;#B color 10;#N vpatcher 468 261 1051 548;#P newex 207 79 49 196617 r p1-s17;#P newex 155 79 49 196617 r p1-s16;#P newex 434 79 49 196617 r p1-s28;#P newex 382 79 49 196617 r p1-s27;#P newex 321 79 49 196617 r p1-s25;#P newex 269 79 49 196617 r p1-s24;#P newex 98 79 49 196617 r p1-s11;#P newex 46 79 49 196617 r p1-s10;#P comment 395 64 78 196617 AutoCorr 1 & 2;#B color 14;#P comment 294 64 57 196617 Tilt 1 & 2;#B color 12;#P comment 183 64 48 196617 <E> 1 & 2;#B color 6;#P comment 74 64 49 196617 Acc mag.;#B color 1;#P outlet 46 187 15 0;#P newex 46 116 133 196617 pak p1 0. 0. 0. 0. 0. 0. 0. 0.;#P connect 0 0 1 0;#P fasten 6 0 0 1 51 106 66 106;#P lcolor 2;#P fasten 7 0 0 2 103 106 81 106;#P lcolor 2;#P fasten 12 0 0 3 160 106 96 106;#P lcolor 7;#P fasten 13 0 0 4 212 106 111 106;#P lcolor 7;#P fasten 8 0 0 5 274 106 126 106;#P lcolor 13;#P fasten 9 0 0 6 326 106 141 106;#P lcolor 13;#P fasten 10 0 0 7 387 106 156 106;#P lcolor 15;#P fasten 11 0 0 8 439 106 171 106;#P lcolor 15;#P pop;#P newobj 628 53 78 324403212 p p1DataIn;#B color 5;#P comment 30 39 127 72679442 eerm-txoom;#B color 14;#P hidden newex 8 463 83 196617 prepend SetSlew;#P hidden newex 8 435 71 196617 prepend SetDt;#P toggle 238 174 15 0;#P hidden newex 208 174 27 196617 gate;#P toggle 5 173 15 0;#P number 28 173 32 9 0 0 0 3 0 0 0 221 221 221 222 222 222 0 0 0;#P newex 5 191 55 196617 metro 100;#P button 5 321 15 0;#P newex 256 174 114 196617 print <eermMaxOutput>;#P button 7 74 15 0;#P newex 66 202 158 196620 eermMax 11 10 7 8 10.;#P comment 139 415 32 72679442 Dt;#B color 10;#P user panel 96 465 273 27;#X brgb 187 143 143;#X frgb 0 0 0;#X border 1;#X rounded 0;#X shadow 0;#X done;#P newex 7 114 241 956301324 Text :dynamics:txoomPlayerConfig.txt;#B color 12;#P comment 254 193 126 196617 If Oz-local \, listen directly to pN-sM (no OSC);#P user panel 92 410 287 111;#X brgb 231 231 231;#X frgb 0 0 0;#X border 1;#X rounded 0;#X shadow 0;#X done;#P user panel 2 35 188 33;#X brgb 229 195 234;#X frgb 0 0 0;#X border 1;#X rounded 0;#X shadow 0;#X done;#P comment 26 75 107 196617 1. Load init script.;#B color 5;#P comment 400 410 178 196617 TODO: Need to tune static potentials \, means \, variances. Also runtime control of mass?;#P hidden fasten 17 0 57 0 13 458 6 458;#P hidden fasten 18 0 57 0 13 484 6 484;#P fasten 14 0 12 0 10 188 10 188;#P fasten 12 0 11 0 10 209 10 209;#P connect 9 0 35 0;#P connect 35 0 5 0;#P hidden connect 28 0 17 0;#P hidden connect 29 0 18 0;#P fasten 13 0 12 1 33 189 55 189;#P fasten 11 0 8 0 10 341 63 341 63 199 71 199;#P lcolor 7;#P fasten 48 0 8 0 175 192 71 192;#P lcolor 6;#P hidden connect 56 0 8 0;#P fasten 36 0 8 0 75 189 71 189;#P fasten 5 0 36 0 12 140 75 140;#P hidden connect 8 0 51 0;#P hidden connect 8 0 52 0;#P hidden connect 8 0 53 0;#P hidden connect 8 0 54 0;#P hidden connect 8 0 55 0;#P fasten 49 0 48 0 152 189 165 189 165 169 175 169;#P fasten 30 0 48 1 639 169 192 169;#P lcolor 6;#P fasten 33 0 48 1 667 169 192 169;#P lcolor 6;#P fasten 32 0 48 1 655 169 192 169;#P lcolor 6;#P fasten 20 0 48 1 633 169 192 169;#P lcolor 6;#P fasten 31 0 48 1 646 169 192 169;#P lcolor 6;#P fasten 34 0 48 1 625 168 192 168;#P lcolor 7;#P hidden connect 16 0 15 0;#P hidden fasten 8 0 15 1 71 246 230 246;#P fasten 35 1 38 0 70 104 185 104 185 85 254 85;#P connect 38 0 37 0;#P hidden connect 15 0 10 0;#P connect 63 0 62 0;#P hidden connect 65 0 66 0;#P hidden connect 64 0 66 0;#P hidden connect 69 0 66 0;#P hidden connect 68 0 66 0;#P hidden connect 67 0 66 0;#P pop;