max v2;#N vpatcher 244 172 672 482;#P comment 150 195 162 196617 nik@f0.am - 'port' to max;#P comment 150 120 257 196617 You may use \, modify and/or distribute under the terms of the GNU General Public License. Please see the LICENSE file for the specific terms of the license.;#P comment 150 162 135 196617 copyright 2001 FoAM vzw.;#P comment 150 181 162 196617 pix@test.at - pd version;#P newex 78 128 50 9 int;#P newex 58 227 27 9 - 0.;#P newex 58 64 50 9 t f f;#P inlet 156 26 15 0;#P inlet 58 30 15 0;#P outlet 58 256 15 0;#P newex 78 96 30 9 / $1;#P newex 98 168 30 9 * $1;#P comment 186 29 172 196618 modulus that works for floats;#P connect 4 0 6 0;#P connect 6 0 7 0;#P connect 7 0 3 0;#P connect 1 0 7 1;#P connect 6 1 2 0;#P connect 2 0 8 0;#P connect 5 0 2 1;#P connect 8 0 1 0;#P connect 5 0 1 1;#P pop;