max v2;#N vpatcher 244 172 542 442;#P comment 15 231 162 196617 nik@f0.am - 'port' to max;#P comment 15 156 257 196617 You may use \, modify and/or distribute under the terms of the GNU General Public License. Please see the LICENSE file for the specific terms of the license.;#P comment 15 198 135 196617 copyright 2001 FoAM vzw.;#P comment 15 217 162 196617 pix@test.at - pd version;#P inlet 8 24 15 0;#P inlet 29 24 15 0;#P outlet 8 98 15 0;#P outlet 69 98 15 0;#P newex 29 63 50 9 t b f;#P comment 105 21 168 196618 this is really a pass-through object \, except that inputs on the right \, will send a bang to the left output as well as the data to the right output. the idea being that you connect this above a binary math operator like + or * \, and both inputs behave as if they are "hot".;#P connect 5 0 3 0;#P connect 1 0 3 0;#P connect 4 0 1 0;#P connect 1 1 2 0;#P pop;