max v2;#N vpatcher 193 84 603 506;#P origin 153 0;#P comment 131 250 162 196617 nik@f0.am - 'port' to max;#P comment 131 175 257 196617 You may use \, modify and/or distribute under the terms of the GNU General Public License. Please see the LICENSE file for the specific terms of the license.;#P comment 131 217 135 196617 copyright 2001 FoAM vzw.;#P comment 131 236 162 196617 pix@test.at - pd version;#P outlet 169 373 15 0;#P newex 67 239 38 9 * 1000.;#P inlet 22 40 15 0;#P newex 22 128 50 9 select 0;#P message 22 289 27 9 0;#P message 60 288 27 9 1;#P outlet 38 369 15 0;#P newex 38 326 50 9 change;#P message 67 187 17 9 1.;#P comment 129 77 127 196618 input toggle for the left input of a metro \, 0 hz is obtained by turning the metro off;#P newex 46 55 50 9 loadbang;#P newex 67 155 50 9 t b f;#P newex 67 212 50 9 /;#P newex 46 94 30 9 f $1;#P connect 0 0 10 0;#P connect 11 0 10 0;#P connect 10 0 9 0;#P connect 9 0 6 0;#P connect 8 0 6 0;#P connect 6 0 7 0;#P connect 3 0 0 0;#P connect 12 0 8 0;#P connect 10 1 2 0;#P connect 2 0 5 0;#P connect 5 0 1 0;#P connect 1 0 12 0;#P connect 2 1 1 1;#P connect 12 0 13 0;#P pop;