max v2;#N vpatcher 270 262 568 649;#P comment 19 299 162 196617 nik@f0.am - 'port' to max;#P comment 19 224 257 196617 You may use \, modify and/or distribute under the terms of the GNU General Public License. Please see the LICENSE file for the specific terms of the license.;#P comment 19 266 135 196617 copyright 2001 FoAM vzw.;#P comment 19 285 162 196617 pix@test.at - pd version;#P inlet 22 106 15 0;#P inlet 67 106 15 0;#P newex 22 138 55 9 pack f $1;#P newex 22 164 50 9 route 1;#P outlet 22 192 15 0;#P comment 22 72 50 196618 if: type;#P outlet 81 192 15 0;#P newex 81 163 50 9 route 0;#P comment 95 71 163 196618 right inlet holds an element of type arriving on the right input. it is sent out on the left if a 1 is received on the left input. otherwise it is sent out on the right outlet.;#P connect 8 0 6 0;#P connect 6 0 5 0;#P connect 5 0 4 0;#P connect 7 0 6 1;#P connect 5 1 1 0;#P connect 1 0 2 0;#P pop;