max v2;#N vpatcher 30 70 291 313;#P outlet 25 163 15 0;#P flonum 25 137 35 9 0 0 0 3 0 0 0 221 221 221 222 222 222 0 0 0;#P newex 26 93 75 196617 unpack 0 0 0 0;#P newex 25 73 40 196617 jit.iter;#P newex 25 116 38 196617 / 255.;#P inlet 25 49 15 0;#P comment 116 63 110 196617 single char byte quicktime to float value;#P comment 117 96 100 196617 nik@f0.am;#P connect 2 0 4 0;#P connect 5 2 3 0;#P connect 3 0 6 0;#P connect 6 0 7 0;#P connect 4 0 5 0;#P pop;