max v2;#N vpatcher 331 132 681 539;#P comment 51 361 162 196617 nik@f0.am - 'port' to max;#P comment 51 286 257 196617 You may use \, modify and/or distribute under the terms of the GNU General Public License. Please see the LICENSE file for the specific terms of the license.;#P comment 51 328 135 196617 copyright 2001 FoAM vzw.;#P comment 51 347 162 196617 pix@test.at - pd version;#P newex 86 101 50 9 f;#P newex 46 130 30 9 + 0.;#P newex 46 77 50 9 t f b;#P inlet 46 28 15 0;#P outlet 86 262 15 0;#P newex 46 165 29 9 - $1;#P inlet 153 31 15 0;#P newex 46 194 50 9 moses 0;#P message 95 226 17 9 0.;#P comment 182 82 151 196618 leaky accumulator. the right input is the amount of leakiness. the leakiness can also be specified as a parameter to the object at creation time. there is a problem in that if the data does not come at regular intervals \, the leakiness appears to happen irregularly. it wouldn't be that tricky to make the leakiness to be proportional to the time delay.;#P comment 183 30 100 196626 lacc;#P connect 7 0 8 0;#P connect 8 0 9 0;#P connect 9 0 5 0;#P connect 5 0 3 0;#P fasten 4 0 5 1 158 152 70 152;#P connect 10 0 9 1;#P connect 8 1 10 0;#P connect 3 1 6 0;#P connect 2 0 6 0;#P fasten 3 0 2 0 51 221 100 221;#P fasten 2 0 10 1 100 250 175 250 175 93 131 93;#P fasten 3 1 10 1 91 215 165 215 165 82 131 82;#P pop;