max v2;#N vpatcher 195 129 873 452;#P origin 0 -63;#P inlet 6 44 15 0;#P comment 141 10 213 196617 unpack a list into sensor channels.;#P comment 5 4 127 196626 list2sensor;#P newex 386 93 51 196617 s $1-s0;#P newex 610 288 51 196617 s $1-s50;#P newex 610 269 51 196617 s $1-s49;#P newex 610 250 51 196617 s $1-s48;#P newex 610 231 51 196617 s $1-s47;#P newex 610 212 51 196617 s $1-s46;#P newex 610 192 51 196617 s $1-s45;#P newex 610 172 51 196617 s $1-s44;#P newex 610 152 51 196617 s $1-s43;#P newex 610 132 51 196617 s $1-s42;#P newex 610 113 51 196617 s $1-s41;#P newex 555 288 51 196617 s $1-s40;#P newex 555 269 51 196617 s $1-s39;#P newex 555 250 51 196617 s $1-s38;#P newex 555 231 51 196617 s $1-s37;#P newex 555 212 51 196617 s $1-s36;#P newex 555 192 51 196617 s $1-s35;#P newex 555 172 51 196617 s $1-s34;#P newex 555 152 51 196617 s $1-s33;#P newex 555 132 51 196617 s $1-s32;#P newex 555 113 51 196617 s $1-s31;#P newex 500 288 51 196617 s $1-s30;#P newex 500 269 51 196617 s $1-s29;#P newex 500 250 51 196617 s $1-s28;#P newex 500 231 51 196617 s $1-s27;#P newex 500 212 51 196617 s $1-s26;#P newex 500 192 51 196617 s $1-s25;#P newex 500 172 51 196617 s $1-s24;#P newex 500 152 51 196617 s $1-s23;#P newex 500 132 51 196617 s $1-s22;#P newex 500 113 51 196617 s $1-s21;#P newex 444 288 51 196617 s $1-s20;#P newex 444 269 51 196617 s $1-s19;#P newex 444 250 51 196617 s $1-s18;#P newex 444 231 51 196617 s $1-s17;#P newex 444 212 51 196617 s $1-s16;#P newex 444 192 51 196617 s $1-s15;#P newex 444 172 51 196617 s $1-s14;#P newex 444 152 51 196617 s $1-s13;#P newex 444 132 51 196617 s $1-s12;#P newex 444 113 51 196617 s $1-s11;#P newex 387 288 51 196617 s $1-s10;#P newex 387 269 51 196617 s $1-s9;#P newex 387 250 51 196617 s $1-s8;#P newex 387 231 51 196617 s $1-s7;#P newex 387 212 51 196617 s $1-s6;#P newex 387 192 51 196617 s $1-s5;#P newex 387 172 51 196617 s $1-s4;#P newex 387 152 51 196617 s $1-s3;#P newex 6 64 654 196617 unpack 0. 0. 0. 0. 0. 0. 0. 0. 0. 0. 0. 0. 0. 0. 0. 0. 0. 0. 0. 0. 0. 0. 0. 0. 0. 0. 0. 0. 0. 0. 0. 0. 0. 0. 0. 0. 0. 0. 0. 0. 0. 0. 0. 0. 0. 0. 0. 0. 0. 0. 0.;#P newex 387 132 51 196617 s $1-s2;#P newex 387 113 51 196617 s $1-s1;#P comment 142 27 100 196617 nik@f0.am;#P connect 55 0 3 0;#P connect 3 0 52 0;#P connect 3 1 1 0;#P connect 3 2 2 0;#P connect 3 3 4 0;#P connect 3 4 5 0;#P connect 3 5 6 0;#P connect 3 6 7 0;#P connect 3 7 8 0;#P connect 3 8 9 0;#P connect 3 9 10 0;#P connect 3 10 11 0;#P connect 3 11 12 0;#P connect 3 12 13 0;#P connect 3 13 14 0;#P connect 3 14 15 0;#P connect 3 15 16 0;#P connect 3 16 17 0;#P connect 3 17 18 0;#P connect 3 18 19 0;#P connect 3 19 20 0;#P connect 3 20 21 0;#P connect 3 21 22 0;#P connect 3 22 23 0;#P connect 3 23 24 0;#P connect 3 24 25 0;#P connect 3 25 26 0;#P connect 3 26 27 0;#P connect 3 27 28 0;#P connect 3 28 29 0;#P connect 3 29 30 0;#P connect 3 30 31 0;#P connect 3 31 32 0;#P connect 3 32 33 0;#P connect 3 33 34 0;#P connect 3 34 35 0;#P connect 3 35 36 0;#P connect 3 36 37 0;#P connect 3 37 38 0;#P connect 3 38 39 0;#P connect 3 39 40 0;#P connect 3 40 41 0;#P connect 3 41 42 0;#P connect 3 42 43 0;#P connect 3 43 44 0;#P connect 3 44 45 0;#P connect 3 45 46 0;#P connect 3 46 47 0;#P connect 3 47 48 0;#P connect 3 48 49 0;#P connect 3 49 50 0;#P connect 3 50 51 0;#P pop;