max v2;#N vpatcher 200 194 499 429;#P number 121 74 35 9 0 0 0 3 0 0 0 221 221 221 222 222 222 0 0 0;#P newex 73 143 38 196617 Lave 0;#P newex 73 120 59 196617 circbuff 10;#P outlet 73 197 15 0;#P inlet 121 43 15 0;#P inlet 73 43 15 0;#P comment 29 23 190 196617 moving average over a number of points;#P comment 160 76 61 196617 window size;#P connect 2 0 5 0;#P connect 5 0 6 0;#P connect 6 0 4 0;#P connect 3 0 7 0;#P connect 7 0 5 2;#P pop;