max v2;#N vpatcher 20 85 325 388;#P flonum 145 69 35 9 0 0 0 3 0 0 0 221 221 221 222 222 222 0 0 0;#P comment 24 266 162 196617 nik@f0.am - 'port' to max;#P comment 24 203 257 196617 You may use \, modify and/or distribute under the terms of the GNU General Public License. Please see the LICENSE file for the specific terms of the license.;#P comment 24 245 135 196617 copyright 2001 FoAM vzw.;#P flonum 36 88 33 9 0 0 0 3 0 0 0 221 221 221 222 222 222 0 0 0;#P message 124 69 21 196617 $1;#P newex 79 69 45 196617 loadbang;#P outlet 199 170 15 0;#P newex 36 107 173 196617 if ($f1 < $f2) then $f1 else out2 $f1;#P outlet 36 169 15 0;#P inlet 199 71 15 0;#P inlet 36 66 15 0;#P comment 33 26 33 196617 moses;#P comment 32 43 184 196617 parts numbers - for pd comapatability;#P connect 2 0 9 0;#P connect 9 0 5 0;#P connect 5 0 4 0;#P connect 7 0 8 0;#P connect 8 0 13 0;#P connect 13 0 5 1;#P connect 3 0 5 1;#P connect 5 1 6 0;#P pop;