max v2;#N vpatcher 377 193 705 403;#P comment 33 21 177 196626 munge-mavg;#P newex 99 112 50 9 mavg;#P newex 35 59 29 9 r $1;#P newex 118 62 105 9 r $2-mavg_window;#P newex 97 151 30 9 s $2;#P connect 3 0 0 0;#P connect 2 0 3 0;#P connect 1 0 3 1;#P pop;