max v2;#N vpatcher 516 141 857 454;#P comment 39 264 256 196617 nik@f0.am - intial version;#P comment 38 202 257 196617 You may use \, modify and/or distribute under the terms of the GNU General Public License. Please see the LICENSE file for the specific terms of the license.;#P comment 38 245 135 196617 copyright 2001 FoAM vzw.;#P newex 34 104 54 196617 r $1;#P newex 107 104 54 196617 r $2;#P newex 174 104 54 196617 r $3;#P newex 34 169 55 196617 s $4;#P comment 36 30 256 196618 calculates the magnitude of a 3d vector \, and outputs a single value.;#P comment 35 60 256 196618 arguments are the sensor numbers for the 3 single magnitudes and the output sensor number (scaled from 0..1);#P newex 34 139 248 196617 expr sqrt($f1* $f1 + $f2 * $f2 + $f3 * $f3) / 1.73;#P connect 6 0 0 0;#P connect 0 0 3 0;#P connect 5 0 0 1;#P connect 4 0 0 2;#P pop;