max v2;#N vpatcher 244 172 550 457;#P comment 19 242 162 196617 nik@f0.am - 'port' to max;#P comment 19 167 257 196617 You may use \, modify and/or distribute under the terms of the GNU General Public License. Please see the LICENSE file for the specific terms of the license.;#P comment 19 209 135 196617 copyright 2001 FoAM vzw.;#P comment 19 228 162 196617 pix@test.at - pd version;#P newex 51 32 50 9 r $1;#P newex 116 6 95 9 r $2-avgacc_freq;#P newex 116 37 58 9 hztoms 0;#P newex 119 68 50 9 metro;#P newex 92 101 50 9 avgacc;#P newex 92 127 30 9 s $2;#P connect 5 0 1 0;#P connect 2 0 1 0;#P connect 1 0 0 0;#P connect 4 0 3 0;#P connect 3 0 2 0;#P connect 3 1 2 1;#P pop;