max v2;#N vpatcher 30 70 430 370;#N comlet normalized vector;#P outlet 109 208 21 0;#P newex 65 82 27 196617 t l l;#N comlet vector to be normalized \, all positive components;#P inlet 66 41 27 0;#P newex 109 158 45 196617 Ldiv 1.;#P newex 135 111 31 196617 Lsum;#P connect 2 0 3 0;#P fasten 3 0 1 0 70 129 114 129;#P connect 1 0 4 0;#P fasten 3 1 0 0 87 105 140 105;#P fasten 0 0 1 1 140 136 149 136;#P pop;