max v2;#N vpatcher 18 45 842 324;#P origin 43 0;#P inlet 733 38 15 0;#P outlet 595 158 15 0;#P inlet 595 38 15 0;#P newex 595 114 65 196617 sensor2pixel;#P outlet 525 158 15 0;#P inlet 525 38 15 0;#P newex 525 114 65 196617 sensor2pixel;#P outlet 455 158 15 0;#P inlet 455 38 15 0;#P newex 455 114 65 196617 sensor2pixel;#P outlet 385 158 15 0;#P inlet 385 38 15 0;#P newex 385 114 65 196617 sensor2pixel;#P outlet 315 158 15 0;#P inlet 315 38 15 0;#P newex 315 114 65 196617 sensor2pixel;#P outlet 245 158 15 0;#P inlet 245 38 15 0;#P newex 245 114 65 196617 sensor2pixel;#P outlet 175 158 15 0;#P inlet 175 38 15 0;#P newex 175 114 65 196617 sensor2pixel;#P outlet 105 158 15 0;#P inlet 105 38 15 0;#P newex 105 114 65 196617 sensor2pixel;#P outlet 35 158 15 0;#P inlet 35 38 15 0;#P newex 35 114 65 196617 sensor2pixel;#P connect 1 0 0 0;#P connect 0 0 2 0;#P connect 27 0 0 1;#P connect 4 0 3 0;#P connect 3 0 5 0;#P connect 27 0 3 1;#P connect 7 0 6 0;#P connect 6 0 8 0;#P connect 27 0 6 1;#P connect 10 0 9 0;#P connect 9 0 11 0;#P connect 27 0 9 1;#P connect 13 0 12 0;#P connect 12 0 14 0;#P connect 27 0 12 1;#P connect 16 0 15 0;#P connect 15 0 17 0;#P connect 27 0 15 1;#P connect 19 0 18 0;#P connect 18 0 20 0;#P connect 27 0 18 1;#P connect 22 0 21 0;#P connect 21 0 23 0;#P connect 27 0 21 1;#P connect 25 0 24 0;#P connect 24 0 26 0;#P connect 27 0 24 1;#P pop;