max v2;#N vpatcher 99 85 383 482;#P origin 0 -55;#P comment 6 364 162 196617 nik@f0.am - 'port' to max;#P comment 6 289 257 196617 You may use \, modify and/or distribute under the terms of the GNU General Public License. Please see the LICENSE file for the specific terms of the license.;#P comment 6 331 135 196617 copyright 2001 FoAM vzw.;#P comment 6 350 162 196617 pix@test.at - pd version;#P newex 36 173 61 9 ptrigger $1;#P newex 36 206 42 9 Llist;#P newex 36 143 42 9 t b l;#P newex 72 108 74 196617 route list float;#P comment 5 2 201 196626 probablistic throttle;#P inlet 72 83 15 0;#P outlet 125 267 15 0;#P newex 125 171 61 9 ptrigger $1;#P newex 125 204 42 9 f;#P newex 125 140 42 9 t b f;#P inlet 176 80 15 0;#P comment 6 31 250 196618 initialisation value or second input is the chance [0 \, 1] of echoing a float received on the left inlet to the outlet.;#P connect 8 0 9 0;#P connect 9 0 11 0;#P connect 11 0 10 0;#P connect 9 1 10 1;#P connect 6 0 8 0;#P fasten 1 0 11 1 181 163 92 163;#P connect 8 1 2 0;#P connect 2 0 4 0;#P connect 4 0 3 0;#P connect 3 0 5 0;#P connect 10 0 5 0;#P connect 2 1 3 1;#P connect 1 0 4 1;#P pop;