max v2;#N vpatcher 156 77 469 514;#P origin 0 -79;#P comment 31 405 162 196617 nik@f0.am - 'port' to max;#P comment 31 330 257 196617 You may use \, modify and/or distribute under the terms of the GNU General Public License. Please see the LICENSE file for the specific terms of the license.;#P comment 31 372 135 196617 copyright 2001 FoAM vzw.;#P comment 31 391 162 196617 pix@test.at - pd version;#P newex 231 178 28 196617 f $1;#P inlet 231 113 15 0;#P message 52 241 13 9 bang;#P outlet 52 297 15 0;#P inlet 51 111 15 0;#P comment 68 112 50 196618 trigger;#P message 231 241 13 9 bang;#P outlet 231 297 15 0;#P newex 52 214 189 9 if $f1 > $f2 then bang else out2 bang;#P newex 51 161 104 9 random 9999999.;#P newex 52 182 103 9 / 9999999.;#P comment 141 112 88 196618 chance of firing;#P comment 51 36 207 196618 when a bang is recieved on the left input \, it has a chance of being handed through to the output. the chance [0 \, 1] can be specified as a parameter to the object or changed live via the right input.;#P comment 52 3 193 196626 probabalistic trigger;#P connect 9 0 4 0;#P connect 4 0 3 0;#P connect 3 0 5 0;#P connect 5 0 11 0;#P connect 11 0 10 0;#P connect 12 0 13 0;#P connect 13 0 5 1;#P connect 5 1 7 0;#P connect 7 0 6 0;#P pop;