max v2;#N vpatcher 418 302 749 517;#P origin 0 -11;#P comment 51 177 162 196617 nik@f0.am - 'port' to max;#P comment 51 102 257 196617 You may use \, modify and/or distribute under the terms of the GNU General Public License. Please see the LICENSE file for the specific terms of the license.;#P comment 51 144 135 196617 copyright 2001 FoAM vzw.;#P comment 51 163 162 196617 pix@test.at - pd version;#P newex 23 78 159 196617 expr sqrt(($f1*$f1)+($f2*$f2));#P comment 23 1 202 196626 pyth(agourous);#P inlet 23 32 15 0;#P inlet 172 38 15 0;#P outlet 23 119 15 0;#P connect 2 0 4 0;#P connect 4 0 0 0;#P connect 1 0 4 1;#P pop;