max v2;#N vpatcher 129 46 732 652;#P comment 250 289 162 196617 nik@f0.am - 'port' to max;#P comment 250 214 257 196617 You may use \, modify and/or distribute under the terms of the GNU General Public License. Please see the LICENSE file for the specific terms of the license.;#P comment 250 256 135 196617 copyright 2001 FoAM vzw.;#P comment 250 275 162 196617 pix@test.at - pd version;#P newex 14 536 205 196617 print DEBUG:: rdelta patch not yet debugged;#P newex 88 186 50 9 abs;#P newex 104 145 50 9 t f f;#P newex 132 265 50 9 if f;#P newex 131 477 50 9 -;#P newex 126 412 50 9 hot2;#P newex 220 374 50 9 sign;#P newex 167 375 50 9 abs;#P newex 145 344 50 9 t f f;#P newex 156 507 50 9 *;#P newex 103 64 50 9 delta;#P inlet 101 29 15 0;#P outlet 317 533 15 0;#P newex 226 54 50 9 f \$1;#P newex 195 24 50 9 loadbang;#P inlet 276 26 15 0;#P newex 181 82 50 9 * 2;#P newex 102 112 50 9 fmod;#P newex 116 448 50 9 f;#P newex 81 224 50 9 >;#P newex 110 304 50 9 fmod;#P comment 252 107 287 196618 rolling delta \, for values which roll around from +x to -x. it returns the smallest possible distance between succesive points. for example +x \, -x will return 0 \, not 2x.;#P comment 250 177 289 196618 the first creation argument (and right inlet) specifies x.;#P connect 11 0 22 0;#P connect 21 0 3 0;#P connect 20 0 21 0;#P connect 12 0 5 0;#P connect 11 0 12 0;#P connect 5 0 20 0;#P connect 19 0 2 0;#P connect 17 0 4 0;#P connect 9 0 3 1;#P connect 4 0 18 0;#P connect 3 0 19 0;#P connect 6 0 5 1;#P connect 2 0 14 0;#P connect 9 0 2 1;#P connect 9 0 4 1;#P connect 18 0 13 0;#P connect 15 0 17 1;#P connect 14 0 15 0;#P connect 17 1 18 1;#P connect 20 1 19 1;#P connect 9 0 6 0;#P connect 16 0 13 1;#P connect 14 1 16 0;#P connect 7 0 9 0;#P connect 8 0 9 0;#P connect 13 0 10 0;#P connect 19 1 10 0;#P pop;