max v2;#N vpatcher 485 66 1153 493;#P newex 462 343 74 196617 s room-motion;#P newex 339 343 80 196617 s room-angmom;#P newex 240 343 91 196617 s room-synchrony;#P newex 129 343 85 196617 s room-deviation;#P comment 578 300 19 196617 4;#P comment 577 225 19 196617 3;#P comment 144 302 19 196617 2;#P comment 493 145 140 196617 4: total floor velocity (measures distance traveled);#P comment 495 94 129 196617 3: total angular momentum about the center (measures "turbulence") -- change to sum-of-abs(L);#P comment 495 76 129 196617 2: group acceleration sync;#N vpatcher 416 303 996 589;#P newex 46 229 27 196617 / 5.;#N vpatcher 40 55 440 355;#P newex 45 67 27 196617 t f f;#P newex 66 136 27 196617 - 0.;#P outlet 40 187 15 0;#P inlet 45 45 15 0;#P fasten 2 0 1 0 71 163 45 163;#P connect 0 0 3 0;#P fasten 3 1 2 0 67 116 71 116;#P fasten 3 0 2 1 50 105 88 105;#P pop;#P newobj 383 94 38 196617 p delta;#N vpatcher 40 55 440 355;#P newex 45 67 27 196617 t f f;#P newex 66 136 27 196617 - 0.;#P outlet 40 187 15 0;#P inlet 45 45 15 0;#P fasten 2 0 1 0 71 163 45 163;#P connect 0 0 3 0;#P fasten 3 1 2 0 67 116 71 116;#P fasten 3 0 2 1 50 105 88 105;#P pop;#P newobj 352 76 38 196617 p delta;#P newex 352 54 74 196617 unpack 0. 0. 0.;#P inlet 352 31 15 0;#N vpatcher 40 55 440 355;#P newex 45 67 27 196617 t f f;#P newex 66 136 27 196617 - 0.;#P outlet 40 187 15 0;#P inlet 45 45 15 0;#P fasten 2 0 1 0 71 163 45 163;#P connect 0 0 3 0;#P fasten 3 1 2 0 67 116 71 116;#P fasten 3 0 2 1 50 105 88 105;#P pop;#P newobj 307 94 38 196617 p delta;#N vpatcher 40 55 440 355;#P newex 45 67 27 196617 t f f;#P newex 66 136 27 196617 - 0.;#P outlet 40 187 15 0;#P inlet 45 45 15 0;#P fasten 2 0 1 0 71 163 45 163;#P connect 0 0 3 0;#P fasten 3 1 2 0 67 116 71 116;#P fasten 3 0 2 1 50 105 88 105;#P pop;#P newobj 276 76 38 196617 p delta;#P newex 276 54 74 196617 unpack 0. 0. 0.;#P inlet 276 31 15 0;#N vpatcher 40 55 440 355;#P newex 45 67 27 196617 t f f;#P newex 66 136 27 196617 - 0.;#P outlet 40 187 15 0;#P inlet 45 45 15 0;#P fasten 2 0 1 0 71 163 45 163;#P connect 0 0 3 0;#P fasten 3 1 2 0 67 116 71 116;#P fasten 3 0 2 1 50 105 88 105;#P pop;#P newobj 231 94 38 196617 p delta;#N vpatcher 40 55 440 355;#P newex 45 67 27 196617 t f f;#P newex 66 136 27 196617 - 0.;#P outlet 40 187 15 0;#P inlet 45 45 15 0;#P fasten 2 0 1 0 71 163 45 163;#P connect 0 0 3 0;#P fasten 3 1 2 0 67 116 71 116;#P fasten 3 0 2 1 50 105 88 105;#P pop;#P newobj 200 76 38 196617 p delta;#P newex 200 54 74 196617 unpack 0. 0. 0.;#P inlet 200 31 15 0;#N vpatcher 40 55 440 355;#P newex 45 67 27 196617 t f f;#P newex 66 136 27 196617 - 0.;#P outlet 40 187 15 0;#P inlet 45 45 15 0;#P fasten 2 0 1 0 71 163 45 163;#P connect 0 0 3 0;#P fasten 3 1 2 0 67 116 71 116;#P fasten 3 0 2 1 50 105 88 105;#P pop;#P newobj 155 94 38 196617 p delta;#N vpatcher 40 55 440 355;#P newex 45 67 27 196617 t f f;#P newex 66 136 27 196617 - 0.;#P outlet 40 187 15 0;#P inlet 45 45 15 0;#P fasten 2 0 1 0 71 163 45 163;#P connect 0 0 3 0;#P fasten 3 1 2 0 67 116 71 116;#P fasten 3 0 2 1 50 105 88 105;#P pop;#P newobj 124 76 38 196617 p delta;#P newex 124 54 74 196617 unpack 0. 0. 0.;#P inlet 124 31 15 0;#N vpatcher 40 55 440 355;#P newex 45 67 27 196617 t f f;#P newex 66 136 27 196617 - 0.;#P outlet 40 187 15 0;#P inlet 45 45 15 0;#P fasten 2 0 1 0 71 163 45 163;#P connect 0 0 3 0;#P fasten 3 1 2 0 67 116 71 116;#P fasten 3 0 2 1 50 105 88 105;#P pop;#P newobj 79 94 38 196617 p delta;#N vpatcher 40 55 440 355;#P newex 45 67 27 196617 t f f;#P newex 66 136 27 196617 - 0.;#P outlet 40 187 15 0;#P inlet 45 45 15 0;#P fasten 2 0 1 0 71 163 45 163;#P connect 0 0 3 0;#P fasten 3 1 2 0 67 116 71 116;#P fasten 3 0 2 1 50 105 88 105;#P pop;#P newobj 48 76 38 196617 p delta;#N vpatcher 50 40 450 340;#P newex 173 194 27 196617 + 0.;#P newex 154 176 27 196617 + 0.;#P newex 135 158 27 196617 + 0.;#P newex 116 140 27 196617 + 0.;#P newex 97 122 27 196617 + 0.;#P newex 78 104 27 196617 + 0.;#P newex 57 86 29 196617 + 0.;#P newex 57 64 147 196617 unpack 0. 0. 0. 0. 0. 0. 0. 0.;#P outlet 173 218 15 0;#P inlet 57 34 15 0;#P connect 0 0 2 0;#P connect 2 0 3 0;#P connect 2 1 3 1;#P connect 3 0 4 0;#P connect 2 2 4 1;#P connect 4 0 5 0;#P connect 2 3 5 1;#P connect 5 0 6 0;#P connect 2 4 6 1;#P connect 6 0 7 0;#P connect 2 5 7 1;#P connect 7 0 8 0;#P connect 2 6 8 1;#P connect 8 0 9 0;#P connect 9 0 1 0;#P connect 2 7 9 1;#P pop;#P newobj 46 209 35 196617 p lsum;#P newex 46 187 165 196617 vexpr sqrt($f1 * $f1 + $f2 * $f2);#P newex 201 164 88 196617 pack 0. 0. 0. 0. 0.;#P newex 46 163 88 196617 pack 0. 0. 0. 0. 0.;#P newex 48 54 74 196617 unpack 0. 0. 0.;#P inlet 48 31 15 0;#P outlet 46 249 15 0;#P connect 7 0 3 0;#P connect 3 0 5 0;#P connect 5 0 6 0;#P connect 6 0 25 0;#P connect 25 0 0 0;#P connect 1 0 2 0;#P connect 2 0 7 0;#P connect 11 0 3 1;#P connect 2 1 8 0;#P connect 15 0 3 2;#P connect 19 0 3 3;#P connect 23 0 3 4;#P connect 9 0 10 0;#P connect 10 0 11 0;#P connect 10 1 12 0;#P connect 13 0 14 0;#P connect 14 0 15 0;#P connect 8 0 4 0;#P connect 4 0 5 1;#P connect 12 0 4 1;#P connect 14 1 16 0;#P connect 16 0 4 2;#P connect 20 0 4 3;#P connect 17 0 18 0;#P connect 18 0 19 0;#P connect 24 0 4 4;#P connect 18 1 20 0;#P connect 21 0 22 0;#P connect 22 0 23 0;#P connect 22 1 24 0;#P pop;#P newobj 509 298 66 196617 p getmotion;#P newex 537 271 48 196617 r p5-s9;#P newex 492 271 48 196617 r p4-s9;#P newex 445 271 48 196617 r p3-s9;#P newex 398 271 48 196617 r p2-s9;#P newex 352 271 38 196617 r p1s9;#N vpatcher 488 293 1001 673;#N vpatcher 50 40 450 340;#P newex 173 194 27 196617 + 0.;#P newex 154 176 27 196617 + 0.;#P newex 135 158 27 196617 + 0.;#P newex 116 140 27 196617 + 0.;#P newex 97 122 27 196617 + 0.;#P newex 78 104 27 196617 + 0.;#P newex 57 86 29 196617 + 0.;#P newex 57 64 147 196617 unpack 0. 0. 0. 0. 0. 0. 0. 0.;#P outlet 173 218 15 0;#P inlet 57 34 15 0;#P connect 0 0 2 0;#P connect 2 0 3 0;#P connect 2 1 3 1;#P connect 3 0 4 0;#P connect 2 2 4 1;#P connect 4 0 5 0;#P connect 2 3 5 1;#P connect 5 0 6 0;#P connect 2 4 6 1;#P connect 6 0 7 0;#P connect 2 5 7 1;#P connect 7 0 8 0;#P connect 2 6 8 1;#P connect 8 0 9 0;#P connect 9 0 1 0;#P connect 2 7 9 1;#P pop;#P newobj 102 256 35 196617 p lsum;#P newex 102 234 230 196617 vexpr abs(($f1 - 0.5) * $f2 - ($f3 - 0.5) * $f4);#P comment 224 198 24 196617 y;#P comment 68 197 24 196617 x;#P comment 179 167 24 196617 vy;#P newex 247 196 88 196617 pack 0. 0. 0. 0. 0.;#P newex 92 195 88 196617 pack 0. 0. 0. 0. 0.;#N vpatcher 40 55 440 355;#P newex 45 67 27 196617 t f f;#P newex 66 136 27 196617 - 0.;#P outlet 40 187 15 0;#P inlet 45 45 15 0;#P fasten 2 0 1 0 71 163 45 163;#P connect 0 0 3 0;#P fasten 3 1 2 0 67 116 71 116;#P fasten 3 0 2 1 50 105 88 105;#P pop;#P newobj 392 101 38 196617 p delta;#N vpatcher 40 55 440 355;#P newex 45 67 27 196617 t f f;#P newex 66 136 27 196617 - 0.;#P outlet 40 187 15 0;#P inlet 45 45 15 0;#P fasten 2 0 1 0 71 163 45 163;#P connect 0 0 3 0;#P fasten 3 1 2 0 67 116 71 116;#P fasten 3 0 2 1 50 105 88 105;#P pop;#P newobj 352 80 38 196617 p delta;#P newex 355 56 74 196617 unpack 0. 0. 0.;#P inlet 355 33 15 0;#N vpatcher 40 55 440 355;#P newex 45 67 27 196617 t f f;#P newex 66 136 27 196617 - 0.;#P outlet 40 187 15 0;#P inlet 45 45 15 0;#P fasten 2 0 1 0 71 163 45 163;#P connect 0 0 3 0;#P fasten 3 1 2 0 67 116 71 116;#P fasten 3 0 2 1 50 105 88 105;#P pop;#P newobj 316 101 38 196617 p delta;#N vpatcher 40 55 440 355;#P newex 45 67 27 196617 t f f;#P newex 66 136 27 196617 - 0.;#P outlet 40 187 15 0;#P inlet 45 45 15 0;#P fasten 2 0 1 0 71 163 45 163;#P connect 0 0 3 0;#P fasten 3 1 2 0 67 116 71 116;#P fasten 3 0 2 1 50 105 88 105;#P pop;#P newobj 276 80 38 196617 p delta;#P newex 279 56 74 196617 unpack 0. 0. 0.;#P inlet 279 33 15 0;#N vpatcher 40 55 440 355;#P newex 45 67 27 196617 t f f;#P newex 66 136 27 196617 - 0.;#P outlet 40 187 15 0;#P inlet 45 45 15 0;#P fasten 2 0 1 0 71 163 45 163;#P connect 0 0 3 0;#P fasten 3 1 2 0 67 116 71 116;#P fasten 3 0 2 1 50 105 88 105;#P pop;#P newobj 240 101 38 196617 p delta;#N vpatcher 40 55 440 355;#P newex 45 67 27 196617 t f f;#P newex 66 136 27 196617 - 0.;#P outlet 40 187 15 0;#P inlet 45 45 15 0;#P fasten 2 0 1 0 71 163 45 163;#P connect 0 0 3 0;#P fasten 3 1 2 0 67 116 71 116;#P fasten 3 0 2 1 50 105 88 105;#P pop;#P newobj 200 80 38 196617 p delta;#P newex 203 56 74 196617 unpack 0. 0. 0.;#P inlet 203 33 15 0;#N vpatcher 40 55 440 355;#P newex 45 67 27 196617 t f f;#P newex 66 136 27 196617 - 0.;#P outlet 40 187 15 0;#P inlet 45 45 15 0;#P fasten 2 0 1 0 71 163 45 163;#P connect 0 0 3 0;#P fasten 3 1 2 0 67 116 71 116;#P fasten 3 0 2 1 50 105 88 105;#P pop;#P newobj 164 101 38 196617 p delta;#N vpatcher 40 55 440 355;#P newex 45 67 27 196617 t f f;#P newex 66 136 27 196617 - 0.;#P outlet 40 187 15 0;#P inlet 45 45 15 0;#P fasten 2 0 1 0 71 163 45 163;#P connect 0 0 3 0;#P fasten 3 1 2 0 67 116 71 116;#P fasten 3 0 2 1 50 105 88 105;#P pop;#P newobj 124 80 38 196617 p delta;#P newex 127 56 74 196617 unpack 0. 0. 0.;#P inlet 127 33 15 0;#N vpatcher 40 55 440 355;#P newex 45 67 27 196617 t f f;#P newex 66 136 27 196617 - 0.;#P outlet 40 187 15 0;#P inlet 45 45 15 0;#P fasten 2 0 1 0 71 163 45 163;#P connect 0 0 3 0;#P fasten 3 1 2 0 67 116 71 116;#P fasten 3 0 2 1 50 105 88 105;#P pop;#P newobj 88 101 38 196617 p delta;#N vpatcher 40 55 440 355;#P newex 45 67 27 196617 t f f;#P newex 66 136 27 196617 - 0.;#P outlet 40 187 15 0;#P inlet 45 45 15 0;#P fasten 2 0 1 0 71 163 45 163;#P connect 0 0 3 0;#P fasten 3 1 2 0 67 116 71 116;#P fasten 3 0 2 1 50 105 88 105;#P pop;#P newobj 48 80 38 196617 p delta;#P newex 204 166 88 196617 pack 0. 0. 0. 0. 0.;#P newex 49 165 88 196617 pack 0. 0. 0. 0. 0.;#P newex 51 56 74 196617 unpack 0. 0. 0.;#P inlet 51 33 15 0;#P outlet 102 281 15 0;#P comment 24 166 24 196617 vx;#P connect 3 0 6 0;#P connect 6 0 4 0;#P connect 2 0 3 0;#P connect 10 0 4 1;#P connect 14 0 4 2;#P connect 3 1 7 0;#P connect 3 0 24 0;#P connect 24 0 29 0;#P connect 29 0 30 0;#P connect 30 0 1 0;#P connect 18 0 4 3;#P connect 9 0 24 1;#P connect 9 0 10 0;#P connect 22 0 4 4;#P connect 8 0 9 0;#P connect 13 0 24 2;#P connect 17 0 24 3;#P connect 9 1 11 0;#P connect 21 0 24 4;#P connect 5 0 29 1;#P connect 13 0 14 0;#P connect 12 0 13 0;#P connect 7 0 5 0;#P connect 11 0 5 1;#P connect 13 1 15 0;#P connect 15 0 5 2;#P connect 3 1 25 0;#P connect 25 0 29 2;#P connect 19 0 5 3;#P connect 9 1 25 1;#P connect 17 0 18 0;#P connect 16 0 17 0;#P connect 23 0 5 4;#P fasten 13 1 25 2 292 205;#P connect 17 1 25 3;#P connect 17 1 19 0;#P connect 4 0 29 3;#P connect 21 1 25 4;#P connect 21 0 22 0;#P connect 20 0 21 0;#P connect 21 1 23 0;#P pop;#P newobj 509 222 66 196617 p getangmom;#P newex 564 195 46 196617 r p5-s9;#P newex 517 195 43 196617 r p4-s9;#P newex 452 195 53 196617 r p3-s9;#P newex 400 195 49 196617 r p2-s9;#P newex 350 195 38 196617 r p1s9;#N vpatcher 159 205 606 475;#P message 156 186 50 196617 0.320691 0.025457 0.538486 0.0653 0.000002 0.000003 0.225634 0.015306;#P newex 156 165 60 196617 prepend set;#P newex 36 69 170 196617 vexpr $f1 * $f2 * $f3 * $f4 * $f5;#P inlet 134 40 15 0;#P inlet 115 40 15 0;#P inlet 96 40 15 0;#P inlet 77 40 15 0;#N vpatcher 50 40 450 340;#P newex 173 194 27 196617 + 0.;#P newex 154 176 27 196617 + 0.;#P newex 135 158 27 196617 + 0.;#P newex 116 140 27 196617 + 0.;#P newex 97 122 27 196617 + 0.;#P newex 78 104 27 196617 + 0.;#P newex 57 86 29 196617 + 0.;#P newex 57 64 147 196617 unpack 0. 0. 0. 0. 0. 0. 0. 0.;#P outlet 173 218 15 0;#P inlet 57 34 15 0;#P connect 0 0 2 0;#P connect 2 0 3 0;#P connect 2 1 3 1;#P connect 3 0 4 0;#P connect 2 2 4 1;#P connect 4 0 5 0;#P connect 2 3 5 1;#P connect 5 0 6 0;#P connect 2 4 6 1;#P connect 6 0 7 0;#P connect 2 5 7 1;#P connect 7 0 8 0;#P connect 2 6 8 1;#P connect 8 0 9 0;#P connect 9 0 1 0;#P connect 2 7 9 1;#P pop;#P newobj 36 99 35 196617 p lsum;#P inlet 58 40 15 0;#P outlet 36 151 15 0;#P comment 212 72 100 196617 this is pretty faked..;#P connect 2 0 8 0;#P connect 8 0 3 0;#P connect 3 0 1 0;#P connect 4 0 8 1;#P connect 5 0 8 2;#P connect 6 0 8 3;#P fasten 8 0 9 0 41 94 161 94;#P connect 9 0 10 0;#P connect 7 0 8 4;#P pop;#P newobj 76 300 66 196617 p getsync;#N vpatcher 40 55 440 355;#P outlet 63 157 15 0;#P newex 63 125 191 196617 pack 0. 0. 0. 0. 0. 0. 0. 0.;#P newex 308 50 38 196617 r p1s8;#P newex 267 50 38 196617 r p1s7;#P newex 226 50 38 196617 r p1s6;#P newex 185 50 38 196617 r p1s5;#P newex 144 50 38 196617 r p1s4;#P newex 103 50 38 196617 r p1s3;#P newex 62 50 38 196617 r p1s2;#P newex 20 50 38 196617 r p1s1;#P connect 0 0 8 0;#P connect 8 0 9 0;#P connect 1 0 8 1;#P connect 2 0 8 2;#P connect 3 0 8 3;#P connect 4 0 8 4;#P connect 5 0 8 5;#P connect 6 0 8 6;#P connect 7 0 8 7;#P pop;#P newobj 241 273 50 196617 p raccel5;#N vpatcher 40 55 440 355;#P outlet 63 157 15 0;#P newex 63 125 191 196617 pack 0. 0. 0. 0. 0. 0. 0. 0.;#P newex 308 50 38 196617 r p1s8;#P newex 267 50 38 196617 r p1s7;#P newex 226 50 38 196617 r p1s6;#P newex 185 50 38 196617 r p1s5;#P newex 144 50 38 196617 r p1s4;#P newex 103 50 38 196617 r p1s3;#P newex 62 50 38 196617 r p1s2;#P newex 20 50 38 196617 r p1s1;#P connect 0 0 8 0;#P connect 8 0 9 0;#P connect 1 0 8 1;#P connect 2 0 8 2;#P connect 3 0 8 3;#P connect 4 0 8 4;#P connect 5 0 8 5;#P connect 6 0 8 6;#P connect 7 0 8 7;#P pop;#P newobj 189 273 50 196617 p raccel4;#N vpatcher 40 55 440 355;#P outlet 63 157 15 0;#P newex 63 125 191 196617 pack 0. 0. 0. 0. 0. 0. 0. 0.;#P newex 308 50 38 196617 r p1s8;#P newex 267 50 38 196617 r p1s7;#P newex 226 50 38 196617 r p1s6;#P newex 185 50 38 196617 r p1s5;#P newex 144 50 38 196617 r p1s4;#P newex 103 50 38 196617 r p1s3;#P newex 62 50 38 196617 r p1s2;#P newex 20 50 38 196617 r p1s1;#P connect 0 0 8 0;#P connect 8 0 9 0;#P connect 1 0 8 1;#P connect 2 0 8 2;#P connect 3 0 8 3;#P connect 4 0 8 4;#P connect 5 0 8 5;#P connect 6 0 8 6;#P connect 7 0 8 7;#P pop;#P newobj 137 273 50 196617 p raccel3;#N vpatcher 40 55 440 355;#P outlet 63 157 15 0;#P newex 63 125 191 196617 pack 0. 0. 0. 0. 0. 0. 0. 0.;#P newex 308 50 38 196617 r p1s8;#P newex 267 50 38 196617 r p1s7;#P newex 226 50 38 196617 r p1s6;#P newex 185 50 38 196617 r p1s5;#P newex 144 50 38 196617 r p1s4;#P newex 103 50 38 196617 r p1s3;#P newex 62 50 38 196617 r p1s2;#P newex 20 50 38 196617 r p1s1;#P connect 0 0 8 0;#P connect 8 0 9 0;#P connect 1 0 8 1;#P connect 2 0 8 2;#P connect 3 0 8 3;#P connect 4 0 8 4;#P connect 5 0 8 5;#P connect 6 0 8 6;#P connect 7 0 8 7;#P pop;#P newobj 85 273 50 196617 p raccel2;#N vpatcher 349 106 876 399;#P flonum 131 158 129 9 0 0 0 3 0 0 0 221 221 221 222 222 222 0 0 0;#P flonum 257 88 40 9 0 0 0 3 0 0 0 221 221 221 222 222 222 0 0 0;#P flonum 199 89 40 9 0 0 0 3 0 0 0 221 221 221 222 222 222 0 0 0;#P flonum 114 80 40 9 0 0 0 3 0 0 0 221 221 221 222 222 222 0 0 0;#P flonum 57 83 40 9 0 0 0 3 0 0 0 221 221 221 222 222 222 0 0 0;#P newex 43 130 254 196617 expr 100. * pow($f3 - $f1\\\,2) + pow($f4 - $f2\\\,2);#P newex 153 52 74 196617 unpack 0. 0. 0.;#P inlet 153 29 15 0;#P newex 73 52 74 196617 unpack 0. 0. 0.;#P inlet 73 29 15 0;#P outlet 72 183 15 0;#P comment 286 39 100 196617 DUMMY -- just proximity for two players;#P connect 3 0 6 0;#P connect 3 0 7 0;#P connect 6 0 1 0;#P connect 2 0 3 0;#P connect 3 1 8 0;#P connect 3 1 6 1;#P connect 6 0 11 0;#P connect 4 0 5 0;#P connect 5 0 9 0;#P connect 5 0 6 2;#P connect 5 1 10 0;#P connect 5 1 6 3;#P pop;#P newobj 180 222 71 196617 p getdeviation;#N vpatcher 44 361 444 661;#P outlet 63 157 15 0;#P newex 63 125 191 196617 pack 0. 0. 0. 0. 0. 0. 0. 0.;#P newex 308 50 38 196617 r p1s8;#P newex 267 50 38 196617 r p1s7;#P newex 226 50 38 196617 r p1s6;#P newex 185 50 38 196617 r p1s5;#P newex 144 50 38 196617 r p1s4;#P newex 103 50 38 196617 r p1s3;#P newex 62 50 38 196617 r p1s2;#P newex 20 50 38 196617 r p1s1;#P connect 0 0 8 0;#P connect 8 0 9 0;#P connect 1 0 8 1;#P connect 2 0 8 2;#P connect 3 0 8 3;#P connect 4 0 8 4;#P connect 5 0 8 5;#P connect 6 0 8 6;#P connect 7 0 8 7;#P pop;#P newobj 33 273 50 196617 p raccel1;#P newex 74 195 43 196617 r p2-s9;#P newex 28 195 43 196617 r p1-s9;#P comment 490 42 179 196617 feature list (all roughly in 0. .. 1.0):;#P comment 495 59 129 196617 1: group density estimate;#P comment 253 225 19 196617 1;#P flonum 468 299 35 9 0 0 0 3 0 0 0 221 221 221 222 222 222 0 0 0;#P flonum 168 301 35 9 0 0 0 3 0 0 0 221 221 221 222 222 222 0 0 0;#P flonum 466 224 35 9 0 0 0 3 0 0 0 221 221 221 222 222 222 0 0 0;#P flonum 274 224 60 9 0 0 0 3 0 0 0 221 221 221 222 222 222 0 0 0;#P comment 27 78 191 196617 map room specific cooked parameters to cooked sensor channels for player p0 contrast with munge.template;#P comment 238 34 226 196617 xinwei@sponge 13.1.2003 - moved calc from old room-dynamics to here (parallel p[p]-munge);#P comment 26 33 210 196626 room-munge_2player;#P fasten 12 0 18 0 38 295 81 295;#P fasten 14 0 18 1 90 295 95 295;#P fasten 15 0 18 2 142 295 109 295;#P fasten 16 0 18 3 194 295 123 295;#P fasten 13 0 37 0 185 250 302 259 5 260 13 334 134 334;#P fasten 17 0 18 4 246 295 137 295;#P fasten 18 0 5 0 81 318 164 318 164 297 173 297;#P fasten 10 0 13 0 33 217 185 217;#P fasten 18 0 38 0 81 332 245 332;#P fasten 11 0 13 1 79 217 246 217;#P fasten 13 0 3 0 185 240 271 240 271 220 279 220;#P fasten 24 0 39 0 514 248 344 248;#P fasten 30 0 40 0 514 334 467 334;#P fasten 24 0 4 0 509 239 504 239 504 220 471 220;#P fasten 30 0 6 0 514 317 514 317 505 317 505 296 473 296;#P fasten 19 0 24 0 355 217 514 217;#P fasten 25 0 30 0 357 292 514 292;#P fasten 20 0 24 1 405 217 528 217;#P fasten 26 0 30 1 403 293 528 293;#P fasten 21 0 24 2 457 217 542 217;#P fasten 27 0 30 2 450 293 542 293;#P fasten 22 0 24 3 522 217 556 217;#P fasten 28 0 30 3 497 293 556 293;#P fasten 23 0 24 4 569 217 570 217;#P fasten 29 0 30 4 542 293 570 293;#P pop;