max v2;#N vpatcher 304 182 970 577;#P comment 25 275 257 196617 You may use \, modify and/or distribute under the terms of the GNU General Public License. Please see the LICENSE file for the specific terms of the license.;#P newex 291 115 74 196617 s room-motion;#P newex 290 179 80 196617 s room-angmom;#P newex 417 101 113 196617 s room-synchrony-s25;#P newex 291 72 85 196617 s room-deviation;#P comment 257 115 19 196617 4;#P comment 256 186 19 196617 3;#P comment 477 74 19 196617 2;#P comment 447 257 129 196617 4: total floor velocity (measures distance traveled);#P comment 447 217 129 196617 3: total angular momentum about the center (measures "turbulence");#P comment 447 199 129 196617 2: group acceleration sync;#P outlet 316 240 15 0;#N vpatcher 416 303 996 589;#P newex 46 229 27 196617 / 5.;#N vpatcher 40 55 440 355;#P newex 45 67 27 196617 t f f;#P newex 66 136 27 196617 - 0.;#P outlet 40 187 15 0;#P inlet 45 45 15 0;#P fasten 2 0 1 0 71 163 45 163;#P connect 0 0 3 0;#P fasten 3 1 2 0 67 116 71 116;#P fasten 3 0 2 1 50 105 88 105;#P pop;#P newobj 383 94 38 196617 p delta;#N vpatcher 40 55 440 355;#P newex 45 67 27 196617 t f f;#P newex 66 136 27 196617 - 0.;#P outlet 40 187 15 0;#P inlet 45 45 15 0;#P fasten 2 0 1 0 71 163 45 163;#P connect 0 0 3 0;#P fasten 3 1 2 0 67 116 71 116;#P fasten 3 0 2 1 50 105 88 105;#P pop;#P newobj 352 76 38 196617 p delta;#P newex 352 54 74 196617 unpack 0. 0. 0.;#P inlet 352 31 15 0;#N vpatcher 40 55 440 355;#P newex 45 67 27 196617 t f f;#P newex 66 136 27 196617 - 0.;#P outlet 40 187 15 0;#P inlet 45 45 15 0;#P fasten 2 0 1 0 71 163 45 163;#P connect 0 0 3 0;#P fasten 3 1 2 0 67 116 71 116;#P fasten 3 0 2 1 50 105 88 105;#P pop;#P newobj 307 94 38 196617 p delta;#N vpatcher 40 55 440 355;#P newex 45 67 27 196617 t f f;#P newex 66 136 27 196617 - 0.;#P outlet 40 187 15 0;#P inlet 45 45 15 0;#P fasten 2 0 1 0 71 163 45 163;#P connect 0 0 3 0;#P fasten 3 1 2 0 67 116 71 116;#P fasten 3 0 2 1 50 105 88 105;#P pop;#P newobj 276 76 38 196617 p delta;#P newex 276 54 74 196617 unpack 0. 0. 0.;#P inlet 276 31 15 0;#N vpatcher 40 55 440 355;#P newex 45 67 27 196617 t f f;#P newex 66 136 27 196617 - 0.;#P outlet 40 187 15 0;#P inlet 45 45 15 0;#P fasten 2 0 1 0 71 163 45 163;#P connect 0 0 3 0;#P fasten 3 1 2 0 67 116 71 116;#P fasten 3 0 2 1 50 105 88 105;#P pop;#P newobj 231 94 38 196617 p delta;#N vpatcher 40 55 440 355;#P newex 45 67 27 196617 t f f;#P newex 66 136 27 196617 - 0.;#P outlet 40 187 15 0;#P inlet 45 45 15 0;#P fasten 2 0 1 0 71 163 45 163;#P connect 0 0 3 0;#P fasten 3 1 2 0 67 116 71 116;#P fasten 3 0 2 1 50 105 88 105;#P pop;#P newobj 200 76 38 196617 p delta;#P newex 200 54 74 196617 unpack 0. 0. 0.;#P inlet 200 31 15 0;#N vpatcher 40 55 440 355;#P newex 45 67 27 196617 t f f;#P newex 66 136 27 196617 - 0.;#P outlet 40 187 15 0;#P inlet 45 45 15 0;#P fasten 2 0 1 0 71 163 45 163;#P connect 0 0 3 0;#P fasten 3 1 2 0 67 116 71 116;#P fasten 3 0 2 1 50 105 88 105;#P pop;#P newobj 155 94 38 196617 p delta;#N vpatcher 40 55 440 355;#P newex 45 67 27 196617 t f f;#P newex 66 136 27 196617 - 0.;#P outlet 40 187 15 0;#P inlet 45 45 15 0;#P fasten 2 0 1 0 71 163 45 163;#P connect 0 0 3 0;#P fasten 3 1 2 0 67 116 71 116;#P fasten 3 0 2 1 50 105 88 105;#P pop;#P newobj 124 76 38 196617 p delta;#P newex 124 54 74 196617 unpack 0. 0. 0.;#P inlet 124 31 15 0;#N vpatcher 40 55 440 355;#P newex 45 67 27 196617 t f f;#P newex 66 136 27 196617 - 0.;#P outlet 40 187 15 0;#P inlet 45 45 15 0;#P fasten 2 0 1 0 71 163 45 163;#P connect 0 0 3 0;#P fasten 3 1 2 0 67 116 71 116;#P fasten 3 0 2 1 50 105 88 105;#P pop;#P newobj 79 94 38 196617 p delta;#N vpatcher 40 55 440 355;#P newex 45 67 27 196617 t f f;#P newex 66 136 27 196617 - 0.;#P outlet 40 187 15 0;#P inlet 45 45 15 0;#P fasten 2 0 1 0 71 163 45 163;#P connect 0 0 3 0;#P fasten 3 1 2 0 67 116 71 116;#P fasten 3 0 2 1 50 105 88 105;#P pop;#P newobj 48 76 38 196617 p delta;#N vpatcher 50 40 450 340;#P newex 173 194 27 196617 + 0.;#P newex 154 176 27 196617 + 0.;#P newex 135 158 27 196617 + 0.;#P newex 116 140 27 196617 + 0.;#P newex 97 122 27 196617 + 0.;#P newex 78 104 27 196617 + 0.;#P newex 57 86 29 196617 + 0.;#P newex 57 64 147 196617 unpack 0. 0. 0. 0. 0. 0. 0. 0.;#P outlet 173 218 15 0;#P inlet 57 34 15 0;#P connect 0 0 2 0;#P connect 2 0 3 0;#P connect 2 1 3 1;#P connect 3 0 4 0;#P connect 2 2 4 1;#P connect 4 0 5 0;#P connect 2 3 5 1;#P connect 5 0 6 0;#P connect 2 4 6 1;#P connect 6 0 7 0;#P connect 2 5 7 1;#P connect 7 0 8 0;#P connect 2 6 8 1;#P connect 8 0 9 0;#P connect 9 0 1 0;#P connect 2 7 9 1;#P pop;#P newobj 46 209 35 196617 p lsum;#P newex 46 187 165 196617 vexpr sqrt($f1 * $f1 + $f2 * $f2);#P newex 201 164 88 196617 pack 0. 0. 0. 0. 0.;#P newex 46 163 88 196617 pack 0. 0. 0. 0. 0.;#P newex 48 54 74 196617 unpack 0. 0. 0.;#P inlet 48 31 15 0;#P outlet 46 249 15 0;#P connect 7 0 3 0;#P connect 3 0 5 0;#P connect 5 0 6 0;#P connect 6 0 25 0;#P connect 25 0 0 0;#P connect 1 0 2 0;#P connect 2 0 7 0;#P connect 11 0 3 1;#P connect 2 1 8 0;#P connect 15 0 3 2;#P connect 19 0 3 3;#P connect 23 0 3 4;#P connect 9 0 10 0;#P connect 10 0 11 0;#P connect 10 1 12 0;#P connect 13 0 14 0;#P connect 14 0 15 0;#P connect 8 0 4 0;#P connect 4 0 5 1;#P connect 12 0 4 1;#P connect 14 1 16 0;#P connect 16 0 4 2;#P connect 20 0 4 3;#P connect 17 0 18 0;#P connect 18 0 19 0;#P connect 24 0 4 4;#P connect 18 1 20 0;#P connect 21 0 22 0;#P connect 22 0 23 0;#P connect 22 1 24 0;#P pop;#P newobj 188 113 66 196617 p getmotion;#P newex 216 86 48 196617 r p5-s9;#P newex 171 86 48 196617 r p4-s9;#P newex 124 86 48 196617 r p3-s9;#P newex 77 86 48 196617 r p2-s9;#P newex 31 86 38 196617 r p1s9;#P outlet 293 240 15 0;#P outlet 271 240 15 0;#P outlet 234 241 15 0;#N vpatcher 488 293 994 640;#N vpatcher 50 40 450 340;#P newex 173 194 27 196617 + 0.;#P newex 154 176 27 196617 + 0.;#P newex 135 158 27 196617 + 0.;#P newex 116 140 27 196617 + 0.;#P newex 97 122 27 196617 + 0.;#P newex 78 104 27 196617 + 0.;#P newex 57 86 29 196617 + 0.;#P newex 57 64 147 196617 unpack 0. 0. 0. 0. 0. 0. 0. 0.;#P outlet 173 218 15 0;#P inlet 57 34 15 0;#P connect 0 0 2 0;#P connect 2 0 3 0;#P connect 2 1 3 1;#P connect 3 0 4 0;#P connect 2 2 4 1;#P connect 4 0 5 0;#P connect 2 3 5 1;#P connect 5 0 6 0;#P connect 2 4 6 1;#P connect 6 0 7 0;#P connect 2 5 7 1;#P connect 7 0 8 0;#P connect 2 6 8 1;#P connect 8 0 9 0;#P connect 9 0 1 0;#P connect 2 7 9 1;#P pop;#P newobj 102 256 35 196617 p lsum;#P newex 102 234 230 196617 vexpr abs(($f1 - 0.5) * $f2 - ($f3 - 0.5) * $f4);#P comment 224 198 24 196617 y;#P comment 68 197 24 196617 x;#P comment 179 167 24 196617 vy;#P newex 247 196 88 196617 pack 0. 0. 0. 0. 0.;#P newex 92 195 88 196617 pack 0. 0. 0. 0. 0.;#N vpatcher 40 55 440 355;#P newex 45 67 27 196617 t f f;#P newex 66 136 27 196617 - 0.;#P outlet 40 187 15 0;#P inlet 45 45 15 0;#P fasten 2 0 1 0 71 163 45 163;#P connect 0 0 3 0;#P fasten 3 1 2 0 67 116 71 116;#P fasten 3 0 2 1 50 105 88 105;#P pop;#P newobj 392 101 38 196617 p delta;#N vpatcher 40 55 440 355;#P newex 45 67 27 196617 t f f;#P newex 66 136 27 196617 - 0.;#P outlet 40 187 15 0;#P inlet 45 45 15 0;#P fasten 2 0 1 0 71 163 45 163;#P connect 0 0 3 0;#P fasten 3 1 2 0 67 116 71 116;#P fasten 3 0 2 1 50 105 88 105;#P pop;#P newobj 352 80 38 196617 p delta;#P newex 355 56 74 196617 unpack 0. 0. 0.;#P inlet 355 33 15 0;#N vpatcher 40 55 440 355;#P newex 45 67 27 196617 t f f;#P newex 66 136 27 196617 - 0.;#P outlet 40 187 15 0;#P inlet 45 45 15 0;#P fasten 2 0 1 0 71 163 45 163;#P connect 0 0 3 0;#P fasten 3 1 2 0 67 116 71 116;#P fasten 3 0 2 1 50 105 88 105;#P pop;#P newobj 316 101 38 196617 p delta;#N vpatcher 40 55 440 355;#P newex 45 67 27 196617 t f f;#P newex 66 136 27 196617 - 0.;#P outlet 40 187 15 0;#P inlet 45 45 15 0;#P fasten 2 0 1 0 71 163 45 163;#P connect 0 0 3 0;#P fasten 3 1 2 0 67 116 71 116;#P fasten 3 0 2 1 50 105 88 105;#P pop;#P newobj 276 80 38 196617 p delta;#P newex 279 56 74 196617 unpack 0. 0. 0.;#P inlet 279 33 15 0;#N vpatcher 40 55 440 355;#P newex 45 67 27 196617 t f f;#P newex 66 136 27 196617 - 0.;#P outlet 40 187 15 0;#P inlet 45 45 15 0;#P fasten 2 0 1 0 71 163 45 163;#P connect 0 0 3 0;#P fasten 3 1 2 0 67 116 71 116;#P fasten 3 0 2 1 50 105 88 105;#P pop;#P newobj 240 101 38 196617 p delta;#N vpatcher 40 55 440 355;#P newex 45 67 27 196617 t f f;#P newex 66 136 27 196617 - 0.;#P outlet 40 187 15 0;#P inlet 45 45 15 0;#P fasten 2 0 1 0 71 163 45 163;#P connect 0 0 3 0;#P fasten 3 1 2 0 67 116 71 116;#P fasten 3 0 2 1 50 105 88 105;#P pop;#P newobj 200 80 38 196617 p delta;#P newex 203 56 74 196617 unpack 0. 0. 0.;#P inlet 203 33 15 0;#N vpatcher 40 55 440 355;#P newex 45 67 27 196617 t f f;#P newex 66 136 27 196617 - 0.;#P outlet 40 187 15 0;#P inlet 45 45 15 0;#P fasten 2 0 1 0 71 163 45 163;#P connect 0 0 3 0;#P fasten 3 1 2 0 67 116 71 116;#P fasten 3 0 2 1 50 105 88 105;#P pop;#P newobj 164 101 38 196617 p delta;#N vpatcher 40 55 440 355;#P newex 45 67 27 196617 t f f;#P newex 66 136 27 196617 - 0.;#P outlet 40 187 15 0;#P inlet 45 45 15 0;#P fasten 2 0 1 0 71 163 45 163;#P connect 0 0 3 0;#P fasten 3 1 2 0 67 116 71 116;#P fasten 3 0 2 1 50 105 88 105;#P pop;#P newobj 124 80 38 196617 p delta;#P newex 127 56 74 196617 unpack 0. 0. 0.;#P inlet 127 33 15 0;#N vpatcher 40 55 440 355;#P newex 45 67 27 196617 t f f;#P newex 66 136 27 196617 - 0.;#P outlet 40 187 15 0;#P inlet 45 45 15 0;#P fasten 2 0 1 0 71 163 45 163;#P connect 0 0 3 0;#P fasten 3 1 2 0 67 116 71 116;#P fasten 3 0 2 1 50 105 88 105;#P pop;#P newobj 88 101 38 196617 p delta;#N vpatcher 40 55 440 355;#P newex 45 67 27 196617 t f f;#P newex 66 136 27 196617 - 0.;#P outlet 40 187 15 0;#P inlet 45 45 15 0;#P fasten 2 0 1 0 71 163 45 163;#P connect 0 0 3 0;#P fasten 3 1 2 0 67 116 71 116;#P fasten 3 0 2 1 50 105 88 105;#P pop;#P newobj 48 80 38 196617 p delta;#P newex 204 166 88 196617 pack 0. 0. 0. 0. 0.;#P newex 49 165 88 196617 pack 0. 0. 0. 0. 0.;#P newex 51 56 74 196617 unpack 0. 0. 0.;#P inlet 51 33 15 0;#P outlet 102 281 15 0;#P comment 24 166 24 196617 vx;#P connect 3 0 6 0;#P connect 6 0 4 0;#P connect 2 0 3 0;#P connect 10 0 4 1;#P connect 14 0 4 2;#P connect 3 1 7 0;#P connect 3 0 24 0;#P connect 24 0 29 0;#P connect 29 0 30 0;#P connect 30 0 1 0;#P connect 18 0 4 3;#P connect 9 0 24 1;#P connect 9 0 10 0;#P connect 22 0 4 4;#P connect 8 0 9 0;#P connect 13 0 24 2;#P connect 17 0 24 3;#P connect 9 1 11 0;#P connect 21 0 24 4;#P connect 5 0 29 1;#P connect 13 0 14 0;#P connect 12 0 13 0;#P connect 7 0 5 0;#P connect 11 0 5 1;#P connect 13 1 15 0;#P connect 15 0 5 2;#P connect 3 1 25 0;#P connect 25 0 29 2;#P connect 19 0 5 3;#P connect 9 1 25 1;#P connect 17 0 18 0;#P connect 16 0 17 0;#P connect 23 0 5 4;#P fasten 13 1 25 2 292 205;#P connect 17 1 25 3;#P connect 17 1 19 0;#P connect 4 0 29 3;#P connect 21 1 25 4;#P connect 21 0 22 0;#P connect 20 0 21 0;#P connect 21 1 23 0;#P pop;#P newobj 188 183 66 196617 p getangmom;#P newex 214 156 50 196617 r p5-s9;#P newex 169 156 50 196617 r p4-s9;#P newex 122 156 50 196617 r p3-s9;#P newex 75 156 50 196617 r p2-s9;#P newex 29 156 38 196617 r p1s9;#N vpatcher 159 205 606 475;#P comment 186 31 211 196617 need to count bonks of same shape in a window or correlation across all players?;#P newex 36 69 170 196617 vexpr $f1 * $f2 * $f3 * $f4 * $f5;#P inlet 134 40 15 0;#P inlet 115 40 15 0;#P inlet 96 40 15 0;#P inlet 77 40 15 0;#N vpatcher 50 40 450 340;#P newex 173 194 27 196617 + 0.;#P newex 154 176 27 196617 + 0.;#P newex 135 158 27 196617 + 0.;#P newex 116 140 27 196617 + 0.;#P newex 97 122 27 196617 + 0.;#P newex 78 104 27 196617 + 0.;#P newex 57 86 29 196617 + 0.;#P newex 57 64 147 196617 unpack 0. 0. 0. 0. 0. 0. 0. 0.;#P outlet 173 218 15 0;#P inlet 57 34 15 0;#P connect 0 0 2 0;#P connect 2 0 3 0;#P connect 2 1 3 1;#P connect 3 0 4 0;#P connect 2 2 4 1;#P connect 4 0 5 0;#P connect 2 3 5 1;#P connect 5 0 6 0;#P connect 2 4 6 1;#P connect 6 0 7 0;#P connect 2 5 7 1;#P connect 7 0 8 0;#P connect 2 6 8 1;#P connect 8 0 9 0;#P connect 9 0 1 0;#P connect 2 7 9 1;#P pop;#P newobj 36 99 35 196617 p lsum;#P inlet 58 40 15 0;#P outlet 36 151 15 0;#P comment 151 118 100 196617 this is pretty faked..;#P connect 2 0 8 0;#P connect 8 0 3 0;#P connect 3 0 1 0;#P connect 4 0 8 1;#P connect 5 0 8 2;#P connect 6 0 8 3;#P connect 7 0 8 4;#P pop 1;#P newobj 409 72 66 196617 p getsync;#N vpatcher 40 55 440 355;#P outlet 63 157 15 0;#P newex 63 125 191 196617 pack 0. 0. 0. 0. 0. 0. 0. 0.;#P newex 308 50 38 196617 r p1s8;#P newex 267 50 38 196617 r p1s7;#P newex 226 50 38 196617 r p1s6;#P newex 185 50 38 196617 r p1s5;#P newex 144 50 38 196617 r p1s4;#P newex 103 50 38 196617 r p1s3;#P newex 62 50 38 196617 r p1s2;#P newex 20 50 38 196617 r p1s1;#P connect 0 0 8 0;#P connect 8 0 9 0;#P connect 1 0 8 1;#P connect 2 0 8 2;#P connect 3 0 8 3;#P connect 4 0 8 4;#P connect 5 0 8 5;#P connect 6 0 8 6;#P connect 7 0 8 7;#P pop;#P newobj 574 45 50 196617 p raccel5;#N vpatcher 40 55 440 355;#P outlet 63 157 15 0;#P newex 63 125 191 196617 pack 0. 0. 0. 0. 0. 0. 0. 0.;#P newex 308 50 38 196617 r p1s8;#P newex 267 50 38 196617 r p1s7;#P newex 226 50 38 196617 r p1s6;#P newex 185 50 38 196617 r p1s5;#P newex 144 50 38 196617 r p1s4;#P newex 103 50 38 196617 r p1s3;#P newex 62 50 38 196617 r p1s2;#P newex 20 50 38 196617 r p1s1;#P connect 0 0 8 0;#P connect 8 0 9 0;#P connect 1 0 8 1;#P connect 2 0 8 2;#P connect 3 0 8 3;#P connect 4 0 8 4;#P connect 5 0 8 5;#P connect 6 0 8 6;#P connect 7 0 8 7;#P pop;#P newobj 522 45 50 196617 p raccel4;#N vpatcher 40 55 440 355;#P outlet 63 157 15 0;#P newex 63 125 191 196617 pack 0. 0. 0. 0. 0. 0. 0. 0.;#P newex 308 50 38 196617 r p1s8;#P newex 267 50 38 196617 r p1s7;#P newex 226 50 38 196617 r p1s6;#P newex 185 50 38 196617 r p1s5;#P newex 144 50 38 196617 r p1s4;#P newex 103 50 38 196617 r p1s3;#P newex 62 50 38 196617 r p1s2;#P newex 20 50 38 196617 r p1s1;#P connect 0 0 8 0;#P connect 8 0 9 0;#P connect 1 0 8 1;#P connect 2 0 8 2;#P connect 3 0 8 3;#P connect 4 0 8 4;#P connect 5 0 8 5;#P connect 6 0 8 6;#P connect 7 0 8 7;#P pop;#P newobj 470 45 50 196617 p raccel3;#N vpatcher 40 55 440 355;#P outlet 63 157 15 0;#P newex 63 125 191 196617 pack 0. 0. 0. 0. 0. 0. 0. 0.;#P newex 308 50 38 196617 r p1s8;#P newex 267 50 38 196617 r p1s7;#P newex 226 50 38 196617 r p1s6;#P newex 185 50 38 196617 r p1s5;#P newex 144 50 38 196617 r p1s4;#P newex 103 50 38 196617 r p1s3;#P newex 62 50 38 196617 r p1s2;#P newex 20 50 38 196617 r p1s1;#P connect 0 0 8 0;#P connect 8 0 9 0;#P connect 1 0 8 1;#P connect 2 0 8 2;#P connect 3 0 8 3;#P connect 4 0 8 4;#P connect 5 0 8 5;#P connect 6 0 8 6;#P connect 7 0 8 7;#P pop;#P newobj 418 45 50 196617 p raccel2;#N vpatcher 385 233 912 526;#P newex 77 202 75 196617 expr sqrt($f1);#P newex 77 178 27 196617 + 0.;#N vpatcher 40 55 446 432;#P flonum 156 136 35 9 0 0 0 3 0 0 0 221 221 221 222 222 222 0 0 0;#P newex 79 167 27 196617 / 5.;#N vpatcher 50 40 450 340;#P newex 173 194 27 196617 + 0.;#P newex 154 176 27 196617 + 0.;#P newex 135 158 27 196617 + 0.;#P newex 116 140 27 196617 + 0.;#P newex 97 122 27 196617 + 0.;#P newex 78 104 27 196617 + 0.;#P newex 57 86 29 196617 + 0.;#P newex 57 64 147 196617 unpack 0. 0. 0. 0. 0. 0. 0. 0.;#P outlet 173 218 15 0;#P inlet 57 34 15 0;#P connect 0 0 2 0;#P connect 2 0 3 0;#P connect 2 1 3 1;#P connect 3 0 4 0;#P connect 2 2 4 1;#P connect 4 0 5 0;#P connect 2 3 5 1;#P connect 5 0 6 0;#P connect 2 4 6 1;#P connect 6 0 7 0;#P connect 2 5 7 1;#P connect 7 0 8 0;#P connect 2 6 8 1;#P connect 8 0 9 0;#P connect 9 0 1 0;#P connect 2 7 9 1;#P pop;#P newobj 65 237 35 196617 p lsum;#P newex 65 217 149 196617 vexpr abs(pow($f1 - $f2\\\, 2));#P newex 79 188 51 196617 Lrepeat 5;#P newex 62 123 27 196617 t l l;#N vpatcher 50 40 450 340;#P newex 173 194 27 196617 + 0.;#P newex 154 176 27 196617 + 0.;#P newex 135 158 27 196617 + 0.;#P newex 116 140 27 196617 + 0.;#P newex 97 122 27 196617 + 0.;#P newex 78 104 27 196617 + 0.;#P newex 57 86 29 196617 + 0.;#P newex 57 64 147 196617 unpack 0. 0. 0. 0. 0. 0. 0. 0.;#P outlet 173 218 15 0;#P inlet 57 34 15 0;#P connect 0 0 2 0;#P connect 2 0 3 0;#P connect 2 1 3 1;#P connect 3 0 4 0;#P connect 2 2 4 1;#P connect 4 0 5 0;#P connect 2 3 5 1;#P connect 5 0 6 0;#P connect 2 4 6 1;#P connect 6 0 7 0;#P connect 2 5 7 1;#P connect 7 0 8 0;#P connect 2 6 8 1;#P connect 8 0 9 0;#P connect 9 0 1 0;#P connect 2 7 9 1;#P pop;#P newobj 79 145 35 196617 p lsum;#P outlet 65 264 15 0;#P inlet 37 37 15 0;#P fasten 0 0 3 0 42 110 67 110;#P fasten 3 0 5 0 67 187 70 187;#P connect 5 0 6 0;#P connect 6 0 1 0;#P connect 3 1 2 0;#P connect 2 0 7 0;#P connect 7 0 4 0;#P fasten 8 0 7 1 161 163 101 163;#P connect 8 0 4 1;#P fasten 4 0 5 1 84 208 209 208;#P pop;#P newobj 169 123 32 196617 p var;#N vpatcher 352 190 758 567;#P flonum 156 136 35 9 0 0 0 3 0 0 0 221 221 221 222 222 222 0 0 0;#P newex 79 167 27 196617 / 5.;#N vpatcher 50 40 450 340;#P newex 173 194 27 196617 + 0.;#P newex 154 176 27 196617 + 0.;#P newex 135 158 27 196617 + 0.;#P newex 116 140 27 196617 + 0.;#P newex 97 122 27 196617 + 0.;#P newex 78 104 27 196617 + 0.;#P newex 57 86 29 196617 + 0.;#P newex 57 64 147 196617 unpack 0. 0. 0. 0. 0. 0. 0. 0.;#P outlet 173 218 15 0;#P inlet 57 34 15 0;#P connect 0 0 2 0;#P connect 2 0 3 0;#P connect 2 1 3 1;#P connect 3 0 4 0;#P connect 2 2 4 1;#P connect 4 0 5 0;#P connect 2 3 5 1;#P connect 5 0 6 0;#P connect 2 4 6 1;#P connect 6 0 7 0;#P connect 2 5 7 1;#P connect 7 0 8 0;#P connect 2 6 8 1;#P connect 8 0 9 0;#P connect 9 0 1 0;#P connect 2 7 9 1;#P pop;#P newobj 65 237 35 196617 p lsum;#P newex 65 217 149 196617 vexpr abs(pow($f1 - $f2\\\, 2));#P newex 79 188 51 196617 Lrepeat 5;#P newex 62 123 27 196617 t l l;#N vpatcher 50 40 450 340;#P newex 173 194 27 196617 + 0.;#P newex 154 176 27 196617 + 0.;#P newex 135 158 27 196617 + 0.;#P newex 116 140 27 196617 + 0.;#P newex 97 122 27 196617 + 0.;#P newex 78 104 27 196617 + 0.;#P newex 57 86 29 196617 + 0.;#P newex 57 64 147 196617 unpack 0. 0. 0. 0. 0. 0. 0. 0.;#P outlet 173 218 15 0;#P inlet 57 34 15 0;#P connect 0 0 2 0;#P connect 2 0 3 0;#P connect 2 1 3 1;#P connect 3 0 4 0;#P connect 2 2 4 1;#P connect 4 0 5 0;#P connect 2 3 5 1;#P connect 5 0 6 0;#P connect 2 4 6 1;#P connect 6 0 7 0;#P connect 2 5 7 1;#P connect 7 0 8 0;#P connect 2 6 8 1;#P connect 8 0 9 0;#P connect 9 0 1 0;#P connect 2 7 9 1;#P pop;#P newobj 79 145 35 196617 p lsum;#P outlet 65 264 15 0;#P inlet 37 37 15 0;#P fasten 0 0 3 0 42 110 67 110;#P fasten 3 0 5 0 67 187 70 187;#P connect 5 0 6 0;#P connect 6 0 1 0;#P connect 3 1 2 0;#P connect 2 0 7 0;#P connect 7 0 4 0;#P fasten 8 0 7 1 161 163 101 163;#P fasten 8 0 4 1 161 169 125 169;#P fasten 4 0 5 1 84 208 209 208;#P pop;#P newobj 55 117 32 196617 p var;#P newex 169 101 88 196617 pack 0. 0. 0. 0. 0.;#P newex 384 52 74 196617 unpack 0. 0. 0.;#P inlet 384 29 15 0;#P newex 307 52 74 196617 unpack 0. 0. 0.;#P inlet 307 29 15 0;#P newex 230 52 74 196617 unpack 0. 0. 0.;#P inlet 230 29 15 0;#P newex 55 91 88 196617 pack 0. 0. 0. 0. 0.;#P newex 153 52 74 196617 unpack 0. 0. 0.;#P inlet 153 29 15 0;#P newex 73 52 74 196617 unpack 0. 0. 0.;#P inlet 73 29 15 0;#P outlet 85 244 15 0;#P fasten 2 0 5 0 78 80 60 80;#P connect 5 0 13 0;#P connect 1 0 2 0;#P fasten 4 0 5 1 158 80 79 80;#P fasten 13 0 15 0 60 170 82 170;#P connect 15 0 16 0;#P fasten 16 0 0 0 82 234 90 234;#P fasten 7 0 5 2 235 80 98 80;#P fasten 14 0 15 1 174 170 99 170;#P fasten 9 0 5 3 312 80 117 80;#P fasten 11 0 5 4 389 80 136 80;#P connect 3 0 4 0;#P fasten 2 1 12 0 110 85 174 85;#P connect 12 0 14 0;#P fasten 4 1 12 1 190 85 193 85;#P fasten 7 1 12 2 267 85 212 85;#P fasten 9 1 12 3 344 85 231 85;#P connect 6 0 7 0;#P fasten 11 1 12 4 421 85 250 85;#P connect 8 0 9 0;#P connect 10 0 11 0;#P pop;#P newobj 188 51 71 196617 p getdeviation;#N vpatcher 40 55 440 355;#P outlet 63 157 15 0;#P newex 63 125 191 196617 pack 0. 0. 0. 0. 0. 0. 0. 0.;#P newex 308 50 38 196617 r p1s8;#P newex 267 50 38 196617 r p1s7;#P newex 226 50 38 196617 r p1s6;#P newex 185 50 38 196617 r p1s5;#P newex 144 50 38 196617 r p1s4;#P newex 103 50 38 196617 r p1s3;#P newex 62 50 38 196617 r p1s2;#P newex 20 50 38 196617 r p1s1;#P connect 0 0 8 0;#P connect 8 0 9 0;#P connect 1 0 8 1;#P connect 2 0 8 2;#P connect 3 0 8 3;#P connect 4 0 8 4;#P connect 5 0 8 5;#P connect 6 0 8 6;#P connect 7 0 8 7;#P pop;#P newobj 366 45 50 196617 p raccel1;#P newex 221 24 42 196617 r p5-s9;#P newex 176 24 42 196617 r p4-s9;#P newex 129 24 42 196617 r p3-s9;#P newex 82 24 42 196617 r p2-s9;#P newex 36 24 38 196617 r p1s9;#P comment 442 165 179 196617 feature list (all roughly in 0. .. 1.0):;#P comment 447 182 129 196617 1: group density estimate;#P comment 261 54 19 196617 1;#P fasten 3 0 9 0 41 46 193 46;#P fasten 24 0 29 0 36 108 193 108;#P fasten 15 0 20 0 34 178 193 178;#P fasten 25 0 29 1 82 108 207 108;#P fasten 16 0 20 1 80 178 207 178;#P fasten 4 0 9 1 87 46 208 46;#P fasten 26 0 29 2 129 108 221 108;#P fasten 17 0 20 2 127 178 221 178;#P fasten 5 0 9 2 134 46 223 46;#P fasten 27 0 29 3 176 108 235 108;#P fasten 18 0 20 3 174 178 235 178;#P fasten 6 0 9 3 181 46 238 46;#P fasten 9 0 21 0 193 221 239 221;#P fasten 28 0 29 4 221 108 249 108;#P fasten 19 0 20 4 219 178 249 178;#P fasten 7 0 9 4 226 46 253 46;#P fasten 14 0 22 0 414 229 276 229;#P fasten 20 0 39 0 193 206 277 206 277 175 295 175;#P fasten 9 0 37 0 193 74 286 74 286 56 296 56;#P fasten 29 0 40 0 193 135 284 135 284 111 296 111;#P fasten 20 0 23 0 193 226 298 226;#P fasten 29 0 30 0 193 211 321 211;#P fasten 8 0 14 0 371 67 414 67;#P fasten 14 0 38 0 414 96 422 96;#P fasten 10 0 14 1 423 67 428 67;#P fasten 11 0 14 2 475 67 442 67;#P fasten 12 0 14 3 527 67 456 67;#P fasten 13 0 14 4 579 67 470 67;#P pop;