max v2;#N vpatcher 321 280 867 628;#P comment 91 285 234 196617 xinwei@sponge.org 1.13.2003 simplified for eerm;#P comment 91 268 162 196617 nik@f0.am - initial version;#P comment 90 205 257 196617 You may use \, modify and/or distribute under the terms of the GNU General Public License. Please see the LICENSE file for the specific terms of the license.;#P comment 90 247 135 196617 copyright 2001 FoAM vzw.;#N vpatcher 433 185 977 521;#P comment 126 192 90 196617 angular momentum;#P comment 158 150 55 196617 synchrony;#P comment 159 116 54 196617 deviation;#P comment 172 231 44 196617 motion;#P flonum 221 230 35 9 0. 1. 3 3 0 0 0 221 221 221 222 222 222 0 0 0;#P newex 256 230 84 196617 r p0s16-throttle;#P flonum 221 244 35 9 0. 1. 3 3 0 0 0 221 221 221 222 222 222 0 0 0;#P newex 256 244 84 196617 s p0s16-throttle;#P flonum 221 190 35 9 0. 1. 3 3 0 0 0 221 221 221 222 222 222 0 0 0;#P newex 256 190 84 196617 r p0s15-throttle;#P flonum 221 204 35 9 0. 1. 3 3 0 0 0 221 221 221 222 222 222 0 0 0;#P newex 256 204 84 196617 s p0s15-throttle;#P flonum 218 149 35 9 0. 1. 3 3 0 0 0 221 221 221 222 222 222 0 0 0;#P newex 253 149 84 196617 r p0s14-throttle;#P flonum 218 163 35 9 0. 1. 3 3 0 0 0 221 221 221 222 222 222 0 0 0;#P newex 253 163 84 196617 s p0s14-throttle;#P flonum 219 112 35 9 0. 1. 3 3 0 0 0 221 221 221 222 222 222 0 0 0;#P newex 254 112 84 196617 r p0s13-throttle;#P flonum 219 126 35 9 0. 1. 3 3 0 0 0 221 221 221 222 222 222 0 0 0;#P newex 254 126 84 196617 s p0s13-throttle;#P comment 172 87 39 196617 send ->;#P flonum 217 69 35 9 0. 1. 3 3 0 0 0 221 221 221 222 222 222 0 0 0;#P newex 252 69 65 196617 r p0-throttle;#P flonum 217 83 35 9 0. 1. 3 3 0 0 0 221 221 221 222 222 222 0 0 0;#P newex 252 83 65 196617 s p0-throttle;#P flonum 84 133 35 9 0 0 0 3 0 0 0 221 221 221 222 222 222 0 0 0;#P newex 39 132 44 196617 r p0s16;#P flonum 84 115 35 9 0 0 0 3 0 0 0 221 221 221 222 222 222 0 0 0;#P newex 39 114 44 196617 r p0s15;#P flonum 84 97 35 9 0 0 0 3 0 0 0 221 221 221 222 222 222 0 0 0;#P newex 39 96 44 196617 r p0s14;#P flonum 84 79 35 9 0 0 0 3 0 0 0 221 221 221 222 222 222 0 0 0;#P newex 39 78 44 196617 r p0s13;#P comment 104 30 177 196617 view room sensors + throttle output;#P comment 170 70 39 196617 see ->;#P hidden connect 2 0 3 0;#P hidden connect 4 0 5 0;#P hidden connect 6 0 7 0;#P hidden connect 8 0 9 0;#P hidden connect 12 0 13 0;#P hidden connect 21 0 22 0;#P hidden connect 17 0 18 0;#P hidden connect 25 0 26 0;#P hidden connect 29 0 30 0;#P hidden connect 11 0 10 0;#P hidden connect 20 0 19 0;#P hidden connect 16 0 15 0;#P hidden connect 24 0 23 0;#P hidden connect 28 0 27 0;#P pop;#P newobj 266 148 82 196617 p throttle+shake;#P newex 24 139 64 196617 room-munge;#P comment 206 61 190 196617 room sensors are in room-state_ topology-> room-dynamics -> room-sensor;#P comment 50 30 121 196626 room shell;#P comment 202 129 133 196617 view sensors + throttles;#P pop;