max v2;#N vpatcher 261 83 901 407;#P origin 29 22;#P comment 225 96 185 196617 xinwei - filter for /tg player/sensors;#P newex 0 69 92 196617 OSC-route /tg /tx;#P comment 224 113 154 196617 vinny - Flash sends /tx to Oz;#P newex 240 199 61 196617 s eermInput;#P newex 438 155 52 196617 append p5;#P newex 380 155 52 196617 append p4;#P newex 322 154 52 196617 append p3;#P newex 264 153 52 196617 append p2;#P newex 206 152 52 196617 append p1;#P newex 206 128 302 196617 route /p1/alphas /p2/alphas /p3/alphas /p4/alphas /p5/alphas;#P message 206 178 249 196617 TokenSetSimplex \$5 \$4 \, TokenSetCoord \$5 \$1 \$2 \$3;#P newex 206 198 30 196617 print;#P newex 502 157 152 196617 print route_input_tx:unrouted::;#P newex 45 202 81 196617 route_player p6;#P newex 196 21 25 196617 lb 1;#P inlet 178 21 15 0;#P toggle 178 52 15 0;#P comment 224 80 162 196617 nik@f0.am - initial version;#P comment 225 22 257 196617 You may use \, modify and/or distribute under the terms of the GNU General Public License. Please see the LICENSE file for the specific terms of the license.;#P comment 225 64 135 196617 copyright 2001 FoAM vzw.;#P newex 45 187 81 196617 route_player p5;#P comment 126 190 46 196617 player 5;#P newex 45 173 81 196617 route_player p4;#P comment 126 176 46 196617 player 4;#P newex 45 159 81 196617 route_player p3;#P comment 126 161 46 196617 player 3;#P newex 45 144 81 196617 route_player p2;#P comment 125 145 46 196617 player 2;#P newex 45 130 81 196617 route_player p1;#P newex 0 95 145 196617 OSC-route /1 /2 /3 /4 /5 /6;#P outlet 18 238 15 0;#P inlet 0 46 15 0;#P comment 125 131 46 196617 player 1;#P comment 75 33 98 196617 float or scaled int?;#P connect 2 0 32 0;#P connect 32 0 4 0;#P connect 20 0 3 0;#P connect 13 0 3 0;#P connect 11 0 3 0;#P connect 9 0 3 0;#P connect 7 0 3 0;#P connect 5 0 3 0;#P connect 4 0 5 0;#P connect 4 1 7 0;#P connect 4 2 9 0;#P connect 4 3 11 0;#P connect 4 4 13 0;#P connect 4 5 20 0;#P fasten 17 0 5 1 183 123 121 123;#P fasten 17 0 7 1 183 123 121 123;#P fasten 17 0 9 1 183 123 121 123;#P fasten 17 0 11 1 183 123 121 123;#P fasten 17 0 13 1 183 123 121 123;#P fasten 17 0 20 1 183 122 121 122;#P connect 19 0 17 0;#P connect 18 0 17 0;#P fasten 32 1 24 0 87 89 211 89;#P connect 24 0 25 0;#P connect 26 0 23 0;#P connect 27 0 23 0;#P connect 28 0 23 0;#P connect 29 0 23 0;#P connect 25 0 23 0;#P connect 23 0 22 0;#P connect 23 0 30 0;#P connect 24 1 26 0;#P connect 24 2 27 0;#P connect 24 3 28 0;#P connect 24 4 29 0;#P connect 24 5 21 0;#P pop;