max v2;#N vpatcher 145 164 578 397;#P origin 0 12;#P newex 242 190 45 196617 s $1-s9;#P newex 193 190 45 196617 s $1-s8;#P newex 143 190 45 196617 s $1-s7;#P newex 92 190 45 196617 s $1-s6;#P newex 41 190 45 196617 s $1-s5;#P newex 242 162 45 196617 s $1-s4;#P newex 92 162 45 196617 s $1-s1;#P newex 41 162 45 196617 s $1-s0;#P newex 193 162 45 196617 s $1-s3;#P newex 143 162 45 196617 s $1-s2;#P newex 38 79 236 196617 route 0 1 2 3 4 5 6 7 8 9;#P outlet 370 197 15 0;#P inlet 38 21 15 0;#P connect 0 0 2 0;#P connect 2 0 5 0;#P connect 2 5 8 0;#P connect 2 1 6 0;#P connect 2 6 9 0;#P connect 2 2 3 0;#P connect 2 7 10 0;#P connect 2 3 4 0;#P connect 2 8 11 0;#P connect 2 4 7 0;#P connect 2 9 12 0;#P fasten 2 10 1 0 263 106 375 106;#P pop;