max v2;#N vpatcher 24 63 982 720;#P origin 285 183;#P outlet 80 192 15 0;#P objectname gx;#P comment 601 61 100 196617 number of sensors;#P number 563 60 35 9 0 0 0 3 0 0 0 221 221 221 222 222 222 0 0 0;#P number 524 60 35 9 0 0 0 3 0 0 0 221 221 221 222 222 222 0 0 0;#P newex 301 22 45 196617 loadbang;#P newex 681 358 40 196617 t b b s;#P newex 681 431 138 196617 sprintf script nth gx outlet 1;#P newex 696 391 163 196617 sprintf script connect var0 0 gx 0;#P newex 824 171 27 196617 i $2;#P newex 327 200 27 196617 i $1;#P newex 856 316 27 196617 - 1;#P message 536 192 31 196617 set 1;#P button 301 140 15 0;#P newex 537 170 40 196617 uzi;#P button 580 169 15 0;#N counter 0 1 99;#X flags 0 0;#P newobj 598 169 75 196617 counter 0 1 99;#P newex 301 176 79 196617 t b b b b b b;#P newex 624 291 40 196617 uzi;#P message 796 117 31 196617 clear;#P message 773 117 21 196617 inc;#P newex 773 137 62 196617 Linc 150 20;#P button 665 293 15 0;#P newex 681 336 185 196617 sprintf script connect var%i 0 var0 %i;#P newex 347 233 281 196617 sprintf script new var0 newex 120 60 185 196617 sack %i;#N counter 0 1 99;#X flags 0 0;#P newobj 681 293 75 196617 counter 0 1 99;#P button 654 233 15 0;#P newex 671 232 272 196617 sprintf script new var%i %s %i %i 85 196617 r p%i-s%i;#P newex 671 190 217 196617 pack 0 200 0 0 0;#P message 671 211 112 196617 \$1 newex \$2 \$3 \$4 \$5;#N thispatcher;#Q end;#P newobj 591 470 59 196617 thispatcher;#P comment 370 24 208 196617 script to germinate player routing patch;#P comment 452 62 78 196617 player number;#P connect 27 0 19 0;#P connect 19 0 15 0;#P connect 15 2 22 0;#P connect 29 0 22 1;#P fasten 22 0 8 0 332 223 352 223;#P fasten 15 4 20 0 358 161 541 161;#P fasten 15 1 18 0 319 161 542 161;#P fasten 22 0 18 1 332 161 572 161;#P connect 18 0 17 0;#P fasten 5 0 2 0 676 265 596 265;#P fasten 8 0 2 0 352 303 596 303;#P fasten 24 0 2 0 701 423 596 423;#P fasten 26 2 2 0 716 381 596 381;#P fasten 25 0 2 0 686 459 596 459;#P connect 20 0 16 0;#P connect 17 0 16 0;#P fasten 15 0 14 0 306 229 629 229;#P fasten 22 0 14 1 332 229 659 229;#P connect 14 0 10 0;#P fasten 16 0 4 0 603 163 676 163;#P connect 4 0 3 0;#P connect 6 0 5 0;#P connect 3 0 5 0;#P fasten 20 0 7 0 541 284 686 284;#P connect 10 0 7 0;#P connect 7 0 9 0;#P connect 9 0 26 0;#P connect 26 0 25 0;#P connect 26 1 24 0;#P fasten 22 0 7 4 332 229 750 229;#P fasten 17 0 12 0 585 106 778 106;#P connect 13 0 11 0;#P connect 12 0 11 0;#P connect 11 0 4 2;#P fasten 15 3 13 0 345 106 801 106;#P fasten 15 5 23 0 371 162 829 162;#P connect 23 0 4 3;#P connect 28 0 23 1;#P fasten 7 0 21 0 686 313 861 313;#P connect 21 0 9 1;#P fasten 16 0 4 4 603 163 880 163;#P pop;