max v2;#N vpatcher 314 151 824 473;#P comment 179 132 162 196617 nik@f0.am - initial version;#P comment 179 70 257 196617 You may use \, modify and/or distribute under the terms of the GNU General Public License. Please see the LICENSE file for the specific terms of the license.;#P comment 179 112 135 196617 copyright 2001 FoAM vzw.;#P message 171 181 33 196617 debug;#P message 295 180 75 196617 errorreporting;#P message 207 180 85 196617 tellmeeverything;#P newex 27 237 65 196617 prepend host;#P newex 58 181 23 196617 t b;#P newex 93 271 135 196617 otudp write 127.0.0.1 5333;#P newex 27 145 140 196617 route connect send sendtyped;#P newex 93 213 88 196617 OpenSoundControl;#P comment 52 15 91 196626 sendOSC;#P inlet 27 70 15 0;#P comment 52 46 428 196618 sendOSC patch for compatability between oscx lib in pd \, and OpenSoundControl in max;#P connect 1 0 4 0;#P connect 4 0 7 0;#P connect 4 2 6 0;#P connect 4 1 6 0;#P fasten 4 2 3 0 118 172 98 172;#P fasten 4 1 3 0 75 172 98 172;#P fasten 10 0 3 0 176 200 98 200;#P connect 6 0 3 0;#P fasten 9 0 5 0 300 200 199 200 199 252 98 252;#P fasten 8 0 5 0 212 247 98 247;#P connect 3 0 5 0;#P connect 7 0 5 0;#P pop;