max v2;#N vpatcher 195 129 883 483;#P origin 0 -35;#P newex 338 13 53 196617 r $1-s0;#P newex 592 208 51 196617 r $1-s50;#P newex 592 189 51 196617 r $1-s49;#P newex 592 170 51 196617 r $1-s48;#P newex 592 151 51 196617 r $1-s47;#P newex 592 132 51 196617 r $1-s46;#P newex 592 112 51 196617 r $1-s45;#P newex 592 92 51 196617 r $1-s44;#P newex 592 72 51 196617 r $1-s43;#P newex 592 52 51 196617 r $1-s42;#P newex 592 33 51 196617 r $1-s41;#P newex 531 208 51 196617 r $1-s40;#P newex 531 189 51 196617 r $1-s39;#P newex 531 170 51 196617 r $1-s38;#P newex 531 151 51 196617 r $1-s37;#P newex 531 132 51 196617 r $1-s36;#P newex 531 112 51 196617 r $1-s35;#P newex 531 92 51 196617 r $1-s34;#P newex 531 72 51 196617 r $1-s33;#P newex 531 52 51 196617 r $1-s32;#P newex 531 33 51 196617 r $1-s31;#P newex 467 208 51 196617 r $1-s30;#P newex 467 189 51 196617 r $1-s29;#P newex 467 170 51 196617 r $1-s28;#P newex 467 151 51 196617 r $1-s27;#P newex 467 132 51 196617 r $1-s26;#P newex 467 112 51 196617 r $1-s25;#P newex 467 92 51 196617 r $1-s24;#P newex 467 72 51 196617 r $1-s23;#P newex 467 52 51 196617 r $1-s22;#P newex 467 33 51 196617 r $1-s21;#P newex 405 208 51 196617 r $1-s20;#P newex 405 189 51 196617 r $1-s19;#P newex 405 170 51 196617 r $1-s18;#P newex 405 151 51 196617 r $1-s17;#P newex 405 132 51 196617 r $1-s16;#P newex 405 112 51 196617 r $1-s15;#P newex 405 92 51 196617 r $1-s14;#P newex 405 72 51 196617 r $1-s13;#P newex 405 52 51 196617 r $1-s12;#P newex 405 33 51 196617 r $1-s11;#P newex 339 208 51 196617 r $1-s10;#P newex 339 189 51 196617 r $1-s9;#P newex 339 170 52 196617 r $1-s8;#P newex 339 151 52 196617 r $1-s7;#P newex 339 132 52 196617 r $1-s6;#P newex 339 112 52 196617 r $1-s5;#P newex 339 92 52 196617 r $1-s4;#P newex 339 72 52 196617 r $1-s3;#P newex 4 293 664 196617 sack 51 0.;#P newex 339 52 52 196617 r $1-s2;#P newex 339 33 52 196617 r $1-s1;#P outlet 4 319 15 0;#P comment 7 40 213 196617 pack sensor channels into a list. requires the non-standard 'sack' external \, but could be redone using 'pack' for consitency;#P comment 9 90 100 196617 nik@f0.am;#P comment 8 8 127 196626 sensor2list;#P connect 55 0 6 0;#P connect 6 0 3 0;#P connect 4 0 6 1;#P connect 5 0 6 2;#P connect 7 0 6 3;#P connect 8 0 6 4;#P connect 9 0 6 5;#P connect 10 0 6 6;#P connect 11 0 6 7;#P connect 12 0 6 8;#P connect 13 0 6 9;#P connect 14 0 6 10;#P connect 15 0 6 11;#P connect 16 0 6 12;#P connect 17 0 6 13;#P connect 18 0 6 14;#P connect 19 0 6 15;#P connect 20 0 6 16;#P connect 21 0 6 17;#P connect 22 0 6 18;#P connect 23 0 6 19;#P connect 24 0 6 20;#P connect 25 0 6 21;#P connect 26 0 6 22;#P connect 27 0 6 23;#P connect 28 0 6 24;#P connect 29 0 6 25;#P connect 30 0 6 26;#P connect 31 0 6 27;#P connect 32 0 6 28;#P connect 33 0 6 29;#P connect 34 0 6 30;#P connect 35 0 6 31;#P connect 36 0 6 32;#P connect 37 0 6 33;#P connect 38 0 6 34;#P connect 39 0 6 35;#P connect 40 0 6 36;#P connect 41 0 6 37;#P connect 42 0 6 38;#P connect 43 0 6 39;#P connect 44 0 6 40;#P connect 45 0 6 41;#P connect 46 0 6 42;#P connect 47 0 6 43;#P connect 48 0 6 44;#P connect 49 0 6 45;#P connect 50 0 6 46;#P connect 51 0 6 47;#P connect 52 0 6 48;#P connect 53 0 6 49;#P connect 54 0 6 50;#P pop;