max v2;#N vpatcher 59 95 997 670;#P origin -70 0;#P user led 237 304 17 17 0 150;#P hidden newex 557 464 55 196617 metro 888;#P hidden newex 583 372 29 196617 t 0 b;#N vpatcher 136 55 490 391;#P origin -266 0;#P toggle 31 126 15 0;#P newex 48 125 27 196617 gate;#P newex 179 157 49 196617 ldiv 255.;#P user jit.pwindow 29 143 126 78 0 1 0 0 1 0;#P newex 244 280 73 196617 list2sensor p6;#P newex 244 261 73 196617 list2sensor p5;#P newex 244 242 73 196617 list2sensor p4;#P newex 244 223 73 196617 list2sensor p3;#P newex 244 204 73 196617 list2sensor p2;#P newex 190 280 49 196617 zl slice 9;#P newex 190 261 49 196617 zl slice 9;#P newex 190 242 49 196617 zl slice 9;#P newex 190 223 49 196617 zl slice 9;#P newex 190 204 49 196617 zl slice 9;#P newex 190 185 49 196617 zl slice 9;#P newex 179 134 152 196617 jit.spill @plane 2 @listlength 54;#B color 5;#P newex 244 185 73 196617 list2sensor p1;#P outlet 9 292 15 0;#P flonum 172 34 35 9 0 0 0 3 0 0 0 221 221 221 222 222 222 0 0 0;#P number 216 34 35 9 0 0 0 3 0 0 0 221 221 221 222 222 222 0 0 0;#P message 216 54 43 196617 time \$1;#P message 172 54 42 196617 rate \$1;#P message 72 54 28 196617 read;#P message 142 54 27 196617 stop;#P message 108 54 31 196617 start;#P flonum 43 33 35 9 0.5 0 1 3 0 0 0 221 221 221 222 222 222 0 0 0;#P toggle 9 33 15 0;#P newex 9 53 44 196617 metro 2;#P newex 9 87 79 196617 jit.qt.movie 9 6;#P connect 2 0 1 0;#P fasten 8 0 0 0 221 80 14 80;#P fasten 4 0 0 0 113 80 14 80;#P fasten 5 0 0 0 147 80 14 80;#P fasten 6 0 0 0 77 80 14 80;#P fasten 7 0 0 0 177 80 14 80;#P fasten 1 0 0 0 14 83 14 83;#P connect 0 0 11 0;#P connect 27 0 25 0;#P connect 3 0 1 1;#P connect 28 0 27 0;#P connect 0 0 27 1;#P connect 10 0 7 0;#P connect 0 0 13 0;#P connect 13 0 26 0;#P connect 26 0 14 0;#P connect 14 1 15 0;#P connect 15 1 16 0;#P connect 16 1 17 0;#P connect 17 1 18 0;#P connect 18 1 19 0;#P connect 9 0 8 0;#P connect 14 0 12 0;#P connect 15 0 20 0;#P connect 16 0 21 0;#P connect 17 0 22 0;#P connect 18 0 23 0;#P connect 19 0 24 0;#P pop;#P newobj 320 285 101 196626 p playback;#P hidden message 612 410 27 196617 stop;#P hidden toggle 557 440 15 0;#P hidden newex 577 438 27 196617 gate;#P number 18 73 35 9 0 0 0 3 0 0 0 221 221 221 222 222 222 0 0 0;#P toggle 1 73 15 0;#P newex 1 96 50 196617 metro 10;#P hidden button 630 344 15 0;#P hidden newex 653 345 115 196617 pack sensor 0 0 0 0 0 0;#P hidden newex 745 319 65 196617 unpack 0 0 0;#P hidden newex 630 320 65 196617 unpack 0 0 0;#P hidden newex 644 366 188 196617 sprintf write %s-%s.%s.%s.%s.%s.%s;#P hidden newex 602 252 66 196617 t 1 b b b b;#P button 265 241 48 0;#P comment 266 284 47 196626 stop;#P button 176 226 78 0;#P hidden newex 630 297 84 196617 date;#P hidden message 630 275 33 196617 date;#P hidden message 674 275 34 196617 time;#P hidden message 658 411 55 196617 realtime 1;#P hidden newex 644 437 82 196617 jit.qt.record 9 6;#P outlet 63 327 15 0;#P user jit.pwindow 86 229 87 81 0 1 0 0 1 0;#P message 939 136 53 196617 offset 0 0;#P message 931 111 31 196617 clear;#P newex 843 114 27 196617 t b l;#P button 843 135 15 0;#P newex 843 158 150 196617 jit.matrix p6-rec 1 float32 9 6;#P newex 860 135 69 196617 jit.fill p6-rec;#P newex 843 92 49 196617 zl slice 9;#P newex 843 56 73 196617 sensor2list p6;#P message 783 137 53 196617 offset 0 0;#P message 775 112 31 196617 clear;#P newex 687 115 27 196617 t b l;#P button 687 136 15 0;#P newex 687 159 150 196617 jit.matrix p5-rec 1 float32 9 6;#P newex 704 136 69 196617 jit.fill p5-rec;#P newex 687 93 49 196617 zl slice 9;#P newex 687 57 73 196617 sensor2list p5;#P message 627 138 53 196617 offset 0 0;#P message 619 113 31 196617 clear;#P newex 531 116 27 196617 t b l;#P button 531 137 15 0;#P newex 531 160 150 196617 jit.matrix p4-rec 1 float32 9 6;#P newex 548 137 69 196617 jit.fill p4-rec;#P newex 531 94 49 196617 zl slice 9;#P newex 531 58 73 196617 sensor2list p4;#P message 471 139 53 196617 offset 0 0;#P message 463 114 31 196617 clear;#P newex 375 117 27 196617 t b l;#P button 375 138 15 0;#P newex 375 161 150 196617 jit.matrix p3-rec 1 float32 9 6;#P newex 392 138 69 196617 jit.fill p3-rec;#P newex 375 95 49 196617 zl slice 9;#P newex 375 59 73 196617 sensor2list p3;#P message 315 140 53 196617 offset 0 0;#P message 307 115 31 196617 clear;#P newex 219 118 27 196617 t b l;#P button 219 139 15 0;#P newex 219 162 150 196617 jit.matrix p2-rec 1 float32 9 6;#P newex 236 139 69 196617 jit.fill p2-rec;#P newex 219 96 49 196617 zl slice 9;#P newex 219 60 73 196617 sensor2list p2;#P message 159 141 53 196617 offset 0 0;#P newex 63 197 791 196617 jit.pack 7;#P message 151 116 31 196617 clear;#P newex 63 119 27 196617 t b l;#P button 63 140 15 0;#P newex 63 163 150 196617 jit.matrix p1-rec 1 float32 9 6;#P newex 80 140 69 196617 jit.fill p1-rec;#P newex 63 97 49 196617 zl slice 9;#P newex 63 61 73 196617 sensor2list p1;#P comment 2 9 151 196626 sensor recorder;#P comment 3 39 391 196617 record sensor data into a matrix \, which can be replayed to simulate sensor input;#P comment 176 299 72 196626 record;#P connect 69 0 68 0;#P connect 70 0 68 1;#P connect 3 0 4 0;#P connect 4 0 8 0;#P connect 8 0 7 0;#P fasten 9 0 6 0 156 160 68 160;#P connect 7 0 6 0;#P fasten 68 0 10 0 6 191 68 191;#P connect 10 0 53 0;#P connect 8 1 5 0;#P connect 11 0 5 0;#P connect 10 0 52 0;#P connect 6 0 10 1;#P connect 12 0 13 0;#P connect 13 0 17 0;#P connect 17 0 16 0;#P fasten 18 0 15 0 312 159 224 159;#P connect 16 0 15 0;#P connect 19 0 14 0;#P connect 17 1 14 0;#P hidden connect 76 0 77 0;#P connect 15 0 10 2;#P connect 20 0 21 0;#P connect 21 0 25 0;#P connect 25 0 24 0;#P connect 24 0 23 0;#P fasten 26 0 23 0 468 158 380 158;#P connect 25 1 22 0;#P connect 27 0 22 0;#P connect 23 0 10 3;#P connect 28 0 29 0;#P connect 29 0 33 0;#P connect 33 0 32 0;#P fasten 34 0 31 0 624 157 536 157;#P connect 32 0 31 0;#P connect 33 1 30 0;#P connect 35 0 30 0;#P hidden fasten 62 0 72 0 607 420 562 420;#P hidden fasten 75 0 72 0 588 420 562 420;#P hidden connect 72 0 76 0;#P hidden connect 72 0 71 0;#P connect 31 0 10 4;#P hidden connect 61 0 75 0;#P hidden fasten 10 0 71 1 68 314 599 314;#P hidden connect 59 0 62 0;#P hidden fasten 75 1 73 0 607 403 617 403;#P hidden connect 62 2 57 0;#P hidden connect 57 0 58 0;#P hidden connect 56 0 58 0;#P hidden connect 58 0 64 0;#P hidden connect 64 0 67 0;#P hidden connect 66 0 63 0;#P hidden connect 71 0 54 0;#P hidden connect 63 0 54 0;#P hidden connect 73 0 54 0;#P hidden connect 55 0 54 0;#P hidden connect 67 0 66 0;#P hidden connect 62 4 55 0;#P hidden connect 64 2 66 1;#P hidden connect 62 3 56 0;#P connect 36 0 37 0;#P connect 37 0 41 0;#P connect 41 0 40 0;#P connect 40 0 39 0;#P fasten 42 0 39 0 780 156 692 156;#P hidden connect 64 0 66 2;#P connect 41 1 38 0;#P connect 43 0 38 0;#P hidden connect 64 1 66 3;#P connect 39 0 10 5;#P hidden connect 65 0 66 4;#P hidden connect 65 1 66 5;#P hidden connect 58 1 65 0;#P hidden connect 65 2 66 6;#P connect 44 0 45 0;#P connect 45 0 49 0;#P connect 49 0 48 0;#P fasten 50 0 47 0 936 155 848 155;#P connect 48 0 47 0;#P connect 47 0 10 6;#P connect 49 1 46 0;#P connect 51 0 46 0;#P pop;