max v2;#N vpatcher 50 50 351 645;#P origin 10 52;#P hidden message 53 -67 210 196617 window flags zoom grow close \, window exec;#P hidden newex 6 -73 45 196617 loadbang;#P hidden message 6 -47 365 196617 window size 50 50 324 548 \, window flags nozoom nogrow close float \, window exec;#N thispatcher;#Q end;#P hidden newobj 6 -26 59 196617 thispatcher;#P message 0 481 188 196617 p_s34 bias filtered sensor unit1 z (0..1);#P message 0 467 188 196617 p_s33 bias filtered sensor unit1 y (0..1);#P message 0 453 188 196617 p_s32 bias filtered sensor unit1 x (0..1);#P user panel -1 451 277 47;#X brgb 119 152 179;#X frgb 0 0 0;#X border 3;#X rounded 0;#X shadow 0;#X done;#P message 0 437 188 196617 p_s31 bias filtered sensor unit1 z (0..1);#P message 0 423 188 196617 p_s30 bias filtered sensor unit1 y (0..1);#P message 0 409 188 196617 p_s29 bias filtered sensor unit1 x (0..1);#P message 0 389 170 196617 p_s28 autocorrelate - sensor unit 2;#P comment 0 559 225 196617 nik@f0.am - numbering + naming sensors;#P comment 0 502 257 196617 You may use \, modify and/or distribute under the terms of the GNU General Public License. Please see the LICENSE file for the specific terms of the license.;#P comment 0 536 135 196617 copyright 2001 FoAM vzw.;#P message 0 321 145 196617 p_s24 tilt - from sensor unit1;#P message 0 335 145 196617 p_s25 tilt - from sensor unit2;#P message 0 355 139 196617 p_s26 speed - in visual plane;#P message 0 375 170 196617 p_s27 autocorrelate - sensor unit 1;#P message 0 1 165 196617 p_s1 accellerometer unit1 x (0..1);#P message 0 15 165 196617 p_s2 accellerometer unit1 y (0..1);#P message 0 29 165 196617 p_s3 accellerometer unit1 z (0..1);#P message 0 45 165 196617 p_s4 accellerometer unit1 x (0..1);#P message 0 59 165 196617 p_s5 accellerometer unit2 y (0..1);#P message 0 73 165 196617 p_s6 accellerometer unit2 z (0..1);#P message 0 93 265 196617 p_s10 magnitude of xyz vector from sensor unit 1 (0..1);#P message 0 107 265 196617 p_s11 magnitude of xyz vector from sensor unit 2 (0..1);#P message 0 127 221 196617 p_s12 leaky accumulator from s10 (+ve float);#P message 0 141 221 196617 p_s13 leaky accumulator from s11 (+ve float.);#P message 0 161 165 196617 p_s14 peak detection on s10 (bang);#P message 0 175 165 196617 p_s15 peak detection on s11 (bang);#P message 0 195 222 196617 p_s16 energy level on sensor unit 1 (+ve float);#P message 0 209 222 196617 p_s17 energy level on sensor unit 2 (+ve float);#P message 0 229 224 196617 p_s18 periodic average of sensor unit1 x (0..1);#P message 0 243 224 196617 p_s19 periodic average of sensor unit1 y (0..1);#P message 0 257 224 196617 p_s20 periodic average of sensor unit1 z (0..1);#P message 0 273 224 196617 p_s21 periodic average of sensor unit2 x (0..1);#P message 0 287 224 196617 p_s22 periodic average of sensor unit2 y (0..1);#P message 0 301 224 196617 p_s23 periodic average of sensor unit2 z (0..1);#P user panel -1 407 277 47;#X brgb 119 152 179;#X frgb 0 0 0;#X border 3;#X rounded 0;#X shadow 0;#X done;#P user panel -1 373 277 33;#X brgb 119 152 179;#X frgb 0 0 0;#X border 3;#X rounded 0;#X shadow 0;#X done;#P user panel -1 353 277 19;#X brgb 119 152 179;#X frgb 0 0 0;#X border 3;#X rounded 0;#X shadow 0;#X done;#P user panel -1 319 277 33;#X brgb 119 152 179;#X frgb 0 0 0;#X border 3;#X rounded 0;#X shadow 0;#X done;#P user panel -1 271 277 47;#X brgb 119 152 179;#X frgb 0 0 0;#X border 3;#X rounded 0;#X shadow 0;#X done;#P user panel -1 227 277 47;#X brgb 119 152 179;#X frgb 0 0 0;#X border 3;#X rounded 0;#X shadow 0;#X done;#P user panel -1 193 277 33;#X brgb 119 152 179;#X frgb 0 0 0;#X border 3;#X rounded 0;#X shadow 0;#X done;#P user panel -1 159 277 33;#X brgb 119 152 179;#X frgb 0 0 0;#X border 3;#X rounded 0;#X shadow 0;#X done;#P user panel -1 125 277 33;#X brgb 119 152 179;#X frgb 0 0 0;#X border 3;#X rounded 0;#X shadow 0;#X done;#P user panel -1 91 277 33;#X brgb 119 152 179;#X frgb 0 0 0;#X border 3;#X rounded 0;#X shadow 0;#X done;#P user panel -1 43 277 47;#X brgb 119 152 179;#X frgb 0 0 0;#X border 3;#X rounded 0;#X shadow 0;#X done;#P user panel -1 -1 277 47;#X brgb 119 152 179;#X frgb 0 0 0;#X border 3;#X rounded 0;#X shadow 0;#X done;#P hidden connect 49 0 48 0;#P hidden connect 48 0 47 0;#P hidden connect 50 0 47 0;#P pop;