max v2;#N vpatcher 195 129 884 459;#P origin 0 -5;#P newex 592 185 51 196617 r $1-s50;#P newex 592 166 51 196617 r $1-s49;#P newex 592 147 51 196617 r $1-s48;#P newex 592 128 51 196617 r $1-s47;#P newex 592 109 51 196617 r $1-s46;#P newex 592 89 51 196617 r $1-s45;#P newex 592 69 51 196617 r $1-s44;#P newex 592 49 51 196617 r $1-s43;#P newex 592 29 51 196617 r $1-s42;#P newex 592 10 51 196617 r $1-s41;#P newex 531 185 51 196617 r $1-s40;#P newex 531 166 51 196617 r $1-s39;#P newex 531 147 51 196617 r $1-s38;#P newex 531 128 51 196617 r $1-s37;#P newex 531 109 51 196617 r $1-s36;#P newex 531 89 51 196617 r $1-s35;#P newex 531 69 51 196617 r $1-s34;#P newex 531 49 51 196617 r $1-s33;#P newex 531 29 51 196617 r $1-s32;#P newex 531 10 51 196617 r $1-s31;#P newex 467 185 51 196617 r $1-s30;#P newex 467 166 51 196617 r $1-s29;#P newex 467 147 51 196617 r $1-s28;#P newex 467 128 51 196617 r $1-s27;#P newex 467 109 51 196617 r $1-s26;#P newex 467 89 51 196617 r $1-s25;#P newex 467 69 51 196617 r $1-s24;#P newex 467 49 51 196617 r $1-s23;#P newex 467 29 51 196617 r $1-s22;#P newex 467 10 51 196617 r $1-s21;#P newex 405 185 51 196617 r $1-s20;#P newex 405 166 51 196617 r $1-s19;#P newex 405 147 51 196617 r $1-s18;#P newex 405 128 51 196617 r $1-s17;#P newex 405 109 51 196617 r $1-s16;#P newex 405 89 51 196617 r $1-s15;#P newex 405 69 51 196617 r $1-s14;#P newex 405 49 51 196617 r $1-s13;#P newex 405 29 51 196617 r $1-s12;#P newex 405 10 51 196617 r $1-s11;#P newex 339 185 51 196617 r $1-s10;#P newex 339 166 51 196617 r $1-s9;#P newex 339 147 52 196617 r $1-s8;#P newex 339 128 52 196617 r $1-s7;#P newex 339 109 52 196617 r $1-s6;#P newex 339 89 52 196617 r $1-s5;#P newex 339 69 52 196617 r $1-s4;#P newex 339 49 52 196617 r $1-s3;#P number 5 164 35 9 0 0 0 3 0 0 0 221 221 221 222 222 222 0 0 0;#P newex 5 270 664 196617 switch 50;#P newex 339 29 52 196617 r $1-s2;#P newex 339 10 52 196617 r $1-s1;#P outlet 5 297 15 0;#P inlet 5 128 15 0;#P connect 0 0 5 0;#P connect 5 0 4 0;#P connect 4 0 1 0;#P connect 2 0 4 1;#P connect 3 0 4 2;#P connect 6 0 4 3;#P connect 7 0 4 4;#P connect 8 0 4 5;#P connect 9 0 4 6;#P connect 10 0 4 7;#P connect 11 0 4 8;#P connect 12 0 4 9;#P connect 13 0 4 10;#P connect 14 0 4 11;#P connect 15 0 4 12;#P connect 16 0 4 13;#P connect 17 0 4 14;#P connect 18 0 4 15;#P connect 19 0 4 16;#P connect 20 0 4 17;#P connect 21 0 4 18;#P connect 22 0 4 19;#P connect 23 0 4 20;#P connect 24 0 4 21;#P connect 25 0 4 22;#P connect 26 0 4 23;#P connect 27 0 4 24;#P connect 28 0 4 25;#P connect 29 0 4 26;#P connect 30 0 4 27;#P connect 31 0 4 28;#P connect 32 0 4 29;#P connect 33 0 4 30;#P connect 34 0 4 31;#P connect 35 0 4 32;#P connect 36 0 4 33;#P connect 37 0 4 34;#P connect 38 0 4 35;#P connect 39 0 4 36;#P connect 40 0 4 37;#P connect 41 0 4 38;#P connect 42 0 4 39;#P connect 43 0 4 40;#P connect 44 0 4 41;#P connect 45 0 4 42;#P connect 46 0 4 43;#P connect 47 0 4 44;#P connect 48 0 4 45;#P connect 49 0 4 46;#P connect 50 0 4 47;#P connect 51 0 4 48;#P connect 52 0 4 49;#P connect 53 0 4 50;#P pop;