max v2;#N vpatcher 41 49 308 403;#P inlet 178 41 15 0;#P outlet 44 289 15 0;#P inlet 44 41 15 0;#P newex 44 174 27 196617 int;#P newex 44 152 39 196617 * 255.;#P message 44 202 62 1441802 setall \$1;#P newex 44 228 133 1441802 jit.matrix 1 char 1 1;#B color 5;#P connect 4 0 2 0;#P connect 2 0 3 0;#P connect 3 0 1 0;#P connect 1 0 0 0;#P connect 6 0 0 0;#P connect 0 0 5 0;#P pop;