max v2;#N vpatcher 23 53 334 469;#P origin 263 -9;#P comment 6 109 50 196617 unit2;#B color 10;#P comment 6 93 50 196617 unit1;#B color 10;#P hidden message 56 432 210 196617 window flags zoom grow close \, window exec;#P hidden newex 9 429 45 196617 loadbang;#P hidden message 9 452 230 196617 window flags nozoom nogrow close \, window exec;#N thispatcher;#Q end;#P hidden newobj 9 471 59 196617 thispatcher;#N vpatcher 9 45 221 520;#P origin 0 38;#P hidden message 286 97 210 196617 window flags zoom grow close \, window exec;#P hidden newex 239 94 45 196617 loadbang;#P hidden message 239 117 230 196617 window flags nozoom nogrow close \, window exec;#N thispatcher;#Q end;#P hidden newobj 239 136 59 196617 thispatcher;#P hidden newex 584 289 168 196617 jit.matrix $1-triclops1 1 char 256;#P hidden newex 584 238 95 196617 jit.fill $1-triclops1;#P hidden newex 584 201 27 196617 int;#P hidden newex 584 220 70 196617 intdelline 256;#P hidden newex 584 180 39 196617 * 255.;#P hidden message 603 259 38 1441802 clear;#P hidden button 584 260 15 0;#P hidden newex 410 290 168 196617 jit.matrix $1-triclops1 1 char 256;#P hidden newex 410 239 95 196617 jit.fill $1-triclops1;#P hidden newex 410 202 27 196617 int;#P hidden newex 410 221 70 196617 intdelline 256;#P hidden newex 410 181 39 196617 * 255.;#P hidden message 429 260 38 1441802 clear;#P hidden button 410 261 15 0;#P hidden newex 236 291 168 196617 jit.matrix $1-triclops1 1 char 256;#P hidden newex 236 240 95 196617 jit.fill $1-triclops1;#P user jit.pwindow 1 433 210 40 0 1 0 0 1 0;#P hidden newex 341 425 53 196617 jit.pack;#P hidden newex 236 203 27 196617 int;#P hidden newex 236 222 70 196617 intdelline 256;#P hidden newex 236 182 39 196617 * 255.;#P hidden message 255 261 38 1441802 clear;#P hidden button 236 262 15 0;#P flonum 175 320 35 9 0 0 0 3 0 0 0 221 221 221 222 222 222 0 0 0;#P number 175 299 35 14 0 0 101 3 19 26 4 176 71 161 222 222 222 0 0 0;#P hidden newex 0 296 41 196617 sensewitch $1;#P user multiSlider 3 299 207 133 0. 1. 1 3449 15;#M frgb 0 0 0;#M brgb 255 255 255;#M rgb2 127 127 127;#P flonum 175 185 35 9 0 0 0 3 0 0 0 221 221 221 222 222 222 0 0 0;#P number 175 164 35 14 0 0 101 3 19 26 4 176 71 161 222 222 222 0 0 0;#P hidden newex 0 161 41 196617 sensewitch $1;#P user multiSlider 3 164 207 133 0. 1. 1 3449 15;#M frgb 0 0 0;#M brgb 255 255 255;#M rgb2 127 127 127;#P flonum 175 50 35 9 0 0 0 3 0 0 0 221 221 221 222 222 222 0 0 0;#P number 175 29 35 14 0 0 101 3 19 26 4 176 71 161 222 222 222 0 0 0;#P hidden newex 0 26 41 196617 sensewitch $1;#P user multiSlider 3 29 207 133 0. 1. 1 3449 15;#M frgb 0 0 0;#M brgb 255 255 255;#M rgb2 127 127 127;#P comment 9 2 200 196626 sensors - player $1;#B frgb 194 194 194;#P user panel 0 0 212 474;#X brgb 62 57 97;#X frgb 0 0 0;#X border 0;#X rounded 0;#X shadow 0;#X done;#P hidden connect 4 0 3 0;#P hidden connect 8 0 7 0;#P hidden connect 12 0 11 0;#P hidden connect 19 0 20 0;#P hidden connect 3 0 2 0;#P hidden connect 7 0 6 0;#P hidden connect 11 0 10 0;#P hidden connect 3 0 5 0;#P hidden connect 7 0 9 0;#P hidden connect 11 0 13 0;#P hidden connect 5 0 16 0;#P hidden connect 16 0 18 0;#P hidden connect 18 0 17 0;#P hidden connect 17 0 21 0;#P hidden connect 21 0 14 0;#P hidden connect 14 0 22 0;#P hidden connect 15 0 22 0;#P hidden connect 39 0 38 0;#P hidden connect 38 0 37 0;#P hidden connect 40 0 37 0;#P hidden connect 22 0 19 0;#P hidden connect 22 0 19 1;#P hidden connect 29 0 19 2;#P hidden connect 36 0 19 3;#P hidden connect 9 0 25 0;#P hidden connect 25 0 27 0;#P hidden connect 27 0 26 0;#P hidden connect 26 0 28 0;#P hidden connect 28 0 23 0;#P hidden connect 24 0 29 0;#P hidden connect 23 0 29 0;#P hidden connect 13 0 32 0;#P hidden connect 32 0 34 0;#P hidden connect 34 0 33 0;#P hidden connect 33 0 35 0;#P hidden connect 35 0 30 0;#P hidden connect 30 0 36 0;#P hidden connect 31 0 36 0;#P pop;#P newobj 195 386 111 196618 p $1-zoomMonitor;#P comment 10 379 73 196617 topology ->;#B frgb 116 116 116;#P hidden comment 313 25 431 196644 NOTE: if this patch is not shell.template then this file has been automatically generated \, and your changes may be overwritten. please make any changes in "shell.template";#P flonum 196 357 35 9 0 0 0 3 0 0 0 221 221 221 222 222 222 0 0 0;#P number 196 336 35 14 0 0 101 3 19 26 4 176 71 161 222 222 222 0 0 0;#P hidden newex 194 336 74 196617 sensewitch $1;#P user multiSlider 230 336 76 39 0. 1. 1 3449 15;#M frgb 0 0 0;#M brgb 255 255 255;#M rgb2 127 127 127;#P flonum 196 316 35 9 0 0 0 3 0 0 0 221 221 221 222 222 222 0 0 0;#P number 196 295 35 14 0 0 101 3 19 26 4 176 71 161 222 222 222 0 0 0;#P hidden newex 194 295 74 196617 sensewitch $1;#P user multiSlider 230 295 76 39 0. 1. 1 3449 15;#M frgb 0 0 0;#M brgb 255 255 255;#M rgb2 127 127 127;#P flonum 196 275 35 9 0 0 0 3 0 0 0 221 221 221 222 222 222 0 0 0;#P number 196 254 35 14 0 0 101 3 19 26 4 176 71 161 222 222 222 0 0 0;#P hidden newex 194 251 74 196617 sensewitch $1;#P user multiSlider 230 254 76 39 0. 1. 1 3449 15;#M frgb 0 0 0;#M brgb 255 255 255;#M rgb2 127 127 127;#P flonum 196 234 35 9 0 0 0 3 0 0 0 221 221 221 222 222 222 0 0 0;#P number 196 213 35 14 0 0 101 3 19 26 4 176 71 161 222 222 222 0 0 0;#P hidden newex 194 210 74 196617 sensewitch $1;#P user multiSlider 230 213 76 39 0. 1. 1 3449 15;#M frgb 0 0 0;#M brgb 255 255 255;#M rgb2 127 127 127;#P flonum 196 193 35 9 0 0 0 3 0 0 0 221 221 221 222 222 222 0 0 0;#P number 196 172 35 14 0 0 101 3 19 26 4 176 71 161 222 222 222 0 0 0;#P hidden newex 194 169 74 196617 sensewitch $1;#P user multiSlider 230 172 76 39 0. 1. 1 3449 15;#M frgb 0 0 0;#M brgb 255 255 255;#M rgb2 127 127 127;#P flonum 196 152 35 9 0 0 0 3 0 0 0 221 221 221 222 222 222 0 0 0;#P number 196 131 35 14 0 0 101 3 19 26 4 176 71 161 222 222 222 0 0 0;#P hidden newex 194 128 74 196617 sensewitch $1;#P user multiSlider 230 131 76 39 0. 1. 1 3449 15;#M frgb 0 0 0;#M brgb 255 255 255;#M rgb2 127 127 127;#P comment 9 151 100 196617 sensor variables ->;#B frgb 116 116 116;#N vpatcher 354 52 645 647;#P origin -59 24;#P message 347 128 209 196617 window flags zoom grow close \, window exec;#P hidden newex 325 80 76 196617 loadbang;#P hidden message 325 104 230 196617 window flags nozoom nogrow close \, window exec;#N thispatcher;#Q end;#P hidden newobj 347 163 68 196617 thispatcher;#P comment 151 510 132 196617 scale;#P comment 151 495 132 196618 transfer fcn (x \, y \, z);#P user panel 150 493 138 16;#X brgb 147 175 119;#X frgb 0 0 0;#X border 0;#X rounded 0;#X shadow 0;#X done;#P comment 150 528 100 196617 scale all (32..34);#P flonum 246 571 39 9 0 0 0 3 0 0 0 221 221 221 222 222 222 0 0 0;#P flonum 246 557 39 9 0 0 0 3 0 0 0 221 221 221 222 222 222 0 0 0;#P flonum 246 543 39 9 0 0 0 3 0 0 0 221 221 221 222 222 222 0 0 0;#P comment 150 574 62 196617 s34 - scale;#P comment 150 559 62 196617 s33 - scale;#P flonum 205 571 39 9 0 0 0 3 0 0 0 221 221 221 222 222 222 0 0 0;#P flonum 205 557 39 9 0 0 0 3 0 0 0 221 221 221 222 222 222 0 0 0;#P flonum 205 543 39 9 0 0 0 3 0 0 0 221 221 221 222 222 222 0 0 0;#P hidden newex 229 559 79 196617 r $1-s34-scale;#P hidden newex 229 545 79 196617 r $1-s33-scale;#P comment 150 544 62 196617 s32 - scale;#P flonum 246 527 39 9 0 0 0 3 0 0 0 221 221 221 222 222 222 0 0 0;#P user panel 150 508 138 16;#X brgb 106 176 186;#X frgb 0 0 0;#X border 0;#X rounded 0;#X shadow 0;#X done;#P hidden newex 229 569 79 196617 s $1-s34-scale;#P hidden newex 229 555 79 196617 s $1-s33-scale;#P hidden newex 229 542 79 196617 s $1-s32-scale;#P comment 4 510 132 196617 scale;#P comment 4 495 132 196618 transfer fcn (x \, y \, z);#P user panel 3 493 138 16;#X brgb 147 175 119;#X frgb 0 0 0;#X border 0;#X rounded 0;#X shadow 0;#X done;#P comment 3 528 100 196617 scale all (29..31);#P flonum 99 571 39 9 0 0 0 3 0 0 0 221 221 221 222 222 222 0 0 0;#P flonum 99 557 39 9 0 0 0 3 0 0 0 221 221 221 222 222 222 0 0 0;#P flonum 99 543 39 9 0 0 0 3 0 0 0 221 221 221 222 222 222 0 0 0;#P comment 3 574 62 196617 s31 - scale;#P comment 3 559 62 196617 s30 - scale;#P flonum 59 571 39 9 0 0 0 3 0 0 0 221 221 221 222 222 222 0 0 0;#P flonum 59 557 39 9 0 0 0 3 0 0 0 221 221 221 222 222 222 0 0 0;#P flonum 59 543 39 9 0 0 0 3 0 0 0 221 221 221 222 222 222 0 0 0;#P hidden newex 4 562 79 196617 r $1-s31-scale;#P hidden newex 4 548 79 196617 r $1-s30-scale;#P hidden newex 4 533 79 196617 r $1-s29-scale;#P comment 3 544 62 196617 s29 - scale;#P flonum 99 527 39 9 0 0 0 3 0 0 0 221 221 221 222 222 222 0 0 0;#P user panel 3 508 138 16;#X brgb 106 176 186;#X frgb 0 0 0;#X border 0;#X rounded 0;#X shadow 0;#X done;#P user panel 3 509 138 80;#X brgb 179 178 210;#X frgb 0 0 0;#X border 0;#X rounded 0;#X shadow 0;#X done;#P hidden newex 61 570 79 196617 s $1-s31-scale;#P hidden newex 61 551 79 196617 s $1-s30-scale;#P hidden newex 60 533 79 196617 s $1-s29-scale;#P comment 153 454 128 196618 energy level of unit;#P user panel 150 452 138 16;#X brgb 147 175 119;#X frgb 0 0 0;#X border 0;#X rounded 0;#X shadow 0;#X done;#P flonum 248 430 39 9 0 0 0 3 0 0 0 221 221 221 222 222 222 0 0 0;#P flonum 207 430 39 9 0 0 0 3 0 0 0 221 221 221 222 222 222 0 0 0;#P flonum 248 471 39 9 0 0 0 3 0 0 0 221 221 221 222 222 222 0 0 0;#P flonum 207 471 39 9 0 0 0 3 0 0 0 221 221 221 222 222 222 0 0 0;#P hidden newex 225 466 91 196617 r $1-s15-throttle;#P hidden newex 224 480 91 196617 s $1-s15-throttle;#P hidden newex 224 458 91 196617 r $1-s17-throttle;#P hidden newex 224 472 91 196617 s $1-s17-throttle;#P comment 153 414 128 196618 peak detection on s11;#P user panel 150 412 138 16;#X brgb 147 175 119;#X frgb 0 0 0;#X border 0;#X rounded 0;#X shadow 0;#X done;#P comment 150 430 100 196617 s15 - thrtl;#P comment 150 472 100 196617 s17 - thrtl;#P user panel 150 426 138 22;#X brgb 179 178 210;#X frgb 0 0 0;#X border 0;#X rounded 0;#X shadow 0;#X done;#P comment 151 346 132 196617 averaging frequency;#P flonum 246 362 39 9 0 0 0 3 0 0 0 221 221 221 222 222 222 0 0 0;#P flonum 205 362 39 9 0 0 0 3 0 0 0 221 221 221 222 222 222 0 0 0;#P hidden newex 222 356 112 196617 r $1-s21-avgacc_freq;#P hidden newex 222 370 112 196617 s $1-s21-avgacc_freq;#P flonum 246 376 39 9 0 0 0 3 0 0 0 221 221 221 222 222 222 0 0 0;#P flonum 205 376 39 9 0 0 0 3 0 0 0 221 221 221 222 222 222 0 0 0;#P hidden newex 222 388 112 196617 r $1-s22-avgacc_freq;#P hidden newex 221 402 112 196617 s $1-s22-avgacc_freq;#P flonum 246 390 39 9 0 0 0 3 0 0 0 221 221 221 222 222 222 0 0 0;#P flonum 205 390 39 9 0 0 0 3 0 0 0 221 221 221 222 222 222 0 0 0;#P hidden newex 221 420 112 196617 r $1-s23-avgacc_freq;#P hidden newex 221 434 112 196617 s $1-s23-avgacc_freq;#P comment 150 364 100 196617 s21 - freq;#P user panel 150 344 138 16;#X brgb 108 176 186;#X frgb 0 0 0;#X border 0;#X rounded 0;#X shadow 0;#X done;#P comment 150 378 100 196617 s22 - freq;#P comment 150 392 100 196617 s23 - freq;#P user panel 150 358 138 50;#X brgb 179 178 210;#X frgb 0 0 0;#X border 0;#X rounded 0;#X shadow 0;#X done;#P comment 150 282 132 196618 periodic average (x \, y \, z);#P flonum 246 298 39 9 0 0 0 3 0 0 0 221 221 221 222 222 222 0 0 0;#P flonum 205 298 39 9 0 0 0 3 0 0 0 221 221 221 222 222 222 0 0 0;#P hidden newex 220 273 91 196617 r $1-s21-throttle;#P hidden newex 221 287 91 196617 s $1-s21-throttle;#P flonum 246 312 39 9 0 0 0 3 0 0 0 221 221 221 222 222 222 0 0 0;#P flonum 205 312 39 9 0 0 0 3 0 0 0 221 221 221 222 222 222 0 0 0;#P hidden newex 219 275 91 196617 r $1-s22-throttle;#P hidden newex 220 289 91 196617 s $1-s22-throttle;#P flonum 246 326 39 9 0 0 0 3 0 0 0 221 221 221 222 222 222 0 0 0;#P flonum 205 326 39 9 0 0 0 3 0 0 0 221 221 221 222 222 222 0 0 0;#P hidden newex 220 308 91 196617 r $1-s23-throttle;#P hidden newex 220 322 91 196617 s $1-s23-throttle;#P comment 150 300 100 196617 s21 - thrtl;#P user panel 150 280 138 16;#X brgb 147 175 119;#X frgb 0 0 0;#X border 0;#X rounded 0;#X shadow 0;#X done;#P comment 150 314 100 196617 s22 - thrtl;#P comment 150 328 100 196617 s23 - thrtl;#P user panel 150 294 138 50;#X brgb 179 178 210;#X frgb 0 0 0;#X border 0;#X rounded 0;#X shadow 0;#X done;#P comment 153 57 110 196620 sensor unit 2;#B frgb 201 201 201;#P comment 150 101 115 196618 accelermtr x \, y \, x \, z;#P comment 246 86 50 196617 modify;#B frgb 217 217 217;#P comment 204 86 57 196617 monitor;#B frgb 178 178 178;#P flonum 248 241 39 9 0 0 0 3 0 0 0 221 221 221 222 222 222 0 0 0;#P flonum 207 241 39 9 0 0 0 3 0 0 0 221 221 221 222 222 222 0 0 0;#P flonum 248 255 39 9 0 0 0 3 0 0 0 221 221 221 222 222 222 0 0 0;#P flonum 207 255 39 9 0 0 0 3 0 0 0 221 221 221 222 222 222 0 0 0;#P hidden newex 224 222 91 196617 r $1-s13-throttle;#P hidden newex 224 236 91 196617 s $1-s13-throttle;#P hidden newex 223 233 74 196617 r $1-s13-leak;#P hidden newex 223 247 74 196617 s $1-s13-leak;#P flonum 246 119 39 9 0 0 0 3 0 0 0 221 221 221 222 222 222 0 0 0;#P flonum 205 119 39 9 0 0 0 3 0 0 0 221 221 221 222 222 222 0 0 0;#P hidden newex 231 63 85 196617 r $1-s5-throttle;#P hidden newex 223 69 85 196617 s $1-s5-throttle;#P flonum 246 133 39 9 0 0 0 3 0 0 0 221 221 221 222 222 222 0 0 0;#P flonum 205 133 39 9 0 0 0 3 0 0 0 221 221 221 222 222 222 0 0 0;#P hidden newex 224 87 85 196617 r $1-s6-throttle;#P hidden newex 224 101 85 196617 s $1-s6-throttle;#P flonum 246 161 39 9 0 0 0 3 0 0 0 221 221 221 222 222 222 0 0 0;#P flonum 205 160 39 9 0 0 0 3 0 0 0 221 221 221 222 222 222 0 0 0;#P flonum 246 147 39 9 0 0 0 3 0 0 0 221 221 221 222 222 222 0 0 0;#P flonum 205 147 39 9 0 0 0 3 0 0 0 221 221 221 222 222 222 0 0 0;#P hidden newex 225 120 85 196617 r $1-s7-throttle;#P hidden newex 225 134 85 196617 s $1-s7-throttle;#P hidden newex 227 152 85 196617 r $1-s8-throttle;#P hidden newex 227 166 85 196617 s $1-s8-throttle;#P flonum 247 200 39 9 0 0 0 3 0 0 0 221 221 221 222 222 222 0 0 0;#P flonum 206 200 39 9 0 0 0 3 0 0 0 221 221 221 222 222 222 0 0 0;#P hidden newex 223 190 91 196617 r $1-s11-throttle;#P hidden newex 223 204 91 196617 s $1-s11-throttle;#P comment 151 182 84 196618 magnitute;#P comment 150 121 100 196617 s5 - thrtl;#P comment 150 201 100 196617 s11 - thrtl;#P user panel 150 102 138 16;#X brgb 147 175 119;#X frgb 0 0 0;#X border 0;#X rounded 0;#X shadow 0;#X done;#P user panel 150 196 138 22;#X brgb 179 178 210;#X frgb 0 0 0;#X border 0;#X rounded 0;#X shadow 0;#X done;#P user panel 150 182 138 16;#X brgb 147 175 119;#X frgb 0 0 0;#X border 0;#X rounded 0;#X shadow 0;#X done;#P comment 152 223 124 196618 leaky accum (from s11);#P user panel 150 223 138 16;#X brgb 147 175 119;#X frgb 0 0 0;#X border 0;#X rounded 0;#X shadow 0;#X done;#P comment 150 241 100 196617 s13 - thrtl;#P comment 150 256 100 196617 s13 - leak;#P user panel 150 237 138 38;#X brgb 179 178 210;#X frgb 0 0 0;#X border 0;#X rounded 0;#X shadow 0;#X done;#P comment 150 135 100 196617 s6 - thrtl;#P comment 150 149 100 196617 s7 - thrtl;#P comment 150 162 100 196617 s8 - thrtl;#P user panel 150 116 138 62;#X brgb 179 178 210;#X frgb 0 0 0;#X border 0;#X rounded 0;#X shadow 0;#X done;#P user panel 150 466 138 22;#X brgb 179 178 210;#X frgb 0 0 0;#X border 0;#X rounded 0;#X shadow 0;#X done;#P comment 6 454 128 196618 energy level of unit;#P user panel 3 452 138 16;#X brgb 147 175 119;#X frgb 0 0 0;#X border 0;#X rounded 0;#X shadow 0;#X done;#P flonum 101 430 39 9 0 0 0 3 0 0 0 221 221 221 222 222 222 0 0 0;#P flonum 60 430 39 9 0 0 0 3 0 0 0 221 221 221 222 222 222 0 0 0;#P flonum 101 471 39 9 0 0 0 3 0 0 0 221 221 221 222 222 222 0 0 0;#P flonum 60 471 39 9 0 0 0 3 0 0 0 221 221 221 222 222 222 0 0 0;#P hidden newex 80 420 91 196617 r $1-s14-throttle;#P hidden newex 80 434 91 196617 s $1-s14-throttle;#P hidden newex 78 457 91 196617 r $1-s16-throttle;#P hidden newex 78 471 91 196617 s $1-s16-throttle;#P comment 3 413 128 196618 peak detection on s10;#P user panel 3 412 138 16;#X brgb 147 175 119;#X frgb 0 0 0;#X border 0;#X rounded 0;#X shadow 0;#X done;#P comment 3 430 100 196617 s14 - thrtl;#P comment 3 472 100 196617 s16 - thrtl;#P user panel 3 426 138 22;#X brgb 179 178 210;#X frgb 0 0 0;#X border 0;#X rounded 0;#X shadow 0;#X done;#P comment 4 346 132 196617 averaging frequency;#P flonum 99 362 39 9 0 0 0 3 0 0 0 221 221 221 222 222 222 0 0 0;#P flonum 58 362 39 9 0 0 0 3 0 0 0 221 221 221 222 222 222 0 0 0;#P hidden newex 79 351 112 196617 r $1-s18-avgacc_freq;#P hidden newex 79 365 112 196617 s $1-s18-avgacc_freq;#P flonum 99 376 39 9 0 0 0 3 0 0 0 221 221 221 222 222 222 0 0 0;#P flonum 58 376 39 9 0 0 0 3 0 0 0 221 221 221 222 222 222 0 0 0;#P hidden newex 79 384 112 196617 r $1-s19-avgacc_freq;#P hidden newex 78 398 112 196617 s $1-s19-avgacc_freq;#P flonum 99 390 39 9 0 0 0 3 0 0 0 221 221 221 222 222 222 0 0 0;#P flonum 58 390 39 9 0 0 0 3 0 0 0 221 221 221 222 222 222 0 0 0;#P hidden newex 79 384 112 196617 r $1-s20-avgacc_freq;#P hidden newex 78 398 112 196617 s $1-s20-avgacc_freq;#P comment 3 364 100 196617 s18 - freq;#P user panel 3 344 138 16;#X brgb 108 176 186;#X frgb 0 0 0;#X border 0;#X rounded 0;#X shadow 0;#X done;#P comment 3 378 100 196617 s19 - freq;#P comment 3 392 100 196617 s20 - freq;#P user panel 3 358 138 50;#X brgb 179 178 210;#X frgb 0 0 0;#X border 0;#X rounded 0;#X shadow 0;#X done;#P comment 4 282 132 196618 periodic average (x \, y \, z);#P flonum 99 298 39 9 0 0 0 3 0 0 0 221 221 221 222 222 222 0 0 0;#P flonum 58 298 39 9 0 0 0 3 0 0 0 221 221 221 222 222 222 0 0 0;#P hidden newex 78 283 91 196617 r $1-s18-throttle;#P hidden newex 78 297 91 196617 s $1-s18-throttle;#P flonum 99 312 39 9 0 0 0 3 0 0 0 221 221 221 222 222 222 0 0 0;#P flonum 58 312 39 9 0 0 0 3 0 0 0 221 221 221 222 222 222 0 0 0;#P hidden newex 76 281 91 196617 r $1-s19-throttle;#P hidden newex 76 295 91 196617 s $1-s19-throttle;#P flonum 99 326 39 9 0 0 0 3 0 0 0 221 221 221 222 222 222 0 0 0;#P flonum 58 326 39 9 0 0 0 3 0 0 0 221 221 221 222 222 222 0 0 0;#P hidden newex 76 314 91 196617 r $1-s20-throttle;#P hidden newex 76 328 91 196617 s $1-s20-throttle;#P comment 3 300 100 196617 s18 - thrtl;#P user panel 3 280 138 16;#X brgb 147 175 119;#X frgb 0 0 0;#X border 0;#X rounded 0;#X shadow 0;#X done;#P comment 3 314 100 196617 s19 - thrtl;#P comment 3 328 100 196617 s20 - thrtl;#P user panel 3 294 138 50;#X brgb 179 178 210;#X frgb 0 0 0;#X border 0;#X rounded 0;#X shadow 0;#X done;#P comment 7 57 110 196620 sensor unit 1;#B frgb 201 201 201;#P comment 4 101 115 196618 accelermtr x \, y \, x \, z;#P comment 100 86 50 196617 modify;#B frgb 217 217 217;#P comment 58 86 57 196617 monitor;#B frgb 178 178 178;#P flonum 101 241 39 9 0 0 0 3 0 0 0 221 221 221 222 222 222 0 0 0;#P flonum 60 241 39 9 0 0 0 3 0 0 0 221 221 221 222 222 222 0 0 0;#P flonum 101 255 39 9 0 0 0 3 0 0 0 221 221 221 222 222 222 0 0 0;#P flonum 60 255 39 9 0 0 0 3 0 0 0 221 221 221 222 222 222 0 0 0;#P hidden newex 77 239 91 196617 r $1-s12-throttle;#P hidden newex 77 253 91 196617 s $1-s12-throttle;#P hidden newex 76 241 74 196617 r $1-s12-leak;#P hidden newex 76 255 74 196617 s $1-s12-leak;#P flonum 100 119 39 9 0 0 0 3 0 0 0 221 221 221 222 222 222 0 0 0;#P flonum 59 119 39 9 0 0 0 3 0 0 0 221 221 221 222 222 222 0 0 0;#P hidden newex 76 103 88 196617 r $1-s1-throttle;#P hidden newex 76 117 88 196617 s $1-s1-throttle;#P flonum 100 133 39 9 0 0 0 3 0 0 0 221 221 221 222 222 222 0 0 0;#P flonum 59 133 39 9 0 0 0 3 0 0 0 221 221 221 222 222 222 0 0 0;#P hidden newex 77 104 88 196617 r $1-s2-throttle;#P hidden newex 77 118 88 196617 s $1-s2-throttle;#P flonum 100 161 39 9 0 0 0 3 0 0 0 221 221 221 222 222 222 0 0 0;#P flonum 59 160 39 9 0 0 0 3 0 0 0 221 221 221 222 222 222 0 0 0;#P flonum 100 147 39 9 0 0 0 3 0 0 0 221 221 221 222 222 222 0 0 0;#P flonum 59 147 39 9 0 0 0 3 0 0 0 221 221 221 222 222 222 0 0 0;#P hidden newex 77 137 88 196617 r $1-s3-throttle;#P hidden newex 77 151 88 196617 s $1-s3-throttle;#P hidden newex 79 136 88 196617 r $1-s4-throttle;#P hidden newex 79 150 88 196617 s $1-s4-throttle;#P flonum 100 200 39 9 0 0 0 3 0 0 0 221 221 221 222 222 222 0 0 0;#P flonum 59 200 39 9 0 0 0 3 0 0 0 221 221 221 222 222 222 0 0 0;#P hidden newex 73 194 92 196617 r $1-s10-throttle;#P hidden newex 73 208 92 196617 s $1-s10-throttle;#P comment 4 182 84 196618 magnitute;#P comment 4 121 100 196617 s1 - thrtl;#P comment 3 201 100 196617 s10 - thrtl;#P user panel 4 102 138 16;#X brgb 147 175 119;#X frgb 0 0 0;#X border 0;#X rounded 0;#X shadow 0;#X done;#P user panel 3 196 138 22;#X brgb 179 178 210;#X frgb 0 0 0;#X border 0;#X rounded 0;#X shadow 0;#X done;#P user panel 3 182 138 16;#X brgb 147 175 119;#X frgb 0 0 0;#X border 0;#X rounded 0;#X shadow 0;#X done;#P comment 5 223 124 196618 leaky accum;#P user panel 3 223 138 16;#X brgb 147 175 119;#X frgb 0 0 0;#X border 0;#X rounded 0;#X shadow 0;#X done;#P comment 3 241 100 196617 s12 - thrtl;#P comment 3 256 100 196617 s12 - leak;#P user panel 3 237 138 38;#X brgb 179 178 210;#X frgb 0 0 0;#X border 0;#X rounded 0;#X shadow 0;#X done;#P comment 4 135 100 196617 s2 - thrtl;#P comment 4 149 100 196617 s3 - thrtl;#P comment 4 162 100 196617 s4 - thrtl;#P user panel 4 116 138 62;#X brgb 179 178 210;#X frgb 0 0 0;#X border 0;#X rounded 0;#X shadow 0;#X done;#P comment 12 12 59 196632 $1;#B frgb 220 224 189;#P user panel 3 466 138 22;#X brgb 179 178 210;#X frgb 0 0 0;#X border 0;#X rounded 0;#X shadow 0;#X done;#P user panel 0 52 146 542;#X brgb 62 57 97;#X frgb 66 149 198;#X border 2;#X rounded 0;#X shadow 0;#X done;#P user panel 0 0 293 54;#X brgb 62 57 97;#X frgb 66 149 198;#X border 2;#X rounded 0;#X shadow 0;#X done;#P user panel 150 509 138 80;#X brgb 179 178 210;#X frgb 0 0 0;#X border 0;#X rounded 0;#X shadow 0;#X done;#P hidden newex 229 530 79 196617 r $1-s32-scale;#P user panel 145 52 148 542;#X brgb 62 57 97;#X frgb 66 149 198;#X border 2;#X rounded 0;#X shadow 0;#X done;#P hidden connect 68 0 69 0;#P hidden connect 64 0 65 0;#P hidden connect 60 0 61 0;#P hidden connect 86 0 87 0;#P hidden connect 82 0 83 0;#P hidden connect 78 0 79 0;#P hidden connect 39 0 40 0;#P hidden connect 35 0 36 0;#P hidden connect 29 0 30 0;#P hidden connect 27 0 32 0;#P hidden connect 23 0 24 0;#P hidden connect 211 0 214 0;#P hidden connect 212 0 215 0;#P hidden connect 213 0 216 0;#P hidden connect 45 0 48 0;#P hidden connect 43 0 46 0;#P hidden connect 98 0 101 0;#P hidden connect 96 0 99 0;#P hidden connect 209 0 204 0;#P hidden connect 219 0 204 0;#P hidden connect 209 0 205 0;#P hidden connect 220 0 205 0;#P hidden connect 209 0 206 0;#P hidden connect 221 0 206 0;#P hidden connect 25 0 22 0;#P hidden connect 41 0 38 0;#P hidden connect 47 0 42 0;#P hidden connect 66 0 63 0;#P hidden connect 62 0 59 0;#P hidden connect 37 0 34 0;#P hidden connect 31 0 28 0;#P hidden connect 49 0 44 0;#P hidden connect 70 0 67 0;#P hidden connect 84 0 81 0;#P hidden connect 80 0 77 0;#P hidden connect 100 0 95 0;#P hidden connect 33 0 26 0;#P hidden connect 88 0 85 0;#P hidden connect 102 0 97 0;#P hidden connect 138 0 139 0;#P hidden connect 134 0 135 0;#P hidden connect 128 0 129 0;#P hidden connect 126 0 131 0;#P hidden connect 167 0 168 0;#P hidden connect 163 0 164 0;#P hidden connect 159 0 160 0;#P hidden connect 185 0 186 0;#P hidden connect 181 0 182 0;#P hidden connect 177 0 178 0;#P hidden connect 1 0 234 0;#P hidden connect 232 0 235 0;#P hidden connect 233 0 236 0;#P hidden connect 122 0 123 0;#P hidden connect 144 0 147 0;#P hidden connect 142 0 145 0;#P hidden connect 197 0 200 0;#P hidden connect 195 0 198 0;#P hidden connect 165 0 162 0;#P hidden connect 161 0 158 0;#P hidden connect 169 0 166 0;#P hidden connect 183 0 180 0;#P hidden connect 179 0 176 0;#P hidden connect 187 0 184 0;#P hidden connect 140 0 137 0;#P hidden connect 124 0 121 0;#P hidden connect 146 0 141 0;#P hidden connect 136 0 133 0;#P hidden connect 148 0 143 0;#P hidden connect 199 0 194 0;#P hidden connect 201 0 196 0;#P hidden connect 130 0 127 0;#P hidden connect 132 0 125 0;#P hidden connect 230 0 226 0;#P hidden connect 239 0 226 0;#P hidden connect 230 0 227 0;#P hidden connect 240 0 227 0;#P hidden connect 230 0 228 0;#P hidden connect 241 0 228 0;#P hidden connect 248 0 247 0;#P hidden connect 247 0 246 0;#P hidden connect 249 0 246 0;#P pop;#P newobj 115 149 74 196617 p sensor_units;#P flonum 196 111 35 9 0 0 0 3 0 0 0 221 221 221 222 222 222 0 0 0;#P number 196 90 35 14 0 0 101 3 19 26 4 176 71 161 222 222 222 0 0 0;#P hidden newex 194 87 74 196617 sensewitch $1;#P user multiSlider 230 90 76 39 0. 1. 1 3449 15;#M frgb 0 0 0;#M brgb 255 255 255;#M rgb2 127 127 127;#P comment 137 268 50 196617 modify;#B frgb 217 217 217;#P comment 95 268 57 196617 monitor;#B frgb 178 178 178;#N vpatcher 247 44 709 322;#P comment 7 120 440 196617 nik@f0.am - added layout + max4 colouring/routing (breaking max3.5 compatability) cvs v1.8;#P comment 7 102 361 196617 nik@f0.am - initial version \, along with fiddling \, changing and solidifying;#P comment 8 37 257 196617 You may use \, modify and/or distribute under the terms of the GNU General Public License. Please see the LICENSE file for the specific terms of the license.;#P comment 8 79 135 196617 copyright 2001 FoAM vzw.;#P comment 9 6 189 196626 licence + changelog;#P pop;#P newobj 134 400 55 196617 p licencing;#P comment 147 179 50 196617 modify;#B frgb 217 217 217;#P comment 105 179 57 196617 monitor;#B frgb 178 178 178;#P comment 3 173 128 196620 player output;#B frgb 201 201 201;#P flonum 139 356 46 9 0 0 0 3 0 0 0 221 221 221 222 222 222 0 0 0;#P flonum 92 356 46 9 0 0 0 3 0 0 0 221 221 221 222 222 222 0 0 0;#P hidden newex 370 498 125 196617 r $1-s35-clockcontinuous;#P hidden newex 361 568 125 196617 s $1-s35-clockcontinuous;#P flonum 139 342 46 9 0 0 0 3 0 0 0 221 221 221 222 222 222 0 0 0;#P flonum 92 342 46 9 0 0 0 3 0 0 0 221 221 221 222 222 222 0 0 0;#P hidden newex 370 468 105 196617 r $1-s34-sensorslew;#P hidden newex 370 483 105 196617 s $1-s34-sensorslew;#P flonum 139 328 46 9 0 0 0 3 0 0 0 221 221 221 222 222 222 0 0 0;#P flonum 92 328 46 9 0 0 0 3 0 0 0 221 221 221 222 222 222 0 0 0;#P hidden newex 369 433 115 196617 r $1-s33-couplingscale;#P hidden newex 369 448 115 196617 s $1-s33-couplingscale;#P flonum 139 314 46 9 0 0 0 3 0 0 0 221 221 221 222 222 222 0 0 0;#P flonum 92 314 46 9 0 0 0 3 0 0 0 221 221 221 222 222 222 0 0 0;#P hidden newex 367 398 92 196617 r $1-s32-damping;#P hidden newex 367 413 92 196617 s $1-s32-damping;#P flonum 139 300 46 9 0 0 0 3 0 0 0 221 221 221 222 222 222 0 0 0;#P flonum 92 300 46 9 0 0 0 3 0 0 0 221 221 221 222 222 222 0 0 0;#P hidden newex 365 364 79 196617 r $1-s31-mass;#P hidden newex 365 379 79 196617 s $1-s31-mass;#P flonum 139 286 46 9 0 0 0 3 0 0 0 221 221 221 222 222 222 0 0 0;#P flonum 92 286 46 9 0 0 0 3 0 0 0 221 221 221 222 222 222 0 0 0;#P hidden newex 364 330 65 196617 r $1-s30-dt;#P hidden newex 364 345 65 196617 s $1-s30-dt;#P comment 4 259 69 196620 dynamics;#B frgb 201 201 201;#P flonum 147 195 39 9 0 0 0 3 0 0 0 221 221 221 222 222 222 0 0 0;#P flonum 106 195 39 9 0 0 0 3 0 0 0 221 221 221 222 222 222 0 0 0;#P flonum 72 91 39 9 0 0 0 3 0 0 0 221 221 221 222 222 222 0 0 0;#P flonum 110 91 39 9 0 0 0 3 0 0 0 221 221 221 222 222 222 0 0 0;#P hidden newex 332 64 50 196617 r $1-s2;#P flonum 148 91 39 9 0 0 0 3 0 0 0 221 221 221 222 222 222 0 0 0;#P hidden newex 332 78 50 196617 r $1-s3;#P flonum 147 212 39 9 0 0 0 3 0 0 0 221 221 221 222 222 222 0 0 0;#P flonum 106 212 39 9 0 0 0 3 0 0 0 221 221 221 222 222 222 0 0 0;#P hidden newex 364 308 82 196617 s $1-s9-throttle;#P hidden newex 363 286 82 196617 r $1-s9-throttle;#P comment 5 68 88 196620 sensor input;#B frgb 163 163 163;#P flonum 72 108 39 9 0 0 0 3 0 0 0 221 221 221 222 222 222 0 0 0;#P flonum 110 108 39 9 0 0 0 3 0 0 0 221 221 221 222 222 222 0 0 0;#P flonum 148 108 39 9 0 0 0 3 0 0 0 221 221 221 222 222 222 0 0 0;#P hidden newex 332 139 51 196617 r $1-s6;#P hidden newex 332 125 51 196617 r $1-s5;#P hidden newex 332 112 51 196617 r $1-s4;#P newex 88 130 52 196617 munge $1;#P newex 88 233 101 196617 $1-route_output;#P newex 87 377 91 196617 state_topology $1;#P comment 71 11 238 196617 this is a patch that deals with just player $1 you can read setting and modify the various munging/throttling parameters (normally controlled by the topolo-quirkical dynamics engine).;#P hidden newex 362 245 82 196617 r $1-throttle;#P hidden newex 361 264 82 196617 s $1-throttle;#P comment 3 197 100 196617 total player throttle;#P comment 3 213 116 196617 xy position (s9) thrtl;#P comment 196 67 110 196620 monitor sensors;#B frgb 194 194 194;#P comment 6 17 59 196632 $1;#P hidden newex 332 51 50 196617 r $1-s1;#P user panel 3 193 185 36;#X brgb 179 178 210;#X frgb 0 0 0;#X border 0;#X rounded 0;#X shadow 0;#X done;#P user panel 0 170 190 84;#X brgb 62 57 97;#X frgb 0 0 0;#X border 0;#X rounded 0;#X shadow 0;#X done;#P comment 5 288 100 196617 s40-dt;#P comment 5 302 100 196617 s41-mass;#P comment 5 316 100 196617 s42-damping;#P comment 5 344 100 196617 s44-sensorslew;#P comment 5 357 100 196617 s45-clockcntnuous;#P comment 5 330 100 196617 s43-couplingscale;#P user panel 4 283 184 91;#X brgb 179 178 210;#X frgb 0 0 0;#X border 0;#X rounded 0;#X shadow 0;#X done;#P user panel 0 255 190 143;#X brgb 62 57 97;#X frgb 0 0 0;#X border 0;#X rounded 0;#X shadow 0;#X done;#P comment 39 93 100 196617 s1..s3;#P comment 39 109 100 196617 s4..s6;#P user panel 4 88 185 39;#X brgb 179 178 210;#X frgb 0 0 0;#X border 0;#X rounded 0;#X shadow 0;#X done;#P comment 10 133 100 196617 munged data ->;#B frgb 116 116 116;#P user panel 0 64 190 105;#X brgb 62 57 97;#X frgb 0 0 0;#X border 0;#X rounded 0;#X shadow 0;#X done;#P user panel 191 64 120 352;#X brgb 62 57 97;#X frgb 0 0 0;#X border 0;#X rounded 0;#X shadow 0;#X done;#P hidden connect 111 0 110 0;#P hidden connect 110 0 109 0;#P hidden connect 112 0 109 0;#P hidden connect 16 0 42 0;#P hidden connect 27 0 32 0;#P hidden connect 47 0 48 0;#P hidden connect 51 0 52 0;#P hidden connect 55 0 56 0;#P hidden connect 59 0 60 0;#P hidden connect 63 0 64 0;#P hidden connect 67 0 68 0;#P hidden connect 22 0 43 0;#P hidden connect 34 0 36 0;#P hidden connect 40 0 41 0;#P hidden connect 28 0 31 0;#P hidden connect 38 0 39 0;#P hidden connect 29 0 30 0;#P hidden connect 78 0 77 0;#P hidden connect 84 0 83 0;#P hidden connect 88 0 87 0;#P hidden connect 92 0 91 0;#P hidden connect 96 0 95 0;#P hidden connect 100 0 99 0;#P hidden connect 104 0 103 0;#P hidden connect 77 0 79 0;#P hidden connect 83 0 85 0;#P hidden connect 87 0 89 0;#P hidden connect 91 0 93 0;#P hidden connect 95 0 97 0;#P hidden connect 99 0 101 0;#P hidden connect 103 0 105 0;#P hidden connect 77 0 76 0;#P hidden connect 83 0 82 0;#P hidden connect 87 0 86 0;#P hidden connect 91 0 90 0;#P hidden connect 95 0 94 0;#P hidden connect 99 0 98 0;#P hidden connect 103 0 102 0;#P hidden connect 44 0 21 0;#P hidden connect 69 0 66 0;#P hidden connect 37 0 35 0;#P hidden connect 49 0 46 0;#P hidden connect 53 0 50 0;#P hidden connect 57 0 54 0;#P hidden connect 61 0 58 0;#P hidden connect 65 0 62 0;#P pop;