max v2;#N vpatcher 437 136 850 458;#P origin 2 -28;#P hidden newex 468 252 28 196617 !- 1.;#P hidden newex 468 267 39 196617 * 100.;#P hidden newex 380 190 28 196617 !- 1.;#P hidden newex 380 205 39 196617 * 100.;#P hidden newex 77 183 28 196617 !- 1.;#P hidden newex 77 198 39 196617 * 100.;#P comment 268 52 82 196617 intrude;#P comment 329 272 52 196617 excavate;#P comment 319 165 60 196617 reveal;#P comment 157 272 60 196617 spawn;#P comment 169 165 25 196617 feed;#P comment 79 244 71 196617 group;#P hidden newex 284 185 39 196617 * 100.;#P hidden newex 201 184 39 196617 * 100.;#P hidden newex 301 79 39 196617 * 100.;#P hidden newex 183 70 39 196617 * 100.;#P hidden newex 17 191 39 196617 * 100.;#P user pictslider 36 158 39 86 0 0 0 0 SliderDefaultKnob.pct 1 SliderDefaultBkgnd.pct 1 2162 0 0 6553700 1. 1.;#P comment 55 388 162 196617 nik@f0.am - initial version;#P comment 55 321 257 196617 You may use \, modify and/or distribute under the terms of the GNU General Public License. Please see the LICENSE file for the specific terms of the license.;#P comment 55 363 135 196617 copyright 2001 FoAM vzw.;#P flonum 228 52 39 9 0. 1. 3 3 0 0 0 221 221 221 222 222 222 0 0 0;#P flonum 198 164 37 9 0. 1. 3 3 0 0 0 221 221 221 222 222 222 0 0 0;#P flonum 278 163 40 9 0. 1. 3 3 0 0 0 221 221 221 222 222 222 0 0 0;#P flonum 283 269 42 9 0. 1. 3 3 0 0 0 221 221 221 222 222 222 0 0 0;#P flonum 195 271 44 9 0. 1. 3 3 0 0 0 221 221 221 222 222 222 0 0 0;#P comment 0 21 272 196626 player $1 state-topology;#P comment 11 105 134 196617 solo-group axis;#P flonum 36 143 38 9 0. 1. 3 3 0 0 0 221 221 221 222 222 222 0 0 0;#P flonum 37 244 40 9 0. 1. 35 3 0 0 0 221 221 221 222 222 222 0 0 0;#P hidden newex 36 121 70 196617 state-solo $1;#P hidden newex 35 261 75 196617 state-group $1;#P hidden newex 323 30 84 196617 state-intrude $1;#P hidden newex 124 139 71 196617 state-feed $1;#P hidden newex 328 134 81 196617 state-reveal $1;#P hidden newex 322 289 93 196617 state-excavate $1;#P hidden newex 137 286 80 196617 state-spawn $1;#P hidden newex 15 221 84 196617 simplex-sg;#P hidden newex 230 154 62 196617 simplex-sfr;#P hidden newex 273 218 61 196617 simplex-rm;#P hidden newex 186 218 65 196617 simplex-fs;#P comment 219 296 104 196617 srfsm complex;#P comment 76 148 25 196617 solo;#P user pictslider 199 186 39 86 0 0 0 0 SliderDefaultKnob.pct 1 SliderDefaultBkgnd.pct 1 2162 0 100 6553600 1. 1.;#P user pictslider 285 185 39 86 0 0 0 0 SliderDefaultKnob.pct 1 SliderDefaultBkgnd.pct 1 2162 0 100 6553600 1. 1.;#P user pictslider 225 70 72 89 0 0 0 0 SliderDefaultKnob.pct 1 SliderDefaultBkgnd.pct 1 2163 0 6553600 100 1. 1.;#P hidden connect 17 0 8 0;#P hidden connect 16 0 29 0;#P hidden connect 15 0 17 0;#P hidden connect 14 0 16 0;#P hidden connect 40 0 28 1;#P hidden connect 29 0 28 1;#P hidden connect 17 0 41 0;#P hidden connect 41 0 40 0;#P hidden connect 16 0 8 1;#P hidden fasten 22 0 30 0 219 73;#P hidden connect 23 0 5 0;#P hidden connect 9 0 20 0;#P hidden connect 12 0 23 0;#P hidden connect 20 0 32 0;#P hidden connect 44 0 0 0;#P hidden connect 30 0 0 0;#P hidden connect 13 0 24 0;#P hidden connect 32 0 2 1;#P hidden connect 24 0 7 0;#P hidden connect 20 0 5 1;#P hidden connect 23 0 7 1;#P hidden connect 22 0 6 0;#P hidden connect 11 0 22 0;#P hidden connect 22 0 7 2;#P hidden connect 10 0 21 0;#P hidden connect 21 0 33 0;#P hidden connect 31 0 0 1;#P hidden connect 24 0 31 0;#P hidden connect 42 0 33 1;#P hidden connect 33 0 1 1;#P hidden connect 21 0 6 1;#P hidden connect 22 0 43 0;#P hidden connect 43 0 42 0;#P hidden connect 23 0 45 0;#P hidden connect 45 0 44 0;#P pop;