max v2;#N vpatcher 195 212 661 529;#P newex 181 106 229 196626 dynamics-eerm_2player;#P message 301 202 102 196617 0.05 0.9 0.05 IFR p1;#P message 301 219 102 196617 0.05 0.05 0.9 IFR p1;#P message 301 185 102 196617 0.8 0.01 0.19 IFR p1;#P newex 55 114 34 196617 !- 1.;#P flonum 35 90 35 9 0. 1. 3 3 0 0 0 221 221 221 222 222 222 0 0 0;#P newex 35 143 90 196617 pak 0. 0. 0. IFR p1;#P newex 57 225 61 196617 s eermInput;#P message 35 185 249 196617 TokenSetSimplex \$5 \$4 \, TokenSetCoord \$5 \$1 \$2 \$3;#P comment 43 60 289 196617 1. click 0.8 0.01 0.19 IFR p1 message boxes: okay 2. scroll in top float box \, crashes.;#P comment 45 24 82 196617 test eerm ¥;#P comment 43 41 378 196617 should be in same directory as eermMax and dynamics-eerm_2player;#P connect 6 0 5 0;#P connect 5 0 3 0;#P fasten 9 0 3 0 306 235 292 235 292 178 40 178;#P fasten 10 0 3 0 306 216 292 216 292 178 40 178;#P fasten 8 0 3 0 306 200 292 200 292 178 40 178;#P connect 6 0 7 0;#P connect 7 0 5 1;#P connect 3 0 4 0;#P pop;