max v2;#N vpatcher 398 74 936 523;#P origin 0 -7;#P toggle 67 56 15 0;#P newex 67 89 50 196617 gate;#P inlet 67 33 15 0;#P comment 254 413 260 196617 nik@f0.am - 'port' to max + typetag tangling;#P comment 254 338 257 196617 You may use \, modify and/or distribute under the terms of the GNU General Public License. Please see the LICENSE file for the specific terms of the license.;#P comment 254 380 135 196617 copyright 2001 FoAM vzw.;#P comment 254 399 162 196617 pix@test.at - pd version;#P newex 5 270 143 196617 prepend send $3;#P comment 232 296 212 196617 in the current version \, only floats are sent - hence the hardcoded typetag;#P newex 101 221 74 196617 route float list;#P newex 101 193 60 196617 pthrottle 0.;#P comment 303 75 127 196617 toOSC p1 p1s2 /tg/1/2;#P newex 107 46 54 196617 r $2;#P newex 101 140 60 196617 pthrottle 0.;#P comment 287 98 230 196617 this object receives an internal sensor and turns it into a message suitable for sending to the sendOSC object. it also does the throttling. why the dumb parameters? you might ask. well it's mostly because of the fact that pd (and max) only lets you use one parameter per symbol \, and it has to be the prefix of the symbol. so \, anywhere that a symbol would have to be made by joining two parameters together \, we need to supply the merged version as a parameter.;#P comment 288 20 178 196617 toOSC pX pXsY /tg/X/Y;#P comment 290 41 150 196617 eg \, to send p1s2 out with OSC address /tg/1/2:;#P comment 288 232 212 196617 the p1 at the beginning is used to get the "global throttle" for player 1 if you set it to a connection name which is notused \, this parameter wont respond to global throttling.;#P newex 157 166 95 196617 r $2-throttle;#P newex 161 103 87 196617 r $1-throttle;#P newex 5 293 52 196617 s gfxOSC;#P newex 162 296 66 196617 s soundOSC;#P comment 126 320 104 196617 supercollider expects OSC packets with type tags which must be manually inserted for the max verison of OSC prior to 1.7. with OSC v1.7 typetags are inserted by default.;#P message 162 270 118 196617 send $3 \\\,f \$1;#P connect 14 0 16 0;#P connect 14 1 16 0;#P connect 16 0 3 0;#P connect 21 0 23 0;#P connect 23 0 22 0;#P connect 22 0 10 0;#P connect 10 0 13 0;#P connect 13 0 14 0;#P connect 11 0 22 1;#P connect 4 0 10 1;#P connect 5 0 13 1;#P connect 14 0 0 0;#P connect 0 0 2 0;#P pop;