max v2;#N vpatcher 115 112 616 662;#P comment 115 503 162 196617 nik@f0.am - initial version;#P comment 114 441 257 196617 You may use \, modify and/or distribute under the terms of the GNU General Public License. Please see the LICENSE file for the specific terms of the license.;#P comment 114 483 135 196617 copyright 2001 FoAM vzw.;#P newex 39 302 93 196617 r room_turbulent;#P newex 39 347 69 196617 r room_fade;#P message 39 322 154 196617 send /tg/p0/state/turbulent \$1;#P message 39 365 132 196617 send /tg/p0/state/fade \$1;#P newex 39 32 65 196617 r room_solo;#P newex 39 73 115 196617 r room_group_density;#P newex 39 120 83 196617 r room_passive;#P newex 39 169 102 196617 r room_group_sync;#P newex 39 214 70 196617 r room_alert;#P newex 39 257 78 196617 r room_sludge;#P message 39 52 131 196617 send /tg/p0/state/solo \$1;#P message 39 93 175 196617 send /tg/p0/state/group_density \$1;#P message 39 140 145 196617 send /tg/p0/state/passive \$1;#P message 39 189 165 196617 send /tg/p0/state/group_sync \$1;#P message 39 232 135 196617 send /tg/p0/state/alert \$1;#P message 39 276 141 196617 send /tg/p0/state/sludge \$1;#P newex 257 304 93 196617 r room_turbulent;#P newex 257 349 69 196617 r room_fade;#P message 257 324 179 196617 sendtyped /tg/p0/state/turbulent \$1;#P message 257 367 155 196617 sendtyped /tg/p0/state/fade \$1;#P newex 39 392 76 196617 s gfxOSC;#P newex 257 393 76 196617 s soundOSC;#P newex 257 34 65 196617 r room_solo;#P newex 257 75 115 196617 r room_group_density;#P newex 257 122 83 196617 r room_passive;#P newex 257 171 102 196617 r room_group_sync;#P newex 257 216 70 196617 r room_alert;#P newex 257 259 78 196617 r room_sludge;#P message 257 54 160 196617 sendtyped /tg/0/state/solo \$1;#P message 257 95 202 196617 sendtyped /tg/p0/state/group_density \$1;#P message 257 142 172 196617 sendtyped /tg/p0/state/passive \$1;#P message 257 191 190 196617 sendtyped /tg/p0/state/group_sync \$1;#P message 257 234 160 196617 sendtyped /tg/p0/state/alert \$1;#P message 257 278 165 196617 sendtyped /tg/p0/state/sludge \$1;#P connect 29 0 23 0;#P connect 28 0 22 0;#P connect 27 0 21 0;#P connect 26 0 20 0;#P connect 25 0 19 0;#P connect 24 0 18 0;#P connect 33 0 31 0;#P connect 32 0 30 0;#P connect 23 0 13 0;#P connect 22 0 13 0;#P connect 21 0 13 0;#P connect 20 0 13 0;#P connect 19 0 13 0;#P connect 18 0 13 0;#P connect 31 0 13 0;#P connect 30 0 13 0;#P connect 11 0 5 0;#P connect 10 0 4 0;#P connect 9 0 3 0;#P connect 8 0 2 0;#P connect 7 0 1 0;#P connect 6 0 0 0;#P connect 17 0 15 0;#P connect 16 0 14 0;#P connect 15 0 12 0;#P connect 14 0 12 0;#P connect 0 0 12 0;#P connect 1 0 12 0;#P connect 2 0 12 0;#P connect 3 0 12 0;#P connect 4 0 12 0;#P connect 5 0 12 0;#P pop;