max v2;#N vpatcher 333 405 733 705;#N comlet f v1 . v2;#P outlet 19 134 15 0;#P newex 19 93 134 196617 expr $f1 * $f3 + $f2 * $f4;#N comlet f y2;#P inlet 133 58 15 0;#N comlet f x2;#P inlet 102 58 15 0;#N comlet f y1;#P inlet 54 58 15 0;#N comlet f x1;#P inlet 23 58 15 0;#P comment 218 26 100 196617 dot product for two dimensional vectors only;#P comment 18 26 180 196626 X2Dot;#P connect 2 0 6 0;#P connect 6 0 7 0;#P connect 3 0 6 1;#P connect 4 0 6 2;#P connect 5 0 6 3;#P pop;