max v2;#N vpatcher 136 64 1090 770;#P origin 61 -27;#P comment 14 28 213 196626 crossfire_0115;#P comment 229 28 143 196617 Yoichiro Serita © 2003 Topological Media Lab;#P flonum 851 360 35 9 0 0 0 3 0 0 0 221 221 221 222 222 222 0 0 0;#P newex 847 335 39 196617 * 0.01;#P slider 840 202 15 101 0 1;#P newex 791 332 40 196617 intrude;#P number 75 249 35 9 0 0 0 3 0 0 0 221 221 221 222 222 222 0 0 0;#P newex 37 604 43 1441802 sel 99;#P newex 37 580 40 1441802 key;#N vpreset 2;#X append 1 2 13 510 321 number int 0 \; 14 441 277 toggle int 1 \; 23 117 580 toggle int 1 \; 37 145 14 number int 139 \; 38 145 50 number int 169 \; 39 145 86 number int;#X append 1 2 128 \; 40 145 122 number int 184 \; 41 145 163 number int 198 \; 42 145 199 number int 114 \; 43 145 235 number int 192 \; 44 145 271 number int 126 \; 105 249 75;#X append 1 2 number int 1 \; 62 293 111 number int 12 \; 75 205 341 number int 80 \; 77 246 341 number int 12 \; 82 198 511 flonum float 2.4 \; 87 651 37 toggle int 1 \; 95 227 172;#X append 1 2 toggle int 1 \; 98 227 253 toggle int 1 \;;#X append 2 2 13 510 321 number int 0 \; 14 441 277 toggle int 1 \; 23 117 580 toggle int 1 \; 37 145 14 number int 125 \; 38 145 50 number int 143 \; 39 145 86 number int;#X append 2 2 107 \; 40 145 122 number int 165 \; 41 145 163 number int 199 \; 42 145 199 number int 116 \; 43 145 235 number int 202 \; 44 145 271 number int 129 \; 105 249 75;#X append 2 2 number int 1 \; 62 293 111 number int 12 \; 75 205 341 number int 78 \; 77 246 341 number int 12 \; 82 198 511 flonum float 2.4 \; 87 651 37 toggle int 1 \; 95 227 172;#X append 2 2 toggle int 1 \; 98 227 253 toggle int 1 \;;#P preset 814 100 49 20;#P newex 631 72 45 196617 loadbang;#P comment 158 203 71 196617 line on/off;#P comment 236 203 71 196617 Letter on/off;#P toggle 253 227 15 0;#P newex 253 248 27 196617 gate;#P message 253 270 64 196617 frgb 255 255 255 \, moveto \$1 \$2 \, write A \, moveto \$3 \$4 \, write B \, moveto \$5 \$6 \, write C \, moveto \$7 \$8 \, write D;#P toggle 172 227 15 0;#P newex 172 248 27 196617 gate;#P newex 111 272 53 196617 r distance;#B color 12;#P newex 511 153 53 196617 r distance;#B color 12;#P newex 341 268 53 196617 s distance;#B color 12;#N vpatcher 70 173 805 672;#P message 389 87 14 196617 0;#P newex 389 66 45 196617 loadbang;#P user GSwitch2 389 209 39 32 0 0;#P comment 406 37 62 196617 key "esc" to fullscreen;#P inlet 373 33 15 0;#P message 166 149 20 196617 \$8;#P newex 166 169 27 196617 + 1;#P message 156 93 20 196617 \$3;#P newex 129 116 27 196617 gate;#P newex 146 44 61 196617 r mouseinfo;#B color 12;#P newex 96 255 32 196617 s np1;#B color 12;#P newex 129 255 32 196617 s np2;#B color 12;#P newex 96 230 43 196617 gate 2;#P number 96 207 35 9 0 0 0 3 0 0 0 221 221 221 222 222 222 0 0 0;#P message 129 149 35 196617 \$1 \$2;#P newex 146 67 63 196617 route mouse;#P button 404 332 15 0;#P newex 404 355 128 196617 pack mouse 0 0 0 0 0 0 0 0;#P newex 432 327 45 196617 * 0.313;#P newex 418 305 45 196617 * 0.313;#P newex 418 252 63 196617 route mouse;#P newex 418 276 110 196617 unpack 0 0 0 0 0 0 0 0;#P newex 389 390 61 196617 s mouseinfo;#P newex 373 169 55 196617 jit.window;#P newex 505 103 56 1441802 sel 0 1;#P message 507 124 97 1441802 \; max showmenubar;#P message 606 123 110 1441802 \; max hidemenubar;#P message 389 115 87 1441802 visible \$1 \, fullscreen \$1;#P toggle 476 82 15 0;#P newex 476 60 62 1441802 select 27;#P newex 476 33 40 1441802 key;#P fasten 24 0 17 0 171 198 101 198;#P connect 17 0 18 0;#P connect 18 0 20 0;#P connect 23 0 22 0;#P connect 22 0 16 0;#P connect 16 0 18 1;#P connect 18 1 19 0;#P connect 21 0 15 0;#P connect 15 0 22 1;#P connect 15 0 23 0;#P connect 22 0 25 0;#P connect 25 0 24 0;#P connect 26 0 7 0;#P fasten 3 0 7 0 394 153 378 153;#P connect 29 0 30 0;#P fasten 2 0 3 0 481 108 394 108;#P connect 30 0 3 0;#P fasten 2 0 28 0 481 196 394 196;#P connect 28 0 8 0;#P fasten 13 0 8 0 409 381 394 381;#P fasten 11 0 14 0 423 326 409 326;#P connect 14 0 13 0;#P connect 7 1 28 1;#P connect 28 1 10 0;#P connect 10 0 9 0;#P connect 9 0 11 0;#P connect 11 0 13 1;#P connect 9 1 12 0;#P connect 12 0 13 2;#P connect 9 2 13 3;#P connect 9 3 13 4;#P connect 9 4 13 5;#P connect 0 0 1 0;#P connect 1 0 2 0;#P connect 9 5 13 6;#P connect 9 6 13 7;#P connect 2 0 6 0;#P connect 6 0 5 0;#P connect 9 7 13 8;#P connect 6 1 4 0;#P pop;#P newobj 777 432 93 196617 p mouseandwindow;#P newex 341 104 27 196617 b;#P message 37 627 42 196617 setall 0;#P toggle 37 651 15 0;#P message 37 672 50 196617 interp \$1;#P user jit.pwindow -7 478 82 62 0 1 0 0 1 0;#P newex 172 433 95 196617 jit.avg4 @x 1 @y 1;#P newex 511 176 27 196617 / 5.;#P flonum 511 198 35 9 0 0 0 3 0 0 0 221 221 221 222 222 222 0 0 0;#P message 511 218 69 196617 saturation \$1;#P newex 580 240 52 196617 jit.brcosa;#P message 341 125 50 196617 162 40;#P newex 379 104 60 196617 prepend set;#P number 341 246 69 9 0 0 0 3 0 0 0 221 221 221 222 222 222 0 0 0;#P newex 341 225 44 196617 !/ 1000;#P number 341 205 69 9 0 0 0 3 0 0 0 221 221 221 222 222 222 0 0 0;#P newex 341 184 27 196617 sqrt;#P newex 341 163 42 196617 L2norm;#P newex 379 71 32 196617 r np1;#B color 12;#P newex 440 71 32 196617 r np2;#B color 12;#P newex 341 143 109 196617 Lsub;#P newex 271 126 32 196617 mavg;#P newex 234 126 32 196617 mavg;#P newex 122 126 32 196617 mavg;#P newex 86 126 32 196617 mavg;#P newex 62 278 28 196617 zacc;#P newex 30 278 28 196617 zacc;#P newex 30 249 42 196617 unpack;#P number 111 293 35 9 0 0 0 3 0 0 0 221 221 221 222 222 222 0 0 0;#P newex 172 453 64 196617 jit.rgb2luma;#P newex 14 87 46 196617 unpack;#P newex 163 104 46 196617 unpack;#P newex 359 333 45 196617 loadbang;#P message 30 369 99 196617 paintoval \$1 \$2 \$3 \$4 255 255 255;#P newex 94 322 27 196617 + 2;#P newex 62 322 27 196617 - 2;#P newex 126 322 27 196617 + 2;#P newex 30 322 27 196617 - 2;#P newex 30 348 106 196617 pack 0 0 0 0;#P message 172 308 77 196617 frgb 255 255 255 \, moveto \$1 \$2 \, lineto \$3 \$4 \, moveto \$5 \$6 \, lineto \$7 \$8;#P message 359 357 88 196617 frgb 255 255 255 \, brgb 0 0 0 \, clear \, bang;#P newex 172 413 109 196617 jit.lcd 4 char 320 240;#P newex 14 65 32 196617 r np1;#B color 12;#P newex 146 85 27 196617 t b l;#P newex 146 65 32 196617 r np2;#B color 12;#P newex 14 199 60 196617 t b b l clear;#P number 271 145 35 9 0 0 0 3 0 0 0 221 221 221 222 222 222 0 0 0;#P number 235 145 35 9 0 0 0 3 0 0 0 221 221 221 222 222 222 0 0 0;#P number 199 145 35 9 0 0 0 3 0 0 0 221 221 221 222 222 222 0 0 0;#P number 163 145 35 9 0 0 0 3 0 0 0 221 221 221 222 222 222 0 0 0;#P number 122 145 35 9 0 0 0 3 0 0 0 221 221 221 222 222 222 0 0 0;#P number 86 145 35 9 0 0 0 3 0 0 0 221 221 221 222 222 222 0 0 0;#P number 50 145 35 9 0 0 0 3 0 0 0 221 221 221 222 222 222 0 0 0;#P number 14 145 35 9 0 0 0 3 0 0 0 221 221 221 222 222 222 0 0 0;#P newex 14 176 105 196617 pack 0 0 0 0 0 0 0 0;#P newex 30 227 55 196617 cross0115;#P newex 580 375 26 1441802 t b;#P newex 580 403 79 1441802 jit.pack 4;#P newex 580 347 102 1441802 jit.unpack 4;#P newex 580 425 112 1441802 jit.alphablend;#B color 5;#P user jit.pwindow 484 329 82 62 0 1 0 0 1 0;#P user jit.pwindow 638 273 82 62 0 1 0 0 1 0;#P message 640 116 110 1441802 read excavate.jpg;#P message 631 97 133 1441802 read colorswatch.pict;#P message 645 159 32 1441802 stop;#P message 680 159 38 1441802 start;#P message 643 138 32 1441802 read;#P toggle 580 117 15 0;#P newex 580 139 53 1441802 metro 50;#P button 580 160 15 0;#P newex 580 185 103 196617 jit.qt.movie 320 240;#P newex 839 706 61 196617 s mouseinfo;#P newex 172 648 88 196617 jit.matrix heated;#P user jit.pwindow 579 457 322 242 0 1 0 0 1 0;#P comment 307 452 59 196617 heat on/off;#P newex 277 533 54 1441802 metro 20;#P toggle 277 441 28 0;#P number 321 510 35 9 0 0 0 3 0 0 0 156 179 255 222 222 222 0 0 0;#P newex 172 621 115 196617 jit.op @op max;#P newex 277 567 162 196617 jit.matrix heated 1 char 320 240;#P newex 387 505 27 196617 b;#P newex 172 580 53 196617 jit.matrix;#P newex 370 534 27 196617 gate;#P newex 93 542 71 196617 sel 0 1;#P message 93 565 28 196617 pass;#P newex 93 589 55 196617 prepend op;#P message 123 565 27 196617 max;#P message 84 627 31 196617 clear;#P newex 277 594 95 196617 jit.avg4 @x 3 @y 3;#P user jit.pwindow 309 618 82 62 0 1 0 0 1 0;#P comment 2 562 80 196617 key "c" to clear;#P connect 61 0 85 0;#P connect 48 0 60 0;#P connect 60 0 37 0;#P connect 47 0 37 0;#P connect 37 0 36 0;#P connect 36 0 45 0;#P connect 38 0 36 1;#P connect 45 2 35 0;#P connect 45 1 35 0;#P connect 35 0 63 0;#P connect 63 0 64 0;#P connect 64 0 53 0;#P connect 53 0 52 0;#P connect 52 0 57 0;#P connect 103 0 104 0;#P connect 104 0 88 0;#P connect 87 0 86 0;#P connect 39 0 36 2;#P connect 62 0 53 1;#P connect 60 1 38 0;#P connect 40 0 36 3;#P connect 63 1 65 0;#P connect 65 0 55 0;#P connect 55 0 52 1;#P connect 41 0 36 4;#P connect 35 1 105 0;#P connect 42 0 36 5;#P connect 62 0 55 1;#P connect 104 0 3 0;#P fasten 60 0 66 0 19 118 91 118;#P connect 66 0 39 0;#P connect 43 0 36 6;#P fasten 14 0 7 0 282 493 98 493;#P connect 7 0 6 0;#P fasten 4 0 5 0 128 583 98 583;#P connect 6 0 5 0;#P connect 64 0 56 0;#P connect 56 0 52 2;#P connect 44 0 36 7;#P connect 93 0 62 0;#P connect 62 0 56 1;#P fasten 60 1 67 0 55 115 127 115;#P connect 67 0 40 0;#P connect 7 1 4 0;#P connect 65 0 54 0;#P connect 54 0 52 3;#P connect 62 0 54 1;#P connect 46 0 47 0;#P connect 47 1 59 0;#P connect 59 0 41 0;#P connect 95 0 94 0;#P connect 94 0 51 0;#P fasten 96 0 49 0 258 395 177 395;#P fasten 45 0 49 0 19 406 177 406;#P fasten 50 0 49 0 364 408 177 408;#P fasten 45 3 49 0 67 219 331 219 331 401 177 401;#P fasten 57 0 49 0 35 401 177 401;#P connect 51 0 49 0;#P connect 49 0 84 0;#P connect 84 0 61 0;#P connect 61 0 9 0;#P fasten 15 0 9 0 282 556 177 556;#P fasten 5 0 12 0 98 615 177 615;#P connect 9 0 12 0;#P connect 12 0 18 0;#P connect 3 0 18 0;#P connect 86 0 18 0;#P connect 88 0 18 0;#P fasten 45 2 94 1 51 222 194 222;#P connect 59 1 42 0;#P fasten 59 0 68 0 168 123 239 123;#P connect 68 0 43 0;#P connect 98 0 97 0;#P connect 97 0 96 0;#P fasten 45 2 97 1 51 222 275 222;#P fasten 59 1 69 0 204 123 276 123;#P connect 69 0 44 0;#P connect 14 0 15 0;#P connect 15 0 11 0;#P fasten 8 0 11 0 375 561 282 561;#P connect 11 0 2 0;#P connect 2 0 12 1;#P connect 2 0 1 0;#P connect 13 0 15 1;#P connect 71 0 89 0;#P connect 72 0 89 0;#P connect 89 0 79 0;#P connect 78 0 79 0;#P connect 79 0 70 0;#P connect 70 0 73 0;#P connect 73 0 74 0;#P connect 74 0 75 0;#P connect 75 0 76 0;#P connect 76 0 77 0;#P connect 77 0 91 0;#P connect 58 0 50 0;#P fasten 14 0 8 0 282 495 375 495;#P connect 72 0 78 0;#P fasten 61 0 10 0 177 479 392 479;#P connect 10 0 8 1;#P connect 71 0 70 1;#P fasten 18 0 30 0 177 687 476 687 476 324 490 324;#P connect 92 0 83 0;#P connect 83 0 82 0;#P connect 82 0 81 0;#P connect 23 0 22 0;#P connect 22 0 21 0;#P connect 27 0 20 0;#P connect 28 0 20 0;#P connect 24 0 20 0;#P connect 25 0 20 0;#P connect 26 0 20 0;#P connect 21 0 20 0;#P connect 81 0 80 0;#P connect 20 0 80 0;#P connect 80 0 32 0;#P connect 32 0 34 0;#P connect 34 0 33 0;#P fasten 30 0 33 0 490 397 585 397;#P connect 33 0 31 0;#P connect 106 0 17 0;#P connect 32 1 33 1;#P connect 32 2 33 2;#P connect 101 0 27 0;#P connect 80 0 29 0;#P connect 32 3 33 3;#P fasten 32 0 31 1 585 372 687 372;#P fasten 31 0 90 0 585 448 770 448 770 426 782 426;#P connect 31 0 106 0;#P connect 109 0 106 1;#P connect 17 1 19 0;#P connect 107 0 108 0;#P connect 108 0 109 0;#P pop;