max v2;#N vpatcher 52 64 1152 689;#P origin 68 -29;#P button 1041 67 15 0;#N comlet b load sounds;#P inlet 1121 12 30 0;#P button 678 229 15 0;#P hidden newex 678 249 118 196617 t b b b b b b;#B color 5;#P flonum 627 446 31 9 0. 0 1 3 0 0 0 221 221 221 222 222 222 0 0 0;#P flonum 547 448 31 9 0. 0 1 3 0 0 0 221 221 221 222 222 222 0 0 0;#P newex 1012 59 28 196617 !- 1.;#P newex 1036 86 33 196617 * 1.;#P newex 989 86 33 196617 * 1.;#N comlet (signal) stereomix;#P outlet 604 507 15 0;#P newex 604 465 33 196617 *~ 1.;#P newex 524 468 33 196617 *~ 1.;#N comlet (signal) stereomix;#P outlet 524 509 15 0;#P comment 1092 31 22 196617 pan;#N comlet f pan 0-1;#P inlet 1059 14 30 0;#N comlet f volume;#P inlet 989 15 30 0;#P comment 848 21 110 196617 aif file 6 nuanced by inlet 3 (accelerometer);#P comment 651 23 116 196617 aif file 5 nuanced by inlet 2 (touch pressure);#N comlet f gesture nuance (accel);#P inlet 818 19 30 0;#P newex 801 91 27 196617 gate;#P newex 801 147 190 196617 expr $f1 * pow(($f1 - 0.5) * 4.0\\\, 2. );#P flonum 801 114 117 18 -2. 2. 3 3 0 0 0 221 221 221 222 222 222 0 0 0;#N comlet f touch nuance;#P inlet 620 19 30 0;#N comlet f proximity;#P inlet 41 22 30 0;#P newex 603 93 27 196617 gate;#P newex 604 148 190 196617 expr $f1 * pow(($f1 - 0.5) * 3.0\\\, 2. );#P flonum 604 114 117 18 -2. 2. 3 3 0 0 0 221 221 221 222 222 222 0 0 0;#P newex 42 132 140 196617 gradeOns 10 20 35 50 85 90;#N vpatcher 50 40 450 340;#P toggle 188 124 15 0;#P toggle 60 93 15 0;#P newex 83 148 33 196617 gate~;#P newex 191 149 33 196617 gate~;#P number 254 60 35 9 0 0 0 3 0 0 0 221 221 221 222 222 222 0 0 0;#P newex 215 113 39 196617 *~ 0.2;#P newex 215 89 59 196617 cycle~ 800;#P newex 94 119 39 196617 *~ 0.2;#P newex 94 95 59 196617 cycle~ 440;#P number 113 62 35 9 0 0 0 3 0 0 0 221 221 221 222 222 222 0 0 0;#P connect 8 0 7 0;#P connect 0 0 1 0;#P connect 1 0 2 0;#P connect 2 0 7 1;#P connect 9 0 6 0;#P fasten 4 0 6 1 215 146;#P connect 5 0 3 0;#P connect 3 0 4 0;#P pop;#P hidden newobj 847 514 34 196617 p test;#P toggle 792 331 15 0;#P flonum 812 331 35 9 0 0 0 3 0 0 0 221 221 221 222 222 222 0 0 0;#P message 821 290 14 196617 5;#P user ubumenu 821 310 100 196617 0 1 1 0;#X add water-flowing2.aif;#X add pouring_1.aif;#X add bells.aif;#X add bells.aif;#X add kids.aif;#X add kidsplay.aif;#X add rocks.aif;#X add rain.aif;#X prefix_set 0 0 <none> 0;#P newex 792 355 45 196617 playaif f;#P toggle 605 331 15 0;#P flonum 625 331 35 9 0 0 0 3 0 0 0 221 221 221 222 222 222 0 0 0;#P message 634 290 14 196617 5;#P user ubumenu 634 310 100 196617 0 1 1 0;#X add water-flowing2.aif;#X add pouring_1.aif;#X add bells.aif;#X add bells.aif;#X add kids.aif;#X add kidsplay.aif;#X add rocks.aif;#X add rain.aif;#X prefix_set 0 0 <none> 0;#P newex 605 355 45 196617 playaif e;#P toggle 418 331 15 0;#P flonum 440 331 35 9 0 0 0 3 0 0 0 221 221 221 222 222 222 0 0 0;#P message 447 290 14 196617 4;#P user ubumenu 447 310 100 196617 0 1 1 0;#X add water-flowing2.aif;#X add pouring_1.aif;#X add bells.aif;#X add bells.aif;#X add kids.aif;#X add kidsplay.aif;#X add rocks.aif;#X add rain.aif;#X prefix_set 0 0 <none> 0;#P newex 418 355 50 196617 playaif d;#P toggle 284 331 15 0;#P flonum 306 331 35 9 0 0 0 3 0 0 0 221 221 221 222 222 222 0 0 0;#P message 313 290 14 196617 4;#P user ubumenu 313 310 100 196617 0 1 1 0;#X add water-flowing2.aif;#X add pouring_1.aif;#X add bells.aif;#X add bells.aif;#X add kids.aif;#X add kidsplay.aif;#X add rocks.aif;#X add rain.aif;#X prefix_set 0 0 <none> 0;#P newex 284 355 45 196617 playaif c;#P toggle 145 331 15 0;#P flonum 167 331 35 9 0 0 0 3 0 0 0 221 221 221 222 222 222 0 0 0;#P message 174 290 14 196617 2;#P user ubumenu 174 310 100 196617 0 1 1 0;#X add water-flowing2.aif;#X add pouring_1.aif;#X add bells.aif;#X add bells.aif;#X add kids.aif;#X add kidsplay.aif;#X add rocks.aif;#X add rain.aif;#X prefix_set 0 0 <none> 0;#P newex 145 355 45 196617 playaif b;#P toggle 1 331 15 0;#P flonum 23 331 35 9 0 0 0 3 0 0 0 221 221 221 222 222 222 0 0 0;#P newex 224 130 173 196617 gradeOffs -10 -20 -30 -50 -85 -90;#P message 32 290 14 196617 0;#P user ubumenu 32 310 100 196617 0 1 1 0;#X add water-flowing2.aif;#X add pouring_1.aif;#X add bells.aif;#X add bells.aif;#X add kids.aif;#X add kidsplay.aif;#X add rocks.aif;#X add rain.aif;#X prefix_set 0 0 <none> 0;#P message 847 533 233 196617 read ‘sxwg4:Documents:sounds:MAX Objects:examples:gestic_music:sounds:kidsplay.aif’;#P flonum 41 85 117 18 0. 1. 3 3 0 0 0 221 221 221 222 222 222 0 0 0;#P newex 3 355 45 196617 playaif a;#P comment 84 25 150 196618 overlays aif files as inlet 1 (proximity) increases 0 to 1;#P comment 249 22 178 196617 sound design: Nina Walia code: Sha Xin Wei \, Nina Walia 27.4.2003;#P comment 1024 33 22 196617 vol;#P connect 37 0 10 0;#P lcolor 7;#P connect 8 0 10 0;#P lcolor 2;#P connect 10 0 3 0;#P connect 9 0 3 1;#P hidden connect 61 0 7 0;#P lcolor 6;#P connect 7 0 6 0;#P connect 6 1 3 2;#P connect 41 0 4 0;#P connect 4 0 37 0;#P connect 37 1 15 0;#P lcolor 7;#P connect 8 1 15 0;#P lcolor 2;#P connect 15 0 11 0;#P connect 14 0 11 1;#P hidden connect 61 1 13 0;#P lcolor 6;#P connect 13 0 12 0;#P connect 12 1 11 2;#P connect 4 0 8 0;#P connect 37 2 20 0;#P lcolor 7;#P connect 8 2 20 0;#P lcolor 2;#P connect 20 0 16 0;#P connect 19 0 16 1;#P hidden connect 61 2 18 0;#P lcolor 6;#P connect 18 0 17 0;#P connect 17 1 16 2;#P connect 37 3 25 0;#P lcolor 7;#P connect 8 3 25 0;#P lcolor 2;#P connect 25 0 21 0;#P connect 24 0 21 1;#P hidden connect 61 3 23 0;#P lcolor 6;#P connect 23 0 22 0;#P connect 22 1 21 2;#P fasten 3 0 53 0 8 431 529 431;#P lcolor 13;#P fasten 16 0 53 0 289 431 529 431;#P lcolor 13;#P fasten 26 0 53 0 610 431 529 431;#P lcolor 13;#P connect 53 0 52 0;#P fasten 56 0 59 0 994 438 552 438;#P connect 59 0 53 1;#P fasten 8 4 40 0 357 168 502 168 502 88 608 88;#P lcolor 2;#P fasten 37 4 40 0 151 170 501 170 501 86 608 86;#P lcolor 7;#P connect 40 0 38 0;#P connect 38 0 39 0;#P fasten 11 0 54 0 150 417 609 417;#P lcolor 15;#P fasten 21 0 54 0 423 416 609 416;#P lcolor 15;#P fasten 31 0 54 0 797 413 609 413;#P lcolor 15;#P connect 54 0 55 0;#P connect 37 4 30 0;#P lcolor 7;#P connect 8 4 30 0;#P lcolor 2;#P connect 30 0 26 0;#P connect 42 0 40 1;#P connect 29 0 26 1;#P connect 39 0 29 0;#P fasten 57 0 60 0 1041 440 632 440;#P connect 60 0 54 1;#P hidden connect 61 4 28 0;#P lcolor 6;#P connect 28 0 27 0;#P connect 27 1 26 2;#P fasten 63 0 62 0 1126 222 683 222;#P lcolor 6;#P connect 62 0 61 0;#P lcolor 6;#P connect 8 5 35 0;#P lcolor 2;#P connect 37 5 35 0;#P lcolor 7;#P connect 35 0 31 0;#P fasten 37 5 45 0 177 164 452 164 452 80 806 80;#P lcolor 8;#P fasten 8 5 45 0 389 160 454 160 454 81 806 81;#P lcolor 2;#P connect 45 0 43 0;#P connect 43 0 44 0;#P connect 34 0 31 1;#P connect 44 0 34 0;#P connect 46 0 45 1;#P hidden connect 61 5 33 0;#P lcolor 6;#P connect 33 0 32 0;#P connect 32 1 31 2;#P hidden connect 64 0 56 0;#P connect 49 0 56 0;#P fasten 50 0 58 0 1064 56 1017 56;#P fasten 58 0 56 1 1017 79 1017 79;#P fasten 49 0 57 0 994 80 1041 80;#P hidden connect 64 0 57 0;#P hidden fasten 50 0 64 0 1064 56 1046 56;#P connect 50 0 57 1;#P pop;