max v2;#N vpatcher 376 130 924 476;#P outlet 317 182 15 0;#P outlet 261 180 15 0;#P outlet 205 182 15 0;#P outlet 135 183 15 0;#P outlet 74 180 15 0;#P outlet 9 181 15 0;#P message 135 164 14 196617 0;#P message 316 161 14 196617 0;#P button 314 142 15 0;#P newex 313 110 43 196617 past $6;#P message 261 156 14 196617 0;#P button 259 137 14 0;#P newex 258 110 43 196617 past $5;#P message 203 158 14 196617 0;#P button 201 139 14 0;#P newex 197 110 43 196617 past $4;#P inlet 105 33 14 0;#P message 75 159 14 196617 0;#P message 9 157 14 196617 0;#P button 133 141 14 0;#P button 74 138 14 0;#P button 7 138 14 0;#P newex 132 108 43 196617 past $3;#P newex 71 110 43 196617 past $2;#P newex 106 59 43 196617 * -100.;#P newex 6 110 43 196617 past $1;#P connect 1 0 0 0;#P connect 0 0 4 0;#P connect 4 0 7 0;#P connect 7 0 20 0;#P connect 1 0 2 0;#P connect 2 0 5 0;#P connect 8 0 21 0;#P connect 5 0 8 0;#P connect 9 0 1 0;#P connect 1 0 3 0;#P connect 3 0 6 0;#P connect 6 0 19 0;#P connect 19 0 22 0;#P connect 1 0 10 0;#P connect 10 0 11 0;#P connect 11 0 12 0;#P connect 12 0 23 0;#P connect 1 0 13 0;#P connect 13 0 14 0;#P connect 14 0 15 0;#P connect 15 0 24 0;#P connect 1 0 16 0;#P connect 16 0 17 0;#P connect 17 0 18 0;#P connect 18 0 25 0;#P pop;