max v2;#N vpatcher 601 277 1189 571;#P outlet 409 231 15 0;#P outlet 336 230 15 0;#P outlet 270 230 15 0;#P outlet 117 233 15 0;#P outlet 191 233 15 0;#P outlet 52 235 15 0;#P inlet 133 57 15 0;#P message 409 207 14 196617 1;#P message 335 208 14 196617 1;#P message 270 205 14 196617 1;#P button 409 186 15 0;#P button 335 186 15 0;#P button 270 186 15 0;#P newex 410 160 43 196617 past $6;#P newex 335 160 43 196617 past $5;#P newex 270 160 43 196617 past $4;#P message 191 209 14 196617 1;#P message 117 210 14 196617 1;#P message 52 207 14 196617 1;#P button 191 188 15 0;#P button 117 188 15 0;#P button 52 188 15 0;#P newex 192 160 43 196617 past $3;#P newex 117 160 43 196617 past $2;#P newex 133 87 39 196617 * 100.;#P newex 52 160 43 196617 past $1;#P connect 1 0 0 0;#P connect 0 0 4 0;#P connect 4 0 7 0;#P connect 7 0 20 0;#P connect 1 0 2 0;#P connect 2 0 5 0;#P connect 5 0 8 0;#P connect 8 0 22 0;#P connect 19 0 1 0;#P connect 3 0 6 0;#P connect 6 0 9 0;#P connect 9 0 21 0;#P connect 1 0 3 0;#P connect 1 0 10 0;#P connect 10 0 13 0;#P connect 13 0 16 0;#P connect 16 0 23 0;#P connect 1 0 11 0;#P connect 11 0 14 0;#P connect 14 0 17 0;#P connect 17 0 24 0;#P connect 12 0 15 0;#P connect 15 0 18 0;#P connect 18 0 25 0;#P connect 1 0 12 0;#P pop;