max v2;#N vpatcher 53 78 605 363;#P origin 0 -2;#P window setfont "Sans Serif" 9.;#P comment 458 20 73 196617 time grain ms;#P comment 344 21 73 196617 total time msc;#P newex 459 73 48 196617 select 0;#P newex 459 33 45 196617 loadbang;#P newex 459 53 50 196617 int $3;#P newex 346 75 48 196617 select 0;#P newex 346 35 45 196617 loadbang;#P newex 346 55 50 196617 int $2;#P newex 180 76 48 196617 select 0;#P newex 180 36 45 196617 loadbang;#P newex 180 56 50 196617 int $1;#P window setfont Times 10.;#P comment 67 187 29 1310730 angle;#P comment 88 21 89 1310730 rotation time \, in ms;#N comlet (float) angle in degrees;#P outlet 52 187 15 0;#P window setfont "Fixedwidth Serif" 10.;#P message 127 208 43 1441802 set 0.;#P newex 110 187 27 1441802 b;#P newex 52 137 83 1441802 pack 360. 100;#P newex 52 166 68 1441802 line 0. 50;#P newex 33 77 44 1441802 sel 1;#N comlet (int) rotation time \, in ms;#P inlet 125 37 15 0;#N comlet (1/0) rotation on/off;#P inlet 33 59 15 0;#P window setfont Times 10.;#P comment 48 59 66 1310730 rotation on/off;#P window setfont "Sans Serif" 9.;#P comment 222 57 100 196617 if arg (not 0) then take as dest angle;#P comment 179 23 82 196617 destination value;#P connect 3 0 5 0;#P connect 5 0 7 0;#P fasten 8 0 7 0 115 208 48 208 48 133 57 133;#P fasten 15 1 7 0 223 107 57 107;#P fasten 5 1 6 0 72 133 138 133 138 158 57 158;#P fasten 9 0 6 0 132 227 174 227 174 162 57 162;#P connect 7 0 6 0;#P connect 6 0 10 0;#P fasten 21 1 6 2 502 163 115 163;#P connect 6 1 8 0;#P fasten 18 1 7 1 389 125 130 125;#P connect 4 0 7 1;#P connect 8 1 9 0;#P connect 14 0 13 0;#P connect 13 0 15 0;#P connect 17 0 16 0;#P connect 16 0 18 0;#P connect 20 0 19 0;#P connect 19 0 21 0;#P pop;