max v2;#N vpatcher 40 55 440 355;#P newex 28 141 50 9 t f f;#P newex 26 185 27 9 - 0.;#P newex 29 58 50 9 t f f;#P newex 27 102 27 9 - 0.;#P inlet 30 27 15 0;#P outlet 34 237 15 0;#P comment 87 62 84 196618 gives thesecond differences between successive inputs.;#P connect 6 1 5 0;#P connect 4 1 3 0;#P connect 3 0 6 0;#P connect 2 0 4 0;#P connect 5 0 1 0;#P connect 6 0 5 1;#P connect 4 0 3 1;#P pop;