max v2;#N vpatcher 40 248 494 565;#P comment 335 159 50 196617 threshold;#N comlet threshold;#P inlet 318 158 15 0;#N comlet switch;#P inlet 111 27 15 0;#P comment 141 230 131 196617 multiply absdiff by what gets through threshold.;#P toggle 111 51 15 0;#P newex 75 136 27 196617 t l l;#P number 111 90 35 9 0 0 0 3 0 0 0 221 221 221 222 222 222 0 0 0;#P newex 111 70 27 196617 + 1;#N comlet matrix input;#P inlet 75 89 15 0;#P outlet 40 266 15 0;#P flonum 318 180 35 9 0 0 0 3 0 0 0 221 221 221 222 222 222 0 0 0;#P newex 75 230 63 196617 jit.op @op *;#P newex 128 203 61 196617 jit.op @op >;#P newex 75 175 85 196617 jit.op @op absdiff;#P comment 163 172 131 196617 absolute differece between this frame and the last;#P comment 193 206 50 196617 threshold;#P newex 40 115 45 196617 gate 2 1;#P comment 31 29 76 196617 "on" routes bang through processing \, "off" bypasses.;#P connect 11 0 1 0;#P connect 1 0 8 0;#P connect 6 0 8 0;#P connect 9 0 1 1;#P connect 1 1 12 0;#P connect 12 1 4 0;#P connect 4 0 6 0;#P connect 15 0 13 0;#P connect 13 0 10 0;#P connect 10 0 11 0;#P fasten 4 0 5 0 80 197 133 197;#P connect 5 0 6 1;#P fasten 12 0 4 1 80 164 155 164;#P fasten 7 0 5 1 323 199 184 199;#P connect 16 0 7 0;#P pop;