max v2;#N vpatcher 330 215 837 611;#P newex 366 231 59 196617 speedlim 20;#P newex 304 231 59 196617 speedlim 20;#P newex 243 231 59 196617 speedlim 20;#P newex 182 231 59 196617 speedlim 20;#P newex 121 231 59 196617 speedlim 20;#P newex 60 232 59 196617 speedlim 20;#P number 426 231 35 9 5 0 1 3 0 0 0 221 221 221 222 222 222 0 0 0;#N comlet l 6 float channels from OSC;#P outlet 142 362 20 0;#P flonum 30 165 35 9 0 0 0 3 0 0 0 221 221 221 222 222 222 0 0 0;#P newex 160 118 72 196617 OSC-route $1;#P newex 160 141 155 196617 OSC-route /s1 /s2 /s3 /s4 /s5;#P newex 160 97 74 196617 OSC-route /to;#P newex 159 75 89 196617 OpenSoundControl;#P newex 159 55 83 196617 otudp read 5335;#P button 161 305 15 0;#P newex 369 211 27 196617 gate;#P newex 312 212 27 196617 gate;#P newex 249 212 27 196617 gate;#P newex 188 212 27 196617 gate;#P newex 129 212 27 196617 gate;#P toggle 91 157 15 0;#N comlet t data in;#P inlet 91 103 23 0;#P newex 69 212 27 196617 gate;#P newex 380 279 39 196617 * 100.;#P newex 266 279 39 196617 * 100.;#P newex 324 279 39 196617 * 100.;#P newex 142 333 100 196617 pack 0. 0. 0. 0. 0. 0.;#P newex 86 279 39 196617 * 100.;#P newex 146 279 39 196617 * 100.;#P newex 204 279 39 196617 * 100.;#N comlet i f scale;#P inlet 30 105 22 0;#P comment 26 92 32 196617 scale;#P comment 244 111 100 196617 change arg for mote: /m1 \, /m2 \, /m3 \, ...;#P comment 22 51 100 196617 mungexwphoto generates x y accel values and phtoocell;#P comment 426 192 49 196617 speedlim interval msec;#P comment 20 24 142 196626 getmote_OSC;#P comment 170 27 161 196617 sha xin wei \, vinny fiano 10.2003;#P connect 6 0 28 0;#P connect 14 0 31 0;#P fasten 16 0 14 0 96 177 74 177;#P connect 26 0 14 1;#P connect 31 0 9 0;#P fasten 15 0 16 0 96 153 96 153;#P hidden fasten 30 0 31 1 431 208 114 208;#P fasten 28 0 9 1 35 265 120 265;#P connect 17 0 32 0;#P fasten 16 0 17 0 96 177 134 177;#P connect 9 0 10 0;#P connect 22 0 10 0;#P connect 10 0 29 0;#P connect 26 1 17 1;#P connect 32 0 8 0;#P connect 23 0 24 0;#P connect 24 1 25 0;#P connect 25 0 27 0;#P connect 27 0 26 0;#P connect 8 0 10 1;#P connect 13 0 22 0;#P connect 11 0 22 0;#P connect 12 0 22 0;#P connect 7 0 22 0;#P connect 8 0 22 0;#P hidden fasten 30 0 32 1 431 208 175 208;#P fasten 28 0 8 1 35 265 180 265;#P connect 7 0 10 2;#P connect 18 0 33 0;#P fasten 16 0 18 0 96 177 193 177;#P connect 12 0 10 3;#P connect 33 0 7 0;#P connect 26 2 18 1;#P connect 11 0 10 4;#P hidden fasten 30 0 33 1 431 208 236 208;#P connect 13 0 10 5;#P fasten 28 0 7 1 35 265 238 265;#P connect 19 0 34 0;#P fasten 16 0 19 0 96 177 254 177;#P connect 26 3 19 1;#P connect 34 0 12 0;#P hidden fasten 30 0 34 1 431 208 297 208;#P fasten 28 0 12 1 35 265 300 265;#P connect 20 0 35 0;#P fasten 16 0 20 0 96 177 317 177;#P connect 35 0 11 0;#P connect 26 4 20 1;#P hidden fasten 30 0 35 1 431 208 358 208;#P fasten 28 0 11 1 35 265 358 265;#P connect 21 0 36 0;#P fasten 16 0 21 0 96 177 374 177;#P connect 36 0 13 0;#P connect 26 5 21 1;#P fasten 28 0 13 1 35 265 414 265;#P hidden fasten 30 0 36 1 431 208 420 208;#P pop;