max v2;#N vpatcher 566 65 975 352;#N comlet int max x-delta y-delta;#P outlet 121 195 15 0;#P newex 113 155 45 196617 pack 0 0;#P newex 24 156 45 196617 pack 0 0;#P newex 162 118 27 196617 - 0;#P newex 113 118 27 196617 - 0;#P newex 73 118 27 196617 + 0;#P newex 24 118 27 196617 + 0;#P newex 113 72 59 196617 unpack 0 0;#P newex 24 72 59 196617 unpack 0 0;#N comlet int delta > 0 => smaller rect;#P inlet 212 47 15 0;#N comlet int max x y;#P inlet 113 46 15 0;#N comlet int min x y;#P inlet 24 48 15 0;#N comlet int min x+delta y+delta;#P outlet 30 193 15 0;#P comment 80 25 140 196617 insetrect by amount delta;#P connect 2 0 5 0;#P connect 5 0 7 0;#P connect 7 0 11 0;#P connect 11 0 1 0;#P fasten 4 0 7 1 217 107 46 107;#P connect 8 0 11 1;#P connect 5 1 8 0;#P fasten 4 0 8 1 217 107 95 107;#P connect 3 0 6 0;#P connect 6 0 9 0;#P connect 9 0 12 0;#P connect 12 0 13 0;#P fasten 4 0 9 1 217 107 135 107;#P connect 10 0 12 1;#P connect 6 1 10 0;#P fasten 4 0 10 1 217 107 184 107;#P pop;