max v2;#N vpatcher 129 324 704 768;#P origin -94 0;#N comlet ( f f) averaged;#P outlet 286 332 27 0;#P user multiSlider 4 258 279 63 0. 200. 2 3433 47;#M frgb 0 0 0;#M brgb 255 255 255;#M rgb2 127 127 127;#P message 47 194 49 196617;#P hidden newex 47 175 32 196617 show;#P number 69 110 16 9 0 0 0 3 0 0 0 221 221 221 222 222 222 0 0 0;#P newex 1 152 45 196617 pack 0 0;#P newex 42 130 33 196617 mavg;#P newex 1 130 33 196617 mavg;#P newex 1 109 63 196617 unpack 0. 0.;#P message 106 155 49 196617;#P hidden newex 106 136 32 196617 show;#P number 238 116 16 9 0 0 0 3 0 0 0 221 221 221 222 222 222 0 0 0;#P newex 170 158 45 196617 pack 0 0;#P user multiSlider 285 259 279 63 0. 100. 2 3433 47;#M frgb 0 0 0;#M brgb 255 255 255;#M rgb2 127 127 127;#P newex 211 136 33 196617 mavg;#P newex 170 136 33 196617 mavg;#P newex 170 115 63 196617 unpack 0. 0.;#P newex 123 37 27 196617 t l l;#P newex 103 62 80 196617 vexpr $i2 - $i1;#P inlet 124 13 15 0;#P comment 249 28 148 196626 macromicro;#P comment 249 57 100 196618 sxw 12.2003 s;#N comlet ( f f) averaged;#P outlet 3 329 27 0;#P fasten 3 0 14 0 129 31 6 31;#P connect 14 0 15 0;#P fasten 15 0 17 0 6 150 6 150;#P connect 21 0 0 0;#P fasten 17 0 21 0 6 189 9 189;#P fasten 18 0 15 1 74 127 29 127;#P lcolor 2;#P fasten 16 0 17 1 47 150 41 150;#P connect 14 1 16 0;#P fasten 17 0 19 0 6 171 52 171;#P hidden connect 19 0 20 0;#P fasten 18 0 16 1 74 127 70 127;#P lcolor 2;#P connect 5 1 4 0;#P hidden fasten 4 0 12 0 108 84 111 84;#P hidden connect 12 0 13 0;#P connect 3 0 5 0;#P fasten 4 0 6 0 108 86 175 86;#P connect 6 0 7 0;#P fasten 7 0 10 0 175 156 175 156;#P connect 5 0 4 1;#P fasten 11 0 7 1 243 133 198 133;#P lcolor 2;#P fasten 8 0 10 1 216 156 210 156;#P connect 6 1 8 0;#P fasten 11 0 8 1 243 133 239 133;#P lcolor 2;#P fasten 10 0 9 0 175 217 290 217;#P connect 9 0 22 0;#P pop;