max v2;#N vpatcher 200 194 600 494;#P newex 74 147 38 196617 Lave 0;#P message 164 74 20 196617 \$1;#P newex 73 120 59 196617 circbuff 10;#P outlet 63 218 15 0;#P inlet 163 41 15 0;#P inlet 69 42 15 0;#P comment 47 21 178 196617 mavg -- needs Elsea's Lave external;#P comment 189 76 100 196617 window (default 10);#P comment 167 114 157 196617 discard the binary version of circbuff -- it will break mavg -- 11.02;#P connect 8 0 5 0;#P connect 3 0 6 0;#P connect 6 0 8 0;#P connect 7 0 6 2;#P connect 4 0 7 0;#P pop;