max v2;#N vpatcher 250 454 718 943;#P flonum 183 186 35 9 0 0 0 3 0 0 0 221 221 221 222 222 222 0 0 0;#P hidden newex 232 84 114 196617 expr (5. + $f1/ 100.0);#P hidden newex 232 39 45 196617 loadbang;#P hidden newex 232 61 63 196617 random 100;#P comment 166 230 83 1310730 Add a little vibrato;#P newex 97 227 63 1441802 *~;#P newex 97 204 50 1441802 *~ 0.02;#P newex 80 250 27 1441802 +~;#P newex 80 273 43 1441802 cycle~;#P newex 150 204 69 1441802 cycle~ 5.;#P hidden message 77 82 26 196617 437;#P hidden newex 77 59 45 196617 loadbang;#P newex 71 338 39 196617 *~ 0.2;#P number 77 131 60 9 0 0 0 3 0 0 0 221 221 221 222 222 222 0 0 0;#P message 77 159 35 196617 \$1 20;#P newex 78 172 30 196617 line~;#P comment 74 112 114 196617 3. Using frequency input;#N comlet signal;#P outlet 69 380 15 0;#N comlet i freq input;#P inlet 33 33 15 0;#P connect 6 0 1 0;#P connect 10 0 6 0;#P hidden connect 7 0 8 0;#P fasten 0 0 5 0 38 103 82 103;#P hidden connect 8 0 5 0;#P connect 5 0 4 0;#P connect 4 0 3 0;#P connect 3 0 11 0;#P connect 11 0 10 0;#P fasten 3 0 12 0 83 197 102 197;#P connect 12 0 13 0;#P connect 13 0 11 1;#P hidden connect 17 0 9 0;#P connect 18 0 9 0;#P connect 9 0 13 1;#P hidden connect 17 0 18 0;#P hidden connect 16 0 15 0;#P hidden connect 15 0 17 0;#P pop;