max v2;#N vpatcher 86 127 1000 628;#N comlet audio R;#P outlet 180 430 39 0;#P message 218 123 27 196617 rate;#N comlet f rate;#P inlet 208 31 28 0;#P message 523 132 193 196617 replace regina:nina:sounds:staccato.aif;#P hidden message 261 67 14 196617 1;#P hidden newex 401 40 45 196617 loadbang;#N comlet audio L;#P outlet 99 429 39 0;#N comlet t on;#P inlet 89 33 28 0;#P message 69 317 14 196617 0;#P flonum 208 142 35 9 0 0 0 3 0 0 0 221 221 221 222 222 222 0 0 0;#P message 221 250 73 196617 setloop 0. 500;#P message 138 245 58 196617 set abuffer;#P comment 282 314 71 196617 signal or float;#P toggle 261 168 15 0;#P message 261 193 41 196617 loop \$1;#P flonum 349 282 35 9 0 0 0 3 0 0 0 221 221 221 222 222 222 0 0 0;#P flonum 224 282 35 9 0 0 0 3 0 0 0 221 221 221 222 222 222 0 0 0;#P toggle 99 131 15 0;#P newex 99 204 27 196617 sig~;#P newex 99 329 91 196617 groove~ $1scrubs;#B color 5;#P comment 260 275 50 196617 set min loop point (ms);#P comment 284 169 75 196617 • loop on/off;#P comment 118 132 103 196617 • play normal speed forward/stop;#P comment 100 352 73 196617 audio playback;#P comment 156 314 71 196617 signal or float;#P comment 311 192 147 196617 groove~ takes an optional second argument specifying the number of output channels (default 1).;#P comment 109 289 35 196617 speed signal in;#P comment 138 229 151 196617 Change the buffer~ being played;#P comment 298 250 195 196617 set both min and max loop points together;#P message 566 292 233 196617 read ‘sxwg4:Documents:sounds:MAX Objects:examples:gestic_music:sounds:kidsplay.aif’;#P newex 566 214 60 196617 prepend set;#P message 566 235 232 196617 replace ‘sxwg4:Users:xinweisha:Documents:sounds:MAX Objects:examples:gestic_music:sounds:kidsplay.aif’;#P newex 566 169 79 196617 prepend replace;#P newex 566 150 64 196617 absolutepath;#P message 473 132 41 196617 replace;#P newex 524 189 173 196620 buffer~ $1scrubs 10000 2;#P comment 14 319 52 196617 beginning;#N comlet s filename.aif;#P inlet 565 32 28 0;#P connect 30 0 20 0;#P connect 20 0 19 0;#P fasten 28 0 19 0 214 186;#P connect 29 0 18 0;#P hidden connect 27 0 18 0;#P connect 19 0 18 0;#P hidden connect 23 0 18 0;#P hidden connect 26 0 18 0;#P connect 18 0 31 0;#P connect 21 0 18 1;#P connect 22 0 18 2;#P connect 18 1 37 0;#P fasten 35 0 28 0 213 70 213 70;#P hidden fasten 32 0 33 0 406 60 266 60;#P fasten 33 0 24 0 266 92 266 92;#P connect 24 0 23 0;#P hidden fasten 32 0 34 0 406 61 528 61;#P connect 5 0 2 0;#P hidden connect 34 0 2 0;#P connect 3 0 2 0;#P connect 0 0 4 0;#P connect 4 0 5 0;#P hidden connect 5 0 7 0;#P hidden connect 7 0 6 0;#P pop;