max v2;#N vpatcher 53 78 397 315;#P origin 0 -2;#P user multiSlider 52 117 24 52 -1. 1. 1 2681 15;#M frgb 0 0 0;#M brgb 255 255 255;#M rgb2 127 127 127;#P window setfont "Sans Serif" 9.;#P newex 52 97 158 196617 expr sin(3.141593 * $f1 / 500);#P newex 52 77 88 196617 circler $1 $2 $3;#P comment 210 54 73 196617 time grain ms;#P comment 197 39 73 196617 total time msc;#P window setfont Times 10.;#P comment 67 187 29 1310730 angle;#P comment 80 19 89 1310730 rotation time \, in ms;#N comlet (float) angle in degrees;#P outlet 52 187 15 0;#P window setfont "Fixedwidth Serif" 10.;#P newex 35 56 44 1441802 sel 1;#N comlet (int) rotation time \, in ms;#P inlet 126 37 15 0;#N comlet (1/0) rotation on/off;#P inlet 35 38 15 0;#P window setfont Times 10.;#P comment 50 38 66 1310730 rotation on/off;#P window setfont "Sans Serif" 9.;#P comment 179 23 82 196617 destination value;#P connect 2 0 4 0;#P fasten 4 0 10 0 40 74 57 74;#P connect 10 0 11 0;#P connect 11 0 12 0;#P connect 12 0 5 0;#P connect 3 0 10 1;#P pop;