max v2;#N vpatcher 46 493 576 860;#P newex 76 280 27 196617 t b f;#P newex 236 61 25 196617 lb 1;#P message 23 150 38 196617 set \$1;#P button 17 103 15 0;#P flonum 23 129 35 9 0 0 0 3 0 0 0 221 221 221 222 222 222 0 0 0;#P button 130 135 15 0;#P flonum 174 50 35 9 0 0 0 3 0 0 0 221 221 221 222 222 222 0 0 0;#P flonum 115 217 35 9 0 0 0 3 0 0 0 221 221 221 222 222 222 0 0 0;#P flonum 93 313 35 9 0 0 0 3 0 0 0 221 221 221 222 222 222 0 0 0;#P button 67 148 15 0;#P message 174 151 32 196617 set 1;#P message 38 103 38 196617 set \$1;#P newex 76 260 33 196617 / 1.;#P button 157 151 15 0;#P flonum 59 217 35 9 0 0 0 3 0 0 0 221 221 221 222 222 222 0 0 0;#P message 130 152 14 196617 1;#P newex 59 178 49 196617 accum 0.;#P newex 115 178 40 196617 accum;#N comlet data (float);#P outlet 93 334 15 0;#N comlet data (float);#P inlet 100 23 15 0;#P flonum 100 50 35 9 0 0 0 3 0 0 0 221 221 221 222 222 222 0 0 0;#P toggle 226 85 15 0;#N comlet stop/start;#P inlet 307 33 15 0;#N comlet slice interval (ms);#P inlet 268 33 15 0;#P newex 226 104 52 196617 metro $1;#P number 401 212 75 9 0 0 0 3 0 0 0 221 221 221 222 222 222 0 0 0;#P newex 479 211 27 196617 + 0;#P newex 449 184 45 196617 * 1000.;#P newex 449 164 33 196617 / 60.;#P message 419 125 31 196617 ticks;#P newex 419 144 40 196617 date;#P fasten 30 0 27 0 81 307 7 307 7 95 22 95;#P fasten 19 0 26 0 43 124 28 124;#P fasten 27 0 26 0 22 124 28 124;#P connect 26 0 28 0;#P fasten 10 0 19 0 105 93 43 93;#P fasten 21 0 14 0 72 169 64 169;#P fasten 28 0 14 0 28 169 64 169;#P connect 14 0 16 0;#P fasten 6 0 21 0 231 132 72 132;#P fasten 16 0 18 0 64 250 81 250;#P connect 18 0 30 0;#P fasten 10 0 14 1 105 93 83 93;#P fasten 30 1 22 0 98 303 98 303;#P connect 22 0 12 0;#P fasten 23 0 18 1 120 249 104 249;#P connect 11 0 10 0;#P fasten 20 0 13 0 179 171 120 171;#P fasten 17 0 13 0 162 171 120 171;#P connect 13 0 23 0;#P fasten 10 0 25 0 105 93 135 93;#P connect 25 0 15 0;#P connect 15 0 13 1;#P fasten 6 0 17 0 231 132 162 132;#P fasten 30 0 20 0 81 307 237 307 237 143 179 143;#P fasten 8 0 9 0 312 52 231 52;#P fasten 29 0 9 0 241 81 231 81;#P connect 9 0 6 0;#P fasten 7 0 6 1 273 56 273 56;#P fasten 3 0 5 0 454 206 406 206;#P connect 1 0 0 0;#P connect 0 2 2 0;#P connect 2 0 3 0;#P fasten 3 0 4 0 454 206 484 206;#P pop;