max v2;#N vpatcher 209 187 592 391;#N comlet (signal) stereomix;#P outlet 130 141 15 0;#P flonum 240 68 35 9 0 0 0 3 0 0 0 221 221 221 222 222 222 0 0 0;#N comlet f amplification;#P inlet 230 39 15 0;#P newex 130 99 33 196617 *~ 1.;#P newex 23 99 33 196617 *~ 1.;#N comlet (signal) stereomix;#P outlet 23 140 15 0;#N comlet (sig) channel 2;#P inlet 130 43 15 0;#N comlet (sig) channel 1;#P inlet 23 42 15 0;#P connect 0 0 3 0;#P connect 3 0 2 0;#P connect 5 0 3 1;#P connect 1 0 4 0;#P connect 4 0 7 0;#P connect 5 0 4 1;#P connect 5 0 6 0;#P pop;