max v2;#N vpatcher -853 -48 -454 224;#P comment 110 234 162 196617 xinwei@sponge.org - made float;#P comment 109 218 162 196617 nik@f0.am - 'port' to max;#P comment 109 143 257 196617 You may use \, modify and/or distribute under the terms of the GNU General Public License. Please see the LICENSE file for the specific terms of the license.;#P comment 109 185 135 196617 copyright 2001 FoAM vzw.;#P comment 109 204 162 196617 pix@test.at - pd version;#P inlet 19 22 15 0;#P outlet 36 213 15 0;#P inlet 72 105 15 0;#P comment 109 45 256 196618 it is possible to modify the factor by which the output approaches the input \, rather than just by 0.5. i don't allow you to specify the factor at creation time \, because that makes it impossible to have a default value other than 0;#P newex 51 79 50 9 f;#P newex 19 50 50 9 t f b;#P newex 19 107 27 9 - 0.;#P newex 19 139 50 9 * 0.5;#P newex 36 175 27 9 + 0.;#P comment 109 24 116 196617 the zeno accumulator.;#P connect 9 0 4 0;#P connect 4 0 3 0;#P connect 3 0 2 0;#P connect 5 0 3 1;#P connect 2 0 1 0;#P connect 1 0 8 0;#P connect 4 1 5 0;#P connect 5 0 1 1;#P connect 7 0 2 1;#P connect 1 0 5 1;#P pop;