max v2;#N vpatcher 242 63 1157 738;#P comment 365 46 213 196626 oscilator;#P comment 580 46 143 196617 Yoichiro Serita © 2003 Topological Media Lab;#P message 621 265 32 196617 3 1 0.4;#P flonum 490 424 35 9 0 0 0 3 0 0 0 221 221 221 222 222 222 0 0 0;#P flonum 450 402 35 9 0 0 0 3 0 0 0 221 221 221 222 222 222 0 0 0;#P comment 794 608 70 196617 synchronicity;#P comment 662 608 51 196617 phase difference;#P outlet 671 587 15 0;#P outlet 803 587 15 0;#P newex 803 423 27 196617 * 2.;#P flonum 803 444 35 9 0 0 0 3 0 0 0 221 221 221 222 222 222 0 0 0;#P newex 803 401 35 196617 abs 0.;#P newex 803 379 27 196617 - 0.;#P newex 803 356 27 196617 t f f;#P newex 671 403 27 196617 + 1;#P newex 671 425 35 196617 gate 2;#P newex 671 382 27 196617 < 0.;#P newex 696 450 63 196617 + 6.283175;#P flonum 671 509 35 9 0 0 0 3 0 0 0 221 221 221 222 222 222 0 0 0;#P newex 671 483 65 196617 % 6.283175;#P newex 671 353 27 196617 t f f;#P flonum 671 330 35 9 0 0 0 3 0 0 0 221 221 221 222 222 222 0 0 0;#P comment 355 608 51 196617 sync rate;#P comment 136 608 39 196617 phase;#P outlet 355 587 15 0;#P newex 102 65 29 196617 lb 0.;#P message 11 110 38 196617 set \$1;#P outlet 65 587 15 0;#P outlet 140 587 15 0;#P newex 282 107 41 196617 lb 0.03;#P inlet 268 65 15 0;#P inlet 206 65 15 0;#P inlet 165 65 15 0;#P inlet 65 65 13 0;#P button 35 85 15 0;#P inlet 35 65 15 0;#P newex 102 314 33 196617 * -1.;#P message 467 265 36 196617 1 1 0.8;#P message 490 386 20 196617 \$3;#P newex 490 404 27 196617 * 1.;#P message 450 343 35 196617 \$1 \$2;#P newex 172 218 80 196617 unpack 0. 0. 0.;#P newex 102 242 115 196617 expr $f1*$f4-$f2*$f3;#P flonum 140 534 52 9 0 0 0 3 0 0 0 221 221 221 222 222 222 0 0 0;#P newex 140 508 65 196617 % 6.283175;#P message 583 265 35 196617 1 3 0.4;#P message 699 265 35 196617 3 2 0.1;#P message 661 265 35 196617 2 3 0.1;#P message 379 550 46 196617 1 1 0.8;#P newex 379 525 32 196617 show;#P newex 355 492 35 196617 zl reg;#P message 397 459 43 196617 1 1 0.8;#P newex 534 337 63 196617 unpack 0. 0.;#P newex 355 197 53 196617 t b b l b;#P newex 355 175 53 196617 pack 0. 0.;#P newex 467 309 33 196617 t l l;#P newex 450 465 27 196617 gate;#P button 467 235 15 0;#P message 546 265 35 196617 1 2 0.6;#P message 508 265 35 196617 2 1 0.6;#P newex 450 442 50 196617 <= 0.;#P newex 450 365 139 196617 expr abs($f1*$f3-$f2*$f4);#P flonum 102 380 35 9 0 0 0 3 0 0 0 221 221 221 222 222 222 0 0 0;#P flonum 102 335 35 9 0 0 0 3 0 0 0 221 221 221 222 222 222 0 0 0;#P flonum 102 268 35 9 0 0 0 3 0 0 0 221 221 221 222 222 222 0 0 0;#P flonum 140 487 35 9 0 0 0 3 0 0 0 221 221 221 222 222 222 0 0 0;#P comment 171 465 56 196617 new phase;#P newex 140 463 27 196617 + 0.;#P flonum 65 435 43 9 0 0 0 3 0 0 0 221 221 221 222 222 222 0 0 0;#P comment 27 466 100 196617 phase shift (dp/dt);#P newex 65 411 47 196617 + 0.;#P newex 102 357 150 196617 expr $f1*$f2*$f3;#P comment 179 26 35 196617 force;#P newex 102 291 21 196617 sin;#P comment 251 43 89 196617 coupling strength;#P comment 199 43 32 196617 phase;#P comment 112 92 32 196617 phase;#P comment 160 43 32 196617 freq;#P flonum 268 135 35 9 0 0 0 3 0 0 0 221 221 221 222 222 222 0 0 0;#P flonum 206 135 35 9 0 0 0 3 0 0 0 221 221 221 222 222 222 0 0 0;#P flonum 165 135 35 9 0 0 0 3 0 0 0 221 221 221 222 222 222 0 0 0;#P flonum 102 135 35 9 0 0 0 3 0 0 0 221 221 221 222 222 222 0 0 0;#P flonum 65 135 35 9 0 0 0 3 0 0 0 221 221 221 222 222 222 0 0 0;#P comment 57 43 32 196617 freq;#P comment 51 26 100 196617 self-sustained osc;#P comment 462 196 66 196617 arnold tangue;#P comment 58 608 39 196617 omega;#P user panel 17 197 246 434;#X brgb 240 209 207;#X frgb 0 0 0;#X border 0;#X rounded 0;#X shadow 0;#X done;#P user panel 654 306 219 335;#X brgb 218 222 244;#X frgb 0 0 0;#X border 0;#X rounded 0;#X shadow 0;#X done;#P user panel 346 173 256 466;#X brgb 178 224 157;#X frgb 0 0 0;#X border 0;#X rounded 0;#X shadow 0;#X done;#P fasten 46 0 63 0 145 556 8 556 8 103 16 103;#P connect 54 0 55 0;#P connect 55 0 7 0;#P connect 56 0 7 0;#P connect 7 0 19 0;#P connect 19 0 21 0;#P connect 21 0 62 0;#P connect 55 0 8 0;#P connect 64 0 8 0;#P connect 63 0 8 0;#P connect 8 0 47 0;#P connect 47 0 25 0;#P connect 25 0 16 0;#P connect 16 0 53 0;#P connect 53 0 26 0;#P connect 26 0 18 0;#P connect 18 0 27 0;#P connect 27 0 19 1;#P fasten 10 0 47 1 211 205 142 205;#P fasten 21 0 22 0 70 457 145 457;#P connect 22 0 24 0;#P connect 24 0 45 0;#P connect 45 0 46 0;#P connect 46 0 61 0;#P fasten 8 0 22 1 107 218 162 218;#P connect 55 0 9 0;#P connect 57 0 9 0;#P connect 39 0 48 0;#P connect 48 0 47 2;#P fasten 11 0 18 1 273 344 177 344;#P connect 58 0 10 0;#P connect 55 0 10 0;#P connect 48 1 47 3;#P connect 48 2 18 2;#P connect 60 0 11 0;#P connect 59 0 11 0;#P fasten 7 0 35 0 70 164 360 164;#P connect 35 0 36 0;#P connect 36 0 39 0;#P fasten 38 0 39 0 402 486 360 486;#P fasten 33 0 39 0 455 486 360 486;#P connect 39 0 65 0;#P connect 39 0 40 0;#P connect 40 0 41 0;#P connect 36 3 38 0;#P fasten 9 0 35 1 170 158 403 158;#P connect 34 1 49 0;#P connect 49 0 28 0;#P connect 28 0 85 0;#P connect 85 0 29 0;#P connect 29 0 33 0;#P fasten 36 1 32 0 374 222 472 222;#P connect 32 0 52 0;#P connect 52 0 34 0;#P connect 44 0 34 0;#P connect 42 0 34 0;#P connect 43 0 34 0;#P connect 31 0 34 0;#P connect 30 0 34 0;#P connect 87 0 34 0;#P connect 34 0 33 1;#P connect 34 1 51 0;#P connect 51 0 50 0;#P connect 50 0 86 0;#P connect 86 0 29 1;#P connect 11 0 50 1;#P connect 32 0 30 0;#P fasten 36 2 37 0 388 218 539 218;#P connect 37 1 28 2;#P connect 32 0 31 0;#P connect 37 0 28 3;#P connect 32 0 44 0;#P connect 32 0 87 0;#P connect 32 0 42 0;#P fasten 72 0 68 0 701 475 723 475 723 321 676 321;#P connect 25 0 68 0;#P connect 68 0 69 0;#P connect 69 1 73 0;#P connect 73 0 75 0;#P connect 75 0 74 0;#P connect 74 0 70 0;#P connect 70 0 71 0;#P connect 71 0 82 0;#P connect 69 0 74 1;#P connect 74 1 72 0;#P connect 32 0 43 0;#P fasten 71 0 76 0 676 561 781 561 781 342 808 342;#P connect 76 1 77 0;#P connect 77 0 78 0;#P connect 78 0 80 0;#P connect 80 0 79 0;#P connect 79 0 81 0;#P connect 76 0 77 1;#P pop;