max v2;#N vpatcher 29 58 913 733;#P comment 383 23 64 196626 sync;#P comment 449 24 143 196617 Yoichiro Serita © 2003 Topological Media Lab;#P newex 726 199 152 196617 if $f1 > 0 && $f2 < 0 then bang;#P newex 730 154 27 196617 t f f;#P newex 728 176 53 196617 pack 0. 0.;#P flonum 679 218 35 9 0 0 0 3 0 0 0 221 221 221 222 222 222 0 0 0;#P newex 678 196 27 196617 - 0.;#P newex 676 175 27 196617 t f f;#P button 729 221 15 0;#P message 250 46 72 196617 0.1 0. 0.35 0.;#P flonum 343 601 35 9 0 0 0 3 0 0 0 221 221 221 222 222 222 0 0 0;#P newex 345 581 34 196617 * 0.01;#P number 342 557 35 9 0 0 0 3 0 0 0 221 221 221 222 222 222 0 0 0;#P newex 343 510 40 196617 * 100.;#P flonum 577 61 35 9 0 0 0 3 0 0 0 221 221 221 222 222 222 0 0 0;#P flonum 650 82 35 9 0 0 0 3 0 0 0 221 221 221 222 222 222 0 0 0;#P newex 614 143 35 196617 s freq;#P flonum 616 122 35 9 0 0 0 3 0 0 0 221 221 221 222 222 222 0 0 0;#P newex 617 101 39 196617 + 200.;#P flonum 562 117 35 9 0 0 0 3 0 0 0 221 221 221 222 222 222 0 0 0;#P newex 562 93 35 196617 * 20.;#P newex 284 603 35 196617 s amp;#P newex 342 532 27 196617 *;#P flonum 284 571 35 9 0 0 0 3 0 0 0 221 221 221 222 222 222 0 0 0;#P newex 284 545 29 196617 !- 1.;#P message 279 112 17 196617 0.;#P flonum 287 506 35 9 0 0 0 3 0 0 0 221 221 221 222 222 222 0 0 0;#P newex 287 483 35 196617 abs 0.;#P newex 287 461 27 196617 - 0.;#P newex 287 438 27 196617 t f f;#P user multiSlider 436 467 256 68 0. 1. 1 3193 15;#M frgb 227 155 120;#M brgb 255 255 255;#M rgb2 127 127 127;#P flonum 276 396 35 9 0 0 0 3 0 0 0 221 221 221 222 222 222 0 0 0;#P newex 422 261 54 196617 s modrate;#P newex 563 252 152 196617 if $f1 > 0 && $f2 < 0 then bang;#P newex 567 207 27 196617 t f f;#P newex 565 229 53 196617 pack 0. 0.;#P flonum 516 271 35 9 0 0 0 3 0 0 0 221 221 221 222 222 222 0 0 0;#P newex 515 249 27 196617 - 0.;#P newex 513 228 27 196617 t f f;#P newex 526 53 31 196617 print;#P button 566 274 15 0;#P flonum 351 226 64 9 0 0 0 3 0 0 0 221 221 221 222 222 222 0 0 0;#P newex 309 202 189 196617 expr $f1 / ($f2*3.141592653) * 500.;#P number 422 182 35 9 0 0 0 3 0 0 0 221 221 221 222 222 222 0 0 0;#P newex 422 159 34 196617 timer;#P message 294 93 17 196617 0.1;#P flonum 341 482 35 9 0 0 0 3 0 0 0 221 221 221 222 222 222 0 0 0;#P newex 366 456 33 196617 + 60.;#P newex 341 367 27 196617 t f f;#P newex 341 412 27 196617 + 1;#P newex 341 434 35 196617 gate 2;#P newex 341 390 27 196617 < 0.;#P flonum 355 344 35 9 0 0 0 3 0 0 0 221 221 221 222 222 222 0 0 0;#P newex 355 321 35 196617 % 60.;#P newex 307 230 21 196617 sin;#P user multiSlider 435 298 258 24 -1.2 1.2 1 3193 15;#M frgb 37 79 177;#M brgb 255 255 255;#M rgb2 127 127 127;#P newex 265 233 21 196617 sin;#P user multiSlider 435 325 258 24 -1.2 1.2 1 3193 15;#M frgb 37 79 177;#M brgb 255 255 255;#M rgb2 127 127 127;#P toggle 459 59 15 0;#P newex 459 86 51 196617 metro 20;#P message 250 90 17 196617 0.;#P newex 227 444 38 196617 < 0.01;#P newex 277 373 35 196617 abs 0.;#P newex 277 351 27 196617 - 0.;#P message 236 28 60 196617 0.1 0. 0.21 0.;#P user multiSlider 435 352 257 102 0. 60. 1 3193 15;#M frgb 227 155 120;#M brgb 255 255 255;#M rgb2 127 127 127;#P flonum 99 317 35 9 0 0 0 3 0 0 0 221 221 221 222 222 222 0 0 0;#P flonum 99 275 35 9 0 0 0 3 0 0 0 221 221 221 222 222 222 0 0 0;#P flonum 98 233 35 9 0 0 0 3 0 0 0 221 221 221 222 222 222 0 0 0;#P button 11 32 49 0;#P message 186 79 38 196617 set \$1;#P message 150 79 38 196617 set \$1;#P message 115 78 38 196617 set \$1;#P message 79 78 38 196617 set \$1;#P newex 79 29 25 196617 r fp;#P newex 22 485 25 196617 s fp;#P newex 79 54 120 196617 unpack 0. 0. 0. 0.;#P newex 22 433 75 196617 pack 0. 0. 0. 0.;#P user led 222 483 17 17 1 150;#P flonum 229 398 35 9 0 0 0 3 0 0 0 221 221 221 222 222 222 0 0 0;#P newex 229 374 27 196617 + 0.;#P flonum 134 397 35 9 0 0 0 3 0 0 0 221 221 221 222 222 222 0 0 0;#P comment 165 375 56 196617 new phase;#P newex 134 373 27 196617 + 0.;#P flonum 57 349 35 9 0 0 0 3 0 0 0 221 221 221 222 222 222 0 0 0;#P comment 98 348 100 196617 phase shift (dp/dt);#P newex 57 325 27 196617 + 0.;#P newex 100 296 27 196617 * 0.;#P comment 180 133 35 196617 force;#P newex 97 209 27 196617 - 0.;#P newex 99 254 21 196617 sin;#P comment 322 94 89 196617 coupling strength;#P comment 200 151 32 196617 phase;#P comment 99 151 32 196617 phase;#P comment 161 149 32 196617 freq;#P flonum 325 120 35 9 0 0 0 3 0 0 0 221 221 221 222 222 222 0 0 0;#P flonum 199 172 35 9 0 0 0 3 0 0 0 221 221 221 222 222 222 0 0 0;#P flonum 161 173 35 9 0 0 0 3 0 0 0 221 221 221 222 222 222 0 0 0;#P flonum 95 172 35 9 0 0 0 3 0 0 0 221 221 221 222 222 222 0 0 0;#P flonum 58 172 35 9 0 0 0 3 0 0 0 221 221 221 222 222 222 0 0 0;#P comment 56 149 32 196617 freq;#P comment 45 130 100 196617 self-sustained osc;#P connect 42 0 32 0;#P connect 2 0 24 0;#P connect 24 0 26 0;#P connect 20 0 24 1;#P connect 2 0 15 0;#P connect 15 0 17 0;#P connect 32 0 2 0;#P connect 28 0 2 0;#P connect 4 0 24 2;#P connect 35 0 15 1;#P connect 27 0 25 0;#P connect 37 0 25 0;#P connect 92 0 25 0;#P connect 25 0 28 0;#P connect 22 0 24 3;#P connect 41 0 3 0;#P connect 32 0 3 0;#P connect 29 0 3 0;#P connect 3 0 12 0;#P connect 12 0 33 0;#P connect 33 0 11 0;#P connect 11 0 34 0;#P connect 14 0 35 0;#P connect 34 0 14 0;#P connect 5 0 12 1;#P connect 25 1 29 0;#P connect 6 0 14 1;#P connect 17 0 18 0;#P connect 18 0 20 0;#P connect 25 2 30 0;#P connect 3 0 18 1;#P connect 32 0 4 0;#P connect 30 0 4 0;#P connect 25 3 31 0;#P connect 31 0 5 0;#P connect 41 0 5 0;#P connect 32 0 5 0;#P connect 40 0 23 0;#P connect 70 0 40 0;#P connect 4 0 21 0;#P connect 21 0 22 0;#P connect 5 0 21 1;#P connect 5 0 45 0;#P connect 39 0 70 0;#P connect 17 0 38 0;#P connect 38 0 39 0;#P connect 91 0 77 0;#P connect 77 0 78 0;#P connect 78 0 80 0;#P connect 33 0 72 0;#P connect 72 1 73 0;#P connect 73 0 74 0;#P connect 74 0 75 0;#P connect 4 0 38 1;#P connect 72 0 73 1;#P connect 3 0 47 0;#P connect 17 0 59 0;#P connect 56 0 6 0;#P connect 76 0 6 0;#P connect 49 0 53 0;#P connect 53 1 50 0;#P connect 50 0 52 0;#P connect 52 0 51 0;#P connect 54 0 55 0;#P connect 51 0 55 0;#P connect 88 0 79 0;#P connect 79 0 89 0;#P connect 75 0 88 0;#P connect 90 0 91 0;#P connect 89 0 90 0;#P connect 59 0 60 0;#P connect 33 0 48 0;#P connect 48 0 49 0;#P connect 88 0 79 1;#P connect 53 0 51 1;#P connect 51 1 54 0;#P connect 42 0 57 0;#P connect 57 0 58 0;#P connect 60 0 69 0;#P connect 47 0 46 0;#P connect 45 0 44 0;#P connect 55 0 36 0;#P connect 75 0 71 0;#P connect 42 0 57 1;#P connect 43 0 42 0;#P connect 58 0 59 1;#P connect 47 0 63 0;#P connect 63 1 64 0;#P connect 64 0 65 0;#P connect 63 0 64 1;#P connect 45 0 81 0;#P connect 81 0 82 0;#P connect 66 0 68 0;#P connect 67 1 66 0;#P connect 68 0 61 0;#P connect 65 0 67 0;#P connect 87 0 81 1;#P connect 67 0 66 1;#P connect 84 0 85 0;#P connect 83 0 84 0;#P connect 82 0 83 0;#P connect 86 0 83 1;#P connect 45 0 94 0;#P connect 94 1 95 0;#P connect 95 0 96 0;#P connect 94 0 95 1;#P connect 97 0 99 0;#P connect 98 1 97 0;#P connect 99 0 93 0;#P connect 96 0 98 0;#P connect 98 0 97 1;#P pop;