max v2;#N vpatcher 28 59 1008 734;#P comment 243 58 64 196626 sync3;#P comment 309 59 143 196617 Yoichiro Serita © 2003 Topological Media Lab;#P message 267 262 30 196617 0.12;#P message 65 284 25 196617 0.1;#P flonum 212 253 35 12 0 0 0 2040 255 255 255 153 102 153 222 222 222 0 0 0;#P flonum 587 357 35 12 0 0 0 2040 255 255 255 74 156 97 222 222 222 0 0 0;#P flonum 572 424 35 12 0 0 0 2040 255 255 255 74 156 97 222 222 222 0 0 0;#P flonum 308 282 35 12 0 0 0 2040 255 255 255 153 153 255 222 222 222 0 0 0;#P flonum 89 305 35 12 0 0 0 2040 255 255 255 204 140 140 222 222 222 0 0 0;#P flonum 48 369 35 12 0 0 0 2040 255 255 255 204 140 140 222 222 222 0 0 0;#N vpatcher 25 115 543 527;#P origin 86 0;#P message 312 354 165 196617 frameoval 6 6 94 94 255 255 255;#P newex 365 110 27 196617 + 1;#P newex 365 290 35 196617 gate 2;#P inlet 365 33 15 0;#P message 298 336 154 196617 frameoval 6 6 94 94 255 255 0;#P message 245 241 185 196617 linesegment 50 0 50 100 255 255 255;#P message 239 220 185 196617 linesegment 0 50 100 50 255 255 255;#N vpatcher 14 127 255 416;#P outlet 59 227 15 0;#P inlet 64 31 15 0;#P newex 91 167 27 196617 - 3;#P newex 61 166 27 196617 - 3;#P newex 146 167 27 196617 + 3;#P newex 118 167 27 196617 + 3;#P newex 106 134 33 196617 + 50.;#P newex 63 134 33 196617 + 50.;#P newex 63 110 34 196617 * 40.;#P newex 104 110 39 196617 * -40.;#P newex 60 198 65 196617 pack 0 0 0 0;#P newex 63 84 23 196617 cos;#P newex 87 84 21 196617 sin;#P flonum 63 60 35 9 0 0 0 3 0 0 0 221 221 221 222 222 222 0 0 0;#P connect 3 0 13 0;#P connect 10 0 3 0;#P connect 6 0 10 0;#P connect 12 0 0 0;#P connect 0 0 2 0;#P connect 2 0 5 0;#P connect 5 0 6 0;#P connect 11 0 3 1;#P connect 0 0 1 0;#P connect 7 0 11 0;#P connect 8 0 3 2;#P connect 1 0 4 0;#P connect 4 0 7 0;#P connect 9 0 3 3;#P connect 6 0 8 0;#P connect 7 0 9 0;#P pop;#P newobj 262 141 59 196617 p makeoval;#P message 214 166 173 196617 paintoval \$1 \$2 \$3 \$4 255 140 140;#P newex 209 114 63 196617 unpack 0. 0.;#P newex 196 61 53 196617 pack 0. 0.;#N vpatcher 14 127 255 416;#P outlet 59 227 15 0;#P inlet 64 31 15 0;#P newex 91 167 27 196617 - 3;#P newex 61 166 27 196617 - 3;#P newex 146 167 27 196617 + 3;#P newex 118 167 27 196617 + 3;#P newex 106 134 33 196617 + 50.;#P newex 63 134 33 196617 + 50.;#P newex 63 110 34 196617 * 40.;#P newex 104 110 39 196617 * -40.;#P newex 60 198 65 196617 pack 0 0 0 0;#P newex 63 84 23 196617 cos;#P newex 87 84 21 196617 sin;#P flonum 63 60 35 9 0 0 0 3 0 0 0 221 221 221 222 222 222 0 0 0;#P connect 3 0 13 0;#P connect 10 0 3 0;#P connect 6 0 10 0;#P connect 12 0 0 0;#P connect 0 0 2 0;#P connect 2 0 5 0;#P connect 5 0 6 0;#P connect 11 0 3 1;#P connect 0 0 1 0;#P connect 7 0 11 0;#P connect 8 0 3 2;#P connect 1 0 4 0;#P connect 4 0 7 0;#P connect 9 0 3 3;#P connect 6 0 8 0;#P connect 7 0 9 0;#P pop;#P newobj 199 139 59 196617 p makeoval;#P newex 196 86 61 196617 t b l b clear;#P message 166 186 173 196617 paintoval \$1 \$2 \$3 \$4 153 153 255;#P message 44 218 105 196617 brgb 0 0 0 \, clear \, bang;#P newex 42 191 45 196617 loadbang;#P newex 156 299 110 196617 jit.lcd 4 char 100 100;#P outlet 156 341 15 0;#P inlet 240 31 15 0;#P inlet 192 31 15 0;#P connect 4 0 5 0;#P connect 19 0 3 0;#P connect 15 0 3 0;#P connect 14 0 3 0;#P connect 7 3 3 0;#P connect 7 0 3 0;#P connect 13 0 3 0;#P connect 5 0 3 0;#P connect 6 0 3 0;#P connect 11 0 3 0;#P connect 3 0 2 0;#P connect 8 0 6 0;#P connect 0 0 9 0;#P connect 9 0 7 0;#P connect 10 0 8 0;#P connect 7 1 10 0;#P connect 12 0 11 0;#P connect 1 0 9 1;#P connect 7 2 13 0;#P connect 7 2 14 0;#P connect 10 1 12 0;#P connect 17 1 15 0;#P connect 17 0 19 0;#P connect 16 0 18 0;#P connect 18 0 17 0;#P connect 7 2 17 1;#P pop;#P newobj 396 512 68 196617 p phasecircle;#P newex 396 463 72 196617 r phase_force;#P newex 414 486 63 196617 r phase_osc;#P user jit.pwindow 396 537 102 102 0 1 0 0 1 0;#P newex 581 140 27 196617 t f b;#P newex 212 221 41 196617 lb 0.03;#P newex 212 365 75 196617 s phase_diff_d;#P newex 171 389 64 196617 s phase_diff;#P newex 267 243 41 196617 lb 0.12;#P newex 89 241 35 196617 lb 0.1;#P newex 572 391 75 196617 r phase_diff_d;#P newex 359 216 72 196617 r phase_force;#P newex 48 335 174 196617 oscilator;#B color 5;#P button 891 251 15 0;#N vpatcher 10 59 273 345;#P outlet 53 237 15 0;#P flonum 53 50 35 9 0 0 0 3 0 0 0 221 221 221 222 222 222 0 0 0;#P inlet 53 29 15 0;#P newex 53 188 152 196617 if $f1 > 0 && $f2 < 0 then bang;#P newex 53 143 27 196617 t f f;#P newex 53 165 53 196617 pack 0. 0.;#P flonum 147 121 35 9 0 0 0 3 0 0 0 221 221 221 222 222 222 0 0 0;#P newex 147 99 27 196617 - 0.;#P newex 147 72 27 196617 t f f;#P button 53 210 15 0;#P connect 7 0 8 0;#P connect 3 0 5 0;#P connect 8 0 5 0;#P connect 5 1 4 0;#P connect 4 0 6 0;#P connect 6 0 0 0;#P connect 0 0 9 0;#P connect 5 0 4 1;#P connect 1 1 2 0;#P connect 2 0 3 0;#P connect 1 0 2 1;#P pop;#P newobj 823 251 65 196617 p detectpeak;#P number 93 55 35 9 0 0 0 3 0 0 0 221 221 221 222 222 222 0 0 0;#P newex 854 281 26 196617 s bc;#P newex 795 280 29 196617 s bb;#P flonum 89 370 52 9 0 0 0 3 0 0 0 221 221 221 222 222 222 0 0 0;#P flonum 308 384 52 9 0 0 0 3 0 0 0 221 221 221 222 222 222 0 0 0;#P newex 308 360 65 196617 % 6.283175;#P message 129 440 68 133693458 1 1 0.8;#B color 7;#P newex 129 416 32 196617 show;#P comment 670 288 100 196617 self-sustained osc;#P comment 670 363 38 196617 force;#P comment 670 546 228 196617 derivative of phase difference (synchronicity?);#P comment 670 455 80 196617 phase difference;#P comment 580 241 70 196617 sound param2;#P comment 650 199 103 196617 modulated freq (real);#P button 763 251 15 0;#N vpatcher 10 59 273 345;#P outlet 53 237 15 0;#P flonum 53 50 35 9 0 0 0 3 0 0 0 221 221 221 222 222 222 0 0 0;#P inlet 53 29 15 0;#P newex 53 188 152 196617 if $f1 > 0 && $f2 < 0 then bang;#P newex 53 143 27 196617 t f f;#P newex 53 165 53 196617 pack 0. 0.;#P flonum 147 121 35 9 0 0 0 3 0 0 0 221 221 221 222 222 222 0 0 0;#P newex 147 99 27 196617 - 0.;#P newex 147 72 27 196617 t f f;#P button 53 210 15 0;#P connect 7 0 8 0;#P connect 8 0 5 0;#P connect 3 0 5 0;#P connect 5 1 4 0;#P connect 4 0 6 0;#P connect 6 0 0 0;#P connect 0 0 9 0;#P connect 5 0 4 1;#P connect 1 1 2 0;#P connect 2 0 3 0;#P connect 1 0 2 1;#P pop;#P newobj 695 251 65 196617 p detectpeak;#P newex 797 227 72 196617 r phase_force;#P newex 670 227 63 196617 r phase_osc;#P newex 308 406 72 196617 s phase_force;#P newex 89 393 63 196617 s phase_osc;#P newex 581 117 35 196617 r dpdt;#P newex 48 397 35 196617 s dpdt;#P newex 587 335 64 196617 r phase_diff;#P message 180 200 29 196617 0.03;#P flonum 572 552 35 9 0 0 0 3 0 0 0 221 221 221 222 222 222 0 0 0;#P newex 572 529 39 196617 * 0.01;#P number 572 505 35 9 0 0 0 3 0 0 0 221 221 221 222 222 222 0 0 0;#P newex 572 458 40 196617 * 100.;#P flonum 898 37 35 9 0 0 0 3 0 0 0 221 221 221 222 222 222 0 0 0;#P flonum 914 87 35 9 0 0 0 3 0 0 0 221 221 221 222 222 222 0 0 0;#P newex 872 156 35 196617 s freq;#P flonum 872 134 35 9 0 0 0 3 0 0 0 221 221 221 222 222 222 0 0 0;#P newex 873 113 39 196617 + 200.;#P flonum 873 85 35 9 0 0 0 3 0 0 0 221 221 221 222 222 222 0 0 0;#P newex 873 61 35 196617 * 20.;#P newex 572 618 35 196617 s amp;#P newex 572 480 27 196617 *;#P flonum 572 594 35 9 0 0 0 3 0 0 0 221 221 221 222 222 222 0 0 0;#P newex 572 571 29 196617 !- 1.;#P message 180 237 17 196617 0.;#P user multiSlider 670 474 256 68 0. 1. 1 3193 15;#M frgb 227 155 120;#M brgb 255 255 255;#M rgb2 127 127 127;#P newex 581 218 54 196617 s modrate;#P flonum 581 197 64 9 0 0 0 3 0 0 0 221 221 221 222 222 222 0 0 0;#P newex 581 173 189 196617 expr $f1 / ($f2*3.141592653) * 500.;#P number 760 149 35 9 0 0 0 3 0 0 0 221 221 221 222 222 222 0 0 0;#P newex 760 125 34 196617 timer;#P message 180 218 25 196617 0.1;#P newex 670 251 21 196617 sin;#P user multiSlider 670 306 258 24 -1.2 1.2 1 3193 15;#M frgb 204 140 40;#M brgb 255 255 255;#M rgb2 127 127 127;#P newex 797 251 21 196617 sin;#P user multiSlider 670 333 258 24 -1.2 1.2 1 3193 15;#M frgb 153 153 255;#M brgb 255 255 255;#M rgb2 127 127 127;#P toggle 48 38 35 0;#P newex 48 81 55 196617 qmetro 20;#P message 404 260 17 196617 0.;#P newex 530 456 38 196617 < 0.01;#P user multiSlider 670 381 259 67 0. 6.28318 1 3193 15;#M frgb 227 155 120;#M brgb 255 255 255;#M rgb2 127 127 127;#P button 48 111 49 0;#P user led 530 483 17 17 1 150;#P flonum 308 338 35 9 0 0 0 3 0 0 0 221 221 221 222 222 222 0 0 0;#P newex 308 314 61 196617 + 0.;#P comment 326 244 35 196617 force;#P comment 177 181 89 196617 coupling strength;#P comment 368 261 32 196617 phase;#P comment 318 263 32 196617 freq;#P flonum 359 282 35 9 0 0 0 3 0 0 0 221 221 221 222 222 222 0 0 0;#P comment 98 285 63 196617 natural freq;#P comment 97 269 100 196617 self-sustained osc;#P comment 864 178 70 196617 sound param1;#P connect 16 0 15 0;#P connect 15 0 11 0;#P connect 11 0 70 0;#P connect 70 0 83 0;#P connect 83 0 46 0;#P connect 89 0 84 0;#P connect 73 0 84 0;#P connect 84 0 70 1;#P connect 70 1 64 0;#P connect 64 0 48 0;#P connect 67 0 15 1;#P connect 70 2 60 0;#P connect 60 0 61 0;#P connect 85 0 70 2;#P connect 3 0 70 3;#P connect 70 3 75 0;#P connect 28 0 88 0;#P connect 21 0 88 0;#P connect 44 0 88 0;#P connect 77 0 88 0;#P connect 88 0 70 4;#P connect 70 4 76 0;#P connect 90 0 85 0;#P fasten 11 0 85 0 53 166 313 166;#P connect 74 0 85 0;#P connect 85 0 8 0;#P connect 8 0 9 0;#P connect 9 0 62 0;#P connect 62 0 63 0;#P connect 63 0 49 0;#P connect 14 0 3 0;#P connect 71 0 3 0;#P connect 3 0 8 1;#P connect 81 0 82 0;#P connect 82 0 79 0;#P connect 80 0 82 1;#P connect 10 0 82 2;#P connect 86 0 13 0;#P connect 13 0 10 0;#P connect 72 0 86 0;#P connect 86 0 40 0;#P connect 40 0 31 0;#P connect 31 0 41 0;#P connect 41 0 42 0;#P connect 42 0 43 0;#P connect 43 0 29 0;#P connect 29 0 30 0;#P connect 30 0 32 0;#P connect 47 0 78 0;#P connect 78 0 24 0;#P connect 24 0 25 0;#P connect 25 0 26 0;#P connect 45 0 87 0;#P connect 40 0 31 1;#P connect 50 0 20 0;#P connect 20 0 19 0;#P connect 18 0 17 0;#P connect 87 0 12 0;#P connect 86 0 27 0;#P connect 20 0 52 0;#P connect 78 1 22 0;#P connect 22 0 23 0;#P connect 23 0 24 1;#P connect 52 0 53 0;#P connect 78 1 22 1;#P connect 53 0 65 0;#P connect 51 0 18 0;#P connect 18 0 68 0;#P connect 69 0 66 0;#P connect 35 0 36 0;#P connect 36 0 37 0;#P connect 18 0 33 0;#P connect 33 0 34 0;#P connect 34 0 35 0;#P connect 68 0 69 0;#P connect 39 0 33 1;#P connect 38 0 35 1;#P pop;