max v2;#N vpatcher 99 135 1079 810;#P comment 390 31 64 196626 sync2;#P comment 456 31 143 196617 Yoichiro Serita © 2003 Topological Media Lab;#P button 891 251 15 0;#N vpatcher 10 59 273 345;#P outlet 53 237 15 0;#P flonum 53 50 35 9 0 0 0 3 0 0 0 221 221 221 222 222 222 0 0 0;#P inlet 53 29 15 0;#P newex 53 188 152 196617 if $f1 > 0 && $f2 < 0 then bang;#P newex 53 143 27 196617 t f f;#P newex 53 165 53 196617 pack 0. 0.;#P flonum 147 121 35 9 0 0 0 3 0 0 0 221 221 221 222 222 222 0 0 0;#P newex 147 99 27 196617 - 0.;#P newex 147 72 27 196617 t f f;#P button 53 210 15 0;#P connect 7 0 8 0;#P connect 8 0 5 0;#P connect 3 0 5 0;#P connect 5 1 4 0;#P connect 4 0 6 0;#P connect 6 0 0 0;#P connect 0 0 9 0;#P connect 5 0 4 1;#P connect 1 1 2 0;#P connect 2 0 3 0;#P connect 1 0 2 1;#P pop;#P newobj 823 251 65 196617 p detectpeak;#P newex 77 305 33 196617 * -1.;#P newex 495 393 27 196617 * 2.;#P newex 571 442 27 196617 + 1;#P newex 571 464 35 196617 gate 2;#P newex 571 421 27 196617 < 0.;#P newex 596 489 63 196617 + 6.283175;#P number 784 36 35 9 0 0 0 3 0 0 0 221 221 221 222 222 222 0 0 0;#P message 325 141 35 196617 1 1 0.8;#P message 358 237 20 196617 \$3;#P newex 379 255 27 196617 * 1.;#P message 302 192 35 196617 \$1 \$2;#P newex 854 281 26 196617 s bc;#P newex 795 280 29 196617 s bb;#P newex 256 311 75 196617 unpack 0. 0. 0.;#P newex 75 233 115 196617 expr $f1*$f4-$f2*$f3;#P flonum 133 527 52 9 0 0 0 3 0 0 0 221 221 221 222 222 222 0 0 0;#P newex 133 501 65 196617 % 6.283175;#P flonum 228 527 52 9 0 0 0 3 0 0 0 221 221 221 222 222 222 0 0 0;#P newex 228 503 65 196617 % 6.283175;#P message 441 139 35 196617 1 3 0.4;#P message 518 139 35 196617 3 2 0.1;#P message 480 138 35 196617 2 3 0.1;#P message 368 333 46 196617 1 3 0.4;#P newex 368 308 32 196617 show;#P newex 268 287 35 196617 zl reg;#P message 268 264 35 196617 1 1 1.;#P message 442 255 23 196617 ---;#P newex 390 182 63 196617 unpack 0. 0.;#P newex 376 281 31 196617 print;#P newex 226 239 53 196617 t b b l b;#P newex 225 217 53 196617 pack 0. 0.;#P newex 346 169 27 196617 t l l;#P newex 301 262 27 196617 gate;#P button 400 116 15 0;#P message 404 140 35 196617 1 2 0.6;#P message 366 140 35 196617 2 1 0.6;#P newex 302 239 32 196617 <= 0.;#P newex 302 214 139 196617 expr abs($f1*$f3-$f2*$f4);#P comment 670 288 100 196617 self-sustained osc;#P comment 670 363 38 196617 force;#P comment 670 546 228 196617 derivative of phase difference (synchronicity?);#P comment 670 455 80 196617 phase difference;#P comment 563 207 70 196617 sound param2;#P comment 633 165 103 196617 modulated freq (real);#P button 763 251 15 0;#N vpatcher 10 59 273 345;#P outlet 53 237 15 0;#P flonum 53 50 35 9 0 0 0 3 0 0 0 221 221 221 222 222 222 0 0 0;#P inlet 53 29 15 0;#P newex 53 188 152 196617 if $f1 > 0 && $f2 < 0 then bang;#P newex 53 143 27 196617 t f f;#P newex 53 165 53 196617 pack 0. 0.;#P flonum 147 121 35 9 0 0 0 3 0 0 0 221 221 221 222 222 222 0 0 0;#P newex 147 99 27 196617 - 0.;#P newex 147 72 27 196617 t f f;#P button 53 210 15 0;#P connect 7 0 8 0;#P connect 3 0 5 0;#P connect 8 0 5 0;#P connect 5 1 4 0;#P connect 4 0 6 0;#P connect 6 0 0 0;#P connect 0 0 9 0;#P connect 5 0 4 1;#P connect 1 1 2 0;#P connect 2 0 3 0;#P connect 1 0 2 1;#P pop;#P newobj 695 251 65 196617 p detectpeak;#P newex 797 227 72 196617 r phase_force;#P newex 670 227 63 196617 r phase_osc;#P newex 228 549 72 196617 s phase_force;#P newex 133 550 63 196617 s phase_osc;#P newex 564 116 35 196617 r dpdt;#P newex 44 464 35 196617 s dpdt;#P newex 571 287 64 196617 r phase_diff;#P newex 142 295 64 196617 s phase_diff;#P message 338 63 23 196617 0.03;#P message 250 46 72 196617 0.1 0. 0.35 0.;#P flonum 495 539 35 9 0 0 0 3 0 0 0 221 221 221 222 222 222 0 0 0;#P newex 495 516 39 196617 * 0.01;#P number 495 492 35 9 0 0 0 3 0 0 0 221 221 221 222 222 222 0 0 0;#P newex 495 445 40 196617 * 100.;#P flonum 898 37 35 9 0 0 0 3 0 0 0 221 221 221 222 222 222 0 0 0;#P flonum 914 87 35 9 0 0 0 3 0 0 0 221 221 221 222 222 222 0 0 0;#P newex 872 156 35 196617 s freq;#P flonum 872 134 35 9 0 0 0 3 0 0 0 221 221 221 222 222 222 0 0 0;#P newex 873 113 39 196617 + 200.;#P flonum 873 85 35 9 0 0 0 3 0 0 0 221 221 221 222 222 222 0 0 0;#P newex 873 61 35 196617 * 20.;#P newex 495 605 35 196617 s amp;#P newex 495 467 27 196617 *;#P flonum 495 581 35 9 0 0 0 3 0 0 0 221 221 221 222 222 222 0 0 0;#P newex 495 558 29 196617 !- 1.;#P message 279 112 17 196617 0.;#P flonum 495 414 35 9 0 0 0 3 0 0 0 221 221 221 222 222 222 0 0 0;#P newex 495 371 35 196617 abs 0.;#P newex 495 349 27 196617 - 0.;#P newex 495 326 27 196617 t f f;#P user multiSlider 670 474 256 68 0. 1. 1 3193 15;#M frgb 227 155 120;#M brgb 255 255 255;#M rgb2 127 127 127;#P newex 564 184 54 196617 s modrate;#P flonum 564 163 64 9 0 0 0 3 0 0 0 221 221 221 222 222 222 0 0 0;#P newex 564 139 189 196617 expr $f1 / ($f2*3.141592653) * 500.;#P number 743 115 35 9 0 0 0 3 0 0 0 221 221 221 222 222 222 0 0 0;#P newex 743 91 34 196617 timer;#P message 294 93 17 196617 0.1;#P flonum 571 548 35 9 0 0 0 3 0 0 0 221 221 221 222 222 222 0 0 0;#P newex 571 522 65 196617 % 6.283175;#P newex 571 392 27 196617 t f f;#P flonum 571 369 35 9 0 0 0 3 0 0 0 221 221 221 222 222 222 0 0 0;#P newex 670 251 21 196617 sin;#P user multiSlider 670 306 258 24 -1.2 1.2 1 3193 15;#M frgb 37 79 177;#M brgb 255 255 255;#M rgb2 127 127 127;#P newex 797 251 21 196617 sin;#P user multiSlider 670 333 258 24 -1.2 1.2 1 3193 15;#M frgb 37 79 177;#M brgb 255 255 255;#M rgb2 127 127 127;#P toggle 743 38 15 0;#P newex 743 65 55 196617 qmetro 20;#P message 250 90 17 196617 0.;#P newex 453 443 38 196617 < 0.01;#P message 236 28 60 196617 0.1 0. 0.21 0.;#P user multiSlider 670 381 259 67 0. 6.28318 1 3193 15;#M frgb 227 155 120;#M brgb 255 255 255;#M rgb2 127 127 127;#P flonum 76 371 35 9 0 0 0 3 0 0 0 221 221 221 222 222 222 0 0 0;#P flonum 77 326 35 9 0 0 0 3 0 0 0 221 221 221 222 222 222 0 0 0;#P flonum 77 259 35 9 0 0 0 3 0 0 0 221 221 221 222 222 222 0 0 0;#P button 11 32 49 0;#P message 186 79 38 196617 set \$1;#P message 150 79 38 196617 set \$1;#P message 115 78 38 196617 set \$1;#P message 79 78 38 196617 set \$1;#P newex 79 29 25 196617 r fp;#P newex 26 600 25 196617 s fp;#P newex 79 54 120 196617 unpack 0. 0. 0. 0.;#P newex 26 563 75 196617 pack 0. 0. 0. 0.;#P user led 453 470 17 17 1 150;#P flonum 228 481 35 9 0 0 0 3 0 0 0 221 221 221 222 222 222 0 0 0;#P newex 228 457 27 196617 + 0.;#P flonum 133 480 35 9 0 0 0 3 0 0 0 221 221 221 222 222 222 0 0 0;#P comment 164 458 56 196617 new phase;#P newex 133 456 27 196617 + 0.;#P flonum 56 432 43 9 0 0 0 3 0 0 0 221 221 221 222 222 222 0 0 0;#P comment 105 433 100 196617 phase shift (dp/dt);#P newex 57 400 27 196617 + 0.;#P newex 76 351 95 196617 expr $f1*$f2*$f3;#P comment 180 133 35 196617 force;#P newex 78 282 21 196617 sin;#P comment 322 94 89 196617 coupling strength;#P comment 200 151 32 196617 phase;#P comment 99 151 32 196617 phase;#P comment 161 149 32 196617 freq;#P flonum 325 120 35 9 0 0 0 3 0 0 0 221 221 221 222 222 222 0 0 0;#P flonum 199 172 35 9 0 0 0 3 0 0 0 221 221 221 222 222 222 0 0 0;#P flonum 158 174 35 9 0 0 0 3 0 0 0 221 221 221 222 222 222 0 0 0;#P flonum 95 172 35 9 0 0 0 3 0 0 0 221 221 221 222 222 222 0 0 0;#P flonum 58 172 35 9 0 0 0 3 0 0 0 221 221 221 222 222 222 0 0 0;#P comment 56 149 32 196617 freq;#P comment 45 130 100 196617 self-sustained osc;#P comment 864 178 70 196617 sound param1;#P comment 431 91 66 196617 arnold tangue;#P connect 41 0 33 0;#P connect 4 0 25 0;#P connect 25 0 27 0;#P connect 18 0 82 0;#P connect 118 0 25 1;#P connect 16 0 18 0;#P connect 4 0 16 0;#P connect 33 0 4 0;#P connect 29 0 4 0;#P connect 6 0 25 2;#P connect 36 0 16 1;#P connect 5 0 119 0;#P connect 35 0 15 0;#P connect 15 0 36 0;#P connect 119 0 34 0;#P connect 13 0 133 0;#P connect 133 0 35 0;#P connect 34 0 13 0;#P connect 78 0 26 0;#P connect 38 0 26 0;#P connect 28 0 26 0;#P connect 26 0 29 0;#P connect 116 0 25 3;#P connect 40 0 5 0;#P connect 33 0 5 0;#P connect 30 0 5 0;#P connect 7 0 119 1;#P connect 26 1 30 0;#P connect 8 0 15 1;#P connect 18 0 19 0;#P connect 19 0 21 0;#P connect 21 0 117 0;#P connect 117 0 118 0;#P connect 118 0 84 0;#P connect 34 0 80 0;#P connect 120 0 119 2;#P connect 26 2 31 0;#P connect 5 0 19 1;#P connect 33 0 6 0;#P connect 31 0 6 0;#P connect 120 2 15 2;#P connect 120 1 119 3;#P connect 26 3 32 0;#P connect 40 0 7 0;#P connect 32 0 7 0;#P connect 33 0 7 0;#P connect 4 0 103 0;#P connect 103 0 104 0;#P connect 6 0 22 0;#P connect 22 0 23 0;#P connect 23 0 115 0;#P connect 115 0 116 0;#P connect 116 0 85 0;#P connect 7 0 22 1;#P connect 109 0 120 0;#P connect 6 0 103 1;#P connect 104 3 108 0;#P connect 108 0 109 0;#P connect 101 0 109 0;#P connect 104 0 109 0;#P connect 97 0 101 0;#P connect 102 1 123 0;#P connect 123 0 96 0;#P connect 96 0 97 0;#P connect 102 0 101 1;#P connect 124 0 97 1;#P connect 62 0 8 0;#P connect 51 0 8 0;#P connect 79 0 8 0;#P connect 100 0 126 0;#P connect 98 0 102 0;#P connect 99 0 102 0;#P connect 113 0 102 0;#P connect 112 0 102 0;#P connect 114 0 102 0;#P connect 126 0 102 0;#P connect 102 1 125 0;#P connect 100 0 98 0;#P connect 109 0 110 0;#P connect 110 0 111 0;#P connect 107 0 105 0;#P connect 125 0 124 0;#P connect 106 1 96 2;#P connect 104 2 106 0;#P connect 8 0 124 1;#P connect 104 1 100 0;#P connect 100 0 99 0;#P connect 106 0 96 3;#P connect 100 0 114 0;#P connect 61 0 39 0;#P connect 39 0 24 0;#P connect 100 0 112 0;#P fasten 50 0 58 0 576 567 559 567 559 321 500 321;#P connect 58 1 59 0;#P connect 59 0 60 0;#P connect 60 0 132 0;#P connect 132 0 61 0;#P connect 61 0 74 0;#P connect 74 0 65 0;#P connect 65 0 75 0;#P connect 75 0 76 0;#P connect 76 0 77 0;#P connect 77 0 63 0;#P connect 63 0 64 0;#P connect 64 0 66 0;#P connect 58 0 59 1;#P connect 74 0 65 1;#P connect 100 0 113 0;#P connect 83 0 54 0;#P connect 54 0 55 0;#P connect 55 0 56 0;#P fasten 128 0 47 0 601 517 623 517 623 360 576 360;#P connect 81 0 47 0;#P connect 47 0 48 0;#P connect 48 1 129 0;#P connect 129 0 131 0;#P connect 131 0 130 0;#P connect 130 0 49 0;#P connect 49 0 50 0;#P connect 48 0 130 1;#P connect 130 1 128 0;#P connect 86 0 46 0;#P connect 46 0 45 0;#P connect 44 0 43 0;#P connect 50 0 37 0;#P connect 61 0 57 0;#P connect 46 0 88 0;#P connect 42 0 41 0;#P connect 41 0 52 0;#P connect 52 0 53 0;#P connect 53 0 54 1;#P connect 88 0 89 0;#P connect 41 0 52 1;#P connect 127 0 41 1;#P connect 89 0 121 0;#P connect 87 0 44 0;#P connect 44 0 134 0;#P connect 135 0 122 0;#P connect 69 0 70 0;#P connect 70 0 71 0;#P connect 44 0 67 0;#P connect 67 0 68 0;#P connect 68 0 69 0;#P connect 134 0 135 0;#P connect 73 0 67 1;#P connect 72 0 69 1;#P pop;