{
	"patcher" : 	{
		"fileversion" : 1,
		"appversion" : 		{
			"major" : 6,
			"minor" : 0,
			"revision" : 7
		}
,
		"rect" : [ 0.0, -148.0, 1280.0, 706.0 ],
		"bgcolor" : [ 1.0, 1.0, 1.0, 0.0 ],
		"bglocked" : 0,
		"openinpresentation" : 1,
		"default_fontsize" : 10.0,
		"default_fontface" : 0,
		"default_fontname" : "Verdana",
		"gridonopen" : 0,
		"gridsize" : [ 5.0, 5.0 ],
		"gridsnaponopen" : 0,
		"statusbarvisible" : 2,
		"toolbarvisible" : 1,
		"boxanimatetime" : 200,
		"imprint" : 0,
		"enablehscroll" : 1,
		"enablevscroll" : 1,
		"devicewidth" : 0.0,
		"description" : "",
		"digest" : "",
		"tags" : "",
		"boxes" : [ 			{
				"box" : 				{
					"fontname" : "Verdana",
					"fontsize" : 10.0,
					"frgb" : 0.0,
					"id" : "obj-3",
					"maxclass" : "comment",
					"numinlets" : 1,
					"numoutlets" : 0,
					"patching_rect" : [ 360.0, 1290.0, 105.0, 19.0 ],
					"presentation" : 1,
					"presentation_rect" : [ 5.0, 240.0, 105.0, 19.0 ],
					"text" : "velocityFade"
				}

			}
, 			{
				"box" : 				{
					"fontname" : "Verdana",
					"fontsize" : 10.0,
					"frgb" : 0.0,
					"id" : "obj-17",
					"maxclass" : "comment",
					"numinlets" : 1,
					"numoutlets" : 0,
					"patching_rect" : [ 360.0, 1245.0, 105.0, 19.0 ],
					"presentation" : 1,
					"presentation_rect" : [ 5.0, 220.0, 105.0, 19.0 ],
					"text" : "densityFade"
				}

			}
, 			{
				"box" : 				{
					"annotation" : "//velocity blend.",
					"fontname" : "Verdana",
					"fontsize" : 10.0,
					"id" : "obj-18",
					"maxclass" : "flonum",
					"numinlets" : 1,
					"numoutlets" : 2,
					"outlettype" : [ "float", "bang" ],
					"parameter_enable" : 0,
					"patching_rect" : [ 525.0, 1290.0, 50.0, 19.0 ],
					"presentation" : 1,
					"presentation_rect" : [ 145.0, 240.0, 50.0, 19.0 ]
				}

			}
, 			{
				"box" : 				{
					"fontname" : "Verdana",
					"fontsize" : 10.0,
					"id" : "obj-29",
					"linecount" : 2,
					"maxclass" : "newobj",
					"numinlets" : 1,
					"numoutlets" : 3,
					"outlettype" : [ "", "", "" ],
					"patching_rect" : [ 585.0, 1290.0, 577.0, 31.0 ],
					"text" : "jcom.parameter velocityFade @type decimal @range/clipmode both @range/bounds 0. 1. @repetitions/allow 0 @ramp/drive none @description \"//velocity blend.\"",
					"varname" : "viscosity[8]"
				}

			}
, 			{
				"box" : 				{
					"annotation" : "//density blend.",
					"fontname" : "Verdana",
					"fontsize" : 10.0,
					"id" : "obj-30",
					"maxclass" : "flonum",
					"numinlets" : 1,
					"numoutlets" : 2,
					"outlettype" : [ "float", "bang" ],
					"parameter_enable" : 0,
					"patching_rect" : [ 525.0, 1245.0, 50.0, 19.0 ],
					"presentation" : 1,
					"presentation_rect" : [ 145.0, 220.0, 50.0, 19.0 ]
				}

			}
, 			{
				"box" : 				{
					"fontname" : "Verdana",
					"fontsize" : 10.0,
					"id" : "obj-50",
					"linecount" : 2,
					"maxclass" : "newobj",
					"numinlets" : 1,
					"numoutlets" : 3,
					"outlettype" : [ "", "", "" ],
					"patching_rect" : [ 585.0, 1245.0, 572.0, 31.0 ],
					"text" : "jcom.parameter densityFade @type decimal @range/clipmode none @range/bounds 0. 1. @repetitions/allow 0 @ramp/drive none @description \"//density blend.\"",
					"varname" : "viscosity[9]"
				}

			}
, 			{
				"box" : 				{
					"fontname" : "Verdana",
					"fontsize" : 10.0,
					"id" : "obj-83",
					"maxclass" : "newobj",
					"numinlets" : 1,
					"numoutlets" : 1,
					"outlettype" : [ "" ],
					"patching_rect" : [ 525.0, 765.0, 100.0, 19.0 ],
					"text" : "prepend set"
				}

			}
, 			{
				"box" : 				{
					"fontname" : "Verdana",
					"fontsize" : 10.0,
					"frgb" : 0.0,
					"id" : "obj-82",
					"linecount" : 3,
					"maxclass" : "comment",
					"numinlets" : 1,
					"numoutlets" : 0,
					"patching_rect" : [ 690.0, 810.0, 162.0, 43.0 ],
					"text" : "need to figure out how to set the dial value without having it feed back and reset itself..."
				}

			}
, 			{
				"box" : 				{
					"fontname" : "Verdana",
					"fontsize" : 10.0,
					"id" : "obj-78",
					"maxclass" : "flonum",
					"numinlets" : 1,
					"numoutlets" : 2,
					"outlettype" : [ "float", "bang" ],
					"parameter_enable" : 0,
					"patching_rect" : [ 525.0, 795.0, 50.0, 19.0 ]
				}

			}
, 			{
				"box" : 				{
					"annotation" : "//gravity angle.",
					"fontname" : "Verdana",
					"fontsize" : 10.0,
					"id" : "obj-74",
					"maxclass" : "newobj",
					"numinlets" : 2,
					"numoutlets" : 2,
					"outlettype" : [ "", "" ],
					"patching_rect" : [ 525.0, 645.0, 100.0, 19.0 ],
					"text" : "route set"
				}

			}
, 			{
				"box" : 				{
					"fontname" : "Arial",
					"fontsize" : 12.0,
					"id" : "obj-52",
					"maxclass" : "newobj",
					"numinlets" : 1,
					"numoutlets" : 1,
					"outlettype" : [ "float" ],
					"patching_rect" : [ 525.0, 705.0, 45.0, 20.0 ],
					"text" : "abs 1."
				}

			}
, 			{
				"box" : 				{
					"fontname" : "Arial",
					"fontsize" : 12.0,
					"id" : "obj-53",
					"maxclass" : "newobj",
					"numinlets" : 2,
					"numoutlets" : 1,
					"outlettype" : [ "float" ],
					"patching_rect" : [ 525.0, 675.0, 41.0, 20.0 ],
					"text" : "- 6.28"
				}

			}
, 			{
				"box" : 				{
					"fontname" : "Arial",
					"fontsize" : 12.0,
					"id" : "obj-54",
					"maxclass" : "newobj",
					"numinlets" : 5,
					"numoutlets" : 1,
					"outlettype" : [ "" ],
					"patching_rect" : [ 525.0, 735.0, 120.0, 20.0 ],
					"text" : "zmap 0. 6.28 0. 1."
				}

			}
, 			{
				"box" : 				{
					"fontname" : "Arial",
					"fontsize" : 12.0,
					"id" : "obj-33",
					"maxclass" : "newobj",
					"numinlets" : 1,
					"numoutlets" : 1,
					"outlettype" : [ "float" ],
					"patching_rect" : [ 525.0, 945.0, 100.0, 20.0 ],
					"text" : "abs 1."
				}

			}
, 			{
				"box" : 				{
					"fontname" : "Arial",
					"fontsize" : 12.0,
					"id" : "obj-35",
					"maxclass" : "newobj",
					"numinlets" : 2,
					"numoutlets" : 1,
					"outlettype" : [ "float" ],
					"patching_rect" : [ 525.0, 915.0, 100.0, 20.0 ],
					"text" : "- 1."
				}

			}
, 			{
				"box" : 				{
					"fontname" : "Arial",
					"fontsize" : 12.0,
					"id" : "obj-44",
					"linecount" : 2,
					"maxclass" : "newobj",
					"numinlets" : 5,
					"numoutlets" : 1,
					"outlettype" : [ "" ],
					"patching_rect" : [ 525.0, 975.0, 100.0, 33.0 ],
					"text" : "zmap 0. 1. 0. 6.28"
				}

			}
, 			{
				"box" : 				{
					"fontname" : "Arial",
					"fontsize" : 12.0,
					"id" : "obj-47",
					"maxclass" : "flonum",
					"numinlets" : 1,
					"numoutlets" : 2,
					"outlettype" : [ "float", "bang" ],
					"parameter_enable" : 0,
					"patching_rect" : [ 525.0, 1020.0, 50.0, 20.0 ]
				}

			}
, 			{
				"box" : 				{
					"clip" : 0,
					"degrees" : 360,
					"floatoutput" : 1,
					"id" : "obj-49",
					"maxclass" : "dial",
					"mult" : 0.01,
					"numinlets" : 1,
					"numoutlets" : 1,
					"outlettype" : [ "float" ],
					"parameter_enable" : 0,
					"patching_rect" : [ 525.0, 855.0, 40.0, 40.0 ],
					"presentation" : 1,
					"presentation_rect" : [ 145.0, 100.0, 40.0, 40.0 ],
					"size" : 100.0,
					"vtracking" : 0
				}

			}
, 			{
				"box" : 				{
					"fontname" : "Verdana",
					"fontsize" : 10.0,
					"id" : "obj-19",
					"maxclass" : "message",
					"numinlets" : 2,
					"numoutlets" : 1,
					"outlettype" : [ "" ],
					"patching_rect" : [ 75.0, 255.0, 290.0, 17.0 ],
					"text" : "/preset/dump"
				}

			}
, 			{
				"box" : 				{
					"annotation" : "Reset fluids.",
					"id" : "obj-4",
					"maxclass" : "toggle",
					"numinlets" : 1,
					"numoutlets" : 1,
					"outlettype" : [ "int" ],
					"parameter_enable" : 0,
					"patching_rect" : [ 390.0, 1535.0, 20.0, 20.0 ]
				}

			}
, 			{
				"box" : 				{
					"annotation" : "Reset fluids.",
					"fontname" : "Verdana",
					"fontsize" : 10.0,
					"id" : "obj-10",
					"maxclass" : "textbutton",
					"numinlets" : 1,
					"numoutlets" : 3,
					"outlettype" : [ "", "", "int" ],
					"parameter_enable" : 0,
					"patching_rect" : [ 390.0, 1500.0, 100.0, 20.0 ],
					"presentation" : 1,
					"presentation_rect" : [ 15.0, 300.0, 270.0, 15.0 ],
					"text" : "reset"
				}

			}
, 			{
				"box" : 				{
					"comment" : "message",
					"id" : "obj-166",
					"maxclass" : "inlet",
					"numinlets" : 0,
					"numoutlets" : 1,
					"outlettype" : [ "jit_matrix" ],
					"patching_rect" : [ 215.0, 290.0, 22.0, 22.0 ]
				}

			}
, 			{
				"box" : 				{
					"comment" : "message",
					"id" : "obj-165",
					"maxclass" : "inlet",
					"numinlets" : 0,
					"numoutlets" : 1,
					"outlettype" : [ "jit_matrix" ],
					"patching_rect" : [ 190.0, 290.0, 22.0, 22.0 ]
				}

			}
, 			{
				"box" : 				{
					"comment" : "fluids visualization out (2 plane float32)",
					"id" : "obj-163",
					"maxclass" : "outlet",
					"numinlets" : 1,
					"numoutlets" : 0,
					"patching_rect" : [ 185.0, 440.0, 22.0, 22.0 ]
				}

			}
, 			{
				"box" : 				{
					"fontname" : "Verdana",
					"fontsize" : 10.0,
					"frgb" : 0.0,
					"id" : "obj-140",
					"maxclass" : "comment",
					"numinlets" : 1,
					"numoutlets" : 0,
					"patching_rect" : [ 360.0, 1440.0, 105.0, 19.0 ],
					"presentation" : 1,
					"presentation_rect" : [ 5.0, 280.0, 105.0, 19.0 ],
					"text" : "velocityOutHeight"
				}

			}
, 			{
				"box" : 				{
					"fontname" : "Verdana",
					"fontsize" : 10.0,
					"frgb" : 0.0,
					"id" : "obj-138",
					"maxclass" : "comment",
					"numinlets" : 1,
					"numoutlets" : 0,
					"patching_rect" : [ 360.0, 1395.0, 105.0, 19.0 ],
					"presentation" : 1,
					"presentation_rect" : [ 5.0, 260.0, 105.0, 19.0 ],
					"text" : "velocityOutWidth"
				}

			}
, 			{
				"box" : 				{
					"fontname" : "Verdana",
					"fontsize" : 10.0,
					"frgb" : 0.0,
					"id" : "obj-136",
					"maxclass" : "comment",
					"numinlets" : 1,
					"numoutlets" : 0,
					"patching_rect" : [ 360.0, 1200.0, 105.0, 19.0 ],
					"presentation" : 1,
					"presentation_rect" : [ 5.0, 200.0, 105.0, 19.0 ],
					"text" : "velocityBlend"
				}

			}
, 			{
				"box" : 				{
					"fontname" : "Verdana",
					"fontsize" : 10.0,
					"frgb" : 0.0,
					"id" : "obj-134",
					"maxclass" : "comment",
					"numinlets" : 1,
					"numoutlets" : 0,
					"patching_rect" : [ 360.0, 1155.0, 105.0, 19.0 ],
					"presentation" : 1,
					"presentation_rect" : [ 5.0, 180.0, 105.0, 19.0 ],
					"text" : "densityBlend"
				}

			}
, 			{
				"box" : 				{
					"fontname" : "Verdana",
					"fontsize" : 10.0,
					"frgb" : 0.0,
					"id" : "obj-132",
					"maxclass" : "comment",
					"numinlets" : 1,
					"numoutlets" : 0,
					"patching_rect" : [ 360.0, 1110.0, 105.0, 19.0 ],
					"presentation" : 1,
					"presentation_rect" : [ 5.0, 160.0, 105.0, 19.0 ],
					"text" : "timestep"
				}

			}
, 			{
				"box" : 				{
					"fontname" : "Verdana",
					"fontsize" : 10.0,
					"frgb" : 0.0,
					"id" : "obj-130",
					"maxclass" : "comment",
					"numinlets" : 1,
					"numoutlets" : 0,
					"patching_rect" : [ 360.0, 1065.0, 105.0, 19.0 ],
					"presentation" : 1,
					"presentation_rect" : [ 5.0, 140.0, 105.0, 19.0 ],
					"text" : "gravityMagnitude"
				}

			}
, 			{
				"box" : 				{
					"fontname" : "Verdana",
					"fontsize" : 10.0,
					"frgb" : 0.0,
					"id" : "obj-128",
					"maxclass" : "comment",
					"numinlets" : 1,
					"numoutlets" : 0,
					"patching_rect" : [ 360.0, 870.0, 105.0, 19.0 ],
					"presentation" : 1,
					"presentation_rect" : [ 5.0, 110.0, 105.0, 19.0 ],
					"text" : "gravityAngle"
				}

			}
, 			{
				"box" : 				{
					"fontname" : "Verdana",
					"fontsize" : 10.0,
					"frgb" : 0.0,
					"id" : "obj-126",
					"maxclass" : "comment",
					"numinlets" : 1,
					"numoutlets" : 0,
					"patching_rect" : [ 360.0, 600.0, 135.0, 19.0 ],
					"presentation" : 1,
					"presentation_rect" : [ 5.0, 80.0, 135.0, 19.0 ],
					"text" : "temperatureMagnitude"
				}

			}
, 			{
				"box" : 				{
					"fontname" : "Verdana",
					"fontsize" : 10.0,
					"frgb" : 0.0,
					"id" : "obj-124",
					"maxclass" : "comment",
					"numinlets" : 1,
					"numoutlets" : 0,
					"patching_rect" : [ 360.0, 555.0, 105.0, 19.0 ],
					"presentation" : 1,
					"presentation_rect" : [ 5.0, 60.0, 105.0, 19.0 ],
					"text" : "vorticity"
				}

			}
, 			{
				"box" : 				{
					"fontname" : "Verdana",
					"fontsize" : 10.0,
					"frgb" : 0.0,
					"id" : "obj-122",
					"maxclass" : "comment",
					"numinlets" : 1,
					"numoutlets" : 0,
					"patching_rect" : [ 360.0, 510.0, 105.0, 19.0 ],
					"presentation" : 1,
					"presentation_rect" : [ 5.0, 40.0, 105.0, 19.0 ],
					"text" : "viscosity"
				}

			}
, 			{
				"box" : 				{
					"fontname" : "Verdana",
					"fontsize" : 10.0,
					"frgb" : 0.0,
					"id" : "obj-120",
					"maxclass" : "comment",
					"numinlets" : 1,
					"numoutlets" : 0,
					"patching_rect" : [ 450.0, 465.0, 45.0, 19.0 ],
					"presentation" : 1,
					"presentation_rect" : [ 5.0, 20.0, 45.0, 19.0 ],
					"text" : "flowOp"
				}

			}
, 			{
				"box" : 				{
					"annotation" : "//velocity out height.",
					"fontname" : "Verdana",
					"fontsize" : 10.0,
					"id" : "obj-59",
					"maxclass" : "number",
					"numinlets" : 1,
					"numoutlets" : 2,
					"outlettype" : [ "int", "bang" ],
					"parameter_enable" : 0,
					"patching_rect" : [ 525.0, 1440.0, 50.0, 19.0 ],
					"presentation" : 1,
					"presentation_rect" : [ 145.0, 280.0, 50.0, 19.0 ]
				}

			}
, 			{
				"box" : 				{
					"fontname" : "Verdana",
					"fontsize" : 10.0,
					"id" : "obj-60",
					"linecount" : 2,
					"maxclass" : "newobj",
					"numinlets" : 1,
					"numoutlets" : 3,
					"outlettype" : [ "", "", "" ],
					"patching_rect" : [ 585.0, 1440.0, 510.0, 31.0 ],
					"text" : "jcom.parameter velocityOutHeight @type integer @range/clipmode none @range/bounds 0. 1000. @repetitions/allow 0 @ramp/drive none @description \"//velocity out height.\"",
					"varname" : "velocityOutWidth[1]"
				}

			}
, 			{
				"box" : 				{
					"annotation" : "//velocity out width.",
					"fontname" : "Verdana",
					"fontsize" : 10.0,
					"id" : "obj-58",
					"maxclass" : "number",
					"numinlets" : 1,
					"numoutlets" : 2,
					"outlettype" : [ "int", "bang" ],
					"parameter_enable" : 0,
					"patching_rect" : [ 525.0, 1395.0, 50.0, 19.0 ],
					"presentation" : 1,
					"presentation_rect" : [ 145.0, 260.0, 50.0, 19.0 ]
				}

			}
, 			{
				"box" : 				{
					"annotation" : "//velocity blend.",
					"fontname" : "Verdana",
					"fontsize" : 10.0,
					"id" : "obj-43",
					"maxclass" : "flonum",
					"numinlets" : 1,
					"numoutlets" : 2,
					"outlettype" : [ "float", "bang" ],
					"parameter_enable" : 0,
					"patching_rect" : [ 525.0, 1200.0, 50.0, 19.0 ],
					"presentation" : 1,
					"presentation_rect" : [ 145.0, 200.0, 50.0, 19.0 ]
				}

			}
, 			{
				"box" : 				{
					"fontname" : "Verdana",
					"fontsize" : 10.0,
					"id" : "obj-46",
					"linecount" : 2,
					"maxclass" : "newobj",
					"numinlets" : 1,
					"numoutlets" : 3,
					"outlettype" : [ "", "", "" ],
					"patching_rect" : [ 585.0, 1200.0, 581.0, 31.0 ],
					"text" : "jcom.parameter velocityBlend @type decimal @range/clipmode both @range/bounds -5. 5. @repetitions/allow 0 @ramp/drive none @description \"//velocity blend.\"",
					"varname" : "viscosity[6]"
				}

			}
, 			{
				"box" : 				{
					"annotation" : "//density blend.",
					"fontname" : "Verdana",
					"fontsize" : 10.0,
					"id" : "obj-48",
					"maxclass" : "flonum",
					"numinlets" : 1,
					"numoutlets" : 2,
					"outlettype" : [ "float", "bang" ],
					"parameter_enable" : 0,
					"patching_rect" : [ 525.0, 1155.0, 50.0, 19.0 ],
					"presentation" : 1,
					"presentation_rect" : [ 145.0, 180.0, 50.0, 19.0 ]
				}

			}
, 			{
				"box" : 				{
					"fontname" : "Verdana",
					"fontsize" : 10.0,
					"id" : "obj-51",
					"linecount" : 2,
					"maxclass" : "newobj",
					"numinlets" : 1,
					"numoutlets" : 3,
					"outlettype" : [ "", "", "" ],
					"patching_rect" : [ 585.0, 1155.0, 592.0, 31.0 ],
					"text" : "jcom.parameter densityBlend @type decimal @range/clipmode both @range/bounds -1.05 1. @repetitions/allow 0 @ramp/drive none @description \"//density blend.\"",
					"varname" : "viscosity[7]"
				}

			}
, 			{
				"box" : 				{
					"annotation" : "//time step.",
					"fontname" : "Verdana",
					"fontsize" : 10.0,
					"id" : "obj-36",
					"maxclass" : "flonum",
					"numinlets" : 1,
					"numoutlets" : 2,
					"outlettype" : [ "float", "bang" ],
					"parameter_enable" : 0,
					"patching_rect" : [ 525.0, 1110.0, 50.0, 19.0 ],
					"presentation" : 1,
					"presentation_rect" : [ 145.0, 160.0, 50.0, 19.0 ]
				}

			}
, 			{
				"box" : 				{
					"fontname" : "Verdana",
					"fontsize" : 10.0,
					"id" : "obj-40",
					"linecount" : 2,
					"maxclass" : "newobj",
					"numinlets" : 1,
					"numoutlets" : 3,
					"outlettype" : [ "", "", "" ],
					"patching_rect" : [ 585.0, 1110.0, 567.0, 31.0 ],
					"text" : "jcom.parameter timestep @type decimal @range/clipmode none @range/bounds -1. 10. @repetitions/allow 0 @ramp/drive none @description \"//time step.\"",
					"varname" : "viscosity[5]"
				}

			}
, 			{
				"box" : 				{
					"annotation" : "//gravity magnitude.",
					"fontname" : "Verdana",
					"fontsize" : 10.0,
					"id" : "obj-32",
					"maxclass" : "flonum",
					"numinlets" : 1,
					"numoutlets" : 2,
					"outlettype" : [ "float", "bang" ],
					"parameter_enable" : 0,
					"patching_rect" : [ 525.0, 1065.0, 50.0, 19.0 ],
					"presentation" : 1,
					"presentation_rect" : [ 145.0, 140.0, 50.0, 19.0 ]
				}

			}
, 			{
				"box" : 				{
					"fontname" : "Verdana",
					"fontsize" : 10.0,
					"id" : "obj-34",
					"linecount" : 2,
					"maxclass" : "newobj",
					"numinlets" : 1,
					"numoutlets" : 3,
					"outlettype" : [ "", "", "" ],
					"patching_rect" : [ 585.0, 1065.0, 478.0, 31.0 ],
					"text" : "jcom.parameter gravityMagnitude @type decimal @range/clipmode both @range/bounds 0. 1. @repetitions/allow 0 @ramp/drive none @description \"//gravity magnitude.\"",
					"varname" : "viscosity[4]"
				}

			}
, 			{
				"box" : 				{
					"fontname" : "Verdana",
					"fontsize" : 10.0,
					"id" : "obj-31",
					"linecount" : 2,
					"maxclass" : "newobj",
					"numinlets" : 1,
					"numoutlets" : 3,
					"outlettype" : [ "", "", "" ],
					"patching_rect" : [ 705.0, 870.0, 465.0, 31.0 ],
					"text" : "jcom.parameter gravityAngle @type decimal @range/clipmode none @range/bounds 0. 1000. @repetitions/allow 0 @ramp/drive none @description \"//gravity angle.\"",
					"varname" : "viscosity[3]"
				}

			}
, 			{
				"box" : 				{
					"annotation" : "//temperature magnitude.",
					"fontname" : "Verdana",
					"fontsize" : 10.0,
					"id" : "obj-27",
					"maxclass" : "flonum",
					"numinlets" : 1,
					"numoutlets" : 2,
					"outlettype" : [ "float", "bang" ],
					"parameter_enable" : 0,
					"patching_rect" : [ 525.0, 600.0, 50.0, 19.0 ],
					"presentation" : 1,
					"presentation_rect" : [ 145.0, 80.0, 50.0, 19.0 ]
				}

			}
, 			{
				"box" : 				{
					"fontname" : "Verdana",
					"fontsize" : 10.0,
					"id" : "obj-28",
					"linecount" : 2,
					"maxclass" : "newobj",
					"numinlets" : 1,
					"numoutlets" : 3,
					"outlettype" : [ "", "", "" ],
					"patching_rect" : [ 585.0, 600.0, 495.0, 31.0 ],
					"text" : "jcom.parameter temperatureMagnitude @type decimal @range/clipmode none @range/bounds 0. 1000. @repetitions/allow 0 @ramp/drive none @description \"//temperature magnitude.\"",
					"varname" : "viscosity[2]"
				}

			}
, 			{
				"box" : 				{
					"annotation" : "//Vorticity of fluids.",
					"fontname" : "Verdana",
					"fontsize" : 10.0,
					"id" : "obj-12",
					"maxclass" : "flonum",
					"numinlets" : 1,
					"numoutlets" : 2,
					"outlettype" : [ "float", "bang" ],
					"parameter_enable" : 0,
					"patching_rect" : [ 525.0, 555.0, 50.0, 19.0 ],
					"presentation" : 1,
					"presentation_rect" : [ 145.0, 60.0, 50.0, 19.0 ]
				}

			}
, 			{
				"box" : 				{
					"fontname" : "Verdana",
					"fontsize" : 10.0,
					"id" : "obj-25",
					"linecount" : 2,
					"maxclass" : "newobj",
					"numinlets" : 1,
					"numoutlets" : 3,
					"outlettype" : [ "", "", "" ],
					"patching_rect" : [ 585.0, 555.0, 435.0, 31.0 ],
					"text" : "jcom.parameter vorticity @type decimal @range/clipmode both @range/bounds 0. 5. @repetitions/allow 0 @ramp/drive none @description \"//Vorticity of fluids.\"",
					"varname" : "viscosity[1]"
				}

			}
, 			{
				"box" : 				{
					"annotation" : "//Viscosity of fluids.",
					"fontname" : "Verdana",
					"fontsize" : 10.0,
					"id" : "obj-11",
					"maxclass" : "flonum",
					"numinlets" : 1,
					"numoutlets" : 2,
					"outlettype" : [ "float", "bang" ],
					"parameter_enable" : 0,
					"patching_rect" : [ 525.0, 510.0, 50.0, 19.0 ],
					"presentation" : 1,
					"presentation_rect" : [ 145.0, 40.0, 50.0, 19.0 ]
				}

			}
, 			{
				"box" : 				{
					"fontname" : "Verdana",
					"fontsize" : 10.0,
					"id" : "obj-9",
					"maxclass" : "newobj",
					"numinlets" : 4,
					"numoutlets" : 3,
					"outlettype" : [ "", "jit_matrix", "jit_matrix" ],
					"patching_rect" : [ 125.0, 380.0, 90.0, 19.0 ],
					"text" : "jalg.tml.fluids%"
				}

			}
, 			{
				"box" : 				{
					"id" : "obj-22",
					"maxclass" : "jit.pwindow",
					"numinlets" : 1,
					"numoutlets" : 2,
					"outlettype" : [ "", "" ],
					"patching_rect" : [ 236.0, 22.0, 60.0, 45.0 ],
					"presentation" : 1,
					"presentation_rect" : [ 237.0, 22.0, 60.0, 45.0 ]
				}

			}
, 			{
				"box" : 				{
					"fontname" : "Verdana",
					"fontsize" : 10.0,
					"frgb" : 0.0,
					"id" : "obj-20",
					"linecount" : 2,
					"maxclass" : "comment",
					"numinlets" : 1,
					"numoutlets" : 0,
					"patching_rect" : [ 241.0, 173.0, 199.0, 31.0 ],
					"text" : "<-- this message creates your xml preset file and a default state "
				}

			}
, 			{
				"box" : 				{
					"fontname" : "Verdana",
					"fontsize" : 10.0,
					"frgb" : 0.0,
					"id" : "obj-13",
					"maxclass" : "comment",
					"numinlets" : 1,
					"numoutlets" : 0,
					"patching_rect" : [ 190.0, 151.0, 275.0, 19.0 ],
					"text" : "<-- this message creates your html reference page "
				}

			}
, 			{
				"box" : 				{
					"fontname" : "Verdana",
					"fontsize" : 10.0,
					"id" : "obj-14",
					"maxclass" : "message",
					"numinlets" : 2,
					"numoutlets" : 1,
					"outlettype" : [ "" ],
					"patching_rect" : [ 43.0, 174.0, 198.0, 17.0 ],
					"text" : "/preset/store 1 default, /preset/write"
				}

			}
, 			{
				"box" : 				{
					"fontname" : "Verdana",
					"fontsize" : 10.0,
					"id" : "obj-15",
					"maxclass" : "message",
					"numinlets" : 2,
					"numoutlets" : 1,
					"outlettype" : [ "" ],
					"patching_rect" : [ 43.0, 152.0, 145.0, 17.0 ],
					"text" : "/documentation/generate"
				}

			}
, 			{
				"box" : 				{
					"fontname" : "Verdana",
					"fontsize" : 10.0,
					"frgb" : 0.0,
					"id" : "obj-26",
					"linecount" : 3,
					"maxclass" : "comment",
					"numinlets" : 1,
					"numoutlets" : 0,
					"patching_rect" : [ 172.0, 106.0, 305.0, 43.0 ],
					"text" : "In order to create all jcom.parameters/messages/returns, you can use the jcom.parameterCreate utility to the left : just double-click on it and choose the desired attributes",
					"textcolor" : [ 0.709804, 0.101961, 0.101961, 1.0 ]
				}

			}
, 			{
				"box" : 				{
					"fontname" : "Verdana",
					"fontsize" : 10.0,
					"id" : "obj-21",
					"maxclass" : "newobj",
					"numinlets" : 0,
					"numoutlets" : 1,
					"outlettype" : [ "" ],
					"patching_rect" : [ 41.0, 128.0, 131.0, 19.0 ],
					"text" : "jcom.parameterCreate"
				}

			}
, 			{
				"box" : 				{
					"comment" : "message",
					"id" : "obj-7",
					"maxclass" : "inlet",
					"numinlets" : 0,
					"numoutlets" : 1,
					"outlettype" : [ "" ],
					"patching_rect" : [ 160.0, 290.0, 22.0, 22.0 ]
				}

			}
, 			{
				"box" : 				{
					"comment" : "velocity field out (2 plane float32)",
					"id" : "obj-6",
					"maxclass" : "outlet",
					"numinlets" : 1,
					"numoutlets" : 0,
					"patching_rect" : [ 160.0, 440.0, 22.0, 22.0 ]
				}

			}
, 			{
				"box" : 				{
					"fontname" : "Verdana",
					"fontsize" : 10.0,
					"id" : "obj-5",
					"maxclass" : "newobj",
					"numinlets" : 2,
					"numoutlets" : 3,
					"outlettype" : [ "", "", "" ],
					"patching_rect" : [ 160.0, 410.0, 65.0, 19.0 ],
					"text" : "jcom.out 2"
				}

			}
, 			{
				"box" : 				{
					"annotation" : "Operation performed on optical flow.",
					"fontname" : "Arial",
					"fontsize" : 13.0,
					"id" : "obj-2",
					"items" : [ "pass", ",", "*", ",", "/", ",", "addition", ",", "subtraction", ",", "+m", ",", "-m", ",", "%", ",", "min", ",", "max", ",", "abs", ",", "avg", ",", "absdiff", ",", "wrap", ",", "fold", ",", "!pass", ",", "!/", ",", "!-", ",", "!%", ",", "&", ",", "|", ",", "^", ",", "~", ",", ">>", ",", "<<", ",", "&&", ",", "||", ",", "!", ",", ">", ",", "<", ",", ">=", ",", "<=", ",", "==", ",", "!=", ",", ">p", ",", "<p", ",", ">=p", ",", "<=p", ",", "==p", ",", "!=p", ",", "sin", ",", "cos", ",", "tan", ",", "asin", ",", "acos", ",", "atan", ",", "atan2", ",", "sinh", ",", "cosh", ",", "tanh", ",", "asinh", ",", "acosh", ",", "atanh", ",", "exp", ",", "exp2", ",", "ln", ",", "log2", ",", "log10", ",", "hypot", ",", "pow", ",", "sqrt", ",", "ceil", ",", "floor", ",", "round", ",", "trunc", ",", "ignore" ],
					"maxclass" : "umenu",
					"numinlets" : 1,
					"numoutlets" : 3,
					"outlettype" : [ "int", "", "" ],
					"parameter_enable" : 0,
					"patching_rect" : [ 520.0, 465.0, 60.0, 21.0 ],
					"presentation" : 1,
					"presentation_rect" : [ 145.0, 20.0, 75.0, 21.0 ]
				}

			}
, 			{
				"box" : 				{
					"fontname" : "Verdana",
					"fontsize" : 10.0,
					"id" : "obj-86",
					"maxclass" : "newobj",
					"numinlets" : 1,
					"numoutlets" : 3,
					"outlettype" : [ "", "", "" ],
					"patching_rect" : [ 630.0, 465.0, 570.0, 19.0 ],
					"text" : "jcom.parameter flowOp @repetitions/allow 1 @type string @description \"Operation performed on optical flow.\"",
					"varname" : "module_in[1]"
				}

			}
, 			{
				"box" : 				{
					"fontname" : "Verdana",
					"fontsize" : 10.0,
					"frgb" : 0.0,
					"id" : "obj-45",
					"maxclass" : "comment",
					"numinlets" : 1,
					"numoutlets" : 0,
					"patching_rect" : [ 235.0, 330.0, 141.0, 19.0 ],
					"text" : "algorithm section"
				}

			}
, 			{
				"box" : 				{
					"fontname" : "Verdana",
					"fontsize" : 10.0,
					"id" : "obj-42",
					"maxclass" : "newobj",
					"numinlets" : 1,
					"numoutlets" : 0,
					"patcher" : 					{
						"fileversion" : 1,
						"appversion" : 						{
							"major" : 6,
							"minor" : 0,
							"revision" : 7
						}
,
						"rect" : [ 272.0, 368.0, 930.0, 360.0 ],
						"bgcolor" : [ 0.967391, 0.967391, 0.967391, 1.0 ],
						"bglocked" : 0,
						"openinpresentation" : 1,
						"default_fontsize" : 12.0,
						"default_fontface" : 0,
						"default_fontname" : "Verdana",
						"gridonopen" : 0,
						"gridsize" : [ 15.0, 15.0 ],
						"gridsnaponopen" : 0,
						"statusbarvisible" : 2,
						"toolbarvisible" : 1,
						"boxanimatetime" : 200,
						"imprint" : 1,
						"enablehscroll" : 1,
						"enablevscroll" : 1,
						"devicewidth" : 0.0,
						"description" : "",
						"digest" : "",
						"tags" : "",
						"visible" : 1,
						"boxes" : [ 							{
								"box" : 								{
									"background" : 0,
									"bgcolor" : [ 0.867, 0.867, 0.867, 1.0 ],
									"bgcolor2" : [ 0.867, 0.867, 0.867, 1.0 ],
									"fontface" : 0,
									"fontname" : "Verdana",
									"fontsize" : 12.0,
									"gradient" : 0,
									"hidden" : 0,
									"id" : "obj-14",
									"ignoreclick" : 0,
									"maxclass" : "message",
									"numinlets" : 2,
									"numoutlets" : 1,
									"outlettype" : [ "" ],
									"patching_rect" : [ 825.0, 90.0, 50.0, 19.0 ],
									"presentation" : 0,
									"presentation_rect" : [ 0.0, 0.0, 0.0, 0.0 ],
									"text" : "front",
									"textcolor" : [ 0.0, 0.0, 0.0, 1.0 ]
								}

							}
, 							{
								"box" : 								{
									"background" : 0,
									"bgcolor" : [ 1.0, 1.0, 1.0, 1.0 ],
									"color" : [ 0.8, 0.84, 0.71, 1.0 ],
									"fontface" : 0,
									"fontname" : "Verdana",
									"fontsize" : 12.0,
									"hidden" : 0,
									"id" : "obj-9",
									"ignoreclick" : 0,
									"maxclass" : "newobj",
									"numinlets" : 1,
									"numoutlets" : 0,
									"patcher" : 									{
										"fileversion" : 1,
										"appversion" : 										{
											"major" : 6,
											"minor" : 0,
											"revision" : 7
										}
,
										"rect" : [ 771.0, 241.0, 716.0, 648.0 ],
										"bglocked" : 0,
										"openinpresentation" : 0,
										"default_fontsize" : 12.0,
										"default_fontface" : 0,
										"default_fontname" : "Arial",
										"gridonopen" : 0,
										"gridsize" : [ 15.0, 15.0 ],
										"gridsnaponopen" : 0,
										"statusbarvisible" : 2,
										"toolbarvisible" : 1,
										"boxanimatetime" : 200,
										"imprint" : 0,
										"enablehscroll" : 1,
										"enablevscroll" : 1,
										"devicewidth" : 0.0,
										"description" : "",
										"digest" : "",
										"tags" : "",
										"boxes" : [ 											{
												"box" : 												{
													"fontname" : "Arial",
													"fontsize" : 12.0,
													"frgb" : 0.0,
													"id" : "obj-6",
													"linecount" : 2,
													"maxclass" : "comment",
													"numinlets" : 1,
													"numoutlets" : 0,
													"patching_rect" : [ 150.0, 30.0, 195.0, 33.0 ],
													"text" : "First draft: Oct. 27, 2013.\nNeeds revision (ideally by MF)."
												}

											}
, 											{
												"box" : 												{
													"fontname" : "Arial",
													"fontsize" : 12.0,
													"frgb" : 0.0,
													"id" : "obj-4",
													"linecount" : 40,
													"maxclass" : "comment",
													"numinlets" : 1,
													"numoutlets" : 0,
													"patching_rect" : [ 15.0, 75.0, 667.0, 543.0 ],
													"text" : "This panel allows you to colourize the elements of the fluid simulation.\n\nThe fluid simulation has three distinct [[qualities]] that can be individually colourized:\n\nVelocity: shows the rate of motion [[across the field]].\n e quickly will be given values that are further away from zero, while pixels where movement is slower will be given values closer to zero.\n\n[Ordinarily, this means that faster regions will be brighter and slower regions darker.]\n\nPressure: shows how much a given region is compressed due to movement.\n\nA region of bright pixels moving continuously through the input matrix (e.g., a waving hand) will create waves in the fluid. The regions in front of the wave will be more compressed, while those behind it will be more rarefied. Pixels where the force of compression is greater are assigned values that are further away from zero, while pixels where compression is lesser are given values that are nearer zero.\n\n[Ordinarily, this means regions under higher pressure will be brighter and regions where pressure is lower will be darker].\n\nDensity: []\n\nScale and Multiply (need a real explanation of what's going on)- like primary and secondary colourization of a given field\nTry setting them to distinct colours (e.g. set Scale as red and Multiply as green) to get a sense of the effect\n\nTo pass through the colours of the original video, set the colour to white. If the colour is set to black, that field will not be displayed. Any other colour will tint the field.\n\nIf saturation is turned down the tinting will be more subtle. Turning saturation up results in a more extreme tinting effect.\n\nUsing the vertical slider labeled \"scale,\" you can set a value by which the RGB colours coming from [swatch] are multiplied. The message boxes to the right of the slider will snap it to various values.\n\nSetting the slider to 0. results in a given field not being displayed. Setting it between 0. and 1. tend to keep colour values below the point of saturation/clipping, resulting in softer, more detailed output. At settings above 1., colour values tend to be pushed to the point of clipping, producing a less detailed, hard-edged psychedelic effect.\n\nInversion (negative values):\nIn order for anything to be visible when using a [[negative-scaled]] colour, you must have at least two elements of the colourizer turned on, and one of these must have a positive value. In other words, you must have something visible (positive-valued) to subtract your negative-scaled colour from."
												}

											}
, 											{
												"box" : 												{
													"comment" : "",
													"hidden" : 1,
													"id" : "obj-2",
													"maxclass" : "inlet",
													"numinlets" : 0,
													"numoutlets" : 1,
													"outlettype" : [ "" ],
													"patching_rect" : [ 15.0, 15.0, 25.0, 25.0 ]
												}

											}
, 											{
												"box" : 												{
													"fontname" : "Arial",
													"fontsize" : 12.0,
													"hidden" : 1,
													"id" : "obj-1",
													"maxclass" : "newobj",
													"numinlets" : 1,
													"numoutlets" : 2,
													"outlettype" : [ "", "" ],
													"patching_rect" : [ 15.0, 45.0, 100.0, 20.0 ],
													"save" : [ "#N", "thispatcher", ";", "#Q", "end", ";" ],
													"text" : "thispatcher"
												}

											}
 ],
										"lines" : [ 											{
												"patchline" : 												{
													"destination" : [ "obj-1", 0 ],
													"disabled" : 0,
													"hidden" : 1,
													"source" : [ "obj-2", 0 ]
												}

											}
 ]
									}
,
									"patching_rect" : [ 765.0, 120.0, 135.0, 21.0 ],
									"presentation" : 0,
									"presentation_rect" : [ 0.0, 0.0, 0.0, 0.0 ],
									"saved_object_attributes" : 									{
										"default_fontface" : 0,
										"default_fontname" : "Arial",
										"default_fontsize" : 12.0,
										"description" : "",
										"digest" : "",
										"fontface" : 0,
										"fontname" : "Arial",
										"fontsize" : 12.0,
										"globalpatchername" : "",
										"tags" : ""
									}
,
									"text" : "p fluids_colour_help",
									"textcolor" : [ 0.0, 0.0, 0.0, 1.0 ]
								}

							}
, 							{
								"box" : 								{
									"background" : 0,
									"bgcolor" : [ 0.380435, 0.380435, 0.380435, 1.0 ],
									"bgcolor2" : [ 0.867, 0.867, 0.867, 1.0 ],
									"fontface" : 0,
									"fontname" : "Verdana",
									"fontsize" : 24.0,
									"gradient" : 0,
									"hidden" : 0,
									"id" : "obj-8",
									"ignoreclick" : 0,
									"maxclass" : "message",
									"numinlets" : 2,
									"numoutlets" : 1,
									"outlettype" : [ "" ],
									"patching_rect" : [ 825.0, 45.0, 75.0, 34.0 ],
									"presentation" : 1,
									"presentation_rect" : [ 825.0, 15.0, 75.0, 34.0 ],
									"text" : "help?",
									"textcolor" : [ 0.842391, 0.842391, 0.842391, 1.0 ]
								}

							}
, 							{
								"box" : 								{
									"background" : 0,
									"bgcolor" : [ 1.0, 1.0, 1.0, 0.0 ],
									"bubble" : 0,
									"bubblepoint" : 0.5,
									"bubbleside" : 1,
									"bubbletextmargin" : 5,
									"fontface" : 0,
									"fontname" : "Verdana",
									"fontsize" : 24.0,
									"frgb" : 0.0,
									"hidden" : 0,
									"id" : "obj-6",
									"ignoreclick" : 1,
									"maxclass" : "comment",
									"numinlets" : 1,
									"numoutlets" : 0,
									"patching_rect" : [ 15.0, 105.0, 210.0, 36.0 ],
									"presentation" : 1,
									"presentation_rect" : [ 15.0, 15.0, 210.0, 36.0 ],
									"text" : "Fluids Colourizer",
									"textcolor" : [ 0.0, 0.0, 0.0, 1.0 ],
									"underline" : 0
								}

							}
, 							{
								"box" : 								{
									"args" : [ "velocityScale" ],
									"background" : 0,
									"bgcolor" : [ 1.0, 1.0, 1.0, 1.0 ],
									"bgmode" : 0,
									"border" : 0,
									"clickthrough" : 0,
									"embed" : 0,
									"enablehscroll" : 0,
									"enablevscroll" : 0,
									"hidden" : 0,
									"id" : "obj-2",
									"ignoreclick" : 0,
									"lockeddragscroll" : 0,
									"maxclass" : "bpatcher",
									"modulemode" : 0,
									"name" : "jmod.tml.fluids%.ui.panel.maxpat",
									"numinlets" : 0,
									"numoutlets" : 0,
									"offset" : [ 0.0, 0.0 ],
									"patching_rect" : [ 240.0, 150.0, 210.0, 150.0 ],
									"presentation" : 1,
									"presentation_rect" : [ 240.0, 60.0, 210.0, 150.0 ]
								}

							}
, 							{
								"box" : 								{
									"args" : [ "densityScale" ],
									"background" : 0,
									"bgcolor" : [ 1.0, 1.0, 1.0, 1.0 ],
									"bgmode" : 0,
									"border" : 0,
									"clickthrough" : 0,
									"embed" : 0,
									"enablehscroll" : 0,
									"enablevscroll" : 0,
									"hidden" : 0,
									"id" : "obj-11",
									"ignoreclick" : 0,
									"lockeddragscroll" : 0,
									"maxclass" : "bpatcher",
									"modulemode" : 0,
									"name" : "jmod.tml.fluids%.ui.panel.maxpat",
									"numinlets" : 0,
									"numoutlets" : 0,
									"offset" : [ 0.0, 0.0 ],
									"patching_rect" : [ 690.0, 315.0, 210.0, 150.0 ],
									"presentation" : 1,
									"presentation_rect" : [ 690.0, 210.0, 210.0, 150.0 ]
								}

							}
, 							{
								"box" : 								{
									"args" : [ "pressureIMultiply" ],
									"background" : 0,
									"bgcolor" : [ 1.0, 1.0, 1.0, 1.0 ],
									"bgmode" : 0,
									"border" : 0,
									"clickthrough" : 0,
									"embed" : 0,
									"enablehscroll" : 0,
									"enablevscroll" : 0,
									"hidden" : 0,
									"id" : "obj-15",
									"ignoreclick" : 0,
									"lockeddragscroll" : 0,
									"maxclass" : "bpatcher",
									"modulemode" : 0,
									"name" : "jmod.tml.fluids%.ui.panel.maxpat",
									"numinlets" : 0,
									"numoutlets" : 0,
									"offset" : [ 0.0, 0.0 ],
									"patching_rect" : [ 465.0, 315.0, 210.0, 150.0 ],
									"presentation" : 1,
									"presentation_rect" : [ 465.0, 210.0, 210.0, 150.0 ]
								}

							}
, 							{
								"box" : 								{
									"args" : [ "pressureScale" ],
									"background" : 0,
									"bgcolor" : [ 1.0, 1.0, 1.0, 1.0 ],
									"bgmode" : 0,
									"border" : 0,
									"clickthrough" : 0,
									"embed" : 0,
									"enablehscroll" : 0,
									"enablevscroll" : 0,
									"hidden" : 0,
									"id" : "obj-16",
									"ignoreclick" : 0,
									"lockeddragscroll" : 0,
									"maxclass" : "bpatcher",
									"modulemode" : 0,
									"name" : "jmod.tml.fluids%.ui.panel.maxpat",
									"numinlets" : 0,
									"numoutlets" : 0,
									"offset" : [ 0.0, 0.0 ],
									"patching_rect" : [ 240.0, 315.0, 210.0, 150.0 ],
									"presentation" : 1,
									"presentation_rect" : [ 240.0, 210.0, 210.0, 150.0 ]
								}

							}
, 							{
								"box" : 								{
									"args" : [ "pressureMultiply" ],
									"background" : 0,
									"bgcolor" : [ 1.0, 1.0, 1.0, 1.0 ],
									"bgmode" : 0,
									"border" : 0,
									"clickthrough" : 0,
									"embed" : 0,
									"enablehscroll" : 0,
									"enablevscroll" : 0,
									"hidden" : 0,
									"id" : "obj-17",
									"ignoreclick" : 0,
									"lockeddragscroll" : 0,
									"maxclass" : "bpatcher",
									"modulemode" : 0,
									"name" : "jmod.tml.fluids%.ui.panel.maxpat",
									"numinlets" : 0,
									"numoutlets" : 0,
									"offset" : [ 0.0, 0.0 ],
									"patching_rect" : [ 15.0, 315.0, 210.0, 150.0 ],
									"presentation" : 1,
									"presentation_rect" : [ 15.0, 210.0, 210.0, 150.0 ]
								}

							}
, 							{
								"box" : 								{
									"args" : [ "velocityIScale" ],
									"background" : 0,
									"bgcolor" : [ 1.0, 1.0, 1.0, 1.0 ],
									"bgmode" : 0,
									"border" : 0,
									"clickthrough" : 0,
									"embed" : 0,
									"enablehscroll" : 0,
									"enablevscroll" : 0,
									"hidden" : 0,
									"id" : "obj-3",
									"ignoreclick" : 0,
									"lockeddragscroll" : 0,
									"maxclass" : "bpatcher",
									"modulemode" : 0,
									"name" : "jmod.tml.fluids%.ui.panel.maxpat",
									"numinlets" : 0,
									"numoutlets" : 0,
									"offset" : [ 0.0, 0.0 ],
									"patching_rect" : [ 690.0, 150.0, 210.0, 150.0 ],
									"presentation" : 1,
									"presentation_rect" : [ 690.0, 60.0, 210.0, 150.0 ]
								}

							}
, 							{
								"box" : 								{
									"args" : [ "velocityIMultiply" ],
									"background" : 0,
									"bgcolor" : [ 1.0, 1.0, 1.0, 1.0 ],
									"bgmode" : 0,
									"border" : 0,
									"clickthrough" : 0,
									"embed" : 0,
									"enablehscroll" : 0,
									"enablevscroll" : 0,
									"hidden" : 0,
									"id" : "obj-5",
									"ignoreclick" : 0,
									"lockeddragscroll" : 0,
									"maxclass" : "bpatcher",
									"modulemode" : 0,
									"name" : "jmod.tml.fluids%.ui.panel.maxpat",
									"numinlets" : 0,
									"numoutlets" : 0,
									"offset" : [ 0.0, 0.0 ],
									"patching_rect" : [ 465.0, 150.0, 210.0, 150.0 ],
									"presentation" : 1,
									"presentation_rect" : [ 465.0, 60.0, 210.0, 150.0 ]
								}

							}
, 							{
								"box" : 								{
									"args" : [ "velocityMultiply" ],
									"background" : 0,
									"bgcolor" : [ 1.0, 1.0, 1.0, 1.0 ],
									"bgmode" : 0,
									"border" : 0,
									"clickthrough" : 0,
									"embed" : 0,
									"enablehscroll" : 0,
									"enablevscroll" : 0,
									"hidden" : 0,
									"id" : "obj-1",
									"ignoreclick" : 0,
									"lockeddragscroll" : 0,
									"maxclass" : "bpatcher",
									"modulemode" : 0,
									"name" : "jmod.tml.fluids%.ui.panel.maxpat",
									"numinlets" : 0,
									"numoutlets" : 0,
									"offset" : [ 0.0, 0.0 ],
									"patching_rect" : [ 15.0, 150.0, 210.0, 150.0 ],
									"presentation" : 1,
									"presentation_rect" : [ 15.0, 60.0, 210.0, 150.0 ]
								}

							}
, 							{
								"box" : 								{
									"background" : 0,
									"bgcolor" : [ 0.867, 0.867, 0.867, 1.0 ],
									"bgcolor2" : [ 0.867, 0.867, 0.867, 1.0 ],
									"fontface" : 0,
									"fontname" : "Verdana",
									"fontsize" : 10.0,
									"gradient" : 0,
									"hidden" : 1,
									"id" : "obj-26",
									"ignoreclick" : 0,
									"linecount" : 2,
									"maxclass" : "message",
									"numinlets" : 2,
									"numoutlets" : 1,
									"outlettype" : [ "" ],
									"patching_rect" : [ 75.0, 35.0, 109.0, 29.0 ],
									"presentation" : 0,
									"presentation_rect" : [ 0.0, 0.0, 0.0, 0.0 ],
									"text" : "window flags grow, window exec",
									"textcolor" : [ 0.0, 0.0, 0.0, 1.0 ]
								}

							}
, 							{
								"box" : 								{
									"background" : 0,
									"bgcolor" : [ 0.867, 0.867, 0.867, 1.0 ],
									"bgcolor2" : [ 0.867, 0.867, 0.867, 1.0 ],
									"fontface" : 0,
									"fontname" : "Verdana",
									"fontsize" : 10.0,
									"gradient" : 0,
									"hidden" : 1,
									"id" : "obj-27",
									"ignoreclick" : 0,
									"maxclass" : "message",
									"numinlets" : 2,
									"numoutlets" : 1,
									"outlettype" : [ "" ],
									"patching_rect" : [ 195.0, 35.000008, 448.0, 17.0 ],
									"presentation" : 0,
									"presentation_rect" : [ 0.0, 0.0, 0.0, 0.0 ],
									"text" : "window size 0 45 930 405, window flags grow, window exec, savewindow 1",
									"textcolor" : [ 0.0, 0.0, 0.0, 1.0 ]
								}

							}
, 							{
								"box" : 								{
									"background" : 0,
									"bgcolor" : [ 1.0, 1.0, 1.0, 1.0 ],
									"color" : [ 0.8, 0.84, 0.71, 1.0 ],
									"fontface" : 0,
									"fontname" : "Verdana",
									"fontsize" : 10.0,
									"hidden" : 1,
									"id" : "obj-30",
									"ignoreclick" : 0,
									"maxclass" : "newobj",
									"numinlets" : 1,
									"numoutlets" : 1,
									"outlettype" : [ "front" ],
									"patcher" : 									{
										"fileversion" : 1,
										"appversion" : 										{
											"major" : 6,
											"minor" : 0,
											"revision" : 7
										}
,
										"rect" : [ 840.0, 548.0, 600.0, 426.0 ],
										"bglocked" : 0,
										"openinpresentation" : 0,
										"default_fontsize" : 10.0,
										"default_fontface" : 0,
										"default_fontname" : "Verdana",
										"gridonopen" : 0,
										"gridsize" : [ 5.0, 5.0 ],
										"gridsnaponopen" : 0,
										"statusbarvisible" : 2,
										"toolbarvisible" : 1,
										"boxanimatetime" : 200,
										"imprint" : 0,
										"enablehscroll" : 1,
										"enablevscroll" : 1,
										"devicewidth" : 0.0,
										"description" : "",
										"digest" : "",
										"tags" : "",
										"boxes" : [ 											{
												"box" : 												{
													"fontname" : "Verdana",
													"fontsize" : 10.0,
													"id" : "obj-2",
													"maxclass" : "newobj",
													"numinlets" : 1,
													"numoutlets" : 2,
													"outlettype" : [ "", "" ],
													"patching_rect" : [ 50.0, 50.0, 144.0, 19.0 ],
													"text" : "jcom.oscroute /view/panel"
												}

											}
, 											{
												"box" : 												{
													"fontname" : "Verdana",
													"fontsize" : 10.0,
													"id" : "obj-3",
													"maxclass" : "newobj",
													"numinlets" : 1,
													"numoutlets" : 1,
													"outlettype" : [ "front" ],
													"patching_rect" : [ 50.0, 92.0, 40.0, 19.0 ],
													"text" : "t front"
												}

											}
, 											{
												"box" : 												{
													"comment" : "",
													"id" : "obj-4",
													"maxclass" : "inlet",
													"numinlets" : 0,
													"numoutlets" : 1,
													"outlettype" : [ "" ],
													"patching_rect" : [ 50.0, 30.0, 15.0, 15.0 ]
												}

											}
, 											{
												"box" : 												{
													"comment" : "",
													"id" : "obj-5",
													"maxclass" : "outlet",
													"numinlets" : 1,
													"numoutlets" : 0,
													"patching_rect" : [ 50.0, 114.0, 15.0, 15.0 ]
												}

											}
 ],
										"lines" : [ 											{
												"patchline" : 												{
													"destination" : [ "obj-3", 0 ],
													"disabled" : 0,
													"hidden" : 0,
													"source" : [ "obj-2", 0 ]
												}

											}
, 											{
												"patchline" : 												{
													"destination" : [ "obj-5", 0 ],
													"disabled" : 0,
													"hidden" : 0,
													"source" : [ "obj-3", 0 ]
												}

											}
, 											{
												"patchline" : 												{
													"destination" : [ "obj-2", 0 ],
													"disabled" : 0,
													"hidden" : 0,
													"source" : [ "obj-4", 0 ]
												}

											}
 ]
									}
,
									"patching_rect" : [ 15.0, 35.000008, 42.0, 19.0 ],
									"presentation" : 0,
									"presentation_rect" : [ 0.0, 0.0, 0.0, 0.0 ],
									"saved_object_attributes" : 									{
										"default_fontface" : 0,
										"default_fontname" : "Verdana",
										"default_fontsize" : 10.0,
										"description" : "",
										"digest" : "",
										"fontface" : 0,
										"fontname" : "Verdana",
										"fontsize" : 10.0,
										"globalpatchername" : "",
										"tags" : ""
									}
,
									"text" : "p front",
									"textcolor" : [ 0.0, 0.0, 0.0, 1.0 ]
								}

							}
, 							{
								"box" : 								{
									"background" : 0,
									"bgcolor" : [ 1.0, 1.0, 1.0, 1.0 ],
									"color" : [ 0.8, 0.84, 0.71, 1.0 ],
									"fontface" : 0,
									"fontname" : "Verdana",
									"fontsize" : 10.0,
									"hidden" : 1,
									"id" : "obj-34",
									"ignoreclick" : 0,
									"maxclass" : "newobj",
									"numinlets" : 1,
									"numoutlets" : 2,
									"outlettype" : [ "", "" ],
									"patching_rect" : [ 15.0, 75.0, 65.0, 19.0 ],
									"presentation" : 0,
									"presentation_rect" : [ 0.0, 0.0, 0.0, 0.0 ],
									"save" : [ "#N", "thispatcher", ";", "#Q", "window", "flags", "grow", "close", "zoom", "nofloat", "menu", "minimize", ";", "#Q", "window", "constrain", 50, 50, 32768, 32768, ";", "#Q", "window", "size", 272, 368, 1202, 728, ";", "#Q", "window", "title", ";", "#Q", "window", "exec", ";", "#Q", "savewindow", 1, ";", "#Q", "end", ";" ],
									"text" : "thispatcher",
									"textcolor" : [ 0.0, 0.0, 0.0, 1.0 ]
								}

							}
, 							{
								"box" : 								{
									"background" : 0,
									"comment" : "",
									"hidden" : 1,
									"id" : "obj-35",
									"ignoreclick" : 0,
									"maxclass" : "inlet",
									"numinlets" : 0,
									"numoutlets" : 1,
									"outlettype" : [ "" ],
									"patching_rect" : [ 15.0, 5.000006, 15.0, 15.0 ],
									"presentation" : 0,
									"presentation_rect" : [ 0.0, 0.0, 0.0, 0.0 ]
								}

							}
 ],
						"lines" : [ 							{
								"patchline" : 								{
									"color" : [ 0.8, 0.8, 0.8, 0.9 ],
									"destination" : [ "obj-9", 0 ],
									"disabled" : 0,
									"hidden" : 0,
									"source" : [ "obj-14", 0 ]
								}

							}
, 							{
								"patchline" : 								{
									"color" : [ 0.8, 0.8, 0.8, 0.9 ],
									"destination" : [ "obj-34", 0 ],
									"disabled" : 0,
									"hidden" : 1,
									"midpoints" : [ 84.5, 69.000008, 24.5, 69.000008 ],
									"source" : [ "obj-26", 0 ]
								}

							}
, 							{
								"patchline" : 								{
									"color" : [ 0.8, 0.8, 0.8, 0.9 ],
									"destination" : [ "obj-34", 0 ],
									"disabled" : 0,
									"hidden" : 1,
									"midpoints" : [ 204.5, 69.000008, 24.5, 69.000008 ],
									"source" : [ "obj-27", 0 ]
								}

							}
, 							{
								"patchline" : 								{
									"color" : [ 0.8, 0.8, 0.8, 0.9 ],
									"destination" : [ "obj-34", 0 ],
									"disabled" : 0,
									"hidden" : 1,
									"source" : [ "obj-30", 0 ]
								}

							}
, 							{
								"patchline" : 								{
									"color" : [ 0.8, 0.8, 0.8, 0.9 ],
									"destination" : [ "obj-30", 0 ],
									"disabled" : 0,
									"hidden" : 1,
									"source" : [ "obj-35", 0 ]
								}

							}
, 							{
								"patchline" : 								{
									"color" : [ 0.8, 0.8, 0.8, 0.9 ],
									"destination" : [ "obj-14", 0 ],
									"disabled" : 0,
									"hidden" : 0,
									"source" : [ "obj-8", 0 ]
								}

							}
 ]
					}
,
					"patching_rect" : [ 255.0, 375.0, 46.0, 19.0 ],
					"saved_object_attributes" : 					{
						"default_fontface" : 0,
						"default_fontname" : "Verdana",
						"default_fontsize" : 12.0,
						"description" : "",
						"digest" : "",
						"fontface" : 0,
						"fontname" : "Verdana",
						"fontsize" : 12.0,
						"globalpatchername" : "",
						"tags" : ""
					}
,
					"text" : "p panel"
				}

			}
, 			{
				"box" : 				{
					"fontname" : "Verdana",
					"fontsize" : 10.0,
					"id" : "obj-23",
					"linecount" : 2,
					"maxclass" : "newobj",
					"numinlets" : 1,
					"numoutlets" : 2,
					"outlettype" : [ "", "" ],
					"patching_rect" : [ 60.0, 475.0, 284.0, 31.0 ],
					"text" : "jcom.return return_c @range/bounds 0. 1. @description \"Document what this return does...\""
				}

			}
, 			{
				"box" : 				{
					"fontname" : "Verdana",
					"fontsize" : 10.0,
					"id" : "obj-24",
					"maxclass" : "newobj",
					"numinlets" : 3,
					"numoutlets" : 5,
					"outlettype" : [ "", "", "", "", "" ],
					"patching_rect" : [ 160.0, 330.0, 73.0, 19.0 ],
					"text" : "jcom.in 3"
				}

			}
, 			{
				"box" : 				{
					"fontname" : "Verdana",
					"fontsize" : 10.0,
					"id" : "obj-37",
					"maxclass" : "newobj",
					"numinlets" : 1,
					"numoutlets" : 2,
					"outlettype" : [ "", "" ],
					"patching_rect" : [ 14.0, 211.0, 526.0, 19.0 ],
					"text" : "jcom.hub @module_type video @description \"Fluid simulation based on the Navier-Stokes equations.\"",
					"varname" : "jcom.hub"
				}

			}
, 			{
				"box" : 				{
					"comment" : "message",
					"id" : "obj-38",
					"maxclass" : "inlet",
					"numinlets" : 0,
					"numoutlets" : 1,
					"outlettype" : [ "" ],
					"patching_rect" : [ 14.0, 139.0, 22.0, 22.0 ]
				}

			}
, 			{
				"box" : 				{
					"comment" : "message",
					"id" : "obj-39",
					"maxclass" : "outlet",
					"numinlets" : 1,
					"numoutlets" : 0,
					"patching_rect" : [ 14.0, 251.0, 22.0, 22.0 ]
				}

			}
, 			{
				"box" : 				{
					"fontname" : "Verdana",
					"fontsize" : 10.0,
					"id" : "obj-41",
					"maxclass" : "message",
					"numinlets" : 2,
					"numoutlets" : 1,
					"outlettype" : [ "" ],
					"patching_rect" : [ 315.0, 375.0, 216.0, 17.0 ],
					"text" : "/panel/open"
				}

			}
, 			{
				"box" : 				{
					"has_bypass" : 1,
					"has_mute" : 1,
					"has_panel" : 1,
					"has_preview" : 1,
					"id" : "obj-16",
					"maxclass" : "jcom.ui",
					"numinlets" : 1,
					"numoutlets" : 1,
					"outlettype" : [ "" ],
					"prefix" : "video",
					"presentation" : 1,
					"presentation_rect" : [ 0.0, 0.0, 300.0, 350.0 ],
					"text" : "/myFluids"
				}

			}
, 			{
				"box" : 				{
					"fontname" : "Verdana",
					"fontsize" : 10.0,
					"id" : "obj-8",
					"linecount" : 2,
					"maxclass" : "newobj",
					"numinlets" : 1,
					"numoutlets" : 3,
					"outlettype" : [ "", "", "" ],
					"patching_rect" : [ 585.0, 510.0, 435.0, 31.0 ],
					"text" : "jcom.parameter viscosity @type decimal @range/clipmode none @range/bounds 0. 1000. @repetitions/allow 0 @ramp/drive none @description \"//Viscosity of fluids.\"",
					"varname" : "viscosity"
				}

			}
, 			{
				"box" : 				{
					"fontname" : "Verdana",
					"fontsize" : 10.0,
					"id" : "obj-56",
					"linecount" : 2,
					"maxclass" : "newobj",
					"numinlets" : 1,
					"numoutlets" : 3,
					"outlettype" : [ "", "", "" ],
					"patching_rect" : [ 585.0, 1395.0, 465.0, 31.0 ],
					"text" : "jcom.parameter velocityOutWidth @type integer @range/clipmode none @range/bounds 0. 1000. @repetitions/allow 0 @ramp/drive none @description \"//velocity out width.\"",
					"varname" : "velocityOutWidth"
				}

			}
, 			{
				"box" : 				{
					"fontname" : "Verdana",
					"fontsize" : 10.0,
					"id" : "obj-1",
					"maxclass" : "newobj",
					"numinlets" : 1,
					"numoutlets" : 3,
					"outlettype" : [ "", "", "" ],
					"patching_rect" : [ 570.0, 1500.0, 564.0, 19.0 ],
					"text" : "jcom.parameter reset @type generic @range/clipmode none @repetitions/allow 0 @description \"Reset fluids.\"",
					"varname" : "reset"
				}

			}
 ],
		"lines" : [ 			{
				"patchline" : 				{
					"destination" : [ "obj-4", 0 ],
					"disabled" : 0,
					"hidden" : 0,
					"source" : [ "obj-1", 0 ]
				}

			}
, 			{
				"patchline" : 				{
					"destination" : [ "obj-4", 0 ],
					"disabled" : 0,
					"hidden" : 0,
					"source" : [ "obj-10", 0 ]
				}

			}
, 			{
				"patchline" : 				{
					"destination" : [ "obj-8", 0 ],
					"disabled" : 0,
					"hidden" : 0,
					"source" : [ "obj-11", 0 ]
				}

			}
, 			{
				"patchline" : 				{
					"destination" : [ "obj-25", 0 ],
					"disabled" : 0,
					"hidden" : 0,
					"source" : [ "obj-12", 0 ]
				}

			}
, 			{
				"patchline" : 				{
					"destination" : [ "obj-37", 0 ],
					"disabled" : 0,
					"hidden" : 0,
					"source" : [ "obj-14", 0 ]
				}

			}
, 			{
				"patchline" : 				{
					"destination" : [ "obj-37", 0 ],
					"disabled" : 0,
					"hidden" : 0,
					"source" : [ "obj-15", 0 ]
				}

			}
, 			{
				"patchline" : 				{
					"destination" : [ "obj-22", 0 ],
					"disabled" : 0,
					"hidden" : 0,
					"source" : [ "obj-16", 0 ]
				}

			}
, 			{
				"patchline" : 				{
					"destination" : [ "obj-24", 1 ],
					"disabled" : 0,
					"hidden" : 0,
					"source" : [ "obj-165", 0 ]
				}

			}
, 			{
				"patchline" : 				{
					"destination" : [ "obj-24", 2 ],
					"disabled" : 0,
					"hidden" : 0,
					"source" : [ "obj-166", 0 ]
				}

			}
, 			{
				"patchline" : 				{
					"destination" : [ "obj-29", 0 ],
					"disabled" : 0,
					"hidden" : 0,
					"source" : [ "obj-18", 0 ]
				}

			}
, 			{
				"patchline" : 				{
					"destination" : [ "obj-86", 0 ],
					"disabled" : 0,
					"hidden" : 0,
					"source" : [ "obj-2", 1 ]
				}

			}
, 			{
				"patchline" : 				{
					"destination" : [ "obj-37", 0 ],
					"disabled" : 0,
					"hidden" : 0,
					"source" : [ "obj-21", 0 ]
				}

			}
, 			{
				"patchline" : 				{
					"destination" : [ "obj-41", 0 ],
					"disabled" : 0,
					"hidden" : 0,
					"source" : [ "obj-24", 3 ]
				}

			}
, 			{
				"patchline" : 				{
					"destination" : [ "obj-42", 0 ],
					"disabled" : 0,
					"hidden" : 0,
					"source" : [ "obj-24", 3 ]
				}

			}
, 			{
				"patchline" : 				{
					"destination" : [ "obj-9", 0 ],
					"disabled" : 0,
					"hidden" : 0,
					"source" : [ "obj-24", 3 ]
				}

			}
, 			{
				"patchline" : 				{
					"destination" : [ "obj-9", 3 ],
					"disabled" : 0,
					"hidden" : 0,
					"source" : [ "obj-24", 2 ]
				}

			}
, 			{
				"patchline" : 				{
					"destination" : [ "obj-9", 2 ],
					"disabled" : 0,
					"hidden" : 0,
					"source" : [ "obj-24", 1 ]
				}

			}
, 			{
				"patchline" : 				{
					"destination" : [ "obj-9", 1 ],
					"disabled" : 0,
					"hidden" : 0,
					"source" : [ "obj-24", 0 ]
				}

			}
, 			{
				"patchline" : 				{
					"destination" : [ "obj-12", 0 ],
					"disabled" : 0,
					"hidden" : 0,
					"source" : [ "obj-25", 0 ]
				}

			}
, 			{
				"patchline" : 				{
					"destination" : [ "obj-28", 0 ],
					"disabled" : 0,
					"hidden" : 0,
					"source" : [ "obj-27", 0 ]
				}

			}
, 			{
				"patchline" : 				{
					"destination" : [ "obj-27", 0 ],
					"disabled" : 0,
					"hidden" : 0,
					"source" : [ "obj-28", 0 ]
				}

			}
, 			{
				"patchline" : 				{
					"destination" : [ "obj-18", 0 ],
					"disabled" : 0,
					"hidden" : 0,
					"source" : [ "obj-29", 0 ]
				}

			}
, 			{
				"patchline" : 				{
					"destination" : [ "obj-50", 0 ],
					"disabled" : 0,
					"hidden" : 0,
					"source" : [ "obj-30", 0 ]
				}

			}
, 			{
				"patchline" : 				{
					"destination" : [ "obj-74", 0 ],
					"disabled" : 0,
					"hidden" : 0,
					"source" : [ "obj-31", 0 ]
				}

			}
, 			{
				"patchline" : 				{
					"destination" : [ "obj-34", 0 ],
					"disabled" : 0,
					"hidden" : 0,
					"source" : [ "obj-32", 0 ]
				}

			}
, 			{
				"patchline" : 				{
					"destination" : [ "obj-44", 0 ],
					"disabled" : 0,
					"hidden" : 0,
					"source" : [ "obj-33", 0 ]
				}

			}
, 			{
				"patchline" : 				{
					"destination" : [ "obj-32", 0 ],
					"disabled" : 0,
					"hidden" : 0,
					"source" : [ "obj-34", 0 ]
				}

			}
, 			{
				"patchline" : 				{
					"destination" : [ "obj-33", 0 ],
					"disabled" : 0,
					"hidden" : 0,
					"source" : [ "obj-35", 0 ]
				}

			}
, 			{
				"patchline" : 				{
					"destination" : [ "obj-40", 0 ],
					"disabled" : 0,
					"hidden" : 0,
					"source" : [ "obj-36", 0 ]
				}

			}
, 			{
				"patchline" : 				{
					"destination" : [ "obj-19", 1 ],
					"disabled" : 0,
					"hidden" : 0,
					"source" : [ "obj-37", 0 ]
				}

			}
, 			{
				"patchline" : 				{
					"destination" : [ "obj-39", 0 ],
					"disabled" : 0,
					"hidden" : 0,
					"source" : [ "obj-37", 0 ]
				}

			}
, 			{
				"patchline" : 				{
					"destination" : [ "obj-37", 0 ],
					"disabled" : 0,
					"hidden" : 0,
					"source" : [ "obj-38", 0 ]
				}

			}
, 			{
				"patchline" : 				{
					"destination" : [ "obj-1", 0 ],
					"disabled" : 0,
					"hidden" : 0,
					"source" : [ "obj-4", 0 ]
				}

			}
, 			{
				"patchline" : 				{
					"destination" : [ "obj-36", 0 ],
					"disabled" : 0,
					"hidden" : 0,
					"source" : [ "obj-40", 0 ]
				}

			}
, 			{
				"patchline" : 				{
					"destination" : [ "obj-46", 0 ],
					"disabled" : 0,
					"hidden" : 0,
					"source" : [ "obj-43", 0 ]
				}

			}
, 			{
				"patchline" : 				{
					"destination" : [ "obj-47", 0 ],
					"disabled" : 0,
					"hidden" : 0,
					"source" : [ "obj-44", 0 ]
				}

			}
, 			{
				"patchline" : 				{
					"destination" : [ "obj-43", 0 ],
					"disabled" : 0,
					"hidden" : 0,
					"source" : [ "obj-46", 0 ]
				}

			}
, 			{
				"patchline" : 				{
					"destination" : [ "obj-31", 0 ],
					"disabled" : 0,
					"hidden" : 0,
					"source" : [ "obj-47", 0 ]
				}

			}
, 			{
				"patchline" : 				{
					"destination" : [ "obj-51", 0 ],
					"disabled" : 0,
					"hidden" : 0,
					"source" : [ "obj-48", 0 ]
				}

			}
, 			{
				"patchline" : 				{
					"destination" : [ "obj-35", 0 ],
					"disabled" : 0,
					"hidden" : 0,
					"source" : [ "obj-49", 0 ]
				}

			}
, 			{
				"patchline" : 				{
					"destination" : [ "obj-163", 0 ],
					"disabled" : 0,
					"hidden" : 0,
					"source" : [ "obj-5", 1 ]
				}

			}
, 			{
				"patchline" : 				{
					"destination" : [ "obj-6", 0 ],
					"disabled" : 0,
					"hidden" : 0,
					"source" : [ "obj-5", 0 ]
				}

			}
, 			{
				"patchline" : 				{
					"destination" : [ "obj-30", 0 ],
					"disabled" : 0,
					"hidden" : 0,
					"source" : [ "obj-50", 0 ]
				}

			}
, 			{
				"patchline" : 				{
					"destination" : [ "obj-48", 0 ],
					"disabled" : 0,
					"hidden" : 0,
					"source" : [ "obj-51", 0 ]
				}

			}
, 			{
				"patchline" : 				{
					"destination" : [ "obj-54", 0 ],
					"disabled" : 0,
					"hidden" : 0,
					"source" : [ "obj-52", 0 ]
				}

			}
, 			{
				"patchline" : 				{
					"destination" : [ "obj-52", 0 ],
					"disabled" : 0,
					"hidden" : 0,
					"source" : [ "obj-53", 0 ]
				}

			}
, 			{
				"patchline" : 				{
					"destination" : [ "obj-83", 0 ],
					"disabled" : 0,
					"hidden" : 0,
					"source" : [ "obj-54", 0 ]
				}

			}
, 			{
				"patchline" : 				{
					"destination" : [ "obj-58", 0 ],
					"disabled" : 0,
					"hidden" : 0,
					"source" : [ "obj-56", 0 ]
				}

			}
, 			{
				"patchline" : 				{
					"destination" : [ "obj-56", 0 ],
					"disabled" : 0,
					"hidden" : 0,
					"source" : [ "obj-58", 0 ]
				}

			}
, 			{
				"patchline" : 				{
					"destination" : [ "obj-60", 0 ],
					"disabled" : 0,
					"hidden" : 0,
					"source" : [ "obj-59", 0 ]
				}

			}
, 			{
				"patchline" : 				{
					"destination" : [ "obj-59", 0 ],
					"disabled" : 0,
					"hidden" : 0,
					"source" : [ "obj-60", 0 ]
				}

			}
, 			{
				"patchline" : 				{
					"destination" : [ "obj-24", 0 ],
					"disabled" : 0,
					"hidden" : 0,
					"source" : [ "obj-7", 0 ]
				}

			}
, 			{
				"patchline" : 				{
					"destination" : [ "obj-53", 0 ],
					"disabled" : 0,
					"hidden" : 0,
					"source" : [ "obj-74", 0 ]
				}

			}
, 			{
				"patchline" : 				{
					"destination" : [ "obj-49", 0 ],
					"disabled" : 0,
					"hidden" : 0,
					"source" : [ "obj-78", 0 ]
				}

			}
, 			{
				"patchline" : 				{
					"destination" : [ "obj-11", 0 ],
					"disabled" : 0,
					"hidden" : 0,
					"source" : [ "obj-8", 0 ]
				}

			}
, 			{
				"patchline" : 				{
					"destination" : [ "obj-78", 0 ],
					"disabled" : 0,
					"hidden" : 0,
					"source" : [ "obj-83", 0 ]
				}

			}
, 			{
				"patchline" : 				{
					"destination" : [ "obj-2", 0 ],
					"disabled" : 0,
					"hidden" : 0,
					"source" : [ "obj-86", 0 ]
				}

			}
, 			{
				"patchline" : 				{
					"destination" : [ "obj-5", 1 ],
					"disabled" : 0,
					"hidden" : 0,
					"source" : [ "obj-9", 2 ]
				}

			}
, 			{
				"patchline" : 				{
					"destination" : [ "obj-5", 0 ],
					"disabled" : 0,
					"hidden" : 0,
					"source" : [ "obj-9", 1 ]
				}

			}
 ]
	}

}
