max v2;#N vpatcher 225 44 1182 764;#P origin 0 -41;#P comment 43 32 213 196626 forcetest_1227;#P comment 258 32 143 196617 Yoichiro Serita © 2003 Topological Media Lab;#P number 808 120 43 9 0 0 0 3 0 0 0 156 179 255 222 222 222 0 0 0;#P number 763 120 43 9 0 0 0 3 0 0 0 156 179 255 222 222 222 0 0 0;#P number 718 120 43 9 0 0 0 3 0 0 0 156 179 255 222 222 222 0 0 0;#P message 76 150 28 196617 bang;#P message 338 150 28 196617 bang;#P message 745 434 14 196617 1;#P newex 745 412 45 196617 loadbang;#P newex 673 168 27 196617 t b l;#P newex 673 146 146 196617 pak 0 0 0 0;#P newex 587 156 35 196617 r pos1;#B color 12;#P newex 625 156 35 196617 r pos2;#B color 12;#P message 420 199 35 196617 \$1 \$2;#P newex 329 99 48 196617 unpack;#P newex 329 77 32 196617 r np2;#B color 12;#P newex 420 218 35 196617 s pos2;#B color 12;#P newex 329 206 53 196617 t b b b l;#P number 367 122 35 9 0 0 0 3 0 0 0 255 227 23 222 222 222 0 0 0;#P number 329 122 35 9 0 0 0 3 0 0 0 255 227 23 222 222 222 0 0 0;#P newex 329 170 86 196617 pack 0 0 0;#P message 420 269 65 196617 offset \$1 \$2;#P number 405 122 35 9 0 0 0 3 0 0 0 156 179 255 222 222 222 0 0 0;#P newex 357 241 73 196617 selfforce1225;#P newex 343 345 155 196617 jit.matrix wow2 1 char 320 240;#P newex 357 300 74 196617 jit.fill wow2 0;#P comment 279 124 46 196617 (x2 \, y2);#P comment 444 122 53 196617 prameter2;#P message 160 198 35 196617 \$1 \$2;#P comment 721 102 58 196617 prameters;#P comment 561 108 61 196617 line (on/off);#P comment 208 779 100 196617 position by mouse;#N vpreset 10;#X append 1 2 10 122 142 number int 185 \; 13 122 66 number int 115 \; 14 122 104 number int 93 \; 22 120 673 number int 0 \; 81 120 808 number int 0 \; 42 723 106 number int;#X append 1 2 2 \; 49 124 570 toggle int 0 \; 61 122 405 number int 66 \; 64 122 329 number int 251 \; 65 122 367 number int 168 \;;#X append 2 2 10 122 142 number int 185 \; 13 122 66 number int 88 \; 14 122 104 number int 77 \; 22 120 673 number int 1000 \; 42 723 106 number int 1 \; 49 124 570 toggle int;#X append 2 2 1 \; 61 122 405 number int 66 \; 64 122 329 number int 251 \; 65 122 367 number int 168 \; 79 120 718 number int 800 \; 80 120 763 number int 1 \; 81 120 808;#X append 2 2 number int 1 \;;#X append 3 2 10 122 142 number int 185 \; 13 122 66 number int 88 \; 14 122 104 number int 67 \; 22 120 673 number int -1000 \; 42 723 106 number int 1 \; 49 124 570 toggle int;#X append 3 2 1 \; 61 122 405 number int 66 \; 64 122 329 number int 251 \; 65 122 367 number int 168 \; 79 120 718 number int 3000 \; 80 120 763 number int 2 \; 81 120 808;#X append 3 2 number int 1 \;;#X append 4 2 10 122 142 number int 185 \; 13 122 66 number int 103 \; 14 122 104 number int 109 \; 22 120 673 number int -426 \; 42 723 106 number int 1 \; 49 124 570 toggle int;#X append 4 2 1 \; 61 122 405 number int 66 \; 64 122 329 number int 257 \; 65 122 367 number int 174 \; 79 120 718 number int 6 \; 80 120 763 number int 1 \; 81 120 808;#X append 4 2 number int 5 \;;#X append 5 2 10 122 142 number int 185 \; 13 122 66 number int 98 \; 14 122 104 number int 85 \; 22 120 673 number int 43 \; 42 723 106 number int 2 \; 49 124 570 toggle int;#X append 5 2 1 \; 61 122 405 number int 66 \; 64 122 329 number int 241 \; 65 122 367 number int 182 \; 79 120 718 number int 6 \; 80 120 763 number int 2 \; 81 120 808;#X append 5 2 number int 7 \;;#X append 6 2 10 122 142 number int 185 \; 13 122 66 number int 147 \; 14 122 104 number int 89 \; 22 120 673 number int 78 \; 42 723 106 number int 2 \; 49 124 570 toggle int;#X append 6 2 1 \; 61 122 405 number int 66 \; 64 122 329 number int 228 \; 65 122 367 number int 168 \; 79 120 718 number int -73 \; 80 120 763 number int 1 \; 81 120 808;#X append 6 2 number int 7 \;;#X append 7 2 10 122 142 number int 185 \; 13 122 66 number int 152 \; 14 122 104 number int 105 \; 22 120 673 number int 109 \; 42 723 106 number int 1 \; 49 124 570 toggle int;#X append 7 2 1 \; 61 122 405 number int 66 \; 64 122 329 number int 228 \; 65 122 367 number int 168 \; 79 120 718 number int -33 \; 80 120 763 number int 4 \; 81 120 808;#X append 7 2 number int 4 \;;#X append 8 2 10 122 142 number int 185 \; 13 122 66 number int 221 \; 14 122 104 number int 169 \; 22 120 673 number int -36 \; 42 723 106 number int 2 \; 49 124 570 toggle int;#X append 8 2 1 \; 61 122 405 number int 66 \; 64 122 329 number int 92 \; 65 122 367 number int 74 \; 79 120 718 number int -33 \; 80 120 763 number int 4 \; 81 120 808;#X append 8 2 number int 3 \;;#X append 9 2 10 122 142 number int 185 \; 13 122 66 number int 100 \; 14 122 104 number int 85 \; 22 120 673 number int 48 \; 42 723 106 number int 1 \; 49 124 570 toggle int;#X append 9 2 1 \; 61 122 405 number int 66 \; 64 122 329 number int 254 \; 65 122 367 number int 182 \; 79 120 718 number int 5 \; 80 120 763 number int 12 \; 81 120 808;#X append 9 2 number int 2 \;;#X append 10 2 10 122 142 number int 185 \; 13 122 66 number int 213 \; 14 122 104 number int 169 \; 22 120 673 number int -97 \; 42 723 106 number int 2 \; 49 124 570 toggle int;#X append 10 2 1 \; 61 122 405 number int 66 \; 64 122 329 number int 93 \; 65 122 367 number int 79 \; 79 120 718 number int -47 \; 80 120 763 number int 3 \; 81 120 808;#X append 10 2 number int 5 \;;#P preset 745 455 66 29;#P message 512 345 55 196617 clear \, bang;#B color 9;#P toggle 570 124 29 0;#P newex 570 227 27 196617 gate;#P newex 66 99 48 196617 unpack;#P newex 66 77 32 196617 r np1;#B color 12;#P newex 106 771 32 196617 s np1;#B color 12;#P newex 139 771 32 196617 s np2;#B color 12;#P newex 106 746 43 196617 gate 2;#P number 106 723 35 9 0 0 0 3 0 0 0 221 221 221 222 222 222 0 0 0;#P newex 168 688 120 196617 if $i1 < $i2 then 1 else 2;#P newex 186 613 35 196617 r pos1;#B color 12;#P newex 168 638 28 196617 Lsub;#P newex 168 663 42 196617 L2norm;#P newex 296 613 35 196617 r pos2;#B color 12;#P newex 160 217 35 196617 s pos1;#B color 12;#P newex 278 638 28 196617 Lsub;#P message 139 578 35 196617 \$1 \$2;#P newex 278 663 42 196617 L2norm;#P newex 139 552 63 196617 route mouse;#P newex 736 201 26 196617 s rd;#P newex 316 241 26 196617 s rd;#P newex 29 313 26 196617 r rd;#P user jit.pwindow 517 558 322 242 0 1 0 0 1 0;#P newex 518 531 62 196617 jit.op @op +;#P newex 587 201 144 196617 pak 0 0 0 0 0 0 0 0;#P user jit.pwindow 602 408 82 62 0 1 0 0 1 0;#P newex 570 251 40 196617 t b b l;#P message 648 310 65 196617 offset \$1 \$2;#P number 673 120 43 9 0 0 0 3 0 0 0 156 179 255 222 222 222 0 0 0;#P newex 585 286 73 196617 twoforce1225;#P newex 570 378 155 196617 jit.matrix wow3 1 char 320 240;#P newex 585 345 74 196617 jit.fill wow3 0;#P user jit.pwindow 290 448 82 62 0 1 0 0 1 0;#P newex 291 424 62 196617 jit.op @op +;#P user jit.pwindow 377 373 82 62 0 1 0 0 1 0;#P newex 66 198 40 196617 t b b l;#P number 104 122 35 9 0 0 0 3 0 0 0 255 227 23 222 222 222 0 0 0;#P number 66 122 35 9 0 0 0 3 0 0 0 255 227 23 222 222 222 0 0 0;#P newex 66 170 86 196617 pack 0 0 0;#P message 144 263 65 196617 offset \$1 \$2;#P number 142 122 35 9 0 0 0 3 0 0 0 156 179 255 222 222 222 0 0 0;#P newex 81 235 73 196617 selfforce1225;#P newex 66 343 155 196617 jit.matrix wow1 1 char 320 240;#P newex 81 294 74 196617 jit.fill wow1 0;#P user jit.pwindow 65 371 82 62 0 1 0 0 1 0;#P user panel 83 535 265 263;#X brgb 233 231 248;#X frgb 0 0 0;#X border 0;#X rounded 0;#X shadow 0;#X done;#P comment 16 124 46 196617 (x1 \, y1);#P comment 181 122 53 196617 prameter1;#P comment 736 488 93 196620 1. double click preset;#P comment 614 538 161 196620 2. pick circle and drag it!;#P user panel 725 403 112 124;#X brgb 200 147 80;#X frgb 0 0 0;#X border 0;#X rounded 0;#X shadow 0;#X done;#P connect 46 0 47 0;#P connect 47 0 13 0;#P connect 13 0 12 0;#P connect 78 0 12 0;#P connect 12 0 15 0;#P fasten 29 0 8 0 34 338 71 338;#P connect 15 0 8 0;#P connect 8 0 6 0;#P fasten 10 0 78 0 147 144 81 144;#P connect 15 1 9 0;#P fasten 15 2 9 0 101 225 86 225;#P connect 9 0 7 0;#P fasten 11 0 7 0 149 286 86 286;#P connect 47 1 14 0;#P connect 14 0 12 1;#P fasten 41 0 42 0 173 717 111 717;#P connect 42 0 43 0;#P connect 43 0 45 0;#P fasten 28 1 32 0 833 807 337 807 337 545 144 545;#P connect 32 0 34 0;#P connect 34 0 43 1;#P connect 43 1 44 0;#P connect 10 0 12 2;#P connect 9 1 11 0;#P fasten 12 0 55 0 71 192 165 192;#P connect 55 0 36 0;#P fasten 34 0 39 0 144 602 173 602;#P connect 39 0 38 0;#P connect 38 0 41 0;#P connect 40 0 39 1;#P fasten 34 0 35 0 144 602 283 602;#P connect 35 0 33 0;#P connect 33 0 41 1;#P fasten 8 0 17 0 71 366 296 366;#P connect 17 0 18 0;#P connect 37 0 35 1;#P fasten 66 0 30 0 334 229 321 229;#P connect 68 0 69 0;#P connect 69 0 64 0;#P connect 64 0 63 0;#P connect 77 0 63 0;#P connect 63 0 66 0;#P fasten 61 0 77 0 410 145 343 145;#P connect 66 1 59 0;#P connect 59 0 17 1;#P connect 66 2 60 0;#P fasten 66 3 60 0 376 230 362 230;#P connect 60 0 58 0;#P fasten 62 0 58 0 425 292 362 292;#P connect 69 1 65 0;#P connect 65 0 63 1;#P fasten 59 0 16 0 348 369 383 369;#P connect 61 0 63 2;#P fasten 63 0 70 0 334 192 425 192;#P connect 70 0 67 0;#P connect 60 1 62 0;#P fasten 18 0 27 0 296 517 523 517;#P connect 27 0 28 0;#P connect 49 0 48 0;#P connect 48 0 24 0;#P fasten 50 0 20 0 517 368 575 368;#P connect 24 0 20 0;#P connect 20 0 27 1;#P connect 24 1 21 0;#P fasten 24 2 21 0 605 275 590 275;#P fasten 23 0 19 0 653 334 590 334;#P connect 21 0 19 0;#P connect 72 0 26 0;#P connect 26 0 48 1;#P fasten 20 0 25 0 575 402 608 402;#P connect 71 0 26 2;#P connect 21 1 23 0;#P fasten 74 1 26 4 695 190 668 190;#P connect 22 0 73 0;#P connect 73 0 74 0;#P connect 79 0 73 1;#P fasten 74 0 31 0 678 194 741 194;#P connect 75 0 76 0;#P connect 76 0 51 0;#P connect 80 0 73 2;#P connect 81 0 73 3;#P pop;