max v2;#N vpatcher 245 50 1145 759;#P origin -20 0;#N vpreset 1;#X append 1 2 6 186 226 flonum float 0.52 \; 7 186 154 flonum float 0.76 \; 8 186 289 flonum float 0. \; 14 270 144 number int 0 \; 18 509 179 multiSlider list 255 255 255 32 8 4 2;#X append 1 2 1 0 1 1 0 0 0 0 0 0 0 0 0 0 0 0 0 0 0 0 0 0 0 0 0 0 0 0 0 0 0 0 0 0 0 0 0 0 0 0;#X append 1 2 0 0 0 0 0 0 0 0 0 0 0 0 0 0 0 0 0 0 0 0 0 0 0 0 0 0 0 0 0 0 0 0 0 0 0 0 0 0 0 0;#X append 1 2 0 0 0 0 0 0 0 0 0 0 0 0 0 0 0 0 0 0 0 0 0 0 0 0 0 0 0 0 0 0 0 0 0 0 0 0 0 0 0 0;#X append 1 2 0 0 0 0 0 0 0 0 0 0 0 0 0 0 0 0 0 0 0 0 0 0 0 0 0 0 0 0 0 0 0 0 0 0 0 0 0 0 0 0;#X append 1 2 0 0 0 0 0 0 0 0 0 0 0 0 0 0 0 0 0 0 0 0 0 0 0 0 0 0 0 0 0 0 0 0 0 0 0 0 0 0 0 0;#X append 1 2 0 0 0 0 0 0 0 0 0 0 0 0 0 0 0 0 0 0 0 0 0 0 0 0 0 0 0 0 0 0 0 0 0 0 0 0 0 0 0 0;#X append 1 2 0 0 0 0 0 0 \; 21 529 49 number int 3183 \; 26 550 73 flonum float 0.1 \; 27 598 49 number int 318 \; 29 649 49 number int 436 \; 30 562 179 multiSlider list;#X append 1 2 436 \; 31 602 124 number int 10 \; 38 519 750 flonum float 0.11 \; 39 519 786 flonum float 59925. \; 42 564 620 toggle int 1 \; 45 483 644 flonum float 0.436 \; 46 435 679;#X append 1 2 flonum float 0.001 \; 48 345 644 toggle int 1 \; 49 478 723 flonum float 10. \; 51 427 723 flonum float 76. \;;#P preset 211 101 47 27;#P message 819 542 115 196617 replace cardiff_la_1.aif;#P message 827 569 42 196617 replace;#P comment 201 53 132 196626 motionsound;#P comment 332 53 143 196617 Yoichiro Serita © 2003 Topological Media Lab;#P newex 742 404 35 196617 lb 75.;#P newex 49 382 40 196617 t b l b;#P newex 140 439 27 196617 + 1;#P message 121 483 53 196617 set \$2 \$1;#P newex 121 461 29 196617 pack;#P newex 551 285 55 196617 ys.window;#P newex 723 450 43 196617 * 1000;#P flonum 723 427 35 9 0 0 0 3 0 0 0 221 221 221 222 222 222 0 0 0;#P button 723 404 15 0;#P flonum 723 478 47 9 0 0 0 3 0 0 0 221 221 221 222 222 222 0 0 0;#P toggle 644 345 31 0;#P newex 644 384 56 196617 gate;#P flonum 679 435 42 9 0 0 0 3 0 0 0 221 221 221 222 222 222 0 0 0;#P flonum 644 483 35 9 0 0 0 3 0 0 0 221 221 221 222 222 222 0 0 0;#P newex 644 458 45 196617 * 0.002;#P comment 608 550 41 1310730 Looping;#P toggle 620 564 15 0;#P message 620 585 50 1441802 loop \$1;#P comment 824 446 50 196617 set max loop point (ms);#P flonum 786 519 82 9 0 0 0 3 0 0 0 221 221 221 222 222 222 0 0 0;#P flonum 750 519 35 9 0 0 0 3 0 0 0 221 221 221 222 222 222 0 0 0;#P comment 824 404 50 196617 set min loop point (ms);#P newex 644 507 27 196617 sig~;#P newex 728 552 64 196617 groove~ aho;#P user ezdac~ 723 610 767 643 0;#P message 797 570 29 196617 read;#P newex 797 599 61 196617 buffer~ aho;#P number 124 602 35 9 0 0 0 3 0 0 0 221 221 221 222 222 222 0 0 0;#P user multiSlider 179 562 317 33 0. 1000. 1 3433 47;#M frgb 107 137 207;#M brgb 150 250 150;#M rgb2 127 127 127;#P number 49 649 50 9 0 0 0 3 0 0 0 221 221 221 222 222 222 0 0 0;#P newex 49 624 85 196617 mavg 100;#P number 49 598 50 9 0 0 0 3 0 0 0 221 221 221 222 222 222 0 0 0;#P flonum 73 550 35 9 0 0 0 3 0 0 0 221 221 221 222 222 222 0 0 0;#P newex 49 572 34 196617 * 0.1;#P newex 64 471 48 196617 gate;#P newex 64 449 27 196617 != 0;#P newex 49 75 54 196617 jit.matrix;#P number 49 529 63 9 0 0 0 3 0 0 0 221 221 221 222 222 222 0 0 0;#P message 20 412 32 196617 set 0;#P newex 49 505 40 196617 accum;#P user multiSlider 179 509 317 33 0. 255. 253 2921 47;#M frgb 50 150 50;#M brgb 150 250 150;#M rgb2 127 127 127;#P newex 64 412 40 196617 jit.iter;#P user jit.pwindow 48 347 370 29 0 1 0 0 1 0;#P newex 49 326 181 196617 jit.histogram 1 long 256 @autoclear 1;#B color 5;#P number 144 270 35 9 0 0 0 3 0 0 0 221 221 221 222 222 222 0 0 0;#P user jit.pwindow 550 36 322 242 0 1 0 0 1 0;#P newex 49 293 105 196617 jit.op @op >p @val 10;#P user jit.pwindow 48 104 82 62 0 1 0 0 1 0;#P newex 49 179 27 196617 t l l;#P newex 49 206 88 196617 jit.op @op absdiff;#P flonum 289 186 35 9 0 0 0 3 0 0 0 221 221 221 222 222 222 0 0 0;#P flonum 154 186 35 9 0 0 0 3 0 0 0 221 221 221 222 222 222 0 0 0;#P flonum 226 186 35 9 0 0 0 3 0 0 0 221 221 221 222 222 222 0 0 0;#P message 289 210 69 196617 saturation \$1;#P message 154 210 70 196617 brightness \$1;#P message 226 210 61 196617 contrast \$1;#P newex 49 234 53 196617 jit.brcosa;#P newex 49 262 65 196617 jit.rgb2luma;#P newex 49 45 45 196617 ys.video;#P connect 57 2 20 0;#P connect 0 0 22 0;#P connect 22 0 11 0;#P connect 11 0 10 0;#P connect 10 1 9 0;#P connect 9 0 2 0;#P connect 5 0 2 0;#P connect 3 0 2 0;#P connect 4 0 2 0;#P connect 2 0 1 0;#P connect 1 0 12 0;#P connect 12 0 15 0;#P connect 15 0 16 0;#P connect 16 0 57 0;#P connect 20 0 19 0;#P connect 57 0 19 0;#P connect 19 0 21 0;#P connect 21 0 25 0;#P connect 25 0 27 0;#P connect 27 0 28 0;#P connect 28 0 29 0;#P connect 57 1 17 0;#P connect 17 1 23 0;#P connect 23 0 24 0;#P connect 24 0 19 1;#P connect 26 0 25 1;#P connect 17 0 24 1;#P connect 17 0 54 0;#P connect 54 0 55 0;#P connect 31 0 28 1;#P connect 10 0 9 1;#P connect 17 1 56 0;#P connect 56 0 54 1;#P connect 14 0 12 1;#P connect 7 0 4 0;#P connect 55 0 18 0;#P connect 29 0 30 0;#P connect 6 0 3 0;#P connect 8 0 5 0;#P fasten 12 0 13 0 54 316 539 316 539 30 556 30;#P connect 13 0 53 0;#P connect 42 0 41 0;#P connect 48 0 47 0;#P connect 47 0 44 0;#P connect 44 0 45 0;#P connect 45 0 36 0;#P connect 46 0 44 1;#P fasten 29 0 47 1 54 670 561 670 561 324 695 324;#P connect 50 0 51 0;#P connect 58 0 51 0;#P connect 51 0 52 0;#P connect 52 0 49 0;#P connect 35 0 34 0;#P connect 36 0 35 0;#P connect 41 0 35 0;#P connect 49 0 35 0;#P connect 38 0 35 1;#P connect 35 0 34 1;#P connect 39 0 35 2;#P connect 33 0 32 0;#P connect 61 0 32 0;#P connect 62 0 32 0;#P pop;