max v2;#N vpatcher 53 61 963 636;#P origin 84 0;#P comment 129 30 219 196626 bounding;#P comment 348 30 143 196617 Delphine Nain \, Yoichiro Serita © 2003 Topological Media Lab;#P newex 728 304 65 196617 pack 0 0 0 0;#P newex 709 341 29 196617 Ladd;#P outlet 709 385 15 0;#P newex 709 191 65 196617 pack 0 0 0 0;#P outlet 615 479 15 0;#P newex 575 408 31 196617 sel 0;#P message 615 434 50 196617 172 63;#P newex 615 408 61 196617 prepend set;#P newex 615 345 35 196617 Ldiv 2;#P newex 615 378 57 196617 Ladd;#P newex 615 320 29 196617 Ladd;#P toggle 297 204 15 0;#P newex 263 243 27 196617 gate;#P newex 118 243 27 196617 gate;#P newex 24 243 27 196617 gate;#P newex 297 182 178 196617 if $i1 < 40 && $i2 < 40 then 0 else 1;#P newex 389 449 29 196617 Ladd;#P newex 233 451 29 196617 Ladd;#P outlet 24 513 15 0;#P outlet 290 518 15 0;#P outlet 233 479 15 0;#P outlet 389 479 15 0;#P message 363 363 20 196617 \$2;#P message 464 363 20 196617 \$1;#P newex 263 410 39 196617 pack;#P newex 292 387 81 196617 expr $i1+$i2/2;#P newex 263 363 39 196617 unpack;#P newex 389 410 39 196617 pack;#P newex 389 387 85 196617 expr $i1 + $i2/2;#P newex 389 363 39 196617 unpack;#P newex 68 389 40 196617 sel 1 0;#P user GSwitch2 263 318 39 32 1 0;#P newex 280 152 48 196617 Lmult -1;#P newex 280 130 29 196617 Lsub;#P message 83 443 93 196617 columns 1 \, rows 2;#P message 68 421 93 196617 columns 2 \, rows 1;#P newex 24 479 187 196617 jit.scissors @columns 2 @rows 1;#P message 88 311 55 196617 dim \$1 \$2;#P message 44 288 65 196617 offset \$1 \$2;#P newex 24 341 69 196617 jit.submatrix;#P newex 263 280 27 196617 >;#P inlet 662 237 15 0;#P inlet 41 49 15 0;#P newex 135 75 339 1441802 jit.findbounds @min 0. 0.75 0. 0. @max 1. 1. 0.1 0.1;#B color 5;#P connect 32 0 29 0;#P connect 5 0 4 0;#P connect 6 0 4 0;#P connect 29 0 4 0;#P connect 9 0 7 0;#P connect 8 0 7 0;#P connect 4 0 7 0;#P connect 7 0 25 0;#P connect 1 0 29 1;#P connect 30 0 5 0;#P connect 3 0 13 0;#P connect 13 0 8 0;#P connect 13 1 9 0;#P connect 31 0 6 0;#P connect 32 0 30 0;#P fasten 1 0 0 0 46 68 140 68;#P connect 0 0 30 1;#P connect 30 0 26 0;#P connect 26 0 23 0;#P connect 2 0 26 1;#P connect 32 0 31 0;#P connect 31 0 3 0;#P connect 3 0 12 0;#P connect 12 0 17 0;#P connect 17 0 19 0;#P connect 0 0 10 0;#P connect 10 0 11 0;#P connect 11 0 31 1;#P connect 7 1 24 0;#P connect 30 0 12 1;#P connect 17 1 18 0;#P connect 18 0 19 1;#P connect 11 0 28 0;#P connect 28 0 32 0;#P connect 0 1 10 1;#P connect 31 0 21 0;#P connect 21 0 18 1;#P fasten 12 1 14 0 297 357 394 357;#P connect 14 0 15 0;#P connect 15 0 16 0;#P connect 16 0 27 0;#P connect 19 0 27 0;#P connect 27 0 22 0;#P connect 2 0 27 1;#P connect 14 1 16 1;#P connect 31 0 20 0;#P connect 20 0 15 1;#P fasten 32 0 38 0 302 224 580 224;#P fasten 0 0 33 0 140 112 620 112;#P connect 33 0 35 0;#P connect 35 0 34 0;#P connect 34 0 36 0;#P connect 36 0 37 0;#P fasten 38 0 37 0 580 430 620 430;#P connect 37 0 39 0;#P fasten 0 1 33 1 304 108 639 108;#P connect 2 0 34 1;#P fasten 0 0 40 0 140 100 714 100;#P connect 40 0 42 0;#P connect 42 0 41 0;#P connect 2 0 43 0;#P connect 43 0 42 1;#P fasten 0 1 40 2 304 96 750 96;#P connect 2 0 43 2;#P pop;