max v2;#N vpatcher 377 105 911 724;#P origin 0 -10;#P comment 208 21 104 196626 ghostplace;#P comment 313 21 143 196617 Yoichiro Serita © 2003 Topological Media Lab;#P flonum 353 62 35 9 0 0 0 3 0 0 0 221 221 221 222 222 222 0 0 0;#P flonum 208 62 35 9 0 0 0 3 0 0 0 221 221 221 222 222 222 0 0 0;#P flonum 285 62 35 9 0 0 0 3 0 0 0 221 221 221 222 222 222 0 0 0;#P message 353 81 69 196617 saturation \$1;#P message 208 81 70 196617 brightness \$1;#P message 285 81 61 196617 contrast \$1;#P newex 114 82 53 196617 jit.brcosa;#P newex 114 589 105 196617 ys.window ghostplace;#P newex 114 47 45 196617 ys.video;#P number 298 156 35 9 0 0 0 3 0 0 0 221 221 221 222 222 222 0 0 0;#P user jit.pwindow 209 270 82 62 0 1 0 0 1 0;#P message 242 215 129 196617 outputmatrix \$1 \, index \$1;#P number 242 197 35 9 0 0 0 3 0 0 0 221 221 221 222 222 222 0 0 0;#P button 242 158 15 0;#N counter 0 9;#X flags 0 0;#P newobj 242 176 66 196617 counter 0 9;#P newex 168 245 163 196617 jit.matrixset 100 4 char 320 240;#P user ubumenu 16 226 60 196617 0 1 1 0;#X add pass;#X add *;#X add /;#X add +;#X add -;#X add +m;#X add -m;#X add %;#X add min;#X add max;#X add abs;#X add avg;#X add absdiff;#X add !pass;#X add !/;#X add !-;#X add !%;#X add &;#X add |;#X add ^;#X add ~;#X add >>;#X add <<;#X add &&;#X add ||;#X add !;#X add >;#X add <;#X add >=;#X add <=;#X add ==;#X add !=;#X add >p;#X add <p;#X add >=p;#X add <=p;#X add ==p;#X add !=p;#X add sin;#X add cos;#X add tan;#X add asin;#X add acos;#X add atan;#X add atan2;#X add sinh;#X add cosh;#X add tanh;#X add asinh;#X add acosh;#X add atanh;#X add exp;#X add exp2;#X add ln;#X add log2;#X add log10;#X add hypot;#X add pow;#X add sqrt;#X add ceil;#X add floor;#X add round;#X add trunc;#X add ignore;#X prefix_set 0 0 <none> 0;#P newex 41 247 72 196617 prepend op;#P user jit.pwindow 113 340 322 242 0 1 0 0 1 0;#P newex 114 271 64 196617 jit.op @op *;#P newex 114 116 54 196617 jit.matrix;#P user jit.pwindow 23 155 82 62 0 1 0 0 1 0;#P connect 1 0 0 0;#P connect 5 1 4 0;#P connect 18 0 15 0;#P connect 16 0 15 0;#P connect 17 0 15 0;#P connect 13 0 15 0;#P connect 15 0 1 0;#P connect 1 0 2 0;#P connect 4 0 2 0;#P connect 2 0 3 0;#P connect 3 0 14 0;#P connect 1 0 6 0;#P connect 10 0 6 0;#P connect 6 0 2 1;#P connect 20 0 17 0;#P connect 6 0 11 0;#P connect 1 0 8 0;#P connect 8 0 7 0;#P connect 7 0 9 0;#P connect 9 0 10 0;#P connect 19 0 16 0;#P connect 12 0 7 4;#P connect 21 0 18 0;#P pop;