max v2;#N vpatcher 51 127 1045 827;#P comment 394 25 136 196626 memoryplace2;#P comment 529 26 143 196617 Yoichiro Serita © 2003 Topological Media Lab;#P newex 863 464 128 196617 ys.window memoryspace2;#P flonum 892 45 35 9 0 0 0 3 0 0 0 221 221 221 222 222 222 0 0 0;#P flonum 747 41 35 9 0 0 0 3 0 0 0 221 221 221 222 222 222 0 0 0;#P flonum 824 45 35 9 0 0 0 3 0 0 0 221 221 221 222 222 222 0 0 0;#P message 892 64 69 196617 saturation \$1;#P message 747 64 70 196617 brightness \$1;#P message 824 64 61 196617 contrast \$1;#P newex 863 433 53 196617 jit.brcosa;#P user jit.pwindow 744 607 82 62 0 1 0 0 1 0;#P newex 114 50 112 196617 ys.video memoryspace;#P user jit.pwindow 417 443 82 62 0 1 0 0 1 0;#N vpreset 7;#X append 1 2 0 163 142 gswitch2 int 1 \; 11 293 40 ubumenu int 1 \; 12 96 251 number int 10 \; 22 150 195 number int 1 \; 24 120 342 flonum float 1.25 \; 32 195 631 toggle int;#X append 1 2 1 \; 33 246 675 number int 20 \; 47 218 818 uslider int 0 \; 49 312 818 flonum float 0. \; 55 362 540 number int 1 \; 56 362 580 number int 1 \; 59 413 716;#X append 1 2 number int 24 \; 64 405 224 number int 1 \;;#X append 2 2 0 163 142 gswitch2 int 1 \; 11 293 40 ubumenu int 1 \; 12 96 251 number int 10 \; 22 150 195 number int 5 \; 24 120 342 flonum float 1.28 \; 32 195 631 toggle int;#X append 2 2 1 \; 33 246 675 number int 20 \; 47 218 818 uslider int 0 \; 49 312 818 flonum float 0. \; 55 362 540 number int 1 \; 56 362 580 number int 1 \; 59 413 716;#X append 2 2 number int 1 \; 64 405 224 number int 1 \;;#X append 3 2 0 163 142 gswitch2 int 1 \; 11 293 40 ubumenu int 1 \; 12 96 251 number int 10 \; 22 150 195 number int 6 \; 24 120 342 flonum float 1.278 \; 32 195 631 toggle int;#X append 3 2 1 \; 33 246 675 number int 20 \; 47 218 818 uslider int 0 \; 49 312 818 flonum float 0. \; 55 362 540 number int 1 \; 56 362 580 number int 1 \; 59 413 716;#X append 3 2 number int 24 \; 64 405 224 number int 2 \;;#X append 4 2 0 163 142 gswitch2 int 1 \; 11 293 40 ubumenu int 1 \; 12 96 251 number int 10 \; 22 150 195 number int 4 \; 24 120 342 flonum float 1.28 \; 32 195 631 toggle int;#X append 4 2 1 \; 33 246 675 number int 20 \; 47 218 818 uslider int 0 \; 49 312 818 flonum float 0. \; 55 362 540 number int 1 \; 56 362 580 number int 1 \; 59 413 716;#X append 4 2 number int 1 \; 64 405 224 number int 2 \;;#X append 5 2 0 163 142 gswitch2 int 1 \; 11 293 40 ubumenu int 1 \; 12 96 251 number int 10 \; 22 150 195 number int 9 \; 24 120 342 flonum float 1.252 \; 32 195 631 toggle int;#X append 5 2 1 \; 33 246 675 number int 20 \; 47 218 818 uslider int 0 \; 49 312 818 flonum float 0. \; 55 362 540 number int 1 \; 56 362 580 number int 1 \; 59 413 716;#X append 5 2 number int 24 \; 64 405 224 number int 3 \;;#X append 6 2 0 163 142 gswitch2 int 1 \; 11 293 40 ubumenu int 1 \; 12 96 251 number int 10 \; 22 150 195 number int 5 \; 24 120 342 flonum float 1.268 \; 32 195 631 toggle int;#X append 6 2 1 \; 33 246 675 number int 20 \; 47 218 818 uslider int 0 \; 49 312 818 flonum float 0. \; 55 362 540 number int 1 \; 56 362 580 number int 1 \; 59 413 716;#X append 6 2 number int 1 \; 64 405 224 number int 3 \;;#X append 7 2 0 163 142 gswitch2 int 1 \; 11 293 40 ubumenu int 1 \; 12 96 251 number int 10 \; 22 150 195 number int 7 \; 24 120 342 flonum float 1.513 \; 32 195 631 toggle int;#X append 7 2 1 \; 33 246 675 number int 20 \; 47 218 818 uslider int 0 \; 49 312 818 flonum float 0. \; 55 362 540 number int 1 \; 56 362 580 number int 1 \; 59 413 716;#X append 7 2 number int 0 \; 64 405 224 number int 4 \;;#P preset 676 50 47 27;#P number 224 405 35 9 0 0 0 3 0 0 0 221 221 221 222 222 222 0 0 0;#P newex 224 429 66 196617 switch 4;#P newex 195 368 91 196617 jit.op @op *;#P newex 526 614 114 196617 jit.op @op !- @val 255;#P newex 716 389 25 196617 lb 1;#P number 716 413 35 9 0 0 0 3 0 0 0 156 179 255 222 222 222 0 0 0;#P newex 631 437 95 196617 jit.op @op - @val 1;#P user jit.pwindow 16 435 82 62 0 1 0 0 1 0;#P number 580 362 35 9 0 0 0 3 0 0 0 221 221 221 222 222 222 0 0 0;#P number 540 362 35 9 0 0 0 3 0 0 0 221 221 221 222 222 222 0 0 0;#P message 580 385 29 196617 y \$1;#P message 540 385 29 196617 x \$1;#P newex 631 341 95 196617 jit.avg4 @x 1 @y 1;#P user jit.pwindow 713 99 82 62 0 1 0 0 1 0;#P user jit.pwindow 115 454 293 226 0 1 0 0 1 0;#P flonum 818 312 47 9 0 0 0 3 0 0 0 156 179 255 222 222 222 0 0 0;#P newex 818 286 45 196617 * 0.001;#P user uslider 818 218 26 46 41 1 0 0;#P newex 631 492 129 196617 jit.op @op +;#P newex 526 150 54 196617 jit.matrix;#P message 477 301 27 196617 max;#P newex 447 325 55 196617 prepend op;#P message 447 301 28 196617 pass;#P newex 447 278 71 196617 sel 0 1;#P newex 724 270 27 196617 gate;#P newex 526 316 53 196617 jit.matrix;#P newex 741 241 27 196617 b;#P newex 526 581 88 196617 jit.matrix heated;#P newex 631 303 85 196617 jit.matrix heated;#P newex 750 342 115 196617 jit.op @op * @val 0.04;#P newex 526 549 115 196617 jit.op @op max;#P number 675 246 35 9 0 0 0 3 0 0 0 156 179 255 222 222 222 0 0 0;#P toggle 631 195 28 0;#P newex 631 269 54 1441802 metro 20;#P comment 569 202 59 196617 heat on/off;#P newex 526 62 27 196617 t l l;#P newex 526 99 90 196617 jit.op @op absdiff;#P message 295 70 33 196617 1000;#P message 295 52 26 196617 300;#P message 295 33 20 196617 10;#P flonum 342 120 46 9 0 0 0 3 0 0 0 221 221 221 222 222 222 0 0 0;#P newex 342 51 31 196617 sel 1;#P number 195 150 58 9 0 0 0 3 0 0 0 221 221 221 222 222 222 0 0 0;#P newex 342 95 45 196617 / 1000.;#P newex 342 74 34 196617 timer;#P button 142 143 15 0;#P newex 251 64 32 196617 lb 10;#P user jit.pwindow 318 331 82 62 0 1 0 0 1 0;#P newex 195 305 114 196617 jit.op @op !- @val 255;#P newex 195 241 27 196617 t l l;#P newex 195 278 90 196617 jit.op @op absdiff;#P message 385 177 75 196617 matrixcount \$1;#P number 251 96 51 9 1 5000 3 3 0 0 0 221 221 221 222 222 222 0 0 0;#P user ubumenu 40 293 60 196617 0 1 1 0;#X add pass;#X add *;#X add /;#X add +;#X add -;#X add +m;#X add -m;#X add %;#X add min;#X add max;#X add abs;#X add avg;#X add absdiff;#X add !pass;#X add !/;#X add !-;#X add !%;#X add &;#X add |;#X add ^;#X add ~;#X add >>;#X add <<;#X add &&;#X add ||;#X add !;#X add >;#X add <;#X add >=;#X add <=;#X add ==;#X add !=;#X add >p;#X add <p;#X add >=p;#X add <=p;#X add ==p;#X add !=p;#X add sin;#X add cos;#X add tan;#X add asin;#X add acos;#X add atan;#X add atan2;#X add sinh;#X add cosh;#X add tanh;#X add asinh;#X add acosh;#X add atanh;#X add exp;#X add exp2;#X add ln;#X add log2;#X add log10;#X add hypot;#X add pow;#X add sqrt;#X add ceil;#X add floor;#X add round;#X add trunc;#X add ignore;#X prefix_set 0 0 <none> 0;#P newex 40 313 72 196617 prepend op;#P newex 114 398 91 196617 jit.op @op *;#P user jit.pwindow 317 245 82 62 0 1 0 0 1 0;#P newex 114 82 54 196617 jit.matrix;#P newex 195 207 151 196617 jit.matrixset 2 4 char 320 240;#P newex 272 175 105 196617 prepend outputmatrix;#P newex 195 175 71 196617 prepend index;#P button 195 109 15 0;#N counter 0 1;#X flags 0 0;#P newobj 195 128 66 196617 counter 0 1;#P user jit.pwindow 23 121 82 62 0 1 0 0 1 0;#P user GSwitch2 142 163 39 32 1 0;#P connect 9 0 57 0;#P connect 7 0 1 0;#P connect 11 1 10 0;#P connect 67 0 7 0;#P connect 7 0 9 0;#P connect 10 0 9 0;#P connect 69 0 50 0;#P connect 19 0 0 0;#P connect 7 0 0 1;#P connect 7 0 3 0;#P connect 3 0 2 0;#P connect 2 0 22 0;#P connect 22 0 4 0;#P connect 13 0 6 0;#P connect 5 0 6 0;#P connect 4 0 6 0;#P connect 0 1 6 0;#P connect 6 0 15 0;#P fasten 15 1 14 0 217 273 200 273;#P connect 14 0 16 0;#P connect 16 0 62 0;#P connect 62 0 9 1;#P connect 64 0 63 0;#P connect 9 0 63 1;#P connect 25 0 12 0;#P connect 26 0 12 0;#P connect 27 0 12 0;#P connect 18 0 12 0;#P connect 12 0 2 4;#P connect 62 0 63 2;#P connect 37 0 63 3;#P connect 22 0 5 0;#P fasten 15 0 14 1 200 264 280 264;#P connect 61 0 62 1;#P connect 61 0 63 4;#P connect 6 0 8 0;#P connect 16 0 17 0;#P connect 2 2 23 0;#P connect 23 0 20 0;#P connect 20 0 21 0;#P connect 21 0 24 0;#P connect 23 0 20 1;#P connect 12 0 13 0;#P connect 62 0 66 0;#P fasten 32 0 41 0 636 229 452 229;#P connect 41 0 42 0;#P connect 42 0 43 0;#P fasten 44 0 43 0 482 319 452 319;#P connect 41 1 44 0;#P connect 7 0 29 0;#P fasten 29 1 28 0 548 94 531 94;#P connect 28 0 45 0;#P connect 45 0 39 0;#P fasten 31 0 39 0 636 292 531 292;#P fasten 43 0 34 0 452 415 531 415;#P connect 39 0 34 0;#P connect 34 0 37 0;#P connect 37 0 61 0;#P connect 55 0 53 0;#P connect 56 0 54 0;#P fasten 29 0 28 1 531 85 611 85;#P connect 32 0 31 0;#P connect 31 0 36 0;#P fasten 40 0 36 0 729 297 636 297;#P connect 36 0 52 0;#P connect 54 0 52 0;#P connect 53 0 52 0;#P connect 52 0 58 0;#P connect 58 0 46 0;#P connect 46 0 34 1;#P connect 33 0 31 1;#P connect 28 0 51 0;#P connect 60 0 59 0;#P connect 59 0 58 1;#P fasten 32 0 40 0 636 231 729 231;#P fasten 45 0 38 0 531 175 746 175;#P connect 38 0 40 1;#P connect 61 0 68 0;#P connect 74 0 71 0;#P fasten 36 0 35 0 636 328 755 328;#P connect 35 0 46 1;#P connect 47 0 48 0;#P connect 48 0 49 0;#P connect 73 0 70 0;#P connect 49 0 35 1;#P connect 71 0 69 0;#P connect 70 0 69 0;#P connect 72 0 69 0;#P connect 63 0 69 0;#P connect 69 0 76 0;#P connect 75 0 72 0;#P pop;