max v2;#N vpatcher 348 335 879 709;#P origin 0 -38;#P comment 137 26 213 196626 testWhisper;#P comment 352 26 143 196617 Sha Xin Wei © 2003 Topological Media Lab;#P inlet 97 38 15 0;#P newex 163 93 53 196617 jit.pack;#P newex 131 58 66 196617 jit.unpack;#P toggle 334 144 15 0;#N vpatcher 20 85 420 385;#N comlet i;#P outlet 55 155 15 0;#N comlet t sweep;#P inlet 60 30 15 0;#N counter 0 0 160;#X flags 0 0;#P newobj 55 120 81 196617 counter 0 0 160;#B color 5;#P newex 57 98 55 196617 metro 100;#P toggle 55 78 15 0;#P number 72 78 32 9 0 0 0 3 0 0 0 221 221 221 222 222 222 0 0 0;#P connect 4 0 1 0;#P fasten 2 0 3 0 62 120 60 120;#P connect 3 0 5 0;#P connect 1 0 2 0;#P connect 0 0 2 1;#P pop;#P newobj 334 166 44 196617 p sweep;#P toggle 369 240 15 0;#P toggle 343 240 15 0;#P user multiSlider 385 153 26 65 0. 160. 1 2937 47;#M frgb 255 104 75;#M brgb 255 255 255;#M rgb2 127 127 127;#P user jit.pwindow 313 283 82 62 0 1 0 0 1 0;#P newex 334 205 45 196617 pack 0 0;#P number 334 187 35 9 0 0 0 3 0 0 0 221 221 221 222 222 222 0 0 0;#P newex 301 262 96 196617 whisper;#P toggle 188 141 15 0;#N vpatcher 20 85 420 385;#N comlet i;#P outlet 55 155 15 0;#N comlet t sweep;#P inlet 60 30 15 0;#N counter 0 0 160;#X flags 0 0;#P newobj 55 120 81 196617 counter 0 0 160;#B color 5;#P newex 57 98 55 196617 metro 100;#P toggle 55 78 15 0;#P number 72 78 32 9 0 0 0 3 0 0 0 221 221 221 222 222 222 0 0 0;#P connect 4 0 1 0;#P fasten 2 0 3 0 62 120 60 120;#P connect 3 0 5 0;#P connect 1 0 2 0;#P connect 0 0 2 1;#P pop;#P newobj 188 163 44 196617 p sweep;#P toggle 223 237 15 0;#P toggle 197 237 15 0;#P user multiSlider 239 150 26 65 0. 160. 1 2937 47;#M frgb 255 104 75;#M brgb 255 255 255;#M rgb2 127 127 127;#P toggle 10 158 15 0;#P newex 12 177 44 196617 metro 2;#P user jit.pwindow 167 280 82 62 0 1 0 0 1 0;#P newex 188 202 45 196617 pack 0 0;#P number 188 184 35 9 0 0 0 3 0 0 0 221 221 221 222 222 222 0 0 0;#P message 123 182 42 196617 rate \$1;#P flonum 123 165 35 9 0 0 0 3 0 0 0 221 221 221 222 222 222 0 0 0;#P message 65 166 48 196626 read;#P newex 11 200 112 196617 jit.qt.movie 320 240;#B color 6;#P newex 155 259 96 196617 whisper;#P connect 8 0 1 0;#P fasten 4 0 1 0 128 198 16 198;#P fasten 2 0 1 0 70 198 16 198;#P connect 9 0 8 0;#P connect 3 0 4 0;#P connect 26 0 24 0;#P connect 25 0 0 0;#P fasten 1 0 0 0 16 232 160 232;#P connect 24 0 25 0;#P connect 0 0 7 0;#P fasten 6 0 0 1 193 231 181 231;#P connect 24 0 25 1;#P connect 14 0 13 0;#P connect 13 0 5 0;#P connect 5 0 6 0;#P connect 24 0 25 2;#P connect 11 0 0 2;#P connect 24 0 25 3;#P connect 12 0 0 3;#P hidden fasten 10 0 0 4 244 255 244 255;#P fasten 1 0 15 0 16 232 306 232;#P connect 25 0 15 0;#P connect 15 0 18 0;#P fasten 17 0 15 1 339 234 327 234;#P connect 23 0 22 0;#P connect 22 0 16 0;#P connect 16 0 17 0;#P connect 20 0 15 2;#P connect 21 0 15 3;#P hidden fasten 19 0 15 4 390 258 390 258;#P pop;