max v2;#N vpatcher 86 55 1019 775;#P origin 0 -76;#N comlet i volume;#P inlet 632 4 24 0;#N comlet jit.matrix video;#P outlet 98 793 34 0;#P newex 165 43 55 196617 unpack 0 0;#N comlet l mouse x y;#P inlet 165 19 24 0;#P newex 165 62 55 196617 pack 0 0 1;#P newex 165 80 74 196617 prepend mouse;#P newex 73 417 45 196617 loadbang;#B color 3;#N comlet toggle audio;#P inlet 430 17 24 0;#N comlet toggle frame difference;#P inlet 232 19 24 0;#N comlet jit.matrix video in;#P inlet 95 19 24 0;#P message 209 228 26 196617 180;#P message 189 228 20 196617 90;#P message 174 228 14 196617 0;#P hidden newex 174 265 135 196617 expr ($f1/360.)*6.283185;#P flonum 174 247 35 9 0 0 0 3 0 0 0 221 221 221 222 222 222 0 0 0;#P hidden flonum 126 274 35 9 0 0 0 3 0 0 0 221 221 221 222 222 222 0 0 0;#P hidden message 126 268 45 196617 theta \$1;#P newex 114 288 109 196617 jit.rota @boundmode 4;#P comment 697 827 200 196617 Constructed by Tom Mays \, tmays@free.fr;#P message 328 173 42 196617 rate \$1;#P comment 531 657 10 196617 |;#P comment 531 670 10 196617 |;#P comment 531 683 10 196617 |;#P hidden newex 21 219 30 196617 del 1;#P hidden newex 21 239 52 196617 onebang 1;#P hidden newex 21 199 30 196617 sel 1;#P hidden message 21 259 69 196617 mouse 80 0 1;#P hidden newex 21 125 54 196617 t 12.5 1 0;#P hidden newex 21 106 45 196617 loadbang;#P comment 535 651 178 196617 --------------------------------->;#P comment 531 696 10 196617 |;#P comment 531 709 10 196617 |;#P comment 531 722 10 196617 |;#P comment 531 735 10 196617 |;#P comment 531 748 10 196617 |;#P comment 531 761 10 196617 |;#P comment 531 774 10 196617 |;#P comment 531 787 10 196617 |;#P comment 171 506 77 196617 vertical scan position (pixel);#P number 135 508 35 9 0 0 0 3 0 0 0 221 221 221 222 222 222 0 0 0;#P comment 631 537 242 196620 Turn on audio at bottom \, and adjust volume.;#P comment 631 510 242 196620 Turn on the vertical scan extraction.;#P comment 631 483 242 196620 Select color to scan (red by default).;#P comment 631 440 242 196620 Click on jit.pwindow to set vertical scan line position (center by default).;#P comment 631 397 242 196620 Turn on the frame difference \, adjust the threshold.;#P comment 631 370 242 196620 Turn on the frame motor.;#P comment 631 343 242 196620 Read a movie above.;#P comment 601 322 139 196622 Getting it running:;#P comment 631 219 211 196620 Frame difference stage of processing can be used to see and "hear" only what moves. Try raising the threshold to reduce the sound to sparse whistles.;#P comment 14 448 59 196620 vertical scan extract on/off;#P toggle 73 465 30 0;#P newex 97 506 27 196617 gate;#P comment 426 549 148 196626 extract vertical scan data;#P comment 427 414 130 196626 set/visualize vertical scan position;#P comment 628 732 35 196617 on/off;#P toggle 597 724 30 0;#P comment 20 359 91 196617 draw vertical white line at clicked position in pwindow;#P comment 429 114 122 196626 frame motor;#P flonum 328 156 35 9 0 0 0 3 0 0 0 221 221 221 222 222 222 0 0 0;#P comment 363 157 48 196617 qt rate;#P flonum 319 289 35 9 0. 1. 3 3 0 0 0 221 221 221 222 222 222 0 0 0;#P comment 354 289 50 196617 threshold;#P comment 208 618 66 196617 that vertical line turned on its side (bottom=left \, top=right);#P comment 373 527 46 196617 choose color to scan;#N vpatcher 363 101 932 540;#P origin 0 -18;#P user ubumenu 288 176 60 196617 0 1 1 0;#X add pass;#X add *;#X add /;#X add +;#X add -;#X add +m;#X add -m;#X add %;#X add min;#X add max;#X add abs;#X add avg;#X add absdiff;#X add !pass;#X add !/;#X add !-;#X add !%;#X add &;#X add |;#X add ^;#X add ~;#X add >>;#X add <<;#X add &&;#X add ||;#X add !;#X add >;#X add <;#X add >=;#X add <=;#X add ==;#X add !=;#X add >p;#X add <p;#X add >=p;#X add <=p;#X add ==p;#X add !=p;#X add sin;#X add cos;#X add tan;#X add asin;#X add acos;#X add atan;#X add atan2;#X add sinh;#X add cosh;#X add tanh;#X add asinh;#X add acosh;#X add atanh;#X add exp;#X add exp2;#X add ln;#X add log2;#X add log10;#X add hypot;#X add pow;#X add sqrt;#X add ceil;#X add floor;#X add round;#X add trunc;#X add ignore;#X prefix_set 0 0 <none> 0;#P newex 313 197 72 196617 prepend op;#P user jit.pwindow 342 86 82 62 0 1 0 0 1 0;#P user jit.pwindow 400 327 82 62 0 1 0 0 1 0;#P user jit.pwindow 352 244 82 62 0 1 0 0 1 0;#P newex 242 378 128 196617 jit.matrix 4 char 320 240;#P newex 41 167 27 196617 * 2;#N comlet vertical line number;#P outlet 41 213 15 0;#N comlet matrix out;#P outlet 25 426 15 0;#N comlet matrix in;#P inlet 25 360 15 0;#P newex 114 393 75 196617 jit.op @op max;#N comlet smaller matrix out with line;#P outlet 114 427 15 0;#N comlet window right out;#P inlet 178 22 15 0;#P toggle 232 94 15 0;#P newex 68 120 27 196617 gate;#P newex 114 255 55 196617 swap;#P newex 114 233 27 196617 - 1;#P newex 114 277 100 196617 pack 0 0 val;#P newex 68 190 192 196617 t b i clear;#P newex 68 211 56 196617 Uzi 120;#P number 68 145 35 9 0 0 0 3 0 0 0 221 221 221 222 222 222 0 0 0;#P button 91 327 15 0;#P newex 114 327 75 196617 prepend setcell;#P newex 114 303 111 196617 append 0 255 255 255;#P newex 114 356 161 196617 jit.matrix addline 4 char 160 120;#P newex 178 72 65 196617 unpack 0 0 0;#P newex 178 48 63 196617 route mouse;#P connect 17 0 18 0;#P connect 6 0 20 0;#P connect 20 0 19 0;#P fasten 13 0 12 0 237 114 73 114;#P connect 12 0 6 0;#P connect 6 0 8 0;#P connect 8 0 7 0;#P connect 1 0 12 1;#P connect 7 1 5 0;#P connect 7 2 10 0;#P connect 10 0 11 0;#P connect 11 0 9 0;#P connect 9 0 3 0;#P connect 3 0 4 0;#P connect 5 0 2 0;#P connect 4 0 2 0;#P fasten 8 2 2 0 255 349 119 349;#P connect 25 0 16 0;#P connect 17 0 16 0;#P connect 16 0 15 0;#P connect 8 1 11 1;#P connect 11 1 9 1;#P connect 14 0 0 0;#P connect 0 0 1 0;#P connect 21 0 16 1;#P connect 1 2 13 0;#P connect 2 0 21 0;#P connect 26 1 25 0;#P connect 17 0 24 0;#P connect 2 0 22 0;#P connect 16 0 23 0;#P pop;#P newobj 114 360 52 196617 p vertline;#B color 6;#P user ubumenu 324 535 48 196617 0 1 1 0;#X add red;#X add green;#X add blue;#X prefix_set 0 0 <none> 0;#P user multiSlider 146 732 266 68 0. 255. 253 2665 47;#M frgb 255 0 0;#M brgb 255 255 255;#M rgb2 127 127 127;#P newex 146 804 92 196617 s fftfilt1-spectFun;#B color 11;#P comment 151 719 151 196617 bands 0-252 (0 Hz - 10853 Hz);#P user meter~ 732 627 812 640 100 0 168 0 104 104 104 255 153 0 255 0 0 217 217 0 153 186 0 12 3 3 3 3;#P newex 716 602 35 196617 noise~;#P newex 716 648 138 196617 pfft~ fft-filterinterp 1024 2;#B color 5;#P user jit.pwindow 91 619 15 122 0 1 0 0 1 0;#P user multiSlider 280 617 120 64 0. 256. 240 2921 15;#M frgb 255 0 0;#M brgb 0 0 0;#M rgb2 127 127 127;#P noclick;#P user meter~ 741 798 821 811 100 0 168 0 104 104 104 255 153 0 255 0 0 217 217 0 153 186 0 12 3 3 3 3;#P comment 566 697 120 196626 audio switch;#P newex 707 797 29 196617 dac~;#P user gain~ 716 684 43 76 158 0 1.071519 7.94321 10.;#P comment 9 545 104 196617 analyse red \, green or blue intensities in a vertical line through the image;#P user jit.pwindow 157 383 162 122 0 1 0 0 1 0;#P toggle 236 202 15 0;#P newex 236 222 27 196617 gate;#P comment 631 123 211 196620 Extract a vertical line from a moving image and use it to control an fft spectral filter with noise as a source. Just one way to "hear" and image.;#P comment 29 117 84 196617 adjust metro time as a function of frames/sec;#P comment 20 291 91 196617 prepare image for vertical analysis by letting through only what "moves";#P comment 429 187 60 196626 movie;#N vpatcher 39 121 627 679;#P origin 0 -47;#P comment 196 469 218 196617 pad list with zeros because scan line is 240 values and filter requires 253.;#P newex 42 454 35 196617 t l b;#P newex 42 493 35 196617 zl join;#P message 67 474 122 196617 0 0 0 0 0 0 0 0 0 0 0 0 0;#P comment 175 44 101 196617 vertical line position;#P outlet 42 517 15 0;#N comlet vert line number;#P inlet 129 23 15 0;#P newex 327 164 27 196617 + 1;#N comlet color (1-2-3);#P inlet 327 125 15 0;#N comlet vertical line list;#P outlet 327 296 15 0;#N comlet vertical line matrix;#P outlet 9 127 15 0;#P newex 174 344 33 196617 t b b;#P number 174 384 55 9 0 0 0 3 0 0 0 221 221 221 222 222 222 0 0 0;#P newex 174 364 33 196617 timer;#P newex 59 403 125 196617 pack 0. 100;#P newex 59 426 80 196617 s fftfilt1-interp;#B color 11;#P newex 42 316 27 196617 t l b;#P toggle 59 347 15 0;#P newex 73 370 80 196617 s fftfilt1-tabsel;#B color 11;#P message 87 205 45 196617 plane \$1;#P newex 42 228 158 196617 jit.spill @plane 1 @listlength 240;#P message 218 71 90 196617 srcdimend \$1 239;#P number 129 43 45 9 0 319 3 3 0 0 0 221 221 221 222 222 222 0 0 0;#P message 129 71 85 196617 srcdimstart \$1 0;#P newex 42 97 390 196617 jit.matrix 4 char 1 240 @thru 1 @srcdimstart 0 0 @srcdimend 0 239 @usesrcdim 1;#P comment 83 258 218 196617 reverse list (so that the bottom is on the left).;#P newex 42 257 35 196617 zl rev;#P newex 327 205 61 196617 t b i;#P newex 327 266 65 196617 prepend frgb;#P number 327 144 35 9 0 0 0 3 0 0 0 221 221 221 222 222 222 0 0 0;#P message 327 227 44 196617 0 0 255;#P newex 327 245 61 196617 zl rot;#P comment 441 139 117 196617 choose which color data goes to audio fft filter;#N comlet matrix input;#P inlet 42 43 15 0;#P comment 363 133 55 196617 1 = red \; 2 = green \; 3 = blue \;;#P connect 10 0 24 0;#P fasten 13 0 10 0 223 91 47 91;#P fasten 11 0 10 0 134 91 47 91;#P connect 1 0 10 0;#P connect 15 0 14 0;#P connect 10 0 14 0;#P connect 14 0 8 0;#P connect 8 0 18 0;#P connect 18 0 33 0;#P connect 33 0 32 0;#P connect 32 0 29 0;#P connect 18 1 17 0;#P connect 17 0 20 0;#P connect 20 0 19 0;#P connect 33 1 31 0;#P connect 31 0 32 1;#P connect 17 0 16 0;#P fasten 27 0 15 0 332 193 92 193;#P connect 28 0 12 0;#P connect 12 0 11 0;#P fasten 18 1 23 0 64 339 179 339;#P connect 23 0 21 0;#P connect 21 0 22 0;#P connect 22 0 20 1;#P connect 23 1 21 1;#P fasten 12 0 13 0 134 64 223 64;#P connect 26 0 5 0;#P connect 5 0 27 0;#P connect 27 0 7 0;#P connect 7 0 4 0;#P connect 4 0 3 0;#P connect 3 0 6 0;#P connect 6 0 25 0;#P fasten 8 0 25 0 47 290 332 290;#P connect 7 1 3 1;#P pop;#P newobj 114 561 75 196617 p vertical_data;#B color 6;#P message 270 157 48 196626 read;#P newex 114 193 103 196617 jit.qt.movie 320 240;#B color 6;#P user jit.fpsgui 10 658 60 196617 0;#P user jit.pwindow 275 199 82 62 0 1 0 0 1 0;#P toggle 233 285 30 0;#N vpatcher 40 248 494 565;#P comment 335 159 50 196617 threshold;#N comlet threshold;#P inlet 318 158 15 0;#N comlet switch;#P inlet 111 27 15 0;#P comment 141 230 131 196617 multiply absdiff by what gets through threshold.;#P toggle 111 51 15 0;#P newex 75 136 27 196617 t l l;#P number 111 90 35 9 0 0 0 3 0 0 0 221 221 221 222 222 222 0 0 0;#P newex 111 70 27 196617 + 1;#N comlet matrix input;#P inlet 75 89 15 0;#P outlet 40 266 15 0;#P flonum 318 180 35 9 0 0 0 3 0 0 0 221 221 221 222 222 222 0 0 0;#P newex 75 230 63 196617 jit.op @op *;#P newex 128 203 61 196617 jit.op @op >;#P newex 75 175 85 196617 jit.op @op absdiff;#P comment 163 172 131 196617 absolute differece between this frame and the last;#P comment 193 206 50 196617 threshold;#P newex 40 115 45 196617 gate 2 1;#P comment 31 29 76 196617 "on" routes bang through processing \, "off" bypasses.;#P connect 11 0 1 0;#P connect 1 0 8 0;#P connect 6 0 8 0;#P connect 9 0 1 1;#P connect 1 1 12 0;#P connect 12 1 4 0;#P connect 4 0 6 0;#P connect 15 0 13 0;#P connect 13 0 10 0;#P connect 10 0 11 0;#P fasten 4 0 5 0 80 197 133 197;#P connect 5 0 6 1;#P fasten 12 0 4 1 80 164 155 164;#P fasten 7 0 5 1 323 199 184 199;#P connect 16 0 7 0;#P pop;#P newobj 114 326 89 196617 p framedifference;#B color 6;#P comment 429 276 100 196626 frame difference;#P comment 195 150 54 196617 ms/frame;#P flonum 146 148 48 9 0 0 0 3 0 0 0 221 221 221 222 222 222 0 0 0;#P comment 319 120 35 196617 on/off;#P flonum 114 108 48 9 0.1 0 1 3 0 0 0 221 221 221 222 222 222 0 0 0;#P toggle 287 108 30 0;#N vpatcher 40 55 312 320;#N comlet motor switch;#P inlet 137 42 15 0;#P outlet 117 183 15 0;#N comlet frames/sec;#P inlet 102 103 15 0;#N comlet metro bangs out;#P outlet 34 209 15 0;#P flonum 102 123 48 9 0 0 0 3 0 0 0 221 221 221 222 222 222 0 0 0;#P newex 102 141 45 196617 !/ 1000.;#P flonum 102 161 50 9 0.5 0 1 3 0 0 0 221 221 221 222 222 222 0 0 0;#P toggle 34 82 15 0;#P newex 34 182 78 196617 metro 2;#P comment 155 42 68 196617 motor switch;#P connect 9 0 2 0;#P connect 2 0 1 0;#P connect 1 0 6 0;#P connect 7 0 5 0;#P connect 5 0 4 0;#P connect 4 0 3 0;#P connect 3 0 1 1;#P connect 3 0 8 0;#P pop;#P newobj 114 127 75 196617 p frame_motor;#B color 6;#P comment 163 108 61 196617 frames/sec;#P comment 36 175 58 196617 basic movie player;#P comment 268 289 35 196617 on/off;#P comment 357 221 85 196617 <- unprocessed movie monitor;#P comment 702 697 13 196617 VOLUME;#P comment 317 407 46 196617 click on image to set vertical scan position;#P comment 416 732 100 196617 this is a display \, but also works to directly adjust spectral amplitudes (turn off vertical scan extract first).;#P comment 105 644 44 196617 matrix reduced to one vertical line;#P comment 153 642 53 196617 -------->;#P comment 152 698 230 196617 vertical line list sent to fft spectral filter editor.;#P comment 759 704 41 196617 <- 0 dB;#P comment 240 807 298 196617 >---------------------------------------------------------;#P comment 531 800 10 196617 |;#P comment 128 230 42 196617 rotate;#P comment 19 -8 287 196626 whispering Heights (Tom Mays);#P comment 316 -7 252 196617 modified by sxw as video operator \, live 4.2003;#P fasten 29 0 26 0 119 603 15 603;#P hidden connect 87 0 88 0;#P hidden connect 17 0 90 0;#P lcolor 1;#P hidden connect 90 0 92 0;#P hidden connect 92 0 91 0;#P hidden connect 91 0 89 0;#P fasten 109 0 65 0 78 442 78 442;#P fasten 29 0 43 0 119 609 97 609;#P fasten 65 0 64 0 78 499 102 499;#P connect 36 0 114 0;#P hidden connect 88 0 18 0;#P lcolor 1;#P connect 18 0 16 0;#P connect 16 0 27 0;#P fasten 28 0 27 0 275 190 119 190;#P fasten 96 0 27 0 333 190 119 190;#P connect 27 0 98 0;#P fasten 106 0 98 0 100 236 119 236;#P lcolor 7;#P hidden connect 99 0 98 0;#P connect 98 0 23 0;#P connect 23 0 51 0;#P connect 51 0 64 1;#P fasten 64 0 29 0 102 531 119 531;#P hidden connect 100 0 99 0;#P hidden fasten 102 0 100 0 179 285 170 285 170 248 131 248;#P connect 51 1 76 0;#P fasten 16 1 20 0 184 146 151 146;#P fasten 76 0 29 1 140 541 151 541;#P connect 29 1 49 0;#P connect 49 0 48 0;#P fasten 24 0 23 1 238 318 158 318;#P fasten 110 0 51 1 170 102 104 102 104 354 161 354;#P lcolor 15;#P hidden connect 89 0 51 1;#P lcolor 1;#P fasten 36 1 51 1 313 512 366 512 366 356 161 356;#P connect 51 2 36 0;#P connect 112 0 113 0;#P connect 113 0 111 0;#P connect 111 0 110 0;#P connect 103 0 101 0;#P hidden connect 104 0 101 0;#P hidden connect 105 0 101 0;#P hidden connect 101 0 102 0;#P fasten 50 0 29 2 329 557 183 557;#P fasten 17 0 16 1 292 145 192 145 192 124 184 124;#P fasten 55 0 23 2 324 322 197 322;#P connect 107 0 24 0;#P lcolor 3;#P hidden connect 88 1 35 0;#P lcolor 1;#P connect 35 0 34 0;#P fasten 27 0 34 1 119 218 224 218 224 196 258 196;#P fasten 34 0 25 0 241 242 269 242 269 196 281 196;#P fasten 29 2 42 0 183 605 285 605;#P hidden connect 88 2 50 0;#P lcolor 1;#P hidden connect 88 1 57 0;#P lcolor 1;#P connect 57 0 96 0;#P fasten 108 0 60 0 435 88 602 88;#P lcolor 3;#P connect 38 0 39 0;#P connect 60 0 39 0;#P connect 45 0 44 0;#P connect 44 0 38 0;#P fasten 115 0 38 0 637 102 721 102;#P lcolor 7;#P connect 38 0 39 1;#P connect 45 0 46 0;#P connect 38 0 41 0;#P pop;