max v2;#N vpatcher 150 207 1092 868;#P comment 389 32 213 196626 noise0108;#P comment 604 32 143 196617 Yoichiro Serita © 2003 Topological Media Lab;#P newex 541 110 33 196617 * 50.;#P flonum 877 231 35 9 0 0 0 3 0 0 0 221 221 221 222 222 222 0 0 0;#P flonum 837 243 35 9 0 0 0 3 0 0 0 221 221 221 222 222 222 0 0 0;#P flonum 823 225 35 9 0 0 0 3 0 0 0 221 221 221 222 222 222 0 0 0;#P flonum 778 272 35 9 0 0 0 3 0 0 0 221 221 221 222 222 222 0 0 0;#P newex 835 268 59 196617 pak 0. 0. 0.;#P message 834 293 85 196617 bgcolor \$1 \$2 \$3;#P message 777 295 52 196617 thresh \$1;#P flonum 411 416 35 9 0 0 0 3 0 0 0 221 221 221 222 222 222 0 0 0;#P message 413 454 48 196617 xfade \$1;#P user jit.pwindow 238 486 162 122 0 1 0 0 1 0;#P button 766 528 15 0;#P newex 422 567 45 196617 jit.xfade;#P number 205 566 45 9 0 0 0 3 0 0 0 221 221 221 222 222 222 0 0 0;#P message 205 588 45 196617 rows \$1;#P number 762 232 35 9 0 0 0 3 0 0 0 221 221 221 222 222 222 0 0 0;#P message 762 256 41 196617 grid \$1;#P number 123 534 35 9 0 0 0 3 0 0 0 221 221 221 222 222 222 0 0 0;#P message 123 556 52 196617 thresh \$1;#P number 166 486 35 9 0 0 0 3 0 0 0 221 221 221 222 222 222 0 0 0;#P message 166 508 33 196617 op \$1;#P number 220 457 35 9 0 0 0 3 0 0 0 221 221 221 222 222 222 0 0 0;#P message 220 479 39 196617 tint \$1;#P newex 699 325 45 196617 jit.hatch;#P user jit.pwindow 697 377 162 122 0 1 0 0 1 0;#P number 698 270 35 9 0 0 0 3 0 0 0 221 221 221 222 222 222 0 0 0;#P number 573 288 35 9 0 0 0 3 0 0 0 221 221 221 222 222 222 0 0 0;#P number 528 284 35 9 0 0 0 3 0 0 0 221 221 221 222 222 222 0 0 0;#P message 589 309 29 196617 y \$1;#P message 527 305 29 196617 x \$1;#P message 642 301 45 196617 mode \$1;#P message 607 272 68 196617 size 160 120;#P button 21 295 15 0;#P newex 504 170 53 196617 jit.pack;#P newex 503 232 125 196617 jit.matrix 4 char 320 240;#P user jit.pwindow 489 367 162 122 0 1 0 0 1 0;#P newex 498 330 155 196617 jit.ameba @x 15 @y 22 @mode 1;#P number 376 376 35 9 0 0 0 3 0 0 0 221 221 221 222 222 222 0 0 0;#P newex 345 399 41 196617 random;#P number 311 376 35 9 0 0 0 3 0 0 0 221 221 221 222 222 222 0 0 0;#P newex 280 399 41 196617 random;#P newex 338 305 63 196617 route mouse;#P newex 338 328 75 196617 prepend getcell;#P number 153 409 35 9 0 0 0 3 0 0 0 221 221 221 222 222 222 0 0 0;#P user jit.pwindow 39 45 322 242 0 1 0 0 1 0;#P newex 81 383 82 196617 unpack 0 0 val 0;#P newex 81 354 51 196617 route cell;#P newex 32 487 30 196617 print;#P newex 38 330 53 196617 jit.matrix;#P newex 33 29 48 196617 r display;#P newex 766 555 119 196617 jit.noise 4 char 320 240;#P connect 18 0 2 0;#P connect 6 0 2 0;#P connect 8 0 2 0;#P connect 1 0 6 0;#P connect 2 1 4 0;#P connect 4 0 5 0;#P connect 33 0 32 0;#P connect 5 3 7 0;#P connect 31 0 30 0;#P connect 37 0 36 0;#P connect 29 0 28 0;#P connect 38 0 40 0;#P connect 11 0 10 1;#P connect 6 1 9 0;#P connect 9 0 8 0;#P connect 13 0 12 1;#P connect 42 0 41 0;#P connect 26 0 38 0;#P connect 41 0 38 0;#P connect 0 0 38 1;#P connect 19 0 15 0;#P connect 14 0 15 0;#P connect 16 0 14 0;#P connect 20 0 14 0;#P connect 22 0 14 0;#P connect 21 0 14 0;#P connect 17 0 16 0;#P connect 2 0 17 0;#P connect 2 0 17 1;#P connect 23 0 21 0;#P connect 2 0 17 2;#P connect 42 0 50 0;#P connect 2 0 17 3;#P connect 24 0 22 0;#P connect 25 0 20 0;#P connect 27 0 26 0;#P connect 16 0 27 0;#P connect 34 0 27 0;#P connect 44 0 27 0;#P connect 43 0 27 0;#P connect 50 0 35 0;#P connect 35 0 34 0;#P connect 16 0 39 0;#P connect 39 0 0 0;#P connect 46 0 43 0;#P connect 45 0 44 0;#P connect 47 0 45 0;#P connect 48 0 45 1;#P connect 49 0 45 2;#P pop;