max v2;#N vpatcher 238 309 686 694;#P origin -28 -28;#P window setfont "Sans Serif" 9.;#P comment 90 36 37 196617 iinitial value default 0;#P comment 98 22 197 196617 "measureselapsed light" uses jitter;#N comlet i set init value;#P inlet 91 87 15 0;#P hidden message 55 136 14 196617 1;#P hidden message 35 136 14 196617 0;#P newex 132 272 27 196617 t b i;#P comment 243 49 47 196617 msec accum interval;#N comlet i msec accum interval;#P inlet 243 87 15 0;#N comlet toggle accumulator \, 0 resets accumulator;#P inlet 132 87 15 0;#N comlet i averaging window;#P inlet 298 87 15 0;#N comlet i accumulated;#P outlet 132 327 15 0;#P hidden newex 35 87 45 196617 loadbang;#P newex 132 253 30 196617 int 0;#P toggle 132 209 15 0;#P newex 132 228 55 196617 metro 100;#P newex 132 295 40 196617 accum;#N comlet jit video;#P inlet 194 87 15 0;#N comlet averaged instantaneous;#P outlet 194 327 15 0;#P number 216 261 51 9 0 0 0 3 0 0 0 221 221 221 222 222 222 0 0 0;#P number 233 210 35 9 0 0 0 3 0 0 0 221 221 221 222 222 222 0 0 0;#P newex 194 232 42 196617 mavg 4;#P newex 194 149 65 196617 jit.rgb2luma;#P newex 194 170 42 196617 jit.spill;#P flonum 194 191 69 9 0 0 0 3 0 0 0 221 221 221 222 222 222 0 0 0;#P newex 194 128 104 196617 jit.matrix 4 char 1 1;#P comment 134 36 56 196617 bangs accumulate photo readings;#P comment 298 73 61 196617 ave window;#P comment 194 73 30 196617 video;#P comment 294 22 126 196617 ©2004 TML Sha Xin Wei;#P window setfont "Sans Serif" 14.;#P comment 11 20 87 196622 photoclock;#P hidden connect 18 0 25 0;#P hidden fasten 18 0 26 0 40 127 60 127;#P hidden fasten 26 0 16 0 60 201 137 201;#P connect 21 0 16 0;#P connect 16 0 15 0;#P connect 15 0 17 0;#P connect 17 0 24 0;#P hidden fasten 25 0 14 0 40 292 137 292;#P connect 24 0 14 0;#P fasten 27 0 14 0 96 292 137 292;#P connect 14 0 19 0;#P connect 24 1 14 1;#P fasten 9 0 17 1 199 249 157 249;#P fasten 22 0 15 1 248 116 182 116;#P connect 13 0 5 0;#P connect 5 0 8 0;#P connect 8 0 7 0;#P connect 7 0 6 0;#P connect 6 0 9 0;#P connect 9 0 12 0;#P connect 9 0 11 0;#P connect 10 0 9 1;#P fasten 20 0 10 0 303 115 306 115 306 208 238 208;#P pop;