max v2;#N vpatcher 103 94 927 751;#P comment 294 582 31 196620 tilt;#P comment 404 168 119 196620 Relative Direction;#P comment 85 46 14 196617 y;#P comment 61 46 14 196617 x;#P comment 104 46 35 196617 sample;#P comment 143 46 14 196617 g;#P comment 639 530 35 196617 theta;#P comment 159 241 30 196617 y acl (ave);#P comment 28 241 30 196617 x acl (ave);#P newex 555 288 27 196617 t f f;#P newex 411 288 27 196617 t f f;#P newex 629 473 49 196617 - 3.1416;#P newex 614 502 50 196617 + 3.1416;#P flonum 599 528 35 9 0 0 0 3 0 0 0 255 227 23 222 222 222 0 0 0;#P newex 599 448 40 196617 gate 3;#P newex 459 384 121 196617 if $f1 >= 0. then 2 else 3;#P number 428 414 35 9 0 0 0 3 0 0 0 221 221 221 222 222 222 0 0 0;#P newex 428 355 154 196617 if $f1 >= 0. then 1 else out2 $f2;#P outlet 599 557 15 0;#P flonum 629 384 35 9 0 0 0 3 0 0 0 221 221 221 222 222 222 0 0 0;#P newex 629 323 153 196617 if $f1 == 0. then 0.001 else $f1;#P newex 629 358 95 196617 expr atan($f2/$f1);#P comment 296 56 100 196617 yoichiro 03.12.03;#P comment 296 40 100 196617 abstilt;#P newex 242 379 153 196617 if $f1 == 0. then 0.001 else $f1;#P outlet 80 466 15 0;#P outlet 119 389 15 0;#P outlet 61 557 15 0;#P inlet 133 63 15 0;#P inlet 109 63 15 0;#P inlet 85 63 15 0;#P newex 61 113 83 196617 unpack 0. 0. 0 1.;#P newex 61 89 84 196617 pack 0. 0. $1 $2;#P inlet 61 63 15 0;#P flonum 193 245 35 9 0 0 0 3 0 0 0 156 179 255 222 222 222 0 0 0;#P flonum 61 245 35 9 0 0 0 3 0 0 0 156 179 255 222 222 222 0 0 0;#P comment 100 359 64 196617 accel vec len;#P comment 131 523 35 196617 dist;#P flonum 61 522 67 9 0 0 0 3 0 0 0 255 227 23 222 222 222 0 0 0;#P comment 130 438 35 196617 theta;#P flonum 61 437 66 9 0 0 0 3 0 0 0 255 227 23 222 222 222 0 0 0;#P comment 227 350 13 196617 g;#P flonum 242 349 35 9 0 0 0 3 0 0 0 156 179 255 222 222 222 0 0 0;#P newex 61 412 191 196617 expr acos($f1 / $f2);#P flonum 61 359 35 9 0 0 0 3 0 0 0 255 227 23 222 222 222 0 0 0;#P newex 61 331 142 196617 expr ($f1 * $f1 + $f2 * $f2);#P flonum 193 157 35 9 0 0 0 3 0 0 0 221 221 221 222 222 222 0 0 0;#P newex 193 216 29 196617 Lave;#P newex 193 189 39 196617 Llast 6;#P flonum 61 157 35 9 0 0 0 3 0 0 0 221 221 221 222 222 222 0 0 0;#P newex 61 487 22 196617 tan;#P newex 61 216 29 196617 Lave;#P newex 61 189 58 196617 Llast 6;#P user panel 398 162 396 439;#X brgb 246 213 167;#X frgb 0 0 0;#X border 0;#X rounded 0;#X shadow 0;#X done;#P user panel 38 312 293 294;#X brgb 198 248 181;#X frgb 0 0 0;#X border 0;#X rounded 0;#X shadow 0;#X done;#P connect 21 0 22 0;#P connect 22 0 23 0;#P connect 23 0 5 0;#P connect 5 0 2 0;#P connect 2 0 3 0;#P connect 3 0 19 0;#P connect 19 0 9 0;#P connect 9 0 10 0;#P connect 10 0 11 0;#P connect 11 0 14 0;#P connect 14 0 4 0;#P connect 4 0 16 0;#P connect 16 0 27 0;#P fasten 14 0 29 0 66 460 85 460;#P connect 24 0 22 1;#P connect 25 0 22 2;#P connect 23 2 2 1;#P fasten 10 0 28 0 66 381 124 381;#P connect 26 0 22 3;#P fasten 23 1 8 0 90 144 198 144;#P connect 8 0 6 0;#P connect 6 0 7 0;#P connect 7 0 20 0;#P connect 20 0 9 1;#P fasten 23 2 6 1 114 179 227 179;#P fasten 23 3 12 0 138 136 247 136;#P connect 12 0 30 0;#P connect 30 0 11 1;#P fasten 19 0 44 0 66 277 416 277;#P connect 44 1 37 0;#P connect 37 0 38 0;#P fasten 39 0 38 0 464 407 433 407;#P fasten 37 1 39 0 577 378 464 378;#P fasten 20 0 45 0 198 268 560 268;#P connect 45 1 37 1;#P fasten 38 0 40 0 433 439 604 439;#P fasten 42 0 41 0 619 522 604 522;#P connect 40 0 41 0;#P fasten 43 0 41 0 634 497 604 497;#P connect 41 0 36 0;#P connect 40 1 42 0;#P fasten 44 0 34 0 416 317 634 317;#P connect 34 0 33 0;#P connect 33 0 35 0;#P connect 35 0 40 1;#P connect 40 2 43 0;#P fasten 45 0 33 1 560 346 719 346;#P pop;