max v2;#N vpatcher 38 80 963 801;#P newex 10 70 95 196617 expr $f1 * 2. - 1.;#P newex 10 51 95 196617 expr $f1 * 2. - 1.;#P newex 57 26 43 196617 r p1-s2;#P newex 10 26 43 196617 r p1-s1;#P message 192 358 45 196617 800 600;#P hidden newex 288 79 53 1441802 select 32;#P hidden newex 288 52 40 1441802 key;#N vpatcher 367 242 856 639;#P flonum 388 162 35 9 0 0 0 3 0 0 0 221 221 221 222 222 222 0 0 0;#P flonum 344 162 35 9 0 0 0 3 0 0 0 221 221 221 222 222 222 0 0 0;#P newex 388 134 41 196617 !/ 240.;#P newex 344 134 41 196617 !/ 320.;#P newex 344 108 54 196617 unpack;#P newex 344 85 54 196617 pack;#P inlet 388 57 15 0;#P inlet 344 57 15 0;#P inlet 91 48 15 0;#P newex 164 349 35 196617 s ypos;#P newex 119 349 35 196617 s xpos;#P newex 74 193 27 196617 gate;#P message 103 151 14 196617 0;#P newex 103 130 45 196617 loadbang;#P comment 100 102 62 196617 key "esc" to fullscreen;#P newex 164 327 33 196617 * 0.4;#P newex 119 327 33 196617 * 0.4;#P newex 119 265 63 196617 route mouse;#P newex 119 289 55 196617 unpack 0 0;#P newex 74 242 55 196617 jit.window;#P newex 209 179 56 1441802 sel 0 1;#P message 209 200 97 1441802 \; max showmenubar;#P message 209 233 99 1441802 \; max hidemenubar;#P message 103 193 95 1441802 visible \$1 \, fullscreen \$1;#P toggle 177 155 15 0;#P newex 177 133 62 1441802 select 27;#P newex 177 109 40 1441802 key;#P fasten 2 0 15 0 182 173 79 173;#P fasten 3 0 7 0 108 233 79 233;#P connect 15 0 7 0;#P connect 18 0 15 1;#P connect 13 0 14 0;#P fasten 2 0 3 0 182 181 108 181;#P connect 14 0 3 0;#P connect 7 1 9 0;#P connect 9 0 8 0;#P connect 8 0 10 0;#P connect 10 0 16 0;#P fasten 25 0 10 1 349 314 147 314;#P connect 8 1 11 0;#P connect 11 0 17 0;#P connect 0 0 1 0;#P connect 1 0 2 0;#P fasten 26 0 11 1 393 320 192 320;#P fasten 2 0 6 0 182 173 214 173;#P connect 6 0 5 0;#P connect 6 1 4 0;#P connect 19 0 21 0;#P connect 21 0 22 0;#P connect 22 0 23 0;#P connect 23 0 25 0;#P connect 20 0 21 1;#P connect 22 1 24 0;#P connect 24 0 26 0;#P pop;#P newobj 167 382 61 196617 p fullscreen;#P hidden message 288 124 14 196617 0;#P hidden newex 288 102 45 196617 loadbang;#P newex 600 76 45 196617 loadbang;#P number 815 275 35 9 0 0 0 3 0 0 0 221 221 221 222 222 222 0 0 0;#P newex 333 209 14 196617 !;#P toggle 288 149 48 0;#P newex 333 253 45 196617 s lcdmsg;#P newex 333 231 27 196617 gate;#P newex 815 253 35 196617 !- 255;#P newex 732 296 93 196617 expr $f1 - 5 + $f2;#P newex 600 296 93 196617 expr $f1 - 5 + $f2;#P number 683 275 35 9 0 0 0 3 0 0 0 221 221 221 222 222 222 0 0 0;#P newex 521 548 35 196617 + 100;#P newex 489 548 35 196617 !- 100;#P newex 549 511 35 196617 r ypos;#P newex 511 511 35 196617 r xpos;#P newex 414 616 35 196617 s ypos;#P newex 377 616 35 196617 s xpos;#P number 414 594 35 9 0 0 0 3 0 0 0 221 221 221 222 222 222 0 0 0;#P number 377 594 35 9 0 0 0 3 0 0 0 221 221 221 222 222 222 0 0 0;#P newex 377 571 47 196617 unpack;#P newex 377 548 63 196617 route mouse;#P newex 600 413 27 196617 t b l;#P newex 600 391 143 196617 pack 0 0 0;#P newex 732 138 65 196617 qmetro 1500;#P number 732 368 35 9 0 0 0 3 0 0 0 221 221 221 222 222 222 0 0 0;#P message 732 322 45 196617 \$1 1500;#P number 732 186 35 9 0 0 0 3 0 0 0 221 221 221 222 222 222 0 0 0;#P newex 732 162 55 196617 random 10;#P newex 732 344 48 196617 line 1 20;#P newex 666 138 61 196617 qmetro 500;#P number 666 368 35 9 0 0 0 3 0 0 0 221 221 221 222 222 222 0 0 0;#P message 666 322 41 196617 \$1 500;#P number 666 186 35 9 0 0 0 3 0 0 0 221 221 221 222 222 222 0 0 0;#P newex 666 162 62 196617 random 255;#P newex 666 344 48 196617 line 1 20;#P toggle 600 104 15 0;#P newex 600 138 65 196617 qmetro 1000;#P number 600 368 35 9 0 0 0 3 0 0 0 221 221 221 222 222 222 0 0 0;#P message 600 322 45 196617 \$1 1000;#P number 600 186 35 9 0 0 0 3 0 0 0 221 221 221 222 222 222 0 0 0;#P newex 600 162 55 196617 random 10;#P newex 600 344 48 196617 line 1 20;#P newex 585 488 31 196617 - 10.;#P newex 585 463 79 196617 * -52.299999;#P newex 457 130 62 196617 unpack 0. 0.;#P flonum 78 257 35 9 0 0 0 3 0 0 0 221 221 221 222 222 222 0 0 0;#P newex 61 279 27 196617 * 3.;#P comment 107 191 49 196617 theta (vertical);#P comment 195 191 57 196617 theta (horizontal);#P newex 351 119 45 196617 s lcdmsg;#P newex 39 335 45 196617 r lcdmsg;#P newex 39 357 109 196617 jit.lcd 4 char 320 240;#P newex 61 304 52 196617 pack 0. 0.;#P flonum 187 217 35 9 0 0 0 3 0 0 0 255 227 23 222 222 222 0 0 0;#P comment 178 60 100 196617 yoichiro 03.12.03;#P comment 145 108 35 196617 sample;#P flonum 145 217 35 9 0 0 0 3 0 0 0 255 227 23 222 222 222 0 0 0;#P comment 154 191 39 196617 accel vec len;#P comment 69 202 25 196617 dist;#P flonum 103 217 35 9 0 0 0 3 0 0 0 255 227 23 222 222 222 0 0 0;#P flonum 61 217 35 9 0 0 0 3 0 0 0 255 227 23 222 222 222 0 0 0;#P newex 61 168 137 196617 abstilt 6 1.;#B color 5;#P number 457 511 35 9 0 0 0 3 0 0 0 221 221 221 222 222 222 0 0 0;#P message 350 152 80 196617 frgb 255 255 255 \, moveto 0 10 \, write \$1;#P newex 297 286 45 196617 loadbang;#P message 457 605 218 196617 \; lcdmsg paintarc \$1 \$2 \$3 \$4 \$5 20 \$6 \$7 \$8;#P newex 553 548 35 196617 + 100;#P newex 457 548 35 196617 !- 100;#P newex 457 575 235 196617 pack 0 0 0 0 0 255 0 0;#P message 297 311 128 196617 \; lcdmsg frgb 255 255 255 \, brgb 0 0 0 \, clear \, bang;#P newex 389 88 58 196617 t b l l clear;#P user jit.pwindow 38 403 322 242 0 1 0 0 1 0;#P newex 103 101 38 196617 / 127.;#P newex 61 101 38 196617 / 127.;#P newex 103 71 35 196617 r yacl;#P newex 61 71 35 196617 r xacl;#P comment 188 108 35 196617 g;#P flonum 187 124 35 9 0 0 0 3 0 0 0 156 179 255 222 222 222 0 0 0;#P number 145 124 35 9 0 0 0 3 0 0 0 156 179 255 222 222 222 0 0 0;#P flonum 103 124 35 9 0 0 0 3 0 0 0 156 179 255 222 222 222 0 0 0;#P flonum 61 124 35 9 0 0 0 3 0 0 0 156 179 255 222 222 222 0 0 0;#P comment 178 44 100 196617 abstilt-test;#P connect 87 0 89 0;#P connect 88 0 90 0;#P connect 31 0 30 0;#P connect 30 0 10 0;#P connect 6 0 8 0;#P connect 8 0 1 0;#P connect 89 0 1 0;#P connect 1 0 20 0;#P connect 20 0 21 0;#P connect 21 0 35 0;#P hidden connect 60 0 29 0;#P connect 35 0 29 0;#P connect 36 0 35 1;#P connect 7 0 9 0;#P connect 9 0 2 0;#P fasten 90 0 2 0 180 119;#P connect 2 0 20 1;#P connect 20 1 22 0;#P fasten 28 0 29 1 192 289 108 289;#P connect 3 0 20 2;#P connect 20 2 25 0;#P fasten 30 0 83 0 44 378 172 378;#P connect 4 0 20 3;#P connect 20 3 28 0;#P connect 86 0 83 1;#P hidden connect 84 0 85 0;#P hidden connect 81 0 82 0;#P hidden connect 85 0 77 0;#P hidden connect 82 0 77 0;#P connect 17 0 12 0;#P fasten 77 0 78 0 293 202 338 202;#P connect 78 0 75 0;#P connect 75 0 76 0;#P fasten 11 1 18 0 410 141 355 141;#P fasten 11 3 75 1 442 198 355 198;#P connect 18 0 75 1;#P fasten 11 0 32 0 394 112 356 112;#P fasten 10 1 61 0 354 649 368 649 368 541 382 541;#P connect 61 0 62 0;#P connect 62 0 63 0;#P connect 63 0 65 0;#P fasten 29 0 11 0 66 329 270 329 270 75 394 75;#P connect 62 1 64 0;#P connect 64 0 66 0;#P fasten 11 2 37 0 426 120 462 120;#P connect 37 0 19 0;#P connect 19 0 14 0;#P connect 14 0 13 0;#P connect 13 0 16 0;#P connect 67 0 14 1;#P connect 19 0 69 0;#P connect 69 0 13 1;#P connect 68 0 69 1;#P connect 19 0 70 0;#P connect 70 0 13 2;#P connect 67 0 70 1;#P connect 19 0 15 0;#P connect 15 0 13 3;#P connect 68 0 15 1;#P fasten 37 1 38 0 514 454 590 454;#P connect 38 0 39 0;#P connect 39 0 13 4;#P connect 80 0 46 0;#P connect 46 0 45 0;#P connect 45 0 41 0;#P connect 41 0 42 0;#P connect 42 0 72 0;#P connect 72 0 43 0;#P connect 43 0 40 0;#P connect 40 0 44 0;#P connect 44 0 59 0;#P connect 59 0 60 0;#P connect 60 1 13 5;#P fasten 46 0 52 0 605 130 671 130;#P connect 52 0 48 0;#P connect 48 0 49 0;#P connect 49 0 50 0;#P connect 50 0 47 0;#P connect 47 0 51 0;#P connect 51 0 59 1;#P fasten 37 0 71 0 462 215 688 215;#P connect 71 0 72 1;#P fasten 46 0 58 0 605 130 737 130;#P connect 58 0 54 0;#P connect 54 0 55 0;#P connect 55 0 73 0;#P connect 73 0 56 0;#P connect 56 0 53 0;#P connect 53 0 57 0;#P connect 57 0 59 2;#P fasten 37 0 74 0 462 213 820 213;#P connect 74 0 79 0;#P connect 79 0 73 1;#P pop;