max v2;#N vpatcher 231 328 872 970;#P comment 252 93 213 196626 cross0115_test;#P comment 467 93 143 196617 Yoichiro Serita © 2003 Topological Media Lab;#P newex 269 268 45 196617 loadbang;#P newex 50 89 29 196617 t b l;#P message 50 294 175 196617 paintoval \$1 \$2 \$3 \$4 255 0 0 \, bang;#P newex 106 242 27 196617 + 2;#P newex 78 242 27 196617 - 2;#P newex 134 242 27 196617 + 2;#P newex 50 242 27 196617 - 2;#P newex 50 268 64 196617 pack 0 0 0 0;#P newex 50 205 38 196617 unpack;#P message 239 189 298 196617 clear \, frgb 255 255 255 \, moveto \$1 \$2 \, write A \, lineto \$3 \$4 \, write B \, moveto \$5 \$6 \, write C \, lineto \$7 \$8 \, write D \, bang;#P message 269 292 201 196617 frgb 255 255 255 \, brgb 0 0 0 \, clear \, bang;#P user jit.pwindow 238 356 322 242 0 1 0 0 1 0;#P newex 239 326 109 196617 jit.lcd 4 char 320 240;#P number 95 143 35 9 0 0 0 3 0 0 0 221 221 221 222 222 222 0 0 0;#P number 317 43 35 9 0 0 0 3 0 0 0 221 221 221 222 222 222 0 0 0;#P number 281 43 35 9 0 0 0 3 0 0 0 221 221 221 222 222 222 0 0 0;#P number 240 43 35 9 0 0 0 3 0 0 0 221 221 221 222 222 222 0 0 0;#P number 204 43 35 9 0 0 0 3 0 0 0 221 221 221 222 222 222 0 0 0;#P number 163 43 35 9 0 0 0 3 0 0 0 221 221 221 222 222 222 0 0 0;#P number 127 43 35 9 0 0 0 3 0 0 0 221 221 221 222 222 222 0 0 0;#P number 86 43 35 9 0 0 0 3 0 0 0 221 221 221 222 222 222 0 0 0;#P number 50 43 35 9 0 0 0 3 0 0 0 221 221 221 222 222 222 0 0 0;#P newex 50 67 105 196617 pak 0 0 0 0 0 0 0 0;#P newex 50 117 55 196617 cross0115;#P connect 2 0 1 0;#P connect 1 0 22 0;#P fasten 22 1 0 0 74 110 55 110;#P connect 22 0 0 0;#P connect 0 0 15 0;#P connect 15 0 17 0;#P connect 17 0 16 0;#P connect 16 0 21 0;#P connect 3 0 1 1;#P connect 19 0 16 1;#P connect 4 0 1 2;#P connect 15 1 19 0;#P connect 20 0 16 2;#P connect 5 0 1 3;#P connect 0 1 10 0;#P connect 6 0 1 4;#P connect 18 0 16 3;#P connect 15 0 20 0;#P connect 7 0 1 5;#P connect 8 0 1 6;#P connect 15 1 18 0;#P connect 9 0 1 7;#P fasten 22 1 14 0 74 110 244 110;#P fasten 13 0 11 0 274 313 244 313;#P fasten 21 0 11 0 55 318 244 318;#P connect 14 0 11 0;#P connect 11 0 12 0;#P connect 23 0 13 0;#P pop;