#N canvas 0 0 452 302 10;
#X obj 37 69 inlet;
#X obj 129 81 loadbang;
#X obj 132 110 samplerate~;
#X obj 53 266 outlet;
#X obj 60 101 / 1000;
#X obj 58 141 * 44100;
#X connect 0 0 4 0;
#X connect 1 0 2 0;
#X connect 2 0 5 1;
#X connect 4 0 5 0;
#X connect 5 0 3 0;
