#N canvas 119 289 478 328 10;
#X obj 123 37 inlet;
#X obj 200 39 inlet;
#X obj 266 40 inlet;
#X text 128 12 red;
#X text 198 14 green;
#X text 270 14 blue;
#X obj 265 114 t b f;
#X obj 200 144 +;
#X obj 200 169 t b f;
#X obj 200 200 +;
#X obj 122 91 * -65536;
#X obj 199 92 * -256;
#X obj 265 92 * -1;
#X obj 200 231 - 1;
#X obj 176 283 outlet;
#X obj 352 26 loadbang;
#X msg 354 47 0;
#X text 96 2 COLOR VALUES ARE BEWTEEN 0 and 255;
#X text 305 4 (0-255);
#X obj 124 62 int 0;
#X obj 197 63 int 0;
#X obj 270 64 int 0;
#X connect 0 0 19 0;
#X connect 1 0 20 0;
#X connect 2 0 21 0;
#X connect 6 0 7 0;
#X connect 6 1 7 1;
#X connect 7 0 8 0;
#X connect 8 0 9 0;
#X connect 8 1 9 1;
#X connect 9 0 13 0;
#X connect 10 0 9 0;
#X connect 11 0 7 0;
#X connect 12 0 6 0;
#X connect 13 0 14 0;
#X connect 15 0 16 0;
#X connect 16 0 12 0;
#X connect 16 0 10 0;
#X connect 16 0 11 0;
#X connect 19 0 10 0;
#X connect 20 0 11 0;
#X connect 21 0 12 0;
