#N canvas 494 135 647 720 10;
#X obj 102 52 inlet;
#X obj 161 322 spell;
#X obj 161 353 sel 32;
#X obj 196 462 makefilename %c;
#X obj 141 408 spell;
#X obj 70 514 ../list/build;
#X obj 73 584 list2symbol;
#X msg 137 559 symbol;
#X obj 71 544 t l b;
#X obj 74 635 outlet;
#X obj 139 378 symbol \$1;
#X obj 75 241 t b s;
#X obj 75 158 route symbol;
#X obj 158 184 list;
#X obj 159 213 list2symbol;
#X connect 0 0 12 0;
#X connect 1 0 2 0;
#X connect 2 0 10 0;
#X connect 2 1 3 0;
#X connect 3 0 5 1;
#X connect 4 0 3 0;
#X connect 5 0 8 0;
#X connect 6 0 9 0;
#X connect 7 0 6 1;
#X connect 8 0 6 0;
#X connect 8 1 7 0;
#X connect 10 0 4 0;
#X connect 11 0 5 0;
#X connect 11 1 1 0;
#X connect 12 0 11 0;
#X connect 12 1 13 0;
#X connect 13 0 14 0;
#X connect 14 0 11 0;
