#N canvas 404 342 614 565 10;
#X obj 138 185 s2l;
#X msg 168 162 symbol;
#N canvas 0 0 462 312 drip 0;
#X obj 75 213 list split 1;
#X obj 75 133 until;
#X obj 75 168 list append;
#X obj 205 213 bang;
#X obj 75 101 t b l;
#X obj 75 67 inlet;
#X obj 75 255 outlet;
#X text 234 104 see list-help.pd;
#X obj 158 255 outlet;
#X connect 0 0 6 0;
#X connect 0 1 2 1;
#X connect 0 2 3 0;
#X connect 0 2 8 0;
#X connect 1 0 2 0;
#X connect 2 0 0 0;
#X connect 3 0 1 1;
#X connect 4 0 1 0;
#X connect 4 1 2 1;
#X connect 5 0 4 0;
#X restore 138 229 pd drip;
#X obj 271 467 f;
#X obj 263 406 + 1;
#X msg 216 236 1;
#X obj 227 407 f 1;
#X obj 124 13 inlet;
#X text 168 12 Symbol;
#X obj 110 500 outlet;
#X obj 128 349 t s b;
#X obj 248 498 outlet;
#X obj 175 83 l2s;
#X obj 109 59 route symbol;
#X obj 115 426 t l l;
#X obj 113 399 list prepend;
#X msg 361 266 list;
#X obj 89 460 lister;
#X obj 139 112 t a b b b;
#X obj 167 266 t b b;
#X connect 0 0 2 0;
#X connect 1 0 0 1;
#X connect 2 0 10 0;
#X connect 2 1 19 0;
#X connect 3 0 11 0;
#X connect 4 0 6 1;
#X connect 5 0 6 1;
#X connect 6 0 3 1;
#X connect 6 0 4 0;
#X connect 7 0 13 0;
#X connect 10 0 15 0;
#X connect 10 1 6 0;
#X connect 12 0 18 0;
#X connect 13 0 18 0;
#X connect 13 1 12 0;
#X connect 14 0 17 1;
#X connect 14 1 15 1;
#X connect 15 0 14 0;
#X connect 16 0 15 1;
#X connect 17 0 9 0;
#X connect 18 0 0 0;
#X connect 18 1 1 0;
#X connect 18 2 5 0;
#X connect 18 3 16 0;
#X connect 19 0 17 0;
#X connect 19 1 3 0;
