max v2;#N vpatcher 121 133 756 695;#P origin 0 20;#P newex 73 222 43 196617 jit.qball;#P newex 346 232 43 196617 jit.qball;#P newex 467 155 27 196617 t b i;#P newex 405 155 27 196617 t b i;#P newex 41 391 27 196617 gate;#P toggle 41 366 15 0;#P newex 379 401 27 196617 gate;#P toggle 379 376 15 0;#P inlet 467 67 15 0;#P inlet 405 67 15 0;#P inlet 134 67 15 0;#P inlet 318 67 15 0;#P inlet 58 67 15 0;#P outlet 297 443 15 0;#P message 210 83 26 196617 100;#P newex 210 59 45 196617 loadbang;#P newex 379 422 195 196617 jit.clip 2 long 320 240 @min 0 @max 255;#P number 405 135 35 9 0 0 0 3 0 0 0 156 179 255 222 222 222 0 0 0;#P newex 297 383 45 196617 jit.repos;#P number 467 135 35 9 0 0 0 3 0 0 0 156 179 255 222 222 222 0 0 0;#P message 68 148 28 196617 bang;#P newex 318 97 48 196617 unpack;#P newex 318 207 53 196617 t b b b l;#P number 356 122 35 9 0 0 0 3 0 0 0 255 227 23 222 222 222 0 0 0;#P number 318 122 35 9 0 0 0 3 0 0 0 255 227 23 222 222 222 0 0 0;#P newex 318 182 48 196617 pack 0 0;#P message 385 290 110 196617 plane \$1 \, offset \$2 \$3;#P newex 360 261 135 196617 swirl0113;#P newex 332 340 201 196617 jit.matrix $1_swirl 2 long 320 240;#P newex 360 314 142 196617 jit.fill $1_swirl 0;#P comment 264 122 46 196617 (x2 \, y2);#P newex 58 97 48 196617 unpack;#P newex 305 242 26 196617 s rd;#P newex 21 311 26 196617 r rd;#P user jit.pwindow 378 450 82 62 0 1 0 0 1 0;#P newex 58 196 40 196617 t b b l;#P number 96 122 35 9 0 0 0 3 0 0 0 255 227 23 222 222 222 0 0 0;#P number 58 122 35 9 0 0 0 3 0 0 0 255 227 23 222 222 222 0 0 0;#P newex 58 168 86 196617 pack 0 0 0;#P message 151 278 65 196617 offset \$1 \$2;#P number 134 122 35 9 0 0 0 3 0 0 0 156 179 255 222 222 222 0 0 0;#P newex 88 250 73 196617 selfforce1225;#P newex 58 341 209 196617 jit.matrix $1_force 1 char 320 240;#P newex 88 309 132 196617 jit.fill $1_force 0;#P user jit.pwindow 40 416 82 62 0 1 0 0 1 0;#P comment 8 122 46 196617 (x1 \, y1);#P comment 173 122 53 196617 prameter1;#P connect 41 0 42 0;#P connect 42 0 2 0;#P connect 34 0 15 0;#P connect 15 0 9 0;#P connect 9 0 8 0;#P connect 26 0 8 0;#P connect 8 0 11 0;#P fasten 13 0 4 0 26 336 63 336;#P connect 11 0 4 0;#P connect 4 0 42 1;#P fasten 6 0 26 0 139 142 73 142;#P connect 11 1 46 0;#P connect 11 2 5 0;#P connect 46 0 5 0;#P fasten 7 0 3 0 156 301 93 301;#P connect 5 0 3 0;#P connect 15 1 10 0;#P connect 10 0 8 1;#P connect 32 0 6 0;#P connect 36 0 6 0;#P connect 6 0 8 2;#P connect 5 1 7 0;#P connect 31 0 32 0;#P fasten 4 0 28 0 63 366 302 366;#P connect 28 0 33 0;#P connect 24 0 14 0;#P connect 35 0 25 0;#P connect 25 0 22 0;#P connect 44 0 21 0;#P connect 43 0 21 0;#P connect 22 0 21 0;#P connect 21 0 24 0;#P connect 24 1 18 0;#P connect 18 0 28 1;#P connect 24 2 45 0;#P connect 25 1 23 0;#P connect 23 0 21 1;#P connect 45 0 19 0;#P connect 24 3 19 0;#P connect 19 0 17 0;#P fasten 20 0 17 0 390 309 365 309;#P connect 39 0 40 0;#P connect 40 0 30 0;#P connect 30 0 12 0;#P fasten 19 1 20 0 490 284 390 284;#P fasten 18 0 40 1 337 367 401 367;#P connect 32 0 29 0;#P connect 37 0 29 0;#P connect 29 0 43 0;#P connect 43 1 19 1;#P connect 38 0 27 0;#P connect 32 0 27 0;#P connect 27 0 44 0;#P connect 44 1 19 2;#P pop;