max v2;#N vpatcher 59 62 962 728;#P origin 0 33;#P newex 40 307 43 196617 jit.qball;#P comment 784 36 63 196617 parameters;#P comment 739 36 30 196617 mov2;#P comment 707 36 30 196617 mov1;#P comment 196 46 30 196617 pos2;#P inlet 836 52 15 0;#P inlet 813 52 15 0;#P inlet 790 52 15 0;#P inlet 767 52 15 0;#P flonum 498 311 35 9 0 0 0 3 0 0 0 156 179 255 222 222 222 0 0 0;#P flonum 679 116 35 9 0 0 0 3 0 0 0 156 179 255 222 222 222 0 0 0;#P toggle 304 353 15 0;#P newex 304 372 27 196617 gate;#P user jit.pwindow 303 392 42 32 0 1 0 0 1 0;#P toggle 515 533 15 0;#P newex 515 552 27 196617 gate;#P user jit.pwindow 514 572 42 32 0 1 0 0 1 0;#P toggle 560 178 15 0;#P newex 560 197 27 196617 gate;#P user jit.pwindow 559 217 42 32 0 1 0 0 1 0;#P toggle 343 481 15 0;#P newex 343 500 27 196617 gate;#P user jit.pwindow 342 520 42 32 0 1 0 0 1 0;#P toggle 676 485 15 0;#P newex 676 504 27 196617 gate;#P user jit.pwindow 675 524 42 32 0 1 0 0 1 0;#P toggle 561 293 15 0;#P newex 561 312 27 196617 gate;#P user jit.pwindow 560 332 42 32 0 1 0 0 1 0;#P inlet 744 52 15 0;#P inlet 721 52 15 0;#P newex 360 78 45 196617 loadbang;#P outlet 482 618 15 0;#P inlet 200 67 15 0;#P inlet 78 67 15 0;#P newex 164 149 64 196617 pack 0 0 0 0;#P newex 200 109 42 196617 t l l;#P newex 232 149 28 196617 Lsub;#P newex 360 452 61 196617 mask_0117;#P newex 693 445 61 196617 mask_0117;#P newex 541 257 190 196617 mask_0117;#P newex 360 334 148 196617 heat_0117 $1-heat2 200 0.03;#P newex 541 145 148 196617 heat_0117 $1-heat1 500 0.04;#P newex 482 503 75 196617 jit.op @op max;#P newex 406 252 63 196617 jit.op @op *;#P number 452 311 35 9 0 0 0 3 0 0 0 156 179 255 222 222 222 0 0 0;#P toggle 360 288 28 0;#P newex 360 405 110 196617 jit.op @op !- @val 255;#P newex 25 281 40 196617 t b b l;#P message 118 357 65 196617 offset \$1 \$2;#P newex 55 382 60 196617 jit.fill $1 0;#P newex 42 149 64 196617 pack 0 0 0 0;#P newex 25 257 27 196617 gate;#P newex 55 336 73 196617 linecrack0108;#P newex 406 53 143 196617 jit.matrix $1 1 char 320 240;#P newex 110 225 27 196617 > 5;#P number 110 205 65 9 0 0 0 3 0 0 0 221 221 221 222 222 222 0 0 0;#P newex 78 109 42 196617 t l l;#P newex 110 149 28 196617 Lsub;#P newex 110 183 42 196617 L2norm;#P number 633 116 35 9 0 0 0 3 0 0 0 156 179 255 222 222 222 0 0 0;#P toggle 541 104 28 0;#P comment 75 46 30 196617 pos1;#P fasten 7 0 10 0 115 246 30 246;#P connect 10 0 14 0;#P connect 14 1 62 0;#P connect 5 1 11 0;#P fasten 27 0 10 1 169 172 47 172;#P connect 11 0 10 1;#P connect 62 0 9 0;#P connect 14 2 9 0;#P fasten 13 0 12 0 123 376 60 376;#P connect 9 0 12 0;#P connect 28 0 5 0;#P connect 5 0 11 2;#P connect 5 1 4 0;#P fasten 25 0 3 0 237 177 115 177;#P connect 4 0 3 0;#P connect 3 0 6 0;#P connect 6 0 7 0;#P connect 9 1 13 0;#P connect 5 0 4 1;#P connect 26 1 27 0;#P connect 29 0 26 0;#P connect 26 0 27 2;#P connect 26 1 25 0;#P connect 26 0 25 1;#P connect 51 0 50 0;#P connect 50 0 49 0;#P fasten 21 0 50 1 365 365 326 365;#P connect 42 0 41 0;#P connect 41 0 40 0;#P connect 31 0 16 0;#P connect 16 0 21 0;#P connect 21 0 15 0;#P connect 15 0 24 0;#P connect 24 0 41 1;#P fasten 14 0 8 0 30 456 281 456 281 44 411 44;#P connect 8 0 18 0;#P connect 18 0 21 1;#P fasten 22 0 24 1 546 440 416 440;#P fasten 56 0 17 0 818 288 457 288;#P connect 17 0 21 2;#P fasten 20 0 18 1 546 230 464 230;#P fasten 24 0 19 0 365 480 487 480;#P connect 19 0 30 0;#P fasten 57 0 53 0 841 279 503 279;#P connect 53 0 21 3;#P connect 48 0 47 0;#P connect 47 0 46 0;#P fasten 19 0 47 1 487 525 537 525;#P fasten 31 0 1 0 365 99 546 99;#P connect 1 0 20 0;#P connect 20 0 22 0;#P fasten 23 0 19 1 698 479 552 479;#P connect 45 0 44 0;#P connect 44 0 43 0;#P connect 36 0 35 0;#P connect 35 0 34 0;#P fasten 20 0 44 1 546 174 582 174;#P fasten 22 0 35 1 546 280 583 280;#P fasten 8 0 20 1 411 89 592 89;#P fasten 54 0 2 0 772 83 638 83;#P connect 2 0 20 2;#P connect 39 0 38 0;#P connect 38 0 37 0;#P fasten 55 0 52 0 795 85 684 85;#P connect 52 0 20 3;#P fasten 21 0 23 0 365 373 698 373;#P connect 23 0 38 1;#P connect 32 0 22 1;#P connect 33 0 23 1;#P pop;