max v2;#N vpatcher 360 311 829 579;#P toggle 196 202 15 0;#P newex 241 201 79 196617 print dumpOSC;#P newex 211 201 31 196617 gate;#P message 3 154 68 196617 printcontents;#P message 3 182 89 196617 readtypestrings 0;#P message 3 168 89 196617 readtypestrings 1;#P message 3 77 75 196617 errorreporting;#P message 3 140 42 196617 version;#P message 3 64 55 196617 debugstats;#P message 3 50 75 196617 readitagainsam;#P comment 191 146 136 196617 nik@f0.am - intial version;#P comment 191 83 257 196617 You may use \, modify and/or distribute under the terms of the GNU General Public License. Please see the LICENSE file for the specific terms of the license.;#P comment 191 125 135 196617 copyright 2001 FoAM vzw.;#P newex 86 47 91 196617 otudp read $1;#P message 3 126 35 196617 debug;#P newex 86 122 91 196617 OpenSoundControl;#P outlet 126 225 15 0;#P comment 191 50 198 196617 dumpOSC patch for pd-max compatability;#P comment 87 8 257 196626 dumpOSC port: $1;#P hidden connect 9 0 5 0;#P hidden connect 10 0 5 0;#P hidden connect 12 0 5 0;#P connect 5 0 3 0;#P hidden connect 4 0 3 0;#P hidden connect 11 0 3 0;#P hidden connect 14 0 3 0;#P hidden connect 13 0 3 0;#P hidden connect 15 0 3 0;#P connect 3 1 2 0;#P hidden connect 18 0 16 0;#P fasten 3 1 16 1 131 170 237 170;#P connect 16 0 17 0;#P pop;