max v2;#N vpatcher 396 100 945 649;#P newex 438 426 69 196617 jit.matrix $1;#P message 438 405 31 196617 clear;#P newex 438 384 45 196617 loadbang;#P outlet 112 500 15 0;#P inlet 260 73 15 0;#P inlet 33 73 15 0;#P inlet 366 73 15 0;#P inlet 112 73 15 0;#P comment 482 43 28 196617 up;#P message 477 60 41 196617 41 500;#B color 9;#P message 439 60 35 196617 0 500;#B color 9;#P newex 439 87 48 196617 line 1 20;#P flonum 366 331 47 9 0 0 0 3 0 0 0 156 179 255 222 222 222 0 0 0;#P newex 439 203 45 196617 * 0.001;#P user uslider 439 135 26 46 41 1 0 0;#P newex 217 385 65 196617 jit.op @op +;#P message 63 247 27 196617 max;#P newex 33 271 55 196617 prepend op;#P message 33 247 28 196617 pass;#P newex 33 224 71 196617 sel 0 1;#P newex 310 216 27 196617 gate;#P newex 112 262 53 196617 jit.matrix;#P newex 327 187 27 196617 b;#P newex 112 454 69 196617 jit.matrix $1;#P newex 217 258 143 196617 jit.matrix $1 1 char 320 240;#P newex 272 356 104 196617 jit.op @op * @val $3;#P newex 112 419 115 196617 jit.op @op max;#P number 260 194 35 9 0 0 0 3 0 0 0 156 179 255 222 222 222 0 0 0;#P newex 217 215 53 1441802 metro $2;#P newex 217 338 55 196617 heat_0106;#P comment 42 103 59 196617 heat on/off;#P comment 440 43 28 196617 down;#P connect 26 0 12 0;#P connect 12 0 13 0;#P fasten 15 0 14 0 68 265 38 265;#P connect 13 0 14 0;#P connect 12 1 15 0;#P connect 24 0 10 0;#P fasten 3 0 10 0 222 238 117 238;#P fasten 14 0 5 0 38 403 117 403;#P connect 10 0 5 0;#P connect 5 0 8 0;#P connect 8 0 28 0;#P fasten 26 0 3 0 38 161 222 161;#P fasten 11 0 7 0 315 243 222 243;#P connect 3 0 7 0;#P connect 7 0 2 0;#P connect 2 0 16 0;#P connect 16 0 5 1;#P connect 27 0 4 0;#P connect 4 0 3 1;#P fasten 7 0 6 0 222 317 277 317;#P connect 6 0 16 1;#P fasten 26 0 11 0 38 157 315 157;#P fasten 24 0 9 0 117 110 332 110;#P connect 9 0 11 1;#P connect 18 0 19 0;#P connect 25 0 19 0;#P connect 19 0 6 1;#P connect 29 0 30 0;#P connect 30 0 31 0;#P fasten 22 0 20 0 482 79 444 79;#P connect 21 0 20 0;#P connect 20 0 17 0;#P connect 17 0 18 0;#P pop;