max v2;#N vpatcher 107 71 842 570;#P user jit.pwindow 304 271 82 62 0 1 0 0 1 0;#P newex 329 109 27 196617 gate;#P message 615 209 44 196617 \; win_s 0;#P message 507 213 44 196617 \; win_s 1;#P toggle 53 303 15 0;#P newex 53 323 27 196617 gate;#P newex 53 346 30 196617 print;#P newex 243 346 41 196617 s key_i;#B color 12;#P newex 194 347 43 196617 s key_p;#B color 12;#P newex 176 366 43 196617 s key_c;#B color 12;#P newex 138 424 84 196617 s intrude_keyval;#B color 12;#P newex 104 446 71 196617 s feed_keyval;#B color 12;#P newex 246 369 68 196617 r intrude_val;#B color 12;#P newex 39 369 55 196617 r feed_val;#B color 12;#P newex 138 400 27 196617 + 1;#P message 155 347 19 196617 -3;#P message 138 347 14 196617 3;#P message 121 347 20 196617 10;#P message 104 347 25 196617 -10;#P newex 104 400 27 196617 + 1;#P newex 104 323 138 196617 sel 28 29 30 31 99 112 105;#P newex 104 301 40 196617 key;#P message 389 87 14 196617 0;#P newex 389 66 45 196617 loadbang;#P user GSwitch2 389 209 39 32 0 0;#P comment 406 37 62 196617 key "esc" to fullscreen;#P inlet 373 33 15 0;#P message 166 149 20 196617 \$8;#P newex 166 169 27 196617 + 1;#P message 156 93 20 196617 \$3;#P newex 129 116 27 196617 gate;#P newex 146 44 61 196617 r mouseinfo;#B color 12;#P newex 96 255 35 196617 s mp1;#B color 12;#P newex 129 255 35 196617 s mp2;#B color 12;#P newex 96 230 43 196617 gate 2;#P number 96 207 35 9 0 0 0 3 0 0 0 221 221 221 222 222 222 0 0 0;#P message 129 149 35 196617 \$1 \$2;#P newex 146 67 63 196617 route mouse;#P button 404 332 15 0;#P newex 404 355 128 196617 pack mouse 0 0 0 0 0 0 0 0;#P newex 432 327 45 196617 * 0.313;#P newex 418 305 45 196617 * 0.313;#P newex 418 252 63 196617 route mouse;#P newex 418 276 110 196617 unpack 0 0 0 0 0 0 0 0;#P newex 389 390 61 196617 s mouseinfo;#P newex 373 169 55 196617 jit.window;#P newex 505 103 56 1441802 sel 0 1;#P message 507 124 97 1441802 \; max showmenubar;#P message 606 123 110 1441802 \; max hidemenubar;#P message 389 115 158 1441802 visible \$1 \, fullscreen \$1;#P toggle 476 82 15 0;#P newex 476 60 62 1441802 select 27;#P newex 476 33 40 1441802 key;#P connect 48 0 47 0;#P connect 47 0 46 0;#P fasten 31 0 47 1 109 320 75 320;#P fasten 24 0 17 0 171 198 101 198;#P connect 17 0 18 0;#P connect 18 0 20 0;#P connect 31 0 32 0;#P connect 32 0 34 0;#P connect 34 0 33 0;#P connect 35 0 33 0;#P connect 33 0 41 0;#P connect 32 1 35 0;#P fasten 39 0 33 1 44 393 126 393;#P connect 23 0 22 0;#P connect 22 0 16 0;#P connect 16 0 18 1;#P connect 18 1 19 0;#P connect 32 2 36 0;#P connect 37 0 38 0;#P connect 36 0 38 0;#P connect 38 0 42 0;#P connect 21 0 15 0;#P connect 15 0 22 1;#P connect 32 3 37 0;#P fasten 40 0 38 1 251 392 160 392;#P connect 15 0 23 0;#P connect 22 0 25 0;#P connect 25 0 24 0;#P connect 32 4 43 0;#P connect 32 5 44 0;#P connect 32 6 45 0;#P connect 51 0 52 0;#P connect 2 0 51 0;#P connect 26 0 51 1;#P connect 51 0 7 0;#P fasten 3 0 7 0 394 153 378 153;#P connect 29 0 30 0;#P fasten 2 0 3 0 481 108 394 108;#P connect 30 0 3 0;#P fasten 2 0 28 0 481 196 394 196;#P fasten 13 0 8 0 409 381 394 381;#P connect 28 0 8 0;#P fasten 11 0 14 0 423 326 409 326;#P connect 14 0 13 0;#P connect 7 1 28 1;#P connect 28 1 10 0;#P connect 10 0 9 0;#P connect 9 0 11 0;#P connect 11 0 13 1;#P connect 9 1 12 0;#P connect 12 0 13 2;#P connect 9 2 13 3;#P connect 9 3 13 4;#P connect 9 4 13 5;#P connect 0 0 1 0;#P connect 1 0 2 0;#P connect 9 5 13 6;#P connect 9 6 13 7;#P connect 2 0 6 0;#P connect 6 0 5 0;#P connect 6 0 49 0;#P connect 9 7 13 8;#P connect 6 1 4 0;#P connect 6 1 50 0;#P pop;