max v2;#N vpatcher 6 229 406 529;#P number 76 115 35 9 0 0 0 3 0 0 0 221 221 221 222 222 222 0 0 0;#P newex 108 37 45 196617 loadbang;#P outlet 64 204 15 0;#P inlet 171 41 15 0;#P inlet 55 35 15 0;#P newex 149 142 30 196617 sel 1;#P newex 63 155 27 196617 gate;#P newex 122 109 29 196617 == 5;#P message 107 60 14 196617 0;#P newex 79 82 66 196617 counter;#P connect 2 0 3 0;#P connect 3 0 7 0;#P connect 0 0 9 0;#P connect 5 0 0 0;#P connect 5 0 3 1;#P connect 4 0 1 0;#P connect 8 0 1 0;#P connect 1 0 0 2;#P connect 0 0 2 0;#P connect 6 0 2 1;#P connect 2 0 4 0;#P pop;