max v2;#N vpatcher 31 92 506 390;#P origin 0 12;#P comment 57 28 284 196617 routing for player sensor messages from Oz (Oz uses route_player to get raw sensor direct from sensors);#P comment 52 63 284 196617 13.1.03 xinwei@sponge.org;#P newex 242 190 45 196617 s $1-s9;#P newex 193 190 45 196617 s $1-s8;#P newex 143 190 45 196617 s $1-s7;#P newex 92 190 45 196617 s $1-s6;#P newex 41 190 45 196617 s $1-s5;#P newex 242 162 45 196617 s $1-s4;#P newex 92 162 45 196617 s $1-s1;#P newex 41 162 45 196617 s $1-s0;#P newex 193 162 45 196617 s $1-s3;#P newex 143 162 45 196617 s $1-s2;#P newex 38 79 255 196617 OSC-route /s0 /s1 /s2 /s3 /s4 /s5 /s6 /s7 /s8 /s9;#P inlet 38 21 15 0;#P connect 0 0 1 0;#P connect 1 0 4 0;#P connect 1 5 7 0;#P connect 1 1 5 0;#P connect 1 6 8 0;#P connect 1 2 2 0;#P connect 1 7 9 0;#P connect 1 3 3 0;#P connect 1 8 10 0;#P connect 1 4 6 0;#P connect 1 9 11 0;#P pop;