max v2;#N vpatcher 523 132 888 505;#P number 116 290 35 9 0 0 0 3 0 0 0 221 221 221 222 222 222 0 0 0;#P number 70 142 35 9 0 0 0 3 0 0 0 221 221 221 222 222 222 0 0 0;#P newex 47 261 45 196617 pack 0 0;#P newex 24 219 48 196617 line 1 20;#P newex 82 199 45 196617 pack 0 0;#P flonum 218 103 35 9 0 0 0 3 0 0 0 221 221 221 222 222 222 0 0 0;#P inlet 227 66 15 0;#P newex 166 185 33 196617 * 0.7;#P newex 26 187 45 196617 pack 0 0;#P newex 70 103 38 196617 unpack;#P newex 82 221 48 196617 line 1 20;#P number 151 160 35 9 0 0 0 3 0 0 0 221 221 221 222 222 222 0 0 0;#P button 151 108 15 0;#P newex 151 137 33 196617 timer;#P outlet 77 308 16 0;#P inlet 105 66 15 0;#P connect 7 0 12 0;#P connect 6 0 7 0;#P connect 12 0 13 0;#P connect 8 0 7 1;#P connect 0 0 6 0;#P connect 6 0 14 0;#P connect 13 0 1 0;#P connect 6 1 11 0;#P connect 11 0 5 0;#P connect 5 0 13 1;#P connect 13 0 15 0;#P connect 8 0 11 1;#P connect 0 0 3 0;#P connect 3 0 2 0;#P connect 2 0 4 0;#P connect 4 0 8 0;#P connect 3 0 2 1;#P connect 10 0 8 1;#P connect 9 0 10 0;#P pop;