max v2;#N vpatcher 308 222 910 567;#P number 27 122 35 9 0 0 0 3 0 0 0 221 221 221 222 222 222 0 0 0;#P number 206 199 35 9 0 0 0 3 0 0 0 221 221 221 222 222 222 0 0 0;#P newex 146 235 27 196617 &&;#P newex 280 114 38 196617 unpack;#P newex 192 145 341 196617 if (0 <= $i1) && ($i1 < 320) && (0 <= $i2) && ($i2 < 240) then 1 else 0;#P newex 78 234 27 196617 gate;#P inlet 202 56 15 0;#P newex 114 204 45 196617 < 20000;#P number 114 181 35 9 0 0 0 3 0 0 0 221 221 221 222 222 222 0 0 0;#P newex 114 150 33 196617 Lmult;#P newex 116 100 27 196617 t l l;#P newex 114 129 28 196617 Lsub;#P outlet 87 258 15 0;#P inlet 95 66 15 0;#P connect 0 0 13 0;#P connect 6 0 8 0;#P connect 11 0 8 0;#P connect 8 0 1 0;#P connect 0 0 8 1;#P connect 3 1 2 0;#P connect 2 0 4 0;#P connect 4 0 5 0;#P connect 5 0 6 0;#P connect 0 0 3 0;#P connect 3 0 2 1;#P connect 7 0 6 1;#P connect 9 0 11 1;#P connect 10 0 9 0;#P connect 9 0 12 0;#P connect 10 1 9 1;#P pop;