max v2;#N vpatcher 106 264 668 634;#P newex 84 265 73 196617 s p0-sensitive;#P newex 70 247 81 196617 s p0-insensitive;#P newex 56 229 79 196617 s p0-synchrony;#P newex 42 211 65 196617 s p0-density;#P newex 28 193 50 196617 s p0-solo;#P newex 421 135 219 196617 prepend player-state-route: unknown state $1;#P newex 421 161 30 196617 print;#P newex 14 175 51 196617 s p0-fade;#P newex 14 157 79 196617 s p0-turbulence;#P newex 14 139 60 196617 s p0-sludge;#P newex 14 121 54 196617 s p0-alert;#P inlet 16 22 15 0;#P newex 14 103 65 196617 s p0-passive;#P newex 16 66 459 196617 route /passive /alert /sludge /turbulence /fade /solo /density /synchrony /insensitive /sensitive;#P comment 47 22 239 196617 routing for room state messages room = p0;#P comment 46 38 100 196617 xinwei@sponge.org;#P connect 2 0 3 0;#P lcolor 1;#P connect 2 1 5 0;#P lcolor 1;#P connect 2 2 6 0;#P lcolor 1;#P connect 2 3 7 0;#P lcolor 1;#P connect 2 4 8 0;#P lcolor 1;#P connect 4 0 2 0;#P connect 2 5 11 0;#P lcolor 1;#P connect 2 6 12 0;#P lcolor 1;#P connect 2 7 13 0;#P connect 2 8 14 0;#P lcolor 1;#P connect 2 9 15 0;#P lcolor 1;#P connect 2 10 10 0;#P lcolor 1;#P connect 10 0 9 0;#P pop;