max v2;#N vpatcher -5 84 1125 823;#P origin -20 -29;#P hidden newex 20 705 99 196617 bgcolor 150 30 150;#P comment 236 23 237 196626 © 2004 yoichiro serita;#P newex 1000 352 27 196617 + 1;#P toggle 983 352 15 0;#P newex 1029 352 45 196617 gate 2 1;#P user jit.pwindow 985 424 62 82 0 1 0 0 1 0;#P newex 986 375 76 196617 jit.op @op * @val 1. 0.94 0.78 0.57;#P newex 956 53 40 196617 lb -0.5;#P newex 187 186 45 196617 loadbang;#P message 187 236 155 196617 0.03 -0.01 0.25 0.25 0.4 0.1;#P message 201 214 277 196617 0.443038 -1.025316 0.39557 0.39557 0.39557 0.39557;#P toggle 734 326 15 0;#P user jit.fpsgui 292 400 60 196617 3;#P newex 965 627 85 196617 ys.window lower;#P user jit.fpsgui 307 660 60 196617 3;#P user jit.fpsgui 221 376 60 196617 3;#N vpatcher 468 109 788 527;#P outlet 133 353 15 0;#P outlet 38 336 15 0;#P user jit.fpsgui 158 66 60 196617 3;#P user jit.fpsgui 195 189 60 196617 3;#P user jit.pwindow 76 267 82 62 0 1 0 0 1 0;#P user jit.pwindow 76 204 82 62 0 1 0 0 1 0;#P newex 77 157 104 196617 jit.scissors @rows 2;#P user jit.pwindow 76 65 62 82 0 1 0 0 1 0;#P inlet 77 36 15 0;#P user panel 67 197 111 141;#X brgb 191 191 191;#X frgb 0 0 0;#X border 1;#X rounded 0;#X shadow 0;#X done;#P connect 4 0 8 0;#P connect 1 0 2 0;#P connect 2 0 3 0;#P connect 3 0 4 0;#P connect 3 1 5 0;#P connect 5 0 9 0;#P connect 1 0 7 0;#P connect 3 0 6 0;#P pop;#P newobj 981 570 35 196617 p split;#P newex 21 149 26 196617 s bb;#P user jit.fpsgui 980 695 60 196617 0;#N vpreset 8;#X append 1 2 21 64 53 toggle int 1 \; 22 567 578 number int 15 \; 24 64 98 number int 30 \; 25 147 429 flonum float 0.8 \; 26 147 500 flonum float 0.05 \; 27 147 653 flonum float;#X append 1 2 -0.5 \; 28 147 569 flonum float 10. \; 35 611 229 toggle int 1 \; 39 256 456 flonum float 0.443038 \; 40 258 523 flonum float -1.025316 \; 41 255 577 flonum float 0.39557 \; 45 283 577;#X append 1 2 flonum float 0.39557 \; 46 283 621 flonum float 0.39557 \; 47 283 665 flonum float 0.39557 \; 48 283 709 flonum float 0.39557 \; 58 461 532 number int 106 \; 63 549 184 gswitch int 0 \; 75 84 960;#X append 1 2 flonum float -0.5 \; 86 319 664 gswitch2 int 1 \;;#X append 5 2 21 64 53 toggle int 1 \; 22 567 578 number int 5 \; 24 64 98 number int 30 \; 25 147 429 flonum float 0.26 \; 26 147 500 flonum float -0.02 \; 27 147 653 flonum float;#X append 5 2 -0.5 \; 28 147 569 flonum float 8.89 \; 35 611 229 toggle int 1 \; 39 256 456 flonum float 0.12 \; 40 258 523 flonum float -0.06 \; 41 255 577 flonum float 0.25 \; 45 283 577;#X append 5 2 flonum float 0.24 \; 46 283 621 flonum float 0.24 \; 47 283 665 flonum float 0.4 \; 48 283 709 flonum float 0.1 \; 58 461 532 number int 106 \; 63 549 184 gswitch int 0 \; 75 84 960;#X append 5 2 flonum float -0.5 \; 86 319 664 gswitch2 int 0 \;;#X append 6 2 21 64 53 toggle int 1 \; 22 567 578 number int 5 \; 24 64 98 number int 30 \; 25 147 429 flonum float 0.26 \; 26 147 500 flonum float -0.02 \; 27 147 653 flonum float;#X append 6 2 -0.5 \; 28 147 569 flonum float 8.89 \; 35 611 229 toggle int 1 \; 39 256 456 flonum float 0.14 \; 40 258 523 flonum float -0.1 \; 41 255 577 flonum float 0.25 \; 45 283 577;#X append 6 2 flonum float 0.38 \; 46 283 621 flonum float 0.1 \; 47 283 665 flonum float 0.4 \; 48 283 709 flonum float 0.1 \; 58 461 532 number int 106 \; 63 549 184 gswitch int 0 \; 75 84 960;#X append 6 2 flonum float -0.5 \; 86 319 664 gswitch2 int 0 \;;#X append 7 2 21 64 53 toggle int 1 \; 22 567 578 number int 5 \; 24 64 98 number int 30 \; 25 147 429 flonum float 0.26 \; 26 147 500 flonum float -0.02 \; 27 147 653 flonum float;#X append 7 2 -0.5 \; 28 147 569 flonum float 8.89 \; 35 611 229 toggle int 1 \; 39 256 456 flonum float 0.14 \; 40 258 523 flonum float -0.1 \; 41 255 577 flonum float 0.25 \; 45 283 577;#X append 7 2 flonum float 0.1 \; 46 283 621 flonum float 0.38 \; 47 283 665 flonum float 0.4 \; 48 283 709 flonum float 0.1 \; 58 461 532 number int 106 \; 63 549 184 gswitch int 0 \; 75 84 960;#X append 7 2 flonum float -0.5 \; 86 319 664 gswitch2 int 0 \;;#X append 8 2 21 64 53 toggle int 1 \; 22 567 578 number int 5 \; 24 64 98 number int 30 \; 25 147 429 flonum float 0.26 \; 26 147 500 flonum float -0.02 \; 27 147 653 flonum float;#X append 8 2 -0.5 \; 28 147 569 flonum float 8.89 \; 35 611 229 toggle int 1 \; 39 256 456 flonum float 0.03 \; 40 258 523 flonum float -0.01 \; 41 255 577 flonum float 0.24 \; 45 283 577;#X append 8 2 flonum float 0.25 \; 46 283 621 flonum float 0.25 \; 47 283 665 flonum float 0.4 \; 48 283 709 flonum float 0.1 \; 58 461 532 number int 106 \; 63 549 184 gswitch int 0 \; 75 84 960;#X append 8 2 flonum float -0.5 \; 86 319 664 gswitch2 int 0 \;;#P preset 156 154 47 27;#P button 632 352 15 0;#P user GSwitch2 664 319 39 32 1 0;#P newex 470 338 50 196617 zl slice 1;#N vpatcher 387 218 1177 685;#P number 723 64 35 9 0 0 0 3 0 0 0 221 221 221 222 222 222 0 0 0;#P inlet 722 35 15 0;#P newex 626 48 27 196617 t b l;#P newex 649 75 63 196617 unpack 0. 0.;#P inlet 627 27 15 0;#P outlet 133 355 15 0;#P newex 133 315 79 196617 jit.pack 6;#P inlet 225 44 15 0;#P inlet 62 46 15 0;#P newex 235 81 111 196617 unpack 0. 0. 0. 0. 0. 0.;#P flonum 671 141 35 9 0 0 0 3 0 0 0 221 221 221 222 222 222 0 0 0;#P flonum 632 141 35 9 0 0 0 3 0 0 0 221 221 221 222 222 222 0 0 0;#P user jit.pwindow 652 205 82 62 0 1 0 0 1 0;#P newex 653 167 111 196617 gradientplane 240 320;#P flonum 564 143 35 9 0 0 0 3 0 0 0 221 221 221 222 222 222 0 0 0;#P flonum 525 143 35 9 0 0 0 3 0 0 0 221 221 221 222 222 222 0 0 0;#P user jit.pwindow 524 206 82 62 0 1 0 0 1 0;#P newex 525 168 111 196617 gradientplane 240 320;#P flonum 437 135 35 9 0 0 0 3 0 0 0 221 221 221 222 222 222 0 0 0;#P flonum 398 135 35 9 0 0 0 3 0 0 0 221 221 221 222 222 222 0 0 0;#P user jit.pwindow 397 198 82 62 0 1 0 0 1 0;#P newex 398 160 111 196617 gradientplane 240 320;#P flonum 322 136 35 9 0 0 0 3 0 0 0 221 221 221 222 222 222 0 0 0;#P flonum 283 136 35 9 0 0 0 3 0 0 0 221 221 221 222 222 222 0 0 0;#P user jit.pwindow 282 199 82 62 0 1 0 0 1 0;#P newex 283 161 111 196617 gradientplane 240 320;#P flonum 205 137 35 9 0 0 0 3 0 0 0 221 221 221 222 222 222 0 0 0;#P flonum 166 137 35 9 0 0 0 3 0 0 0 221 221 221 222 222 222 0 0 0;#P user jit.pwindow 165 200 82 62 0 1 0 0 1 0;#P newex 166 162 111 196617 gradientplane 240 320;#P flonum 90 136 35 9 0 0 0 3 0 0 0 221 221 221 222 222 222 0 0 0;#P flonum 51 136 35 9 0 0 0 3 0 0 0 221 221 221 222 222 222 0 0 0;#P newex 63 90 111 196617 unpack 0. 0. 0. 0. 0. 0.;#P user jit.pwindow 50 199 82 62 0 1 0 0 1 0;#P newex 51 161 111 196617 gradientplane 240 320;#P connect 2 0 3 0;#P connect 3 0 0 0;#P connect 0 0 1 0;#P connect 26 0 2 0;#P connect 25 0 4 0;#P connect 4 0 0 1;#P connect 32 0 28 0;#P connect 1 0 28 0;#P connect 28 0 29 0;#P connect 6 0 28 1;#P connect 34 0 0 2;#P connect 10 0 28 2;#P connect 2 1 7 0;#P connect 7 0 5 0;#P connect 5 0 6 0;#P connect 14 0 28 3;#P connect 18 0 28 4;#P connect 22 0 28 5;#P connect 25 1 8 0;#P connect 8 0 5 1;#P connect 27 0 25 0;#P connect 34 0 5 2;#P connect 31 0 11 0;#P connect 2 2 11 0;#P connect 11 0 9 0;#P connect 9 0 10 0;#P connect 25 2 12 0;#P connect 12 0 9 1;#P connect 34 0 9 2;#P connect 31 1 15 0;#P connect 2 3 15 0;#P connect 15 0 13 0;#P connect 13 0 14 0;#P connect 25 3 16 0;#P connect 16 0 13 1;#P connect 34 0 13 2;#P connect 2 4 19 0;#P connect 19 0 17 0;#P connect 17 0 18 0;#P connect 25 4 20 0;#P connect 20 0 17 1;#P connect 34 0 17 2;#P connect 30 0 32 0;#P connect 2 5 23 0;#P connect 32 1 31 0;#P connect 23 0 21 0;#P connect 21 0 22 0;#P connect 25 5 24 0;#P connect 24 0 21 1;#P connect 33 0 34 0;#P connect 34 0 21 2;#P pop;#P newobj 657 361 55 196617 p gradfield;#P newex 537 409 53 196617 jit.pack 4;#P message 869 313 27 196617 op +;#P message 855 295 29 196617 op *;#P user jit.pwindow 984 262 62 82 0 1 0 0 1 0;#P newex 878 338 64 196617 jit.op @op *;#P newex 985 228 35 196617 r bkgd;#P newex 919 195 66 196617 jit.unpack;#P newex 876 165 175 196617 jit.matrix 2 char 240 320 @interp 0;#P flonum 960 84 35 9 0 0 0 3 0 0 0 221 221 221 222 222 222 0 0 0;#P newex 873 138 115 196617 jit.matrix 2 char 60 80;#P newex 873 110 121 196617 jit.op @op <p @val -0.01;#P newex 872 78 58 196617 r crossimg;#P button 401 262 36 0;#P comment 297 147 84 196617 with live cam;#P comment 297 123 86 196617 diffusion;#P comment 297 99 83 196617 smoke/ripple2;#N vpreset 1;#X append 1 2 21 64 53 toggle int 1 \; 22 567 578 number int 0 \; 24 64 98 number int 0 \; 25 147 429 flonum float 0. \; 26 147 500 flonum float 0. \; 27 147 653 flonum float;#X append 1 2 0. \; 28 147 569 flonum float 0. \; 35 611 229 toggle int 1 \; 39 256 456 flonum float 0.15 \; 40 258 523 flonum float -0.21 \; 41 255 577 flonum float 0. \; 45 283 577;#X append 1 2 flonum float 0.26 \; 46 283 621 flonum float 0.26 \; 47 283 665 flonum float 0.46 \; 48 283 709 flonum float 0.1 \; 58 461 532 number int 0 \; 63 549 184 gswitch int 0 \; 75 84 960;#X append 1 2 flonum float -0.5 \;;#P preset 228 147 56 17;#N vpreset 4;#X append 1 2 21 64 53 toggle int 1 \; 22 567 578 number int 5 \; 24 64 98 number int 30 \; 25 147 429 flonum float 0.26 \; 26 147 500 flonum float -0.02 \; 27 147 653 flonum float;#X append 1 2 -0.5 \; 28 147 569 flonum float 8.89 \; 35 611 229 toggle int 1 \; 39 256 456 flonum float 0. \; 40 258 523 flonum float 0. \; 41 255 577 flonum float 0.25 \; 45 283 577;#X append 1 2 flonum float 0.25 \; 46 283 621 flonum float 0.25 \; 47 283 665 flonum float 0.25 \; 48 283 709 flonum float 0.25 \; 58 461 532 number int 106 \; 63 549 184 gswitch int 0 \;;#X append 2 2 21 64 53 toggle int 1 \; 22 567 578 number int 5 \; 24 64 98 number int 30 \; 25 147 429 flonum float 0.26 \; 26 147 500 flonum float -0.02 \; 27 147 653 flonum float;#X append 2 2 -0.5 \; 28 147 569 flonum float 8.89 \; 35 611 229 toggle int 0 \; 39 256 456 flonum float 0. \; 40 258 523 flonum float 0. \; 41 255 577 flonum float 0.24 \; 45 283 577;#X append 2 2 flonum float 0.1 \; 46 283 621 flonum float 0.4 \; 47 283 665 flonum float 0.25 \; 48 283 709 flonum float 0.24 \; 58 461 532 number int 106 \; 63 549 184 gswitch int 0 \;;#X append 3 2 21 64 53 toggle int 1 \; 22 567 578 number int 5 \; 24 64 98 number int 30 \; 25 147 429 flonum float 0.26 \; 26 147 500 flonum float -0.02 \; 27 147 653 flonum float;#X append 3 2 -0.5 \; 28 147 569 flonum float 8.89 \; 35 611 229 toggle int 1 \; 39 256 456 flonum float 0. \; 40 258 523 flonum float 0. \; 41 255 577 flonum float 0.24 \; 45 283 577;#X append 3 2 flonum float 0.1 \; 46 283 621 flonum float 0.4 \; 47 283 665 flonum float 0.25 \; 48 283 709 flonum float 0.25 \; 58 461 532 number int 106 \; 63 549 184 gswitch int 0 \;;#X append 4 2 21 64 53 toggle int 1 \; 22 567 578 number int 5 \; 24 64 98 number int 30 \; 25 147 429 flonum float 0.26 \; 26 147 500 flonum float -0.02 \; 27 147 653 flonum float;#X append 4 2 -0.5 \; 28 147 569 flonum float 8.89 \; 35 611 229 toggle int 1 \; 39 256 456 flonum float 0. \; 40 258 523 flonum float 0. \; 41 255 577 flonum float 0.24 \; 45 283 577;#X append 4 2 flonum float 0.29 \; 46 283 621 flonum float 0.64 \; 47 283 665 flonum float -0.08 \; 48 283 709 flonum float 0.15 \; 58 461 532 number int 106 \; 63 549 184 gswitch int 0 \;;#P preset 228 123 58 17;#N vpreset 5;#X append 1 2 21 64 53 toggle int 1 \; 22 567 578 number int 5 \; 24 64 98 number int 30 \; 25 147 429 flonum float 0.47 \; 26 147 500 flonum float -0.02 \; 27 147 653 flonum float;#X append 1 2 -0.5 \; 28 147 569 flonum float 8.89 \; 35 611 229 toggle int 0 \; 39 256 456 flonum float 1.420461 \; 40 258 523 flonum float -0.99005 \; 41 255 577 flonum float 0.142397 \; 45 283 577;#X append 1 2 flonum float 0.142397 \; 46 283 621 flonum float 0.142397 \; 47 283 665 flonum float 0.142397 \; 48 283 709 flonum float 0.142397 \; 58 461 532 number int 106 \; 63 549 184 gswitch int 0 \;;#X append 2 2 21 64 53 toggle int 1 \; 22 567 578 number int 5 \; 24 64 98 number int 30 \; 25 147 429 flonum float 0.47 \; 26 147 500 flonum float -0.02 \; 27 147 653 flonum float;#X append 2 2 -0.5 \; 28 147 569 flonum float 8.89 \; 35 611 229 toggle int 0 \; 39 256 456 flonum float 1.420461 \; 40 258 523 flonum float -0.99005 \; 41 255 577 flonum float 0.142397 \; 45 283 577;#X append 2 2 flonum float 0.15 \; 46 283 621 flonum float 0.13 \; 47 283 665 flonum float 0.14 \; 48 283 709 flonum float 0.14 \; 58 461 532 number int 106 \; 63 549 184 gswitch int 0 \;;#X append 3 2 21 64 53 toggle int 1 \; 22 567 578 number int 20 \; 24 64 98 number int 30 \; 25 147 429 flonum float 0.32 \; 26 147 500 flonum float -0.02 \; 27 147 653 flonum float;#X append 3 2 -0.5 \; 28 147 569 flonum float 8.89 \; 35 611 229 toggle int 0 \; 39 256 456 flonum float 0.74 \; 40 258 523 flonum float -0.99005 \; 41 255 577 flonum float 0.307183 \; 45 283 577;#X append 3 2 flonum float 0.307183 \; 46 283 621 flonum float 0.23 \; 47 283 665 flonum float 0.36 \; 48 283 709 flonum float 0.32 \; 58 461 532 number int 106 \; 63 549 184 gswitch int 0 \;;#X append 5 2 21 64 53 toggle int 1 \; 22 567 578 number int 25 \; 24 64 98 number int 30 \; 25 147 429 flonum float 0.47 \; 26 147 500 flonum float -0.02 \; 27 147 653 flonum float;#X append 5 2 -0.5 \; 28 147 569 flonum float 8.89 \; 35 611 229 toggle int 0 \; 39 256 456 flonum float 1.41 \; 40 258 523 flonum float -0.97 \; 41 255 577 flonum float 0.142397 \; 45 283 577;#X append 5 2 flonum float 0.15 \; 46 283 621 flonum float 0.13 \; 47 283 665 flonum float 0.14 \; 48 283 709 flonum float 0.14 \; 58 461 532 number int 106 \; 63 549 184 gswitch int 0 \;;#P preset 228 99 56 17;#N vpreset 2;#X append 1 2 21 64 53 toggle int 1 \; 22 567 578 number int 15 \; 24 64 98 number int 30 \; 25 147 429 flonum float 0.8 \; 26 147 500 flonum float 0.05 \; 27 147 653 flonum float;#X append 1 2 -0.5 \; 28 147 569 flonum float 10. \; 35 611 229 toggle int 1 \; 39 256 456 flonum float 0.443038 \; 40 258 523 flonum float -1.025316 \; 41 255 577 flonum float 0.39557 \; 45 283 577;#X append 1 2 flonum float 0.39557 \; 46 283 621 flonum float 0.39557 \; 47 283 665 flonum float 0.39557 \; 48 283 709 flonum float 0.39557 \; 58 461 532 number int 106 \; 63 549 184 gswitch int 0 \;;#X append 2 2 21 64 53 toggle int 1 \; 22 567 578 number int 5 \; 24 64 98 number int 30 \; 25 147 429 flonum float 0.8 \; 26 147 500 flonum float 0.05 \; 27 147 653 flonum float;#X append 2 2 -0.5 \; 28 147 569 flonum float 10. \; 35 611 229 toggle int 0 \; 39 256 456 flonum float 0.443038 \; 40 258 523 flonum float -1.025316 \; 41 255 577 flonum float 0.39557 \; 45 283 577;#X append 2 2 flonum float 0.39557 \; 46 283 621 flonum float 0.39557 \; 47 283 665 flonum float 0.39557 \; 48 283 709 flonum float 0.39557 \; 58 461 532 number int 106 \; 63 549 184 gswitch int 0 \;;#P preset 228 73 55 18;#P user GSwitch 184 549 41 32 0 0;#P newex 520 664 27 196617 t b l;#P newex 550 594 38 196617 Ladd 2;#P newex 520 565 51 196617 ys.mouse;#P newex 968 600 85 196617 ys.window upper;#P number 532 461 35 9 0 0 0 3 0 0 0 221 221 221 222 222 222 0 0 0;#P message 532 480 63 196617 font skia \$1;#P message 435 508 192 196617 clear \, moveto 30 100 \, write T M L \, bang;#P newex 472 110 85 196617 unpack 0. 0. 0. 0.;#P message 473 74 75 196617 0.8 0.05 10. -0.5;#P comment 839 197 38 196617 wind?;#P message 811 213 65 196617 0.1 0.4 0.25 0.25;#P comment 776 194 38 196617 cloud?;#P newex 716 251 85 196617 unpack 0. 0. 0. 0.;#P message 716 210 89 196617 0.29 0.64 -0.08 0.15;#P flonum 709 283 58 9 -2. 2. 3 3 0 0 0 221 221 221 222 222 222 0 0 0;#P flonum 665 283 35 9 -2. 2. 3 3 0 0 0 221 221 221 222 222 222 0 0 0;#P flonum 621 283 35 9 -2. 2. 3 3 0 0 0 221 221 221 222 222 222 0 0 0;#P flonum 577 283 35 9 -2. 2. 3 3 0 0 0 221 221 221 222 222 222 0 0 0;#P message 768 167 54 196617 0. 0. 0.25;#P newex 229 589 25 196617 lb 1;#P newex 470 315 129 196617 pack setall 0. 0. 0. 0. 0. 0.;#P flonum 577 255 35 9 -2. 2. 3 3 0 0 0 221 221 221 222 222 222 0 0 0;#P flonum 523 258 48 9 -2. 2. 3 3 0 0 0 221 221 221 222 222 222 0 0 0;#P flonum 456 256 47 9 -2. 2. 3 3 0 0 0 221 221 221 222 222 222 0 0 0;#P newex 489 230 98 196617 unpack 0. 0. 0.;#P newex 53 262 27 196617 aout;#N vpatcher 190 153 780 685;#P newex 121 182 53 196617 bondo 4;#P outlet 133 475 15 0;#P newex 126 421 65 196617 pack 0. 0. 0.;#P inlet 45 116 15 0;#P newex 121 155 212 196617 route distance timestep wavespeed viscosity;#P newex 399 359 105 196617 expr 2. * $f1 * $f2;#P newex 259 360 135 196617 expr ($f1 * $f2 - 2.) * $f3;#P newex 114 362 140 196617 expr (4.0 - 8. * $f1) * $f2;#P newex 327 255 134 196617 expr 1. / ($f2 * $f1 + 2.);#P comment 279 86 24 196617 mu;#P comment 212 86 16 196617 c;#P comment 121 92 16 196617 t;#P newex 121 256 201 196617 expr $f3 * $f3 * $f2 * $f2 / ($f1 * $f1);#P flonum 184 42 35 9 0 0 0 3 0 0 0 221 221 221 222 222 222 0 0 0;#P flonum 265 40 35 9 0 0 0 3 0 0 0 221 221 221 222 222 222 0 0 0;#P flonum 112 41 35 9 0 0 0 3 0 0 0 221 221 221 222 222 222 0 0 0;#P flonum 41 40 35 9 0 0 0 3 0 0 0 221 221 221 222 222 222 0 0 0;#P message 265 60 65 196617 viscosity \$1;#P message 184 61 73 196617 wavespeed \$1;#P message 112 61 63 196617 timestep \$1;#P message 41 59 61 196617 distance \$1;#P comment 71 85 16 196617 d;#P connect 5 0 1 0;#P connect 6 0 2 0;#P connect 9 0 14 0;#P connect 1 0 17 0;#P connect 2 0 17 0;#P connect 3 0 17 0;#P connect 18 0 17 0;#P connect 4 0 17 0;#P connect 17 0 21 0;#P connect 21 0 9 0;#P connect 14 0 19 0;#P connect 19 0 20 0;#P connect 17 1 21 1;#P connect 17 2 21 2;#P connect 15 0 19 1;#P connect 17 3 21 3;#P connect 16 0 19 2;#P connect 8 0 3 0;#P connect 21 1 9 1;#P connect 13 0 14 1;#P connect 21 1 15 0;#P connect 7 0 4 0;#P connect 21 2 9 2;#P connect 21 3 15 1;#P connect 21 1 13 0;#P connect 13 0 15 2;#P connect 9 0 16 0;#P connect 21 3 13 1;#P connect 13 0 16 1;#P pop;#P newobj 489 200 69 196617 p waveparam;#P toggle 229 611 15 0;#P newex 229 634 27 196617 gate;#P button 229 656 15 0;#P message 863 264 32 196617 clear;#P newex 53 647 78 196617 jit.matrix wow;#P newex 53 624 52 196617 jit.pack 2;#P newex 53 595 75 196617 jit.op @op max;#P flonum 569 147 35 9 0 0 0 3 0 0 0 221 221 221 222 222 222 0 0 0;#P flonum 653 147 35 9 0 0 0 3 0 0 0 221 221 221 222 222 222 0 0 0;#P flonum 500 147 35 9 0 0 0 3 0 0 0 221 221 221 222 222 222 0 0 0;#P flonum 429 147 35 9 0 0 0 3 0 0 0 221 221 221 222 222 222 0 0 0;#P number 98 64 35 9 0 0 0 3 0 0 0 221 221 221 222 222 222 0 0 0;#P message 403 477 113 196617 clear \, brgb 0 0 0 \, bang;#P number 578 567 35 9 0 0 0 3 0 0 0 221 221 221 222 222 222 0 0 0;#P toggle 53 64 15 0;#P newex 53 91 51 196617 metro 50;#P user jit.pwindow 702 384 242 322 0 1 0 0 1 0;#P newex 53 295 95 196617 jit.unpack 2;#P newex 403 453 45 196617 loadbang;#P newex 403 634 66 196617 jit.unpack;#P newex 520 642 88 196617 prepend paintoval;#P button 387 509 15 0;#P message 229 677 55 196617 clear \, bang;#P newex 520 617 104 196617 pack 0 0 0 0 255 0 0;#P user jit.pwindow 402 565 82 62 0 1 0 0 1 0;#P newex 403 541 110 196617 jit.lcd 4 char 240 320;#P message 653 166 65 196617 viscosity \$1;#P message 569 166 73 196617 wavespeed \$1;#P message 500 166 63 196617 timestep \$1;#P message 429 166 61 196617 distance \$1;#P newex 53 122 152 196617 jit.matrix wow 2 char 240 320;#P comment 776 144 31 196617 heat;#P comment 297 73 84 196617 ripple;#P user panel 208 61 182 115;#X brgb 254 231 193;#X frgb 0 0 0;#X border 0;#X rounded 0;#X shadow 0;#X done;#P comment 50 22 182 196626 pixelweightmat tate;#P comment 475 25 177 196617 tml 40521. mods sha xinwei;#P connect 20 0 90 0;#P connect 21 0 20 0;#P connect 20 0 5 0;#P connect 5 0 37 0;#P connect 37 0 18 0;#P connect 18 0 29 0;#P connect 29 0 30 0;#P connect 30 0 31 0;#P connect 32 0 31 0;#P connect 84 0 37 1;#P connect 24 0 20 1;#P connect 18 1 30 1;#P connect 63 0 29 1;#P connect 99 0 98 0;#P connect 16 1 63 1;#P connect 77 0 63 1;#P connect 99 0 97 0;#P connect 5 0 92 0;#P connect 43 0 35 0;#P connect 35 0 34 0;#P connect 34 0 33 0;#P connect 33 0 13 0;#P connect 29 0 34 1;#P connect 84 0 95 0;#P connect 63 0 93 0;#P connect 17 0 23 0;#P connect 57 0 10 0;#P connect 56 0 10 0;#P connect 23 0 10 0;#P connect 14 0 10 0;#P connect 13 0 10 0;#P connect 62 0 10 0;#P connect 62 1 10 0;#P connect 10 0 11 0;#P connect 11 0 16 0;#P connect 55 0 25 0;#P connect 25 0 6 0;#P connect 38 0 39 0;#P connect 71 0 42 0;#P connect 42 0 85 0;#P connect 54 0 55 0;#P connect 6 0 36 0;#P connect 7 0 36 0;#P connect 8 0 36 0;#P connect 9 0 36 0;#P connect 36 0 38 0;#P connect 44 0 38 0;#P connect 39 0 42 1;#P connect 55 1 26 0;#P connect 26 0 7 0;#P connect 40 0 42 2;#P connect 19 1 60 0;#P connect 60 0 12 0;#P connect 12 0 15 0;#P connect 15 0 62 0;#P connect 38 1 40 0;#P connect 45 0 42 3;#P connect 58 0 57 0;#P connect 18 0 83 0;#P connect 46 0 42 4;#P fasten 60 0 61 0 525 589 555 589;#P connect 61 0 12 2;#P connect 18 0 83 1;#P connect 47 0 42 5;#P connect 18 0 83 2;#P connect 55 2 28 0;#P connect 28 0 8 0;#P connect 38 2 41 0;#P connect 41 0 45 0;#P connect 50 0 45 0;#P connect 22 0 61 1;#P connect 18 0 83 3;#P connect 48 0 42 6;#P connect 41 0 46 0;#P connect 50 1 46 0;#P connect 55 3 27 0;#P connect 27 0 9 0;#P connect 86 0 84 0;#P connect 87 0 84 0;#P connect 98 0 84 0;#P connect 41 0 47 0;#P connect 50 2 47 0;#P connect 86 1 84 1;#P connect 97 0 84 1;#P connect 85 1 86 1;#P connect 96 0 84 3;#P connect 79 0 19 0;#P connect 50 3 48 0;#P connect 41 0 48 0;#P connect 49 0 50 0;#P connect 52 0 50 0;#P connect 72 0 73 0;#P connect 73 0 74 0;#P connect 74 0 76 0;#P connect 81 0 79 0;#P connect 82 0 79 0;#P connect 83 0 79 0;#P connect 76 0 77 0;#P connect 102 0 79 1;#P connect 100 0 75 0;#P connect 91 1 94 0;#P connect 91 0 59 0;#P connect 19 0 89 0;#P connect 19 0 91 0;#P connect 75 0 73 1;#P connect 78 0 80 0;#P connect 103 1 101 0;#P connect 101 0 102 0;#P connect 103 0 102 0;#P connect 104 0 105 0;#P connect 105 0 103 0;#P connect 80 0 103 1;#P pop;