max v2;#N vpatcher 123 53 800 698;#P origin 129 96;#P newex 864 79 75 196617 jit.op @op max;#P user GSwitch 766 94 41 32 0 0;#P newex 508 613 75 196617 ys.video2 mem;#P hidden newex -129 580 99 196617 bgcolor 150 30 150;#P comment 87 -102 237 196626 © 2004 yoichiro serita;#P newex 851 227 27 196617 + 1;#P toggle 834 227 15 0;#P newex 880 227 45 196617 gate 2 1;#P user jit.pwindow 836 299 62 82 0 1 0 0 1 0;#P newex 837 250 76 196617 jit.op @op * @val 1. 0.94 0.78 0.57;#P newex 807 -72 40 196617 lb -0.5;#P newex 38 61 45 196617 loadbang;#P message 38 111 155 196617 0.03 -0.01 0.25 0.25 0.4 0.1;#P message 52 89 277 196617 0.443038 -1.025316 0.39557 0.39557 0.39557 0.39557;#P toggle 585 201 15 0;#P user jit.fpsgui 143 275 60 196617 3;#P newex 816 502 85 196617 ys.window lower;#P user jit.fpsgui 158 535 60 196617 3;#P user jit.fpsgui 72 251 60 196617 3;#N vpatcher 468 109 788 527;#P outlet 133 353 15 0;#P outlet 38 336 15 0;#P user jit.fpsgui 158 66 60 196617 3;#P user jit.fpsgui 195 189 60 196617 3;#P user jit.pwindow 76 267 82 62 0 1 0 0 1 0;#P user jit.pwindow 76 204 82 62 0 1 0 0 1 0;#P newex 77 157 104 196617 jit.scissors @rows 2;#P user jit.pwindow 76 65 62 82 0 1 0 0 1 0;#P inlet 77 36 15 0;#P user panel 67 197 111 141;#X brgb 191 191 191;#X frgb 0 0 0;#X border 1;#X rounded 0;#X shadow 0;#X done;#P connect 4 0 8 0;#P connect 1 0 2 0;#P connect 2 0 3 0;#P connect 3 0 4 0;#P connect 3 1 5 0;#P connect 5 0 9 0;#P connect 1 0 7 0;#P connect 3 0 6 0;#P pop;#P newobj 832 445 35 196617 p split;#P newex -128 24 26 196617 s bb;#P user jit.fpsgui 831 570 60 196617 1;#N vpreset 8;#X append 1 2 22 -61 -96 toggle int 1 \; 23 442 429 number int 15 \; 25 -61 -51 number int 30 \; 26 22 280 flonum float 0.8 \; 27 22 351 flonum float 0.05 \; 28 22 504 flonum float;#X append 1 2 -0.5 \; 29 22 420 flonum float 10. \; 36 486 80 toggle int 1 \; 40 131 307 flonum float 0.443038 \; 41 133 374 flonum float -1.025316 \; 42 130 428 flonum float 0.39557 \; 46 158 428;#X append 1 2 flonum float 0.39557 \; 47 158 472 flonum float 0.39557 \; 48 158 516 flonum float 0.39557 \; 49 158 560 flonum float 0.39557 \; 59 336 383 number int 106 \; 64 353 141 gswitch int 0 \; 76 -41 811;#X append 1 2 flonum float -0.5 \; 87 194 515 gswitch2 int 1 \;;#X append 5 2 22 -61 -96 toggle int 1 \; 23 442 429 number int 5 \; 25 -61 -51 number int 30 \; 26 22 280 flonum float 0.26 \; 27 22 351 flonum float -0.02 \; 28 22 504 flonum float;#X append 5 2 -0.5 \; 29 22 420 flonum float 8.89 \; 36 486 80 toggle int 1 \; 40 131 307 flonum float 0.12 \; 41 133 374 flonum float -0.06 \; 42 130 428 flonum float 0.25 \; 46 158 428;#X append 5 2 flonum float 0.24 \; 47 158 472 flonum float 0.24 \; 48 158 516 flonum float 0.4 \; 49 158 560 flonum float 0.1 \; 59 336 383 number int 106 \; 64 353 141 gswitch int 0 \; 76 -41 811;#X append 5 2 flonum float -0.5 \; 87 194 515 gswitch2 int 0 \;;#X append 6 2 22 -61 -96 toggle int 1 \; 23 442 429 number int 5 \; 25 -61 -51 number int 30 \; 26 22 280 flonum float 0.26 \; 27 22 351 flonum float -0.02 \; 28 22 504 flonum float;#X append 6 2 -0.5 \; 29 22 420 flonum float 8.89 \; 36 486 80 toggle int 1 \; 40 131 307 flonum float 0.14 \; 41 133 374 flonum float -0.1 \; 42 130 428 flonum float 0.25 \; 46 158 428;#X append 6 2 flonum float 0.38 \; 47 158 472 flonum float 0.1 \; 48 158 516 flonum float 0.4 \; 49 158 560 flonum float 0.1 \; 59 336 383 number int 106 \; 64 353 141 gswitch int 0 \; 76 -41 811;#X append 6 2 flonum float -0.5 \; 87 194 515 gswitch2 int 0 \;;#X append 7 2 22 -61 -96 toggle int 1 \; 23 442 429 number int 5 \; 25 -61 -51 number int 30 \; 26 22 280 flonum float 0.26 \; 27 22 351 flonum float -0.02 \; 28 22 504 flonum float;#X append 7 2 -0.5 \; 29 22 420 flonum float 8.89 \; 36 486 80 toggle int 1 \; 40 131 307 flonum float 0.14 \; 41 133 374 flonum float -0.1 \; 42 130 428 flonum float 0.25 \; 46 158 428;#X append 7 2 flonum float 0.1 \; 47 158 472 flonum float 0.38 \; 48 158 516 flonum float 0.4 \; 49 158 560 flonum float 0.1 \; 59 336 383 number int 106 \; 64 353 141 gswitch int 0 \; 76 -41 811;#X append 7 2 flonum float -0.5 \; 87 194 515 gswitch2 int 0 \;;#X append 8 2 22 -61 -96 toggle int 1 \; 23 442 429 number int 5 \; 25 -61 -51 number int 30 \; 26 22 280 flonum float 0.26 \; 27 22 351 flonum float -0.02 \; 28 22 504 flonum float;#X append 8 2 -0.5 \; 29 22 420 flonum float 8.89 \; 36 486 80 toggle int 1 \; 40 131 307 flonum float 0.03 \; 41 133 374 flonum float -0.01 \; 42 130 428 flonum float 0.24 \; 46 158 428;#X append 8 2 flonum float 0.25 \; 47 158 472 flonum float 0.25 \; 48 158 516 flonum float 0.4 \; 49 158 560 flonum float 0.1 \; 59 336 383 number int 106 \; 64 353 141 gswitch int 0 \; 76 -41 811;#X append 8 2 flonum float -0.5 \; 87 194 515 gswitch2 int 0 \;;#P preset 7 29 47 27;#P button 483 227 15 0;#P user GSwitch2 515 194 39 32 0 0;#P newex 321 213 50 196617 zl slice 1;#N vpatcher 187 630 688 970;#P origin 50 0;#N vpreset 1;#X append 1 2 3 136 1 flonum float 0.03 \; 4 136 40 flonum float 0.44 \; 7 137 116 flonum float -0.01 \; 8 137 155 flonum float -1.03 \; 11 136 233 flonum float 0.25 \; 12 136 272 flonum float;#X append 1 2 0.39557 \; 15 135 348 flonum float 0.25 \; 16 135 387 flonum float 0.39557 \; 19 143 475 flonum float 0.4 \; 20 143 514 flonum float 0.39557 \; 23 141 582 flonum float 0.1 \; 24 141 621;#X append 1 2 flonum float 0.39557 \; 34 64 673 number int 0 \;;#P preset 70 34 47 27;#P number 673 64 35 9 0 0 0 3 0 0 0 221 221 221 222 222 222 0 0 0;#P inlet 672 35 15 0;#P newex 576 48 27 196617 t b l;#P newex 599 75 63 196617 unpack 0. 0.;#P inlet 577 27 15 0;#P outlet 83 355 15 0;#P newex 83 315 79 196617 jit.pack 6;#P inlet 175 44 15 0;#P inlet 12 46 15 0;#P newex 185 81 111 196617 unpack 0. 0. 0. 0. 0. 0.;#P flonum 621 141 35 9 0 0 0 3 0 0 0 221 221 221 222 222 222 0 0 0;#P flonum 582 141 35 9 0 0 0 3 0 0 0 221 221 221 222 222 222 0 0 0;#P user jit.pwindow 602 205 82 62 0 1 0 0 1 0;#P newex 603 167 111 196617 gradientplane 240 320;#P flonum 514 143 35 9 0 0 0 3 0 0 0 221 221 221 222 222 222 0 0 0;#P flonum 475 143 35 9 0 0 0 3 0 0 0 221 221 221 222 222 222 0 0 0;#P user jit.pwindow 474 206 82 62 0 1 0 0 1 0;#P newex 475 168 111 196617 gradientplane 240 320;#P flonum 387 135 35 9 0 0 0 3 0 0 0 221 221 221 222 222 222 0 0 0;#P flonum 348 135 35 9 0 0 0 3 0 0 0 221 221 221 222 222 222 0 0 0;#P user jit.pwindow 347 198 82 62 0 1 0 0 1 0;#P newex 348 160 111 196617 gradientplane 240 320;#P flonum 272 136 35 9 0 0 0 3 0 0 0 221 221 221 222 222 222 0 0 0;#P flonum 233 136 35 9 0 0 0 3 0 0 0 221 221 221 222 222 222 0 0 0;#P user jit.pwindow 232 199 82 62 0 1 0 0 1 0;#P newex 233 161 111 196617 gradientplane 240 320;#P flonum 155 137 35 9 0 0 0 3 0 0 0 221 221 221 222 222 222 0 0 0;#P flonum 116 137 35 9 0 0 0 3 0 0 0 221 221 221 222 222 222 0 0 0;#P user jit.pwindow 115 200 82 62 0 1 0 0 1 0;#P newex 116 162 111 196617 gradientplane 240 320;#P flonum 40 136 35 9 0 0 0 3 0 0 0 221 221 221 222 222 222 0 0 0;#P flonum 1 136 35 9 0 0 0 3 0 0 0 221 221 221 222 222 222 0 0 0;#P newex 13 90 111 196617 unpack 0. 0. 0. 0. 0. 0.;#P user jit.pwindow 0 199 82 62 0 1 0 0 1 0;#P newex 1 161 111 196617 gradientplane 240 320;#P connect 2 0 3 0;#P connect 3 0 0 0;#P connect 0 0 1 0;#P connect 26 0 2 0;#P connect 25 0 4 0;#P connect 4 0 0 1;#P connect 1 0 28 0;#P connect 32 0 28 0;#P connect 28 0 29 0;#P connect 6 0 28 1;#P connect 34 0 0 2;#P connect 10 0 28 2;#P connect 2 1 7 0;#P connect 7 0 5 0;#P connect 5 0 6 0;#P connect 14 0 28 3;#P connect 18 0 28 4;#P connect 22 0 28 5;#P connect 25 1 8 0;#P connect 8 0 5 1;#P connect 27 0 25 0;#P connect 34 0 5 2;#P connect 2 2 11 0;#P connect 31 0 11 0;#P connect 11 0 9 0;#P connect 9 0 10 0;#P connect 25 2 12 0;#P connect 12 0 9 1;#P connect 34 0 9 2;#P connect 2 3 15 0;#P connect 31 1 15 0;#P connect 15 0 13 0;#P connect 13 0 14 0;#P connect 25 3 16 0;#P connect 16 0 13 1;#P connect 34 0 13 2;#P connect 2 4 19 0;#P connect 19 0 17 0;#P connect 17 0 18 0;#P connect 25 4 20 0;#P connect 20 0 17 1;#P connect 34 0 17 2;#P connect 30 0 32 0;#P connect 2 5 23 0;#P connect 32 1 31 0;#P connect 23 0 21 0;#P connect 21 0 22 0;#P connect 25 5 24 0;#P connect 24 0 21 1;#P connect 33 0 34 0;#P connect 34 0 21 2;#P pop;#P newobj 508 236 55 196617 p gradfield;#P newex 388 284 53 196617 jit.pack 4;#P message 720 188 27 196617 op +;#P message 706 170 29 196617 op *;#P user jit.pwindow 835 137 62 82 0 1 0 0 1 0;#P newex 729 213 64 196617 jit.op @op *;#P newex 836 103 35 196617 r bkgd;#P newex 726 52 66 196617 jit.unpack;#P newex 726 34 175 196617 jit.matrix 2 char 240 320 @interp 0;#P flonum 811 -41 35 9 0 0 0 3 0 0 0 221 221 221 222 222 222 0 0 0;#P newex 724 13 115 196617 jit.matrix 2 char 60 80;#P newex 724 -15 121 196617 jit.op @op <p @val -0.01;#P newex 723 -47 58 196617 r crossimg;#P button 252 137 36 0;#P comment 148 22 84 196617 with live cam;#P comment 148 -2 86 196617 diffusion;#P comment 148 -26 83 196617 smoke/ripple2;#N vpreset 1;#X append 1 2 22 -61 -96 toggle int 1 \; 23 442 429 number int 0 \; 25 -61 -51 number int 0 \; 26 22 280 flonum float 0. \; 27 22 351 flonum float 0. \; 28 22 504 flonum float;#X append 1 2 0. \; 29 22 420 flonum float 0. \; 36 486 80 toggle int 1 \; 40 131 307 flonum float 0.15 \; 41 133 374 flonum float -0.21 \; 42 130 428 flonum float 0. \; 46 158 428;#X append 1 2 flonum float 0.26 \; 47 158 472 flonum float 0.26 \; 48 158 516 flonum float 0.46 \; 49 158 560 flonum float 0.1 \; 59 336 383 number int 0 \; 64 353 141 gswitch int 0 \; 76 -41 811;#X append 1 2 flonum float -0.5 \;;#P preset 79 22 56 17;#N vpreset 4;#X append 1 2 22 -61 -96 toggle int 1 \; 23 442 429 number int 5 \; 25 -61 -51 number int 30 \; 26 22 280 flonum float 0.26 \; 27 22 351 flonum float -0.02 \; 28 22 504 flonum float;#X append 1 2 -0.5 \; 29 22 420 flonum float 8.89 \; 36 486 80 toggle int 1 \; 40 131 307 flonum float 0. \; 41 133 374 flonum float 0. \; 42 130 428 flonum float 0.25 \; 46 158 428;#X append 1 2 flonum float 0.25 \; 47 158 472 flonum float 0.25 \; 48 158 516 flonum float 0.25 \; 49 158 560 flonum float 0.25 \; 59 336 383 number int 106 \; 64 353 141 gswitch int 0 \;;#X append 2 2 22 -61 -96 toggle int 1 \; 23 442 429 number int 5 \; 25 -61 -51 number int 30 \; 26 22 280 flonum float 0.26 \; 27 22 351 flonum float -0.02 \; 28 22 504 flonum float;#X append 2 2 -0.5 \; 29 22 420 flonum float 8.89 \; 36 486 80 toggle int 0 \; 40 131 307 flonum float 0. \; 41 133 374 flonum float 0. \; 42 130 428 flonum float 0.24 \; 46 158 428;#X append 2 2 flonum float 0.1 \; 47 158 472 flonum float 0.4 \; 48 158 516 flonum float 0.25 \; 49 158 560 flonum float 0.24 \; 59 336 383 number int 106 \; 64 353 141 gswitch int 0 \;;#X append 3 2 22 -61 -96 toggle int 1 \; 23 442 429 number int 5 \; 25 -61 -51 number int 30 \; 26 22 280 flonum float 0.26 \; 27 22 351 flonum float -0.02 \; 28 22 504 flonum float;#X append 3 2 -0.5 \; 29 22 420 flonum float 8.89 \; 36 486 80 toggle int 1 \; 40 131 307 flonum float 0. \; 41 133 374 flonum float 0. \; 42 130 428 flonum float 0.24 \; 46 158 428;#X append 3 2 flonum float 0.1 \; 47 158 472 flonum float 0.4 \; 48 158 516 flonum float 0.25 \; 49 158 560 flonum float 0.25 \; 59 336 383 number int 106 \; 64 353 141 gswitch int 0 \;;#X append 4 2 22 -61 -96 toggle int 1 \; 23 442 429 number int 5 \; 25 -61 -51 number int 30 \; 26 22 280 flonum float 0.26 \; 27 22 351 flonum float -0.02 \; 28 22 504 flonum float;#X append 4 2 -0.5 \; 29 22 420 flonum float 8.89 \; 36 486 80 toggle int 1 \; 40 131 307 flonum float 0. \; 41 133 374 flonum float 0. \; 42 130 428 flonum float 0.24 \; 46 158 428;#X append 4 2 flonum float 0.29 \; 47 158 472 flonum float 0.64 \; 48 158 516 flonum float -0.08 \; 49 158 560 flonum float 0.15 \; 59 336 383 number int 106 \; 64 353 141 gswitch int 0 \;;#P preset 79 -2 58 17;#N vpreset 5;#X append 1 2 22 -61 -96 toggle int 1 \; 23 442 429 number int 5 \; 25 -61 -51 number int 30 \; 26 22 280 flonum float 0.47 \; 27 22 351 flonum float -0.02 \; 28 22 504 flonum float;#X append 1 2 -0.5 \; 29 22 420 flonum float 8.89 \; 36 486 80 toggle int 0 \; 40 131 307 flonum float 1.420461 \; 41 133 374 flonum float -0.99005 \; 42 130 428 flonum float 0.142397 \; 46 158 428;#X append 1 2 flonum float 0.142397 \; 47 158 472 flonum float 0.142397 \; 48 158 516 flonum float 0.142397 \; 49 158 560 flonum float 0.142397 \; 59 336 383 number int 106 \; 64 353 141 gswitch int 0 \;;#X append 2 2 22 -61 -96 toggle int 1 \; 23 442 429 number int 5 \; 25 -61 -51 number int 30 \; 26 22 280 flonum float 0.47 \; 27 22 351 flonum float -0.02 \; 28 22 504 flonum float;#X append 2 2 -0.5 \; 29 22 420 flonum float 8.89 \; 36 486 80 toggle int 0 \; 40 131 307 flonum float 1.420461 \; 41 133 374 flonum float -0.99005 \; 42 130 428 flonum float 0.142397 \; 46 158 428;#X append 2 2 flonum float 0.15 \; 47 158 472 flonum float 0.13 \; 48 158 516 flonum float 0.14 \; 49 158 560 flonum float 0.14 \; 59 336 383 number int 106 \; 64 353 141 gswitch int 0 \;;#X append 3 2 22 -61 -96 toggle int 1 \; 23 442 429 number int 20 \; 25 -61 -51 number int 30 \; 26 22 280 flonum float 0.32 \; 27 22 351 flonum float -0.02 \; 28 22 504 flonum float;#X append 3 2 -0.5 \; 29 22 420 flonum float 8.89 \; 36 486 80 toggle int 0 \; 40 131 307 flonum float 0.74 \; 41 133 374 flonum float -0.99005 \; 42 130 428 flonum float 0.307183 \; 46 158 428;#X append 3 2 flonum float 0.307183 \; 47 158 472 flonum float 0.23 \; 48 158 516 flonum float 0.36 \; 49 158 560 flonum float 0.32 \; 59 336 383 number int 106 \; 64 353 141 gswitch int 0 \;;#X append 5 2 22 -61 -96 toggle int 1 \; 23 442 429 number int 25 \; 25 -61 -51 number int 30 \; 26 22 280 flonum float 0.47 \; 27 22 351 flonum float -0.02 \; 28 22 504 flonum float;#X append 5 2 -0.5 \; 29 22 420 flonum float 8.89 \; 36 486 80 toggle int 0 \; 40 131 307 flonum float 1.41 \; 41 133 374 flonum float -0.97 \; 42 130 428 flonum float 0.142397 \; 46 158 428;#X append 5 2 flonum float 0.15 \; 47 158 472 flonum float 0.13 \; 48 158 516 flonum float 0.14 \; 49 158 560 flonum float 0.14 \; 59 336 383 number int 106 \; 64 353 141 gswitch int 0 \;;#P preset 79 -26 56 17;#N vpreset 2;#X append 1 2 22 -61 -96 toggle int 1 \; 23 442 429 number int 15 \; 25 -61 -51 number int 30 \; 26 22 280 flonum float 0.8 \; 27 22 351 flonum float 0.05 \; 28 22 504 flonum float;#X append 1 2 -0.5 \; 29 22 420 flonum float 10. \; 36 486 80 toggle int 1 \; 40 131 307 flonum float 0.443038 \; 41 133 374 flonum float -1.025316 \; 42 130 428 flonum float 0.39557 \; 46 158 428;#X append 1 2 flonum float 0.39557 \; 47 158 472 flonum float 0.39557 \; 48 158 516 flonum float 0.39557 \; 49 158 560 flonum float 0.39557 \; 59 336 383 number int 106 \; 64 353 141 gswitch int 0 \;;#X append 2 2 22 -61 -96 toggle int 1 \; 23 442 429 number int 5 \; 25 -61 -51 number int 30 \; 26 22 280 flonum float 0.8 \; 27 22 351 flonum float 0.05 \; 28 22 504 flonum float;#X append 2 2 -0.5 \; 29 22 420 flonum float 10. \; 36 486 80 toggle int 0 \; 40 131 307 flonum float 0.443038 \; 41 133 374 flonum float -1.025316 \; 42 130 428 flonum float 0.39557 \; 46 158 428;#X append 2 2 flonum float 0.39557 \; 47 158 472 flonum float 0.39557 \; 48 158 516 flonum float 0.39557 \; 49 158 560 flonum float 0.39557 \; 59 336 383 number int 106 \; 64 353 141 gswitch int 0 \;;#P preset 79 -52 55 18;#P user GSwitch 141 353 41 32 0 0;#P newex 371 539 27 196617 t b l;#P newex 401 469 38 196617 Ladd 2;#P newex 371 440 51 196617 ys.mouse;#P newex 819 475 85 196617 ys.window upper;#P number 383 336 35 9 0 0 0 3 0 0 0 221 221 221 222 222 222 0 0 0;#P message 383 355 63 196617 font skia \$1;#P message 286 383 192 196617 clear \, moveto 30 100 \, write T M L \, bang;#P newex 323 -15 85 196617 unpack 0. 0. 0. 0.;#P message 324 -51 75 196617 0.8 0.05 10. -0.5;#P comment 690 72 38 196617 wind?;#P message 662 88 65 196617 0.1 0.4 0.25 0.25;#P comment 627 69 38 196617 cloud?;#P newex 567 126 85 196617 unpack 0. 0. 0. 0.;#P message 567 85 89 196617 0.29 0.64 -0.08 0.15;#P flonum 560 158 58 9 -2. 2. 3 3 0 0 0 221 221 221 222 222 222 0 0 0;#P flonum 516 158 35 9 -2. 2. 3 3 0 0 0 221 221 221 222 222 222 0 0 0;#P flonum 472 158 35 9 -2. 2. 3 3 0 0 0 221 221 221 222 222 222 0 0 0;#P flonum 428 158 35 9 -2. 2. 3 3 0 0 0 221 221 221 222 222 222 0 0 0;#P message 619 42 54 196617 0. 0. 0.25;#P newex 80 464 25 196617 lb 1;#P newex 321 190 129 196617 pack setall 0. 0. 0. 0. 0. 0.;#P flonum 428 130 35 9 -2. 2. 3 3 0 0 0 221 221 221 222 222 222 0 0 0;#P flonum 374 133 48 9 -2. 2. 3 3 0 0 0 221 221 221 222 222 222 0 0 0;#P flonum 307 131 47 9 -2. 2. 3 3 0 0 0 221 221 221 222 222 222 0 0 0;#P newex 340 105 98 196617 unpack 0. 0. 0.;#P newex -96 137 27 196617 aout;#N vpatcher 190 153 780 685;#P newex 121 182 53 196617 bondo 4;#P outlet 133 475 15 0;#P newex 126 421 65 196617 pack 0. 0. 0.;#P inlet 45 116 15 0;#P newex 121 155 212 196617 route distance timestep wavespeed viscosity;#P newex 399 359 105 196617 expr 2. * $f1 * $f2;#P newex 259 360 135 196617 expr ($f1 * $f2 - 2.) * $f3;#P newex 114 362 140 196617 expr (4.0 - 8. * $f1) * $f2;#P newex 327 255 134 196617 expr 1. / ($f2 * $f1 + 2.);#P comment 279 86 24 196617 mu;#P comment 212 86 16 196617 c;#P comment 121 92 16 196617 t;#P newex 121 256 201 196617 expr $f3 * $f3 * $f2 * $f2 / ($f1 * $f1);#P flonum 184 42 35 9 0 0 0 3 0 0 0 221 221 221 222 222 222 0 0 0;#P flonum 265 40 35 9 0 0 0 3 0 0 0 221 221 221 222 222 222 0 0 0;#P flonum 112 41 35 9 0 0 0 3 0 0 0 221 221 221 222 222 222 0 0 0;#P flonum 41 40 35 9 0 0 0 3 0 0 0 221 221 221 222 222 222 0 0 0;#P message 265 60 65 196617 viscosity \$1;#P message 184 61 73 196617 wavespeed \$1;#P message 112 61 63 196617 timestep \$1;#P message 41 59 61 196617 distance \$1;#P comment 71 85 16 196617 d;#P connect 5 0 1 0;#P connect 6 0 2 0;#P connect 9 0 14 0;#P connect 4 0 17 0;#P connect 18 0 17 0;#P connect 3 0 17 0;#P connect 2 0 17 0;#P connect 1 0 17 0;#P connect 17 0 21 0;#P connect 21 0 9 0;#P connect 14 0 19 0;#P connect 19 0 20 0;#P connect 17 1 21 1;#P connect 17 2 21 2;#P connect 15 0 19 1;#P connect 17 3 21 3;#P connect 16 0 19 2;#P connect 8 0 3 0;#P connect 21 1 9 1;#P connect 13 0 14 1;#P connect 21 1 15 0;#P connect 7 0 4 0;#P connect 21 2 9 2;#P connect 21 3 15 1;#P connect 21 1 13 0;#P connect 13 0 15 2;#P connect 9 0 16 0;#P connect 21 3 13 1;#P connect 13 0 16 1;#P pop;#P newobj 340 75 69 196617 p waveparam;#P toggle 80 486 15 0;#P newex 80 509 27 196617 gate;#P button 80 531 15 0;#P message 714 139 32 196617 clear;#P newex -96 522 78 196617 jit.matrix wow;#P newex -96 499 52 196617 jit.pack 2;#P newex -96 470 75 196617 jit.op @op max;#P flonum 420 22 35 9 0 0 0 3 0 0 0 221 221 221 222 222 222 0 0 0;#P flonum 504 22 35 9 0 0 0 3 0 0 0 221 221 221 222 222 222 0 0 0;#P flonum 351 22 35 9 0 0 0 3 0 0 0 221 221 221 222 222 222 0 0 0;#P flonum 280 22 35 9 0 0 0 3 0 0 0 221 221 221 222 222 222 0 0 0;#P number -51 -61 35 9 0 0 0 3 0 0 0 221 221 221 222 222 222 0 0 0;#P message 254 352 113 196617 clear \, brgb 0 0 0 \, bang;#P number 429 442 35 9 0 0 0 3 0 0 0 221 221 221 222 222 222 0 0 0;#P toggle -96 -61 15 0;#P newex -96 -34 51 196617 metro 50;#P user jit.pwindow 557 268 242 322 0 1 0 0 1 0;#P newex -96 170 95 196617 jit.unpack 2;#P newex 254 328 45 196617 loadbang;#P newex 254 509 66 196617 jit.unpack;#P newex 371 517 88 196617 prepend paintoval;#P button 238 384 15 0;#P message 80 552 55 196617 clear \, bang;#P newex 371 492 104 196617 pack 0 0 0 0 255 0 0;#P user jit.pwindow 253 440 82 62 0 1 0 0 1 0;#P newex 254 416 110 196617 jit.lcd 4 char 240 320;#P message 504 41 65 196617 viscosity \$1;#P message 420 41 73 196617 wavespeed \$1;#P message 351 41 63 196617 timestep \$1;#P message 280 41 61 196617 distance \$1;#P newex -96 -3 152 196617 jit.matrix wow 2 char 240 320;#P comment 627 19 31 196617 heat;#P comment 148 -52 84 196617 ripple;#P user panel 59 -64 182 115;#X brgb 254 231 193;#X frgb 0 0 0;#X border 0;#X rounded 0;#X shadow 0;#X done;#P comment -99 -103 182 196626 pixelweightmat tate;#P comment 326 -100 177 196617 tml 40521. mods sha xinwei;#P comment 1020 43 100 196617;#P connect 21 0 91 0;#P connect 22 0 21 0;#P connect 21 0 6 0;#P connect 6 0 38 0;#P connect 38 0 19 0;#P connect 19 0 30 0;#P connect 30 0 31 0;#P connect 33 0 32 0;#P connect 31 0 32 0;#P connect 85 0 38 1;#P connect 25 0 21 1;#P connect 19 1 31 1;#P connect 64 0 30 1;#P connect 100 0 99 0;#P connect 100 0 98 0;#P connect 6 0 93 0;#P connect 44 0 36 0;#P connect 36 0 35 0;#P connect 35 0 34 0;#P connect 34 0 14 0;#P connect 30 0 35 1;#P connect 85 0 96 0;#P connect 110 0 64 1;#P connect 17 1 64 1;#P connect 64 0 94 0;#P connect 18 0 24 0;#P connect 63 1 11 0;#P connect 63 0 11 0;#P connect 14 0 11 0;#P connect 15 0 11 0;#P connect 24 0 11 0;#P connect 57 0 11 0;#P connect 58 0 11 0;#P connect 11 0 12 0;#P connect 12 0 17 0;#P connect 56 0 26 0;#P connect 26 0 7 0;#P connect 39 0 40 0;#P connect 72 0 43 0;#P connect 43 0 86 0;#P connect 55 0 56 0;#P connect 10 0 37 0;#P connect 9 0 37 0;#P connect 8 0 37 0;#P connect 7 0 37 0;#P connect 45 0 39 0;#P connect 37 0 39 0;#P connect 40 0 43 1;#P connect 56 1 27 0;#P connect 27 0 8 0;#P connect 41 0 43 2;#P connect 20 1 61 0;#P connect 61 0 13 0;#P connect 13 0 16 0;#P connect 16 0 63 0;#P connect 39 1 41 0;#P connect 46 0 43 3;#P connect 59 0 58 0;#P connect 19 0 84 0;#P connect 47 0 43 4;#P fasten 61 0 62 0 376 464 406 464;#P connect 62 0 13 2;#P connect 19 0 84 1;#P connect 48 0 43 5;#P connect 19 0 84 2;#P connect 56 2 29 0;#P connect 29 0 9 0;#P connect 39 2 42 0;#P connect 42 0 46 0;#P connect 51 0 46 0;#P connect 23 0 62 1;#P connect 19 0 84 3;#P connect 49 0 43 6;#P connect 42 0 47 0;#P connect 51 1 47 0;#P connect 56 3 28 0;#P connect 28 0 10 0;#P connect 99 0 85 0;#P connect 88 0 85 0;#P connect 87 0 85 0;#P connect 42 0 48 0;#P connect 51 2 48 0;#P connect 98 0 85 1;#P connect 87 1 85 1;#P fasten 80 0 109 1 734 263 545 263;#P connect 86 1 87 1;#P connect 97 0 85 3;#P connect 80 0 20 0;#P connect 42 0 49 0;#P connect 51 3 49 0;#P connect 53 0 51 0;#P connect 50 0 51 0;#P connect 73 0 74 0;#P connect 74 0 75 0;#P connect 75 0 77 0;#P connect 77 0 78 0;#P connect 84 0 80 0;#P connect 83 0 80 0;#P connect 82 0 80 0;#P fasten 78 0 110 1 731 87 786 87;#P connect 103 0 80 1;#P fasten 111 0 110 2 869 97 817 97 817 88 801 88;#P connect 101 0 76 0;#P connect 92 1 95 0;#P connect 92 0 60 0;#P connect 20 0 90 0;#P connect 20 0 92 0;#P connect 76 0 74 1;#P connect 79 0 81 0;#P connect 104 1 102 0;#P connect 104 0 103 0;#P connect 102 0 103 0;#P connect 105 0 106 0;#P fasten 78 0 111 0 731 74 869 74;#P connect 106 0 104 0;#P connect 81 0 104 1;#P fasten 78 1 111 1 745 73 934 73;#P pop;