max v2;#N vpatcher 39 52 691 526;#P origin 612 267;#P newex 25 442 75 196617 ys.video2 mem;#P hidden newex -612 409 99 196617 bgcolor 150 30 150;#P comment -396 -273 237 196626 © 2004 yoichiro serita;#P newex 368 56 27 196617 + 1;#P toggle 351 56 15 0;#P newex 397 56 45 196617 gate 2 1;#P user jit.pwindow 353 128 62 82 0 1 0 0 1 0;#P newex 354 79 76 196617 jit.op @op * @val 1. 0.94 0.78 0.57;#P newex 324 -243 40 196617 lb -0.5;#P newex -445 -110 45 196617 loadbang;#P message -445 -60 155 196617 0.03 -0.01 0.25 0.25 0.4 0.1;#P message -431 -82 277 196617 0.443038 -1.025316 0.39557 0.39557 0.39557 0.39557;#P toggle 102 30 15 0;#P user jit.fpsgui -340 104 60 196617 3;#P newex 333 331 85 196617 ys.window lower;#P user jit.fpsgui -325 364 60 196617 3;#P user jit.fpsgui -411 80 60 196617 3;#N vpatcher 468 109 788 527;#P outlet 133 353 15 0;#P outlet 38 336 15 0;#P user jit.fpsgui 158 66 60 196617 3;#P user jit.fpsgui 195 189 60 196617 3;#P user jit.pwindow 76 267 82 62 0 1 0 0 1 0;#P user jit.pwindow 76 204 82 62 0 1 0 0 1 0;#P newex 77 157 104 196617 jit.scissors @rows 2;#P user jit.pwindow 76 65 62 82 0 1 0 0 1 0;#P inlet 77 36 15 0;#P user panel 67 197 111 141;#X brgb 191 191 191;#X frgb 0 0 0;#X border 1;#X rounded 0;#X shadow 0;#X done;#P connect 4 0 8 0;#P connect 1 0 2 0;#P connect 2 0 3 0;#P connect 3 0 4 0;#P connect 3 1 5 0;#P connect 5 0 9 0;#P connect 1 0 7 0;#P connect 3 0 6 0;#P pop;#P newobj 349 274 35 196617 p split;#P newex -611 -147 26 196617 s bb;#P user jit.fpsgui 348 399 60 196617 0;#N vpreset 8;#X append 1 2 22 -232 -579 toggle int 1 \; 23 271 -54 number int 15 \; 25 -232 -534 number int 30 \; 26 -149 -203 flonum float 0.8 \; 27 -149 -132 flonum float 0.05 \; 28 -149 21 flonum float;#X append 1 2 -0.5 \; 29 -149 -63 flonum float 10. \; 36 315 -403 toggle int 1 \; 40 -40 -176 flonum float 0.443038 \; 41 -38 -109 flonum float -1.025316 \; 42 -41 -55 flonum float 0.39557 \; 46 -13 -55;#X append 1 2 flonum float 0.39557 \; 47 -13 -11 flonum float 0.39557 \; 48 -13 33 flonum float 0.39557 \; 49 -13 77 flonum float 0.39557 \; 59 165 -100 number int 106 \; 64 253 -448 gswitch int 0 \; 76 -212 328;#X append 1 2 flonum float -0.5 \; 87 23 32 gswitch2 int 1 \;;#X append 5 2 22 -232 -579 toggle int 1 \; 23 271 -54 number int 5 \; 25 -232 -534 number int 30 \; 26 -149 -203 flonum float 0.26 \; 27 -149 -132 flonum float -0.02 \; 28 -149 21 flonum float;#X append 5 2 -0.5 \; 29 -149 -63 flonum float 8.89 \; 36 315 -403 toggle int 1 \; 40 -40 -176 flonum float 0.12 \; 41 -38 -109 flonum float -0.06 \; 42 -41 -55 flonum float 0.25 \; 46 -13 -55;#X append 5 2 flonum float 0.24 \; 47 -13 -11 flonum float 0.24 \; 48 -13 33 flonum float 0.4 \; 49 -13 77 flonum float 0.1 \; 59 165 -100 number int 106 \; 64 253 -448 gswitch int 0 \; 76 -212 328;#X append 5 2 flonum float -0.5 \; 87 23 32 gswitch2 int 0 \;;#X append 6 2 22 -232 -579 toggle int 1 \; 23 271 -54 number int 5 \; 25 -232 -534 number int 30 \; 26 -149 -203 flonum float 0.26 \; 27 -149 -132 flonum float -0.02 \; 28 -149 21 flonum float;#X append 6 2 -0.5 \; 29 -149 -63 flonum float 8.89 \; 36 315 -403 toggle int 1 \; 40 -40 -176 flonum float 0.14 \; 41 -38 -109 flonum float -0.1 \; 42 -41 -55 flonum float 0.25 \; 46 -13 -55;#X append 6 2 flonum float 0.38 \; 47 -13 -11 flonum float 0.1 \; 48 -13 33 flonum float 0.4 \; 49 -13 77 flonum float 0.1 \; 59 165 -100 number int 106 \; 64 253 -448 gswitch int 0 \; 76 -212 328;#X append 6 2 flonum float -0.5 \; 87 23 32 gswitch2 int 0 \;;#X append 7 2 22 -232 -579 toggle int 1 \; 23 271 -54 number int 5 \; 25 -232 -534 number int 30 \; 26 -149 -203 flonum float 0.26 \; 27 -149 -132 flonum float -0.02 \; 28 -149 21 flonum float;#X append 7 2 -0.5 \; 29 -149 -63 flonum float 8.89 \; 36 315 -403 toggle int 1 \; 40 -40 -176 flonum float 0.14 \; 41 -38 -109 flonum float -0.1 \; 42 -41 -55 flonum float 0.25 \; 46 -13 -55;#X append 7 2 flonum float 0.1 \; 47 -13 -11 flonum float 0.38 \; 48 -13 33 flonum float 0.4 \; 49 -13 77 flonum float 0.1 \; 59 165 -100 number int 106 \; 64 253 -448 gswitch int 0 \; 76 -212 328;#X append 7 2 flonum float -0.5 \; 87 23 32 gswitch2 int 0 \;;#X append 8 2 22 -232 -579 toggle int 1 \; 23 271 -54 number int 5 \; 25 -232 -534 number int 30 \; 26 -149 -203 flonum float 0.26 \; 27 -149 -132 flonum float -0.02 \; 28 -149 21 flonum float;#X append 8 2 -0.5 \; 29 -149 -63 flonum float 8.89 \; 36 315 -403 toggle int 1 \; 40 -40 -176 flonum float 0.03 \; 41 -38 -109 flonum float -0.01 \; 42 -41 -55 flonum float 0.24 \; 46 -13 -55;#X append 8 2 flonum float 0.25 \; 47 -13 -11 flonum float 0.25 \; 48 -13 33 flonum float 0.4 \; 49 -13 77 flonum float 0.1 \; 59 165 -100 number int 106 \; 64 253 -448 gswitch int 0 \; 76 -212 328;#X append 8 2 flonum float -0.5 \; 87 23 32 gswitch2 int 0 \;;#P preset -476 -142 47 27;#P button 0 56 15 0;#P user GSwitch2 32 23 39 32 1 0;#P newex -162 42 50 196617 zl slice 1;#N vpatcher 261 540 1051 1007;#P number 723 64 35 9 0 0 0 3 0 0 0 221 221 221 222 222 222 0 0 0;#P inlet 722 35 15 0;#P newex 626 48 27 196617 t b l;#P newex 649 75 63 196617 unpack 0. 0.;#P inlet 627 27 15 0;#P outlet 133 355 15 0;#P newex 133 315 79 196617 jit.pack 6;#P inlet 225 44 15 0;#P inlet 62 46 15 0;#P newex 235 81 111 196617 unpack 0. 0. 0. 0. 0. 0.;#P flonum 671 141 35 9 0 0 0 3 0 0 0 221 221 221 222 222 222 0 0 0;#P flonum 632 141 35 9 0 0 0 3 0 0 0 221 221 221 222 222 222 0 0 0;#P user jit.pwindow 652 205 82 62 0 1 0 0 1 0;#P newex 653 167 111 196617 gradientplane 240 320;#P flonum 564 143 35 9 0 0 0 3 0 0 0 221 221 221 222 222 222 0 0 0;#P flonum 525 143 35 9 0 0 0 3 0 0 0 221 221 221 222 222 222 0 0 0;#P user jit.pwindow 524 206 82 62 0 1 0 0 1 0;#P newex 525 168 111 196617 gradientplane 240 320;#P flonum 437 135 35 9 0 0 0 3 0 0 0 221 221 221 222 222 222 0 0 0;#P flonum 398 135 35 9 0 0 0 3 0 0 0 221 221 221 222 222 222 0 0 0;#P user jit.pwindow 397 198 82 62 0 1 0 0 1 0;#P newex 398 160 111 196617 gradientplane 240 320;#P flonum 322 136 35 9 0 0 0 3 0 0 0 221 221 221 222 222 222 0 0 0;#P flonum 283 136 35 9 0 0 0 3 0 0 0 221 221 221 222 222 222 0 0 0;#P user jit.pwindow 282 199 82 62 0 1 0 0 1 0;#P newex 283 161 111 196617 gradientplane 240 320;#P flonum 205 137 35 9 0 0 0 3 0 0 0 221 221 221 222 222 222 0 0 0;#P flonum 166 137 35 9 0 0 0 3 0 0 0 221 221 221 222 222 222 0 0 0;#P user jit.pwindow 165 200 82 62 0 1 0 0 1 0;#P newex 166 162 111 196617 gradientplane 240 320;#P flonum 90 136 35 9 0 0 0 3 0 0 0 221 221 221 222 222 222 0 0 0;#P flonum 51 136 35 9 0 0 0 3 0 0 0 221 221 221 222 222 222 0 0 0;#P newex 63 90 111 196617 unpack 0. 0. 0. 0. 0. 0.;#P user jit.pwindow 50 199 82 62 0 1 0 0 1 0;#P newex 51 161 111 196617 gradientplane 240 320;#P connect 2 0 3 0;#P connect 3 0 0 0;#P connect 0 0 1 0;#P connect 26 0 2 0;#P connect 25 0 4 0;#P connect 4 0 0 1;#P connect 1 0 28 0;#P connect 32 0 28 0;#P connect 28 0 29 0;#P connect 6 0 28 1;#P connect 34 0 0 2;#P connect 10 0 28 2;#P connect 2 1 7 0;#P connect 7 0 5 0;#P connect 5 0 6 0;#P connect 14 0 28 3;#P connect 18 0 28 4;#P connect 22 0 28 5;#P connect 25 1 8 0;#P connect 8 0 5 1;#P connect 27 0 25 0;#P connect 34 0 5 2;#P connect 2 2 11 0;#P connect 31 0 11 0;#P connect 11 0 9 0;#P connect 9 0 10 0;#P connect 25 2 12 0;#P connect 12 0 9 1;#P connect 34 0 9 2;#P connect 2 3 15 0;#P connect 31 1 15 0;#P connect 15 0 13 0;#P connect 13 0 14 0;#P connect 25 3 16 0;#P connect 16 0 13 1;#P connect 34 0 13 2;#P connect 2 4 19 0;#P connect 19 0 17 0;#P connect 17 0 18 0;#P connect 25 4 20 0;#P connect 20 0 17 1;#P connect 34 0 17 2;#P connect 30 0 32 0;#P connect 2 5 23 0;#P connect 32 1 31 0;#P connect 23 0 21 0;#P connect 21 0 22 0;#P connect 25 5 24 0;#P connect 24 0 21 1;#P connect 33 0 34 0;#P connect 34 0 21 2;#P pop 1;#P newobj 25 65 55 196617 p gradfield;#P newex -95 113 53 196617 jit.pack 4;#P message 237 17 27 196617 op +;#P message 223 -1 29 196617 op *;#P user jit.pwindow 352 -34 62 82 0 1 0 0 1 0;#P newex 246 42 64 196617 jit.op @op *;#P newex 353 -68 35 196617 r bkgd;#P newex 287 -101 66 196617 jit.unpack;#P newex 244 -131 175 196617 jit.matrix 2 char 240 320 @interp 0;#P flonum 328 -212 35 9 0 0 0 3 0 0 0 221 221 221 222 222 222 0 0 0;#P newex 241 -158 115 196617 jit.matrix 2 char 60 80;#P newex 241 -186 121 196617 jit.op @op <p @val -0.01;#P newex 240 -218 58 196617 r crossimg;#P button -231 -34 36 0;#P comment -335 -149 84 196617 with live cam;#P comment -335 -173 86 196617 diffusion;#P comment -335 -197 83 196617 smoke/ripple2;#N vpreset 1;#X append 1 2 22 -232 -579 toggle int 1 \; 23 271 -54 number int 0 \; 25 -232 -534 number int 0 \; 26 -149 -203 flonum float 0. \; 27 -149 -132 flonum float 0. \; 28 -149 21 flonum float;#X append 1 2 0. \; 29 -149 -63 flonum float 0. \; 36 315 -403 toggle int 1 \; 40 -40 -176 flonum float 0.15 \; 41 -38 -109 flonum float -0.21 \; 42 -41 -55 flonum float 0. \; 46 -13 -55;#X append 1 2 flonum float 0.26 \; 47 -13 -11 flonum float 0.26 \; 48 -13 33 flonum float 0.46 \; 49 -13 77 flonum float 0.1 \; 59 165 -100 number int 0 \; 64 253 -448 gswitch int 0 \; 76 -212 328;#X append 1 2 flonum float -0.5 \;;#P preset -404 -149 56 17;#N vpreset 4;#X append 1 2 22 -232 -579 toggle int 1 \; 23 271 -54 number int 5 \; 25 -232 -534 number int 30 \; 26 -149 -203 flonum float 0.26 \; 27 -149 -132 flonum float -0.02 \; 28 -149 21 flonum float;#X append 1 2 -0.5 \; 29 -149 -63 flonum float 8.89 \; 36 315 -403 toggle int 1 \; 40 -40 -176 flonum float 0. \; 41 -38 -109 flonum float 0. \; 42 -41 -55 flonum float 0.25 \; 46 -13 -55;#X append 1 2 flonum float 0.25 \; 47 -13 -11 flonum float 0.25 \; 48 -13 33 flonum float 0.25 \; 49 -13 77 flonum float 0.25 \; 59 165 -100 number int 106 \; 64 253 -448 gswitch int 0 \;;#X append 2 2 22 -232 -579 toggle int 1 \; 23 271 -54 number int 5 \; 25 -232 -534 number int 30 \; 26 -149 -203 flonum float 0.26 \; 27 -149 -132 flonum float -0.02 \; 28 -149 21 flonum float;#X append 2 2 -0.5 \; 29 -149 -63 flonum float 8.89 \; 36 315 -403 toggle int 0 \; 40 -40 -176 flonum float 0. \; 41 -38 -109 flonum float 0. \; 42 -41 -55 flonum float 0.24 \; 46 -13 -55;#X append 2 2 flonum float 0.1 \; 47 -13 -11 flonum float 0.4 \; 48 -13 33 flonum float 0.25 \; 49 -13 77 flonum float 0.24 \; 59 165 -100 number int 106 \; 64 253 -448 gswitch int 0 \;;#X append 3 2 22 -232 -579 toggle int 1 \; 23 271 -54 number int 5 \; 25 -232 -534 number int 30 \; 26 -149 -203 flonum float 0.26 \; 27 -149 -132 flonum float -0.02 \; 28 -149 21 flonum float;#X append 3 2 -0.5 \; 29 -149 -63 flonum float 8.89 \; 36 315 -403 toggle int 1 \; 40 -40 -176 flonum float 0. \; 41 -38 -109 flonum float 0. \; 42 -41 -55 flonum float 0.24 \; 46 -13 -55;#X append 3 2 flonum float 0.1 \; 47 -13 -11 flonum float 0.4 \; 48 -13 33 flonum float 0.25 \; 49 -13 77 flonum float 0.25 \; 59 165 -100 number int 106 \; 64 253 -448 gswitch int 0 \;;#X append 4 2 22 -232 -579 toggle int 1 \; 23 271 -54 number int 5 \; 25 -232 -534 number int 30 \; 26 -149 -203 flonum float 0.26 \; 27 -149 -132 flonum float -0.02 \; 28 -149 21 flonum float;#X append 4 2 -0.5 \; 29 -149 -63 flonum float 8.89 \; 36 315 -403 toggle int 1 \; 40 -40 -176 flonum float 0. \; 41 -38 -109 flonum float 0. \; 42 -41 -55 flonum float 0.24 \; 46 -13 -55;#X append 4 2 flonum float 0.29 \; 47 -13 -11 flonum float 0.64 \; 48 -13 33 flonum float -0.08 \; 49 -13 77 flonum float 0.15 \; 59 165 -100 number int 106 \; 64 253 -448 gswitch int 0 \;;#P preset -404 -173 58 17;#N vpreset 5;#X append 1 2 22 -232 -579 toggle int 1 \; 23 271 -54 number int 5 \; 25 -232 -534 number int 30 \; 26 -149 -203 flonum float 0.47 \; 27 -149 -132 flonum float -0.02 \; 28 -149 21 flonum float;#X append 1 2 -0.5 \; 29 -149 -63 flonum float 8.89 \; 36 315 -403 toggle int 0 \; 40 -40 -176 flonum float 1.420461 \; 41 -38 -109 flonum float -0.99005 \; 42 -41 -55 flonum float 0.142397 \; 46 -13 -55;#X append 1 2 flonum float 0.142397 \; 47 -13 -11 flonum float 0.142397 \; 48 -13 33 flonum float 0.142397 \; 49 -13 77 flonum float 0.142397 \; 59 165 -100 number int 106 \; 64 253 -448 gswitch int 0 \;;#X append 2 2 22 -232 -579 toggle int 1 \; 23 271 -54 number int 5 \; 25 -232 -534 number int 30 \; 26 -149 -203 flonum float 0.47 \; 27 -149 -132 flonum float -0.02 \; 28 -149 21 flonum float;#X append 2 2 -0.5 \; 29 -149 -63 flonum float 8.89 \; 36 315 -403 toggle int 0 \; 40 -40 -176 flonum float 1.420461 \; 41 -38 -109 flonum float -0.99005 \; 42 -41 -55 flonum float 0.142397 \; 46 -13 -55;#X append 2 2 flonum float 0.15 \; 47 -13 -11 flonum float 0.13 \; 48 -13 33 flonum float 0.14 \; 49 -13 77 flonum float 0.14 \; 59 165 -100 number int 106 \; 64 253 -448 gswitch int 0 \;;#X append 3 2 22 -232 -579 toggle int 1 \; 23 271 -54 number int 20 \; 25 -232 -534 number int 30 \; 26 -149 -203 flonum float 0.32 \; 27 -149 -132 flonum float -0.02 \; 28 -149 21 flonum float;#X append 3 2 -0.5 \; 29 -149 -63 flonum float 8.89 \; 36 315 -403 toggle int 0 \; 40 -40 -176 flonum float 0.74 \; 41 -38 -109 flonum float -0.99005 \; 42 -41 -55 flonum float 0.307183 \; 46 -13 -55;#X append 3 2 flonum float 0.307183 \; 47 -13 -11 flonum float 0.23 \; 48 -13 33 flonum float 0.36 \; 49 -13 77 flonum float 0.32 \; 59 165 -100 number int 106 \; 64 253 -448 gswitch int 0 \;;#X append 5 2 22 -232 -579 toggle int 1 \; 23 271 -54 number int 25 \; 25 -232 -534 number int 30 \; 26 -149 -203 flonum float 0.47 \; 27 -149 -132 flonum float -0.02 \; 28 -149 21 flonum float;#X append 5 2 -0.5 \; 29 -149 -63 flonum float 8.89 \; 36 315 -403 toggle int 0 \; 40 -40 -176 flonum float 1.41 \; 41 -38 -109 flonum float -0.97 \; 42 -41 -55 flonum float 0.142397 \; 46 -13 -55;#X append 5 2 flonum float 0.15 \; 47 -13 -11 flonum float 0.13 \; 48 -13 33 flonum float 0.14 \; 49 -13 77 flonum float 0.14 \; 59 165 -100 number int 106 \; 64 253 -448 gswitch int 0 \;;#P preset -404 -197 56 17;#N vpreset 2;#X append 1 2 22 -232 -579 toggle int 1 \; 23 271 -54 number int 15 \; 25 -232 -534 number int 30 \; 26 -149 -203 flonum float 0.8 \; 27 -149 -132 flonum float 0.05 \; 28 -149 21 flonum float;#X append 1 2 -0.5 \; 29 -149 -63 flonum float 10. \; 36 315 -403 toggle int 1 \; 40 -40 -176 flonum float 0.443038 \; 41 -38 -109 flonum float -1.025316 \; 42 -41 -55 flonum float 0.39557 \; 46 -13 -55;#X append 1 2 flonum float 0.39557 \; 47 -13 -11 flonum float 0.39557 \; 48 -13 33 flonum float 0.39557 \; 49 -13 77 flonum float 0.39557 \; 59 165 -100 number int 106 \; 64 253 -448 gswitch int 0 \;;#X append 2 2 22 -232 -579 toggle int 1 \; 23 271 -54 number int 5 \; 25 -232 -534 number int 30 \; 26 -149 -203 flonum float 0.8 \; 27 -149 -132 flonum float 0.05 \; 28 -149 21 flonum float;#X append 2 2 -0.5 \; 29 -149 -63 flonum float 10. \; 36 315 -403 toggle int 0 \; 40 -40 -176 flonum float 0.443038 \; 41 -38 -109 flonum float -1.025316 \; 42 -41 -55 flonum float 0.39557 \; 46 -13 -55;#X append 2 2 flonum float 0.39557 \; 47 -13 -11 flonum float 0.39557 \; 48 -13 33 flonum float 0.39557 \; 49 -13 77 flonum float 0.39557 \; 59 165 -100 number int 106 \; 64 253 -448 gswitch int 0 \;;#P preset -404 -223 55 18;#P user GSwitch -448 253 41 32 0 0;#P newex -112 368 27 196617 t b l;#P newex -82 298 38 196617 Ladd 2;#P newex -112 269 51 196617 ys.mouse;#P newex 336 304 85 196617 ys.window upper;#P number -100 165 35 9 0 0 0 3 0 0 0 221 221 221 222 222 222 0 0 0;#P message -100 184 63 196617 font skia \$1;#P message -197 212 192 196617 clear \, moveto 30 100 \, write T M L \, bang;#P newex -160 -186 85 196617 unpack 0. 0. 0. 0.;#P message -159 -222 75 196617 0.8 0.05 10. -0.5;#P comment 207 -99 38 196617 wind?;#P message 179 -83 65 196617 0.1 0.4 0.25 0.25;#P comment 144 -102 38 196617 cloud?;#P newex 84 -45 85 196617 unpack 0. 0. 0. 0.;#P message 84 -86 89 196617 0.29 0.64 -0.08 0.15;#P flonum 77 -13 58 9 -2. 2. 3 3 0 0 0 221 221 221 222 222 222 0 0 0;#P flonum 33 -13 35 9 -2. 2. 3 3 0 0 0 221 221 221 222 222 222 0 0 0;#P flonum -11 -13 35 9 -2. 2. 3 3 0 0 0 221 221 221 222 222 222 0 0 0;#P flonum -55 -13 35 9 -2. 2. 3 3 0 0 0 221 221 221 222 222 222 0 0 0;#P message 136 -129 54 196617 0. 0. 0.25;#P newex -403 293 25 196617 lb 1;#P newex -162 19 129 196617 pack setall 0. 0. 0. 0. 0. 0.;#P flonum -55 -41 35 9 -2. 2. 3 3 0 0 0 221 221 221 222 222 222 0 0 0;#P flonum -109 -38 48 9 -2. 2. 3 3 0 0 0 221 221 221 222 222 222 0 0 0;#P flonum -176 -40 47 9 -2. 2. 3 3 0 0 0 221 221 221 222 222 222 0 0 0;#P newex -143 -66 98 196617 unpack 0. 0. 0.;#P newex -579 -34 27 196617 aout;#N vpatcher 190 153 780 685;#P newex 121 182 53 196617 bondo 4;#P outlet 133 475 15 0;#P newex 126 421 65 196617 pack 0. 0. 0.;#P inlet 45 116 15 0;#P newex 121 155 212 196617 route distance timestep wavespeed viscosity;#P newex 399 359 105 196617 expr 2. * $f1 * $f2;#P newex 259 360 135 196617 expr ($f1 * $f2 - 2.) * $f3;#P newex 114 362 140 196617 expr (4.0 - 8. * $f1) * $f2;#P newex 327 255 134 196617 expr 1. / ($f2 * $f1 + 2.);#P comment 279 86 24 196617 mu;#P comment 212 86 16 196617 c;#P comment 121 92 16 196617 t;#P newex 121 256 201 196617 expr $f3 * $f3 * $f2 * $f2 / ($f1 * $f1);#P flonum 184 42 35 9 0 0 0 3 0 0 0 221 221 221 222 222 222 0 0 0;#P flonum 265 40 35 9 0 0 0 3 0 0 0 221 221 221 222 222 222 0 0 0;#P flonum 112 41 35 9 0 0 0 3 0 0 0 221 221 221 222 222 222 0 0 0;#P flonum 41 40 35 9 0 0 0 3 0 0 0 221 221 221 222 222 222 0 0 0;#P message 265 60 65 196617 viscosity \$1;#P message 184 61 73 196617 wavespeed \$1;#P message 112 61 63 196617 timestep \$1;#P message 41 59 61 196617 distance \$1;#P comment 71 85 16 196617 d;#P connect 5 0 1 0;#P connect 6 0 2 0;#P connect 9 0 14 0;#P connect 4 0 17 0;#P connect 18 0 17 0;#P connect 3 0 17 0;#P connect 2 0 17 0;#P connect 1 0 17 0;#P connect 17 0 21 0;#P connect 21 0 9 0;#P connect 14 0 19 0;#P connect 19 0 20 0;#P connect 17 1 21 1;#P connect 17 2 21 2;#P connect 15 0 19 1;#P connect 17 3 21 3;#P connect 16 0 19 2;#P connect 8 0 3 0;#P connect 21 1 9 1;#P connect 13 0 14 1;#P connect 21 1 15 0;#P connect 7 0 4 0;#P connect 21 2 9 2;#P connect 21 3 15 1;#P connect 21 1 13 0;#P connect 13 0 15 2;#P connect 9 0 16 0;#P connect 21 3 13 1;#P connect 13 0 16 1;#P pop;#P newobj -143 -96 69 196617 p waveparam;#P toggle -403 315 15 0;#P newex -403 338 27 196617 gate;#P button -403 360 15 0;#P message 231 -32 32 196617 clear;#P newex -579 351 78 196617 jit.matrix wow;#P newex -579 328 52 196617 jit.pack 2;#P newex -579 299 75 196617 jit.op @op max;#P flonum -63 -149 35 9 0 0 0 3 0 0 0 221 221 221 222 222 222 0 0 0;#P flonum 21 -149 35 9 0 0 0 3 0 0 0 221 221 221 222 222 222 0 0 0;#P flonum -132 -149 35 9 0 0 0 3 0 0 0 221 221 221 222 222 222 0 0 0;#P flonum -203 -149 35 9 0 0 0 3 0 0 0 221 221 221 222 222 222 0 0 0;#P number -534 -232 35 9 0 0 0 3 0 0 0 221 221 221 222 222 222 0 0 0;#P message -229 181 113 196617 clear \, brgb 0 0 0 \, bang;#P number -54 271 35 9 0 0 0 3 0 0 0 221 221 221 222 222 222 0 0 0;#P toggle -579 -232 15 0;#P newex -579 -205 51 196617 metro 50;#P user jit.pwindow 74 97 242 322 0 1 0 0 1 0;#P newex -579 -1 95 196617 jit.unpack 2;#P newex -229 157 45 196617 loadbang;#P newex -229 338 66 196617 jit.unpack;#P newex -112 346 88 196617 prepend paintoval;#P button -245 213 15 0;#P message -403 381 55 196617 clear \, bang;#P newex -112 321 104 196617 pack 0 0 0 0 255 0 0;#P user jit.pwindow -230 269 82 62 0 1 0 0 1 0;#P newex -229 245 110 196617 jit.lcd 4 char 240 320;#P message 21 -130 65 196617 viscosity \$1;#P message -63 -130 73 196617 wavespeed \$1;#P message -132 -130 63 196617 timestep \$1;#P message -203 -130 61 196617 distance \$1;#P newex -579 -174 152 196617 jit.matrix wow 2 char 240 320;#P comment 144 -152 31 196617 heat;#P comment -335 -223 84 196617 ripple;#P user panel -424 -235 182 115;#X brgb 254 231 193;#X frgb 0 0 0;#X border 0;#X rounded 0;#X shadow 0;#X done;#P comment -582 -274 182 196626 pixelweightmat tate;#P comment -157 -271 177 196617 tml 40521. mods sha xinwei;#P comment 537 -128 100 196617;#P connect 21 0 91 0;#P connect 22 0 21 0;#P connect 21 0 6 0;#P connect 6 0 38 0;#P connect 38 0 19 0;#P connect 19 0 30 0;#P connect 30 0 31 0;#P connect 33 0 32 0;#P connect 31 0 32 0;#P connect 85 0 38 1;#P connect 25 0 21 1;#P connect 19 1 31 1;#P connect 64 0 30 1;#P connect 100 0 99 0;#P connect 78 0 64 1;#P connect 17 1 64 1;#P connect 100 0 98 0;#P connect 6 0 93 0;#P connect 44 0 36 0;#P connect 36 0 35 0;#P connect 35 0 34 0;#P connect 34 0 14 0;#P connect 30 0 35 1;#P connect 85 0 96 0;#P connect 64 0 94 0;#P connect 18 0 24 0;#P connect 63 1 11 0;#P connect 63 0 11 0;#P connect 14 0 11 0;#P connect 15 0 11 0;#P connect 24 0 11 0;#P connect 57 0 11 0;#P connect 58 0 11 0;#P connect 11 0 12 0;#P connect 12 0 17 0;#P connect 56 0 26 0;#P connect 26 0 7 0;#P connect 39 0 40 0;#P connect 72 0 43 0;#P connect 43 0 86 0;#P connect 55 0 56 0;#P connect 10 0 37 0;#P connect 9 0 37 0;#P connect 8 0 37 0;#P connect 7 0 37 0;#P connect 45 0 39 0;#P connect 37 0 39 0;#P connect 40 0 43 1;#P connect 56 1 27 0;#P connect 27 0 8 0;#P connect 41 0 43 2;#P connect 20 1 61 0;#P connect 61 0 13 0;#P connect 13 0 16 0;#P connect 16 0 63 0;#P connect 39 1 41 0;#P connect 46 0 43 3;#P connect 59 0 58 0;#P connect 19 0 84 0;#P connect 47 0 43 4;#P fasten 61 0 62 0 -107 293 -77 293;#P connect 62 0 13 2;#P connect 19 0 84 1;#P connect 48 0 43 5;#P connect 19 0 84 2;#P connect 56 2 29 0;#P connect 29 0 9 0;#P connect 39 2 42 0;#P connect 42 0 46 0;#P connect 51 0 46 0;#P connect 23 0 62 1;#P connect 19 0 84 3;#P connect 49 0 43 6;#P connect 42 0 47 0;#P connect 51 1 47 0;#P connect 56 3 28 0;#P connect 28 0 10 0;#P connect 99 0 85 0;#P connect 88 0 85 0;#P connect 87 0 85 0;#P connect 42 0 48 0;#P connect 51 2 48 0;#P connect 98 0 85 1;#P connect 87 1 85 1;#P fasten 80 0 109 1 251 92 62 92;#P connect 86 1 87 1;#P connect 97 0 85 3;#P connect 80 0 20 0;#P connect 42 0 49 0;#P connect 51 3 49 0;#P connect 53 0 51 0;#P connect 50 0 51 0;#P connect 73 0 74 0;#P connect 74 0 75 0;#P connect 75 0 77 0;#P connect 84 0 80 0;#P connect 83 0 80 0;#P connect 82 0 80 0;#P connect 77 0 78 0;#P connect 103 0 80 1;#P connect 101 0 76 0;#P connect 92 1 95 0;#P connect 92 0 60 0;#P connect 20 0 90 0;#P connect 20 0 92 0;#P connect 76 0 74 1;#P connect 79 0 81 0;#P connect 104 1 102 0;#P connect 104 0 103 0;#P connect 102 0 103 0;#P connect 105 0 106 0;#P connect 106 0 104 0;#P connect 81 0 104 1;#P pop;