max v2;#N vpatcher 127 614 772 1133;#P origin 424 51;#P user ubumenu -221 89 49 196617 0 1 1 0;#X add off;#X add play;#X add test;#X prefix_set 0 0 <none> 0;#P newex -222 114 48 196617 switch 2;#P newex 264 163 253 196617 jit.rota @theta -1.57 @anchor_x 160 @anchor_y 160;#P newex 209 185 388 196617 jit.matrix 4 char 240 320 @usesrcdim 1 @srcdimstart 40 40 @srcdimend 279 319;#P newex 209 134 373 196617 jit.matrix 4 char 320 320 @usedstdim 1 @dstdimstart 0 0 @dstdimend 319 319;#P newex -235 160 253 196617 jit.rota @theta -1.57 @anchor_x 160 @anchor_y 160;#P message 281 61 32 196617 close;#P message -216 65 32 196617 close;#P toggle -144 279 15 0;#P newex -144 305 27 196617 gate;#P user jit.pwindow -145 380 62 82 0 1 0 0 1 0;#P newex -144 329 62 196617 jit.unpack 2;#N vpatcher 10 100 603 528;#P newex 409 233 71 196617 jit.op @op abs;#P newex 165 234 71 196617 jit.op @op abs;#P newex 304 186 124 196617 jit.clip @min -1. @max 1.;#P newex 304 160 105 196617 jit.op @op * @val 0.3;#P newex 59 186 124 196617 jit.clip @min -1. @max 1.;#P newex 59 160 105 196617 jit.op @op * @val 0.3;#P newex 502 190 32 196617 * -1.;#N comlet (matrix) Vertical flow;#P outlet 290 314 15 0;#N comlet (matrix) Horizontal flow;#P outlet 45 325 15 0;#N comlet (float) threshold;#P inlet 399 60 15 0;#N comlet (matrix) Vertical flow;#P inlet 304 60 15 0;#N comlet (matrix) Horizontal flow;#P inlet 59 60 15 0;#P newex 258 190 32 196617 * -1.;#P flonum 399 92 35 9 0. 1. 3 3 0 0 0 221 221 221 222 222 222 0 0 0;#P flonum 154 92 35 9 0. 1. 3 3 0 0 0 221 221 221 222 222 222 0 0 0;#P newex 290 262 53 196617 jit.pack;#P newex 409 213 103 196617 jit.op @op <p @val 0.;#P newex 304 213 103 196617 jit.op @op >p @val 0.;#P button 290 240 15 0;#P newex 45 273 53 196617 jit.pack;#P newex 165 213 103 196617 jit.op @op <p @val 0.;#P newex 59 213 103 196617 jit.op @op >p @val 0.;#P button 45 251 15 0;#P fasten 1 0 0 0 64 233 50 233;#P connect 0 0 3 0;#P connect 3 0 14 0;#P connect 11 0 17 0;#P connect 17 0 18 0;#P connect 18 0 1 0;#P connect 1 0 3 1;#P fasten 21 0 3 2 170 259 78 259;#P fasten 13 0 8 0 404 80 159 80;#P connect 8 0 17 1;#P fasten 18 0 2 0 64 208 170 208;#P connect 2 0 21 0;#P connect 10 0 2 1;#P fasten 5 0 4 0 309 233 295 233;#P connect 4 0 7 0;#P connect 7 0 15 0;#P connect 12 0 19 0;#P connect 19 0 20 0;#P connect 20 0 5 0;#P connect 5 0 7 1;#P fasten 5 0 7 2 309 247 323 247;#P fasten 22 0 7 3 414 255 337 255;#P connect 13 0 9 0;#P connect 9 0 19 1;#P fasten 20 0 6 0 309 207 414 207;#P connect 6 0 22 0;#P connect 16 0 6 1;#P pop;#P newobj -144 351 61 196617 p visualizer;#P toggle -358 443 15 0;#P newex -358 469 27 196617 gate;#P user jit.pwindow -359 544 62 82 0 1 0 0 1 0;#P newex -358 493 62 196617 jit.unpack 2;#N vpatcher 10 100 603 528;#P newex 409 233 71 196617 jit.op @op abs;#P newex 165 234 71 196617 jit.op @op abs;#P newex 304 186 124 196617 jit.clip @min -1. @max 1.;#P newex 304 160 105 196617 jit.op @op * @val 0.3;#P newex 59 186 124 196617 jit.clip @min -1. @max 1.;#P newex 59 160 105 196617 jit.op @op * @val 0.3;#P newex 502 190 32 196617 * -1.;#N comlet (matrix) Vertical flow;#P outlet 290 314 15 0;#N comlet (matrix) Horizontal flow;#P outlet 45 325 15 0;#N comlet (float) threshold;#P inlet 399 60 15 0;#N comlet (matrix) Vertical flow;#P inlet 304 60 15 0;#N comlet (matrix) Horizontal flow;#P inlet 59 60 15 0;#P newex 258 190 32 196617 * -1.;#P flonum 399 92 35 9 0. 1. 3 3 0 0 0 221 221 221 222 222 222 0 0 0;#P flonum 154 92 35 9 0. 1. 3 3 0 0 0 221 221 221 222 222 222 0 0 0;#P newex 290 262 53 196617 jit.pack;#P newex 409 213 103 196617 jit.op @op <p @val 0.;#P newex 304 213 103 196617 jit.op @op >p @val 0.;#P button 290 240 15 0;#P newex 45 273 53 196617 jit.pack;#P newex 165 213 103 196617 jit.op @op <p @val 0.;#P newex 59 213 103 196617 jit.op @op >p @val 0.;#P button 45 251 15 0;#P fasten 1 0 0 0 64 233 50 233;#P connect 0 0 3 0;#P connect 3 0 14 0;#P connect 11 0 17 0;#P connect 17 0 18 0;#P connect 18 0 1 0;#P connect 1 0 3 1;#P fasten 21 0 3 2 170 259 78 259;#P fasten 13 0 8 0 404 80 159 80;#P connect 8 0 17 1;#P fasten 18 0 2 0 64 208 170 208;#P connect 2 0 21 0;#P connect 10 0 2 1;#P fasten 5 0 4 0 309 233 295 233;#P connect 4 0 7 0;#P connect 7 0 15 0;#P connect 12 0 19 0;#P connect 19 0 20 0;#P connect 20 0 5 0;#P connect 5 0 7 1;#P fasten 5 0 7 2 309 247 323 247;#P fasten 22 0 7 3 414 255 337 255;#P connect 13 0 9 0;#P connect 9 0 19 1;#P fasten 20 0 6 0 309 207 414 207;#P connect 6 0 22 0;#P connect 16 0 6 1;#P pop;#P newobj -358 515 61 196617 p visualizer;#P toggle -3 264 15 0;#P newex 10 298 27 196617 gate;#P newex 446 720 35 196617 !- 1.;#P message 440 329 100 196617 0. 0.0594 0.2178 0.4257;#P newex 446 307 32 196617 show;#P message 420 403 100 196617 1. 0.9406 0.7822 0.5743;#P newex 426 381 32 196617 show;#P message 320 322 54 196617 1. 1. 1. 1.;#P button 320 304 15 0;#P newex 350 345 75 196617 Lsub 1. 1. 1. 1.;#P newex 360 278 118 196617 Lmult 0. 0.06 0.22 0.43;#P newex 554 419 76 196617 jit.op @op * @val 1. 0.94 0.78 0.57;#P flonum 405 725 35 9 0 0 0 3 0 0 0 221 221 221 222 222 222 0 0 0;#P newex 405 701 49 196617 clip 0. 1.;#P flonum 358 725 35 9 0 0 0 3 0 0 0 221 221 221 222 222 222 0 0 0;#P newex 358 700 40 196617 * 0.01;#P number 358 679 35 9 0 0 0 3 0 0 0 221 221 221 222 222 222 0 0 0;#P newex 358 653 54 196617 mavg 100;#P number 358 628 35 9 0 0 0 3 0 0 0 221 221 221 222 222 222 0 0 0;#P newex 358 604 27 196617 +;#P newex 233 676 31 196617 sel 1;#P newex 233 654 42 196617 == 255;#P number 234 722 35 9 0 0 0 3 0 0 0 221 221 221 222 222 222 0 0 0;#P newex 216 603 27 196617 t b l;#P message 216 677 14 196617 0;#N counter;#X flags 0 0;#P newobj 234 698 66 196617 counter;#P user jit.pwindow 101 515 82 62 0 1 0 0 1 0;#P newex 233 628 40 196617 jit.iter;#P newex 216 579 115 196617 jit.matrix 1 char 20 15;#P newex 216 553 105 196617 jit.op @op > @val 0.3;#P newex 216 528 125 196617 jit.op @op absdiff @val 0.;#P newex 216 502 66 196617 jit.unpack;#P newex 489 654 31 196617 sel 1;#P newex 489 632 42 196617 == 255;#P number 490 700 35 9 0 0 0 3 0 0 0 221 221 221 222 222 222 0 0 0;#P newex 472 581 27 196617 t b l;#P message 472 655 14 196617 0;#N counter;#X flags 0 0;#P newobj 490 676 66 196617 counter;#P user jit.pwindow 357 493 82 62 0 1 0 0 1 0;#P newex 489 606 40 196617 jit.iter;#P newex 472 557 115 196617 jit.matrix 1 char 20 15;#P newex 472 531 105 196617 jit.op @op > @val 0.3;#P newex 472 506 125 196617 jit.op @op absdiff @val 0.;#P newex 472 480 66 196617 jit.unpack;#P comment -387 241 49 196617 left/right;#P newex -319 239 27 196617 + 1;#P toggle -336 239 15 0;#P newex -290 239 45 196617 gate 2 1;#P newex -242 239 375 196617 jit.matrix 4 char 240 320 @usesrcdim 1 @srcdimstart 239 0 @srcdimend 0 319;#P newex -319 214 27 196617 + 1;#P toggle -336 214 15 0;#P newex -290 214 45 196617 gate 2 1;#P newex -242 214 375 196617 jit.matrix 4 char 240 320 @usesrcdim 1 @srcdimstart 0 319 @srcdimend 239 0;#P newex -290 182 388 196617 jit.matrix 4 char 240 320 @usesrcdim 1 @srcdimstart 40 50 @srcdimend 279 319;#P newex -290 144 373 196617 jit.matrix 4 char 320 320 @usedstdim 1 @dstdimstart 0 0 @dstdimend 319 319;#P user jit.pwindow -385 133 82 62 0 1 0 0 1 0;#P newex 172 239 27 196617 + 1;#P toggle 155 239 15 0;#P newex 201 239 45 196617 gate 2 1;#P newex 249 239 375 196617 jit.matrix 4 char 240 320 @usesrcdim 1 @srcdimstart 239 0 @srcdimend 0 319;#P message -250 66 29 196617 open;#P newex -288 95 53 196617 ys.video2;#P user jit.pwindow -291 274 62 82 0 1 0 0 1 0;#P newex -290 65 29 196617 gate;#P newex -271 34 26 196617 r bb;#P toggle -290 31 15 0;#P newex -290 467 68 196617 cv.jit.HSflow;#P newex -290 412 52 196617 jit.change;#P newex -290 440 64 196617 jit.rgb2luma;#P newex -290 386 115 196617 jit.matrix 4 char 60 80;#P newex 172 214 27 196617 + 1;#P toggle 155 214 15 0;#P newex 201 214 45 196617 gate 2 1;#P newex 249 214 375 196617 jit.matrix 4 char 240 320 @usesrcdim 1 @srcdimstart 0 319 @srcdimend 239 0;#P user jit.pwindow 106 133 82 62 0 1 0 0 1 0;#P user jit.fpsgui 333 374 60 196617 3;#P message 241 64 29 196617 open;#P newex 201 101 53 196617 ys.video2;#P user jit.pwindow 200 266 62 82 0 1 0 0 1 0;#P newex 201 63 29 196617 gate;#P newex 220 32 26 196617 r bb;#P toggle 201 29 15 0;#P newex 201 459 68 196617 cv.jit.HSflow;#P newex 201 404 52 196617 jit.change;#P newex 201 432 64 196617 jit.rgb2luma;#P newex 201 378 115 196617 jit.matrix 4 char 60 80;#P user jit.pwindow -30 552 62 82 0 1 0 0 1 0;#P toggle -103 1 15 0;#P newex -103 26 51 196617 metro 30;#P newex -7 378 29 196617 lb 1.;#P flonum -57 429 35 9 0 0 0 3 0 0 0 221 221 221 222 222 222 0 0 0;#P message -57 448 70 196617 brightness \$1;#P newex -68 484 53 196617 jit.brcosa;#P flonum 37 427 35 9 0 0 0 3 0 0 0 221 221 221 222 222 222 0 0 0;#P message 37 446 70 196617 brightness \$1;#P newex 26 482 53 196617 jit.brcosa;#P newex -29 652 35 196617 s bkgd;#P newex -29 518 63 196617 jit.op @op +;#P newex -227 592 58 196617 s crossimg;#P newex -227 558 64 196617 jit.op @op *;#P hidden newex -242 653 104 196617 bgcolor 210 210 195;#P comment -387 216 49 196617 up/down;#P connect 40 0 46 0;#P connect 106 0 105 0;#P connect 105 0 103 0;#P connect 103 0 102 0;#P connect 102 0 104 0;#P connect 35 0 105 1;#P connect 51 0 52 0;#P connect 55 0 56 0;#P connect 36 0 38 0;#P connect 40 0 47 0;#P connect 47 0 48 0;#P connect 52 0 50 0;#P connect 56 0 54 0;#P connect 54 0 39 0;#P connect 53 0 39 0;#P connect 39 0 32 0;#P connect 32 0 34 0;#P connect 34 0 33 0;#P connect 33 0 35 0;#P connect 112 0 40 0;#P connect 38 0 40 0;#P connect 41 0 40 0;#P connect 13 0 38 1;#P connect 37 0 38 1;#P connect 48 0 50 1;#P connect 49 0 54 1;#P connect 50 0 54 1;#P connect 100 0 54 1;#P connect 50 1 49 0;#P connect 54 1 53 0;#P connect 35 0 2 0;#P connect 2 0 3 0;#P connect 119 0 118 0;#P fasten 24 0 118 1 206 120 186 120 186 109 -198 109;#P fasten 40 0 118 2 -283 111 -179 111;#P connect 19 0 2 1;#P connect 111 0 110 0;#P connect 110 0 108 0;#P connect 108 0 107 0;#P connect 107 0 109 0;#P connect 19 0 110 1;#P connect 14 0 13 0;#P connect 39 0 9 0;#P connect 10 0 9 0;#P connect 12 0 11 0;#P connect 11 0 10 0;#P connect 9 0 4 0;#P connect 4 0 15 0;#P connect 90 0 15 0;#P connect 15 0 5 0;#P connect 101 0 100 0;#P connect 6 0 4 1;#P connect 23 0 6 0;#P connect 7 0 6 0;#P connect 23 0 100 1;#P connect 12 0 8 0;#P connect 8 0 7 0;#P connect 73 0 75 0;#P connect 24 0 27 0;#P connect 30 0 31 0;#P connect 44 0 45 0;#P connect 20 0 22 0;#P connect 113 0 24 0;#P connect 25 0 24 0;#P connect 22 0 24 0;#P connect 31 0 29 0;#P connect 45 0 43 0;#P connect 42 0 23 0;#P connect 43 0 23 0;#P connect 23 0 16 0;#P connect 16 0 18 0;#P connect 18 0 17 0;#P connect 17 0 19 0;#P fasten 118 0 115 0 134 131 214 131;#P lcolor 7;#P connect 115 0 116 0;#P connect 70 0 71 0;#P connect 71 0 72 0;#P connect 72 0 73 0;#P connect 73 0 78 0;#P connect 78 0 77 0;#P connect 21 0 22 1;#P connect 13 0 22 1;#P connect 78 1 74 0;#P connect 74 0 80 0;#P connect 80 0 81 0;#P connect 81 0 76 0;#P connect 76 0 79 0;#P connect 116 0 29 1;#P connect 29 0 43 1;#P connect 28 0 43 1;#P connect 29 1 28 0;#P connect 43 1 42 0;#P connect 77 0 76 2;#P connect 91 0 93 0;#P connect 93 0 94 0;#P connect 23 0 26 0;#P connect 94 0 92 0;#P connect 61 0 63 0;#P connect 79 0 82 0;#P connect 82 0 83 0;#P connect 83 0 84 0;#P connect 84 0 85 0;#P connect 85 0 86 0;#P connect 86 0 87 0;#P connect 99 0 91 0;#P connect 67 0 82 1;#P connect 87 0 88 0;#P connect 88 0 89 0;#P connect 91 0 92 1;#P connect 95 0 96 0;#P connect 92 0 95 0;#P connect 97 0 98 0;#P connect 91 0 97 0;#P connect 89 0 99 0;#P connect 58 0 59 0;#P connect 59 0 60 0;#P connect 60 0 61 0;#P connect 61 0 66 0;#P connect 66 0 65 0;#P connect 66 1 62 0;#P connect 62 0 68 0;#P connect 68 0 69 0;#P connect 69 0 64 0;#P connect 64 0 67 0;#P connect 65 0 64 2;#P connect 92 0 90 1;#P pop;