max v2;#N vpatcher 0 502 640 960;#P origin 226 182;#P message 479 -70 32 196617 close;#P message -18 -66 32 196617 close;#P toggle 54 148 15 0;#P newex 54 174 27 196617 gate;#P user jit.pwindow 53 249 62 82 0 1 0 0 1 0;#P newex 54 198 62 196617 jit.unpack 2;#N vpatcher 10 100 603 528;#P newex 409 233 71 196617 jit.op @op abs;#P newex 165 234 71 196617 jit.op @op abs;#P newex 304 186 124 196617 jit.clip @min -1. @max 1.;#P newex 304 160 105 196617 jit.op @op * @val 0.3;#P newex 59 186 124 196617 jit.clip @min -1. @max 1.;#P newex 59 160 105 196617 jit.op @op * @val 0.3;#P newex 502 190 32 196617 * -1.;#N comlet (matrix) Vertical flow;#P outlet 290 314 15 0;#N comlet (matrix) Horizontal flow;#P outlet 45 325 15 0;#N comlet (float) threshold;#P inlet 399 60 15 0;#N comlet (matrix) Vertical flow;#P inlet 304 60 15 0;#N comlet (matrix) Horizontal flow;#P inlet 59 60 15 0;#P newex 258 190 32 196617 * -1.;#P flonum 399 92 35 9 0. 1. 3 3 0 0 0 221 221 221 222 222 222 0 0 0;#P flonum 154 92 35 9 0. 1. 3 3 0 0 0 221 221 221 222 222 222 0 0 0;#P newex 290 262 53 196617 jit.pack;#P newex 409 213 103 196617 jit.op @op <p @val 0.;#P newex 304 213 103 196617 jit.op @op >p @val 0.;#P button 290 240 15 0;#P newex 45 273 53 196617 jit.pack;#P newex 165 213 103 196617 jit.op @op <p @val 0.;#P newex 59 213 103 196617 jit.op @op >p @val 0.;#P button 45 251 15 0;#P fasten 1 0 0 0 64 233 50 233;#P connect 0 0 3 0;#P connect 3 0 14 0;#P connect 11 0 17 0;#P connect 17 0 18 0;#P connect 18 0 1 0;#P connect 1 0 3 1;#P fasten 21 0 3 2 170 259 78 259;#P fasten 13 0 8 0 404 80 159 80;#P connect 8 0 17 1;#P fasten 18 0 2 0 64 208 170 208;#P connect 2 0 21 0;#P connect 10 0 2 1;#P fasten 5 0 4 0 309 233 295 233;#P connect 4 0 7 0;#P connect 7 0 15 0;#P connect 12 0 19 0;#P connect 19 0 20 0;#P connect 20 0 5 0;#P connect 5 0 7 1;#P fasten 5 0 7 2 309 247 323 247;#P fasten 22 0 7 3 414 255 337 255;#P connect 13 0 9 0;#P connect 9 0 19 1;#P fasten 20 0 6 0 309 207 414 207;#P connect 6 0 22 0;#P connect 16 0 6 1;#P pop;#P newobj 54 220 61 196617 p visualizer;#P toggle -160 312 15 0;#P newex -160 338 27 196617 gate;#P user jit.pwindow -161 413 62 82 0 1 0 0 1 0;#P newex -160 362 62 196617 jit.unpack 2;#N vpatcher 10 100 603 528;#P newex 409 233 71 196617 jit.op @op abs;#P newex 165 234 71 196617 jit.op @op abs;#P newex 304 186 124 196617 jit.clip @min -1. @max 1.;#P newex 304 160 105 196617 jit.op @op * @val 0.3;#P newex 59 186 124 196617 jit.clip @min -1. @max 1.;#P newex 59 160 105 196617 jit.op @op * @val 0.3;#P newex 502 190 32 196617 * -1.;#N comlet (matrix) Vertical flow;#P outlet 290 314 15 0;#N comlet (matrix) Horizontal flow;#P outlet 45 325 15 0;#N comlet (float) threshold;#P inlet 399 60 15 0;#N comlet (matrix) Vertical flow;#P inlet 304 60 15 0;#N comlet (matrix) Horizontal flow;#P inlet 59 60 15 0;#P newex 258 190 32 196617 * -1.;#P flonum 399 92 35 9 0. 1. 3 3 0 0 0 221 221 221 222 222 222 0 0 0;#P flonum 154 92 35 9 0. 1. 3 3 0 0 0 221 221 221 222 222 222 0 0 0;#P newex 290 262 53 196617 jit.pack;#P newex 409 213 103 196617 jit.op @op <p @val 0.;#P newex 304 213 103 196617 jit.op @op >p @val 0.;#P button 290 240 15 0;#P newex 45 273 53 196617 jit.pack;#P newex 165 213 103 196617 jit.op @op <p @val 0.;#P newex 59 213 103 196617 jit.op @op >p @val 0.;#P button 45 251 15 0;#P fasten 1 0 0 0 64 233 50 233;#P connect 0 0 3 0;#P connect 3 0 14 0;#P connect 11 0 17 0;#P connect 17 0 18 0;#P connect 18 0 1 0;#P connect 1 0 3 1;#P fasten 21 0 3 2 170 259 78 259;#P fasten 13 0 8 0 404 80 159 80;#P connect 8 0 17 1;#P fasten 18 0 2 0 64 208 170 208;#P connect 2 0 21 0;#P connect 10 0 2 1;#P fasten 5 0 4 0 309 233 295 233;#P connect 4 0 7 0;#P connect 7 0 15 0;#P connect 12 0 19 0;#P connect 19 0 20 0;#P connect 20 0 5 0;#P connect 5 0 7 1;#P fasten 5 0 7 2 309 247 323 247;#P fasten 22 0 7 3 414 255 337 255;#P connect 13 0 9 0;#P connect 9 0 19 1;#P fasten 20 0 6 0 309 207 414 207;#P connect 6 0 22 0;#P connect 16 0 6 1;#P pop;#P newobj -160 384 61 196617 p visualizer;#P toggle 195 133 15 0;#P newex 208 167 27 196617 gate;#P newex 644 589 35 196617 !- 1.;#P message 638 198 100 196617 0. 0.0594 0.2178 0.4257;#P newex 644 176 32 196617 show;#P message 618 272 100 196617 1. 0.9406 0.7822 0.5743;#P newex 624 250 32 196617 show;#P message 518 191 54 196617 1. 1. 1. 1.;#P button 518 173 15 0;#P newex 548 214 75 196617 Lsub 1. 1. 1. 1.;#P newex 558 147 118 196617 Lmult 0. 0.06 0.22 0.43;#P newex 752 288 76 196617 jit.op @op * @val 1. 0.94 0.78 0.57;#P flonum 603 594 35 9 0 0 0 3 0 0 0 221 221 221 222 222 222 0 0 0;#P newex 603 570 49 196617 clip 0. 1.;#P flonum 556 594 35 9 0 0 0 3 0 0 0 221 221 221 222 222 222 0 0 0;#P newex 556 569 40 196617 * 0.01;#P number 556 548 35 9 0 0 0 3 0 0 0 221 221 221 222 222 222 0 0 0;#P newex 556 522 54 196617 mavg 100;#P number 556 497 35 9 0 0 0 3 0 0 0 221 221 221 222 222 222 0 0 0;#P newex 556 473 27 196617 +;#P newex 431 545 31 196617 sel 1;#P newex 431 523 42 196617 == 255;#P number 432 591 35 9 0 0 0 3 0 0 0 221 221 221 222 222 222 0 0 0;#P newex 414 472 27 196617 t b l;#P message 414 546 14 196617 0;#N counter;#X flags 0 0;#P newobj 432 567 66 196617 counter;#P user jit.pwindow 299 384 82 62 0 1 0 0 1 0;#P newex 431 497 40 196617 jit.iter;#P newex 414 448 115 196617 jit.matrix 1 char 20 15;#P newex 414 422 105 196617 jit.op @op > @val 0.3;#P newex 414 397 125 196617 jit.op @op absdiff @val 0.;#P newex 414 371 66 196617 jit.unpack;#P newex 687 523 31 196617 sel 1;#P newex 687 501 42 196617 == 255;#P number 688 569 35 9 0 0 0 3 0 0 0 221 221 221 222 222 222 0 0 0;#P newex 670 450 27 196617 t b l;#P message 670 524 14 196617 0;#N counter;#X flags 0 0;#P newobj 688 545 66 196617 counter;#P user jit.pwindow 555 362 82 62 0 1 0 0 1 0;#P newex 687 475 40 196617 jit.iter;#P newex 670 426 115 196617 jit.matrix 1 char 20 15;#P newex 670 400 105 196617 jit.op @op > @val 0.3;#P newex 670 375 125 196617 jit.op @op absdiff @val 0.;#P newex 670 349 66 196617 jit.unpack;#P comment -189 110 49 196617 left/right;#P newex -121 108 27 196617 + 1;#P toggle -138 108 15 0;#P newex -92 108 45 196617 gate 2 1;#P newex -44 108 375 196617 jit.matrix 4 char 240 320 @usesrcdim 1 @srcdimstart 239 0 @srcdimend 0 319;#P newex -121 83 27 196617 + 1;#P toggle -138 83 15 0;#P newex -92 83 45 196617 gate 2 1;#P newex -44 83 375 196617 jit.matrix 4 char 240 320 @usesrcdim 1 @srcdimstart 0 319 @srcdimend 239 0;#P newex -92 51 382 196617 jit.matrix 4 char 240 320 @usesrcdim 1 @srcdimstart 80 0 @srcdimend 319 319;#P newex -92 23 253 196617 jit.rota @theta -1.57 @anchor_x 160 @anchor_y 160;#P newex -92 0 373 196617 jit.matrix 4 char 320 320 @usedstdim 1 @dstdimstart 0 0 @dstdimend 319 239;#P user jit.pwindow -187 2 82 62 0 1 0 0 1 0;#P newex 370 108 27 196617 + 1;#P toggle 353 108 15 0;#P newex 399 108 45 196617 gate 2 1;#P newex 447 108 375 196617 jit.matrix 4 char 240 320 @usesrcdim 1 @srcdimstart 239 0 @srcdimend 0 319;#P message -52 -65 29 196617 open;#P newex -92 -28 53 196617 ys.video2;#P user jit.pwindow -93 143 62 82 0 1 0 0 1 0;#P newex -92 -66 29 196617 gate;#P newex -73 -97 26 196617 r bb;#P toggle -92 -100 15 0;#P newex -92 336 68 196617 cv.jit.HSflow;#P newex -92 281 52 196617 jit.change;#P newex -92 309 64 196617 jit.rgb2luma;#P newex -92 255 115 196617 jit.matrix 4 char 60 80;#P newex 370 83 27 196617 + 1;#P toggle 353 83 15 0;#P newex 399 83 45 196617 gate 2 1;#P newex 447 83 375 196617 jit.matrix 4 char 240 320 @usesrcdim 1 @srcdimstart 0 319 @srcdimend 239 0;#P newex 399 51 382 196617 jit.matrix 4 char 240 320 @usesrcdim 1 @srcdimstart 80 0 @srcdimend 319 319;#P newex 399 23 253 196617 jit.rota @theta -1.57 @anchor_x 160 @anchor_y 160;#P newex 399 0 373 196617 jit.matrix 4 char 320 320 @usedstdim 1 @dstdimstart 0 0 @dstdimend 319 239;#P user jit.pwindow 304 2 82 62 0 1 0 0 1 0;#P user jit.fpsgui 531 243 60 196617 3;#P message 439 -67 29 196617 open;#P newex 399 -30 53 196617 ys.video2;#P user jit.pwindow 398 135 62 82 0 1 0 0 1 0;#P newex 399 -68 29 196617 gate;#P newex 418 -99 26 196617 r bb;#P toggle 399 -102 15 0;#P newex 399 328 68 196617 cv.jit.HSflow;#P newex 399 273 52 196617 jit.change;#P newex 399 301 64 196617 jit.rgb2luma;#P newex 399 247 115 196617 jit.matrix 4 char 60 80;#P user jit.pwindow 168 421 62 82 0 1 0 0 1 0;#P toggle 95 -130 15 0;#P newex 95 -105 51 196617 metro 30;#P newex 191 247 29 196617 lb 1.;#P flonum 141 298 35 9 0 0 0 3 0 0 0 221 221 221 222 222 222 0 0 0;#P message 141 317 70 196617 brightness \$1;#P newex 130 353 53 196617 jit.brcosa;#P flonum 235 296 35 9 0 0 0 3 0 0 0 221 221 221 222 222 222 0 0 0;#P message 235 315 70 196617 brightness \$1;#P newex 224 351 53 196617 jit.brcosa;#P newex 169 521 35 196617 s bkgd;#P newex 169 387 63 196617 jit.op @op +;#P newex -29 461 58 196617 s crossimg;#P newex -29 427 64 196617 jit.op @op *;#P hidden newex -44 522 104 196617 bgcolor 210 210 195;#P comment -189 85 49 196617 up/down;#P connect 43 0 49 0;#P connect 110 0 109 0;#P connect 109 0 107 0;#P connect 107 0 106 0;#P connect 106 0 108 0;#P connect 38 0 109 1;#P connect 55 0 56 0;#P connect 59 0 60 0;#P connect 39 0 41 0;#P connect 44 0 43 0;#P connect 41 0 43 0;#P connect 116 0 43 0;#P connect 43 0 50 0;#P connect 50 0 51 0;#P connect 51 0 52 0;#P connect 56 0 54 0;#P connect 60 0 58 0;#P connect 58 0 42 0;#P connect 57 0 42 0;#P connect 42 0 35 0;#P connect 35 0 37 0;#P connect 37 0 36 0;#P connect 36 0 38 0;#P connect 13 0 41 1;#P connect 40 0 41 1;#P connect 52 0 54 1;#P connect 53 0 58 1;#P connect 54 0 58 1;#P connect 104 0 58 1;#P connect 54 1 53 0;#P connect 58 1 57 0;#P connect 38 0 2 0;#P connect 2 0 3 0;#P connect 19 0 2 1;#P connect 115 0 114 0;#P connect 114 0 112 0;#P connect 112 0 111 0;#P connect 111 0 113 0;#P connect 19 0 114 1;#P connect 14 0 13 0;#P connect 42 0 9 0;#P connect 10 0 9 0;#P connect 12 0 11 0;#P connect 11 0 10 0;#P connect 9 0 4 0;#P connect 4 0 15 0;#P connect 94 0 15 0;#P connect 15 0 5 0;#P connect 105 0 104 0;#P connect 6 0 4 1;#P connect 23 0 6 0;#P connect 7 0 6 0;#P connect 23 0 104 1;#P connect 12 0 8 0;#P connect 8 0 7 0;#P connect 77 0 79 0;#P connect 24 0 27 0;#P connect 33 0 34 0;#P connect 47 0 48 0;#P connect 20 0 22 0;#P connect 22 0 24 0;#P connect 25 0 24 0;#P connect 117 0 24 0;#P connect 24 0 28 0;#P connect 28 0 29 0;#P connect 29 0 30 0;#P connect 34 0 32 0;#P connect 48 0 46 0;#P connect 45 0 23 0;#P connect 46 0 23 0;#P connect 23 0 16 0;#P connect 16 0 18 0;#P connect 18 0 17 0;#P connect 17 0 19 0;#P connect 74 0 75 0;#P connect 75 0 76 0;#P connect 76 0 77 0;#P connect 77 0 82 0;#P connect 82 0 81 0;#P connect 21 0 22 1;#P connect 13 0 22 1;#P connect 82 1 78 0;#P connect 78 0 84 0;#P connect 84 0 85 0;#P connect 85 0 80 0;#P connect 80 0 83 0;#P connect 30 0 32 1;#P connect 32 0 46 1;#P connect 31 0 46 1;#P connect 32 1 31 0;#P connect 46 1 45 0;#P connect 81 0 80 2;#P connect 95 0 97 0;#P connect 97 0 98 0;#P connect 23 0 26 0;#P connect 98 0 96 0;#P connect 65 0 67 0;#P connect 83 0 86 0;#P connect 86 0 87 0;#P connect 87 0 88 0;#P connect 88 0 89 0;#P connect 89 0 90 0;#P connect 90 0 91 0;#P connect 103 0 95 0;#P connect 71 0 86 1;#P connect 91 0 92 0;#P connect 92 0 93 0;#P connect 95 0 96 1;#P connect 99 0 100 0;#P connect 96 0 99 0;#P connect 101 0 102 0;#P connect 95 0 101 0;#P connect 93 0 103 0;#P connect 62 0 63 0;#P connect 63 0 64 0;#P connect 64 0 65 0;#P connect 65 0 70 0;#P connect 70 0 69 0;#P connect 70 1 66 0;#P connect 66 0 72 0;#P connect 72 0 73 0;#P connect 73 0 68 0;#P connect 68 0 71 0;#P connect 69 0 68 2;#P connect 96 0 94 1;#P pop;