{
	"patcher" : 	{
		"fileversion" : 1,
		"rect" : [ 48.0, 142.0, 637.0, 457.0 ],
		"bglocked" : 0,
		"defrect" : [ 48.0, 142.0, 637.0, 457.0 ],
		"openrect" : [ 0.0, 0.0, 0.0, 0.0 ],
		"openinpresentation" : 0,
		"default_fontsize" : 12.0,
		"default_fontface" : 0,
		"default_fontname" : "Arial",
		"gridonopen" : 0,
		"gridsize" : [ 5.0, 5.0 ],
		"gridsnaponopen" : 0,
		"toolbarvisible" : 1,
		"boxanimatetime" : 200,
		"imprint" : 0,
		"enablehscroll" : 1,
		"enablevscroll" : 1,
		"boxes" : [ 			{
				"box" : 				{
					"args" : [ "/input" ],
					"id" : "obj-32",
					"maxclass" : "bpatcher",
					"name" : "jmod.input~.maxpat",
					"numinlets" : 1,
					"numoutlets" : 3,
					"outlettype" : [ "", "signal", "signal" ],
					"patching_rect" : [ 6.0, 67.0, 300.0, 140.0 ],
					"presentation_rect" : [ 30.0, 30.0, 300.0, 140.0 ],
					"varname" : "/input~"
				}

			}
, 			{
				"box" : 				{
					"fontname" : "Arial",
					"fontsize" : 12.0,
					"frgb" : [ 0.0, 0.0, 0.0, 1.0 ],
					"id" : "obj-3",
					"linecount" : 5,
					"maxclass" : "comment",
					"numinlets" : 1,
					"numoutlets" : 0,
					"patching_rect" : [ 356.0, 146.0, 256.0, 75.0 ],
					"text" : "inputs:\n1-2: joint stereo SPAT src, ambimonitor #1\n3, 4: SPAT seperate reverbs, mono sources\n5-7: joint reverb spat mono sources\n8: only ICST (no SPAT)"
				}

			}
, 			{
				"box" : 				{
					"fontname" : "Verdana",
					"fontsize" : 10.0,
					"frgb" : [ 0.0, 0.0, 0.0, 1.0 ],
					"id" : "obj-10",
					"maxclass" : "comment",
					"numinlets" : 1,
					"numoutlets" : 0,
					"patching_rect" : [ 53.0, 388.0, 198.0, 19.0 ],
					"text" : "audio output (soround)"
				}

			}
, 			{
				"box" : 				{
					"fontname" : "Arial",
					"fontsize" : 12.0,
					"frgb" : [ 0.0, 0.0, 0.0, 1.0 ],
					"id" : "obj-7",
					"linecount" : 4,
					"maxclass" : "comment",
					"numinlets" : 1,
					"numoutlets" : 0,
					"patching_rect" : [ 27.0, 240.0, 178.0, 62.0 ],
					"text" : "outlets:(left to right):\n1. control data\n2. b-format output\n3. decoded multichannel output"
				}

			}
, 			{
				"box" : 				{
					"fontname" : "Verdana",
					"fontsize" : 10.0,
					"frgb" : [ 0.0, 0.0, 0.0, 1.0 ],
					"id" : "obj-8",
					"maxclass" : "comment",
					"numinlets" : 1,
					"numoutlets" : 0,
					"patching_rect" : [ 468.0, 281.0, 139.0, 19.0 ],
					"text" : "audio output (stereo)"
				}

			}
, 			{
				"box" : 				{
					"fontname" : "Verdana",
					"fontsize" : 10.0,
					"frgb" : [ 0.0, 0.0, 0.0, 1.0 ],
					"id" : "obj-9",
					"maxclass" : "comment",
					"numinlets" : 1,
					"numoutlets" : 0,
					"patching_rect" : [ 438.0, 245.0, 139.0, 19.0 ],
					"text" : "convert to UHJ stereo"
				}

			}
, 			{
				"box" : 				{
					"args" : [ "/output~" ],
					"id" : "obj-12",
					"maxclass" : "bpatcher",
					"name" : "jmod.output~.maxpat",
					"numinlets" : 3,
					"numoutlets" : 1,
					"outlettype" : [ "" ],
					"patching_rect" : [ 315.0, 302.0, 300.0, 140.0 ],
					"presentation_rect" : [ 15.0, 15.0, 300.0, 140.0 ],
					"varname" : "/output~[1]"
				}

			}
, 			{
				"box" : 				{
					"fontname" : "Verdana",
					"fontsize" : 10.0,
					"id" : "obj-13",
					"maxclass" : "newobj",
					"numinlets" : 4,
					"numoutlets" : 2,
					"outlettype" : [ "signal", "signal" ],
					"patching_rect" : [ 324.0, 261.0, 291.0, 19.0 ],
					"text" : "jcom.sur.ambi2UHJ~"
				}

			}
, 			{
				"box" : 				{
					"args" : [ "nav.ambi32.SPAT.55a.st", "Ambisonic module with a 2nd Order 2-D SPAT modules. Accepting on joint stereo source and 5 mono sources", "Matralab, Nov09 Racines Ephermeres" ],
					"id" : "obj-2",
					"maxclass" : "bpatcher",
					"name" : "nav.banner.maxpat",
					"numinlets" : 0,
					"numoutlets" : 0,
					"patching_rect" : [ 0.0, 0.0, 443.0, 61.0 ]
				}

			}
, 			{
				"box" : 				{
					"args" : [ "/output" ],
					"id" : "obj-11",
					"lockeddragscroll" : 1,
					"maxclass" : "bpatcher",
					"name" : "jmod.sur.output~.maxpat",
					"numinlets" : 2,
					"numoutlets" : 1,
					"outlettype" : [ "" ],
					"patching_rect" : [ 3.0, 313.0, 300.0, 70.0 ],
					"presentation_rect" : [ 15.0, 15.0, 300.0, 70.0 ],
					"varname" : "jmod.sur.output~"
				}

			}
, 			{
				"box" : 				{
					"fontname" : "Arial",
					"fontsize" : 12.0,
					"id" : "obj-1",
					"maxclass" : "newobj",
					"numinlets" : 8,
					"numoutlets" : 3,
					"outlettype" : [ "", "", "" ],
					"patching_rect" : [ 3.0, 220.0, 300.0, 20.0 ],
					"text" : "nav.ambi32.SPAT.55a.st fly"
				}

			}
 ],
		"lines" : [ 			{
				"patchline" : 				{
					"destination" : [ "obj-11", 1 ],
					"hidden" : 0,
					"midpoints" : [  ],
					"source" : [ "obj-1", 2 ]
				}

			}
, 			{
				"patchline" : 				{
					"destination" : [ "obj-11", 0 ],
					"hidden" : 0,
					"midpoints" : [  ],
					"source" : [ "obj-1", 0 ]
				}

			}
, 			{
				"patchline" : 				{
					"destination" : [ "obj-13", 3 ],
					"hidden" : 0,
					"midpoints" : [ 153.0, 248.5, 605.5, 248.5 ],
					"source" : [ "obj-1", 1 ]
				}

			}
, 			{
				"patchline" : 				{
					"destination" : [ "obj-12", 2 ],
					"hidden" : 0,
					"midpoints" : [  ],
					"source" : [ "obj-13", 1 ]
				}

			}
, 			{
				"patchline" : 				{
					"destination" : [ "obj-12", 1 ],
					"hidden" : 0,
					"midpoints" : [ 333.5, 296.0, 465.0, 296.0 ],
					"source" : [ "obj-13", 0 ]
				}

			}
, 			{
				"patchline" : 				{
					"destination" : [ "obj-1", 1 ],
					"hidden" : 0,
					"midpoints" : [ 296.5, 213.0, 52.642857, 213.0 ],
					"source" : [ "obj-32", 2 ]
				}

			}
, 			{
				"patchline" : 				{
					"destination" : [ "obj-1", 0 ],
					"hidden" : 0,
					"midpoints" : [ 156.0, 213.0, 12.5, 213.0 ],
					"source" : [ "obj-32", 1 ]
				}

			}
 ]
	}

}
