max v2;#N vpatcher 219 67 831 705;#P origin 0 -7;#P comment 38 21 213 196626 timespacemorph;#P comment 253 21 143 196617 Yoichiro Serita © 2003 Topological Media Lab;#P user jit.pwindow 370 400 82 62 0 1 0 0 1 0;#P user jit.pwindow 238 400 82 62 0 1 0 0 1 0;#P newex 239 477 52 196617 jit.pack 2;#P newex 239 375 128 196617 jit.matrix 1 char 320 240;#P newex 371 346 113 196617 jit.op @op & @val 255;#P number 239 211 35 9 0 0 0 3 0 0 0 221 221 221 222 222 222 0 0 0;#P newex 239 346 101 196617 jit.op @op >> @val 8;#P newex 239 309 64 196617 jit.op @op *;#P newex 239 189 40 196617 * 255.;#P newex 371 375 128 196617 jit.matrix 1 char 320 240;#P flonum 277 123 35 9 0 0 0 3 0 0 0 221 221 221 222 222 222 0 0 0;#P newex 277 94 27 196617 r s2;#P newex 239 231 64 196617 t b i;#P flonum 239 168 35 9 0 0 0 3 0 0 0 221 221 221 222 222 222 0 0 0;#N vpatcher 488 100 932 635;#P newex 152 265 32 196617 lb 20;#P newex 136 214 38 196617 lb 100;#P flonum 95 337 35 9 0 0 0 3 0 0 0 221 221 221 222 222 222 0 0 0;#P user multiSlider 217 410 138 62 0. 1. 1 3449 47;#M frgb 94 236 110;#M brgb 255 255 255;#M rgb2 127 127 127;#P number 152 287 35 9 0 0 0 3 0 0 0 221 221 221 222 222 222 0 0 0;#P newex 95 313 48 196617 mavg 20;#P flonum 95 158 35 9 0 0 0 3 0 0 0 221 221 221 222 222 222 0 0 0;#P newex 95 136 115 196617 expr $f1*$f1+$f2*$f2;#P flonum 200 100 35 9 0 0 0 3 0 0 0 221 221 221 222 222 222 0 0 0;#P inlet 200 75 15 0;#P flonum 95 390 35 9 0. 1. 3 3 0 0 0 221 221 221 222 222 222 0 0 0;#P newex 261 123 25 196617 lb 3;#P flonum 261 165 35 9 0 0 0 3 0 0 0 221 221 221 222 222 222 0 0 0;#P outlet 95 447 15 0;#P user multiSlider 217 335 138 62 0. 1. 1 3449 47;#M frgb 94 236 110;#M brgb 255 255 255;#M rgb2 127 127 127;#P number 136 237 35 9 0 0 0 3 0 0 0 221 221 221 222 222 222 0 0 0;#P newex 95 259 54 196617 mavg 100;#P user multiSlider 217 261 138 62 0. 1. 1 3449 47;#M frgb 94 236 110;#M brgb 255 255 255;#M rgb2 127 127 127;#P flonum 95 214 35 9 0 0 0 3 0 0 0 221 221 221 222 222 222 0 0 0;#P newex 95 188 176 196617 expr abs($f1 - 0.5) * $f2;#P flonum 95 100 35 9 0 0 0 3 0 0 0 221 221 221 222 222 222 0 0 0;#P inlet 95 75 15 0;#P connect 0 0 1 0;#P connect 1 0 14 0;#P connect 14 0 15 0;#P connect 15 0 2 0;#P connect 2 0 3 0;#P connect 3 0 5 0;#P connect 5 0 16 0;#P connect 16 0 19 0;#P connect 19 0 11 0;#P connect 11 0 8 0;#P connect 17 0 16 1;#P connect 20 0 6 0;#P connect 6 0 5 1;#P connect 21 0 17 0;#P connect 12 0 13 0;#P connect 13 0 14 1;#P connect 3 0 4 0;#P connect 5 0 7 0;#P connect 19 0 18 0;#P connect 10 0 9 0;#P connect 9 0 2 1;#P pop;#P newobj 239 145 48 196617 p energy;#P flonum 239 123 35 9 0 0 0 3 0 0 0 221 221 221 222 222 222 0 0 0;#P newex 239 94 27 196617 r s1;#P newex 390 55 45 196617 loadbang;#P user GSwitch2 493 155 39 32 0 0;#P newex 522 199 38 196617 !- 255;#P newex 422 165 27 196617 t b i;#P newex 422 142 27 196617 - 1;#P newex 454 225 27 196617 - 1;#P newex 417 261 55 196617 pack 0 0 0;#P button 390 79 28 0;#P newex 390 119 43 196617 uzi 240;#P newex 422 203 43 196617 uzi 320;#P message 417 289 101 196617 setcell \$1 \$2 val \$3;#P user jit.pwindow 238 501 82 62 0 1 0 0 1 0;#P newex 40 420 133 196617 ys.window timespacemorph;#P newex 40 53 45 196617 ys.video;#P user jit.pwindow 39 116 82 62 0 1 0 0 1 0;#P user jit.pwindow 39 279 162 122 0 1 0 0 1 0;#P newex 40 85 128 196617 jit.matrix 4 char 320 240;#P newex 239 270 125 196617 jit.matrix 1 long 320 240;#P newex 40 247 110 196617 ys.jit.timespacemorph;#P connect 5 0 2 0;#P connect 2 0 4 0;#P connect 4 0 0 0;#P connect 0 0 3 0;#P connect 3 0 6 0;#P fasten 7 0 0 1 244 574 207 574 207 233 145 233;#P connect 19 0 20 0;#P connect 20 0 21 0;#P connect 21 0 22 0;#P connect 22 0 27 0;#P connect 27 0 30 0;#P connect 30 0 23 0;#P connect 11 0 1 0;#P connect 23 0 1 0;#P connect 8 0 1 0;#P connect 1 0 28 0;#P connect 28 0 29 0;#P connect 29 0 32 0;#P connect 32 0 34 0;#P connect 34 0 33 0;#P connect 33 0 7 0;#P connect 24 0 25 0;#P connect 25 0 21 1;#P fasten 35 0 33 1 376 470 286 470;#P connect 23 1 28 1;#P fasten 28 0 31 0 244 333 376 333;#P connect 31 0 26 0;#P connect 26 0 35 0;#P connect 18 0 11 0;#P connect 11 0 10 0;#P connect 13 0 12 0;#P connect 12 0 8 0;#P connect 10 2 14 0;#P connect 14 0 15 0;#P connect 15 0 9 0;#P connect 15 1 12 1;#P connect 9 2 13 0;#P connect 16 0 12 2;#P connect 17 0 12 2;#P connect 15 1 17 1;#P connect 17 1 16 0;#P pop;