max v2;#N vpatcher 125 116 668 730;#P window setfont "Sans Serif" 18.;#P window linecount 1;#P comment 36 17 213 196626 twoforce1225_test;#P window setfont "Sans Serif" 9.;#P window linecount 2;#P comment 251 17 143 196617 Yoichiro Serita © 2003 Topological Media Lab;#P window linecount 1;#P comment 250 53 57 196617 prameter;#P newex 317 127 27 196617 t b i;#P number 317 71 39 9 0 0 0 3 0 0 0 156 179 255 222 222 222 0 0 0;#P newex 274 127 27 196617 t b i;#P number 274 71 41 9 0 0 0 3 0 0 0 156 179 255 222 222 222 0 0 0;#P newex 231 127 27 196617 t b i;#P number 231 71 39 9 0 0 0 3 0 0 0 156 179 255 222 222 222 0 0 0;#P number 142 71 35 9 0 0 0 3 0 0 0 156 179 255 222 222 222 0 0 0;#P number 104 71 35 9 0 0 0 3 0 0 0 156 179 255 222 222 222 0 0 0;#P newex 188 127 27 196617 t b i;#P newex 101 126 27 196617 t b l;#P number 66 71 35 9 0 0 0 3 0 0 0 156 179 255 222 222 222 0 0 0;#P number 28 71 35 9 0 0 0 3 0 0 0 156 179 255 222 222 222 0 0 0;#P newex 101 101 59 196617 pak 0 0 0 0;#P number 91 229 35 9 0 0 0 3 0 0 0 221 221 221 222 222 222 0 0 0;#P message 91 250 48 196617 setall \$1;#P message 296 213 65 196617 offset \$1 \$2;#P number 188 71 41 9 0 0 0 3 0 0 0 156 179 255 222 222 222 0 0 0;#P newex 162 185 184 196617 twoforce1225;#P message 58 251 31 196617 clear;#P newex 162 277 151 196617 jit.matrix wow 1 char 320 240;#P newex 162 243 68 196617 jit.fill wow 0;#P user jit.pwindow 161 311 337 257 0 1 0 0 1 0;#P comment 83 53 44 196617 position;#P connect 9 0 8 0;#P connect 11 0 10 0;#P connect 10 0 13 0;#P connect 12 0 10 1;#P connect 15 0 10 2;#P connect 16 0 10 3;#P fasten 13 0 5 0 106 156 167 156;#P fasten 13 1 5 0 123 156 167 156;#P fasten 22 0 5 0 322 156 167 156;#P fasten 20 0 5 0 279 156 167 156;#P fasten 14 0 5 0 193 156 167 156;#P fasten 18 0 5 0 236 156 167 156;#P fasten 7 0 2 0 301 232 167 232;#P connect 5 0 2 0;#P fasten 8 0 3 0 96 271 167 271;#P fasten 4 0 3 0 63 271 167 271;#P connect 2 0 3 0;#P connect 3 0 1 0;#P connect 6 0 14 0;#P connect 14 1 5 1;#P connect 17 0 18 0;#P connect 18 1 5 2;#P connect 19 0 20 0;#P connect 20 1 5 3;#P connect 5 1 7 0;#P connect 21 0 22 0;#P connect 22 1 5 4;#P pop;