{
	"patcher" : 	{
		"fileversion" : 1,
		"appversion" : 		{
			"major" : 6,
			"minor" : 1,
			"revision" : 6,
			"architecture" : "x86"
		}
,
		"rect" : [ 54.0, 44.0, 874.0, 681.0 ],
		"bglocked" : 0,
		"openinpresentation" : 0,
		"default_fontsize" : 10.0,
		"default_fontface" : 0,
		"default_fontname" : "Verdana",
		"gridonopen" : 0,
		"gridsize" : [ 15.0, 15.0 ],
		"gridsnaponopen" : 0,
		"statusbarvisible" : 2,
		"toolbarvisible" : 1,
		"boxanimatetime" : 200,
		"imprint" : 0,
		"enablehscroll" : 1,
		"enablevscroll" : 1,
		"devicewidth" : 0.0,
		"description" : "",
		"digest" : "",
		"tags" : "",
		"boxes" : [ 			{
				"box" : 				{
					"fontname" : "Verdana",
					"fontsize" : 10.0,
					"frgb" : 0.0,
					"id" : "obj-67",
					"linecount" : 6,
					"maxclass" : "comment",
					"numinlets" : 1,
					"numoutlets" : 0,
					"patching_rect" : [ 1200.0, 90.0, 371.0, 79.0 ],
					"presentation_rect" : [ 1203.0, 105.0, 0.0, 0.0 ],
					"text" : "Modulation input: takes standard video matrices (4 plane 2-dimensional char) as an input. Depending on the settings, the particles can be set to \"stick\" to light or dark parts of the image. This can be useful for working with figures - the particles can be made to cling to a person's body, forming a silhouette, or to surround and avoid them."
				}

			}
, 			{
				"box" : 				{
					"fontname" : "Verdana",
					"fontsize" : 10.0,
					"frgb" : 0.0,
					"id" : "obj-66",
					"linecount" : 5,
					"maxclass" : "comment",
					"numinlets" : 1,
					"numoutlets" : 0,
					"patching_rect" : [ 1200.0, 180.0, 340.0, 67.0 ],
					"text" : "invert: inverts the colors of the modulation input. If using the camera as a modulation input, values closer to 0. will cause the particles to cluster into brighter areas of the image and avoid darker areas. Values closer to 1. will cause particles to cluster in dark areas and avoid bright ones."
				}

			}
, 			{
				"box" : 				{
					"bubble" : 1,
					"fontname" : "Verdana",
					"fontsize" : 10.0,
					"frgb" : 0.0,
					"id" : "obj-64",
					"linecount" : 6,
					"maxclass" : "comment",
					"numinlets" : 1,
					"numoutlets" : 0,
					"patching_rect" : [ 330.0, 285.0, 156.0, 83.0 ],
					"text" : "The input of the particle system comes from the Navier-Stokes fluid simulation. For info on this module, please see its help file."
				}

			}
, 			{
				"box" : 				{
					"fontname" : "Verdana",
					"fontsize" : 10.0,
					"frgb" : 0.0,
					"id" : "obj-62",
					"linecount" : 9,
					"maxclass" : "comment",
					"numinlets" : 1,
					"numoutlets" : 0,
					"patching_rect" : [ 975.0, 735.0, 225.0, 116.0 ],
					"text" : "Each species has an individual outlet. The output is a one dimensional, 3 plane float32 matrix. Each cell in the matrix represents an individual particle. The 3 values given for each cell/particle are x position, y position and age. The x positions run from 0. (left) to 256. (right) and the y positions from 0. (top) to 144. (bottom)."
				}

			}
, 			{
				"box" : 				{
					"fontname" : "Verdana",
					"fontsize" : 10.0,
					"id" : "obj-58",
					"maxclass" : "message",
					"numinlets" : 2,
					"numoutlets" : 1,
					"outlettype" : [ "" ],
					"patching_rect" : [ 165.0, 630.0, 60.0, 17.0 ],
					"text" : "enable $1"
				}

			}
, 			{
				"box" : 				{
					"id" : "obj-56",
					"maxclass" : "toggle",
					"numinlets" : 1,
					"numoutlets" : 1,
					"outlettype" : [ "int" ],
					"parameter_enable" : 0,
					"patching_rect" : [ 165.0, 600.0, 20.0, 20.0 ]
				}

			}
, 			{
				"box" : 				{
					"fontname" : "Verdana",
					"fontsize" : 10.0,
					"frgb" : 0.0,
					"id" : "obj-53",
					"maxclass" : "comment",
					"numinlets" : 1,
					"numoutlets" : 0,
					"patching_rect" : [ 1245.0, 465.0, 150.0, 19.0 ],
					"text" : "reread:"
				}

			}
, 			{
				"box" : 				{
					"fontname" : "Verdana",
					"fontsize" : 10.0,
					"frgb" : 0.0,
					"id" : "obj-51",
					"linecount" : 3,
					"maxclass" : "comment",
					"numinlets" : 1,
					"numoutlets" : 0,
					"patching_rect" : [ 1245.0, 570.0, 641.0, 43.0 ],
					"presentation_rect" : [ 1186.0, 628.0, 0.0, 0.0 ],
					"text" : "minDamping/maxDamping: sets the damping factor applied to the particles, which determines how they retain energy. The higher the damping factor, the more quickly a particle will lose energy/decelerate. Values within the range set by these parameters are distributed across the particles."
				}

			}
, 			{
				"box" : 				{
					"fontname" : "Verdana",
					"fontsize" : 10.0,
					"frgb" : 0.0,
					"id" : "obj-50",
					"linecount" : 5,
					"maxclass" : "comment",
					"numinlets" : 1,
					"numoutlets" : 0,
					"patching_rect" : [ 1245.0, 495.0, 324.0, 67.0 ],
					"text" : "minMass/maxMass: sets the mass of the particles, which determines how they respond to stimulation from the incoming position matrix. The more mass a particle has, the more energy it takes to accelerate it. Values within the range set by these parameters are distributed across the particles."
				}

			}
, 			{
				"box" : 				{
					"fontname" : "Verdana",
					"fontsize" : 10.0,
					"frgb" : 0.0,
					"id" : "obj-48",
					"linecount" : 4,
					"maxclass" : "comment",
					"numinlets" : 1,
					"numoutlets" : 0,
					"patching_rect" : [ 1245.0, 405.0, 419.0, 55.0 ],
					"text" : "respawn: when the particles either die or are blown out of the visible region, they are reset to their initial positions. The respawn value determines how many particles are reset at each step. Higher values mean that the particle field will regenerate more quickly."
				}

			}
, 			{
				"box" : 				{
					"fontname" : "Verdana",
					"fontsize" : 10.0,
					"id" : "obj-39",
					"maxclass" : "flonum",
					"maximum" : 1.0,
					"minimum" : 0.0,
					"numinlets" : 1,
					"numoutlets" : 2,
					"outlettype" : [ "float", "bang" ],
					"parameter_enable" : 0,
					"patching_rect" : [ 45.0, 600.0, 50.0, 19.0 ]
				}

			}
, 			{
				"box" : 				{
					"fontname" : "Verdana",
					"fontsize" : 10.0,
					"id" : "obj-37",
					"maxclass" : "message",
					"numinlets" : 2,
					"numoutlets" : 1,
					"outlettype" : [ "" ],
					"patching_rect" : [ 45.0, 630.0, 101.0, 17.0 ],
					"text" : "color $1 $1 $1 $1"
				}

			}
, 			{
				"box" : 				{
					"fontname" : "Verdana",
					"fontsize" : 10.0,
					"id" : "obj-35",
					"maxclass" : "newobj",
					"numinlets" : 1,
					"numoutlets" : 2,
					"outlettype" : [ "jit_matrix", "" ],
					"patching_rect" : [ 15.0, 240.0, 127.0, 19.0 ],
					"text" : "jit.dimmap @invert 1 0"
				}

			}
, 			{
				"box" : 				{
					"fontname" : "Verdana",
					"fontsize" : 10.0,
					"frgb" : 0.0,
					"id" : "obj-34",
					"linecount" : 5,
					"maxclass" : "comment",
					"numinlets" : 1,
					"numoutlets" : 0,
					"patching_rect" : [ 1590.0, 75.0, 285.0, 67.0 ],
					"text" : "The position matrix stimulates the motion of the particles to a degree controlled by the gain setting. The way that the particles respond is determined by the physics parameters: attractionVel, attraction, speed, damping and mass."
				}

			}
, 			{
				"box" : 				{
					"fontname" : "Verdana",
					"fontsize" : 10.0,
					"frgb" : 0.0,
					"id" : "obj-32",
					"linecount" : 7,
					"maxclass" : "comment",
					"numinlets" : 1,
					"numoutlets" : 0,
					"patching_rect" : [ 975.0, 630.0, 289.0, 92.0 ],
					"text" : "The particle system comprises four distinct species of particles. All of the species are driven by the same input (usually the output of the fluid simulation). Each species can be given distinct physical parameters that determine how it responds to this input. Each species can also be visualized distinctly via attributes such as color, drawing primitive and scale."
				}

			}
, 			{
				"box" : 				{
					"bubble" : 1,
					"bubblepoint" : 0.04,
					"bubbleside" : 3,
					"fontname" : "Verdana",
					"fontsize" : 10.0,
					"frgb" : 0.0,
					"id" : "obj-30",
					"maxclass" : "comment",
					"numinlets" : 1,
					"numoutlets" : 0,
					"patching_rect" : [ 255.0, 495.0, 615.0, 23.0 ],
					"text" : "speed: sets the speed particle movement. Values above 1. tend to make the particles accelerate away to infinity. "
				}

			}
, 			{
				"box" : 				{
					"fontname" : "Verdana",
					"fontsize" : 10.0,
					"frgb" : 0.0,
					"id" : "obj-28",
					"linecount" : 2,
					"maxclass" : "comment",
					"numinlets" : 1,
					"numoutlets" : 0,
					"patching_rect" : [ 1170.0, 270.0, 315.0, 31.0 ],
					"text" : "threshold: uses [jit.op @op >] to do simple noise reduction filtering on the modulation input."
				}

			}
, 			{
				"box" : 				{
					"bubble" : 1,
					"bubbleside" : 3,
					"fontname" : "Verdana",
					"fontsize" : 10.0,
					"frgb" : 0.0,
					"id" : "obj-26",
					"linecount" : 4,
					"maxclass" : "comment",
					"numinlets" : 1,
					"numoutlets" : 0,
					"patching_rect" : [ 315.0, 435.0, 555.0, 59.0 ],
					"presentation_rect" : [ 381.0, 448.0, 0.0, 0.0 ],
					"text" : "attraction: at each frame, the system checks the distance and direction  from every particle to its initialization position. It then \"teleports\" each particle back towards its initial position. The telportation range is scaled by the attraction value: e.g., if attraction is set to 0.1, a particle will be teleported 10% of the distance to its initial position. The teleportation overrides the forces in the simulation."
				}

			}
, 			{
				"box" : 				{
					"fontname" : "Verdana",
					"fontsize" : 10.0,
					"frgb" : 0.0,
					"id" : "obj-12",
					"linecount" : 3,
					"maxclass" : "comment",
					"numinlets" : 1,
					"numoutlets" : 0,
					"patching_rect" : [ 1170.0, 345.0, 345.0, 43.0 ],
					"presentation_rect" : [ 1029.0, 183.0, 0.0, 0.0 ],
					"text" : "The values in the position matrix can be amplified or attenuated with Gain. Slide up and slide down can be used to perform temporal interpolation on the position matrix stream."
				}

			}
, 			{
				"box" : 				{
					"bubble" : 1,
					"bubbleside" : 3,
					"fontname" : "Verdana",
					"fontsize" : 10.0,
					"frgb" : 0.0,
					"id" : "obj-11",
					"linecount" : 4,
					"maxclass" : "comment",
					"numinlets" : 1,
					"numoutlets" : 0,
					"patching_rect" : [ 180.0, 375.0, 690.0, 59.0 ],
					"presentation_rect" : [ 356.0, 403.0, 0.0, 0.0 ],
					"text" : "attractionVel: at each frame, the system checks the distance and direction  from every particle to its initialization position. It then applies a force pushing each particle back towards its initial position. This force is scaled by the attracionVel value: e.g., if attractionVel is set to 0.1, a particle will be pushed with 10% of the force that would be needed to return it to its initial position. This force is calculated together with the other forces in the simulation (e.g., displacements from the position matrix stream)."
				}

			}
, 			{
				"box" : 				{
					"bubble" : 1,
					"bubbleside" : 3,
					"fontname" : "Verdana",
					"fontsize" : 10.0,
					"frgb" : 0.0,
					"id" : "obj-2",
					"linecount" : 3,
					"maxclass" : "comment",
					"numinlets" : 1,
					"numoutlets" : 0,
					"patching_rect" : [ 525.0, 315.0, 345.0, 47.0 ],
					"text" : "The values in the position matrix can be amplified or attenuated with Gain. Slide up and slide down can be used to perform temporal interpolation on the position matrix stream."
				}

			}
, 			{
				"box" : 				{
					"fontname" : "Verdana",
					"fontsize" : 10.0,
					"id" : "obj-22",
					"linecount" : 4,
					"maxclass" : "newobj",
					"numinlets" : 1,
					"numoutlets" : 2,
					"outlettype" : [ "jit_matrix", "" ],
					"patching_rect" : [ 15.0, 660.0, 120.0, 55.0 ],
					"text" : "jit.gl.videoplane test @transform_reset 2 @blend_enable 1 @blend_mode 4 8"
				}

			}
, 			{
				"box" : 				{
					"fontname" : "Verdana",
					"fontsize" : 10.0,
					"id" : "obj-16",
					"maxclass" : "newobj",
					"numinlets" : 2,
					"numoutlets" : 1,
					"outlettype" : [ "bang" ],
					"patching_rect" : [ 525.0, 660.0, 116.0, 19.0 ],
					"text" : "qmetro 16 @active 1"
				}

			}
, 			{
				"box" : 				{
					"fontname" : "Verdana",
					"fontsize" : 10.0,
					"id" : "obj-9",
					"maxclass" : "newobj",
					"numinlets" : 1,
					"numoutlets" : 3,
					"outlettype" : [ "bang", "bang", "erase" ],
					"patching_rect" : [ 525.0, 690.0, 65.0, 19.0 ],
					"text" : "t b b erase"
				}

			}
, 			{
				"box" : 				{
					"fontname" : "Verdana",
					"fontsize" : 10.0,
					"id" : "obj-7",
					"maxclass" : "newobj",
					"numinlets" : 1,
					"numoutlets" : 2,
					"outlettype" : [ "bang", "" ],
					"patching_rect" : [ 525.0, 735.0, 92.0, 19.0 ],
					"text" : "jit.gl.render test"
				}

			}
, 			{
				"box" : 				{
					"id" : "obj-3",
					"maxclass" : "toggle",
					"numinlets" : 1,
					"numoutlets" : 1,
					"outlettype" : [ "int" ],
					"parameter_enable" : 0,
					"patching_rect" : [ 525.0, 630.0, 20.0, 20.0 ]
				}

			}
, 			{
				"box" : 				{
					"args" : [ "particleFlow%" ],
					"id" : "obj-6",
					"maxclass" : "bpatcher",
					"name" : "jmod.o4.particleFlow%.maxpat",
					"numinlets" : 3,
					"numoutlets" : 6,
					"outlettype" : [ "", "", "", "", "", "" ],
					"patching_rect" : [ 870.0, 240.0, 300.0, 385.0 ],
					"presentation_rect" : [ 0.0, 0.0, 300.0, 385.0 ]
				}

			}
, 			{
				"box" : 				{
					"fontname" : "Arial",
					"fontsize" : 13.0,
					"id" : "obj-18",
					"maxclass" : "message",
					"numinlets" : 2,
					"numoutlets" : 1,
					"outlettype" : [ "" ],
					"patching_rect" : [ 405.0, 720.0, 87.0, 19.0 ],
					"text" : "fullscreen $1"
				}

			}
, 			{
				"box" : 				{
					"id" : "obj-19",
					"maxclass" : "toggle",
					"numinlets" : 1,
					"numoutlets" : 1,
					"outlettype" : [ "int" ],
					"parameter_enable" : 0,
					"patching_rect" : [ 405.0, 690.0, 20.0, 20.0 ]
				}

			}
, 			{
				"box" : 				{
					"fontname" : "Arial",
					"fontsize" : 13.0,
					"id" : "obj-14",
					"maxclass" : "newobj",
					"numinlets" : 0,
					"numoutlets" : 1,
					"outlettype" : [ "bang" ],
					"patcher" : 					{
						"fileversion" : 1,
						"appversion" : 						{
							"major" : 6,
							"minor" : 1,
							"revision" : 6,
							"architecture" : "x86"
						}
,
						"rect" : [ 25.0, 69.0, 640.0, 480.0 ],
						"bglocked" : 0,
						"openinpresentation" : 0,
						"default_fontsize" : 12.0,
						"default_fontface" : 0,
						"default_fontname" : "Arial",
						"gridonopen" : 0,
						"gridsize" : [ 15.0, 15.0 ],
						"gridsnaponopen" : 0,
						"statusbarvisible" : 2,
						"toolbarvisible" : 1,
						"boxanimatetime" : 200,
						"imprint" : 0,
						"enablehscroll" : 1,
						"enablevscroll" : 1,
						"devicewidth" : 0.0,
						"description" : "",
						"digest" : "",
						"tags" : "",
						"boxes" : [ 							{
								"box" : 								{
									"comment" : "",
									"id" : "obj-8",
									"maxclass" : "outlet",
									"numinlets" : 1,
									"numoutlets" : 0,
									"patching_rect" : [ 284.0, 224.0, 25.0, 25.0 ]
								}

							}
, 							{
								"box" : 								{
									"fontname" : "Arial",
									"fontsize" : 12.0,
									"id" : "obj-2",
									"maxclass" : "newobj",
									"numinlets" : 2,
									"numoutlets" : 2,
									"outlettype" : [ "bang", "" ],
									"patching_rect" : [ 284.0, 137.0, 43.0, 20.0 ],
									"text" : "sel 27"
								}

							}
, 							{
								"box" : 								{
									"fontname" : "Arial",
									"fontsize" : 12.0,
									"id" : "obj-1",
									"maxclass" : "newobj",
									"numinlets" : 0,
									"numoutlets" : 4,
									"outlettype" : [ "int", "int", "int", "int" ],
									"patching_rect" : [ 284.0, 110.0, 59.5, 20.0 ],
									"text" : "key"
								}

							}
 ],
						"lines" : [ 							{
								"patchline" : 								{
									"destination" : [ "obj-2", 0 ],
									"disabled" : 0,
									"hidden" : 0,
									"source" : [ "obj-1", 0 ]
								}

							}
, 							{
								"patchline" : 								{
									"destination" : [ "obj-8", 0 ],
									"disabled" : 0,
									"hidden" : 0,
									"source" : [ "obj-2", 0 ]
								}

							}
 ]
					}
,
					"patching_rect" : [ 405.0, 660.0, 42.0, 21.0 ],
					"saved_object_attributes" : 					{
						"default_fontface" : 0,
						"default_fontname" : "Arial",
						"default_fontsize" : 12.0,
						"description" : "",
						"digest" : "",
						"fontface" : 0,
						"fontname" : "Arial",
						"fontsize" : 12.0,
						"globalpatchername" : "",
						"tags" : ""
					}
,
					"text" : "p esc"
				}

			}
, 			{
				"box" : 				{
					"fontname" : "Verdana",
					"fontsize" : 10.0,
					"id" : "obj-17",
					"maxclass" : "message",
					"numinlets" : 2,
					"numoutlets" : 1,
					"outlettype" : [ "" ],
					"patching_rect" : [ 330.0, 720.0, 64.0, 17.0 ],
					"text" : "floating $1"
				}

			}
, 			{
				"box" : 				{
					"id" : "obj-15",
					"maxclass" : "toggle",
					"numinlets" : 1,
					"numoutlets" : 1,
					"outlettype" : [ "int" ],
					"parameter_enable" : 0,
					"patching_rect" : [ 330.0, 690.0, 20.0, 20.0 ]
				}

			}
, 			{
				"box" : 				{
					"fontname" : "Verdana",
					"fontsize" : 10.0,
					"id" : "obj-13",
					"maxclass" : "newobj",
					"numinlets" : 1,
					"numoutlets" : 2,
					"outlettype" : [ "bang", "" ],
					"patching_rect" : [ 405.0, 765.0, 222.0, 19.0 ],
					"text" : "jit.window test @floating 1 @fsmenubar 0"
				}

			}
, 			{
				"box" : 				{
					"args" : [ "myModule" ],
					"id" : "obj-10",
					"maxclass" : "bpatcher",
					"name" : "jmod.input%.maxpat",
					"numinlets" : 2,
					"numoutlets" : 2,
					"outlettype" : [ "", "" ],
					"patching_rect" : [ 15.0, 150.0, 300.0, 70.0 ],
					"presentation_rect" : [ 0.0, 0.0, 300.0, 70.0 ]
				}

			}
, 			{
				"box" : 				{
					"args" : [ "@name", "jmod.o4.fluids%", "@description", "Four-species particle system" ],
					"bgmode" : 1,
					"id" : "obj-21",
					"maxclass" : "bpatcher",
					"name" : "jcom.maxhelpui.maxpat",
					"numinlets" : 1,
					"numoutlets" : 0,
					"patching_rect" : [ 0.0, 0.0, 874.0, 70.0 ]
				}

			}
, 			{
				"box" : 				{
					"args" : [ "o4.fluids" ],
					"id" : "obj-8",
					"maxclass" : "bpatcher",
					"name" : "jmod.o4.fluids%.maxpat",
					"numinlets" : 4,
					"numoutlets" : 3,
					"outlettype" : [ "", "", "" ],
					"patching_rect" : [ 15.0, 285.0, 300.0, 245.0 ],
					"presentation_rect" : [ 0.0, 0.0, 300.0, 245.0 ]
				}

			}
 ],
		"lines" : [ 			{
				"patchline" : 				{
					"destination" : [ "obj-35", 0 ],
					"disabled" : 0,
					"hidden" : 0,
					"midpoints" : [ 305.5, 229.5, 24.5, 229.5 ],
					"source" : [ "obj-10", 1 ]
				}

			}
, 			{
				"patchline" : 				{
					"destination" : [ "obj-19", 0 ],
					"disabled" : 0,
					"hidden" : 0,
					"source" : [ "obj-14", 0 ]
				}

			}
, 			{
				"patchline" : 				{
					"destination" : [ "obj-17", 0 ],
					"disabled" : 0,
					"hidden" : 0,
					"source" : [ "obj-15", 0 ]
				}

			}
, 			{
				"patchline" : 				{
					"destination" : [ "obj-9", 0 ],
					"disabled" : 0,
					"hidden" : 0,
					"source" : [ "obj-16", 0 ]
				}

			}
, 			{
				"patchline" : 				{
					"destination" : [ "obj-13", 0 ],
					"disabled" : 0,
					"hidden" : 0,
					"midpoints" : [ 339.5, 750.5, 414.5, 750.5 ],
					"source" : [ "obj-17", 0 ]
				}

			}
, 			{
				"patchline" : 				{
					"destination" : [ "obj-13", 0 ],
					"disabled" : 0,
					"hidden" : 0,
					"source" : [ "obj-18", 0 ]
				}

			}
, 			{
				"patchline" : 				{
					"destination" : [ "obj-18", 0 ],
					"disabled" : 0,
					"hidden" : 0,
					"source" : [ "obj-19", 0 ]
				}

			}
, 			{
				"patchline" : 				{
					"destination" : [ "obj-16", 0 ],
					"disabled" : 0,
					"hidden" : 0,
					"source" : [ "obj-3", 0 ]
				}

			}
, 			{
				"patchline" : 				{
					"destination" : [ "obj-6", 1 ],
					"disabled" : 0,
					"hidden" : 0,
					"source" : [ "obj-35", 0 ]
				}

			}
, 			{
				"patchline" : 				{
					"destination" : [ "obj-8", 3 ],
					"disabled" : 0,
					"hidden" : 0,
					"midpoints" : [ 24.5, 274.5, 305.5, 274.5 ],
					"source" : [ "obj-35", 0 ]
				}

			}
, 			{
				"patchline" : 				{
					"destination" : [ "obj-8", 2 ],
					"disabled" : 0,
					"hidden" : 0,
					"midpoints" : [ 24.5, 274.5, 211.833328, 274.5 ],
					"source" : [ "obj-35", 0 ]
				}

			}
, 			{
				"patchline" : 				{
					"destination" : [ "obj-22", 0 ],
					"disabled" : 0,
					"hidden" : 0,
					"source" : [ "obj-37", 0 ]
				}

			}
, 			{
				"patchline" : 				{
					"destination" : [ "obj-37", 0 ],
					"disabled" : 0,
					"hidden" : 0,
					"source" : [ "obj-39", 0 ]
				}

			}
, 			{
				"patchline" : 				{
					"destination" : [ "obj-58", 0 ],
					"disabled" : 0,
					"hidden" : 0,
					"source" : [ "obj-56", 0 ]
				}

			}
, 			{
				"patchline" : 				{
					"destination" : [ "obj-22", 0 ],
					"disabled" : 0,
					"hidden" : 0,
					"source" : [ "obj-58", 0 ]
				}

			}
, 			{
				"patchline" : 				{
					"destination" : [ "obj-22", 0 ],
					"disabled" : 0,
					"hidden" : 0,
					"midpoints" : [ 305.5, 585.0, 24.5, 585.0 ],
					"source" : [ "obj-8", 2 ]
				}

			}
, 			{
				"patchline" : 				{
					"destination" : [ "obj-6", 2 ],
					"disabled" : 0,
					"hidden" : 0,
					"midpoints" : [ 165.0, 570.0, 330.0, 570.0, 330.0, 149.0, 1160.5, 149.0 ],
					"source" : [ "obj-8", 1 ]
				}

			}
, 			{
				"patchline" : 				{
					"destination" : [ "obj-7", 0 ],
					"disabled" : 0,
					"hidden" : 0,
					"source" : [ "obj-9", 2 ]
				}

			}
, 			{
				"patchline" : 				{
					"destination" : [ "obj-7", 0 ],
					"disabled" : 0,
					"hidden" : 0,
					"source" : [ "obj-9", 0 ]
				}

			}
 ],
		"dependency_cache" : [ 			{
				"name" : "jmod.o4.fluids%.maxpat",
				"bootpath" : "/Users/aa/Desktop/o4.video/jmod.o4.fluids%",
				"patcherrelativepath" : "../jmod.o4.fluids%",
				"type" : "JSON",
				"implicit" : 1
			}
, 			{
				"name" : "jmod.o4.fluids%.ui.panel.maxpat",
				"bootpath" : "/Users/aa/Desktop/o4.video/jmod.o4.fluids%",
				"patcherrelativepath" : "../jmod.o4.fluids%",
				"type" : "JSON",
				"implicit" : 1
			}
, 			{
				"name" : "jcom.list2parameter.maxpat",
				"bootpath" : "/Applications/Max 6.1/Cycling '74/Jamoma/library/components/list2parameter",
				"patcherrelativepath" : "../../../../../Applications/Max 6.1/Cycling '74/Jamoma/library/components/list2parameter",
				"type" : "JSON",
				"implicit" : 1
			}
, 			{
				"name" : "tml.ejm.bilogscaler.maxpat",
				"bootpath" : "/Users/aa/Desktop/o4.video/jmod.o4.fluids%",
				"patcherrelativepath" : "../jmod.o4.fluids%",
				"type" : "JSON",
				"implicit" : 1
			}
, 			{
				"name" : "jalg.o4.fluids%.maxpat",
				"bootpath" : "/Users/aa/Desktop/o4.video/jmod.o4.fluids%",
				"patcherrelativepath" : "../jmod.o4.fluids%",
				"type" : "JSON",
				"implicit" : 1
			}
, 			{
				"name" : "jcom.maxhelpui.maxpat",
				"bootpath" : "/Applications/Max 6.1/Cycling '74/Jamoma/library/components/maxhelpui",
				"patcherrelativepath" : "../../../../../Applications/Max 6.1/Cycling '74/Jamoma/library/components/maxhelpui",
				"type" : "JSON",
				"implicit" : 1
			}
, 			{
				"name" : "jcom.maxhelpuiButton.png",
				"bootpath" : "/Applications/Max 6.1/Cycling '74/Jamoma/library/components/maxhelpui",
				"patcherrelativepath" : "../../../../../Applications/Max 6.1/Cycling '74/Jamoma/library/components/maxhelpui",
				"type" : "PNG ",
				"implicit" : 1
			}
, 			{
				"name" : "jcom.maxhelpuiResize.js",
				"bootpath" : "/Applications/Max 6.1/Cycling '74/Jamoma/library/components/maxhelpui",
				"patcherrelativepath" : "../../../../../Applications/Max 6.1/Cycling '74/Jamoma/library/components/maxhelpui",
				"type" : "TEXT",
				"implicit" : 1
			}
, 			{
				"name" : "jcom.jamomaPath.maxpat",
				"bootpath" : "/Applications/Max 6.1/Cycling '74/Jamoma/library/components/jamomaPath",
				"patcherrelativepath" : "../../../../../Applications/Max 6.1/Cycling '74/Jamoma/library/components/jamomaPath",
				"type" : "JSON",
				"implicit" : 1
			}
, 			{
				"name" : "jcom.thru.maxpat",
				"bootpath" : "/Applications/Max 6.1/Cycling '74/Jamoma/library/components/thru",
				"patcherrelativepath" : "../../../../../Applications/Max 6.1/Cycling '74/Jamoma/library/components/thru",
				"type" : "JSON",
				"implicit" : 1
			}
, 			{
				"name" : "jmod.input%.maxpat",
				"bootpath" : "/Applications/Max 6.1/Cycling '74/Jamoma/modules/video/input%",
				"patcherrelativepath" : "../../../../../Applications/Max 6.1/Cycling '74/Jamoma/modules/video/input%",
				"type" : "JSON",
				"implicit" : 1
			}
, 			{
				"name" : "jalg.input%.maxpat",
				"bootpath" : "/Applications/Max 6.1/Cycling '74/Jamoma/modules/video/input%",
				"patcherrelativepath" : "../../../../../Applications/Max 6.1/Cycling '74/Jamoma/modules/video/input%",
				"type" : "JSON",
				"implicit" : 1
			}
, 			{
				"name" : "jalg.input%.ui.maxpat",
				"bootpath" : "/Applications/Max 6.1/Cycling '74/Jamoma/modules/video/input%",
				"patcherrelativepath" : "../../../../../Applications/Max 6.1/Cycling '74/Jamoma/modules/video/input%",
				"type" : "JSON",
				"implicit" : 1
			}
, 			{
				"name" : "jmod.o4.particleFlow%.maxpat",
				"bootpath" : "/Users/aa/Desktop/o4.video/jmod.o4.particleFlow%",
				"patcherrelativepath" : ".",
				"type" : "JSON",
				"implicit" : 1
			}
, 			{
				"name" : "jmod.o4.particleFlow%.ui.panel.maxpat",
				"bootpath" : "/Users/aa/Desktop/o4.video/jmod.o4.particleFlow%",
				"patcherrelativepath" : ".",
				"type" : "JSON",
				"implicit" : 1
			}
, 			{
				"name" : "jalg.o4.particleFlow%.maxpat",
				"bootpath" : "/Users/aa/Desktop/o4.video/jmod.o4.particleFlow%",
				"patcherrelativepath" : ".",
				"type" : "JSON",
				"implicit" : 1
			}
, 			{
				"name" : "jalg.o4.particleFlow%.particlemesh.maxpat",
				"bootpath" : "/Users/aa/Desktop/o4.video/jmod.o4.particleFlow%",
				"patcherrelativepath" : ".",
				"type" : "JSON",
				"implicit" : 1
			}
, 			{
				"name" : "jalg.o4.particleFlow%.initialPositions.maxpat",
				"bootpath" : "/Users/aa/Desktop/o4.video/jmod.o4.particleFlow%",
				"patcherrelativepath" : ".",
				"type" : "JSON",
				"implicit" : 1
			}
, 			{
				"name" : "jalg.o4.particleFlow%.noisefield.maxpat",
				"bootpath" : "/Users/aa/Desktop/o4.video/jmod.o4.particleFlow%",
				"patcherrelativepath" : ".",
				"type" : "JSON",
				"implicit" : 1
			}
, 			{
				"name" : "jalg.o4.particleFlow%.normals.maxpat",
				"bootpath" : "/Users/aa/Desktop/o4.video/jmod.o4.particleFlow%",
				"patcherrelativepath" : ".",
				"type" : "JSON",
				"implicit" : 1
			}
, 			{
				"name" : "jalg.o4.fluids%.scalewrap.maxpat",
				"bootpath" : "/Users/aa/Desktop/o4.video/jmod.o4.fluids%",
				"patcherrelativepath" : "../jmod.o4.fluids%",
				"type" : "JSON",
				"implicit" : 1
			}
, 			{
				"name" : "jalg.o4.particleFlow%.figurative.maxpat",
				"bootpath" : "/Users/aa/Desktop/o4.video/jmod.o4.particleFlow%",
				"patcherrelativepath" : ".",
				"type" : "JSON",
				"implicit" : 1
			}
, 			{
				"name" : "mxr.v.scalewrap.maxpat",
				"bootpath" : "/Applications/Max 6.1/externals/MaxLibraries/MXR/Abstractions/visuals/others",
				"patcherrelativepath" : "../../../../../Applications/Max 6.1/externals/MaxLibraries/MXR/Abstractions/visuals/others",
				"type" : "JSON",
				"implicit" : 1
			}
, 			{
				"name" : "jcom.ui.mxo",
				"type" : "iLaX"
			}
, 			{
				"name" : "jcom.parameter.mxo",
				"type" : "iLaX"
			}
, 			{
				"name" : "jcom.hub.mxo",
				"type" : "iLaX"
			}
, 			{
				"name" : "jcom.in.mxo",
				"type" : "iLaX"
			}
, 			{
				"name" : "jcom.oscroute.mxo",
				"type" : "iLaX"
			}
, 			{
				"name" : "jcom.out.mxo",
				"type" : "iLaX"
			}
, 			{
				"name" : "tml.jit.fluid2.mxo",
				"type" : "iLaX"
			}
, 			{
				"name" : "jcom.pass.mxo",
				"type" : "iLaX"
			}
, 			{
				"name" : "cv.jit.resize.mxo",
				"type" : "iLaX"
			}
, 			{
				"name" : "cv.jit.HSflow.mxo",
				"type" : "iLaX"
			}
, 			{
				"name" : "jcom.route.mxo",
				"type" : "iLaX"
			}
, 			{
				"name" : "jcom.loader.mxo",
				"type" : "iLaX"
			}
, 			{
				"name" : "jcom.loader.mxo",
				"type" : "iLaX"
			}
, 			{
				"name" : "jcom.dataspace.mxo",
				"type" : "iLaX"
			}
, 			{
				"name" : "jcom.textslider.mxo",
				"type" : "iLaX"
			}
, 			{
				"name" : "jcom.message.mxo",
				"type" : "iLaX"
			}
, 			{
				"name" : "tml.jit.particleFlow.mxo",
				"type" : "iLaX"
			}
 ]
	}

}
