max v2;#N vpatcher 291 192 1039 568;#P origin 0 20;#P comment 96 28 219 196626 compass_visual;#P comment 315 28 143 196617 Yoichiro Serita © 2003 Topological Media Lab;#P comment 589 135 90 133693452 Yoichiro Serita 04.21.2003;#P comment 586 108 133 133693458 compass_visual;#P inlet 559 45 15 0;#P newex 32 79 83 196617 route reset calib;#P outlet 462 111 15 0;#P outlet 399 111 15 0;#P outlet 293 111 15 0;#P outlet 553 314 15 0;#P outlet 524 314 15 0;#P inlet 486 45 15 0;#P inlet 32 45 15 0;#P newex 410 260 45 196617 loadbang;#P message 410 282 55 196617 brgb 0 0 0;#P newex 41 222 45 196617 loadbang;#P flonum 486 132 35 9 0 0 0 3 0 0 0 221 221 221 222 222 222 0 0 0;#P newex 486 248 109 196617 jit.lcd 4 char 100 100;#P message 486 221 228 196617 clear \, paintarc 25 25 75 75 \$1 20 0 255 0 \, bang;#P newex 486 198 31 196617 - 10.;#P newex 486 152 74 196617 * -57.299999;#P newex 348 186 40 196617 Ladd 1.;#P newex 312 208 64 196617 pack 0 0 0 0;#P message 312 231 148 196617 paintrect \$1 \$2 \$3 \$4 255 0 0;#P newex 312 159 51 196617 Lmult 50.;#P newex 312 137 40 196617 Ladd 1.;#P message 41 244 55 196617 brgb 0 0 0;#P message 559 72 31 196617 clear;#P newex 140 170 40 196617 Ladd 1.;#P newex 104 142 55 196617 Lmult 100.;#P newex 104 194 64 196617 pack 0 0 0 0;#P message 104 223 199 196617 paintrect \$1 \$2 \$3 \$4 255 255 255 \, bang;#P newex 104 280 109 196617 jit.lcd 4 char 100 100;#P newex 312 79 184 196617 compass;#B color 5;#P number 486 176 35 9 0 0 0 3 0 0 0 221 221 221 222 222 222 0 0 0;#P connect 22 0 29 0;#P connect 19 0 8 0;#P connect 29 2 5 0;#P connect 5 0 4 0;#P connect 4 0 3 0;#P connect 7 0 2 0;#P connect 11 0 2 0;#P connect 8 0 2 0;#P connect 3 0 2 0;#P fasten 5 0 6 0 109 164 145 164;#P connect 6 0 4 2;#P fasten 1 0 26 0 317 103 298 103;#P fasten 22 0 1 0 37 68 317 68;#P connect 1 0 9 0;#P connect 9 0 10 0;#P connect 10 0 12 0;#P connect 12 0 11 0;#P fasten 10 0 13 0 317 180 353 180;#P connect 13 0 12 2;#P connect 21 0 20 0;#P connect 23 0 1 1;#P connect 18 0 14 0;#P connect 14 0 0 0;#P connect 0 0 15 0;#P connect 15 0 16 0;#P connect 16 0 17 0;#P connect 20 0 17 0;#P fasten 2 0 24 0 109 305 529 305;#P fasten 17 0 25 0 491 272 558 272;#P connect 30 0 7 0;#P pop;