max v2;#N vpatcher 450 176 900 566;#P comment 43 20 219 196626 compass_visual_test;#P comment 262 20 143 196617 Yoichiro Serita © 2003 Topological Media Lab;#P comment 85 268 35 196617 scaled;#P comment 142 207 31 196617 theta;#P comment 310 320 49 196617 direction;#P comment 207 320 49 196617 data plot;#P comment 208 65 90 133693452 Yoichiro Serita 04.21.2003;#P comment 156 117 66 196617 set direction;#P button 220 133 15 0;#P flonum 60 248 35 12 0 0 0 2040 0 0 0 74 156 97 222 222 222 0 0 0;#P flonum 112 248 35 12 0 0 0 2040 0 0 0 74 156 97 222 222 222 0 0 0;#P newex 60 224 62 196617 unpack 0. 0.;#P flonum 100 188 35 12 0 0 0 2040 0 0 0 74 156 97 222 222 222 0 0 0;#P flonum 140 188 35 12 0 0 0 2040 0 0 0 74 156 97 222 222 222 0 0 0;#P message 171 133 29 196617 calib;#P message 88 133 32 196617 reset;#P user jit.pwindow 286 215 102 102 0 1 0 0 1 0;#P user jit.pwindow 179 215 102 102 0 1 0 0 1 0;#P newex 60 105 66 196617 pack 0. 0.;#P newex 60 161 170 196617 compass_visual;#B color 5;#P flonum 116 78 35 12 0 0 0 2040 0 0 0 74 156 97 222 222 222 0 0 0;#P flonum 60 78 35 12 0 0 0 2040 0 0 0 74 156 97 222 222 222 0 0 0;#P newex 116 55 43 196617 r p2-s5;#B color 12;#P newex 60 55 43 196617 r p2-s4;#B color 12;#P comment 237 135 78 196617 clear lcd screen;#P connect 1 0 3 0;#P connect 3 0 6 0;#P connect 10 0 5 0;#P connect 9 0 5 0;#P connect 6 0 5 0;#P connect 5 0 13 0;#P connect 13 0 15 0;#P connect 5 1 12 0;#P connect 13 1 14 0;#P connect 2 0 4 0;#P connect 4 0 6 1;#P connect 5 2 11 0;#P connect 5 3 7 0;#P connect 16 0 5 2;#P connect 5 4 8 0;#P pop;