max v2;#N vpatcher 8 168 717 727;#P comment 174 33 219 196626 keyboard;#P comment 393 33 143 196617 Yoichiro Serita © 2003 Topological Media Lab;#P number 101 145 35 9 0 0 0 3 0 0 0 221 221 221 222 222 222 0 0 0;#P user meter~ 381 306 461 319 100 0 168 0 104 104 104 255 153 0 255 0 0 217 217 0 153 186 0 12 3 3 3 3;#P number 185 347 35 9 0 127 3 3 0 0 0 221 221 221 222 222 222 0 0 0;#P user number~ 187 401 260 416 10 22 2 2 0. 0. 128 0. 125 0.;#P comment 400 434 52 1310730 Right Gain;#P comment 260 401 45 1310730 Left Gain;#P user number~ 346 402 419 417 10 22 2 2 0. 0. 128 0. 125 0.;#P newex 166 433 27 1441802 *~;#P newex 317 430 27 1441802 *~;#N vpatcher 152 77 450 348;#P comment 177 140 103 1310730 Crossfade in which the intensity of the combined channels (and thus the impression of distance from the sound source) is kept constant \, as if the sound were travelling on an arc with the listener at the center.;#P comment 82 230 37 1310730 R Gain;#P comment 13 230 37 1310730 L Gain;#N comlet (signal) right channel gain;#P outlet 91 215 15 0;#N comlet (signal) left channel gain;#P outlet 21 215 15 0;#N comlet (int) MIDI panning;#P inlet 54 38 15 0;#P newex 21 190 43 1441802 cycle~;#P flonum 54 102 67 10 0 0 128 22 0 0 0 221 221 221 222 222 222 0 0 0;#P newex 54 56 68 1441802 split 0 64;#P newex 54 139 74 1441802 line~ 0.125;#P message 54 120 38 1441802 \$1 20;#P newex 54 77 43 1441802 / 512.;#P newex 124 165 50 1441802 +~ 0.75;#P newex 91 190 43 1441802 cycle~;#P newex 112 77 152 1441802 expr ($i1-64)/504.+0.125;#P comment 69 38 67 1310730 MIDI Panning;#P connect 9 0 11 0;#P connect 10 0 7 0;#P connect 7 0 4 0;#P fasten 1 0 8 0 117 98 59 98;#P connect 4 0 8 0;#P connect 8 0 5 0;#P connect 5 0 6 0;#P connect 6 0 9 1;#P connect 2 0 12 0;#P connect 7 1 1 0;#P fasten 6 0 3 0 59 160 129 160;#P connect 3 0 2 1;#P pop;#P newobj 186 375 170 1441802 p ‘constant distance xfade’;#P comment 591 232 89 1310730 Mod wheel increases modulation index;#P newex 416 173 68 1441802 pack 0. 20;#P newex 416 194 55 1441802 line~ 1.;#P user ezdac~ 203 491 247 524 0;#P newex 316 261 44 1441802 *~ 0.5;#P newex 402 235 83 1441802 synthFMvoice~;#P newex 316 235 83 1441802 synthFMvoice~;#P newex 604 209 38 1441802 line~;#P message 604 190 38 1441802 \$1 20;#P newex 604 169 38 1441802 / 16.;#P newex 604 148 73 1441802 ctlin a 1 1;#P newex 474 123 170 1441802 expr pow(2.\\\,($i1-64)/378.);#P newex 416 148 170 1441802 expr pow(2.\\\,($i1-64)/384.);#P newex 416 102 68 1441802 split 0 63;#P newex 416 81 68 1441802 bendin a 1;#P newex 316 144 68 1441802 route 1 2;#P newex 316 123 68 1441802 pack 0 0 0;#P newex 316 102 68 1441802 poly 2 1;#P newex 316 81 68 1441802 notein a 1;#P comment 484 97 147 1310730 Convert pitchbend value 0-127 into a frequency factor ±2 semitones;#P comment 360 259 119 1310730 ensure that combined amplitude does not exceed 1;#P newex 51 275 41 196617 noteout;#P newex 51 175 92 196617 makenote 80 1000;#P number 238 246 35 9 0 0 0 3 0 0 0 221 221 221 222 222 222 0 0 0;#P number 51 146 35 9 0 0 0 3 0 0 0 221 221 221 222 222 222 0 0 0;#P newex 51 100 135 196617 expr ($f1 + 3.1416) * 20.700001;#P number 51 246 35 9 0 130 3 3 0 0 0 221 221 221 222 222 222 0 0 0;#P user kslider 51 202 35 1 36 48 19 7 1 128 128 128 128 128 128 255 255 255 0 0 0 0 0 0;#P flonum 51 74 35 12 0 0 0 2040 0 0 0 255 227 23 222 222 222 0 0 0;#P newex 51 47 49 196617 armangle;#B color 5;#P connect 0 0 1 0;#P connect 1 0 4 0;#P connect 4 0 5 0;#P connect 5 0 7 0;#P connect 7 0 2 0;#P connect 2 0 3 0;#P connect 3 0 8 0;#P connect 6 0 8 1;#P connect 39 0 7 1;#P connect 25 0 32 0;#P connect 30 0 32 1;#P connect 5 0 37 0;#P connect 37 0 30 0;#P connect 30 0 36 0;#P connect 32 0 26 0;#P connect 31 0 26 1;#P connect 7 1 2 1;#P connect 2 1 6 0;#P connect 11 0 12 0;#P connect 3 0 12 0;#P connect 12 0 13 0;#P connect 13 0 14 0;#P connect 14 0 23 0;#P connect 23 0 25 0;#P fasten 24 0 25 0 407 256 321 256;#P connect 25 0 31 0;#P connect 30 1 31 1;#P connect 12 1 13 1;#P connect 30 1 33 0;#P fasten 27 0 23 1 421 225 357 225;#P connect 11 1 12 1;#P connect 6 0 12 1;#P connect 12 2 13 2;#P connect 25 0 38 0;#P fasten 22 0 23 2 609 230 393 230;#P fasten 14 1 24 0 350 165 407 165;#P connect 15 0 16 0;#P connect 16 0 17 0;#P connect 17 0 28 0;#P fasten 18 0 28 0 479 144 589 144 589 169 421 169;#P connect 28 0 27 0;#P fasten 27 0 24 1 421 225 443 225;#P connect 16 1 18 0;#P fasten 22 0 24 2 609 230 479 230;#P connect 19 0 20 0;#P connect 20 0 21 0;#P connect 21 0 22 0;#P pop;