max v2;#N vpatcher 25 115 878 672;#P origin 0 17;#P comment 579 49 219 196626 videomorph;#P comment 579 80 143 196617 Yoichiro Serita © 2003 Topological Media Lab;#P comment 468 334 35 196617 scaled;#P comment 525 273 31 196617 theta;#P comment 693 386 49 196617 direction;#P comment 590 386 49 196617 data plot;#P comment 579 131 90 133693452 Yoichiro Serita 04.21.2003;#P comment 539 183 66 196617 set direction;#P button 603 199 15 0;#P flonum 443 314 35 12 0 0 0 2040 0 0 0 74 156 97 222 222 222 0 0 0;#P flonum 495 314 35 12 0 0 0 2040 0 0 0 74 156 97 222 222 222 0 0 0;#P newex 443 290 62 196617 unpack 0. 0.;#P flonum 483 254 35 12 0 0 0 2040 0 0 0 74 156 97 222 222 222 0 0 0;#P flonum 523 254 35 12 0 0 0 2040 0 0 0 74 156 97 222 222 222 0 0 0;#P message 554 199 29 196617 calib;#P message 471 199 32 196617 reset;#P user jit.pwindow 669 281 102 102 0 1 0 0 1 0;#P user jit.pwindow 562 281 102 102 0 1 0 0 1 0;#P newex 443 171 66 196617 pack 0. 0.;#P newex 443 227 170 196617 compass_visual;#B color 5;#P flonum 499 144 35 12 0 0 0 2040 0 0 0 74 156 97 222 222 222 0 0 0;#P flonum 443 144 35 12 0 0 0 2040 0 0 0 74 156 97 222 222 222 0 0 0;#P newex 499 121 43 196617 r p2-s5;#B color 12;#P newex 443 121 43 196617 r p2-s4;#B color 12;#P comment 620 201 78 196617 clear lcd screen;#P user jit.pwindow 303 115 82 62 0 1 0 0 1 0;#P message 512 53 44 196617 loadram;#P flonum 467 33 35 9 0 0 0 3 0 0 0 221 221 221 222 222 222 0 0 0;#P message 467 53 42 196617 rate \$1;#P message 367 53 28 196617 read;#P message 437 53 27 196617 stop;#P message 403 53 31 196617 start;#P flonum 338 33 35 9 0.5 0 1 3 0 0 0 221 221 221 222 222 222 0 0 0;#P toggle 304 33 15 0;#P newex 304 53 44 196617 metro 2;#P newex 304 83 103 196617 jit.qt.movie 160 120;#P user jit.pwindow 165 291 162 122 0 1 0 0 1 0;#P flonum 166 190 35 9 0. 1. 3 3 0 0 0 221 221 221 222 222 222 0 0 0;#P message 166 211 48 196617 xfade \$1;#P newex 166 239 45 196617 jit.xfade;#P newex 369 277 32 196617 + 0.5;#P newex 369 255 33 196617 * 0.5;#P flonum 369 233 35 9 0 0 0 3 0 0 0 221 221 221 222 222 222 0 0 0;#P newex 369 209 23 196617 cos;#P user jit.pwindow 38 115 82 62 0 1 0 0 1 0;#P message 247 53 44 196617 loadram;#P flonum 202 33 35 9 0 0 0 3 0 0 0 221 221 221 222 222 222 0 0 0;#P message 202 53 42 196617 rate \$1;#P message 102 53 28 196617 read;#P message 172 53 27 196617 stop;#P message 138 53 31 196617 start;#P flonum 73 33 35 9 0.5 0 1 3 0 0 0 221 221 221 222 222 222 0 0 0;#P toggle 39 33 15 0;#P newex 39 53 44 196617 metro 2;#P newex 39 83 103 196617 jit.qt.movie 160 120;#P connect 2 0 1 0;#P connect 1 0 0 0;#P connect 6 0 0 0;#P connect 4 0 0 0;#P connect 5 0 0 0;#P connect 7 0 0 0;#P connect 9 0 0 0;#P connect 0 0 10 0;#P connect 3 0 1 1;#P connect 14 0 17 0;#P connect 17 0 16 0;#P connect 10 0 15 0;#P connect 16 0 15 0;#P connect 15 0 18 0;#P connect 29 0 15 1;#P connect 8 0 7 0;#P connect 21 0 20 0;#P connect 28 0 19 0;#P connect 26 0 19 0;#P connect 24 0 19 0;#P connect 23 0 19 0;#P connect 25 0 19 0;#P connect 20 0 19 0;#P connect 19 0 29 0;#P connect 22 0 20 1;#P connect 41 0 11 0;#P connect 11 0 12 0;#P connect 12 0 13 0;#P connect 13 0 14 0;#P connect 31 0 33 0;#P connect 33 0 36 0;#P connect 36 0 35 0;#P connect 39 0 35 0;#P connect 40 0 35 0;#P connect 35 0 43 0;#P connect 43 0 45 0;#P connect 27 0 26 0;#P connect 35 1 42 0;#P connect 43 1 44 0;#P connect 32 0 34 0;#P connect 34 0 36 1;#P connect 35 2 41 0;#P connect 35 3 37 0;#P connect 46 0 35 2;#P connect 35 4 38 0;#P pop;