max v2;#N vpatcher 306 59 814 709;#P origin 201 12;#P comment 312 50 182 196626 videorecord;#P comment 312 84 143 196617 Yoichiro Serita © 2003 Topological Media Lab;#P newex 369 380 62 196617 prepend dim;#P user ubumenu 346 360 56 196617 0 1 1 0;#X add 320 240;#X add 160 120;#X add 80 60;#X prefix_set 0 0 <none> 0;#P newex -14 314 45 196617 loadbang;#P message -14 338 63 196617 $1;#P newex 263 540 54 196617 s playmov;#B color 12;#P button -155 368 15 0;#P newex -125 369 50 196617 r recmov;#B color 12;#P user GSwitch -155 391 41 32 0 0;#P newex 41 381 62 196617 prepend dim;#P user ubumenu 18 361 56 196617 0 1 1 0;#X add 320 240;#X add 160 120;#X add 80 60;#X prefix_set 0 0 <none> 0;#P hidden newex 61 551 31 196617 show;#P message -2 582 168 196617 write mov2003328_17.25.26.mov;#B color 5;#N vpatcher 30 43 563 580;#P origin 0 7;#P newex 251 237 60 196617 prepend set;#P inlet 251 197 15 0;#P button 63 340 15 0;#P newex 63 376 104 196617 pack mov 0 0 0 0 0 0;#P newex 135 310 65 196617 unpack 0 0 0;#P newex 63 310 65 196617 unpack 0 0 0;#P newex 63 404 230 196617 sprintf write %s%s%s%s_%s.%s.%s.mov;#P newex 63 283 154 196617 date;#P message 63 260 51 196617 time \, date;#P outlet 63 464 15 0;#P comment 133 443 147 196617 write filename in the format =>;#P comment 153 462 146 196617 <prefix>-<date>_<time>.mov;#P comment 33 41 456 196617 //codec types \; raw \, cinepak \, graphics \, animation \, video \, componentvideo \, jpeg \, mjpega \, mjpegb \, sgi \, planarrgb \, macpaint \, gif \, photocd \, qdgx \, avrjpeg \, opendmljpeg \, bmp \, winraw \, vector \, qd \, h261 \, h263 \, dvntsc \, dvpal \, dvprontsc \, dvpropal \, flc \, targa \, png \, tiff \, componentvideosigned \, componentvideounsigned \, cmyk \, microsoft \, sorenson \, indeo4 \, argb64 \, rgb48 \, alphagrey32 \, grey16 \, mpegyuv420 \, yuv420 \, sorensonyuv9 \; \; //codec qualities \; lossless \, max \, min \, low \, normal \, high \;;#P inlet 63 197 15 0;#P button 63 226 15 0;#P connect 1 0 0 0;#P connect 0 0 6 0;#P connect 6 0 7 0;#P connect 7 0 9 0;#P connect 9 0 12 0;#P fasten 14 0 11 0 256 368 68 368;#P connect 12 0 11 0;#P connect 11 0 8 0;#P connect 8 0 5 0;#P connect 9 2 11 1;#P connect 9 0 11 2;#P connect 9 1 11 3;#P connect 10 0 11 4;#P connect 7 1 10 0;#P connect 10 1 11 5;#P connect 10 2 11 6;#P connect 13 0 14 0;#P pop;#P newobj -59 398 55 196617 p nameTag;#P message 319 383 41 196617 dispose;#P user jit.fpsgui -59 540 60 1441802 3;#P newex 215 62 62 196617 prepend dim;#P user ubumenu 192 42 56 196617 0 1 1 0;#X add 320 240;#X add 160 120;#X add 80 60;#X prefix_set 0 0 <none> 0;#P user jit.fpsgui 53 186 60 1441802 3;#P comment 219 301 93 133693454 3. play;#P comment -131 303 68 133693454 2. Record;#P comment -106 33 68 133693454 1. Capture;#B frgb 9 9 9;#P user jit.pwindow 262 434 82 62 0 1 0 0 1 0;#P newex -140 349 50 196617 r capmov;#B color 12;#P newex -23 219 50 196617 s capmov;#B color 12;#P newex -59 360 40 196617 sel 1 0;#P toggle -59 317 34 0;#P user jit.pwindow -60 469 82 62 0 1 0 0 1 0;#P newex 110 361 45 196617 loadbang;#P user jit.pwindow -24 117 82 62 0 1 0 0 1 0;#P message 281 383 32 1441802 read;#P toggle 263 337 15 0;#P newex 263 359 44 196617 metro 1;#P user jit.fpsgui 283 505 60 1441802 0;#P newex 263 411 61 196617 jit.qt.movie;#P toggle 110 384 15 0;#P message 110 406 61 196617 realtime \$1;#P newex 64 464 38 1441802 print;#P message 3 398 32 1441802 stop;#P newex -59 440 133 1441802 jit.qt.record 320 240;#B color 5;#P newex 242 168 50 1441802 t clear;#P user jit.fpsgui -8 186 60 1441802 0;#P message 147 214 68 1441802 vdevice \$1;#P user ubumenu 147 193 145 1441802 0 1 1 0;#X add ÔQuickCam Pro 3000Õ;#X prefix_set 0 0 <none> 0;#P newex 147 168 92 1441802 prepend append;#P newex 147 145 32 1441802 iter;#P message 105 61 73 1441802 getvdevlist;#P newex 89 114 92 1441802 route vdevlist;#P toggle -23 41 15 0;#P newex -23 61 50 1441802 metro 2;#P message 65 61 38 1441802 close;#P message 30 61 32 1441802 open;#P newex -23 88 122 1441802 jit.qt.grab 320 240;#B color 5;#P user panel -117 26 435 242;#X brgb 249 251 177;#X frgb 0 0 0;#X border 0;#X rounded 0;#X shadow 0;#X done;#P user panel 209 294 231 279;#X brgb 194 176 253;#X frgb 0 0 0;#X border 0;#X rounded 0;#X shadow 0;#X done;#P user panel -164 296 347 310;#X brgb 255 207 230;#X frgb 0 0 0;#X border 0;#X rounded 0;#X shadow 0;#X done;#P connect 49 0 47 0;#P connect 32 0 47 1;#P connect 48 0 47 2;#P connect 29 0 30 0;#P connect 30 0 42 0;#P connect 42 0 16 0;#P fasten 47 0 16 0 -150 431 -54 431;#P fasten 46 0 16 0 46 431 -54 431;#P fasten 19 0 16 0 115 431 -54 431;#P fasten 17 0 16 0 8 431 -54 431;#P connect 16 0 28 0;#P connect 28 0 40 0;#P connect 7 0 6 0;#P connect 6 0 3 0;#P fasten 5 0 3 0 70 84 -18 84;#P fasten 4 0 3 0 35 84 -18 84;#P fasten 9 0 3 0 110 84 -18 84;#P fasten 13 0 3 0 152 251 -39 251 -39 84 -18 84;#P fasten 39 0 3 0 220 84 -18 84;#P connect 3 0 26 0;#P connect 26 0 31 0;#P connect 52 0 51 0;#P connect 51 0 42 1;#P connect 26 0 14 0;#P hidden connect 44 0 43 0;#P fasten 30 1 17 0 -39 387 8 387;#P connect 45 1 46 0;#P connect 26 0 37 0;#P hidden connect 42 0 44 0;#P connect 16 1 18 0;#P connect 3 1 8 0;#P connect 27 0 20 0;#P connect 20 0 19 0;#P fasten 8 0 10 0 94 138 152 138;#P connect 10 0 11 0;#P fasten 15 0 12 0 247 189 152 189;#P connect 11 0 12 0;#P connect 12 0 13 0;#P connect 38 1 39 0;#P fasten 8 0 15 0 94 138 247 138;#P connect 24 0 23 0;#P connect 23 0 21 0;#P fasten 25 0 21 0 286 405 268 405;#P fasten 41 0 21 0 324 405 268 405;#P fasten 54 0 21 0 374 405 268 405;#P connect 21 0 33 0;#P connect 33 0 50 0;#P connect 33 0 22 0;#P connect 53 1 54 0;#P pop;