{
	"patcher" : 	{
		"fileversion" : 1,
		"appversion" : 		{
			"major" : 6,
			"minor" : 1,
			"revision" : 7,
			"architecture" : "x86"
		}
,
		"rect" : [ 0.0, 100.0, 1280.0, 706.0 ],
		"bglocked" : 0,
		"openinpresentation" : 0,
		"default_fontsize" : 10.0,
		"default_fontface" : 0,
		"default_fontname" : "Verdana",
		"gridonopen" : 0,
		"gridsize" : [ 15.0, 15.0 ],
		"gridsnaponopen" : 0,
		"statusbarvisible" : 2,
		"toolbarvisible" : 1,
		"boxanimatetime" : 200,
		"imprint" : 0,
		"enablehscroll" : 1,
		"enablevscroll" : 1,
		"devicewidth" : 0.0,
		"description" : "",
		"digest" : "",
		"tags" : "",
		"boxes" : [ 			{
				"box" : 				{
					"fontname" : "Verdana",
					"fontsize" : 10.0,
					"frgb" : 0.0,
					"id" : "obj-42",
					"linecount" : 2,
					"maxclass" : "comment",
					"numinlets" : 1,
					"numoutlets" : 0,
					"patching_rect" : [ 420.0, 435.0, 150.0, 31.0 ],
					"presentation" : 1,
					"presentation_linecount" : 2,
					"presentation_rect" : [ 345.0, 375.0, 150.0, 31.0 ],
					"text" : "turn off presentation mode to see connections"
				}

			}
, 			{
				"box" : 				{
					"fontname" : "Verdana",
					"fontsize" : 10.0,
					"frgb" : 0.0,
					"id" : "obj-33",
					"linecount" : 3,
					"maxclass" : "comment",
					"numinlets" : 1,
					"numoutlets" : 0,
					"patching_rect" : [ 870.0, 90.0, 240.0, 43.0 ],
					"presentation" : 1,
					"presentation_linecount" : 3,
					"presentation_rect" : [ 600.0, 75.0, 240.0, 43.0 ],
					"text" : "Messages of the format \"server [int]\" can be used to \"change channels\" between servers. Server \"channel numbers\" ascend from 0."
				}

			}
, 			{
				"box" : 				{
					"fontname" : "Verdana",
					"fontsize" : 10.0,
					"id" : "obj-29",
					"maxclass" : "message",
					"numinlets" : 2,
					"numoutlets" : 1,
					"outlettype" : [ "" ],
					"patching_rect" : [ 615.0, 120.0, 59.0, 17.0 ],
					"presentation" : 1,
					"presentation_rect" : [ 525.0, 105.0, 59.0, 17.0 ],
					"text" : "server $1"
				}

			}
, 			{
				"box" : 				{
					"fontname" : "Verdana",
					"fontsize" : 10.0,
					"id" : "obj-27",
					"maxclass" : "number",
					"numinlets" : 1,
					"numoutlets" : 2,
					"outlettype" : [ "int", "bang" ],
					"parameter_enable" : 0,
					"patching_rect" : [ 615.0, 90.0, 50.0, 19.0 ],
					"presentation" : 1,
					"presentation_rect" : [ 525.0, 75.0, 50.0, 19.0 ]
				}

			}
, 			{
				"box" : 				{
					"fontname" : "Verdana",
					"fontsize" : 10.0,
					"frgb" : 0.0,
					"id" : "obj-20",
					"linecount" : 5,
					"maxclass" : "comment",
					"numinlets" : 1,
					"numoutlets" : 0,
					"patching_rect" : [ 930.0, 195.0, 255.0, 67.0 ],
					"presentation" : 1,
					"presentation_linecount" : 5,
					"presentation_rect" : [ 840.0, 165.0, 255.0, 67.0 ],
					"text" : "The server [umenu] is dynamically auto-populated with available Syphon servers. The [umenu] displays active servers via an OSC tag, of the format /[application name]/[server name]."
				}

			}
, 			{
				"box" : 				{
					"fontname" : "Verdana",
					"fontsize" : 10.0,
					"frgb" : 0.0,
					"id" : "obj-18",
					"linecount" : 9,
					"maxclass" : "comment",
					"numinlets" : 1,
					"numoutlets" : 0,
					"patching_rect" : [ 435.0, 135.0, 179.0, 116.0 ],
					"presentation" : 1,
					"presentation_linecount" : 9,
					"presentation_rect" : [ 330.0, 180.0, 179.0, 116.0 ],
					"text" : "When the matrixoutput toggle is on, the texture arriving at the client module is read back to a video stream on the CPU. This is computationally expensive, so keep it off unless absolutely necessary and downscale the matrix dimensions to improve performance."
				}

			}
, 			{
				"box" : 				{
					"fontname" : "Verdana",
					"fontsize" : 10.0,
					"frgb" : 0.0,
					"id" : "obj-15",
					"linecount" : 2,
					"maxclass" : "comment",
					"numinlets" : 1,
					"numoutlets" : 0,
					"patching_rect" : [ 420.0, 375.0, 150.0, 31.0 ],
					"presentation" : 1,
					"presentation_linecount" : 2,
					"presentation_rect" : [ 180.0, 285.0, 135.0, 31.0 ],
					"text" : "Type anything into the servername box."
				}

			}
, 			{
				"box" : 				{
					"fontname" : "Verdana",
					"fontsize" : 10.0,
					"hidden" : 1,
					"id" : "obj-13",
					"maxclass" : "message",
					"numinlets" : 2,
					"numoutlets" : 1,
					"outlettype" : [ "" ],
					"patching_rect" : [ 120.0, 300.0, 118.0, 17.0 ],
					"presentation_rect" : [ 56.0, 326.0, 0.0, 0.0 ],
					"text" : "destination context1"
				}

			}
, 			{
				"box" : 				{
					"fontname" : "Verdana",
					"fontsize" : 10.0,
					"hidden" : 1,
					"id" : "obj-7",
					"maxclass" : "message",
					"numinlets" : 2,
					"numoutlets" : 1,
					"outlettype" : [ "" ],
					"patching_rect" : [ 120.0, 510.0, 118.0, 17.0 ],
					"presentation_rect" : [ 4.0, 364.0, 0.0, 0.0 ],
					"text" : "destination context1"
				}

			}
, 			{
				"box" : 				{
					"fontname" : "Verdana",
					"fontsize" : 10.0,
					"hidden" : 1,
					"id" : "obj-4",
					"maxclass" : "newobj",
					"numinlets" : 2,
					"numoutlets" : 1,
					"outlettype" : [ "bang" ],
					"patching_rect" : [ 15.0, 180.0, 66.0, 19.0 ],
					"text" : "delay 2000"
				}

			}
, 			{
				"box" : 				{
					"fontname" : "Verdana",
					"fontsize" : 10.0,
					"hidden" : 1,
					"id" : "obj-6",
					"maxclass" : "newobj",
					"numinlets" : 1,
					"numoutlets" : 1,
					"outlettype" : [ "bang" ],
					"patching_rect" : [ 15.0, 150.0, 24.0, 19.0 ],
					"text" : "t b"
				}

			}
, 			{
				"box" : 				{
					"fontname" : "Verdana",
					"fontsize" : 10.0,
					"hidden" : 1,
					"id" : "obj-51",
					"maxclass" : "message",
					"numinlets" : 2,
					"numoutlets" : 1,
					"outlettype" : [ "" ],
					"patching_rect" : [ 705.0, 120.0, 118.0, 17.0 ],
					"text" : "destination context1"
				}

			}
, 			{
				"box" : 				{
					"fontname" : "Verdana",
					"fontsize" : 10.0,
					"hidden" : 1,
					"id" : "obj-48",
					"maxclass" : "message",
					"numinlets" : 2,
					"numoutlets" : 1,
					"outlettype" : [ "" ],
					"patching_rect" : [ 120.0, 540.0, 128.0, 17.0 ],
					"text" : "/servername \"server b\""
				}

			}
, 			{
				"box" : 				{
					"args" : [ "input%" ],
					"id" : "obj-46",
					"maxclass" : "bpatcher",
					"name" : "jmod.input%.maxpat",
					"numinlets" : 2,
					"numoutlets" : 2,
					"outlettype" : [ "", "" ],
					"patching_rect" : [ 105.0, 420.0, 300.0, 70.0 ],
					"presentation" : 1,
					"presentation_rect" : [ 15.0, 405.0, 300.0, 70.0 ]
				}

			}
, 			{
				"box" : 				{
					"args" : [ "syphonserver%" ],
					"id" : "obj-47",
					"maxclass" : "bpatcher",
					"name" : "jmod.syphonserver%.maxpat",
					"numinlets" : 2,
					"numoutlets" : 1,
					"outlettype" : [ "" ],
					"patching_rect" : [ 105.0, 570.0, 300.0, 70.0 ],
					"presentation" : 1,
					"presentation_rect" : [ 15.0, 480.0, 300.0, 70.0 ]
				}

			}
, 			{
				"box" : 				{
					"color" : [ 0.839216, 0.105454, 0.0, 1.0 ],
					"fontname" : "Verdana",
					"fontsize" : 10.0,
					"id" : "obj-45",
					"maxclass" : "newobj",
					"numinlets" : 0,
					"numoutlets" : 0,
					"patcher" : 					{
						"fileversion" : 1,
						"appversion" : 						{
							"major" : 6,
							"minor" : 1,
							"revision" : 7,
							"architecture" : "x86"
						}
,
						"rect" : [ 50.0, 94.0, 391.0, 283.0 ],
						"bglocked" : 0,
						"openinpresentation" : 0,
						"default_fontsize" : 12.0,
						"default_fontface" : 0,
						"default_fontname" : "Arial",
						"gridonopen" : 0,
						"gridsize" : [ 15.0, 15.0 ],
						"gridsnaponopen" : 0,
						"statusbarvisible" : 2,
						"toolbarvisible" : 1,
						"boxanimatetime" : 200,
						"imprint" : 0,
						"enablehscroll" : 1,
						"enablevscroll" : 1,
						"devicewidth" : 0.0,
						"description" : "",
						"digest" : "",
						"tags" : "",
						"boxes" : [ 							{
								"box" : 								{
									"fontname" : "Verdana",
									"fontsize" : 10.0,
									"id" : "obj-25",
									"maxclass" : "newobj",
									"numinlets" : 1,
									"numoutlets" : 2,
									"outlettype" : [ "bang", "erase" ],
									"patching_rect" : [ 195.0, 75.0, 55.0, 19.0 ],
									"text" : "t b erase"
								}

							}
, 							{
								"box" : 								{
									"fontname" : "Verdana",
									"fontsize" : 10.0,
									"id" : "obj-26",
									"maxclass" : "newobj",
									"numinlets" : 2,
									"numoutlets" : 1,
									"outlettype" : [ "bang" ],
									"patching_rect" : [ 195.0, 45.0, 116.0, 19.0 ],
									"text" : "qmetro 16 @active 1"
								}

							}
, 							{
								"box" : 								{
									"fontname" : "Verdana",
									"fontsize" : 10.0,
									"id" : "obj-27",
									"linecount" : 2,
									"maxclass" : "newobj",
									"numinlets" : 1,
									"numoutlets" : 2,
									"outlettype" : [ "bang", "" ],
									"patching_rect" : [ 195.0, 105.0, 135.0, 31.0 ],
									"text" : "jit.gl.render context2 @erase_color 0. 0. 0. 1."
								}

							}
, 							{
								"box" : 								{
									"id" : "obj-28",
									"maxclass" : "toggle",
									"numinlets" : 1,
									"numoutlets" : 1,
									"outlettype" : [ "int" ],
									"parameter_enable" : 0,
									"patching_rect" : [ 195.0, 15.0, 20.0, 20.0 ]
								}

							}
, 							{
								"box" : 								{
									"fontname" : "Arial",
									"fontsize" : 13.0,
									"id" : "obj-29",
									"maxclass" : "message",
									"numinlets" : 2,
									"numoutlets" : 1,
									"outlettype" : [ "" ],
									"patching_rect" : [ 195.0, 180.0, 87.0, 19.0 ],
									"text" : "fullscreen $1"
								}

							}
, 							{
								"box" : 								{
									"id" : "obj-30",
									"maxclass" : "toggle",
									"numinlets" : 1,
									"numoutlets" : 1,
									"outlettype" : [ "int" ],
									"parameter_enable" : 0,
									"patching_rect" : [ 195.0, 150.0, 20.0, 20.0 ]
								}

							}
, 							{
								"box" : 								{
									"fontname" : "Verdana",
									"fontsize" : 10.0,
									"id" : "obj-32",
									"maxclass" : "message",
									"numinlets" : 2,
									"numoutlets" : 1,
									"outlettype" : [ "" ],
									"patching_rect" : [ 300.0, 180.0, 64.0, 17.0 ],
									"text" : "floating $1"
								}

							}
, 							{
								"box" : 								{
									"id" : "obj-33",
									"maxclass" : "toggle",
									"numinlets" : 1,
									"numoutlets" : 1,
									"outlettype" : [ "int" ],
									"parameter_enable" : 0,
									"patching_rect" : [ 300.0, 150.0, 20.0, 20.0 ]
								}

							}
, 							{
								"box" : 								{
									"fontname" : "Verdana",
									"fontsize" : 10.0,
									"id" : "obj-34",
									"linecount" : 3,
									"maxclass" : "newobj",
									"numinlets" : 1,
									"numoutlets" : 2,
									"outlettype" : [ "bang", "" ],
									"patching_rect" : [ 195.0, 225.0, 165.0, 43.0 ],
									"text" : "jit.window context2 @floating 1 @fsmenubar 0 @size 160 120 @pos 1760 10"
								}

							}
, 							{
								"box" : 								{
									"fontname" : "Verdana",
									"fontsize" : 10.0,
									"id" : "obj-9",
									"maxclass" : "newobj",
									"numinlets" : 1,
									"numoutlets" : 2,
									"outlettype" : [ "bang", "erase" ],
									"patching_rect" : [ 15.0, 75.0, 55.0, 19.0 ],
									"text" : "t b erase"
								}

							}
, 							{
								"box" : 								{
									"fontname" : "Verdana",
									"fontsize" : 10.0,
									"id" : "obj-7",
									"maxclass" : "newobj",
									"numinlets" : 2,
									"numoutlets" : 1,
									"outlettype" : [ "bang" ],
									"patching_rect" : [ 15.0, 45.0, 116.0, 19.0 ],
									"text" : "qmetro 16 @active 1"
								}

							}
, 							{
								"box" : 								{
									"fontname" : "Verdana",
									"fontsize" : 10.0,
									"id" : "obj-6",
									"linecount" : 2,
									"maxclass" : "newobj",
									"numinlets" : 1,
									"numoutlets" : 2,
									"outlettype" : [ "bang", "" ],
									"patching_rect" : [ 15.0, 105.0, 135.0, 31.0 ],
									"text" : "jit.gl.render context1 @erase_color 0. 0. 0. 1."
								}

							}
, 							{
								"box" : 								{
									"id" : "obj-5",
									"maxclass" : "toggle",
									"numinlets" : 1,
									"numoutlets" : 1,
									"outlettype" : [ "int" ],
									"parameter_enable" : 0,
									"patching_rect" : [ 15.0, 15.0, 20.0, 20.0 ]
								}

							}
, 							{
								"box" : 								{
									"fontname" : "Arial",
									"fontsize" : 13.0,
									"id" : "obj-18",
									"maxclass" : "message",
									"numinlets" : 2,
									"numoutlets" : 1,
									"outlettype" : [ "" ],
									"patching_rect" : [ 15.0, 180.0, 87.0, 19.0 ],
									"text" : "fullscreen $1"
								}

							}
, 							{
								"box" : 								{
									"id" : "obj-19",
									"maxclass" : "toggle",
									"numinlets" : 1,
									"numoutlets" : 1,
									"outlettype" : [ "int" ],
									"parameter_enable" : 0,
									"patching_rect" : [ 15.0, 150.0, 20.0, 20.0 ]
								}

							}
, 							{
								"box" : 								{
									"fontname" : "Verdana",
									"fontsize" : 10.0,
									"id" : "obj-17",
									"maxclass" : "message",
									"numinlets" : 2,
									"numoutlets" : 1,
									"outlettype" : [ "" ],
									"patching_rect" : [ 120.0, 180.0, 64.0, 17.0 ],
									"text" : "floating $1"
								}

							}
, 							{
								"box" : 								{
									"id" : "obj-15",
									"maxclass" : "toggle",
									"numinlets" : 1,
									"numoutlets" : 1,
									"outlettype" : [ "int" ],
									"parameter_enable" : 0,
									"patching_rect" : [ 120.0, 150.0, 20.0, 20.0 ]
								}

							}
, 							{
								"box" : 								{
									"fontname" : "Verdana",
									"fontsize" : 10.0,
									"id" : "obj-13",
									"linecount" : 3,
									"maxclass" : "newobj",
									"numinlets" : 1,
									"numoutlets" : 2,
									"outlettype" : [ "bang", "" ],
									"patching_rect" : [ 15.0, 225.0, 162.0, 43.0 ],
									"text" : "jit.window context1 @floating 1 @fsmenubar 0 @size 160 120 @pos 960 10"
								}

							}
 ],
						"lines" : [ 							{
								"patchline" : 								{
									"destination" : [ "obj-17", 0 ],
									"disabled" : 0,
									"hidden" : 0,
									"source" : [ "obj-15", 0 ]
								}

							}
, 							{
								"patchline" : 								{
									"destination" : [ "obj-13", 0 ],
									"disabled" : 0,
									"hidden" : 0,
									"midpoints" : [ 129.5, 210.5, 24.5, 210.5 ],
									"source" : [ "obj-17", 0 ]
								}

							}
, 							{
								"patchline" : 								{
									"destination" : [ "obj-13", 0 ],
									"disabled" : 0,
									"hidden" : 0,
									"source" : [ "obj-18", 0 ]
								}

							}
, 							{
								"patchline" : 								{
									"destination" : [ "obj-18", 0 ],
									"disabled" : 0,
									"hidden" : 0,
									"source" : [ "obj-19", 0 ]
								}

							}
, 							{
								"patchline" : 								{
									"destination" : [ "obj-27", 0 ],
									"disabled" : 0,
									"hidden" : 0,
									"source" : [ "obj-25", 1 ]
								}

							}
, 							{
								"patchline" : 								{
									"destination" : [ "obj-27", 0 ],
									"disabled" : 0,
									"hidden" : 0,
									"source" : [ "obj-25", 0 ]
								}

							}
, 							{
								"patchline" : 								{
									"destination" : [ "obj-25", 0 ],
									"disabled" : 0,
									"hidden" : 0,
									"source" : [ "obj-26", 0 ]
								}

							}
, 							{
								"patchline" : 								{
									"destination" : [ "obj-26", 0 ],
									"disabled" : 0,
									"hidden" : 0,
									"source" : [ "obj-28", 0 ]
								}

							}
, 							{
								"patchline" : 								{
									"destination" : [ "obj-34", 0 ],
									"disabled" : 0,
									"hidden" : 0,
									"source" : [ "obj-29", 0 ]
								}

							}
, 							{
								"patchline" : 								{
									"destination" : [ "obj-29", 0 ],
									"disabled" : 0,
									"hidden" : 0,
									"source" : [ "obj-30", 0 ]
								}

							}
, 							{
								"patchline" : 								{
									"destination" : [ "obj-34", 0 ],
									"disabled" : 0,
									"hidden" : 0,
									"midpoints" : [ 309.5, 210.0, 204.5, 210.0 ],
									"source" : [ "obj-32", 0 ]
								}

							}
, 							{
								"patchline" : 								{
									"destination" : [ "obj-32", 0 ],
									"disabled" : 0,
									"hidden" : 0,
									"source" : [ "obj-33", 0 ]
								}

							}
, 							{
								"patchline" : 								{
									"destination" : [ "obj-7", 0 ],
									"disabled" : 0,
									"hidden" : 0,
									"source" : [ "obj-5", 0 ]
								}

							}
, 							{
								"patchline" : 								{
									"destination" : [ "obj-9", 0 ],
									"disabled" : 0,
									"hidden" : 0,
									"source" : [ "obj-7", 0 ]
								}

							}
, 							{
								"patchline" : 								{
									"destination" : [ "obj-6", 0 ],
									"disabled" : 0,
									"hidden" : 0,
									"source" : [ "obj-9", 1 ]
								}

							}
, 							{
								"patchline" : 								{
									"destination" : [ "obj-6", 0 ],
									"disabled" : 0,
									"hidden" : 0,
									"source" : [ "obj-9", 0 ]
								}

							}
 ]
					}
,
					"patching_rect" : [ 615.0, 570.0, 69.0, 19.0 ],
					"presentation" : 1,
					"presentation_rect" : [ 915.0, 495.0, 69.0, 19.0 ],
					"saved_object_attributes" : 					{
						"default_fontface" : 0,
						"default_fontname" : "Arial",
						"default_fontsize" : 12.0,
						"description" : "",
						"digest" : "",
						"fontface" : 0,
						"fontname" : "Arial",
						"fontsize" : 12.0,
						"globalpatchername" : "",
						"tags" : ""
					}
,
					"text" : "p rendering"
				}

			}
, 			{
				"box" : 				{
					"fontname" : "Verdana",
					"fontsize" : 10.0,
					"hidden" : 1,
					"id" : "obj-41",
					"maxclass" : "newobj",
					"numinlets" : 2,
					"numoutlets" : 1,
					"outlettype" : [ "bang" ],
					"patching_rect" : [ 15.0, 225.0, 66.0, 19.0 ],
					"text" : "delay 500"
				}

			}
, 			{
				"box" : 				{
					"fontname" : "Verdana",
					"fontsize" : 10.0,
					"hidden" : 1,
					"id" : "obj-40",
					"maxclass" : "newobj",
					"numinlets" : 1,
					"numoutlets" : 1,
					"outlettype" : [ "bang" ],
					"patching_rect" : [ 15.0, 120.0, 56.0, 19.0 ],
					"text" : "loadbang"
				}

			}
, 			{
				"box" : 				{
					"fontname" : "Verdana",
					"fontsize" : 10.0,
					"hidden" : 1,
					"id" : "obj-39",
					"maxclass" : "message",
					"numinlets" : 2,
					"numoutlets" : 1,
					"outlettype" : [ "" ],
					"patching_rect" : [ 615.0, 345.0, 118.0, 17.0 ],
					"text" : "destination context2"
				}

			}
, 			{
				"box" : 				{
					"fontname" : "Verdana",
					"fontsize" : 10.0,
					"hidden" : 1,
					"id" : "obj-23",
					"maxclass" : "message",
					"numinlets" : 2,
					"numoutlets" : 1,
					"outlettype" : [ "" ],
					"patching_rect" : [ 120.0, 270.0, 129.0, 17.0 ],
					"text" : "/servername \"server A\""
				}

			}
, 			{
				"box" : 				{
					"fontname" : "Verdana",
					"fontsize" : 10.0,
					"frgb" : 0.0,
					"id" : "obj-8",
					"linecount" : 4,
					"maxclass" : "comment",
					"numinlets" : 1,
					"numoutlets" : 0,
					"patching_rect" : [ 930.0, 375.0, 150.0, 55.0 ],
					"presentation" : 1,
					"presentation_linecount" : 4,
					"presentation_rect" : [ 840.0, 375.0, 150.0, 55.0 ],
					"text" : "Syphon can be used to send textures between different GL drawing contexts."
				}

			}
, 			{
				"box" : 				{
					"fontname" : "Verdana",
					"fontsize" : 10.0,
					"id" : "obj-35",
					"linecount" : 2,
					"maxclass" : "newobj",
					"numinlets" : 1,
					"numoutlets" : 2,
					"outlettype" : [ "jit_matrix", "" ],
					"patching_rect" : [ 795.0, 495.0, 150.0, 31.0 ],
					"presentation" : 1,
					"presentation_linecount" : 2,
					"presentation_rect" : [ 705.0, 495.0, 150.0, 31.0 ],
					"text" : "jit.gl.videoplane context2 @transform_reset 2"
				}

			}
, 			{
				"box" : 				{
					"fontname" : "Verdana",
					"fontsize" : 10.0,
					"id" : "obj-36",
					"maxclass" : "jit.fpsgui",
					"numinlets" : 1,
					"numoutlets" : 2,
					"outlettype" : [ "", "" ],
					"patching_rect" : [ 615.0, 495.0, 80.0, 35.0 ],
					"presentation" : 1,
					"presentation_rect" : [ 525.0, 495.0, 80.0, 35.0 ]
				}

			}
, 			{
				"box" : 				{
					"id" : "obj-37",
					"maxclass" : "jit.pwindow",
					"numinlets" : 1,
					"numoutlets" : 2,
					"outlettype" : [ "", "" ],
					"patching_rect" : [ 705.0, 495.0, 80.0, 60.0 ],
					"presentation" : 1,
					"presentation_rect" : [ 615.0, 495.0, 80.0, 60.0 ]
				}

			}
, 			{
				"box" : 				{
					"args" : [ "syphonclient%" ],
					"id" : "obj-38",
					"maxclass" : "bpatcher",
					"name" : "jmod.syphonclient%.maxpat",
					"numinlets" : 1,
					"numoutlets" : 3,
					"outlettype" : [ "", "", "" ],
					"patching_rect" : [ 615.0, 375.0, 300.0, 105.0 ],
					"presentation" : 1,
					"presentation_rect" : [ 525.0, 375.0, 300.0, 105.0 ]
				}

			}
, 			{
				"box" : 				{
					"fontname" : "Verdana",
					"fontsize" : 10.0,
					"frgb" : 0.0,
					"id" : "obj-24",
					"linecount" : 4,
					"maxclass" : "comment",
					"numinlets" : 1,
					"numoutlets" : 0,
					"patching_rect" : [ 420.0, 300.0, 155.0, 55.0 ],
					"presentation" : 1,
					"presentation_linecount" : 4,
					"presentation_rect" : [ 15.0, 285.0, 155.0, 55.0 ],
					"text" : "Ensure that the server's render destination corresponds to the name of an active drawing context."
				}

			}
, 			{
				"box" : 				{
					"fontname" : "Verdana",
					"fontsize" : 10.0,
					"id" : "obj-16",
					"linecount" : 2,
					"maxclass" : "newobj",
					"numinlets" : 1,
					"numoutlets" : 2,
					"outlettype" : [ "jit_matrix", "" ],
					"patching_rect" : [ 795.0, 270.0, 150.0, 31.0 ],
					"presentation" : 1,
					"presentation_linecount" : 2,
					"presentation_rect" : [ 705.0, 255.0, 150.0, 31.0 ],
					"text" : "jit.gl.videoplane context1 @transform_reset 2"
				}

			}
, 			{
				"box" : 				{
					"fontname" : "Verdana",
					"fontsize" : 10.0,
					"id" : "obj-12",
					"maxclass" : "jit.fpsgui",
					"numinlets" : 1,
					"numoutlets" : 2,
					"outlettype" : [ "", "" ],
					"patching_rect" : [ 615.0, 270.0, 80.0, 35.0 ],
					"presentation" : 1,
					"presentation_rect" : [ 525.0, 255.0, 80.0, 35.0 ]
				}

			}
, 			{
				"box" : 				{
					"id" : "obj-11",
					"maxclass" : "jit.pwindow",
					"numinlets" : 1,
					"numoutlets" : 2,
					"outlettype" : [ "", "" ],
					"patching_rect" : [ 705.0, 270.0, 80.0, 60.0 ],
					"presentation" : 1,
					"presentation_rect" : [ 615.0, 255.0, 80.0, 60.0 ]
				}

			}
, 			{
				"box" : 				{
					"args" : [ "input%" ],
					"id" : "obj-10",
					"maxclass" : "bpatcher",
					"name" : "jmod.input%.maxpat",
					"numinlets" : 2,
					"numoutlets" : 2,
					"outlettype" : [ "", "" ],
					"patching_rect" : [ 105.0, 150.0, 300.0, 70.0 ],
					"presentation" : 1,
					"presentation_rect" : [ 15.0, 135.0, 300.0, 70.0 ]
				}

			}
, 			{
				"box" : 				{
					"args" : [ "syphonserver%" ],
					"id" : "obj-3",
					"maxclass" : "bpatcher",
					"name" : "jmod.syphonserver%.maxpat",
					"numinlets" : 2,
					"numoutlets" : 1,
					"outlettype" : [ "" ],
					"patching_rect" : [ 105.0, 330.0, 300.0, 70.0 ],
					"presentation" : 1,
					"presentation_rect" : [ 15.0, 210.0, 300.0, 70.0 ]
				}

			}
, 			{
				"box" : 				{
					"args" : [ "syphonclient%" ],
					"id" : "obj-1",
					"maxclass" : "bpatcher",
					"name" : "jmod.syphonclient%.maxpat",
					"numinlets" : 1,
					"numoutlets" : 3,
					"outlettype" : [ "", "", "" ],
					"patching_rect" : [ 615.0, 150.0, 300.0, 105.0 ],
					"presentation" : 1,
					"presentation_rect" : [ 525.0, 135.0, 300.0, 105.0 ]
				}

			}
, 			{
				"box" : 				{
					"fontname" : "Verdana",
					"fontsize" : 10.0,
					"frgb" : 0.0,
					"id" : "obj-2",
					"linecount" : 3,
					"maxclass" : "comment",
					"numinlets" : 1,
					"numoutlets" : 0,
					"patching_rect" : [ 15.0, 75.0, 300.0, 43.0 ],
					"presentation" : 1,
					"presentation_linecount" : 3,
					"presentation_rect" : [ 15.0, 75.0, 300.0, 43.0 ],
					"text" : "This module is a wrapper for jit.gl.syphonclient. The module can be used to receive video sent over the GPU as textures via the Sypon framework."
				}

			}
, 			{
				"box" : 				{
					"args" : [ "@name", "jmod.syphonclient%", "@description", "Client for receiving textures via Syphon." ],
					"bgmode" : 1,
					"id" : "obj-21",
					"maxclass" : "bpatcher",
					"name" : "jcom.maxhelpui.maxpat",
					"numinlets" : 1,
					"numoutlets" : 0,
					"patching_rect" : [ 0.0, 0.0, 1280.0, 70.0 ],
					"presentation" : 1,
					"presentation_rect" : [ 0.0, 0.0, 1280.0, 70.0 ]
				}

			}
 ],
		"lines" : [ 			{
				"patchline" : 				{
					"destination" : [ "obj-11", 0 ],
					"disabled" : 0,
					"hidden" : 0,
					"midpoints" : [ 765.0, 262.0, 714.5, 262.0 ],
					"source" : [ "obj-1", 1 ]
				}

			}
, 			{
				"patchline" : 				{
					"destination" : [ "obj-12", 0 ],
					"disabled" : 0,
					"hidden" : 0,
					"midpoints" : [ 765.0, 262.0, 624.5, 262.0 ],
					"source" : [ "obj-1", 1 ]
				}

			}
, 			{
				"patchline" : 				{
					"destination" : [ "obj-16", 0 ],
					"disabled" : 0,
					"hidden" : 0,
					"midpoints" : [ 905.5, 262.0, 804.5, 262.0 ],
					"source" : [ "obj-1", 2 ]
				}

			}
, 			{
				"patchline" : 				{
					"destination" : [ "obj-3", 1 ],
					"disabled" : 0,
					"hidden" : 0,
					"source" : [ "obj-10", 1 ]
				}

			}
, 			{
				"patchline" : 				{
					"destination" : [ "obj-3", 0 ],
					"disabled" : 0,
					"hidden" : 1,
					"midpoints" : [ 129.5, 318.0, 114.5, 318.0 ],
					"source" : [ "obj-13", 0 ]
				}

			}
, 			{
				"patchline" : 				{
					"destination" : [ "obj-3", 0 ],
					"disabled" : 0,
					"hidden" : 1,
					"midpoints" : [ 129.5, 288.0, 114.5, 288.0 ],
					"source" : [ "obj-23", 0 ]
				}

			}
, 			{
				"patchline" : 				{
					"destination" : [ "obj-29", 0 ],
					"disabled" : 0,
					"hidden" : 0,
					"source" : [ "obj-27", 0 ]
				}

			}
, 			{
				"patchline" : 				{
					"destination" : [ "obj-1", 0 ],
					"disabled" : 0,
					"hidden" : 0,
					"source" : [ "obj-29", 0 ]
				}

			}
, 			{
				"patchline" : 				{
					"destination" : [ "obj-35", 0 ],
					"disabled" : 0,
					"hidden" : 0,
					"midpoints" : [ 905.5, 487.0, 804.5, 487.0 ],
					"source" : [ "obj-38", 2 ]
				}

			}
, 			{
				"patchline" : 				{
					"destination" : [ "obj-36", 0 ],
					"disabled" : 0,
					"hidden" : 0,
					"midpoints" : [ 765.0, 487.0, 624.5, 487.0 ],
					"source" : [ "obj-38", 1 ]
				}

			}
, 			{
				"patchline" : 				{
					"destination" : [ "obj-37", 0 ],
					"disabled" : 0,
					"hidden" : 0,
					"midpoints" : [ 765.0, 487.0, 714.5, 487.0 ],
					"source" : [ "obj-38", 1 ]
				}

			}
, 			{
				"patchline" : 				{
					"destination" : [ "obj-38", 0 ],
					"disabled" : 0,
					"hidden" : 1,
					"midpoints" : [ 624.5, 363.0, 624.5, 363.0 ],
					"source" : [ "obj-39", 0 ]
				}

			}
, 			{
				"patchline" : 				{
					"destination" : [ "obj-13", 0 ],
					"disabled" : 0,
					"hidden" : 1,
					"midpoints" : [ 24.5, 210.0, 90.0, 210.0, 90.0, 297.0, 129.5, 297.0 ],
					"source" : [ "obj-4", 0 ]
				}

			}
, 			{
				"patchline" : 				{
					"destination" : [ "obj-39", 0 ],
					"disabled" : 0,
					"hidden" : 1,
					"midpoints" : [ 24.5, 210.0, 93.0, 210.0, 93.0, 255.0, 420.0, 255.0, 420.0, 285.0, 600.0, 285.0, 600.0, 330.0, 624.5, 330.0 ],
					"source" : [ "obj-4", 0 ]
				}

			}
, 			{
				"patchline" : 				{
					"destination" : [ "obj-41", 0 ],
					"disabled" : 0,
					"hidden" : 1,
					"midpoints" : [ 24.5, 201.0, 24.5, 201.0 ],
					"source" : [ "obj-4", 0 ]
				}

			}
, 			{
				"patchline" : 				{
					"destination" : [ "obj-51", 0 ],
					"disabled" : 0,
					"hidden" : 1,
					"midpoints" : [ 24.5, 210.0, 90.0, 210.0, 90.0, 129.0, 420.0, 129.0, 420.0, 76.0, 714.5, 76.0 ],
					"source" : [ "obj-4", 0 ]
				}

			}
, 			{
				"patchline" : 				{
					"destination" : [ "obj-7", 0 ],
					"disabled" : 0,
					"hidden" : 1,
					"midpoints" : [ 24.5, 210.0, 90.0, 210.0, 90.0, 507.0, 129.5, 507.0 ],
					"source" : [ "obj-4", 0 ]
				}

			}
, 			{
				"patchline" : 				{
					"destination" : [ "obj-6", 0 ],
					"disabled" : 0,
					"hidden" : 1,
					"midpoints" : [ 24.5, 148.0 ],
					"source" : [ "obj-40", 0 ]
				}

			}
, 			{
				"patchline" : 				{
					"destination" : [ "obj-23", 0 ],
					"disabled" : 0,
					"hidden" : 1,
					"midpoints" : [ 24.5, 255.0, 129.5, 255.0 ],
					"source" : [ "obj-41", 0 ]
				}

			}
, 			{
				"patchline" : 				{
					"destination" : [ "obj-48", 0 ],
					"disabled" : 0,
					"hidden" : 1,
					"midpoints" : [ 24.5, 537.0, 129.5, 537.0 ],
					"source" : [ "obj-41", 0 ]
				}

			}
, 			{
				"patchline" : 				{
					"destination" : [ "obj-47", 1 ],
					"disabled" : 0,
					"hidden" : 0,
					"source" : [ "obj-46", 1 ]
				}

			}
, 			{
				"patchline" : 				{
					"destination" : [ "obj-47", 0 ],
					"disabled" : 0,
					"hidden" : 1,
					"midpoints" : [ 129.5, 558.0, 114.5, 558.0 ],
					"source" : [ "obj-48", 0 ]
				}

			}
, 			{
				"patchline" : 				{
					"destination" : [ "obj-1", 0 ],
					"disabled" : 0,
					"hidden" : 1,
					"source" : [ "obj-51", 0 ]
				}

			}
, 			{
				"patchline" : 				{
					"destination" : [ "obj-4", 0 ],
					"disabled" : 0,
					"hidden" : 1,
					"source" : [ "obj-6", 0 ]
				}

			}
, 			{
				"patchline" : 				{
					"destination" : [ "obj-47", 0 ],
					"disabled" : 0,
					"hidden" : 1,
					"midpoints" : [ 129.5, 528.0, 114.5, 528.0 ],
					"source" : [ "obj-7", 0 ]
				}

			}
 ],
		"dependency_cache" : [ 			{
				"name" : "jcom.maxhelpui.maxpat",
				"bootpath" : "/Applications/Max 6.1/Cycling '74/Jamoma/library/components/maxhelpui",
				"patcherrelativepath" : "../../../../../../../../Applications/Max 6.1/Cycling '74/Jamoma/library/components/maxhelpui",
				"type" : "JSON",
				"implicit" : 1
			}
, 			{
				"name" : "jcom.maxhelpuiButton.png",
				"bootpath" : "/Applications/Max 6.1/Cycling '74/Jamoma/library/components/maxhelpui",
				"patcherrelativepath" : "../../../../../../../../Applications/Max 6.1/Cycling '74/Jamoma/library/components/maxhelpui",
				"type" : "PNG ",
				"implicit" : 1
			}
, 			{
				"name" : "jcom.maxhelpuiResize.js",
				"bootpath" : "/Applications/Max 6.1/Cycling '74/Jamoma/library/components/maxhelpui",
				"patcherrelativepath" : "../../../../../../../../Applications/Max 6.1/Cycling '74/Jamoma/library/components/maxhelpui",
				"type" : "TEXT",
				"implicit" : 1
			}
, 			{
				"name" : "jcom.jamomaPath.maxpat",
				"bootpath" : "/Applications/Max 6.1/Cycling '74/Jamoma/library/components/jamomaPath",
				"patcherrelativepath" : "../../../../../../../../Applications/Max 6.1/Cycling '74/Jamoma/library/components/jamomaPath",
				"type" : "JSON",
				"implicit" : 1
			}
, 			{
				"name" : "jcom.thru.maxpat",
				"bootpath" : "/Applications/Max 6.1/Cycling '74/Jamoma/library/components/thru",
				"patcherrelativepath" : "../../../../../../../../Applications/Max 6.1/Cycling '74/Jamoma/library/components/thru",
				"type" : "JSON",
				"implicit" : 1
			}
, 			{
				"name" : "jmod.syphonclient%.maxpat",
				"bootpath" : "/Users/aa/Github/Synthesis/O4_ASU/O4.video/Dependancies/jmod.syphonclient%",
				"patcherrelativepath" : ".",
				"type" : "JSON",
				"implicit" : 1
			}
, 			{
				"name" : "jalg.syphonclient%.maxpat",
				"bootpath" : "/Users/aa/Github/Synthesis/O4_ASU/O4.video/Dependancies/jmod.syphonclient%",
				"patcherrelativepath" : ".",
				"type" : "JSON",
				"implicit" : 1
			}
, 			{
				"name" : "jcom.parameterCreate.maxpat",
				"bootpath" : "/Applications/Max 6.1/Cycling '74/Jamoma/library/components/parameterCreate",
				"patcherrelativepath" : "../../../../../../../../Applications/Max 6.1/Cycling '74/Jamoma/library/components/parameterCreate",
				"type" : "JSON",
				"implicit" : 1
			}
, 			{
				"name" : "jmod.syphonserver%.maxpat",
				"bootpath" : "/Users/aa/Github/Synthesis/O4_ASU/O4.video/Dependancies/jmod.syphonserver%",
				"patcherrelativepath" : "../jmod.syphonserver%",
				"type" : "JSON",
				"implicit" : 1
			}
, 			{
				"name" : "jalg.syphonserver%.maxpat",
				"bootpath" : "/Users/aa/Github/Synthesis/O4_ASU/O4.video/Dependancies/jmod.syphonserver%",
				"patcherrelativepath" : "../jmod.syphonserver%",
				"type" : "JSON",
				"implicit" : 1
			}
, 			{
				"name" : "jmod.input%.maxpat",
				"bootpath" : "/Applications/Max 6.1/Cycling '74/Jamoma/modules/video/input%",
				"patcherrelativepath" : "../../../../../../../../Applications/Max 6.1/Cycling '74/Jamoma/modules/video/input%",
				"type" : "JSON",
				"implicit" : 1
			}
, 			{
				"name" : "jalg.input%.maxpat",
				"bootpath" : "/Applications/Max 6.1/Cycling '74/Jamoma/modules/video/input%",
				"patcherrelativepath" : "../../../../../../../../Applications/Max 6.1/Cycling '74/Jamoma/modules/video/input%",
				"type" : "JSON",
				"implicit" : 1
			}
, 			{
				"name" : "jalg.input%.ui.maxpat",
				"bootpath" : "/Applications/Max 6.1/Cycling '74/Jamoma/modules/video/input%",
				"patcherrelativepath" : "../../../../../../../../Applications/Max 6.1/Cycling '74/Jamoma/modules/video/input%",
				"type" : "JSON",
				"implicit" : 1
			}
, 			{
				"name" : "jcom.route.mxo",
				"type" : "iLaX"
			}
, 			{
				"name" : "jcom.loader.mxo",
				"type" : "iLaX"
			}
, 			{
				"name" : "jcom.loader.mxo",
				"type" : "iLaX"
			}
, 			{
				"name" : "jcom.parameter.mxo",
				"type" : "iLaX"
			}
, 			{
				"name" : "jcom.ui.mxo",
				"type" : "iLaX"
			}
, 			{
				"name" : "jcom.oscroute.mxo",
				"type" : "iLaX"
			}
, 			{
				"name" : "jit.gl.syphonclient.mxo",
				"type" : "iLaX"
			}
, 			{
				"name" : "jcom.return.mxo",
				"type" : "iLaX"
			}
, 			{
				"name" : "jcom.init.mxo",
				"type" : "iLaX"
			}
, 			{
				"name" : "jcom.hub.mxo",
				"type" : "iLaX"
			}
, 			{
				"name" : "jcom.out.mxo",
				"type" : "iLaX"
			}
, 			{
				"name" : "jcom.in.mxo",
				"type" : "iLaX"
			}
, 			{
				"name" : "jcom.map.mxo",
				"type" : "iLaX"
			}
, 			{
				"name" : "jcom.dataspace.mxo",
				"type" : "iLaX"
			}
, 			{
				"name" : "jit.gl.syphonserver.mxo",
				"type" : "iLaX"
			}
, 			{
				"name" : "jcom.pass.mxo",
				"type" : "iLaX"
			}
, 			{
				"name" : "jcom.textslider.mxo",
				"type" : "iLaX"
			}
, 			{
				"name" : "jcom.message.mxo",
				"type" : "iLaX"
			}
 ]
	}

}
