max v2;#N vpatcher 95 45 866 764;#P newex 358 339 35 196617 s asdf;#P user jit.pwindow 529 311 82 62 0 1 0 0 1 0;#P user jit.fpsgui 35 681 60 196617 0;#P flonum 273 379 35 9 0 0 0 3 0 0 0 221 221 221 222 222 222 0 0 0;#P newex 35 410 105 196617 jit.op @op > @val 0.2;#P newex 35 324 27 196617 t l l;#P newex 35 361 90 196617 jit.op @op absdiff;#P user jit.pwindow 34 430 322 242 0 1 0 0 1 0;#P comment 134 358 131 196617 absolute differece between this frame and the last;#P comment 314 383 100 196617 threshold;#P flonum 646 250 35 9 0 0 0 3 0 0 0 221 221 221 222 222 222 0 0 0;#P flonum 501 250 35 9 0 0 0 3 0 0 0 221 221 221 222 222 222 0 0 0;#P flonum 578 250 35 9 0 0 0 3 0 0 0 221 221 221 222 222 222 0 0 0;#P message 646 269 69 196617 saturation \$1;#P message 501 269 70 196617 brightness \$1;#P message 578 269 61 196617 contrast \$1;#P message 625 341 68 196617 size 320 240;#P newex 169 283 52 196617 jit.brcosa;#P number 311 228 35 9 0 0 0 3 0 0 0 221 221 221 222 222 222 0 0 0;#P newex 320 163 50 1441802 t clear;#P newex 490 163 50 1441802 t clear;#P message 395 209 53 1441802 input \$1;#P user ubumenu 395 188 145 1441802 0 1 1;#X prefix_set 0 0 <none>;#P newex 395 163 92 1441802 prepend append;#P newex 395 140 32 1441802 iter;#P message 258 56 80 1441802 getinputlist;#P newex 557 132 38 1441802 print;#P user jit.fpsgui 55 272 60 1441802 0;#P message 225 209 68 1441802 vdevice \$1;#P user ubumenu 225 188 145 1441802 0 1 1;#X add ÔQuickCam Pro 3000Õ;#X prefix_set 0 0 <none>;#P newex 225 163 92 1441802 prepend append;#P newex 225 140 32 1441802 iter;#P message 183 56 73 1441802 getvdevlist;#P newex 167 109 152 1441802 route vdevlist inputlist;#P user jit.pwindow 54 139 162 122 0 1 0 0 1 0;#P toggle 55 36 15 0;#P newex 55 56 50 1441802 metro 2;#P message 143 56 38 1441802 close;#P message 108 56 32 1441802 open;#P newex 55 83 122 1441802 jit.qt.grab 320 240;#B color 5;#P user panel 30 32 569 271;#X brgb 192 192 128;#X frgb 0 0 0;#X border 0;#X rounded 0;#X shadow 0;#X done;#P background;#P connect 23 0 35 0;#P fasten 35 1 34 0 57 356 40 356;#P connect 34 0 36 0;#P connect 36 0 33 0;#P connect 33 0 38 0;#P connect 5 0 4 0;#P fasten 19 0 1 0 400 267 35 267 35 79 60 79;#P fasten 15 0 1 0 263 79 60 79;#P connect 4 0 1 0;#P fasten 3 0 1 0 148 79 60 79;#P fasten 2 0 1 0 113 79 60 79;#P fasten 8 0 1 0 188 79 60 79;#P fasten 12 0 1 0 230 264 39 264 39 79 60 79;#P connect 1 0 6 0;#P connect 6 0 13 0;#P fasten 35 0 34 1 40 347 120 347;#P fasten 37 0 36 1 278 402 135 402;#P connect 1 1 7 0;#P connect 1 0 23 0;#P connect 26 0 23 0;#P connect 25 0 23 0;#P connect 27 0 23 0;#P fasten 7 0 9 0 172 133 230 133;#P connect 9 0 10 0;#P fasten 21 0 11 0 325 184 230 184;#P connect 10 0 11 0;#P connect 11 0 12 0;#P connect 11 0 22 0;#P fasten 7 0 21 0 172 133 325 133;#P connect 36 0 40 0;#P fasten 7 1 16 0 243 129 400 129;#P connect 16 0 17 0;#P fasten 20 0 18 0 495 184 400 184;#P connect 17 0 18 0;#P connect 18 0 19 0;#P fasten 7 1 20 0 243 129 495 129;#P connect 29 0 26 0;#P connect 23 0 39 0;#P fasten 7 2 14 0 314 129 562 129;#P connect 28 0 25 0;#P connect 30 0 27 0;#P pop;