{
	"patcher" : 	{
		"fileversion" : 1,
		"appversion" : 		{
			"major" : 6,
			"minor" : 1,
			"revision" : 6,
			"architecture" : "x86"
		}
,
		"rect" : [ 25.0, 69.0, 50.0, 140.0 ],
		"bgcolor" : [ 1.0, 1.0, 1.0, 0.0 ],
		"bglocked" : 0,
		"openinpresentation" : 1,
		"default_fontsize" : 12.0,
		"default_fontface" : 0,
		"default_fontname" : "Arial",
		"gridonopen" : 0,
		"gridsize" : [ 15.0, 15.0 ],
		"gridsnaponopen" : 0,
		"statusbarvisible" : 2,
		"toolbarvisible" : 0,
		"boxanimatetime" : 200,
		"imprint" : 0,
		"enablehscroll" : 0,
		"enablevscroll" : 0,
		"devicewidth" : 0.0,
		"description" : "",
		"digest" : "",
		"tags" : "",
		"boxes" : [ 			{
				"box" : 				{
					"comment" : "",
					"id" : "obj-2",
					"maxclass" : "outlet",
					"numinlets" : 1,
					"numoutlets" : 0,
					"patching_rect" : [ 9.0, 183.0, 25.0, 25.0 ]
				}

			}
, 			{
				"box" : 				{
					"comment" : "",
					"id" : "obj-1",
					"maxclass" : "inlet",
					"numinlets" : 0,
					"numoutlets" : 1,
					"outlettype" : [ "signal" ],
					"patching_rect" : [ 61.0, 56.0, 25.0, 25.0 ]
				}

			}
, 			{
				"box" : 				{
					"bgcolor" : [ 0.290196, 0.611765, 0.380392, 0.164706 ],
					"bordercolor" : [ 0.145098, 0.07451, 0.376471, 1.0 ],
					"id" : "obj-53",
					"knobcolor" : [ 0.090196, 0.368627, 0.243137, 1.0 ],
					"maxclass" : "gain~",
					"numinlets" : 2,
					"numoutlets" : 2,
					"orientation" : 2,
					"outlettype" : [ "signal", "int" ],
					"parameter_enable" : 0,
					"patching_rect" : [ 244.0, 69.0, 17.0, 155.0 ],
					"presentation" : 1,
					"presentation_rect" : [ 1.0, 1.0, 18.0, 137.0 ],
					"stripecolor" : [ 0.666667, 0.666667, 0.666667, 0.329412 ]
				}

			}
, 			{
				"box" : 				{
					"bgcolor" : [ 0.0, 0.0, 0.0, 0.345098 ],
					"bordercolor" : [ 0.2, 0.2, 0.2, 0.0 ],
					"coldcolor" : [ 0.384314, 0.0, 0.705882, 1.0 ],
					"dbperled" : 2,
					"hotcolor" : [ 0.996078, 0.690196, 0.164706, 1.0 ],
					"id" : "obj-19",
					"maxclass" : "meter~",
					"ntepidleds" : 5,
					"numinlets" : 1,
					"numleds" : 20,
					"numoutlets" : 1,
					"nwarmleds" : 4,
					"outlettype" : [ "float" ],
					"overloadcolor" : [ 0.996078, 0.0, 0.0, 1.0 ],
					"patching_rect" : [ 1.0, 6.0, 16.0, 140.0 ],
					"presentation" : 1,
					"presentation_rect" : [ 3.0, 1.0, 14.0, 136.0 ],
					"tepidcolor" : [ 0.0, 0.584314, 0.470588, 1.0 ],
					"warmcolor" : [ 0.768627, 0.835294, 0.0, 1.0 ]
				}

			}
 ],
		"lines" : [ 			{
				"patchline" : 				{
					"destination" : [ "obj-53", 0 ],
					"disabled" : 0,
					"hidden" : 0,
					"source" : [ "obj-1", 0 ]
				}

			}
, 			{
				"patchline" : 				{
					"destination" : [ "obj-19", 0 ],
					"disabled" : 0,
					"hidden" : 1,
					"source" : [ "obj-53", 0 ]
				}

			}
, 			{
				"patchline" : 				{
					"destination" : [ "obj-2", 0 ],
					"disabled" : 0,
					"hidden" : 0,
					"source" : [ "obj-53", 0 ]
				}

			}
 ]
	}

}
